<!-- Generator: Adobe InDesign 14.0 SVG Export Plug-in, SVG Library version: 6.0 build 234 -->
<!DOCTYPE svg PUBLIC "-//W3C//DTD SVG 1.1//EN" "http://www.w3.org/Graphics/SVG/1.1/DTD/svg11.dtd">
<svg version="1.1" xmlns="http://www.w3.org/2000/svg" xmlns:xlink="http://www.w3.org/1999/xlink" x="0%" y="0%" width="100%"
	 height="100%" viewBox="0 0 301.857 534.346" preserveAspectRatio="xMidYMid slice" overflow="visible" xml:space="preserve">
<clipPath id="clp_unq_id_1" fill="none">
	<path shape-rendering="crispEdges" stroke="#000000" d="M0,0h301.857v534.346H0V0"/>
</clipPath>
<g clip-path="url(#clp_unq_id_1)" fill="none">
	<path fill="#0069A7" d="M165.762,25.888c1.648-0.16,2.84-0.6,3.576-1.32c0.736-0.72,1.104-1.872,1.104-3.456v-7.128h3.264
		c0.704,0,1.24,0.188,1.608,0.564c0.368,0.376,0.552,0.988,0.552,1.836v9.12h2.568v-9c0-1.552-0.36-2.688-1.08-3.408
		s-1.72-1.08-3-1.08h-6.48V21.4c0,0.896-0.16,1.544-0.48,1.944c-0.32,0.4-0.944,0.648-1.872,0.744L165.762,25.888z M181.554,25.504
		h2.568v-10.68l-0.312-2.808h-2.544l0.288,2.808V25.504z M187.314,20.464l2.544-0.48l0.024-1.512v-3.648l-0.312-2.808h-2.544
		l0.288,2.808V20.464z M192.45,25.504h6.456v-9.552c0-1.104-0.26-1.988-0.78-2.652c-0.52-0.664-1.26-1.068-2.22-1.212l-2.496-0.36
		l-0.336,1.944l1.632,0.24c0.544,0.08,0.952,0.276,1.224,0.588c0.272,0.312,0.408,0.812,0.408,1.5v7.536h-3.888V25.504z
		 M210.69,23.536v-7.032c0-1.552-0.36-2.688-1.08-3.408c-0.72-0.72-1.72-1.08-3-1.08h-5.16v1.968h4.512
		c0.704,0,1.24,0.188,1.608,0.564c0.368,0.376,0.552,0.988,0.552,1.836v7.152h-6.672v1.968h6.672h4.224v-1.968H210.69z
		 M221.634,25.504l-0.816-5.16v-4.608c0-1.12-0.212-1.976-0.636-2.568c-0.424-0.592-1.108-0.96-2.052-1.104l-2.376-0.336
		l-0.336,1.944l1.512,0.216c0.512,0.08,0.86,0.276,1.044,0.588c0.184,0.312,0.276,0.82,0.276,1.524v4.2
		c-0.432,0.88-1.02,1.612-1.764,2.196c-0.744,0.584-1.668,1.068-2.772,1.452l0.936,2.04c0.912-0.32,1.696-0.756,2.352-1.308
		c0.656-0.552,1.208-1.228,1.656-2.028l0.528,2.952H221.634z M232.193,12.016v0.936c0,2.352-0.048,4.116-0.144,5.292
		s-0.336,2.148-0.72,2.916s-1.008,1.344-1.872,1.728l-2.688-10.872h-2.568l2.952,11.472l-4.056,0.792l0.36,2.016l4.512-0.888
		c2.112-0.416,3.644-1.132,4.596-2.148c0.952-1.016,1.552-2.336,1.8-3.96c0.248-1.624,0.372-4.052,0.372-7.284H232.193z"/>
	<path fill="#0069A7" d="M251.009,23.536v-7.032c0-1.552-0.36-2.688-1.08-3.408s-1.72-1.08-3-1.08h-5.16v1.968h4.512
		c0.704,0,1.24,0.188,1.608,0.564c0.368,0.376,0.552,0.988,0.552,1.836v7.152h-6.672v1.968h6.672h4.224v-1.968H251.009z
		 M256.193,25.744c3.232-0.144,5.756-0.892,7.572-2.244c1.816-1.352,2.676-3.42,2.58-6.204l-0.024-0.672
		c-0.064-1.504-0.528-2.652-1.392-3.444c-0.864-0.792-2.016-1.236-3.456-1.332l-1.416-0.072l-0.192,2.016l1.2,0.072
		c0.912,0.064,1.6,0.376,2.064,0.936c0.464,0.56,0.696,1.272,0.696,2.136v0.672c0.112,3.504-1.68,5.44-5.376,5.808l-1.296-11.4
		h-2.568L256.193,25.744z M268.865,25.504h2.568v-10.68l-0.312-2.808h-2.544l0.288,2.808V25.504z M280.385,25.504h2.568v-9
		c0-1.552-0.36-2.688-1.08-3.408s-1.72-1.08-3-1.08h-5.088v1.968h4.44c0.704,0,1.24,0.188,1.608,0.564
		c0.368,0.376,0.552,0.988,0.552,1.836V25.504z"/>
	<path fill="#000000" d="M283.23,56.577h-0.546l-0.214-0.085l-0.085-0.215v-3.887c0-1.491-0.745-2.236-2.236-2.236h-1.586v6.123
		l-0.084,0.215l-0.215,0.085h-0.546l-0.214-0.085l-0.085-0.215v-6.825c0-0.095,0.028-0.169,0.085-0.221l0.214-0.078h2.496
		c1.118,0,1.95,0.266,2.496,0.8c0.546,0.533,0.819,1.332,0.819,2.398v3.926l-0.084,0.215L283.23,56.577 M275.105,56.577h-0.572
		l-0.214-0.085l-0.085-0.215v-6.825c0-0.095,0.028-0.169,0.085-0.221l0.214-0.078h0.572l0.215,0.085l0.084,0.214v6.825l-0.084,0.215
		L275.105,56.577 M271.985,56.577h-3.354l-0.208-0.085l-0.078-0.215v-0.416l0.078-0.214l0.208-0.085h2.509v-3.159
		c0-0.659-0.167-1.194-0.5-1.605c-0.334-0.412-0.756-0.618-1.267-0.618h-1.378l-1.001,6.084l-0.111,0.221l-0.214,0.091h-0.546
		l-0.201-0.091l-0.059-0.221l1.04-6.084h-0.663l-0.214-0.084l-0.085-0.215v-0.429l0.085-0.214l0.214-0.085h3.263
		c0.537,0,1.016,0.128,1.437,0.384c0.42,0.256,0.749,0.622,0.988,1.099c0.238,0.477,0.358,1.04,0.358,1.69v3.952l-0.085,0.215
		L271.985,56.577 M263.912,56.577h-0.546l-0.214-0.085l-0.085-0.215v-3.887c0-1.491-0.746-2.236-2.236-2.236h-1.677l-0.215-0.078
		l-0.084-0.208v-0.416l0.084-0.214l0.215-0.085h1.755c2.201,0,3.302,1.057,3.302,3.172v3.952l-0.084,0.215L263.912,56.577
		 M253.902,56.577h-5.447l-0.214-0.085l-0.085-0.215v-6.825c0-0.095,0.028-0.169,0.085-0.221l0.214-0.078h2.457
		c1.109,0,1.935,0.264,2.476,0.793c0.542,0.529,0.813,1.322,0.813,2.379v3.952l-0.084,0.215L253.902,56.577 M249.235,50.155v5.408
		h3.848v-3.172c0-1.491-0.745-2.236-2.236-2.236H249.235 M245.921,56.577h-0.897l-0.208-0.085l-0.078-0.215v-0.871
		c0-0.095,0.026-0.171,0.078-0.228l0.208-0.084h0.897c0.095,0,0.171,0.028,0.227,0.084c0.056,0.057,0.085,0.132,0.085,0.228v0.871
		l-0.091,0.215L245.921,56.577 M256.931,53.561h-0.572l-0.215-0.085l-0.084-0.214v-3.809c0-0.095,0.028-0.169,0.084-0.221
		l0.215-0.078h0.572l0.214,0.085l0.085,0.214v3.809l-0.085,0.214L256.931,53.561 M245.921,52.027h-0.897l-0.208-0.084l-0.078-0.215
		v-0.871c0-0.095,0.026-0.171,0.078-0.228l0.208-0.084h0.897c0.095,0,0.171,0.028,0.227,0.084c0.056,0.056,0.085,0.132,0.085,0.228
		v0.871l-0.091,0.215L245.921,52.027"/>
	<path fill="#000000" d="M265.888,75.089h-0.546l-0.214-0.078c-0.056-0.052-0.085-0.126-0.085-0.221v-8.437
		c0-0.095,0.028-0.169,0.085-0.221l0.214-0.078h0.546l0.215,0.085l0.084,0.214v8.437l-0.084,0.215L265.888,75.089 M280.201,73.557
		c-0.039,0-0.078,0-0.118-0.001h-0.962c-0.563,0-1.07-0.13-1.521-0.39c-0.451-0.26-0.804-0.626-1.06-1.099
		c-0.256-0.472-0.384-1.016-0.384-1.631v-4.082c0-0.095,0.028-0.169,0.085-0.221l0.215-0.078h0.507l0.214,0.085l0.085,0.214
		l0.039,3.692c0.789-0.06,1.337-0.273,1.645-0.637c0.308-0.364,0.462-0.84,0.462-1.43v-1.625l0.085-0.214l0.214-0.085h0.507
		l0.215,0.085l0.085,0.214v1.677c0,0.832-0.265,1.517-0.793,2.054c-0.529,0.537-1.304,0.832-2.327,0.884
		c0.138,0.503,0.396,0.89,0.773,1.164c0.377,0.273,0.83,0.409,1.359,0.409h0.416c0.015,0,0.029,0,0.044,0
		c0.802,0,1.429-0.238,1.88-0.715c0.459-0.485,0.689-1.131,0.689-1.937v-3.536l0.085-0.214l0.215-0.085h0.507l0.214,0.085
		l0.085,0.214v3.614c0,0.728-0.15,1.367-0.449,1.918c-0.299,0.55-0.719,0.971-1.261,1.261
		C281.438,73.42,280.855,73.557,280.201,73.557 M274.039,73.477h-3.354l-0.208-0.085l-0.078-0.215v-0.416l0.078-0.215l0.208-0.085
		h2.509v-3.159c0-0.659-0.167-1.194-0.501-1.605c-0.334-0.412-0.756-0.617-1.267-0.617h-1.378l-1.001,6.084l-0.111,0.221
		l-0.214,0.091h-0.546l-0.201-0.091l-0.058-0.221l1.04-6.084h-0.663l-0.215-0.085l-0.084-0.215v-0.429l0.084-0.214l0.215-0.085
		h3.263c0.537,0,1.016,0.128,1.436,0.384c0.42,0.256,0.75,0.622,0.988,1.099c0.238,0.477,0.358,1.04,0.358,1.69v3.952l-0.085,0.215
		L274.039,73.477"/>
	<path fill="#000000" d="M254.526,92.86h-0.533l-0.215-0.078c-0.056-0.052-0.084-0.126-0.084-0.221V85.71l0.084-0.215l0.215-0.084
		h0.533l0.214,0.084l0.085,0.215v6.851l-0.085,0.214L254.526,92.86 M243.177,91.989h-0.546l-0.215-0.078
		c-0.056-0.052-0.084-0.126-0.084-0.221v-8.437c0-0.095,0.028-0.169,0.084-0.221l0.215-0.078h0.546l0.214,0.085l0.085,0.214v8.437
		l-0.085,0.215L243.177,91.989 M266.213,90.507l-0.162-0.065l-0.072-0.182v-0.572c0-0.156,0.095-0.273,0.286-0.351l0.507-0.195
		c0.598-0.225,1.057-0.55,1.378-0.975c0.321-0.425,0.481-1.049,0.481-1.872c0-0.581-0.069-1.038-0.208-1.372
		c-0.139-0.333-0.366-0.574-0.682-0.721c-0.316-0.147-0.752-0.221-1.306-0.221h-0.403h-0.039l-1.196-0.013l-0.214-0.078
		l-0.085-0.208v-2.236l0.085-0.215l0.214-0.084h0.52l0.208,0.084l0.078,0.215v1.508h1.001c0.789,0,1.415,0.113,1.879,0.338
		c0.464,0.225,0.8,0.585,1.008,1.079c0.208,0.494,0.312,1.153,0.312,1.976c0,1.109-0.273,1.974-0.819,2.593
		c-0.546,0.62-1.257,1.077-2.132,1.372l-0.546,0.182L266.213,90.507 M256.372,90.507l-0.162-0.065l-0.072-0.182v-0.572
		c0-0.156,0.095-0.273,0.286-0.351l0.507-0.195c0.598-0.225,1.057-0.55,1.378-0.975c0.321-0.425,0.481-1.049,0.481-1.872
		c0-0.581-0.069-1.038-0.208-1.372c-0.139-0.333-0.366-0.574-0.682-0.721c-0.316-0.147-0.752-0.221-1.307-0.221h-2.6l-0.215-0.085
		l-0.084-0.215V83.24l0.084-0.208l0.215-0.078h2.756c0.797,0,1.428,0.113,1.891,0.338c0.464,0.225,0.8,0.585,1.008,1.079
		s0.312,1.153,0.312,1.976c0,1.109-0.273,1.974-0.819,2.593c-0.546,0.62-1.257,1.077-2.132,1.372l-0.546,0.182L256.372,90.507
		 M248.702,90.507c-1.135,0-1.963-0.271-2.483-0.813c-0.52-0.542-0.78-1.333-0.78-2.373v-4.069c0-0.095,0.028-0.169,0.085-0.221
		l0.215-0.078h0.494c0.095,0,0.169,0.026,0.221,0.078c0.052,0.052,0.078,0.126,0.078,0.221v4.004c0,0.719,0.18,1.27,0.539,1.651
		c0.36,0.382,0.903,0.572,1.631,0.572c0.719,0,1.25-0.175,1.593-0.527c0.342-0.351,0.522-0.882,0.539-1.593v-0.403v-0.936
		c-0.017-0.71-0.169-1.239-0.455-1.586c-0.286-0.346-0.676-0.52-1.17-0.52c-0.156,0-0.329,0.028-0.52,0.084
		c-0.191,0.057-0.355,0.128-0.494,0.215l-0.13,0.039l-0.162-0.071l-0.072-0.163v-0.377c0-0.104,0.009-0.186,0.026-0.247L248,83.24
		c0.182-0.121,0.375-0.21,0.579-0.266c0.204-0.056,0.462-0.085,0.774-0.085c0.84,0,1.48,0.245,1.917,0.735
		c0.438,0.49,0.669,1.246,0.695,2.269c0.009,0.087,0.013,0.342,0.013,0.767c0,0.425-0.005,0.68-0.013,0.767
		c-0.035,1.04-0.305,1.813-0.813,2.32C250.645,90.254,249.829,90.507,248.702,90.507 M283.802,90.377h-5.408l-0.208-0.085
		l-0.078-0.214v-0.416l0.078-0.215l0.208-0.085h3.757v-3.172c0-1.482-0.745-2.223-2.236-2.223h-1.391l-0.208-0.084l-0.078-0.215
		v-0.416l0.078-0.214l0.208-0.085h1.456c2.219,0,3.328,1.062,3.328,3.185v3.224h0.494l0.208,0.085l0.078,0.215v0.416l-0.078,0.214
		L283.802,90.377 M276.21,90.377h-4.68l-0.215-0.085l-0.084-0.214v-0.429l0.084-0.208l0.215-0.078h3.536l-4.069-5.902
		c-0.069-0.112-0.104-0.195-0.104-0.247l0.084-0.182l0.202-0.078h0.572c0.138,0,0.255,0.07,0.351,0.208l2.327,3.354
		c0.737-0.346,1.105-1.057,1.105-2.132v-1.131c0-0.095,0.028-0.169,0.085-0.221l0.214-0.078h0.507l0.215,0.085l0.085,0.214v1.274
		c0,0.668-0.139,1.239-0.416,1.716c-0.277,0.477-0.685,0.841-1.222,1.092l1.352,1.95c0.104,0.13,0.156,0.26,0.156,0.39v0.403
		l-0.085,0.214L276.21,90.377"/>
	<path fill="#000000" d="M269.476,109.76h-0.533l-0.214-0.078c-0.056-0.052-0.085-0.126-0.085-0.221v-6.851l0.085-0.214l0.214-0.085
		h0.533l0.215,0.085l0.084,0.214v6.851l-0.084,0.214L269.476,109.76 M215.592,109.76h-0.533l-0.214-0.078
		c-0.056-0.052-0.085-0.126-0.085-0.221v-6.851l0.085-0.214l0.214-0.085h0.533l0.214,0.085l0.085,0.214v6.851l-0.085,0.214
		L215.592,109.76 M203.905,108.005l-0.182-0.065l-0.078-0.169v-0.403c0-0.199,0.069-0.321,0.208-0.364l1.703-0.572l-1.69-6.058
		c-0.043-0.147-0.065-0.234-0.065-0.26l0.078-0.182l0.182-0.078h0.598l0.195,0.059l0.104,0.136l1.664,6.032
		c0.684-0.243,1.164-0.585,1.437-1.027c0.273-0.442,0.409-0.997,0.409-1.664v-3.237l0.084-0.214l0.215-0.085h0.546
		c0.095,0,0.169,0.026,0.221,0.078c0.052,0.052,0.078,0.126,0.078,0.221v3.588c0,0.763-0.251,1.45-0.754,2.061
		c-0.503,0.611-1.174,1.042-2.015,1.293l-2.834,0.897L203.905,108.005 M271.322,107.407l-0.163-0.065l-0.071-0.182v-0.572
		c0-0.156,0.095-0.273,0.286-0.351l0.507-0.195c0.598-0.225,1.057-0.55,1.378-0.975c0.321-0.425,0.481-1.049,0.481-1.872
		c0-0.58-0.069-1.038-0.208-1.371c-0.139-0.334-0.366-0.574-0.682-0.722c-0.316-0.147-0.752-0.221-1.307-0.221h-2.6l-0.214-0.085
		l-0.085-0.214v-0.442l0.085-0.208l0.214-0.078h2.756c0.797,0,1.428,0.113,1.891,0.338c0.464,0.226,0.8,0.585,1.008,1.079
		c0.208,0.494,0.312,1.153,0.312,1.976c0,1.109-0.273,1.974-0.819,2.593c-0.546,0.62-1.257,1.077-2.132,1.372l-0.546,0.182
		L271.322,107.407 M252.901,107.407c-1.066,0-1.866-0.28-2.398-0.839c-0.533-0.559-0.8-1.363-0.8-2.411v-4.004
		c0-0.095,0.028-0.169,0.085-0.221l0.214-0.078h3.12c1.118,0,1.92,0.251,2.405,0.754c0.485,0.503,0.749,1.274,0.793,2.314
		c0.009,0.087,0.013,0.321,0.013,0.702c0,0.382-0.004,0.615-0.013,0.702c-0.026,1.031-0.308,1.803-0.845,2.314
		C254.938,107.152,254.08,107.407,252.901,107.407 M250.795,100.855v3.302c0,0.719,0.176,1.27,0.527,1.651
		c0.351,0.382,0.873,0.572,1.567,0.572c0.815,0,1.399-0.171,1.755-0.514c0.355-0.342,0.542-0.877,0.559-1.605
		c0.009-0.087,0.013-0.299,0.013-0.637c0-0.338-0.005-0.55-0.013-0.637c-0.017-0.693-0.214-1.222-0.591-1.586
		c-0.377-0.364-0.895-0.546-1.554-0.546H250.795 M225.992,107.407c-1.066,0-1.866-0.28-2.399-0.839
		c-0.533-0.559-0.799-1.363-0.799-2.411v-4.004c0-0.095,0.028-0.169,0.084-0.221l0.215-0.078h3.12c1.118,0,1.919,0.251,2.405,0.754
		c0.485,0.503,0.749,1.274,0.793,2.314c0.009,0.087,0.013,0.321,0.013,0.702c0,0.382-0.004,0.615-0.013,0.702
		c-0.026,1.031-0.308,1.803-0.845,2.314C228.028,107.152,227.17,107.407,225.992,107.407 M223.886,100.855v3.302
		c0,0.719,0.176,1.27,0.527,1.651c0.351,0.382,0.873,0.572,1.566,0.572c0.815,0,1.4-0.171,1.755-0.514
		c0.355-0.342,0.541-0.877,0.559-1.605c0.009-0.087,0.013-0.299,0.013-0.637c0-0.338-0.004-0.55-0.013-0.637
		c-0.018-0.693-0.214-1.222-0.592-1.586c-0.377-0.364-0.895-0.546-1.553-0.546H223.886 M217.438,107.407l-0.163-0.065l-0.072-0.182
		v-0.572c0-0.156,0.095-0.273,0.286-0.351l0.507-0.195c0.598-0.225,1.057-0.55,1.378-0.975c0.321-0.425,0.481-1.049,0.481-1.872
		c0-0.58-0.069-1.038-0.208-1.371c-0.139-0.334-0.366-0.574-0.682-0.722c-0.316-0.147-0.752-0.221-1.307-0.221h-2.6l-0.214-0.085
		l-0.085-0.214v-0.442l0.085-0.208l0.214-0.078h2.756c0.797,0,1.428,0.113,1.891,0.338c0.464,0.226,0.8,0.585,1.008,1.079
		c0.208,0.494,0.312,1.153,0.312,1.976c0,1.109-0.273,1.974-0.819,2.593c-0.546,0.62-1.257,1.077-2.132,1.372l-0.546,0.182
		L217.438,107.407 M198.146,107.394c-0.148,0-0.221-0.069-0.221-0.208v-0.611c0-0.147,0.091-0.256,0.273-0.325
		c0.026-0.008,0.197-0.067,0.513-0.175c0.316-0.108,0.6-0.245,0.852-0.409c0.26-0.165,0.516-0.392,0.767-0.682
		c0.251-0.29,0.429-0.565,0.533-0.825l-0.234-1.17c-0.104-0.511-0.215-0.916-0.331-1.215c-0.117-0.299-0.275-0.527-0.475-0.682
		c-0.199-0.156-0.459-0.234-0.78-0.234h-0.481l-0.215-0.078l-0.084-0.208v-0.442l0.084-0.214l0.215-0.085h0.481
		c0.555,0,1.01,0.113,1.365,0.338c0.355,0.225,0.639,0.561,0.851,1.007c0.212,0.447,0.392,1.029,0.539,1.748l0.78,4.056v0.052
		l-0.084,0.175l-0.202,0.072h-0.572c-0.165,0-0.264-0.1-0.299-0.299l-0.299-1.521c-0.321,0.494-0.689,0.88-1.105,1.157
		c-0.321,0.217-0.62,0.383-0.897,0.5c-0.278,0.117-0.572,0.206-0.884,0.266L198.146,107.394 M266.33,107.277h-0.572l-0.214-0.085
		l-0.085-0.214v-6.825c0-0.095,0.028-0.169,0.085-0.221l0.214-0.078h0.572l0.215,0.085l0.084,0.214v6.825l-0.084,0.214
		L266.33,107.277 M260.753,107.277h-2.236l-0.214-0.085l-0.085-0.214v-0.429l0.085-0.215l0.214-0.085h2.171
		c0.607,0,1.075-0.195,1.404-0.585c0.329-0.39,0.507-0.94,0.533-1.651c0.009-0.087,0.013-0.238,0.013-0.455
		c0-0.208-0.005-0.355-0.013-0.442c-0.017-0.71-0.193-1.261-0.526-1.651c-0.334-0.39-0.804-0.585-1.411-0.585h-1.599v1.04
		c0,0.347,0.039,0.62,0.117,0.819c0.078,0.199,0.212,0.325,0.403,0.377l0.494,0.13l0.163,0.136c0.039,0.074,0.058,0.163,0.058,0.267
		v0.299c0,0.096-0.048,0.165-0.143,0.208c-0.068,0.031-0.14,0.046-0.217,0.046c-0.031,0-0.063-0.003-0.095-0.008l-0.507-0.104
		c-0.867-0.19-1.3-0.927-1.3-2.21v-1.729c0-0.095,0.028-0.169,0.085-0.221l0.214-0.078h2.392c0.953,0,1.677,0.278,2.171,0.832
		c0.494,0.555,0.758,1.348,0.793,2.379c0.008,0.087,0.013,0.251,0.013,0.494c0,0.251-0.005,0.421-0.013,0.507
		c-0.035,1.031-0.299,1.824-0.793,2.379C262.43,107,261.706,107.277,260.753,107.277 M247.532,107.277h-0.546l-0.215-0.085
		l-0.085-0.214v-3.887c0-1.491-0.745-2.236-2.236-2.236h-0.936c-0.087,0.546-0.15,0.999-0.188,1.359
		c-0.039,0.36-0.054,0.769-0.046,1.229l0.026,3.536l-0.085,0.214l-0.214,0.085l-1.807-0.026l-0.214-0.084l-0.085-0.215v-0.39
		l0.085-0.215l0.214-0.084l1.001,0.013v-2.782c-0.009-0.546,0.002-1.008,0.033-1.384c0.03-0.377,0.102-0.795,0.215-1.255h-0.702
		l-0.215-0.078l-0.084-0.208v-0.416c0-0.095,0.028-0.169,0.084-0.221l0.215-0.078h2.782c2.201,0,3.302,1.058,3.302,3.172v3.952
		l-0.085,0.214L247.532,107.277 M235.781,107.277h-0.546l-0.215-0.085l-0.084-0.214v-3.887c0-1.491-0.745-2.236-2.236-2.236h-1.677
		l-0.214-0.078l-0.085-0.208v-0.416l0.085-0.214l0.214-0.085h1.755c2.201,0,3.302,1.058,3.302,3.172v3.952l-0.085,0.214
		L235.781,107.277 M196.625,107.277h-5.408l-0.208-0.085l-0.078-0.214v-0.416l0.078-0.215l0.208-0.084h3.757v-3.172
		c0-1.482-0.745-2.223-2.236-2.223h-1.391l-0.208-0.085l-0.078-0.215v-0.416l0.078-0.214l0.208-0.085h1.456
		c2.219,0,3.328,1.062,3.328,3.185v3.224h0.494l0.208,0.084l0.078,0.215v0.416l-0.078,0.214L196.625,107.277 M189.307,107.277
		h-3.471l-0.214-0.085l-0.085-0.214v-0.416l0.085-0.215l0.214-0.084h2.561l-0.208-3.302c-0.043-0.563-0.089-0.977-0.137-1.242
		c-0.048-0.264-0.154-0.479-0.318-0.643c-0.165-0.165-0.42-0.247-0.767-0.247h-0.533l-0.215-0.078l-0.084-0.208v-0.416l0.084-0.214
		l0.215-0.085h0.533c0.624,0,1.103,0.123,1.437,0.371c0.333,0.247,0.563,0.587,0.689,1.021c0.125,0.433,0.21,1.001,0.253,1.703
		l0.247,4.056v0.039l-0.084,0.188L189.307,107.277 M180.649,107.277h-0.572l-0.215-0.085l-0.084-0.214v-6.825
		c0-0.095,0.028-0.169,0.084-0.221l0.215-0.078h0.572l0.215,0.085l0.084,0.214v6.825l-0.084,0.214L180.649,107.277 M177.529,107.277
		h-0.546l-0.214-0.085l-0.085-0.214v-3.887c0-1.491-0.745-2.236-2.236-2.236h-0.936c-0.087,0.546-0.149,0.999-0.188,1.359
		c-0.039,0.36-0.054,0.769-0.045,1.229l0.026,3.536l-0.084,0.214l-0.215,0.085l-1.807-0.026l-0.215-0.084l-0.084-0.215v-0.39
		l0.084-0.215l0.215-0.084l1.001,0.013v-2.782c-0.009-0.546,0.002-1.008,0.033-1.384c0.03-0.377,0.102-0.795,0.214-1.255h-0.702
		l-0.215-0.078l-0.085-0.208v-0.416c0-0.095,0.028-0.169,0.085-0.221l0.215-0.078h2.782c2.201,0,3.302,1.058,3.302,3.172v3.952
		l-0.084,0.214L177.529,107.277 M183.743,104.261h-0.572l-0.214-0.084l-0.085-0.215v-3.809c0-0.095,0.028-0.169,0.085-0.221
		l0.214-0.078h0.572l0.215,0.085l0.084,0.214v3.809l-0.084,0.215L183.743,104.261"/>
	<path fill="#000000" d="M283.165,107.277h-0.637l-0.208-0.085l-0.078-0.214v-7.332l-2.184,1.677l-0.195,0.078l-0.221-0.13
		l-0.312-0.403l-0.065-0.182c0-0.095,0.043-0.173,0.13-0.234l2.821-2.184c0.095-0.061,0.208-0.091,0.338-0.091h0.611l0.214,0.084
		l0.085,0.215v8.502l-0.085,0.214L283.165,107.277"/>
	<path fill="#000000" d="M256.112,124.307c-1.066,0-1.866-0.28-2.398-0.839c-0.533-0.559-0.8-1.363-0.8-2.411v-4.004
		c0-0.095,0.028-0.169,0.085-0.221l0.214-0.078h3.12c1.118,0,1.92,0.251,2.405,0.754c0.485,0.503,0.75,1.274,0.793,2.314
		c0.009,0.087,0.013,0.321,0.013,0.702c0,0.382-0.005,0.615-0.013,0.702c-0.026,1.031-0.308,1.803-0.845,2.314
		C258.149,124.052,257.291,124.307,256.112,124.307 M254.006,117.755v3.302c0,0.719,0.176,1.27,0.526,1.651
		c0.351,0.382,0.873,0.572,1.567,0.572c0.815,0,1.399-0.171,1.755-0.513c0.355-0.342,0.542-0.878,0.559-1.606
		c0.008-0.086,0.013-0.299,0.013-0.637c0-0.338-0.005-0.55-0.013-0.637c-0.018-0.693-0.215-1.222-0.592-1.586
		c-0.377-0.364-0.895-0.546-1.554-0.546H254.006 M282.97,124.203h-0.338l-0.208-0.078l-0.078-0.208v-0.624h-1.911l-0.208-0.078
		l-0.078-0.208v-0.286c0-0.121,0.052-0.251,0.156-0.39l1.755-2.444c0.112-0.156,0.243-0.234,0.39-0.234h0.52l0.208,0.078
		l0.078,0.208v2.509h0.455l0.208,0.078l0.078,0.208v0.273l-0.078,0.208l-0.208,0.078h-0.455v0.624l-0.078,0.208L282.97,124.203
		 M282.359,120.836l-1.131,1.625h1.131V120.836 M276.236,124.177h-0.351l-0.188-0.072l-0.071-0.188l0.052-0.143l6.409-8.45
		c0.069-0.095,0.132-0.16,0.188-0.195c0.056-0.035,0.136-0.052,0.241-0.052h0.351l0.195,0.071l0.078,0.188l-0.052,0.143l-6.422,8.45
		l-0.188,0.189C276.42,124.158,276.34,124.177,276.236,124.177 M266.681,124.177h-1.924l-0.215-0.085l-0.084-0.214v-0.429
		c0-0.095,0.028-0.169,0.084-0.221l0.215-0.078h1.859c0.754,0,1.309-0.19,1.664-0.572c0.355-0.381,0.55-0.936,0.585-1.664
		c0.009-0.121,0.013-0.273,0.013-0.455c0-0.173-0.004-0.321-0.013-0.442c-0.026-0.737-0.219-1.293-0.579-1.67
		c-0.36-0.377-0.916-0.565-1.671-0.565h-1.859l-0.215-0.085l-0.084-0.214v-0.429c0-0.095,0.028-0.169,0.084-0.221l0.215-0.078h1.924
		c1.101,0,1.918,0.275,2.451,0.825c0.533,0.551,0.817,1.346,0.852,2.386c0.008,0.121,0.013,0.286,0.013,0.494
		c0,0.208-0.005,0.377-0.013,0.507c-0.035,1.04-0.319,1.835-0.852,2.385C268.598,123.902,267.781,124.177,266.681,124.177
		 M262.144,124.177h-0.572l-0.214-0.085l-0.085-0.214v-6.825c0-0.095,0.028-0.169,0.085-0.221l0.214-0.078h0.572l0.214,0.085
		l0.085,0.215v6.825l-0.085,0.214L262.144,124.177 M247.545,124.177h-3.354l-0.208-0.085l-0.078-0.214v-0.416l0.078-0.215
		l0.208-0.084h2.509v-3.159c0-0.659-0.167-1.194-0.5-1.605c-0.334-0.411-0.756-0.617-1.268-0.617h-1.378l-1.001,6.084l-0.11,0.221
		l-0.215,0.091h-0.546l-0.201-0.091l-0.058-0.221l1.04-6.084h-0.663l-0.214-0.085l-0.085-0.214v-0.429l0.085-0.215l0.214-0.085
		h3.263c0.537,0,1.016,0.128,1.437,0.384c0.42,0.256,0.75,0.622,0.988,1.099c0.238,0.477,0.357,1.04,0.357,1.69v3.952l-0.084,0.214
		L247.545,124.177 M236.47,124.177h-5.447l-0.214-0.085l-0.085-0.214v-6.825c0-0.095,0.028-0.169,0.085-0.221l0.214-0.078h2.457
		c1.109,0,1.935,0.264,2.476,0.793c0.542,0.529,0.813,1.322,0.813,2.379v3.952l-0.084,0.214L236.47,124.177 M231.803,117.755v5.408
		h3.848v-3.172c0-1.491-0.745-2.236-2.236-2.236H231.803 M239.499,121.161h-0.572l-0.215-0.084l-0.084-0.215v-3.809
		c0-0.095,0.028-0.169,0.084-0.221l0.215-0.078h0.572l0.214,0.085l0.085,0.215v3.809l-0.085,0.215L239.499,121.161 M276.054,119.692
		c-0.563,0-0.999-0.106-1.307-0.319c-0.308-0.212-0.47-0.466-0.487-0.76v-0.026l0.078-0.156l0.143-0.065h0.325
		c0.113,0,0.221,0.052,0.325,0.156l0.136,0.137c0.065,0.065,0.16,0.117,0.286,0.156c0.126,0.039,0.288,0.058,0.488,0.058
		c0.268,0,0.489-0.052,0.663-0.156c0.173-0.104,0.26-0.247,0.26-0.429c0-0.208-0.074-0.358-0.221-0.449
		c-0.148-0.091-0.36-0.136-0.637-0.136h-0.533l-0.208-0.078l-0.078-0.208v-0.247c0-0.087,0.052-0.182,0.156-0.286l1.053-0.962
		h-1.742l-0.208-0.078l-0.078-0.208v-0.273l0.078-0.208l0.208-0.078h2.665l0.208,0.078l0.078,0.208v0.247
		c0,0.096-0.013,0.178-0.039,0.247l-0.169,0.221l-0.936,0.845c0.442,0.035,0.773,0.173,0.994,0.416
		c0.221,0.243,0.332,0.559,0.332,0.949c0,0.442-0.161,0.787-0.481,1.033C277.085,119.569,276.634,119.692,276.054,119.692"/>
	<path fill="#000000" d="M272.102,141.207l-0.163-0.065l-0.072-0.182v-0.572c0-0.156,0.095-0.273,0.286-0.351l0.507-0.195
		c0.598-0.225,1.057-0.55,1.378-0.975c0.321-0.425,0.481-1.049,0.481-1.872c0-0.581-0.07-1.038-0.208-1.372
		c-0.139-0.334-0.366-0.574-0.682-0.722c-0.316-0.147-0.752-0.221-1.307-0.221h-0.403h-0.039l-1.196-0.013l-0.215-0.078
		l-0.085-0.208v-2.236l0.085-0.214l0.215-0.085h0.52l0.208,0.085l0.078,0.214v1.508h1.001c0.789,0,1.415,0.113,1.879,0.338
		c0.464,0.226,0.8,0.585,1.008,1.079s0.312,1.153,0.312,1.976c0,1.109-0.273,1.974-0.819,2.593c-0.546,0.62-1.257,1.077-2.132,1.372
		l-0.546,0.182L272.102,141.207 M283.23,141.077h-3.354l-0.208-0.085l-0.078-0.214v-0.416l0.078-0.215l0.208-0.084h2.509v-3.159
		c0-0.659-0.167-1.194-0.501-1.605c-0.334-0.411-0.756-0.617-1.267-0.617h-1.378l-1.001,6.084l-0.111,0.221l-0.214,0.091h-0.546
		l-0.201-0.091l-0.058-0.221l1.04-6.084h-0.663l-0.215-0.085l-0.084-0.214v-0.429l0.084-0.215l0.215-0.085h3.263
		c0.537,0,1.016,0.128,1.437,0.384c0.42,0.256,0.75,0.622,0.988,1.099c0.238,0.477,0.357,1.04,0.357,1.69v3.952l-0.085,0.214
		L283.23,141.077 M268.605,141.077h-0.546l-0.215-0.085l-0.084-0.214v-3.887c0-1.491-0.745-2.236-2.236-2.236h-1.586v6.123
		l-0.085,0.214l-0.214,0.085h-0.546l-0.215-0.085l-0.084-0.214v-6.825c0-0.095,0.028-0.169,0.084-0.221l0.215-0.078h2.496
		c1.118,0,1.95,0.267,2.496,0.8c0.546,0.533,0.819,1.332,0.819,2.398v3.926l-0.085,0.214L268.605,141.077"/>
	<path fill="#000000" d="M253.395,160.46h-0.533l-0.215-0.078c-0.056-0.052-0.084-0.126-0.084-0.221v-6.851l0.084-0.214l0.215-0.085
		h0.533l0.215,0.085l0.085,0.214v6.851l-0.085,0.214L253.395,160.46 M174.357,160.46h-0.533l-0.215-0.078
		c-0.056-0.052-0.084-0.126-0.084-0.221v-6.851l0.084-0.214l0.215-0.085h0.533l0.214,0.085l0.085,0.214v6.851l-0.085,0.214
		L174.357,160.46 M255.241,158.107l-0.162-0.065l-0.072-0.182v-0.572c0-0.156,0.095-0.273,0.286-0.351l0.507-0.195
		c0.598-0.225,1.057-0.55,1.378-0.975c0.32-0.425,0.481-1.048,0.481-1.872c0-0.581-0.07-1.038-0.208-1.372
		c-0.139-0.334-0.366-0.574-0.683-0.722c-0.316-0.147-0.752-0.221-1.306-0.221h-2.6l-0.215-0.085l-0.084-0.214v-0.442l0.084-0.208
		l0.215-0.078h2.756c0.797,0,1.428,0.113,1.891,0.338c0.464,0.226,0.8,0.585,1.008,1.079s0.312,1.153,0.312,1.976
		c0,1.109-0.273,1.974-0.819,2.594c-0.546,0.62-1.257,1.077-2.132,1.372l-0.546,0.182L255.241,158.107 M176.203,158.107
		l-0.163-0.065l-0.072-0.182v-0.572c0-0.156,0.095-0.273,0.286-0.351l0.507-0.195c0.598-0.225,1.057-0.55,1.378-0.975
		c0.321-0.425,0.481-1.048,0.481-1.872c0-0.581-0.07-1.038-0.208-1.372c-0.139-0.334-0.366-0.574-0.682-0.722
		c-0.316-0.147-0.752-0.221-1.307-0.221h-2.6l-0.215-0.085l-0.084-0.214v-0.442l0.084-0.208l0.215-0.078h2.756
		c0.797,0,1.428,0.113,1.891,0.338c0.464,0.226,0.8,0.585,1.008,1.079s0.312,1.153,0.312,1.976c0,1.109-0.273,1.974-0.819,2.594
		c-0.546,0.62-1.257,1.077-2.132,1.372l-0.546,0.182L176.203,158.107 M280.773,157.977h-2.236l-0.215-0.085l-0.084-0.214v-0.429
		l0.084-0.215l0.215-0.084h2.171c0.607,0,1.074-0.195,1.404-0.585c0.329-0.39,0.507-0.94,0.533-1.651
		c0.009-0.087,0.013-0.238,0.013-0.455c0-0.208-0.004-0.355-0.013-0.442c-0.018-0.71-0.193-1.261-0.526-1.651
		c-0.334-0.39-0.804-0.585-1.41-0.585h-1.599v1.04c0,0.347,0.039,0.62,0.117,0.819c0.078,0.199,0.212,0.325,0.403,0.377l0.494,0.13
		l0.163,0.137c0.039,0.074,0.058,0.162,0.058,0.266v0.299c0,0.096-0.048,0.165-0.143,0.208c-0.068,0.031-0.141,0.047-0.217,0.047
		c-0.031,0-0.062-0.002-0.095-0.007l-0.507-0.104c-0.867-0.19-1.3-0.927-1.3-2.21v-1.729c0-0.095,0.028-0.169,0.085-0.221
		l0.215-0.078h2.392c0.953,0,1.677,0.278,2.171,0.832c0.494,0.555,0.758,1.348,0.793,2.379c0.009,0.087,0.013,0.251,0.013,0.494
		c0,0.251-0.004,0.42-0.013,0.507c-0.035,1.031-0.299,1.824-0.793,2.379C282.45,157.7,281.726,157.977,280.773,157.977
		 M273.376,157.977h-2.236l-0.214-0.085l-0.085-0.214v-0.429l0.085-0.215l0.214-0.084h2.171c0.606,0,1.075-0.195,1.404-0.585
		c0.329-0.39,0.507-0.94,0.533-1.651c0.009-0.087,0.013-0.238,0.013-0.455c0-0.208-0.004-0.355-0.013-0.442
		c-0.017-0.71-0.193-1.261-0.527-1.651c-0.334-0.39-0.804-0.585-1.41-0.585h-1.599v1.04c0,0.347,0.039,0.62,0.117,0.819
		c0.078,0.199,0.212,0.325,0.403,0.377l0.494,0.13l0.163,0.137c0.039,0.074,0.059,0.162,0.059,0.266v0.299
		c0,0.096-0.048,0.165-0.143,0.208c-0.068,0.031-0.141,0.047-0.218,0.047c-0.031,0-0.062-0.002-0.095-0.007l-0.507-0.104
		c-0.867-0.19-1.3-0.927-1.3-2.21v-1.729c0-0.095,0.028-0.169,0.085-0.221l0.214-0.078h2.392c0.953,0,1.677,0.278,2.171,0.832
		c0.494,0.555,0.758,1.348,0.793,2.379c0.009,0.087,0.013,0.251,0.013,0.494c0,0.251-0.005,0.42-0.013,0.507
		c-0.035,1.031-0.299,1.824-0.793,2.379C275.053,157.7,274.329,157.977,273.376,157.977 M268.436,157.977h-0.546l-0.215-0.085
		l-0.085-0.214v-3.887c0-1.491-0.745-2.236-2.236-2.236h-1.677l-0.214-0.078l-0.085-0.208v-0.416l0.085-0.215l0.214-0.085h1.755
		c2.201,0,3.302,1.058,3.302,3.172v3.952l-0.085,0.214L268.436,157.977 M250.314,157.977h-0.546l-0.215-0.085l-0.084-0.214v-3.887
		c0-1.491-0.741-2.236-2.223-2.236h-2.418l-0.214-0.078l-0.085-0.208v-0.416c0-0.095,0.028-0.169,0.085-0.221l0.214-0.078h2.483
		c2.201,0,3.302,1.066,3.302,3.198v3.926l-0.085,0.214L250.314,157.977 M245.374,157.977h-0.546l-0.214-0.085l-0.085-0.214v-4.368
		l0.085-0.214l0.214-0.085h0.546l0.214,0.085l0.085,0.214v4.368l-0.085,0.214L245.374,157.977 M239.083,157.977h-0.546l-0.214-0.085
		l-0.085-0.214v-3.887c0-1.491-0.745-2.236-2.236-2.236h-1.586v6.123l-0.085,0.214l-0.214,0.085h-0.546l-0.214-0.085l-0.085-0.214
		v-6.825c0-0.095,0.028-0.169,0.085-0.221l0.214-0.078h2.496c1.118,0,1.95,0.267,2.496,0.8c0.546,0.533,0.819,1.333,0.819,2.398
		v3.926l-0.085,0.214L239.083,157.977 M231.023,157.977h-0.546l-0.214-0.085l-0.085-0.214v-3.887c0-1.491-0.745-2.236-2.236-2.236
		h-1.677l-0.215-0.078l-0.085-0.208v-0.416l0.085-0.215l0.215-0.085h1.755c2.201,0,3.302,1.058,3.302,3.172v3.952l-0.085,0.214
		L231.023,157.977 M218.556,157.977h-2.236l-0.214-0.085l-0.085-0.214v-0.429l0.085-0.215l0.214-0.084h2.171
		c0.607,0,1.075-0.195,1.404-0.585c0.329-0.39,0.507-0.94,0.533-1.651c0.009-0.087,0.013-0.238,0.013-0.455
		c0-0.208-0.004-0.355-0.013-0.442c-0.018-0.71-0.193-1.261-0.527-1.651c-0.334-0.39-0.804-0.585-1.41-0.585h-1.599v1.04
		c0,0.347,0.039,0.62,0.117,0.819c0.078,0.199,0.212,0.325,0.403,0.377l0.494,0.13l0.162,0.137c0.039,0.074,0.059,0.162,0.059,0.266
		v0.299c0,0.096-0.048,0.165-0.143,0.208c-0.068,0.031-0.141,0.047-0.218,0.047c-0.031,0-0.062-0.002-0.095-0.007l-0.507-0.104
		c-0.867-0.19-1.3-0.927-1.3-2.21v-1.729c0-0.095,0.028-0.169,0.084-0.221l0.215-0.078h2.392c0.953,0,1.677,0.278,2.171,0.832
		c0.494,0.555,0.758,1.348,0.793,2.379c0.009,0.087,0.013,0.251,0.013,0.494c0,0.251-0.005,0.42-0.013,0.507
		c-0.035,1.031-0.299,1.824-0.793,2.379C220.233,157.7,219.509,157.977,218.556,157.977 M213.616,157.977h-0.546l-0.215-0.085
		l-0.084-0.214v-3.887c0-1.491-0.741-2.236-2.223-2.236h-2.418l-0.214-0.078l-0.085-0.208v-0.416c0-0.095,0.028-0.169,0.085-0.221
		l0.214-0.078h2.483c2.201,0,3.302,1.066,3.302,3.198v3.926l-0.085,0.214L213.616,157.977 M208.676,157.977h-0.546l-0.214-0.085
		l-0.085-0.214v-4.368l0.085-0.214l0.214-0.085h0.546l0.214,0.085l0.085,0.214v4.368l-0.085,0.214L208.676,157.977 M202.319,157.977
		h-0.572l-0.215-0.085l-0.084-0.214v-6.825c0-0.095,0.028-0.169,0.084-0.221l0.215-0.078h0.572l0.215,0.085l0.084,0.215v6.825
		l-0.084,0.214L202.319,157.977 M199.2,157.977h-3.354l-0.208-0.085l-0.078-0.214v-0.416l0.078-0.215l0.208-0.084h2.509v-3.159
		c0-0.659-0.167-1.194-0.5-1.605c-0.334-0.411-0.756-0.617-1.267-0.617h-1.378l-1.001,6.084l-0.11,0.221l-0.215,0.091h-0.546
		l-0.202-0.091l-0.058-0.221l1.04-6.084h-0.663l-0.214-0.085l-0.085-0.214v-0.429l0.085-0.215l0.214-0.085h3.263
		c0.537,0,1.016,0.128,1.437,0.384c0.42,0.256,0.749,0.622,0.988,1.098c0.238,0.477,0.358,1.04,0.358,1.69v3.952l-0.085,0.214
		L199.2,157.977 M191.127,157.977h-0.546l-0.215-0.085l-0.084-0.214v-3.887c0-1.491-0.745-2.236-2.236-2.236h-0.936
		c-0.087,0.546-0.15,0.999-0.188,1.358c-0.039,0.36-0.054,0.769-0.045,1.229l0.026,3.536l-0.085,0.214l-0.214,0.085l-1.807-0.026
		l-0.215-0.085l-0.085-0.214v-0.39l0.085-0.215l0.215-0.084l1.001,0.013v-2.782c-0.009-0.546,0.002-1.008,0.033-1.384
		c0.03-0.377,0.102-0.795,0.214-1.254h-0.702l-0.214-0.078l-0.085-0.208v-0.416c0-0.095,0.028-0.169,0.085-0.221l0.214-0.078h2.782
		c2.201,0,3.302,1.058,3.302,3.172v3.952l-0.085,0.214L191.127,157.977 M182.508,157.977h-0.572l-0.215-0.085l-0.085-0.214v-6.825
		c0-0.095,0.028-0.169,0.085-0.221l0.215-0.078h0.572l0.214,0.085l0.085,0.215v6.825l-0.085,0.214L182.508,157.977 M171.276,157.977
		h-0.546l-0.215-0.085l-0.084-0.214v-3.887c0-1.491-0.741-2.236-2.223-2.236h-2.418l-0.214-0.078l-0.085-0.208v-0.416
		c0-0.095,0.028-0.169,0.085-0.221l0.214-0.078h2.483c2.201,0,3.302,1.066,3.302,3.198v3.926l-0.085,0.214L171.276,157.977
		 M166.336,157.977h-0.546l-0.214-0.085l-0.085-0.214v-4.368l0.085-0.214l0.214-0.085h0.546l0.214,0.085l0.085,0.214v4.368
		l-0.085,0.214L166.336,157.977 M261.455,154.961h-0.572l-0.214-0.085l-0.085-0.215v-3.809c0-0.095,0.028-0.169,0.085-0.221
		l0.214-0.078h0.572l0.215,0.085l0.085,0.215v3.809l-0.085,0.215L261.455,154.961 M224.042,154.961h-0.572l-0.214-0.085
		l-0.085-0.215v-3.809c0-0.095,0.028-0.169,0.085-0.221l0.214-0.078h0.572l0.214,0.085l0.085,0.215v3.809l-0.085,0.215
		L224.042,154.961"/>
	<path fill="#000000" d="M280.318,175.007c-1.066,0-1.866-0.279-2.398-0.838s-0.8-1.363-0.8-2.412v-4.004
		c0-0.095,0.028-0.169,0.085-0.221l0.214-0.078h3.12c1.118,0,1.92,0.251,2.405,0.754c0.485,0.503,0.749,1.274,0.793,2.314
		c0.009,0.087,0.013,0.321,0.013,0.702c0,0.381-0.005,0.615-0.013,0.702c-0.026,1.031-0.308,1.803-0.845,2.314
		C282.354,174.752,281.496,175.007,280.318,175.007 M278.212,168.455v3.302c0,0.72,0.175,1.27,0.526,1.651
		c0.351,0.381,0.873,0.572,1.567,0.572c0.815,0,1.399-0.171,1.755-0.514c0.355-0.342,0.541-0.878,0.559-1.605
		c0.008-0.087,0.013-0.299,0.013-0.637s-0.005-0.55-0.013-0.637c-0.018-0.693-0.215-1.222-0.592-1.586
		c-0.377-0.364-0.895-0.546-1.554-0.546H278.212 M274.884,174.877h-0.572l-0.214-0.084l-0.085-0.215v-6.825
		c0-0.095,0.028-0.169,0.085-0.221l0.214-0.078h0.572l0.215,0.084l0.084,0.215v6.825l-0.084,0.215L274.884,174.877 M268.969,174.877
		h-1.924l-0.215-0.084l-0.085-0.215v-0.429c0-0.095,0.028-0.169,0.085-0.221l0.215-0.078h1.859c0.754,0,1.309-0.191,1.664-0.572
		c0.355-0.381,0.55-0.936,0.585-1.664c0.009-0.121,0.013-0.273,0.013-0.455c0-0.173-0.005-0.32-0.013-0.442
		c-0.026-0.737-0.219-1.294-0.578-1.671c-0.36-0.377-0.917-0.566-1.671-0.566h-1.859l-0.215-0.085l-0.085-0.214v-0.429
		c0-0.095,0.028-0.169,0.085-0.221l0.215-0.078h1.924c1.101,0,1.917,0.275,2.451,0.825c0.533,0.55,0.817,1.345,0.851,2.385
		c0.009,0.121,0.013,0.286,0.013,0.494c0,0.208-0.004,0.377-0.013,0.507c-0.035,1.04-0.319,1.835-0.851,2.385
		C270.886,174.602,270.069,174.877,268.969,174.877 M264.497,174.877h-0.546l-0.214-0.084l-0.085-0.215v-3.887
		c0-1.49-0.745-2.236-2.236-2.236h-1.677l-0.214-0.078l-0.085-0.208v-0.416l0.085-0.215l0.214-0.084h1.755
		c2.201,0,3.302,1.057,3.302,3.172v3.952l-0.084,0.215L264.497,174.877"/>
	<path fill="#000000" d="M272.778,191.907l-0.163-0.065l-0.071-0.182v-0.572c0-0.156,0.095-0.273,0.286-0.351l0.507-0.195
		c0.598-0.225,1.057-0.55,1.378-0.975c0.321-0.425,0.481-1.048,0.481-1.872c0-0.581-0.069-1.038-0.208-1.372
		c-0.139-0.333-0.366-0.574-0.682-0.722c-0.316-0.147-0.752-0.221-1.307-0.221h-0.403h-0.039l-1.196-0.013l-0.214-0.078
		l-0.085-0.208v-2.236l0.085-0.214l0.214-0.085h0.52l0.208,0.085l0.078,0.214v1.508h1.001c0.789,0,1.415,0.113,1.879,0.338
		c0.464,0.226,0.799,0.585,1.007,1.079s0.312,1.153,0.312,1.976c0,1.109-0.273,1.974-0.819,2.594
		c-0.546,0.62-1.257,1.077-2.132,1.371l-0.546,0.182L272.778,191.907 M258.712,191.907l-0.162-0.065l-0.072-0.182v-0.572
		c0-0.156,0.095-0.273,0.286-0.351l0.507-0.195c0.598-0.225,1.057-0.55,1.378-0.975c0.32-0.425,0.481-1.048,0.481-1.872
		c0-0.581-0.07-1.038-0.208-1.372c-0.139-0.333-0.366-0.574-0.683-0.722c-0.316-0.147-0.752-0.221-1.306-0.221h-0.403h-0.039
		l-1.196-0.013l-0.215-0.078l-0.085-0.208v-2.236l0.085-0.214l0.215-0.085h0.52l0.208,0.085l0.078,0.214v1.508h1.001
		c0.789,0,1.415,0.113,1.879,0.338c0.464,0.226,0.8,0.585,1.008,1.079s0.312,1.153,0.312,1.976c0,1.109-0.273,1.974-0.819,2.594
		c-0.546,0.62-1.257,1.077-2.132,1.371l-0.546,0.182L258.712,191.907 M249.028,191.857c-0.039,0-0.078,0-0.118-0.001h-0.962
		c-0.563,0-1.07-0.13-1.521-0.39c-0.451-0.26-0.804-0.626-1.059-1.099c-0.256-0.472-0.384-1.016-0.384-1.632v-4.082
		c0-0.095,0.028-0.169,0.084-0.221l0.215-0.078h0.507l0.214,0.084l0.085,0.215l0.039,3.692c0.788-0.061,1.337-0.273,1.644-0.637
		c0.308-0.364,0.462-0.841,0.462-1.43v-1.625l0.085-0.215l0.215-0.084h0.507l0.214,0.084l0.085,0.215v1.677
		c0,0.832-0.264,1.517-0.793,2.054c-0.529,0.537-1.305,0.832-2.327,0.884c0.139,0.503,0.396,0.89,0.773,1.164
		c0.377,0.273,0.83,0.409,1.359,0.409h0.416c0.015,0,0.029,0,0.043,0c0.802,0,1.429-0.238,1.881-0.715
		c0.459-0.485,0.689-1.131,0.689-1.937v-3.536l0.084-0.215l0.215-0.084h0.507l0.215,0.084l0.084,0.215v3.614
		c0,0.728-0.149,1.367-0.449,1.917c-0.299,0.55-0.719,0.971-1.261,1.261C250.264,191.72,249.682,191.857,249.028,191.857
		 M280.773,191.777h-2.236l-0.215-0.084l-0.084-0.215v-0.429l0.084-0.215l0.215-0.084h2.171c0.607,0,1.074-0.195,1.404-0.585
		c0.329-0.39,0.507-0.94,0.533-1.651c0.009-0.087,0.013-0.238,0.013-0.455c0-0.208-0.004-0.355-0.013-0.442
		c-0.018-0.711-0.193-1.261-0.526-1.651c-0.334-0.39-0.804-0.585-1.41-0.585h-1.599v1.04c0,0.347,0.039,0.62,0.117,0.819
		c0.078,0.2,0.212,0.325,0.403,0.377l0.494,0.13l0.163,0.136c0.039,0.074,0.058,0.163,0.058,0.266v0.299
		c0,0.096-0.048,0.165-0.143,0.208c-0.068,0.031-0.141,0.047-0.217,0.047c-0.031,0-0.062-0.002-0.095-0.007l-0.507-0.104
		c-0.867-0.19-1.3-0.927-1.3-2.21v-1.729c0-0.095,0.028-0.169,0.085-0.221l0.215-0.078h2.392c0.953,0,1.677,0.277,2.171,0.832
		c0.494,0.555,0.758,1.348,0.793,2.379c0.009,0.087,0.013,0.251,0.013,0.494c0,0.251-0.004,0.42-0.013,0.507
		c-0.035,1.031-0.299,1.824-0.793,2.379C282.45,191.5,281.726,191.777,280.773,191.777 M266.707,191.777h-2.236l-0.214-0.084
		l-0.085-0.215v-0.429l0.085-0.215l0.214-0.084h2.171c0.606,0,1.075-0.195,1.404-0.585c0.329-0.39,0.507-0.94,0.533-1.651
		c0.009-0.087,0.013-0.238,0.013-0.455c0-0.208-0.004-0.355-0.013-0.442c-0.017-0.711-0.193-1.261-0.527-1.651
		c-0.334-0.39-0.804-0.585-1.41-0.585h-1.599v1.04c0,0.347,0.039,0.62,0.117,0.819c0.078,0.2,0.212,0.325,0.403,0.377l0.494,0.13
		l0.163,0.136c0.039,0.074,0.059,0.163,0.059,0.266v0.299c0,0.096-0.048,0.165-0.143,0.208c-0.068,0.031-0.141,0.047-0.218,0.047
		c-0.031,0-0.062-0.002-0.094-0.007l-0.507-0.104c-0.867-0.19-1.3-0.927-1.3-2.21v-1.729c0-0.095,0.028-0.169,0.085-0.221
		l0.214-0.078h2.392c0.953,0,1.677,0.277,2.171,0.832c0.494,0.555,0.758,1.348,0.793,2.379c0.009,0.087,0.013,0.251,0.013,0.494
		c0,0.251-0.005,0.42-0.013,0.507c-0.035,1.031-0.299,1.824-0.793,2.379C268.384,191.5,267.66,191.777,266.707,191.777
		 M242.865,191.777h-0.546l-0.215-0.084l-0.085-0.215v-3.887c0-1.49-0.745-2.236-2.236-2.236h-1.586v6.123l-0.085,0.215
		l-0.215,0.084h-0.546l-0.215-0.084l-0.085-0.215v-6.825c0-0.095,0.028-0.169,0.085-0.221l0.215-0.078h2.496
		c1.118,0,1.95,0.266,2.496,0.799c0.546,0.533,0.819,1.333,0.819,2.399v3.926l-0.084,0.215L242.865,191.777 M234.74,191.777h-0.572
		l-0.214-0.084l-0.085-0.215v-6.825c0-0.095,0.028-0.169,0.085-0.221l0.214-0.078h0.572l0.215,0.084l0.085,0.215v6.825l-0.085,0.215
		L234.74,191.777 M231.621,191.777h-0.546l-0.215-0.084l-0.084-0.215v-3.887c0-1.49-0.745-2.236-2.236-2.236h-1.677l-0.215-0.078
		l-0.085-0.208v-0.416l0.085-0.215l0.215-0.084h1.755c2.201,0,3.302,1.057,3.302,3.172v3.952l-0.085,0.215L231.621,191.777"/>
	<path fill="#000000" d="M261.741,227.189h-0.546l-0.214-0.078c-0.057-0.052-0.085-0.126-0.085-0.221v-8.437
		c0-0.095,0.028-0.169,0.085-0.221l0.214-0.078h0.546l0.214,0.085l0.085,0.214v8.437l-0.085,0.214L261.741,227.189 M280.175,225.707
		l-0.163-0.065l-0.071-0.182v-0.572c0-0.156,0.095-0.273,0.286-0.351l0.507-0.195c0.598-0.225,1.057-0.55,1.378-0.975
		c0.32-0.424,0.481-1.048,0.481-1.872c0-0.581-0.069-1.038-0.208-1.372c-0.139-0.333-0.366-0.574-0.682-0.722
		c-0.316-0.147-0.752-0.221-1.307-0.221h-0.403h-0.039l-1.196-0.013l-0.215-0.078l-0.084-0.208v-2.236l0.084-0.215l0.215-0.085h0.52
		l0.208,0.085l0.078,0.215v1.508h1.001c0.788,0,1.415,0.113,1.879,0.338c0.464,0.225,0.799,0.585,1.007,1.079
		c0.208,0.494,0.312,1.153,0.312,1.976c0,1.109-0.273,1.974-0.819,2.594c-0.546,0.62-1.257,1.077-2.132,1.372l-0.546,0.182
		L280.175,225.707 M273.285,225.694c-0.147,0-0.221-0.069-0.221-0.208v-0.611c0-0.147,0.091-0.256,0.273-0.325
		c0.026-0.009,0.197-0.067,0.513-0.176c0.316-0.108,0.6-0.245,0.852-0.409c0.26-0.165,0.516-0.392,0.767-0.682
		c0.251-0.29,0.429-0.566,0.533-0.825l-0.234-1.17c-0.104-0.511-0.215-0.916-0.331-1.216c-0.117-0.299-0.275-0.526-0.474-0.682
		c-0.199-0.156-0.46-0.234-0.78-0.234h-0.481l-0.215-0.078l-0.084-0.208v-0.442l0.084-0.215l0.215-0.084h0.481
		c0.554,0,1.009,0.113,1.365,0.338c0.355,0.226,0.639,0.561,0.851,1.008c0.212,0.447,0.392,1.029,0.539,1.748l0.78,4.056v0.052
		l-0.085,0.176l-0.202,0.071h-0.572c-0.165,0-0.264-0.1-0.299-0.299l-0.299-1.521c-0.321,0.494-0.689,0.88-1.105,1.157
		c-0.321,0.217-0.62,0.384-0.897,0.501c-0.277,0.117-0.572,0.206-0.884,0.266L273.285,225.694 M268.124,225.577h-0.572l-0.215-0.084
		l-0.084-0.215v-6.825c0-0.095,0.028-0.169,0.084-0.221l0.215-0.078h0.572l0.214,0.085l0.085,0.214v6.825l-0.085,0.215
		L268.124,225.577 M264.939,225.577h-0.572l-0.214-0.084l-0.085-0.215v-6.825c0-0.095,0.028-0.169,0.085-0.221l0.214-0.078h0.572
		l0.214,0.085l0.085,0.214v6.825l-0.085,0.215L264.939,225.577 M258.66,225.577h-0.897l-0.208-0.084l-0.078-0.215v-0.871
		c0-0.095,0.026-0.171,0.078-0.228l0.208-0.084h0.897c0.095,0,0.171,0.028,0.228,0.084c0.056,0.056,0.085,0.132,0.085,0.228v0.871
		l-0.091,0.215L258.66,225.577 M271.218,222.561h-0.572l-0.214-0.085l-0.085-0.214v-3.809c0-0.095,0.028-0.169,0.085-0.221
		l0.214-0.078h0.572l0.215,0.085l0.084,0.214v3.809l-0.084,0.214L271.218,222.561 M258.66,221.027h-0.897l-0.208-0.084l-0.078-0.215
		v-0.871c0-0.095,0.026-0.171,0.078-0.228l0.208-0.084h0.897c0.095,0,0.171,0.028,0.228,0.084c0.056,0.056,0.085,0.132,0.085,0.228
		v0.871l-0.091,0.215L258.66,221.027"/>
	<path fill="#000000" d="M236.287,242.607l-0.163-0.065l-0.071-0.182v-0.572c0-0.156,0.095-0.273,0.286-0.351l0.507-0.195
		c0.598-0.225,1.057-0.55,1.378-0.975c0.321-0.424,0.481-1.048,0.481-1.872c0-0.581-0.069-1.038-0.208-1.372
		c-0.139-0.333-0.366-0.574-0.682-0.721c-0.316-0.147-0.752-0.221-1.307-0.221h-0.403h-0.039l-1.196-0.013l-0.214-0.078
		l-0.085-0.208v-2.236l0.085-0.215l0.214-0.084h0.52l0.208,0.084l0.078,0.215v1.508h1.001c0.789,0,1.415,0.113,1.878,0.338
		c0.464,0.225,0.8,0.585,1.008,1.079c0.208,0.494,0.312,1.153,0.312,1.976c0,1.109-0.273,1.974-0.819,2.593
		c-0.546,0.62-1.257,1.077-2.132,1.372l-0.546,0.182L236.287,242.607 M226.719,242.607c-1.066,0-1.866-0.279-2.398-0.838
		c-0.533-0.559-0.8-1.363-0.8-2.411v-4.004c0-0.095,0.028-0.169,0.084-0.221l0.215-0.078h3.12c1.118,0,1.92,0.251,2.405,0.754
		c0.485,0.503,0.75,1.274,0.793,2.314c0.009,0.087,0.013,0.321,0.013,0.702c0,0.382-0.004,0.615-0.013,0.702
		c-0.026,1.031-0.308,1.803-0.845,2.314C228.756,242.352,227.898,242.607,226.719,242.607 M224.613,236.055v3.302
		c0,0.719,0.176,1.27,0.527,1.651c0.351,0.382,0.873,0.572,1.567,0.572c0.815,0,1.399-0.171,1.755-0.514
		c0.355-0.342,0.542-0.878,0.559-1.605c0.009-0.087,0.013-0.299,0.013-0.637c0-0.338-0.004-0.55-0.013-0.637
		c-0.017-0.693-0.214-1.222-0.592-1.586c-0.377-0.364-0.895-0.546-1.553-0.546H224.613 M195.676,242.607
		c-1.066,0-1.866-0.279-2.398-0.838c-0.533-0.559-0.8-1.363-0.8-2.411v-4.004c0-0.095,0.028-0.169,0.085-0.221l0.214-0.078h3.12
		c1.118,0,1.92,0.251,2.405,0.754c0.485,0.503,0.749,1.274,0.793,2.314c0.009,0.087,0.013,0.321,0.013,0.702
		c0,0.382-0.004,0.615-0.013,0.702c-0.026,1.031-0.308,1.803-0.845,2.314C197.713,242.352,196.855,242.607,195.676,242.607
		 M193.57,236.055v3.302c0,0.719,0.175,1.27,0.527,1.651c0.351,0.382,0.873,0.572,1.567,0.572c0.815,0,1.399-0.171,1.755-0.514
		c0.355-0.342,0.541-0.878,0.559-1.605c0.009-0.087,0.013-0.299,0.013-0.637c0-0.338-0.005-0.55-0.013-0.637
		c-0.017-0.693-0.214-1.222-0.591-1.586c-0.377-0.364-0.895-0.546-1.554-0.546H193.57 M187.564,242.607
		c-1.136,0-1.963-0.271-2.483-0.813c-0.52-0.541-0.78-1.332-0.78-2.372v-4.069c0-0.095,0.028-0.169,0.084-0.221l0.215-0.078h0.494
		c0.095,0,0.169,0.026,0.221,0.078c0.052,0.052,0.078,0.126,0.078,0.221v4.004c0,0.719,0.18,1.27,0.539,1.651
		c0.36,0.382,0.903,0.572,1.632,0.572c0.719,0,1.25-0.176,1.592-0.527c0.342-0.351,0.522-0.882,0.539-1.593v-0.403v-0.936
		c-0.018-0.711-0.169-1.239-0.455-1.586c-0.286-0.347-0.676-0.52-1.17-0.52c-0.156,0-0.329,0.028-0.52,0.084
		c-0.191,0.056-0.356,0.128-0.494,0.215l-0.13,0.039l-0.163-0.071l-0.072-0.163v-0.377c0-0.104,0.009-0.186,0.026-0.247l0.143-0.156
		c0.182-0.121,0.375-0.21,0.578-0.266c0.204-0.056,0.462-0.085,0.774-0.085c0.84,0,1.48,0.245,1.917,0.735
		c0.438,0.49,0.67,1.246,0.696,2.268c0.008,0.087,0.013,0.343,0.013,0.767c0,0.425-0.005,0.68-0.013,0.767
		c-0.035,1.04-0.306,1.813-0.813,2.32C189.508,242.354,188.691,242.607,187.564,242.607 M245.505,242.557
		c-0.039,0-0.078,0-0.118-0.001h-0.962c-0.563,0-1.07-0.13-1.521-0.39c-0.451-0.26-0.804-0.626-1.06-1.098
		c-0.256-0.472-0.384-1.016-0.384-1.631v-4.082c0-0.095,0.028-0.169,0.085-0.221l0.215-0.078h0.507l0.214,0.085l0.085,0.214
		l0.039,3.692c0.789-0.06,1.337-0.273,1.645-0.637c0.308-0.364,0.462-0.84,0.462-1.43v-1.625l0.085-0.214l0.214-0.085h0.507
		l0.214,0.085l0.085,0.214v1.677c0,0.832-0.264,1.517-0.793,2.054c-0.529,0.537-1.305,0.832-2.327,0.884
		c0.138,0.503,0.396,0.891,0.773,1.164c0.377,0.273,0.83,0.409,1.359,0.409h0.416c0.015,0,0.029,0,0.044,0
		c0.802,0,1.429-0.238,1.88-0.715c0.459-0.485,0.689-1.131,0.689-1.937v-3.536l0.085-0.214l0.215-0.085h0.507l0.214,0.085
		l0.085,0.214v3.614c0,0.728-0.15,1.367-0.449,1.918c-0.299,0.55-0.719,0.971-1.261,1.261
		C246.742,242.42,246.159,242.557,245.505,242.557 M283.503,242.477h-0.585c-0.113,0-0.199-0.033-0.26-0.098l-0.104-0.11
		l-2.964-4.173c-0.373,0.269-0.626,0.587-0.761,0.956c-0.134,0.368-0.201,0.773-0.201,1.215v1.911l-0.085,0.215l-0.214,0.085h-0.481
		l-0.215-0.085l-0.084-0.215v-1.963c0-0.641,0.098-1.2,0.292-1.677c0.195-0.476,0.579-0.905,1.151-1.287l-1.209-1.69
		c-0.061-0.095-0.091-0.178-0.091-0.247l0.078-0.182l0.182-0.078h0.572c0.139,0,0.26,0.074,0.364,0.221l2.73,3.809
		c0.312-0.182,0.539-0.373,0.682-0.572c0.143-0.199,0.232-0.396,0.266-0.592c0.035-0.195,0.052-0.449,0.052-0.76v-1.807l0.085-0.214
		l0.214-0.085h0.507l0.214,0.085l0.085,0.214v1.859c0,0.59-0.102,1.094-0.306,1.515c-0.204,0.42-0.613,0.813-1.229,1.176
		l1.482,2.067l0.091,0.247l-0.078,0.182L283.503,242.477 M273.168,242.477h-2.236l-0.214-0.085l-0.085-0.215v-0.429l0.085-0.214
		l0.214-0.085h2.171c0.607,0,1.075-0.195,1.404-0.585c0.329-0.39,0.507-0.94,0.533-1.651c0.009-0.087,0.013-0.238,0.013-0.455
		c0-0.208-0.004-0.355-0.013-0.442c-0.018-0.711-0.193-1.261-0.527-1.651c-0.334-0.39-0.804-0.585-1.41-0.585h-1.599v1.04
		c0,0.347,0.039,0.62,0.117,0.819c0.078,0.199,0.212,0.325,0.403,0.377l0.494,0.13l0.163,0.136c0.039,0.074,0.059,0.163,0.059,0.266
		v0.299c0,0.095-0.048,0.165-0.143,0.208c-0.068,0.031-0.141,0.046-0.217,0.046c-0.031,0-0.062-0.003-0.095-0.008l-0.507-0.104
		c-0.867-0.191-1.3-0.927-1.3-2.21v-1.729c0-0.095,0.028-0.169,0.085-0.221l0.214-0.078h2.392c0.953,0,1.677,0.277,2.171,0.832
		c0.494,0.555,0.758,1.348,0.793,2.379c0.009,0.087,0.013,0.251,0.013,0.494c0,0.251-0.005,0.42-0.013,0.507
		c-0.035,1.031-0.299,1.824-0.793,2.379C274.845,242.2,274.121,242.477,273.168,242.477 M268.163,242.477h-0.572l-0.215-0.085
		l-0.085-0.215v-6.825c0-0.095,0.028-0.169,0.085-0.221l0.215-0.078h0.572l0.214,0.085l0.085,0.214v6.825l-0.085,0.215
		L268.163,242.477 M265.355,242.477h-3.471l-0.214-0.085l-0.085-0.215v-0.416l0.085-0.215l0.214-0.085h2.561l-0.208-3.302
		c-0.043-0.563-0.089-0.977-0.136-1.242c-0.048-0.264-0.154-0.479-0.319-0.644c-0.165-0.165-0.421-0.247-0.767-0.247h-0.533
		l-0.215-0.078l-0.085-0.208v-0.416l0.085-0.215l0.215-0.084h0.533c0.624,0,1.103,0.123,1.437,0.37
		c0.333,0.247,0.563,0.587,0.689,1.021c0.125,0.434,0.21,1.001,0.253,1.703l0.247,4.056v0.039l-0.085,0.188L265.355,242.477
		 M259.765,242.477h-0.546l-0.215-0.085l-0.084-0.215v-3.887c0-1.491-0.741-2.236-2.223-2.236h-2.418l-0.214-0.078l-0.085-0.208
		v-0.416c0-0.095,0.028-0.169,0.085-0.221l0.214-0.078h2.483c2.201,0,3.302,1.066,3.302,3.198v3.926l-0.085,0.215L259.765,242.477
		 M254.825,242.477h-0.546l-0.214-0.085l-0.085-0.215v-4.368l0.085-0.215l0.214-0.084h0.546l0.215,0.084l0.084,0.215v4.368
		l-0.084,0.215L254.825,242.477 M221.663,242.477h-3.471l-0.215-0.085l-0.085-0.215v-0.416l0.085-0.215l0.215-0.085h2.561
		l-0.208-3.302c-0.043-0.563-0.089-0.977-0.137-1.242c-0.048-0.264-0.154-0.479-0.319-0.644c-0.165-0.165-0.42-0.247-0.767-0.247
		h-0.533l-0.214-0.078l-0.085-0.208v-0.416l0.085-0.215l0.214-0.084h0.533c0.624,0,1.103,0.123,1.436,0.37
		c0.334,0.247,0.563,0.587,0.689,1.021c0.125,0.434,0.21,1.001,0.253,1.703l0.247,4.056v0.039l-0.085,0.188L221.663,242.477
		 M213.72,242.477h-2.236l-0.214-0.085l-0.085-0.215v-0.429l0.085-0.214l0.214-0.085h2.171c0.607,0,1.075-0.195,1.404-0.585
		c0.329-0.39,0.507-0.94,0.533-1.651c0.009-0.087,0.013-0.238,0.013-0.455c0-0.208-0.004-0.355-0.013-0.442
		c-0.018-0.711-0.193-1.261-0.527-1.651c-0.334-0.39-0.804-0.585-1.41-0.585h-1.599v1.04c0,0.347,0.039,0.62,0.117,0.819
		c0.078,0.199,0.212,0.325,0.403,0.377l0.494,0.13l0.162,0.136c0.039,0.074,0.059,0.163,0.059,0.266v0.299
		c0,0.095-0.048,0.165-0.143,0.208c-0.068,0.031-0.141,0.046-0.217,0.046c-0.031,0-0.062-0.003-0.095-0.008l-0.507-0.104
		c-0.867-0.191-1.3-0.927-1.3-2.21v-1.729c0-0.095,0.028-0.169,0.084-0.221l0.215-0.078h2.392c0.953,0,1.677,0.277,2.171,0.832
		c0.494,0.555,0.758,1.348,0.793,2.379c0.009,0.087,0.013,0.251,0.013,0.494c0,0.251-0.005,0.42-0.013,0.507
		c-0.035,1.031-0.299,1.824-0.793,2.379C215.397,242.2,214.673,242.477,213.72,242.477 M208.78,242.477h-0.546l-0.215-0.085
		l-0.084-0.215v-3.887c0-1.491-0.745-2.236-2.236-2.236h-1.677l-0.214-0.078l-0.085-0.208v-0.416l0.085-0.214l0.214-0.085h1.755
		c2.201,0,3.302,1.057,3.302,3.172v3.952l-0.085,0.215L208.78,242.477 M201.708,242.477h-0.572l-0.214-0.085l-0.085-0.215v-6.825
		c0-0.095,0.028-0.169,0.085-0.221l0.214-0.078h0.572l0.215,0.085l0.085,0.214v6.825l-0.085,0.215L201.708,242.477"/>
	<path fill="#000000" d="M283.243,276.277h-1.209l-0.221-0.091l-0.091-0.221v-6.708l-1.963,1.508l-0.195,0.065
		c-0.104,0-0.186-0.043-0.247-0.13l-0.559-0.728l-0.065-0.182c0-0.104,0.047-0.19,0.143-0.26l2.912-2.262
		c0.095-0.061,0.203-0.091,0.325-0.091h1.17l0.221,0.091l0.091,0.221v8.476l-0.091,0.221L283.243,276.277"/>
	<path fill="#000000" d="M181.138,277.889h-0.221l-0.208-0.078l-0.078-0.208v-5.512c0-1.655-0.828-2.483-2.483-2.483h-1.313v1.56
		c0,0.407,0.043,0.726,0.13,0.956c0.087,0.23,0.238,0.371,0.455,0.422l0.533,0.13c0.147,0.043,0.221,0.182,0.221,0.416v0.182
		l-0.085,0.156l-0.214,0.052l-0.104-0.013l-0.494-0.117c-0.416-0.095-0.724-0.321-0.923-0.676c-0.199-0.355-0.299-0.858-0.299-1.508
		v-2.028l0.078-0.208l0.208-0.078h1.872c1.083,0,1.889,0.271,2.418,0.813c0.529,0.542,0.793,1.328,0.793,2.36v5.577l-0.078,0.208
		L181.138,277.889 M127.266,277.889h-0.221l-0.208-0.078l-0.078-0.208v-8.463l0.078-0.208l0.208-0.078h0.221l0.208,0.078
		l0.078,0.208v8.463l-0.078,0.208L127.266,277.889 M94.636,277.889h-0.221l-0.208-0.078l-0.078-0.208v-8.463l0.078-0.208
		l0.208-0.078h0.221l0.208,0.078l0.078,0.208v8.463l-0.078,0.208L94.636,277.889 M215.314,277.252h-0.221l-0.156-0.078l-0.026-0.195
		l0.247-1.56c0.026-0.234,0.134-0.351,0.325-0.351h0.585l0.143,0.065l0.052,0.143l-0.052,0.234l-0.559,1.469
		c-0.043,0.095-0.089,0.165-0.137,0.208L215.314,277.252 M123.756,277.252h-0.221l-0.156-0.078l-0.026-0.195l0.247-1.56
		c0.026-0.234,0.134-0.351,0.325-0.351h0.585l0.143,0.065l0.052,0.143l-0.052,0.234l-0.559,1.469
		c-0.043,0.095-0.089,0.165-0.136,0.208L123.756,277.252 M157.725,277.018l-0.176-0.065l-0.071-0.156v-0.169
		c0-0.2,0.06-0.321,0.182-0.364l1.781-0.65l-1.729-6.24c-0.043-0.147-0.065-0.234-0.065-0.26l0.078-0.182l0.182-0.078h0.234
		l0.195,0.058l0.104,0.137l1.781,6.279l0.13-0.052c0.711-0.26,1.209-0.633,1.495-1.118c0.286-0.485,0.429-1.075,0.429-1.768v-3.25
		l0.078-0.208l0.208-0.078h0.221l0.208,0.078l0.078,0.208v3.51c0,0.728-0.234,1.404-0.702,2.028
		c-0.468,0.624-1.088,1.075-1.859,1.352l-2.665,0.962L157.725,277.018 M229.861,276.407c-1.031,0-1.803-0.275-2.314-0.826
		c-0.511-0.55-0.767-1.354-0.767-2.411v-4.03l0.078-0.208l0.208-0.078h3.055c1.075,0,1.846,0.247,2.314,0.741
		c0.468,0.494,0.724,1.261,0.767,2.301c0.009,0.087,0.013,0.329,0.013,0.728c0,0.407-0.004,0.655-0.013,0.741
		c-0.026,1.031-0.304,1.796-0.832,2.295C231.841,276.158,231.005,276.407,229.861,276.407 M227.573,269.608v3.562
		c0,0.798,0.19,1.41,0.572,1.84c0.381,0.429,0.953,0.643,1.716,0.643c0.893,0,1.536-0.193,1.93-0.579
		c0.394-0.386,0.6-0.977,0.618-1.774c0.008-0.087,0.013-0.312,0.013-0.676c0-0.355-0.005-0.576-0.013-0.663
		c-0.018-0.762-0.239-1.345-0.663-1.749c-0.425-0.403-0.988-0.604-1.69-0.604H227.573 M189.302,276.407
		c-1.031,0-1.803-0.275-2.314-0.826c-0.511-0.55-0.767-1.354-0.767-2.411v-4.03l0.078-0.208l0.208-0.078h3.055
		c1.075,0,1.846,0.247,2.314,0.741c0.468,0.494,0.724,1.261,0.767,2.301c0.009,0.087,0.013,0.329,0.013,0.728
		c0,0.407-0.004,0.655-0.013,0.741c-0.026,1.031-0.304,1.796-0.832,2.295C191.282,276.158,190.446,276.407,189.302,276.407
		 M187.014,269.608v3.562c0,0.798,0.19,1.41,0.572,1.84c0.381,0.429,0.953,0.643,1.716,0.643c0.893,0,1.536-0.193,1.93-0.579
		c0.394-0.386,0.6-0.977,0.618-1.774c0.008-0.087,0.013-0.312,0.013-0.676c0-0.355-0.005-0.576-0.013-0.663
		c-0.018-0.762-0.239-1.345-0.663-1.749c-0.425-0.403-0.988-0.604-1.69-0.604H187.014 M152.967,276.407
		c-1.101,0-1.9-0.269-2.399-0.806c-0.498-0.537-0.747-1.326-0.747-2.366v-4.095l0.078-0.208l0.208-0.078h0.221l0.208,0.078
		l0.078,0.208v4.03c0,0.798,0.193,1.41,0.578,1.84c0.386,0.429,0.977,0.643,1.775,0.643c0.797,0,1.384-0.193,1.761-0.579
		c0.377-0.386,0.574-0.977,0.592-1.774v-0.442v-1.027c-0.018-0.78-0.191-1.356-0.52-1.729c-0.329-0.373-0.776-0.559-1.339-0.559
		c-0.165,0-0.353,0.03-0.566,0.091c-0.212,0.061-0.392,0.143-0.539,0.247l-0.13,0.039l-0.149-0.058l-0.072-0.15v-0.169v-0.065
		l0.026-0.182l0.104-0.117c0.199-0.13,0.405-0.228,0.617-0.293c0.212-0.065,0.47-0.098,0.774-0.098c0.806,0,1.432,0.243,1.879,0.728
		c0.446,0.486,0.682,1.235,0.708,2.249c0.009,0.087,0.013,0.351,0.013,0.793c0,0.451-0.004,0.72-0.013,0.806
		c-0.026,1.04-0.279,1.807-0.76,2.301C154.871,276.16,154.076,276.407,152.967,276.407 M105.712,276.407
		c-1.101,0-1.9-0.269-2.398-0.806c-0.498-0.537-0.747-1.326-0.747-2.366v-4.095l0.078-0.208l0.208-0.078h0.221l0.208,0.078
		l0.078,0.208v4.03c0,0.798,0.193,1.41,0.579,1.84c0.386,0.429,0.977,0.643,1.774,0.643s1.385-0.193,1.762-0.579
		c0.377-0.386,0.574-0.977,0.592-1.774v-0.442v-1.027c-0.018-0.78-0.191-1.356-0.52-1.729c-0.329-0.373-0.776-0.559-1.339-0.559
		c-0.165,0-0.353,0.03-0.565,0.091c-0.212,0.061-0.392,0.143-0.539,0.247l-0.13,0.039l-0.149-0.058l-0.072-0.15v-0.169v-0.065
		l0.026-0.182l0.104-0.117c0.199-0.13,0.405-0.228,0.617-0.293c0.212-0.065,0.47-0.098,0.773-0.098c0.806,0,1.432,0.243,1.879,0.728
		c0.446,0.486,0.682,1.235,0.709,2.249c0.009,0.087,0.013,0.351,0.013,0.793c0,0.451-0.004,0.72-0.013,0.806
		c-0.026,1.04-0.28,1.807-0.76,2.301C107.617,276.16,106.822,276.407,105.712,276.407 M263.232,276.394
		c-0.139,0-0.208-0.069-0.208-0.208v-0.325c0-0.147,0.091-0.255,0.273-0.325l0.533-0.208c0.667-0.26,1.176-0.619,1.527-1.079
		c0.351-0.459,0.527-1.144,0.527-2.054c0-0.65-0.078-1.161-0.234-1.534c-0.156-0.373-0.414-0.641-0.773-0.806
		c-0.36-0.165-0.852-0.247-1.475-0.247h-0.442h-0.039l-1.014-0.013l-0.208-0.072l-0.078-0.201v-1.989l0.078-0.208l0.208-0.078h0.221
		l0.208,0.078l0.078,0.208v1.521h1.053c0.806,0,1.441,0.111,1.904,0.331c0.464,0.221,0.797,0.579,1.001,1.073
		c0.204,0.494,0.306,1.17,0.306,2.028c0,1.118-0.253,1.972-0.76,2.561c-0.507,0.589-1.185,1.036-2.035,1.339l-0.546,0.195
		L263.232,276.394 M206.565,276.394c-0.139,0-0.208-0.069-0.208-0.208v-0.325c0-0.147,0.091-0.255,0.273-0.325l0.533-0.208
		c0.667-0.26,1.176-0.619,1.527-1.079c0.351-0.459,0.527-1.144,0.527-2.054c0-0.65-0.078-1.161-0.234-1.534
		c-0.156-0.373-0.414-0.641-0.774-0.806c-0.36-0.165-0.851-0.247-1.475-0.247h-0.442h-0.039l-1.014-0.013l-0.208-0.072l-0.078-0.201
		v-1.989l0.078-0.208l0.208-0.078h0.221l0.208,0.078l0.078,0.208v1.521h1.053c0.806,0,1.441,0.111,1.904,0.331
		c0.464,0.221,0.797,0.579,1.001,1.073c0.204,0.494,0.306,1.17,0.306,2.028c0,1.118-0.253,1.972-0.76,2.561
		c-0.507,0.589-1.185,1.036-2.034,1.339l-0.546,0.195L206.565,276.394 M112.03,276.394c-0.139,0-0.208-0.069-0.208-0.208v-0.325
		c0-0.147,0.091-0.255,0.273-0.325l0.533-0.208c0.667-0.26,1.176-0.619,1.527-1.079c0.351-0.459,0.527-1.144,0.527-2.054
		c0-0.65-0.078-1.161-0.234-1.534c-0.156-0.373-0.414-0.641-0.773-0.806c-0.36-0.165-0.852-0.247-1.475-0.247h-0.442h-0.039
		l-1.014-0.013l-0.208-0.072l-0.078-0.201v-1.989l0.078-0.208l0.208-0.078h0.221l0.208,0.078l0.078,0.208v1.521h1.053
		c0.806,0,1.441,0.111,1.905,0.331c0.464,0.221,0.797,0.579,1.001,1.073c0.203,0.494,0.306,1.17,0.306,2.028
		c0,1.118-0.253,1.972-0.761,2.561c-0.507,0.589-1.185,1.036-2.034,1.339l-0.546,0.195L112.03,276.394 M96.885,276.394
		c-0.148,0-0.221-0.069-0.221-0.208v-0.351c0-0.147,0.091-0.256,0.273-0.325c0.632-0.225,1.083-0.429,1.352-0.611
		c0.329-0.225,0.645-0.539,0.949-0.942c0.303-0.403,0.455-0.73,0.455-0.982l-0.195-1.014c-0.113-0.563-0.234-1.01-0.364-1.339
		c-0.13-0.329-0.301-0.581-0.514-0.754c-0.213-0.173-0.492-0.26-0.838-0.26h-0.481l-0.208-0.078l-0.078-0.208v-0.182l0.078-0.208
		l0.208-0.078h0.481c0.502,0,0.914,0.113,1.235,0.338c0.321,0.225,0.576,0.557,0.767,0.994c0.19,0.438,0.359,1.008,0.507,1.71
		l0.793,4.095v0.039L101,276.206l-0.201,0.072h-0.221c-0.148,0-0.243-0.095-0.286-0.286l-0.338-1.729
		c-0.165,0.278-0.353,0.535-0.565,0.774c-0.213,0.238-0.427,0.431-0.644,0.578c-0.312,0.217-0.607,0.384-0.884,0.501
		c-0.278,0.117-0.572,0.206-0.884,0.266L96.885,276.394 M44.951,276.394c-0.139,0-0.208-0.069-0.208-0.208v-0.325
		c0-0.147,0.091-0.255,0.273-0.325l0.533-0.208c0.667-0.26,1.176-0.619,1.528-1.079c0.351-0.459,0.527-1.144,0.527-2.054
		c0-0.65-0.078-1.161-0.234-1.534c-0.156-0.373-0.414-0.641-0.774-0.806c-0.36-0.165-0.851-0.247-1.475-0.247h-0.442h-0.039
		l-1.014-0.013l-0.208-0.072l-0.078-0.201v-1.989l0.078-0.208l0.208-0.078h0.221l0.208,0.078l0.078,0.208v1.521h1.053
		c0.806,0,1.441,0.111,1.904,0.331c0.464,0.221,0.797,0.579,1.001,1.073c0.204,0.494,0.306,1.17,0.306,2.028
		c0,1.118-0.253,1.972-0.76,2.561c-0.507,0.589-1.185,1.036-2.034,1.339l-0.546,0.195L44.951,276.394 M141.217,276.344
		c-0.039,0-0.079,0-0.119-0.001h-0.871c-0.511,0-0.981-0.128-1.41-0.384c-0.429-0.256-0.769-0.622-1.021-1.098
		c-0.251-0.477-0.377-1.031-0.377-1.664v-4.056l0.078-0.208l0.208-0.078h0.221l0.208,0.078l0.078,0.208l0.052,3.887
		c0.884-0.06,1.503-0.28,1.859-0.657c0.355-0.377,0.533-0.864,0.533-1.462v-1.768l0.078-0.208l0.208-0.078h0.221l0.208,0.078
		l0.078,0.208v1.833c0,0.771-0.264,1.419-0.793,1.944c-0.529,0.524-1.309,0.813-2.34,0.865c0.095,0.572,0.347,1.014,0.754,1.326
		c0.407,0.312,0.914,0.468,1.521,0.468h0.455c0.029,0.001,0.057,0.001,0.085,0.001c0.834,0,1.477-0.25,1.93-0.748
		c0.468-0.516,0.702-1.211,0.702-2.086v-3.601l0.078-0.208l0.208-0.078h0.221l0.208,0.078l0.078,0.208v3.692
		c0,0.72-0.143,1.348-0.429,1.885c-0.286,0.537-0.689,0.947-1.209,1.228C142.428,276.211,141.861,276.344,141.217,276.344
		 M259.683,276.277h-0.221l-0.208-0.078l-0.078-0.208v-3.9c0-1.655-0.828-2.483-2.483-2.483h-1.742v6.383l-0.078,0.208l-0.208,0.078
		h-0.221l-0.208-0.078l-0.078-0.208v-6.851l0.078-0.208l0.208-0.078h2.314c1.083,0,1.889,0.271,2.418,0.813
		c0.529,0.542,0.793,1.328,0.793,2.36v3.965l-0.078,0.208L259.683,276.277 M251.766,276.277h-3.289l-0.208-0.078l-0.078-0.208
		v-0.182l0.078-0.208l0.208-0.078h2.782v-3.432c0-0.477-0.085-0.906-0.253-1.287c-0.169-0.381-0.403-0.676-0.702-0.884
		c-0.299-0.208-0.635-0.312-1.008-0.312h-1.508l-0.962,6.37l-0.111,0.215l-0.214,0.085h-0.234l-0.182-0.085l-0.052-0.215l0.949-6.37
		h-0.585l-0.208-0.078l-0.078-0.208v-0.182l0.078-0.208l0.208-0.078h2.964c0.52,0,0.984,0.13,1.391,0.39
		c0.407,0.26,0.726,0.63,0.956,1.111c0.23,0.481,0.344,1.038,0.344,1.671v3.965l-0.078,0.208L251.766,276.277 M243.953,276.277
		h-5.226l-0.208-0.078l-0.078-0.208v-6.851l0.078-0.208l0.208-0.078h2.301c1.083,0,1.889,0.271,2.418,0.813
		c0.529,0.542,0.793,1.328,0.793,2.36v3.965l-0.078,0.208L243.953,276.277 M239.221,269.608v5.915h4.225v-3.432
		c0-1.655-0.828-2.483-2.483-2.483H239.221 M221.697,276.277h-0.221l-0.208-0.078l-0.078-0.208v-3.9
		c0-1.655-0.828-2.483-2.483-2.483h-1.586l-0.208-0.078l-0.078-0.208v-0.182l0.078-0.208l0.208-0.078h1.651
		c1.083,0,1.889,0.271,2.418,0.813c0.529,0.542,0.793,1.328,0.793,2.36v3.965l-0.078,0.208L221.697,276.277 M203.016,276.277h-0.221
		l-0.208-0.078l-0.078-0.208v-3.9c0-1.655-0.828-2.483-2.483-2.483h-2.236l-0.208-0.078l-0.078-0.208v-0.182l0.078-0.208
		l0.208-0.078h2.301c1.083,0,1.889,0.271,2.418,0.813c0.529,0.542,0.793,1.328,0.793,2.36v3.965l-0.078,0.208L203.016,276.277
		 M198.011,276.277h-0.221l-0.208-0.078l-0.078-0.208v-4.563l0.078-0.208l0.208-0.078h0.221l0.208,0.078l0.078,0.208v4.563
		l-0.078,0.208L198.011,276.277 M195.034,276.277h-0.221l-0.208-0.078l-0.078-0.208v-6.851l0.078-0.208l0.208-0.078h0.221
		l0.208,0.078l0.078,0.208v6.851l-0.078,0.208L195.034,276.277 M170.595,276.277h-3.289l-0.208-0.078l-0.078-0.208v-0.182
		l0.078-0.208l0.208-0.078h2.782v-3.432c0-0.477-0.084-0.906-0.253-1.287c-0.169-0.381-0.403-0.676-0.702-0.884
		c-0.299-0.208-0.635-0.312-1.008-0.312h-1.508l-0.962,6.37l-0.111,0.215l-0.215,0.085h-0.234l-0.182-0.085l-0.052-0.215l0.949-6.37
		h-0.585l-0.208-0.078l-0.078-0.208v-0.182l0.078-0.208l0.208-0.078h2.964c0.52,0,0.983,0.13,1.391,0.39
		c0.407,0.26,0.726,0.63,0.956,1.111c0.23,0.481,0.345,1.038,0.345,1.671v3.965l-0.078,0.208L170.595,276.277 M135.157,276.277
		h-3.289l-0.208-0.078l-0.078-0.208v-0.182l0.078-0.208l0.208-0.078h2.782v-3.432c0-0.477-0.085-0.906-0.253-1.287
		c-0.169-0.381-0.403-0.676-0.702-0.884s-0.635-0.312-1.008-0.312h-1.508l-0.962,6.37l-0.11,0.215l-0.214,0.085h-0.234l-0.182-0.085
		l-0.052-0.215l0.949-6.37h-0.585l-0.208-0.078l-0.078-0.208v-0.182l0.078-0.208l0.208-0.078h2.964c0.52,0,0.984,0.13,1.391,0.39
		c0.407,0.26,0.726,0.63,0.956,1.111c0.23,0.481,0.344,1.038,0.344,1.671v3.965l-0.078,0.208L135.157,276.277 M117.854,276.277
		h-0.221l-0.208-0.078l-0.078-0.208v-6.851l0.078-0.208l0.208-0.078h0.221l0.208,0.078l0.078,0.208v6.851l-0.078,0.208
		L117.854,276.277 M88.696,276.277h-0.247l-0.176-0.045l-0.149-0.15l-3.211-4.472c-0.425,0.303-0.713,0.654-0.864,1.053
		c-0.152,0.399-0.228,0.841-0.228,1.326v2.002l-0.078,0.208l-0.208,0.078h-0.221l-0.208-0.078l-0.078-0.208v-2.067
		c0-0.615,0.098-1.164,0.292-1.645c0.195-0.481,0.579-0.908,1.151-1.28l-1.157-1.625c-0.069-0.104-0.104-0.19-0.104-0.26
		l0.078-0.182l0.182-0.078h0.247c0.121,0,0.23,0.065,0.325,0.195l2.938,4.095c0.364-0.199,0.628-0.405,0.793-0.617
		c0.165-0.212,0.266-0.427,0.305-0.644c0.039-0.217,0.059-0.507,0.059-0.871v-1.872l0.078-0.208l0.208-0.078h0.221l0.208,0.078
		l0.078,0.208v1.937c0,0.399-0.035,0.743-0.104,1.034c-0.07,0.29-0.215,0.572-0.436,0.845c-0.221,0.273-0.548,0.535-0.981,0.787
		l1.443,2.015c0.069,0.104,0.104,0.191,0.104,0.26l-0.078,0.182L88.696,276.277 M81,276.277h-0.221l-0.208-0.078l-0.078-0.208v-3.9
		c0-1.655-0.828-2.483-2.483-2.483h-0.988c-0.087,0.624-0.15,1.127-0.188,1.508c-0.039,0.382-0.054,0.815-0.045,1.3v3.575
		l-0.078,0.208l-0.208,0.078l-1.482-0.026l-0.208-0.078l-0.078-0.208v-0.182l0.078-0.208l0.208-0.078l0.975,0.013v-3.029v-0.403
		c0-0.477,0.017-0.895,0.052-1.255c0.035-0.359,0.1-0.765,0.195-1.215h-0.663l-0.208-0.078l-0.078-0.208v-0.182l0.078-0.208
		l0.208-0.078h2.496c1.083,0,1.889,0.271,2.418,0.813c0.529,0.542,0.793,1.328,0.793,2.36v3.965l-0.078,0.208L81,276.277
		 M69.339,276.277h-0.221l-0.208-0.078l-0.078-0.208v-3.9c0-1.655-0.828-2.483-2.483-2.483h-2.236l-0.208-0.078l-0.078-0.208v-0.182
		l0.078-0.208l0.208-0.078h2.301c1.083,0,1.889,0.271,2.418,0.813c0.529,0.542,0.793,1.328,0.793,2.36v3.965l-0.078,0.208
		L69.339,276.277 M64.334,276.277h-0.221l-0.208-0.078l-0.078-0.208v-4.563l0.078-0.208l0.208-0.078h0.221l0.208,0.078l0.078,0.208
		v4.563l-0.078,0.208L64.334,276.277 M62.059,276.277h-5.2l-0.208-0.078l-0.078-0.208v-0.182l0.078-0.208l0.208-0.078h3.913v-3.432
		c0-1.655-0.828-2.483-2.483-2.483h-1.3l-0.208-0.078l-0.078-0.208v-0.182l0.078-0.208l0.208-0.078h1.365
		c1.083,0,1.889,0.273,2.418,0.819c0.529,0.546,0.793,1.33,0.793,2.353v3.497h0.494l0.208,0.078l0.078,0.208v0.182l-0.078,0.208
		L62.059,276.277 M54.662,276.277h-4.485l-0.208-0.078l-0.078-0.208v-0.182l0.078-0.208l0.208-0.078h3.705l-4.173-6.149
		c-0.069-0.104-0.104-0.19-0.104-0.26l0.085-0.182l0.188-0.078h0.234c0.13,0,0.238,0.069,0.325,0.208l2.496,3.627
		c0.849-0.32,1.274-1.083,1.274-2.288v-1.261l0.078-0.208l0.208-0.078h0.221l0.208,0.078L55,269.14v1.326
		c0,0.702-0.141,1.289-0.422,1.761c-0.282,0.472-0.696,0.821-1.242,1.047l1.469,2.145c0.095,0.139,0.143,0.269,0.143,0.39v0.182
		l-0.078,0.208L54.662,276.277 M224.492,273.287h-0.221l-0.208-0.078l-0.078-0.208v-3.861l0.078-0.208l0.208-0.078h0.221
		l0.208,0.078l0.078,0.208v3.861l-0.078,0.208L224.492,273.287 M183.933,273.287h-0.221l-0.208-0.078l-0.078-0.208v-3.861
		l0.078-0.208l0.208-0.078h0.221l0.208,0.078l0.078,0.208v3.861l-0.078,0.208L183.933,273.287"/>
	<path fill="#000000" d="M283.529,298.846h-6.227l-0.221-0.091l-0.091-0.221v-0.676c0-0.243,0.108-0.446,0.325-0.611l2.028-2.015
		c0.615-0.485,1.09-0.882,1.424-1.189c0.333-0.308,0.583-0.591,0.747-0.851c0.165-0.26,0.247-0.516,0.247-0.767
		c0-0.407-0.108-0.728-0.325-0.962c-0.217-0.234-0.546-0.351-0.988-0.351c-0.434,0-0.774,0.128-1.021,0.383
		c-0.247,0.256-0.401,0.587-0.461,0.995c-0.026,0.104-0.076,0.18-0.15,0.228l-0.241,0.071h-1.17l-0.195-0.078l-0.078-0.195
		c0.017-0.511,0.158-0.99,0.423-1.436c0.264-0.446,0.643-0.806,1.137-1.079c0.494-0.273,1.075-0.409,1.742-0.409
		c0.693,0,1.282,0.119,1.768,0.358c0.485,0.238,0.849,0.565,1.092,0.981c0.243,0.416,0.364,0.888,0.364,1.417
		c0,0.581-0.163,1.107-0.487,1.58c-0.325,0.472-0.83,0.977-1.515,1.514l-1.807,1.833h3.679c0.095,0,0.173,0.03,0.234,0.091
		c0.06,0.061,0.091,0.139,0.091,0.234v0.936c0,0.096-0.03,0.171-0.091,0.228C283.702,298.818,283.624,298.846,283.529,298.846"/>
	<path fill="#000000" d="M207.202,301.329h-0.221l-0.208-0.078l-0.078-0.208v-7.046l0.078-0.208l0.208-0.078h0.221l0.208,0.078
		l0.078,0.208v7.046l-0.078,0.208L207.202,301.329 M237.804,300.458h-0.221l-0.208-0.078l-0.078-0.208v-5.512
		c0-1.655-0.828-2.483-2.483-2.483h-1.313v1.56c0,0.408,0.043,0.726,0.13,0.956c0.087,0.23,0.238,0.371,0.455,0.423l0.533,0.13
		c0.147,0.043,0.221,0.182,0.221,0.416v0.182l-0.085,0.156l-0.214,0.052l-0.104-0.013l-0.494-0.117
		c-0.416-0.095-0.724-0.32-0.923-0.676c-0.199-0.355-0.299-0.858-0.299-1.508v-2.028l0.078-0.208l0.208-0.078h1.872
		c1.083,0,1.889,0.271,2.418,0.813c0.529,0.542,0.793,1.328,0.793,2.36v5.577l-0.078,0.208L237.804,300.458 M161.443,299.821h-0.221
		l-0.156-0.078l-0.026-0.195l0.247-1.56c0.026-0.234,0.134-0.351,0.325-0.351h0.585l0.143,0.065l0.052,0.143l-0.052,0.234
		l-0.559,1.469c-0.043,0.095-0.089,0.165-0.136,0.208L161.443,299.821 M195.892,299.587l-0.176-0.065l-0.072-0.156v-0.169
		c0-0.2,0.061-0.321,0.182-0.364l1.781-0.65l-1.729-6.24c-0.043-0.147-0.065-0.234-0.065-0.26l0.078-0.182l0.182-0.078h0.234
		l0.195,0.058l0.104,0.137l1.781,6.279l0.13-0.052c0.71-0.26,1.209-0.632,1.495-1.118c0.286-0.485,0.429-1.075,0.429-1.768v-3.25
		l0.078-0.208l0.208-0.078h0.221l0.208,0.078l0.078,0.208v3.51c0,0.728-0.234,1.404-0.702,2.028
		c-0.468,0.624-1.088,1.075-1.859,1.352l-2.665,0.962L195.892,299.587 M245.968,298.976c-1.031,0-1.803-0.275-2.314-0.826
		c-0.512-0.55-0.767-1.354-0.767-2.411v-4.03l0.078-0.208l0.208-0.078h3.055c1.075,0,1.846,0.247,2.314,0.741
		c0.468,0.494,0.724,1.261,0.767,2.301c0.008,0.087,0.013,0.329,0.013,0.728c0,0.407-0.005,0.655-0.013,0.741
		c-0.026,1.031-0.304,1.796-0.832,2.294C247.948,298.727,247.112,298.976,245.968,298.976 M243.68,292.177v3.562
		c0,0.797,0.191,1.41,0.572,1.839c0.381,0.429,0.953,0.644,1.716,0.644c0.893,0,1.536-0.193,1.931-0.579
		c0.394-0.385,0.6-0.977,0.617-1.774c0.009-0.087,0.013-0.312,0.013-0.676c0-0.355-0.005-0.576-0.013-0.663
		c-0.017-0.763-0.238-1.346-0.663-1.749c-0.425-0.403-0.988-0.604-1.69-0.604H243.68 M217.628,298.976
		c-1.031,0-1.803-0.275-2.314-0.826c-0.511-0.55-0.767-1.354-0.767-2.411v-4.03l0.078-0.208l0.208-0.078h3.055
		c1.074,0,1.846,0.247,2.314,0.741c0.468,0.494,0.724,1.261,0.767,2.301c0.009,0.087,0.013,0.329,0.013,0.728
		c0,0.407-0.004,0.655-0.013,0.741c-0.026,1.031-0.304,1.796-0.832,2.294C219.608,298.727,218.772,298.976,217.628,298.976
		 M215.34,292.177v3.562c0,0.797,0.19,1.41,0.572,1.839c0.381,0.429,0.953,0.644,1.716,0.644c0.893,0,1.536-0.193,1.931-0.579
		c0.394-0.385,0.6-0.977,0.617-1.774c0.009-0.087,0.013-0.312,0.013-0.676c0-0.355-0.004-0.576-0.013-0.663
		c-0.018-0.763-0.239-1.346-0.663-1.749c-0.425-0.403-0.988-0.604-1.69-0.604H215.34 M263.232,298.963
		c-0.139,0-0.208-0.069-0.208-0.208v-0.325c0-0.147,0.091-0.256,0.273-0.325l0.533-0.208c0.667-0.26,1.176-0.619,1.527-1.079
		c0.351-0.459,0.527-1.144,0.527-2.054c0-0.65-0.078-1.161-0.234-1.534c-0.156-0.373-0.414-0.641-0.773-0.806
		c-0.36-0.165-0.852-0.247-1.475-0.247h-0.442h-0.039l-1.014-0.013l-0.208-0.071l-0.078-0.201v-1.989l0.078-0.208l0.208-0.078h0.221
		l0.208,0.078l0.078,0.208v1.521h1.053c0.806,0,1.441,0.11,1.904,0.331c0.464,0.221,0.797,0.579,1.001,1.073
		c0.204,0.494,0.306,1.17,0.306,2.028c0,1.118-0.253,1.972-0.76,2.561c-0.507,0.59-1.185,1.036-2.035,1.339l-0.546,0.195
		L263.232,298.963 M209.126,298.963c-0.139,0-0.208-0.069-0.208-0.208v-0.325c0-0.147,0.091-0.256,0.273-0.325l0.533-0.208
		c0.667-0.26,1.176-0.619,1.527-1.079c0.351-0.459,0.527-1.144,0.527-2.054c0-0.65-0.078-1.161-0.234-1.534
		c-0.156-0.373-0.414-0.641-0.774-0.806c-0.36-0.165-0.851-0.247-1.475-0.247h-2.314l-0.208-0.078l-0.078-0.208v-0.182l0.078-0.208
		l0.208-0.078h2.379c0.806,0,1.441,0.11,1.904,0.331c0.464,0.221,0.797,0.579,1.001,1.073c0.204,0.494,0.306,1.17,0.306,2.028
		c0,1.118-0.253,1.972-0.76,2.561c-0.507,0.59-1.185,1.036-2.034,1.339l-0.546,0.195L209.126,298.963 M190.303,298.963
		c-0.148,0-0.221-0.069-0.221-0.208v-0.351c0-0.147,0.091-0.255,0.273-0.325c0.633-0.225,1.083-0.429,1.352-0.611
		c0.329-0.225,0.646-0.539,0.949-0.943c0.303-0.403,0.455-0.73,0.455-0.981l-0.195-1.014c-0.113-0.563-0.234-1.01-0.364-1.339
		c-0.13-0.329-0.301-0.581-0.513-0.754c-0.213-0.173-0.492-0.26-0.839-0.26h-0.481l-0.208-0.078l-0.078-0.208v-0.182l0.078-0.208
		l0.208-0.078h0.481c0.503,0,0.914,0.113,1.235,0.338c0.321,0.225,0.576,0.557,0.767,0.994c0.191,0.438,0.36,1.008,0.507,1.71
		l0.793,4.095v0.039l-0.085,0.176l-0.201,0.071h-0.221c-0.148,0-0.243-0.095-0.286-0.286l-0.338-1.729
		c-0.165,0.277-0.353,0.535-0.566,0.774c-0.212,0.238-0.427,0.431-0.643,0.578c-0.312,0.217-0.607,0.384-0.884,0.501
		c-0.277,0.117-0.572,0.206-0.884,0.266L190.303,298.963 M85.706,298.963c-0.139,0-0.208-0.069-0.208-0.208v-0.325
		c0-0.147,0.091-0.256,0.273-0.325l0.533-0.208c0.667-0.26,1.176-0.619,1.527-1.079c0.351-0.459,0.527-1.144,0.527-2.054
		c0-0.65-0.078-1.161-0.234-1.534c-0.156-0.373-0.414-0.641-0.773-0.806c-0.36-0.165-0.852-0.247-1.475-0.247h-0.442h-0.039
		l-1.014-0.013l-0.208-0.071l-0.078-0.201v-1.989l0.078-0.208l0.208-0.078h0.221l0.208,0.078l0.078,0.208v1.521h1.053
		c0.806,0,1.441,0.11,1.904,0.331c0.464,0.221,0.797,0.579,1.001,1.073c0.204,0.494,0.306,1.17,0.306,2.028
		c0,1.118-0.253,1.972-0.76,2.561c-0.507,0.59-1.185,1.036-2.035,1.339l-0.546,0.195L85.706,298.963 M259.683,298.846h-0.221
		l-0.208-0.078l-0.078-0.208v-3.9c0-1.655-0.828-2.483-2.483-2.483h-2.236l-0.208-0.078l-0.078-0.208v-0.182l0.078-0.208
		l0.208-0.078h2.301c1.083,0,1.889,0.271,2.418,0.813c0.529,0.542,0.793,1.328,0.793,2.36v3.965l-0.078,0.208L259.683,298.846
		 M254.678,298.846h-0.221l-0.208-0.078l-0.078-0.208v-4.563l0.078-0.208l0.208-0.078h0.221l0.208,0.078l0.078,0.208v4.563
		l-0.078,0.208L254.678,298.846 M251.701,298.846h-0.221l-0.208-0.078l-0.078-0.208v-6.851l0.078-0.208l0.208-0.078h0.221
		l0.208,0.078l0.078,0.208v6.851l-0.078,0.208L251.701,298.846 M227.261,298.846h-0.221l-0.208-0.078l-0.078-0.208v-3.9
		c0-1.655-0.828-2.483-2.483-2.483h-1.586l-0.208-0.078l-0.078-0.208v-0.182l0.078-0.208l0.208-0.078h1.651
		c1.083,0,1.889,0.271,2.418,0.813c0.529,0.542,0.793,1.328,0.793,2.36v3.965l-0.078,0.208L227.261,298.846 M188.756,298.846h-5.2
		l-0.208-0.078l-0.078-0.208v-0.182l0.078-0.208l0.208-0.078h3.913v-3.432c0-1.655-0.828-2.483-2.483-2.483h-1.3l-0.208-0.078
		l-0.078-0.208v-0.182l0.078-0.208l0.208-0.078h1.365c1.083,0,1.889,0.273,2.418,0.819c0.529,0.546,0.793,1.331,0.793,2.353v3.497
		h0.494l0.208,0.078l0.078,0.208v0.182l-0.078,0.208L188.756,298.846 M181.541,298.846h-3.224l-0.208-0.078l-0.078-0.208v-0.182
		l0.078-0.208l0.208-0.078h2.691l-0.247-3.562l-0.013-0.273c-0.035-0.52-0.078-0.914-0.13-1.183
		c-0.052-0.268-0.165-0.485-0.338-0.65c-0.173-0.165-0.438-0.247-0.793-0.247h-0.481l-0.208-0.078l-0.078-0.208v-0.182l0.078-0.208
		l0.208-0.078h0.481c0.581,0,1.012,0.126,1.294,0.377c0.282,0.251,0.468,0.577,0.559,0.975c0.091,0.399,0.163,0.962,0.214,1.69
		l0.273,4.095v0.039l-0.084,0.176L181.541,298.846 M173.26,298.846h-0.221l-0.208-0.078l-0.078-0.208v-6.851l0.078-0.208
		l0.208-0.078h0.221l0.208,0.078l0.078,0.208v6.851l-0.078,0.208L173.26,298.846 M170.361,298.846h-0.221l-0.208-0.078l-0.078-0.208
		v-3.9c0-1.655-0.828-2.483-2.483-2.483h-0.988c-0.087,0.624-0.15,1.127-0.188,1.508c-0.039,0.381-0.054,0.815-0.045,1.3v3.575
		l-0.078,0.208l-0.208,0.078l-1.482-0.026l-0.208-0.078l-0.078-0.208v-0.182l0.078-0.208l0.208-0.078l0.975,0.013v-3.029v-0.403
		c0-0.477,0.017-0.895,0.052-1.254c0.035-0.359,0.1-0.765,0.195-1.216h-0.663l-0.208-0.078l-0.078-0.208v-0.182l0.078-0.208
		l0.208-0.078h2.496c1.083,0,1.889,0.271,2.418,0.813c0.529,0.542,0.793,1.328,0.793,2.36v3.965l-0.078,0.208L170.361,298.846
		 M155.619,298.846h-3.289l-0.208-0.078l-0.078-0.208v-0.182l0.078-0.208l0.208-0.078h2.782v-3.432c0-0.476-0.085-0.905-0.253-1.287
		c-0.169-0.381-0.403-0.676-0.702-0.884c-0.299-0.208-0.635-0.312-1.008-0.312h-1.508l-0.962,6.37l-0.11,0.215l-0.214,0.084h-0.234
		l-0.182-0.084l-0.052-0.215l0.949-6.37h-0.585l-0.208-0.078l-0.078-0.208v-0.182l0.078-0.208l0.208-0.078h2.964
		c0.52,0,0.983,0.13,1.391,0.39c0.407,0.26,0.726,0.631,0.956,1.111c0.229,0.481,0.344,1.038,0.344,1.671v3.965l-0.078,0.208
		L155.619,298.846 M145.037,298.846h-5.226l-0.208-0.078l-0.078-0.208v-6.851l0.078-0.208l0.208-0.078h2.301
		c1.083,0,1.889,0.271,2.418,0.813c0.529,0.542,0.793,1.328,0.793,2.36v3.965l-0.078,0.208L145.037,298.846 M140.305,292.177v5.915
		h4.225v-3.432c0-1.655-0.828-2.483-2.483-2.483H140.305 M133.701,298.846h-0.221l-0.208-0.078l-0.078-0.208v-6.851l0.078-0.208
		l0.208-0.078h0.221l0.208,0.078l0.078,0.208v6.851l-0.078,0.208L133.701,298.846 M131.114,298.846h-0.247l-0.176-0.045l-0.15-0.149
		l-3.211-4.472c-0.425,0.303-0.713,0.654-0.865,1.053c-0.152,0.399-0.227,0.841-0.227,1.326v2.002l-0.078,0.208l-0.208,0.078h-0.221
		l-0.208-0.078l-0.078-0.208v-2.067c0-0.615,0.098-1.164,0.293-1.644c0.195-0.481,0.579-0.908,1.151-1.281l-1.157-1.625
		c-0.069-0.104-0.104-0.19-0.104-0.26l0.078-0.182l0.182-0.078h0.247c0.121,0,0.23,0.065,0.325,0.195l2.938,4.095
		c0.364-0.199,0.628-0.405,0.793-0.617c0.165-0.212,0.267-0.427,0.306-0.644c0.039-0.216,0.058-0.507,0.058-0.871v-1.872
		l0.078-0.208l0.208-0.078h0.221l0.208,0.078l0.078,0.208v1.937c0,0.399-0.035,0.743-0.104,1.034
		c-0.069,0.291-0.214,0.572-0.435,0.845c-0.221,0.273-0.548,0.535-0.982,0.787l1.443,2.015c0.069,0.104,0.104,0.191,0.104,0.26
		l-0.078,0.182L131.114,298.846 M123.419,298.846h-0.221l-0.208-0.078l-0.078-0.208v-3.9c0-1.655-0.828-2.483-2.483-2.483h-0.988
		c-0.087,0.624-0.15,1.127-0.189,1.508c-0.039,0.381-0.054,0.815-0.045,1.3v3.575l-0.078,0.208l-0.208,0.078l-1.482-0.026
		l-0.208-0.078l-0.078-0.208v-0.182l0.078-0.208l0.208-0.078l0.975,0.013v-3.029v-0.403c0-0.477,0.017-0.895,0.052-1.254
		c0.035-0.359,0.1-0.765,0.195-1.216h-0.663l-0.208-0.078l-0.078-0.208v-0.182l0.078-0.208l0.208-0.078h2.496
		c1.083,0,1.889,0.271,2.418,0.813c0.529,0.542,0.793,1.328,0.793,2.36v3.965l-0.078,0.208L123.419,298.846 M111.758,298.846h-0.221
		l-0.208-0.078l-0.078-0.208v-3.9c0-1.655-0.828-2.483-2.483-2.483h-2.236l-0.208-0.078l-0.078-0.208v-0.182l0.078-0.208
		l0.208-0.078h2.301c1.083,0,1.889,0.271,2.418,0.813c0.529,0.542,0.793,1.328,0.793,2.36v3.965l-0.078,0.208L111.758,298.846
		 M106.753,298.846h-0.221l-0.208-0.078l-0.078-0.208v-4.563l0.078-0.208l0.208-0.078h0.221l0.208,0.078l0.078,0.208v4.563
		l-0.078,0.208L106.753,298.846 M103.854,298.846h-0.221l-0.208-0.078l-0.078-0.208v-3.9c0-1.655-0.828-2.483-2.483-2.483h-0.988
		c-0.087,0.624-0.149,1.127-0.188,1.508c-0.039,0.381-0.054,0.815-0.045,1.3v3.575l-0.078,0.208l-0.208,0.078l-1.482-0.026
		l-0.208-0.078l-0.078-0.208v-0.182l0.078-0.208l0.208-0.078l0.975,0.013v-3.029v-0.403c0-0.477,0.017-0.895,0.052-1.254
		c0.035-0.359,0.1-0.765,0.195-1.216h-0.663l-0.208-0.078l-0.078-0.208v-0.182l0.078-0.208l0.208-0.078h2.496
		c1.083,0,1.889,0.271,2.418,0.813c0.529,0.542,0.793,1.328,0.793,2.36v3.965l-0.078,0.208L103.854,298.846 M96.171,298.846h-5.2
		l-0.208-0.078l-0.078-0.208v-0.182l0.078-0.208l0.208-0.078h3.913v-3.432c0-1.655-0.828-2.483-2.483-2.483h-1.3l-0.208-0.078
		l-0.078-0.208v-0.182l0.078-0.208l0.208-0.078h1.365c1.083,0,1.889,0.273,2.418,0.819c0.529,0.546,0.793,1.331,0.793,2.353v3.497
		h0.494l0.208,0.078l0.078,0.208v0.182l-0.078,0.208L96.171,298.846 M79.44,298.846h-3.224l-0.208-0.078l-0.078-0.208v-0.182
		l0.078-0.208l0.208-0.078h2.691l-0.247-3.562l-0.013-0.273c-0.035-0.52-0.078-0.914-0.13-1.183
		c-0.052-0.268-0.165-0.485-0.338-0.65c-0.173-0.165-0.438-0.247-0.793-0.247h-0.481l-0.208-0.078l-0.078-0.208v-0.182l0.078-0.208
		l0.208-0.078h0.481c0.581,0,1.012,0.126,1.294,0.377c0.282,0.251,0.468,0.577,0.559,0.975c0.091,0.399,0.163,0.962,0.214,1.69
		l0.273,4.095v0.039l-0.084,0.176L79.44,298.846 M71.237,298.846h-5.226l-0.208-0.078l-0.078-0.208v-6.851l0.078-0.208l0.208-0.078
		h2.301c1.083,0,1.889,0.271,2.418,0.813c0.529,0.542,0.793,1.328,0.793,2.36v3.965l-0.078,0.208L71.237,298.846 M66.505,292.177
		v5.915h4.225v-3.432c0-1.655-0.828-2.483-2.483-2.483H66.505 M240.599,295.856h-0.221l-0.208-0.078l-0.078-0.208v-3.861
		l0.078-0.208l0.208-0.078h0.221l0.208,0.078l0.078,0.208v3.861l-0.078,0.208L240.599,295.856 M176.133,295.856h-0.221l-0.208-0.078
		l-0.078-0.208v-3.861l0.078-0.208l0.208-0.078h0.221l0.208,0.078l0.078,0.208v3.861l-0.078,0.208L176.133,295.856 M147.832,295.856
		h-0.221l-0.208-0.078l-0.078-0.208v-3.861l0.078-0.208l0.208-0.078h0.221l0.208,0.078l0.078,0.208v3.861l-0.078,0.208
		L147.832,295.856 M81.91,295.856h-0.221l-0.208-0.078l-0.078-0.208v-3.861l0.078-0.208l0.208-0.078h0.221l0.208,0.078l0.078,0.208
		v3.861l-0.078,0.208L81.91,295.856 M74.032,295.856h-0.221l-0.208-0.078l-0.078-0.208v-3.861l0.078-0.208l0.208-0.078h0.221
		l0.208,0.078l0.078,0.208v3.861l-0.078,0.208L74.032,295.856"/>
	<path fill="#000000" d="M280.318,321.546c-0.771,0-1.424-0.121-1.956-0.364c-0.533-0.243-0.932-0.548-1.196-0.917
		c-0.264-0.368-0.405-0.747-0.423-1.137l0.078-0.195l0.195-0.078h1.196c0.19,0,0.321,0.087,0.39,0.26
		c0.19,0.615,0.762,0.923,1.716,0.923c0.529,0,0.943-0.121,1.241-0.364c0.299-0.243,0.449-0.589,0.449-1.04
		c0-0.451-0.137-0.778-0.41-0.981c-0.273-0.204-0.674-0.306-1.202-0.306h-1.339l-0.221-0.091l-0.091-0.221v-0.559
		c0-0.165,0.056-0.294,0.169-0.39l2.314-2.262h-3.705c-0.095,0-0.173-0.03-0.234-0.091l-0.091-0.221v-0.871
		c0-0.095,0.03-0.173,0.091-0.234c0.061-0.06,0.139-0.091,0.234-0.091h5.59c0.095,0,0.173,0.031,0.234,0.091
		c0.061,0.061,0.091,0.139,0.091,0.234v0.793c0,0.147-0.056,0.269-0.169,0.364l-2.236,2.301l0.156,0.013
		c0.832,0.07,1.493,0.321,1.982,0.754c0.49,0.433,0.735,1.053,0.735,1.859c0,0.572-0.154,1.07-0.461,1.495
		c-0.308,0.425-0.732,0.752-1.274,0.981C281.628,321.431,281.011,321.546,280.318,321.546"/>
	<path fill="#000000" d="M188.846,323.899h-0.221l-0.208-0.078l-0.078-0.208v-7.046l0.078-0.208l0.208-0.078h0.221l0.208,0.078
		l0.078,0.208v7.046l-0.078,0.208L188.846,323.899 M223.491,321.546c-1.031,0-1.803-0.275-2.314-0.826
		c-0.511-0.55-0.767-1.354-0.767-2.412v-4.03l0.078-0.208l0.208-0.078h3.055c1.074,0,1.846,0.247,2.314,0.741
		c0.468,0.494,0.724,1.261,0.767,2.301c0.009,0.087,0.013,0.329,0.013,0.728c0,0.407-0.004,0.655-0.013,0.741
		c-0.026,1.031-0.304,1.796-0.832,2.295C225.471,321.297,224.635,321.546,223.491,321.546 M221.203,314.747v3.562
		c0,0.798,0.19,1.411,0.572,1.84c0.381,0.429,0.953,0.643,1.716,0.643c0.893,0,1.536-0.193,1.931-0.579
		c0.394-0.385,0.6-0.977,0.617-1.774c0.009-0.087,0.013-0.312,0.013-0.676c0-0.355-0.004-0.576-0.013-0.663
		c-0.018-0.762-0.239-1.345-0.663-1.749c-0.425-0.403-0.988-0.604-1.69-0.604H221.203 M263.232,321.533
		c-0.139,0-0.208-0.07-0.208-0.208V321c0-0.147,0.091-0.255,0.273-0.325l0.533-0.208c0.667-0.26,1.176-0.62,1.527-1.079
		c0.351-0.459,0.527-1.144,0.527-2.054c0-0.65-0.078-1.161-0.234-1.534c-0.156-0.373-0.414-0.641-0.773-0.806
		c-0.36-0.164-0.852-0.247-1.475-0.247h-0.442h-0.039l-1.014-0.013l-0.208-0.072l-0.078-0.201v-1.989l0.078-0.208l0.208-0.078h0.221
		l0.208,0.078l0.078,0.208v1.521h1.053c0.806,0,1.441,0.11,1.904,0.332c0.464,0.221,0.797,0.578,1.001,1.072
		c0.204,0.494,0.306,1.17,0.306,2.028c0,1.118-0.253,1.972-0.76,2.561c-0.507,0.589-1.185,1.036-2.035,1.339l-0.546,0.195
		L263.232,321.533 M240.963,321.533c-0.139,0-0.208-0.07-0.208-0.208V321c0-0.147,0.091-0.255,0.273-0.325l0.533-0.208
		c0.667-0.26,1.176-0.62,1.527-1.079c0.351-0.459,0.527-1.144,0.527-2.054c0-0.65-0.078-1.161-0.234-1.534
		c-0.156-0.373-0.414-0.641-0.774-0.806c-0.36-0.164-0.851-0.247-1.475-0.247h-0.442h-0.039l-1.014-0.013l-0.208-0.072l-0.078-0.201
		v-1.989l0.078-0.208l0.208-0.078h0.221l0.208,0.078l0.078,0.208v1.521h1.053c0.806,0,1.441,0.11,1.904,0.332
		c0.464,0.221,0.797,0.578,1.001,1.072c0.204,0.494,0.306,1.17,0.306,2.028c0,1.118-0.253,1.972-0.76,2.561
		c-0.507,0.589-1.185,1.036-2.034,1.339l-0.546,0.195L240.963,321.533 M190.77,321.533c-0.139,0-0.208-0.07-0.208-0.208V321
		c0-0.147,0.091-0.255,0.273-0.325l0.533-0.208c0.667-0.26,1.176-0.62,1.527-1.079c0.351-0.459,0.527-1.144,0.527-2.054
		c0-0.65-0.078-1.161-0.234-1.534c-0.156-0.373-0.414-0.641-0.773-0.806c-0.36-0.164-0.852-0.247-1.475-0.247h-2.314l-0.208-0.078
		l-0.078-0.208v-0.182l0.078-0.208l0.208-0.078h2.379c0.806,0,1.441,0.11,1.904,0.332c0.464,0.221,0.797,0.578,1.001,1.072
		c0.203,0.494,0.306,1.17,0.306,2.028c0,1.118-0.253,1.972-0.76,2.561c-0.507,0.589-1.185,1.036-2.035,1.339l-0.546,0.195
		L190.77,321.533 M249.948,321.482c-0.039,0-0.079-0.001-0.119-0.001h-0.871c-0.511,0-0.981-0.128-1.41-0.384
		c-0.429-0.256-0.769-0.622-1.021-1.099c-0.251-0.477-0.377-1.031-0.377-1.664v-4.056l0.078-0.208l0.208-0.078h0.221l0.208,0.078
		l0.078,0.208l0.052,3.887c0.884-0.06,1.504-0.279,1.859-0.657c0.355-0.377,0.533-0.864,0.533-1.462v-1.768l0.078-0.208l0.208-0.078
		h0.221l0.208,0.078l0.078,0.208v1.833c0,0.771-0.264,1.419-0.793,1.944c-0.529,0.525-1.309,0.813-2.34,0.865
		c0.095,0.572,0.347,1.014,0.754,1.326c0.407,0.312,0.914,0.468,1.521,0.468h0.455c0.029,0.001,0.057,0.001,0.086,0.001
		c0.834,0,1.477-0.25,1.929-0.748c0.468-0.516,0.702-1.211,0.702-2.087v-3.601l0.078-0.208l0.208-0.078h0.221l0.208,0.078
		l0.078,0.208v3.692c0,0.72-0.143,1.348-0.429,1.885c-0.286,0.537-0.689,0.947-1.209,1.229
		C251.159,321.35,250.592,321.482,249.948,321.482 M260.411,321.416h-5.2l-0.208-0.078l-0.078-0.208v-0.182l0.078-0.208l0.208-0.078
		h3.913v-3.432c0-1.655-0.828-2.483-2.483-2.483h-1.3l-0.208-0.078l-0.078-0.208v-0.182l0.078-0.208l0.208-0.078h1.365
		c1.083,0,1.889,0.273,2.418,0.819c0.529,0.546,0.793,1.33,0.793,2.353v3.497h0.494l0.208,0.078l0.078,0.208v0.182l-0.078,0.208
		L260.411,321.416 M234.086,321.416h-3.289l-0.208-0.078l-0.078-0.208v-0.182l0.078-0.208l0.208-0.078h2.782v-3.432
		c0-0.476-0.085-0.905-0.253-1.287c-0.169-0.381-0.403-0.676-0.702-0.884c-0.299-0.208-0.635-0.312-1.008-0.312h-1.508l-0.962,6.37
		l-0.111,0.214l-0.214,0.085h-0.234l-0.182-0.085l-0.052-0.214l0.949-6.37h-0.585l-0.208-0.078l-0.078-0.208v-0.182l0.078-0.208
		l0.208-0.078h2.964c0.52,0,0.984,0.13,1.391,0.39c0.407,0.26,0.726,0.63,0.956,1.111c0.23,0.481,0.344,1.038,0.344,1.671v3.965
		l-0.078,0.208L234.086,321.416 M215.808,321.416h-2.158l-0.208-0.078l-0.078-0.208v-0.182l0.078-0.208l0.208-0.078h2.093
		c0.659,0,1.159-0.214,1.502-0.643c0.342-0.429,0.531-1.042,0.565-1.84c0.009-0.086,0.013-0.247,0.013-0.481
		c0-0.225-0.004-0.381-0.013-0.468c-0.018-0.789-0.201-1.399-0.552-1.833c-0.351-0.433-0.856-0.65-1.515-0.65h-1.768v1.235
		c0,0.408,0.043,0.726,0.13,0.956c0.087,0.23,0.238,0.371,0.455,0.423l0.533,0.13c0.147,0.043,0.221,0.182,0.221,0.416v0.182
		l-0.085,0.156l-0.214,0.052l-0.104-0.013l-0.494-0.117c-0.416-0.095-0.724-0.32-0.923-0.676c-0.199-0.355-0.299-0.858-0.299-1.508
		v-1.703l0.078-0.208l0.208-0.078h2.327c0.893,0,1.575,0.275,2.047,0.825c0.472,0.551,0.722,1.333,0.747,2.347
		c0.009,0.087,0.013,0.264,0.013,0.533c0,0.277-0.004,0.459-0.013,0.546c-0.026,1.014-0.275,1.796-0.747,2.347
		C217.383,321.141,216.7,321.416,215.808,321.416 M210.777,321.416h-0.221l-0.208-0.078l-0.078-0.208v-3.9
		c0-1.655-0.828-2.483-2.483-2.483h-1.586l-0.208-0.078l-0.078-0.208v-0.182l0.078-0.208l0.208-0.078h1.651
		c1.083,0,1.889,0.271,2.418,0.813c0.529,0.542,0.793,1.328,0.793,2.36v3.965l-0.078,0.208L210.777,321.416 M199.922,321.416h-0.221
		l-0.208-0.078l-0.078-0.208v-4.914c0-0.338,0.032-0.637,0.097-0.897c0.065-0.26,0.15-0.451,0.254-0.572h-3.783l-0.208-0.078
		l-0.078-0.208v-0.182l0.078-0.208l0.208-0.078h5.486l0.208,0.078l0.078,0.208v0.182l-0.078,0.208l-0.208,0.078h-0.832
		c-0.139,0.121-0.245,0.319-0.318,0.592c-0.074,0.273-0.11,0.587-0.11,0.943v4.849l-0.078,0.208L199.922,321.416 M185.869,321.416
		h-0.221l-0.208-0.078l-0.078-0.208v-6.851l0.078-0.208l0.208-0.078h0.221l0.208,0.078l0.078,0.208v6.851l-0.078,0.208
		L185.869,321.416 M182.97,321.416h-0.221l-0.208-0.078l-0.078-0.208v-3.9c0-1.655-0.828-2.483-2.483-2.483h-0.988
		c-0.087,0.624-0.149,1.127-0.188,1.508c-0.039,0.382-0.054,0.815-0.045,1.3v3.575l-0.078,0.208l-0.208,0.078l-1.482-0.026
		l-0.208-0.078l-0.078-0.208v-0.182l0.078-0.208l0.208-0.078l0.975,0.013v-3.029v-0.403c0-0.477,0.017-0.895,0.052-1.254
		c0.035-0.36,0.1-0.765,0.195-1.216h-0.663l-0.208-0.078l-0.078-0.208v-0.182l0.078-0.208l0.208-0.078h2.496
		c1.083,0,1.889,0.271,2.418,0.813c0.529,0.542,0.793,1.328,0.793,2.36v3.965l-0.078,0.208L182.97,321.416"/>
</g>
</svg>
