<!-- Generator: Adobe InDesign 14.0 SVG Export Plug-in, SVG Library version: 6.0 build 234 -->
<!DOCTYPE svg PUBLIC "-//W3C//DTD SVG 1.1//EN" "http://www.w3.org/Graphics/SVG/1.1/DTD/svg11.dtd">
<svg version="1.1" xmlns="http://www.w3.org/2000/svg" xmlns:xlink="http://www.w3.org/1999/xlink" x="0%" y="0%" width="100%"
	 height="100%" viewBox="0 0 297.855 534.346" preserveAspectRatio="xMidYMid slice" overflow="visible" xml:space="preserve">
<clipPath id="clp_unq_id_1" fill="none">
	<path shape-rendering="crispEdges" stroke="#000000" d="M0,0h297.855v534.346H0V0"/>
</clipPath>
<g clip-path="url(#clp_unq_id_1)" fill="none">
	<path fill="#000000" d="M281.879,63.855h-1.248l-0.195-0.085l-0.078-0.201l0.065-0.169l1.911-2.626
		c-0.148,0.035-0.329,0.052-0.546,0.052c-0.572-0.017-1.094-0.163-1.566-0.435c-0.472-0.273-0.847-0.637-1.125-1.092
		c-0.277-0.455-0.416-0.96-0.416-1.515c0-0.546,0.134-1.059,0.403-1.54c0.268-0.481,0.667-0.871,1.196-1.17
		c0.529-0.299,1.166-0.449,1.911-0.449c0.754,0,1.399,0.141,1.937,0.422c0.537,0.282,0.943,0.659,1.216,1.131
		c0.273,0.472,0.409,0.99,0.409,1.554c0,0.355-0.056,0.689-0.169,1.001c-0.113,0.312-0.241,0.583-0.384,0.813
		c-0.143,0.23-0.345,0.527-0.605,0.89l-2.275,3.159l-0.195,0.195C282.065,63.833,281.983,63.855,281.879,63.855 M282.204,56.133
		c-0.468,0-0.862,0.15-1.183,0.449c-0.321,0.299-0.481,0.7-0.481,1.202c0,0.494,0.158,0.89,0.474,1.19
		c0.316,0.299,0.713,0.448,1.189,0.448c0.476,0,0.875-0.149,1.196-0.448c0.321-0.299,0.481-0.696,0.481-1.19
		c0-0.502-0.161-0.903-0.481-1.202C283.079,56.283,282.68,56.133,282.204,56.133"/>
	<path fill="#000000" d="M166.579,66.338h-0.221l-0.208-0.078l-0.078-0.208v-7.046l0.078-0.208l0.208-0.078h0.221l0.208,0.078
		l0.078,0.208v7.046l-0.078,0.208L166.579,66.338 M249.609,63.985c-1.101,0-1.9-0.269-2.398-0.806
		c-0.499-0.537-0.747-1.326-0.747-2.366v-4.095l0.078-0.208l0.208-0.078h0.221l0.208,0.078l0.078,0.208v4.03
		c0,0.798,0.193,1.411,0.578,1.84c0.386,0.429,0.977,0.643,1.775,0.643c0.797,0,1.385-0.193,1.761-0.579
		c0.377-0.386,0.574-0.977,0.592-1.774v-0.442v-1.027c-0.018-0.78-0.191-1.356-0.52-1.729c-0.329-0.373-0.776-0.559-1.339-0.559
		c-0.165,0-0.353,0.031-0.566,0.091c-0.212,0.061-0.392,0.143-0.539,0.247l-0.13,0.039l-0.15-0.058l-0.072-0.15v-0.169v-0.065
		l0.026-0.182l0.104-0.117c0.199-0.13,0.405-0.228,0.617-0.293c0.212-0.065,0.47-0.098,0.774-0.098c0.806,0,1.432,0.243,1.879,0.728
		c0.446,0.485,0.682,1.235,0.708,2.249c0.009,0.087,0.013,0.351,0.013,0.793c0,0.451-0.004,0.719-0.013,0.806
		c-0.026,1.04-0.279,1.807-0.76,2.301C251.514,63.738,250.718,63.985,249.609,63.985 M160.846,63.985
		c-1.031,0-1.803-0.275-2.314-0.825c-0.511-0.55-0.767-1.354-0.767-2.412v-4.03l0.078-0.208l0.208-0.078h3.055
		c1.075,0,1.846,0.247,2.314,0.741c0.468,0.494,0.724,1.261,0.767,2.301c0.009,0.087,0.013,0.329,0.013,0.728
		c0,0.408-0.004,0.655-0.013,0.741c-0.026,1.031-0.304,1.796-0.832,2.295C162.826,63.736,161.99,63.985,160.846,63.985
		 M158.558,57.186v3.562c0,0.798,0.19,1.411,0.572,1.84c0.381,0.429,0.953,0.643,1.716,0.643c0.893,0,1.536-0.193,1.93-0.579
		c0.394-0.386,0.6-0.977,0.618-1.774c0.008-0.087,0.013-0.312,0.013-0.676c0-0.355-0.005-0.576-0.013-0.663
		c-0.018-0.762-0.239-1.345-0.663-1.748c-0.425-0.403-0.988-0.604-1.69-0.604H158.558 M265.053,63.972
		c-0.139,0-0.208-0.07-0.208-0.208v-0.325c0-0.147,0.091-0.255,0.273-0.325l0.533-0.208c0.667-0.26,1.176-0.62,1.527-1.079
		c0.351-0.459,0.527-1.144,0.527-2.054c0-0.65-0.078-1.161-0.234-1.534c-0.156-0.373-0.414-0.641-0.773-0.806
		c-0.36-0.165-0.851-0.247-1.475-0.247h-0.442h-0.039l-1.014-0.013l-0.208-0.072l-0.078-0.201v-1.989l0.078-0.208l0.208-0.078h0.221
		l0.208,0.078l0.078,0.208v1.521h1.053c0.806,0,1.441,0.11,1.904,0.332c0.464,0.221,0.797,0.578,1.001,1.072
		c0.203,0.494,0.306,1.17,0.306,2.028c0,1.118-0.253,1.972-0.76,2.561c-0.507,0.589-1.185,1.036-2.034,1.339l-0.546,0.195
		L265.053,63.972 M168.503,63.972c-0.139,0-0.208-0.07-0.208-0.208v-0.325c0-0.147,0.091-0.255,0.273-0.325l0.533-0.208
		c0.667-0.26,1.176-0.62,1.527-1.079c0.351-0.459,0.527-1.144,0.527-2.054c0-0.65-0.078-1.161-0.234-1.534
		c-0.156-0.373-0.414-0.641-0.773-0.806c-0.36-0.165-0.852-0.247-1.475-0.247h-2.314l-0.208-0.078l-0.078-0.208v-0.182l0.078-0.208
		l0.208-0.078h2.379c0.806,0,1.441,0.11,1.905,0.332c0.464,0.221,0.797,0.578,1.001,1.072c0.203,0.494,0.306,1.17,0.306,2.028
		c0,1.118-0.253,1.972-0.761,2.561c-0.507,0.589-1.185,1.036-2.034,1.339l-0.546,0.195L168.503,63.972 M141.359,63.972
		c-0.139,0-0.208-0.07-0.208-0.208v-0.325c0-0.147,0.091-0.255,0.273-0.325l0.533-0.208c0.667-0.26,1.176-0.62,1.528-1.079
		c0.351-0.459,0.526-1.144,0.526-2.054c0-0.65-0.078-1.161-0.234-1.534c-0.156-0.373-0.414-0.641-0.773-0.806
		c-0.36-0.165-0.852-0.247-1.476-0.247h-0.442h-0.039l-1.014-0.013l-0.208-0.072l-0.078-0.201v-1.989l0.078-0.208l0.208-0.078h0.221
		l0.208,0.078l0.078,0.208v1.521h1.053c0.806,0,1.441,0.11,1.905,0.332c0.464,0.221,0.797,0.578,1.001,1.072
		c0.203,0.494,0.306,1.17,0.306,2.028c0,1.118-0.253,1.972-0.761,2.561c-0.507,0.589-1.185,1.036-2.034,1.339l-0.546,0.195
		L141.359,63.972 M258.308,63.921c-0.039,0-0.079,0-0.119-0.001h-0.871c-0.512,0-0.982-0.128-1.411-0.384
		c-0.429-0.255-0.769-0.622-1.02-1.099c-0.251-0.476-0.377-1.031-0.377-1.664v-4.056l0.078-0.208l0.208-0.078h0.221l0.208,0.078
		l0.078,0.208l0.052,3.887c0.884-0.06,1.504-0.279,1.859-0.657c0.355-0.377,0.533-0.864,0.533-1.462v-1.768l0.078-0.208l0.208-0.078
		h0.221l0.208,0.078l0.078,0.208v1.833c0,0.771-0.264,1.419-0.793,1.944c-0.529,0.525-1.309,0.813-2.34,0.865
		c0.095,0.572,0.347,1.014,0.754,1.326c0.407,0.312,0.914,0.468,1.521,0.468h0.455c0.029,0.001,0.057,0.001,0.086,0.001
		c0.834,0,1.477-0.25,1.93-0.748c0.468-0.516,0.702-1.211,0.702-2.087v-3.601l0.078-0.208l0.208-0.078h0.221l0.208,0.078
		l0.078,0.208v3.692c0,0.72-0.143,1.348-0.429,1.885c-0.286,0.537-0.689,0.947-1.209,1.229
		C259.519,63.789,258.952,63.922,258.308,63.921 M97.747,63.921c-0.039,0-0.079,0-0.119-0.001h-0.871
		c-0.511,0-0.981-0.128-1.41-0.384c-0.429-0.255-0.769-0.622-1.021-1.099c-0.251-0.476-0.377-1.031-0.377-1.664v-4.056l0.078-0.208
		l0.208-0.078h0.221l0.208,0.078l0.078,0.208l0.052,3.887c0.884-0.06,1.504-0.279,1.859-0.657c0.355-0.377,0.533-0.864,0.533-1.462
		v-1.768l0.078-0.208l0.208-0.078h0.221l0.208,0.078l0.078,0.208v1.833c0,0.771-0.265,1.419-0.793,1.944
		c-0.529,0.525-1.309,0.813-2.34,0.865c0.095,0.572,0.347,1.014,0.754,1.326c0.407,0.312,0.914,0.468,1.521,0.468h0.455
		c0.029,0.001,0.057,0.001,0.086,0.001c0.834,0,1.477-0.25,1.929-0.748c0.468-0.516,0.702-1.211,0.702-2.087v-3.601l0.078-0.208
		l0.208-0.078h0.221l0.208,0.078l0.078,0.208v3.692c0,0.72-0.143,1.348-0.429,1.885c-0.286,0.537-0.689,0.947-1.209,1.229
		C98.958,63.789,98.391,63.922,97.747,63.921 M244.136,63.855h-0.221l-0.208-0.078l-0.078-0.208v-3.9
		c0-1.655-0.828-2.483-2.483-2.483h-1.742v6.383l-0.078,0.208l-0.208,0.078h-0.221l-0.208-0.078l-0.078-0.208v-6.851l0.078-0.208
		l0.208-0.078h2.314c1.083,0,1.889,0.271,2.418,0.813c0.529,0.542,0.793,1.328,0.793,2.36v3.965l-0.078,0.208L244.136,63.855
		 M233.71,63.855h-5.2l-0.208-0.078l-0.078-0.208v-0.182l0.078-0.208l0.208-0.078h3.913v-3.432c0-1.655-0.828-2.483-2.483-2.483
		h-1.3l-0.208-0.078l-0.078-0.208v-0.182l0.078-0.208l0.208-0.078h1.365c1.083,0,1.889,0.273,2.418,0.819
		c0.529,0.546,0.793,1.33,0.793,2.353v3.497h0.494l0.208,0.078l0.078,0.208v0.182l-0.078,0.208L233.71,63.855 M226.17,63.855h-0.221
		l-0.208-0.078l-0.078-0.208v-3.9c0-1.655-0.828-2.483-2.483-2.483h-0.988c-0.087,0.624-0.15,1.127-0.189,1.508
		c-0.039,0.382-0.054,0.815-0.045,1.3v3.575l-0.078,0.208l-0.208,0.078l-1.482-0.026l-0.208-0.078l-0.078-0.208v-0.182l0.078-0.208
		l0.208-0.078l0.975,0.013v-3.029v-0.403c0-0.477,0.017-0.895,0.052-1.254c0.035-0.36,0.1-0.765,0.195-1.216h-0.663l-0.208-0.078
		l-0.078-0.208v-0.182l0.078-0.208l0.208-0.078h2.496c1.083,0,1.889,0.271,2.418,0.813c0.529,0.542,0.793,1.328,0.793,2.36v3.965
		l-0.078,0.208L226.17,63.855 M218.487,63.855h-5.2l-0.208-0.078l-0.078-0.208v-0.182l0.078-0.208l0.208-0.078h3.913v-3.432
		c0-1.655-0.828-2.483-2.483-2.483h-1.3l-0.208-0.078l-0.078-0.208v-0.182l0.078-0.208l0.208-0.078h1.365
		c1.083,0,1.889,0.273,2.418,0.819s0.793,1.33,0.793,2.353v3.497h0.494l0.208,0.078l0.078,0.208v0.182l-0.078,0.208L218.487,63.855
		 M211.273,63.855h-3.224l-0.208-0.078l-0.078-0.208v-0.182l0.078-0.208l0.208-0.078h2.691l-0.247-3.562l-0.013-0.273
		c-0.035-0.52-0.078-0.914-0.13-1.183c-0.052-0.269-0.165-0.485-0.338-0.65c-0.173-0.165-0.438-0.247-0.793-0.247h-0.481
		l-0.208-0.078l-0.078-0.208v-0.182l0.078-0.208l0.208-0.078h0.481c0.581,0,1.012,0.126,1.294,0.377
		c0.281,0.251,0.468,0.576,0.559,0.975c0.091,0.399,0.162,0.962,0.214,1.69l0.273,4.095v0.039l-0.085,0.176L211.273,63.855
		 M203.07,63.855h-0.221l-0.208-0.078l-0.078-0.208v-3.9c0-1.655-0.828-2.483-2.483-2.483h-0.988
		c-0.087,0.624-0.149,1.127-0.188,1.508c-0.039,0.382-0.054,0.815-0.045,1.3v3.575l-0.078,0.208l-0.208,0.078l-1.482-0.026
		l-0.208-0.078l-0.078-0.208v-0.182l0.078-0.208l0.208-0.078l0.975,0.013v-3.029v-0.403c0-0.477,0.017-0.895,0.052-1.254
		c0.035-0.36,0.1-0.765,0.195-1.216h-0.663l-0.208-0.078l-0.078-0.208v-0.182l0.078-0.208l0.208-0.078h2.496
		c1.083,0,1.889,0.271,2.418,0.813c0.529,0.542,0.793,1.328,0.793,2.36v3.965l-0.078,0.208L203.07,63.855 M189.121,63.855h-2.158
		l-0.208-0.078l-0.078-0.208v-0.182l0.078-0.208l0.208-0.078h2.093c0.659,0,1.159-0.214,1.502-0.643
		c0.342-0.429,0.531-1.042,0.566-1.84c0.008-0.087,0.013-0.247,0.013-0.481c0-0.225-0.005-0.381-0.013-0.468
		c-0.018-0.789-0.202-1.399-0.553-1.833c-0.351-0.433-0.856-0.65-1.515-0.65h-1.768v1.235c0,0.407,0.043,0.726,0.13,0.956
		c0.087,0.23,0.238,0.371,0.455,0.423l0.533,0.13c0.147,0.043,0.221,0.182,0.221,0.416v0.182l-0.084,0.156l-0.215,0.052
		l-0.104-0.013l-0.494-0.117c-0.416-0.095-0.724-0.321-0.923-0.676c-0.199-0.355-0.299-0.858-0.299-1.508v-1.703l0.078-0.208
		l0.208-0.078h2.327c0.893,0,1.575,0.275,2.048,0.825c0.472,0.551,0.721,1.333,0.747,2.347c0.009,0.087,0.013,0.264,0.013,0.533
		c0,0.277-0.004,0.459-0.013,0.546c-0.026,1.014-0.275,1.796-0.747,2.347C190.696,63.58,190.013,63.855,189.121,63.855
		 M178.552,63.855h-0.221l-0.208-0.078l-0.078-0.208v-3.9c0-1.655-0.828-2.483-2.483-2.483h-1.586l-0.208-0.078L173.69,56.9v-0.182
		l0.078-0.208l0.208-0.078h1.651c1.083,0,1.889,0.271,2.418,0.813c0.529,0.542,0.793,1.328,0.793,2.36v3.965l-0.078,0.208
		L178.552,63.855 M152.097,63.855h-3.289l-0.208-0.078l-0.078-0.208v-0.182l0.078-0.208l0.208-0.078h2.782v-3.432
		c0-0.476-0.085-0.905-0.253-1.287c-0.169-0.381-0.403-0.676-0.702-0.884c-0.299-0.208-0.635-0.312-1.008-0.312h-1.508l-0.962,6.37
		l-0.11,0.214l-0.214,0.085h-0.234l-0.182-0.085l-0.052-0.214l0.949-6.37h-0.585l-0.208-0.078l-0.078-0.208v-0.182l0.078-0.208
		l0.208-0.078h2.964c0.52,0,0.984,0.13,1.391,0.39c0.407,0.26,0.726,0.63,0.956,1.111c0.23,0.481,0.344,1.038,0.344,1.67v3.965
		l-0.078,0.208L152.097,63.855 M138.538,63.855h-5.2l-0.208-0.078l-0.078-0.208v-0.182l0.078-0.208l0.208-0.078h3.913v-3.432
		c0-1.655-0.828-2.483-2.483-2.483h-1.3l-0.208-0.078l-0.078-0.208v-0.182l0.078-0.208l0.208-0.078h1.365
		c1.083,0,1.889,0.273,2.418,0.819c0.529,0.546,0.793,1.33,0.793,2.353v3.497h0.494l0.208,0.078l0.078,0.208v0.182l-0.078,0.208
		L138.538,63.855 M131.323,63.855h-3.224l-0.208-0.078l-0.078-0.208v-0.182l0.078-0.208l0.208-0.078h2.691l-0.247-3.562
		l-0.013-0.273c-0.035-0.52-0.078-0.914-0.13-1.183c-0.052-0.269-0.165-0.485-0.338-0.65c-0.174-0.165-0.438-0.247-0.793-0.247
		h-0.481l-0.208-0.078l-0.078-0.208v-0.182l0.078-0.208l0.208-0.078h0.481c0.581,0,1.012,0.126,1.294,0.377
		c0.281,0.251,0.468,0.576,0.559,0.975c0.091,0.399,0.162,0.962,0.214,1.69l0.273,4.095v0.039l-0.085,0.176L131.323,63.855
		 M123.121,63.855H122.9l-0.208-0.078l-0.078-0.208v-3.9c0-1.655-0.828-2.483-2.483-2.483h-0.988
		c-0.087,0.624-0.149,1.127-0.188,1.508c-0.039,0.382-0.054,0.815-0.045,1.3v3.575l-0.078,0.208l-0.208,0.078l-1.482-0.026
		l-0.208-0.078l-0.078-0.208v-0.182l0.078-0.208l0.208-0.078l0.975,0.013v-3.029v-0.403c0-0.477,0.017-0.895,0.052-1.254
		c0.035-0.36,0.1-0.765,0.195-1.216H117.7l-0.208-0.078l-0.078-0.208v-0.182l0.078-0.208l0.208-0.078h2.496
		c1.083,0,1.889,0.271,2.418,0.813c0.529,0.542,0.793,1.328,0.793,2.36v3.965l-0.078,0.208L123.121,63.855 M111.382,63.855h-0.221
		l-0.208-0.078l-0.078-0.208v-6.851l0.078-0.208l0.208-0.078h0.221l0.208,0.078l0.078,0.208v6.851l-0.078,0.208L111.382,63.855
		 M108.483,63.855h-3.289l-0.208-0.078l-0.078-0.208v-0.182l0.078-0.208l0.208-0.078h2.782v-3.432c0-0.476-0.085-0.905-0.253-1.287
		c-0.169-0.381-0.403-0.676-0.702-0.884c-0.299-0.208-0.635-0.312-1.008-0.312h-1.508l-0.962,6.37l-0.11,0.214l-0.214,0.085h-0.234
		l-0.182-0.085l-0.052-0.214l0.949-6.37h-0.585l-0.208-0.078l-0.078-0.208v-0.182l0.078-0.208l0.208-0.078h2.964
		c0.52,0,0.984,0.13,1.391,0.39c0.407,0.26,0.726,0.63,0.956,1.111c0.23,0.481,0.344,1.038,0.344,1.67v3.965l-0.078,0.208
		L108.483,63.855 M91.609,63.855h-0.221l-0.208-0.078l-0.078-0.208v-6.851l0.078-0.208l0.208-0.078h0.221l0.208,0.078l0.078,0.208
		v6.851l-0.078,0.208L91.609,63.855 M88.71,63.855h-3.289l-0.208-0.078l-0.078-0.208v-0.182l0.078-0.208l0.208-0.078h2.782v-3.432
		c0-0.476-0.085-0.905-0.253-1.287c-0.169-0.381-0.403-0.676-0.702-0.884c-0.299-0.208-0.635-0.312-1.008-0.312h-1.508l-0.962,6.37
		l-0.11,0.214l-0.215,0.085h-0.234l-0.182-0.085l-0.052-0.214l0.949-6.37h-0.585l-0.208-0.078L83.055,56.9v-0.182l0.078-0.208
		l0.208-0.078h2.964c0.52,0,0.984,0.13,1.391,0.39c0.407,0.26,0.726,0.63,0.956,1.111c0.23,0.481,0.344,1.038,0.344,1.67v3.965
		l-0.078,0.208L88.71,63.855 M81.222,63.855h-3.224l-0.208-0.078l-0.078-0.208v-0.182l0.078-0.208l0.208-0.078h2.691l-0.247-3.562
		l-0.013-0.273c-0.035-0.52-0.078-0.914-0.13-1.183c-0.052-0.269-0.165-0.485-0.338-0.65c-0.174-0.165-0.438-0.247-0.793-0.247
		h-0.481l-0.208-0.078L78.401,56.9v-0.182l0.078-0.208l0.208-0.078h0.481c0.581,0,1.012,0.126,1.293,0.377
		c0.282,0.251,0.468,0.576,0.559,0.975c0.091,0.399,0.163,0.962,0.215,1.69l0.273,4.095v0.039l-0.085,0.176L81.222,63.855
		 M75.788,63.855h-0.221l-0.208-0.078l-0.078-0.208v-3.9c0-1.655-0.828-2.483-2.483-2.483H71.81
		c-0.087,0.624-0.15,1.127-0.188,1.508c-0.039,0.382-0.054,0.815-0.045,1.3v3.575l-0.078,0.208l-0.208,0.078l-1.482-0.026
		L69.6,63.751l-0.078-0.208v-0.182l0.078-0.208l0.208-0.078l0.975,0.013v-3.029v-0.403c0-0.477,0.017-0.895,0.052-1.254
		c0.035-0.36,0.1-0.765,0.195-1.216h-0.663l-0.208-0.078L70.081,56.9v-0.182l0.078-0.208l0.208-0.078h2.496
		c1.083,0,1.889,0.271,2.418,0.813c0.529,0.542,0.793,1.328,0.793,2.36v3.965l-0.078,0.208L75.788,63.855 M64.127,63.855h-0.221
		l-0.208-0.078l-0.078-0.208v-3.9c0-1.655-0.828-2.483-2.483-2.483h-1.742v6.383l-0.078,0.208l-0.208,0.078h-0.221l-0.208-0.078
		l-0.078-0.208v-6.851l0.078-0.208l0.208-0.078h2.314c1.083,0,1.889,0.271,2.418,0.813c0.529,0.542,0.793,1.328,0.793,2.36v3.965
		l-0.078,0.208L64.127,63.855 M56.354,63.855h-4.485l-0.208-0.078l-0.078-0.208v-0.182l0.078-0.208l0.208-0.078h3.705l-4.173-6.149
		c-0.07-0.104-0.104-0.191-0.104-0.26l0.085-0.182l0.188-0.078h0.234c0.13,0,0.238,0.07,0.325,0.208l2.496,3.627
		c0.849-0.321,1.274-1.083,1.274-2.288v-1.261l0.078-0.208l0.208-0.078h0.221l0.208,0.078l0.078,0.208v1.326
		c0,0.702-0.141,1.289-0.422,1.761c-0.282,0.472-0.696,0.821-1.242,1.047l1.469,2.145c0.095,0.139,0.143,0.269,0.143,0.39v0.182
		l-0.078,0.208L56.354,63.855 M43.445,63.855h-3.289l-0.208-0.078l-0.078-0.208v-0.182l0.078-0.208l0.208-0.078h2.782v-3.432
		c0-0.476-0.084-0.905-0.253-1.287c-0.169-0.381-0.403-0.676-0.702-0.884c-0.299-0.208-0.635-0.312-1.007-0.312h-1.508l-0.962,6.37
		l-0.11,0.214l-0.215,0.085h-0.234l-0.182-0.085l-0.052-0.214l0.949-6.37h-0.585l-0.208-0.078L37.79,56.9v-0.182l0.078-0.208
		l0.208-0.078h2.964c0.52,0,0.983,0.13,1.391,0.39c0.407,0.26,0.726,0.63,0.956,1.111c0.23,0.481,0.344,1.038,0.344,1.67v3.965
		l-0.078,0.208L43.445,63.855 M32.993,63.855h-1.911l-0.208-0.078l-0.078-0.208v-0.182l0.078-0.208l0.208-0.078h1.846
		c0.849,0,1.467-0.21,1.853-0.63c0.386-0.42,0.596-1.038,0.63-1.853c0.009-0.13,0.013-0.29,0.013-0.481
		c0-0.182-0.005-0.338-0.013-0.468c-0.026-0.815-0.234-1.432-0.624-1.853c-0.39-0.42-1.01-0.63-1.859-0.63h-1.846l-0.208-0.078
		L30.796,56.9v-0.182l0.078-0.208l0.208-0.078h1.911c1.075,0,1.87,0.269,2.385,0.806c0.516,0.537,0.791,1.326,0.826,2.366
		c0.008,0.13,0.013,0.308,0.013,0.533c0,0.234-0.005,0.416-0.013,0.546c-0.035,1.04-0.31,1.829-0.826,2.366
		C34.862,63.586,34.067,63.855,32.993,63.855 M28.378,63.855h-3.289l-0.208-0.078l-0.078-0.208v-0.182l0.078-0.208l0.208-0.078
		h2.782v-3.432c0-0.476-0.084-0.905-0.253-1.287c-0.169-0.381-0.403-0.676-0.702-0.884c-0.299-0.208-0.635-0.312-1.007-0.312H24.4
		l-0.962,6.37l-0.11,0.214l-0.215,0.085h-0.234l-0.182-0.085l-0.052-0.214l0.949-6.37h-0.585l-0.208-0.078L22.723,56.9v-0.182
		l0.078-0.208l0.208-0.078h2.964c0.52,0,0.983,0.13,1.391,0.39c0.407,0.26,0.726,0.63,0.956,1.111
		c0.23,0.481,0.345,1.038,0.345,1.67v3.965l-0.078,0.208L28.378,63.855 M20.487,63.855h-0.221l-0.208-0.078l-0.078-0.208v-6.851
		l0.078-0.208l0.208-0.078h0.221l0.208,0.078l0.078,0.208v6.851l-0.078,0.208L20.487,63.855 M17.588,63.855h-0.221l-0.208-0.078
		l-0.078-0.208v-3.9c0-1.655-0.828-2.483-2.483-2.483H13.61c-0.087,0.624-0.149,1.127-0.188,1.508
		c-0.039,0.382-0.054,0.815-0.045,1.3v3.575l-0.078,0.208l-0.208,0.078l-1.482-0.026L11.4,63.751l-0.078-0.208v-0.182l0.078-0.208
		l0.208-0.078l0.975,0.013v-3.029v-0.403c0-0.477,0.017-0.895,0.052-1.254c0.035-0.36,0.1-0.765,0.195-1.216h-0.663l-0.208-0.078
		L11.881,56.9v-0.182l0.078-0.208l0.208-0.078h2.496c1.083,0,1.889,0.271,2.418,0.813c0.529,0.542,0.793,1.328,0.793,2.36v3.965
		l-0.078,0.208L17.588,63.855 M205.865,60.865h-0.221l-0.208-0.078l-0.078-0.208v-3.861l0.078-0.208l0.208-0.078h0.221l0.208,0.078
		l0.078,0.208v3.861l-0.078,0.208L205.865,60.865 M184.116,60.865h-0.221l-0.208-0.078l-0.078-0.208v-3.861l0.078-0.208l0.208-0.078
		h0.221l0.208,0.078l0.078,0.208v3.861l-0.078,0.208L184.116,60.865 M181.347,60.865h-0.221l-0.208-0.078l-0.078-0.208v-3.861
		l0.078-0.208l0.208-0.078h0.221l0.208,0.078l0.078,0.208v3.861l-0.078,0.208L181.347,60.865 M125.915,60.865h-0.221l-0.208-0.078
		l-0.078-0.208v-3.861l0.078-0.208l0.208-0.078h0.221l0.208,0.078l0.078,0.208v3.861l-0.078,0.208L125.915,60.865 M49.594,60.865
		h-0.221l-0.208-0.078l-0.078-0.208v-3.861l0.078-0.208l0.208-0.078h0.221l0.208,0.078l0.078,0.208v3.861l-0.078,0.208
		L49.594,60.865"/>
	<path fill="#000000" d="M250.051,80.885c-1.101,0-1.9-0.269-2.398-0.806c-0.498-0.537-0.747-1.326-0.747-2.366v-4.095l0.078-0.208
		l0.208-0.078h0.221l0.208,0.078l0.078,0.208v4.03c0,0.798,0.193,1.411,0.579,1.84c0.386,0.429,0.977,0.643,1.774,0.643
		c0.797,0,1.384-0.193,1.762-0.578c0.377-0.386,0.574-0.977,0.591-1.775v-0.442v-1.027c-0.017-0.78-0.191-1.356-0.52-1.729
		c-0.329-0.373-0.776-0.559-1.339-0.559c-0.165,0-0.353,0.03-0.565,0.091c-0.213,0.061-0.392,0.143-0.539,0.247l-0.13,0.039
		l-0.15-0.058l-0.071-0.15v-0.169v-0.065l0.026-0.182l0.104-0.117c0.199-0.13,0.405-0.228,0.617-0.293
		c0.212-0.065,0.47-0.097,0.773-0.097c0.806,0,1.432,0.243,1.878,0.728c0.446,0.485,0.682,1.235,0.709,2.249
		c0.008,0.087,0.013,0.351,0.013,0.793c0,0.451-0.005,0.719-0.013,0.806c-0.026,1.04-0.28,1.807-0.761,2.301
		C251.956,80.638,251.161,80.885,250.051,80.885 M267.978,80.755h-0.221l-0.208-0.078l-0.078-0.208v-3.9
		c0-1.655-0.828-2.483-2.483-2.483h-2.236l-0.208-0.078l-0.078-0.208v-0.182l0.078-0.208l0.208-0.078h2.301
		c1.083,0,1.889,0.271,2.418,0.813c0.529,0.542,0.793,1.328,0.793,2.36v3.965l-0.078,0.208L267.978,80.755 M262.973,80.755h-0.221
		l-0.208-0.078l-0.078-0.208v-4.563l0.078-0.208l0.208-0.078h0.221l0.208,0.078l0.078,0.208v4.563l-0.078,0.208L262.973,80.755
		 M260.386,80.755h-0.247l-0.176-0.045l-0.15-0.15l-3.211-4.472c-0.425,0.304-0.713,0.655-0.865,1.053
		c-0.152,0.399-0.227,0.841-0.227,1.326v2.002l-0.078,0.208l-0.208,0.078h-0.221l-0.208-0.078l-0.078-0.208v-2.067
		c0-0.615,0.098-1.164,0.293-1.645c0.195-0.481,0.579-0.908,1.151-1.28l-1.157-1.625c-0.069-0.104-0.104-0.191-0.104-0.26
		l0.078-0.182l0.182-0.078h0.247c0.121,0,0.23,0.065,0.325,0.195l2.938,4.095c0.364-0.199,0.628-0.405,0.793-0.617
		c0.165-0.212,0.267-0.427,0.306-0.644c0.039-0.217,0.058-0.507,0.058-0.871v-1.872l0.078-0.208l0.208-0.078h0.221l0.208,0.078
		l0.078,0.208v1.937c0,0.399-0.035,0.743-0.104,1.033c-0.069,0.29-0.214,0.572-0.436,0.845c-0.221,0.273-0.548,0.535-0.981,0.786
		l1.443,2.015c0.069,0.104,0.104,0.191,0.104,0.26l-0.078,0.182L260.386,80.755 M244.578,80.755h-0.221l-0.208-0.078l-0.078-0.208
		v-3.9c0-1.655-0.828-2.483-2.483-2.483h-1.586l-0.208-0.078l-0.078-0.208v-0.182l0.078-0.208l0.208-0.078h1.651
		c1.083,0,1.889,0.271,2.418,0.813c0.529,0.542,0.793,1.328,0.793,2.36v3.965l-0.078,0.208L244.578,80.755 M234.79,80.755h-0.221
		l-0.208-0.078l-0.078-0.208v-6.851l0.078-0.208l0.208-0.078h0.221l0.208,0.078l0.078,0.208v6.851l-0.078,0.208L234.79,80.755
		 M231.891,80.755h-0.221l-0.208-0.078l-0.078-0.208v-3.9c0-1.655-0.828-2.483-2.483-2.483h-0.988
		c-0.087,0.624-0.15,1.127-0.188,1.508c-0.039,0.382-0.054,0.815-0.045,1.3v3.575l-0.078,0.208l-0.208,0.078l-1.482-0.026
		l-0.208-0.078l-0.078-0.208v-0.182l0.078-0.208l0.208-0.078l0.975,0.013v-3.029v-0.403c0-0.477,0.017-0.895,0.052-1.254
		c0.035-0.36,0.1-0.765,0.195-1.216h-0.663l-0.208-0.078l-0.078-0.208v-0.182l0.078-0.208l0.208-0.078h2.496
		c1.083,0,1.889,0.271,2.418,0.813c0.529,0.542,0.793,1.328,0.793,2.36v3.965l-0.078,0.208L231.891,80.755 M237.662,77.765h-0.221
		l-0.208-0.078l-0.078-0.208v-3.861l0.078-0.208l0.208-0.078h0.221l0.208,0.078l0.078,0.208v3.861l-0.078,0.208L237.662,77.765"/>
	<path fill="#000000" d="M281.996,103.454c-1.161,0-2.026-0.321-2.594-0.962c-0.568-0.641-0.878-1.482-0.93-2.522
		c-0.009-0.234-0.013-0.632-0.013-1.196c0-0.572,0.004-0.979,0.013-1.222c0.043-1.023,0.355-1.855,0.936-2.496
		c0.58-0.641,1.443-0.962,2.587-0.962s2.006,0.321,2.587,0.962c0.581,0.641,0.893,1.473,0.936,2.496
		c0.017,0.485,0.026,0.893,0.026,1.222c0,0.33-0.009,0.728-0.026,1.196c-0.052,1.04-0.362,1.881-0.929,2.522
		C284.022,103.134,283.157,103.454,281.996,103.454 M281.996,95.589c-0.537,0.009-0.941,0.191-1.209,0.546
		c-0.269,0.356-0.412,0.85-0.429,1.482c-0.009,0.234-0.013,0.611-0.013,1.131c0,0.52,0.004,0.906,0.013,1.157
		c0.017,0.65,0.16,1.151,0.429,1.502c0.268,0.351,0.672,0.527,1.209,0.527c0.537,0,0.94-0.176,1.209-0.527
		c0.268-0.351,0.411-0.851,0.429-1.502c0.009-0.251,0.013-0.637,0.013-1.157c0-0.52-0.004-0.897-0.013-1.131
		c-0.018-0.632-0.161-1.126-0.429-1.482C282.936,95.78,282.533,95.598,281.996,95.589 M276.497,103.324h-1.209l-0.221-0.091
		l-0.091-0.221v-6.708l-1.963,1.508l-0.195,0.065c-0.104,0-0.186-0.043-0.247-0.13l-0.559-0.728l-0.065-0.182
		c0-0.104,0.048-0.19,0.143-0.26l2.912-2.262c0.095-0.061,0.204-0.091,0.325-0.091h1.17l0.221,0.091l0.091,0.221v8.476l-0.091,0.221
		L276.497,103.324"/>
	<path fill="#000000" d="M229.394,104.065L229.219,104l-0.071-0.156v-0.169c0-0.2,0.06-0.321,0.182-0.364l1.781-0.65l-1.729-6.24
		c-0.043-0.147-0.065-0.234-0.065-0.26l0.078-0.182l0.182-0.078h0.234l0.195,0.058l0.104,0.137l1.781,6.279l0.13-0.052
		c0.711-0.26,1.209-0.633,1.495-1.118c0.286-0.485,0.429-1.075,0.429-1.768v-3.25l0.078-0.208l0.208-0.078h0.221l0.208,0.078
		l0.078,0.208v3.51c0,0.728-0.234,1.404-0.702,2.028c-0.468,0.624-1.088,1.075-1.859,1.352l-2.665,0.962L229.394,104.065
		 M137.265,104.065L137.089,104l-0.071-0.156v-0.169c0-0.2,0.06-0.321,0.182-0.364l1.781-0.65l-1.729-6.24
		c-0.043-0.147-0.065-0.234-0.065-0.26l0.078-0.182l0.182-0.078h0.234l0.195,0.058l0.104,0.137l1.781,6.279l0.13-0.052
		c0.711-0.26,1.209-0.633,1.495-1.118c0.286-0.485,0.429-1.075,0.429-1.768v-3.25l0.078-0.208l0.208-0.078h0.221l0.208,0.078
		l0.078,0.208v3.51c0,0.728-0.234,1.404-0.702,2.028c-0.468,0.624-1.088,1.075-1.859,1.352l-2.665,0.962L137.265,104.065
		 M56.977,104.065L56.802,104l-0.072-0.156v-0.169c0-0.2,0.061-0.321,0.182-0.364l1.781-0.65l-1.729-6.24
		c-0.043-0.147-0.065-0.234-0.065-0.26l0.078-0.182l0.182-0.078h0.234l0.195,0.058l0.104,0.137l1.781,6.279l0.13-0.052
		c0.71-0.26,1.209-0.633,1.495-1.118c0.286-0.485,0.429-1.075,0.429-1.768v-3.25l0.078-0.208l0.208-0.078h0.221l0.208,0.078
		l0.078,0.208v3.51c0,0.728-0.234,1.404-0.702,2.028c-0.468,0.624-1.088,1.075-1.859,1.352l-2.665,0.962L56.977,104.065
		 M199.495,103.454c-1.101,0-1.9-0.268-2.398-0.806c-0.499-0.537-0.748-1.326-0.748-2.366v-4.095l0.078-0.208l0.208-0.078h0.221
		l0.208,0.078l0.078,0.208v4.03c0,0.797,0.193,1.41,0.578,1.839c0.386,0.429,0.977,0.644,1.775,0.644
		c0.797,0,1.384-0.193,1.761-0.579c0.377-0.386,0.574-0.977,0.592-1.774v-0.442v-1.027c-0.018-0.78-0.191-1.356-0.52-1.729
		c-0.329-0.373-0.776-0.559-1.339-0.559c-0.165,0-0.353,0.031-0.566,0.091c-0.212,0.061-0.392,0.143-0.539,0.247l-0.13,0.039
		l-0.149-0.058l-0.072-0.15V96.59v-0.065l0.026-0.182l0.104-0.117c0.199-0.13,0.405-0.228,0.617-0.293
		c0.212-0.065,0.47-0.098,0.774-0.098c0.806,0,1.432,0.243,1.878,0.728c0.446,0.486,0.682,1.235,0.708,2.249
		c0.009,0.087,0.013,0.351,0.013,0.793c0,0.451-0.004,0.72-0.013,0.806c-0.026,1.04-0.279,1.807-0.76,2.301
		S200.604,103.454,199.495,103.454 M265.053,103.441c-0.139,0-0.208-0.069-0.208-0.208v-0.325c0-0.147,0.091-0.256,0.273-0.325
		l0.533-0.208c0.667-0.26,1.176-0.619,1.527-1.079c0.351-0.459,0.527-1.144,0.527-2.054c0-0.65-0.078-1.161-0.234-1.534
		c-0.156-0.372-0.414-0.641-0.773-0.806c-0.36-0.165-0.852-0.247-1.475-0.247h-0.442h-0.039l-1.014-0.013l-0.208-0.071l-0.078-0.201
		V94.38l0.078-0.208l0.208-0.078h0.221l0.208,0.078l0.078,0.208v1.521h1.053c0.806,0,1.441,0.11,1.904,0.331
		c0.464,0.221,0.797,0.579,1.001,1.073c0.204,0.494,0.306,1.17,0.306,2.028c0,1.118-0.253,1.972-0.76,2.561
		c-0.507,0.59-1.185,1.036-2.035,1.339l-0.546,0.195L265.053,103.441 M224.299,103.441c-0.139,0-0.208-0.069-0.208-0.208v-0.325
		c0-0.147,0.091-0.256,0.273-0.325l0.533-0.208c0.667-0.26,1.176-0.619,1.527-1.079c0.351-0.459,0.527-1.144,0.527-2.054
		c0-0.65-0.078-1.161-0.234-1.534c-0.156-0.372-0.414-0.641-0.774-0.806c-0.36-0.165-0.851-0.247-1.475-0.247h-0.442h-0.039
		l-1.014-0.013l-0.208-0.071l-0.078-0.201V94.38l0.078-0.208l0.208-0.078h0.221l0.208,0.078l0.078,0.208v1.521h1.053
		c0.806,0,1.441,0.11,1.904,0.331c0.464,0.221,0.797,0.579,1.001,1.073c0.204,0.494,0.306,1.17,0.306,2.028
		c0,1.118-0.253,1.972-0.76,2.561c-0.507,0.59-1.185,1.036-2.034,1.339l-0.546,0.195L224.299,103.441 M51.881,103.441
		c-0.139,0-0.208-0.069-0.208-0.208v-0.325c0-0.147,0.091-0.256,0.273-0.325l0.533-0.208c0.667-0.26,1.176-0.619,1.528-1.079
		c0.351-0.459,0.527-1.144,0.527-2.054c0-0.65-0.078-1.161-0.234-1.534c-0.156-0.372-0.414-0.641-0.773-0.806
		c-0.36-0.165-0.852-0.247-1.475-0.247h-0.442h-0.039l-1.014-0.013l-0.208-0.071l-0.078-0.201V94.38l0.078-0.208l0.208-0.078h0.221
		l0.208,0.078l0.078,0.208v1.521h1.053c0.806,0,1.441,0.11,1.904,0.331c0.464,0.221,0.797,0.579,1.001,1.073
		c0.203,0.494,0.306,1.17,0.306,2.028c0,1.118-0.253,1.972-0.76,2.561c-0.507,0.59-1.185,1.036-2.035,1.339l-0.546,0.195
		L51.881,103.441 M88.856,103.391c-0.039,0-0.079,0-0.119-0.001h-0.871c-0.511,0-0.981-0.128-1.41-0.384s-0.769-0.622-1.021-1.099
		c-0.251-0.477-0.377-1.031-0.377-1.664v-4.056l0.078-0.208l0.208-0.078h0.221l0.208,0.078l0.078,0.208l0.052,3.887
		c0.884-0.061,1.504-0.28,1.859-0.657c0.355-0.377,0.533-0.865,0.533-1.462v-1.768l0.078-0.208l0.208-0.078h0.221l0.208,0.078
		l0.078,0.208v1.833c0,0.771-0.264,1.419-0.793,1.944c-0.529,0.525-1.309,0.813-2.34,0.864c0.095,0.572,0.346,1.014,0.754,1.326
		c0.407,0.312,0.914,0.468,1.521,0.468h0.455c0.029,0.001,0.057,0.001,0.085,0.001c0.834,0,1.477-0.25,1.93-0.748
		c0.468-0.516,0.702-1.211,0.702-2.087v-3.601l0.078-0.208l0.208-0.078h0.221l0.208,0.078l0.078,0.208v3.692
		c0,0.72-0.143,1.348-0.429,1.885c-0.286,0.537-0.689,0.947-1.209,1.228C90.066,103.258,89.499,103.391,88.856,103.391
		 M27.262,103.391c-0.039,0-0.079,0-0.119-0.001h-0.871c-0.511,0-0.981-0.128-1.41-0.384c-0.429-0.256-0.769-0.622-1.021-1.099
		c-0.251-0.477-0.377-1.031-0.377-1.664v-4.056l0.078-0.208l0.208-0.078h0.221l0.208,0.078l0.078,0.208l0.052,3.887
		c0.884-0.061,1.504-0.28,1.859-0.657c0.355-0.377,0.533-0.865,0.533-1.462v-1.768l0.078-0.208l0.208-0.078h0.221l0.208,0.078
		l0.078,0.208v1.833c0,0.771-0.264,1.419-0.793,1.944c-0.529,0.525-1.309,0.813-2.34,0.864c0.095,0.572,0.346,1.014,0.754,1.326
		c0.407,0.312,0.914,0.468,1.521,0.468h0.455c0.029,0.001,0.057,0.001,0.085,0.001c0.834,0,1.477-0.25,1.93-0.748
		c0.468-0.516,0.702-1.211,0.702-2.087v-3.601l0.078-0.208l0.208-0.078h0.221l0.208,0.078l0.078,0.208v3.692
		c0,0.72-0.143,1.348-0.429,1.885c-0.286,0.537-0.689,0.947-1.209,1.228C28.473,103.258,27.906,103.391,27.262,103.391
		 M261.504,103.324h-0.221l-0.208-0.078l-0.078-0.208v-3.9c0-1.655-0.828-2.483-2.483-2.483h-2.236l-0.208-0.078l-0.078-0.208
		v-0.182l0.078-0.208l0.208-0.078h2.301c1.083,0,1.889,0.271,2.418,0.813c0.529,0.542,0.793,1.328,0.793,2.36v3.965l-0.078,0.208
		L261.504,103.324 M256.499,103.324h-0.221l-0.208-0.078l-0.078-0.208v-4.563l0.078-0.208l0.208-0.078h0.221l0.208,0.078
		l0.078,0.208v4.563l-0.078,0.208L256.499,103.324 M253.925,103.324h-3.224l-0.208-0.078l-0.078-0.208v-0.182l0.078-0.208
		l0.208-0.078h2.691l-0.247-3.562l-0.013-0.273c-0.035-0.52-0.078-0.914-0.13-1.183c-0.052-0.268-0.165-0.485-0.338-0.65
		c-0.173-0.165-0.438-0.247-0.793-0.247h-0.481l-0.208-0.078l-0.078-0.208v-0.182l0.078-0.208l0.208-0.078h0.481
		c0.581,0,1.012,0.126,1.294,0.377c0.282,0.251,0.468,0.577,0.559,0.975c0.091,0.399,0.163,0.962,0.215,1.69l0.273,4.095v0.039
		l-0.084,0.176L253.925,103.324 M245.722,103.324h-0.221l-0.208-0.078l-0.078-0.208v-3.9c0-1.655-0.828-2.483-2.483-2.483h-1.742
		v6.383l-0.078,0.208l-0.208,0.078h-0.221l-0.208-0.078l-0.078-0.208v-6.851l0.078-0.208l0.208-0.078h2.314
		c1.083,0,1.889,0.271,2.418,0.813c0.529,0.542,0.793,1.328,0.793,2.36v3.965l-0.078,0.208L245.722,103.324 M217.422,103.324h-0.221
		l-0.208-0.078l-0.078-0.208v-3.9c0-1.655-0.828-2.483-2.483-2.483h-2.236l-0.208-0.078l-0.078-0.208v-0.182l0.078-0.208
		l0.208-0.078h2.301c1.083,0,1.889,0.271,2.418,0.813c0.529,0.542,0.793,1.328,0.793,2.36v3.965l-0.078,0.208L217.422,103.324
		 M212.417,103.324h-0.221l-0.208-0.078l-0.078-0.208v-4.563l0.078-0.208l0.208-0.078h0.221l0.208,0.078l0.078,0.208v4.563
		l-0.078,0.208L212.417,103.324 M209.83,103.324h-0.247l-0.176-0.046l-0.149-0.149l-3.211-4.472
		c-0.425,0.303-0.713,0.654-0.864,1.053c-0.152,0.399-0.228,0.841-0.228,1.326v2.002l-0.078,0.208l-0.208,0.078h-0.221l-0.208-0.078
		l-0.078-0.208v-2.067c0-0.615,0.098-1.163,0.292-1.644c0.195-0.481,0.579-0.908,1.151-1.281l-1.157-1.625
		c-0.069-0.104-0.104-0.19-0.104-0.26l0.078-0.182l0.182-0.078h0.247c0.121,0,0.229,0.065,0.325,0.195l2.938,4.095
		c0.364-0.199,0.628-0.405,0.793-0.617c0.165-0.212,0.266-0.427,0.306-0.643c0.039-0.217,0.058-0.507,0.058-0.871v-1.872
		l0.078-0.208l0.208-0.078h0.221l0.208,0.078l0.078,0.208v1.937c0,0.399-0.035,0.743-0.104,1.033
		c-0.07,0.291-0.215,0.572-0.436,0.845c-0.221,0.273-0.548,0.535-0.982,0.787l1.443,2.015c0.069,0.104,0.104,0.191,0.104,0.26
		l-0.078,0.182L209.83,103.324 M194.022,103.324h-0.221l-0.208-0.078l-0.078-0.208v-3.9c0-1.655-0.828-2.483-2.483-2.483h-1.586
		l-0.208-0.078l-0.078-0.208v-0.182l0.078-0.208l0.208-0.078h1.651c1.083,0,1.889,0.271,2.418,0.813
		c0.529,0.542,0.793,1.328,0.793,2.36v3.965l-0.078,0.208L194.022,103.324 M184.233,103.324h-0.221l-0.208-0.078l-0.078-0.208
		v-6.851l0.078-0.208l0.208-0.078h0.221l0.208,0.078l0.078,0.208v6.851l-0.078,0.208L184.233,103.324 M181.334,103.324h-0.221
		l-0.208-0.078l-0.078-0.208v-3.9c0-1.655-0.828-2.483-2.483-2.483h-0.988c-0.087,0.624-0.149,1.127-0.188,1.508
		c-0.039,0.382-0.054,0.815-0.045,1.3v3.575l-0.078,0.208l-0.208,0.078l-1.482-0.026l-0.208-0.078l-0.078-0.208v-0.182l0.078-0.208
		l0.208-0.078l0.975,0.013v-3.029v-0.403c0-0.476,0.017-0.895,0.052-1.254c0.035-0.359,0.1-0.765,0.195-1.215h-0.663l-0.208-0.078
		l-0.078-0.208v-0.182l0.078-0.208l0.208-0.078h2.496c1.083,0,1.889,0.271,2.418,0.813c0.529,0.542,0.793,1.328,0.793,2.36v3.965
		l-0.078,0.208L181.334,103.324 M169.985,103.324h-0.247l-0.175-0.046l-0.149-0.149l-3.211-4.472
		c-0.425,0.303-0.713,0.654-0.864,1.053c-0.152,0.399-0.228,0.841-0.228,1.326v2.002l-0.078,0.208l-0.208,0.078h-0.221l-0.208-0.078
		l-0.078-0.208v-2.067c0-0.615,0.098-1.163,0.292-1.644c0.195-0.481,0.579-0.908,1.151-1.281l-1.157-1.625
		c-0.07-0.104-0.104-0.19-0.104-0.26l0.078-0.182l0.182-0.078h0.247c0.121,0,0.23,0.065,0.325,0.195l2.938,4.095
		c0.364-0.199,0.628-0.405,0.793-0.617c0.164-0.212,0.266-0.427,0.305-0.643c0.039-0.217,0.059-0.507,0.059-0.871v-1.872
		l0.078-0.208l0.208-0.078h0.221l0.208,0.078l0.078,0.208v1.937c0,0.399-0.035,0.743-0.104,1.033
		c-0.069,0.291-0.214,0.572-0.435,0.845c-0.221,0.273-0.548,0.535-0.982,0.787l1.443,2.015c0.069,0.104,0.104,0.191,0.104,0.26
		l-0.078,0.182L169.985,103.324 M162.289,103.324h-0.221l-0.208-0.078l-0.078-0.208v-3.9c0-1.655-0.828-2.483-2.483-2.483h-0.988
		c-0.087,0.624-0.15,1.127-0.188,1.508c-0.039,0.382-0.054,0.815-0.045,1.3v3.575l-0.078,0.208l-0.208,0.078l-1.482-0.026
		l-0.208-0.078l-0.078-0.208v-0.182l0.078-0.208l0.208-0.078l0.975,0.013v-3.029v-0.403c0-0.476,0.017-0.895,0.052-1.254
		c0.035-0.359,0.1-0.765,0.195-1.215h-0.663l-0.208-0.078l-0.078-0.208v-0.182l0.078-0.208l0.208-0.078h2.496
		c1.083,0,1.889,0.271,2.418,0.813c0.529,0.542,0.793,1.328,0.793,2.36v3.965l-0.078,0.208L162.289,103.324 M150.629,103.324h-0.221
		l-0.208-0.078l-0.078-0.208v-3.9c0-1.655-0.828-2.483-2.483-2.483h-0.988c-0.087,0.624-0.15,1.127-0.188,1.508
		c-0.039,0.382-0.054,0.815-0.046,1.3v3.575l-0.078,0.208l-0.208,0.078l-1.482-0.026l-0.208-0.078l-0.078-0.208v-0.182l0.078-0.208
		l0.208-0.078l0.975,0.013v-3.029v-0.403c0-0.476,0.017-0.895,0.052-1.254c0.035-0.359,0.1-0.765,0.195-1.215h-0.663l-0.208-0.078
		l-0.078-0.208v-0.182l0.078-0.208l0.208-0.078h2.496c1.083,0,1.889,0.271,2.418,0.813c0.529,0.542,0.793,1.328,0.793,2.36v3.965
		l-0.078,0.208L150.629,103.324 M135.094,103.324h-0.221l-0.208-0.078l-0.078-0.208v-3.9c0-1.655-0.828-2.483-2.483-2.483h-1.586
		l-0.208-0.078l-0.078-0.208v-0.182l0.078-0.208l0.208-0.078h1.651c1.083,0,1.889,0.271,2.418,0.813
		c0.529,0.542,0.793,1.328,0.793,2.36v3.965l-0.078,0.208L135.094,103.324 M128.074,103.324h-0.221l-0.208-0.078l-0.078-0.208
		v-6.851l0.078-0.208l0.208-0.078h0.221l0.208,0.078l0.078,0.208v6.851l-0.078,0.208L128.074,103.324 M125.799,103.324h-5.2
		l-0.208-0.078l-0.078-0.208v-0.182l0.078-0.208l0.208-0.078h3.913v-3.432c0-1.655-0.828-2.483-2.483-2.483h-1.3l-0.208-0.078
		l-0.078-0.208v-0.182l0.078-0.208l0.208-0.078h1.365c1.083,0,1.889,0.273,2.418,0.819c0.529,0.546,0.793,1.33,0.793,2.353v3.497
		h0.494l0.208,0.078l0.078,0.208v0.182l-0.078,0.208L125.799,103.324 M118.259,103.324h-0.221l-0.208-0.078l-0.078-0.208v-3.9
		c0-1.655-0.828-2.483-2.483-2.483h-0.988c-0.087,0.624-0.15,1.127-0.188,1.508c-0.039,0.382-0.054,0.815-0.045,1.3v3.575
		l-0.078,0.208l-0.208,0.078l-1.482-0.026l-0.208-0.078l-0.078-0.208v-0.182l0.078-0.208l0.208-0.078l0.975,0.013v-3.029v-0.403
		c0-0.476,0.017-0.895,0.052-1.254c0.035-0.359,0.1-0.765,0.195-1.215h-0.663l-0.208-0.078l-0.078-0.208v-0.182l0.078-0.208
		l0.208-0.078h2.496c1.083,0,1.889,0.271,2.418,0.813c0.529,0.542,0.793,1.328,0.793,2.36v3.965l-0.078,0.208L118.259,103.324
		 M106.598,103.324h-0.221l-0.208-0.078l-0.078-0.208v-3.9c0-1.655-0.828-2.483-2.483-2.483h-2.236l-0.208-0.078l-0.078-0.208
		v-0.182l0.078-0.208l0.208-0.078h2.301c1.083,0,1.889,0.271,2.418,0.813c0.529,0.542,0.793,1.328,0.793,2.36v3.965l-0.078,0.208
		L106.598,103.324 M101.593,103.324h-0.221l-0.208-0.078l-0.078-0.208v-4.563l0.078-0.208l0.208-0.078h0.221l0.208,0.078
		l0.078,0.208v4.563l-0.078,0.208L101.593,103.324 M99.318,103.324h-5.2l-0.208-0.078l-0.078-0.208v-0.182l0.078-0.208l0.208-0.078
		h3.913v-3.432c0-1.655-0.828-2.483-2.483-2.483h-1.3l-0.208-0.078l-0.078-0.208v-0.182l0.078-0.208l0.208-0.078h1.365
		c1.083,0,1.889,0.273,2.418,0.819c0.529,0.546,0.793,1.33,0.793,2.353v3.497h0.494l0.208,0.078l0.078,0.208v0.182l-0.078,0.208
		L99.318,103.324 M82.795,103.324h-0.221l-0.208-0.078l-0.078-0.208v-3.9c0-1.655-0.828-2.483-2.483-2.483h-1.586l-0.208-0.078
		l-0.078-0.208v-0.182l0.078-0.208l0.208-0.078h1.651c1.083,0,1.889,0.271,2.418,0.813c0.529,0.542,0.793,1.328,0.793,2.36v3.965
		l-0.078,0.208L82.795,103.324 M72.746,103.324h-0.221l-0.208-0.078l-0.078-0.208v-6.851l0.078-0.208l0.208-0.078h0.221l0.208,0.078
		l0.078,0.208v6.851l-0.078,0.208L72.746,103.324 M69.847,103.324h-3.289l-0.208-0.078l-0.078-0.208v-0.182l0.078-0.208l0.208-0.078
		h2.782v-3.432c0-0.477-0.085-0.906-0.253-1.287c-0.169-0.381-0.403-0.676-0.702-0.884c-0.299-0.208-0.635-0.312-1.008-0.312h-1.508
		l-0.962,6.37l-0.11,0.215l-0.214,0.085h-0.234l-0.182-0.085l-0.052-0.215l0.949-6.37h-0.585l-0.208-0.078l-0.078-0.208v-0.182
		l0.078-0.208l0.208-0.078h2.964c0.52,0,0.984,0.13,1.391,0.39c0.407,0.26,0.726,0.63,0.956,1.111
		c0.23,0.481,0.344,1.038,0.344,1.67v3.965l-0.078,0.208L69.847,103.324 M45.005,103.324h-0.221l-0.208-0.078l-0.078-0.208v-3.9
		c0-1.655-0.828-2.483-2.483-2.483h-2.236l-0.208-0.078l-0.078-0.208v-0.182l0.078-0.208l0.208-0.078h2.301
		c1.083,0,1.889,0.271,2.418,0.813c0.529,0.542,0.793,1.328,0.793,2.36v3.965l-0.078,0.208L45.005,103.324 M40,103.324h-0.221
		l-0.208-0.078l-0.078-0.208v-4.563l0.078-0.208l0.208-0.078H40l0.208,0.078l0.078,0.208v4.563l-0.078,0.208L40,103.324
		 M37.725,103.324h-5.2l-0.208-0.078l-0.078-0.208v-0.182l0.078-0.208l0.208-0.078h3.913v-3.432c0-1.655-0.828-2.483-2.483-2.483
		h-1.3l-0.208-0.078l-0.078-0.208v-0.182l0.078-0.208l0.208-0.078h1.365c1.083,0,1.889,0.273,2.418,0.819
		c0.529,0.546,0.793,1.33,0.793,2.353v3.497h0.494l0.208,0.078l0.078,0.208v0.182l-0.078,0.208L37.725,103.324 M21.202,103.324
		h-0.221l-0.208-0.078l-0.078-0.208v-3.9c0-1.655-0.828-2.483-2.483-2.483h-1.586l-0.208-0.078l-0.078-0.208v-0.182l0.078-0.208
		l0.208-0.078h1.651c1.083,0,1.889,0.271,2.418,0.813c0.529,0.542,0.793,1.328,0.793,2.36v3.965l-0.078,0.208L21.202,103.324
		 M248.517,100.334h-0.221l-0.208-0.078l-0.078-0.208v-3.861l0.078-0.208l0.208-0.078h0.221l0.208,0.078l0.078,0.208v3.861
		l-0.078,0.208L248.517,100.334 M187.106,100.334h-0.221l-0.208-0.078l-0.078-0.208v-3.861l0.078-0.208l0.208-0.078h0.221
		l0.208,0.078l0.078,0.208v3.861l-0.078,0.208L187.106,100.334"/>
	<path fill="#000000" d="M213.249,120.354c-1.101,0-1.9-0.269-2.398-0.806c-0.498-0.537-0.747-1.326-0.747-2.366v-4.095l0.078-0.208
		l0.208-0.078h0.221l0.208,0.078l0.078,0.208v4.03c0,0.798,0.193,1.41,0.579,1.839c0.386,0.429,0.977,0.644,1.774,0.644
		c0.797,0,1.385-0.193,1.762-0.579c0.377-0.386,0.574-0.977,0.592-1.774v-0.442v-1.027c-0.018-0.78-0.191-1.356-0.52-1.729
		c-0.329-0.373-0.776-0.559-1.339-0.559c-0.165,0-0.353,0.031-0.565,0.091c-0.213,0.061-0.392,0.143-0.539,0.247l-0.13,0.039
		l-0.15-0.058l-0.071-0.15v-0.169v-0.065l0.026-0.182l0.104-0.117c0.199-0.13,0.405-0.228,0.617-0.293
		c0.212-0.065,0.47-0.098,0.773-0.098c0.806,0,1.432,0.243,1.879,0.728c0.446,0.486,0.682,1.235,0.709,2.249
		c0.008,0.087,0.013,0.351,0.013,0.793c0,0.451-0.005,0.72-0.013,0.806c-0.026,1.04-0.28,1.807-0.76,2.301
		C215.153,120.107,214.358,120.354,213.249,120.354 M177.525,120.341c-0.139,0-0.208-0.069-0.208-0.208v-0.325
		c0-0.147,0.091-0.256,0.273-0.325l0.533-0.208c0.667-0.26,1.176-0.619,1.527-1.079c0.351-0.459,0.527-1.144,0.527-2.054
		c0-0.65-0.078-1.161-0.234-1.534c-0.156-0.373-0.414-0.641-0.773-0.806c-0.36-0.165-0.851-0.247-1.475-0.247h-0.442h-0.039
		l-1.014-0.013l-0.208-0.072l-0.078-0.201v-1.989l0.078-0.208l0.208-0.078h0.221l0.208,0.078l0.078,0.208v1.521h1.053
		c0.806,0,1.441,0.11,1.904,0.331c0.464,0.221,0.797,0.579,1.001,1.073c0.204,0.494,0.306,1.17,0.306,2.028
		c0,1.118-0.253,1.972-0.76,2.561c-0.507,0.589-1.185,1.036-2.035,1.339l-0.546,0.195L177.525,120.341 M165.243,120.291
		c-0.039,0-0.079,0-0.119-0.001h-0.871c-0.511,0-0.981-0.128-1.41-0.384c-0.429-0.256-0.769-0.622-1.021-1.099
		c-0.251-0.477-0.377-1.031-0.377-1.664v-4.056l0.078-0.208l0.208-0.078h0.221l0.208,0.078l0.078,0.208l0.052,3.887
		c0.884-0.061,1.504-0.28,1.859-0.657c0.355-0.377,0.533-0.864,0.533-1.462v-1.768l0.078-0.208l0.208-0.078h0.221l0.208,0.078
		l0.078,0.208v1.833c0,0.771-0.265,1.419-0.793,1.944c-0.529,0.525-1.309,0.813-2.34,0.865c0.095,0.572,0.347,1.014,0.754,1.326
		c0.407,0.312,0.914,0.468,1.521,0.468h0.455c0.029,0.001,0.057,0.001,0.085,0.001c0.834,0,1.477-0.25,1.93-0.748
		c0.468-0.516,0.702-1.211,0.702-2.087v-3.601l0.078-0.208l0.208-0.078h0.221l0.208,0.078l0.078,0.208v3.692
		c0,0.72-0.143,1.348-0.429,1.885c-0.286,0.537-0.689,0.947-1.209,1.229C166.454,120.158,165.887,120.291,165.243,120.291
		 M267.978,120.224h-3.289l-0.208-0.078l-0.078-0.208v-0.182l0.078-0.208l0.208-0.078h2.782v-3.432c0-0.477-0.084-0.906-0.253-1.287
		c-0.169-0.381-0.403-0.676-0.702-0.884c-0.299-0.208-0.635-0.312-1.007-0.312H264l-0.962,6.37l-0.11,0.215l-0.215,0.085h-0.234
		l-0.182-0.085l-0.052-0.215l0.949-6.37h-0.585l-0.208-0.078l-0.078-0.208v-0.182l0.078-0.208l0.208-0.078h2.964
		c0.52,0,0.983,0.13,1.391,0.39c0.407,0.26,0.726,0.63,0.956,1.111c0.23,0.481,0.344,1.038,0.344,1.67v3.965l-0.078,0.208
		L267.978,120.224 M260.165,120.224h-0.221l-0.208-0.078l-0.078-0.208v-3.9c0-1.655-0.828-2.483-2.483-2.483h-1.742v6.383
		l-0.078,0.208l-0.208,0.078h-0.221l-0.208-0.078l-0.078-0.208v-6.851l0.078-0.208l0.208-0.078h2.314
		c1.083,0,1.889,0.271,2.418,0.813c0.529,0.542,0.793,1.328,0.793,2.36v3.965l-0.078,0.208L260.165,120.224 M252.391,120.224h-4.485
		l-0.208-0.078l-0.078-0.208v-0.182l0.078-0.208l0.208-0.078h3.705l-4.173-6.149c-0.069-0.104-0.104-0.19-0.104-0.26l0.084-0.182
		l0.188-0.078h0.234c0.13,0,0.238,0.069,0.325,0.208l2.496,3.627c0.849-0.321,1.274-1.083,1.274-2.288v-1.261l0.078-0.208
		l0.208-0.078h0.221l0.208,0.078l0.078,0.208v1.326c0,0.702-0.141,1.289-0.423,1.761c-0.282,0.472-0.695,0.821-1.242,1.046
		l1.469,2.145c0.095,0.139,0.143,0.269,0.143,0.39v0.182l-0.078,0.208L252.391,120.224 M242.836,120.224h-0.221l-0.208-0.078
		l-0.078-0.208v-3.9c0-1.655-0.828-2.483-2.483-2.483h-0.988c-0.087,0.624-0.149,1.127-0.188,1.508
		c-0.039,0.382-0.054,0.815-0.045,1.3v3.575l-0.078,0.208l-0.208,0.078l-1.482-0.026l-0.208-0.078l-0.078-0.208v-0.182l0.078-0.208
		l0.208-0.078l0.975,0.013v-3.029v-0.403c0-0.477,0.017-0.895,0.052-1.255c0.035-0.359,0.1-0.765,0.195-1.215h-0.663l-0.208-0.078
		l-0.078-0.208v-0.182l0.078-0.208l0.208-0.078h2.496c1.083,0,1.889,0.271,2.418,0.813c0.529,0.542,0.793,1.328,0.793,2.36v3.965
		l-0.078,0.208L242.836,120.224 M231.176,120.224h-0.221l-0.208-0.078l-0.078-0.208v-3.9c0-1.655-0.828-2.483-2.483-2.483h-2.236
		l-0.208-0.078l-0.078-0.208v-0.182l0.078-0.208l0.208-0.078h2.301c1.083,0,1.889,0.271,2.418,0.813
		c0.529,0.542,0.793,1.328,0.793,2.36v3.965l-0.078,0.208L231.176,120.224 M226.171,120.224h-0.221l-0.208-0.078l-0.078-0.208
		v-4.563l0.078-0.208l0.208-0.078h0.221l0.208,0.078l0.078,0.208v4.563l-0.078,0.208L226.171,120.224 M223.584,120.224h-0.247
		l-0.176-0.045l-0.15-0.15l-3.211-4.472c-0.425,0.304-0.713,0.655-0.865,1.053c-0.152,0.399-0.227,0.841-0.227,1.326v2.002
		l-0.078,0.208l-0.208,0.078h-0.221l-0.208-0.078l-0.078-0.208v-2.067c0-0.615,0.098-1.164,0.293-1.645
		c0.195-0.481,0.579-0.908,1.151-1.281l-1.157-1.625c-0.069-0.104-0.104-0.19-0.104-0.26l0.078-0.182l0.182-0.078h0.247
		c0.121,0,0.23,0.065,0.325,0.195l2.938,4.095c0.364-0.199,0.628-0.405,0.793-0.618c0.165-0.212,0.267-0.427,0.306-0.643
		c0.039-0.217,0.058-0.507,0.058-0.871v-1.872l0.078-0.208l0.208-0.078h0.221l0.208,0.078l0.078,0.208v1.937
		c0,0.399-0.035,0.743-0.104,1.033c-0.069,0.291-0.214,0.572-0.435,0.845c-0.221,0.273-0.548,0.535-0.982,0.787l1.443,2.015
		c0.069,0.104,0.104,0.191,0.104,0.26l-0.078,0.182L223.584,120.224 M207.776,120.224h-0.221l-0.208-0.078l-0.078-0.208v-3.9
		c0-1.655-0.828-2.483-2.483-2.483H203.2l-0.208-0.078l-0.078-0.208v-0.182l0.078-0.208l0.208-0.078h1.651
		c1.083,0,1.889,0.271,2.418,0.813c0.529,0.542,0.793,1.328,0.793,2.36v3.965l-0.078,0.208L207.776,120.224 M197.987,120.224h-0.221
		l-0.208-0.078l-0.078-0.208v-6.851l0.078-0.208l0.208-0.078h0.221l0.208,0.078l0.078,0.208v6.851l-0.078,0.208L197.987,120.224
		 M195.088,120.224h-0.221l-0.208-0.078l-0.078-0.208v-3.9c0-1.655-0.828-2.483-2.483-2.483h-0.988
		c-0.087,0.624-0.15,1.127-0.188,1.508c-0.039,0.382-0.054,0.815-0.045,1.3v3.575l-0.078,0.208l-0.208,0.078l-1.482-0.026
		l-0.208-0.078l-0.078-0.208v-0.182l0.078-0.208l0.208-0.078l0.975,0.013v-3.029v-0.403c0-0.477,0.017-0.895,0.052-1.255
		c0.035-0.359,0.1-0.765,0.195-1.215h-0.663l-0.208-0.078l-0.078-0.208v-0.182l0.078-0.208l0.208-0.078h2.496
		c1.083,0,1.889,0.271,2.418,0.813c0.529,0.542,0.793,1.328,0.793,2.36v3.965l-0.078,0.208L195.088,120.224 M183.349,120.224h-0.221
		l-0.208-0.078l-0.078-0.208v-6.851l0.078-0.208l0.208-0.078h0.221l0.208,0.078l0.078,0.208v6.851l-0.078,0.208L183.349,120.224
		 M159.182,120.224h-0.221l-0.208-0.078l-0.078-0.208v-3.9c0-1.655-0.828-2.483-2.483-2.483h-1.586l-0.208-0.078l-0.078-0.208
		v-0.182l0.078-0.208l0.208-0.078h1.651c1.083,0,1.889,0.271,2.418,0.813c0.529,0.542,0.793,1.328,0.793,2.36v3.965l-0.078,0.208
		L159.182,120.224 M245.631,117.234h-0.221l-0.208-0.078l-0.078-0.208v-3.861l0.078-0.208l0.208-0.078h0.221l0.208,0.078
		l0.078,0.208v3.861l-0.078,0.208L245.631,117.234 M200.86,117.234h-0.221l-0.208-0.078l-0.078-0.208v-3.861l0.078-0.208
		l0.208-0.078h0.221l0.208,0.078l0.078,0.208v3.861l-0.078,0.208L200.86,117.234 M173.729,117.234h-0.221l-0.208-0.078l-0.078-0.208
		v-3.861l0.078-0.208l0.208-0.078h0.221l0.208,0.078l0.078,0.208v3.861l-0.078,0.208L173.729,117.234 M170.96,117.234h-0.221
		l-0.208-0.078l-0.078-0.208v-3.861l0.078-0.208l0.208-0.078h0.221l0.208,0.078l0.078,0.208v3.861l-0.078,0.208L170.96,117.234"/>
	<path fill="#000000" d="M285.064,142.794h-1.209l-0.221-0.091l-0.091-0.221v-6.708l-1.963,1.508l-0.195,0.065
		c-0.104,0-0.186-0.043-0.247-0.13l-0.559-0.728l-0.065-0.182c0-0.104,0.047-0.19,0.143-0.26l2.912-2.262
		c0.095-0.06,0.203-0.091,0.325-0.091h1.17l0.221,0.091l0.091,0.221v8.476l-0.091,0.221L285.064,142.794 M279.032,142.794h-1.209
		l-0.221-0.091l-0.091-0.221v-6.708l-1.963,1.508l-0.195,0.065c-0.104,0-0.186-0.043-0.247-0.13l-0.559-0.728l-0.065-0.182
		c0-0.104,0.047-0.19,0.143-0.26l2.912-2.262c0.095-0.06,0.203-0.091,0.325-0.091h1.17l0.221,0.091l0.091,0.221v8.476l-0.091,0.221
		L279.032,142.794"/>
	<path fill="#000000" d="M249.557,145.277h-0.221l-0.208-0.078l-0.078-0.208v-7.046l0.078-0.208l0.208-0.078h0.221l0.208,0.078
		l0.078,0.208v7.046l-0.078,0.208L249.557,145.277 M222.128,143.535l-0.176-0.065l-0.072-0.156v-0.169
		c0-0.199,0.061-0.321,0.182-0.364l1.781-0.65l-1.729-6.24c-0.043-0.147-0.065-0.234-0.065-0.26l0.078-0.182l0.182-0.078h0.234
		l0.195,0.058l0.104,0.136l1.781,6.279l0.13-0.052c0.71-0.26,1.209-0.632,1.495-1.118c0.286-0.485,0.429-1.074,0.429-1.768v-3.25
		l0.078-0.208l0.208-0.078h0.221l0.208,0.078l0.078,0.208v3.51c0,0.728-0.234,1.404-0.702,2.028
		c-0.468,0.624-1.088,1.075-1.859,1.352l-2.665,0.962L222.128,143.535 M30.718,143.535l-0.176-0.065l-0.071-0.156v-0.169
		c0-0.199,0.06-0.321,0.182-0.364l1.781-0.65l-1.729-6.24c-0.043-0.147-0.065-0.234-0.065-0.26l0.078-0.182l0.182-0.078h0.234
		l0.195,0.058l0.104,0.136l1.781,6.279l0.13-0.052c0.711-0.26,1.209-0.632,1.495-1.118c0.286-0.485,0.429-1.074,0.429-1.768v-3.25
		l0.078-0.208l0.208-0.078h0.221l0.208,0.078l0.078,0.208v3.51c0,0.728-0.234,1.404-0.702,2.028
		c-0.468,0.624-1.088,1.075-1.859,1.352l-2.665,0.962L30.718,143.535 M265.053,142.911c-0.139,0-0.208-0.069-0.208-0.208v-0.325
		c0-0.147,0.091-0.255,0.273-0.325l0.533-0.208c0.667-0.26,1.176-0.619,1.527-1.079c0.351-0.459,0.527-1.144,0.527-2.054
		c0-0.65-0.078-1.161-0.234-1.534c-0.156-0.373-0.414-0.641-0.773-0.806c-0.36-0.165-0.852-0.247-1.475-0.247h-0.442h-0.039
		l-1.014-0.013l-0.208-0.071l-0.078-0.202v-1.989l0.078-0.208l0.208-0.078h0.221l0.208,0.078l0.078,0.208v1.521h1.053
		c0.806,0,1.441,0.11,1.904,0.331c0.464,0.221,0.797,0.579,1.001,1.073c0.204,0.494,0.306,1.17,0.306,2.028
		c0,1.118-0.253,1.972-0.76,2.561c-0.507,0.59-1.185,1.036-2.035,1.339l-0.546,0.195L265.053,142.911 M251.481,142.911
		c-0.139,0-0.208-0.069-0.208-0.208v-0.325c0-0.147,0.091-0.255,0.273-0.325l0.533-0.208c0.667-0.26,1.176-0.619,1.527-1.079
		c0.351-0.459,0.527-1.144,0.527-2.054c0-0.65-0.078-1.161-0.234-1.534c-0.156-0.373-0.414-0.641-0.774-0.806
		c-0.36-0.165-0.851-0.247-1.475-0.247h-2.314l-0.208-0.078l-0.078-0.208v-0.182l0.078-0.208l0.208-0.078h2.379
		c0.806,0,1.441,0.11,1.904,0.331c0.464,0.221,0.797,0.579,1.001,1.073c0.203,0.494,0.305,1.17,0.305,2.028
		c0,1.118-0.253,1.972-0.76,2.561c-0.507,0.59-1.185,1.036-2.034,1.339l-0.546,0.195L251.481,142.911 M217.032,142.911
		c-0.139,0-0.208-0.069-0.208-0.208v-0.325c0-0.147,0.091-0.255,0.273-0.325l0.533-0.208c0.667-0.26,1.176-0.619,1.527-1.079
		c0.351-0.459,0.526-1.144,0.526-2.054c0-0.65-0.078-1.161-0.234-1.534c-0.156-0.373-0.414-0.641-0.773-0.806
		c-0.36-0.165-0.852-0.247-1.476-0.247h-0.442h-0.039l-1.014-0.013l-0.208-0.071l-0.078-0.202v-1.989l0.078-0.208l0.208-0.078h0.221
		l0.208,0.078l0.078,0.208v1.521h1.053c0.806,0,1.441,0.11,1.905,0.331c0.464,0.221,0.797,0.579,1.001,1.073
		c0.203,0.494,0.306,1.17,0.306,2.028c0,1.118-0.253,1.972-0.761,2.561c-0.507,0.59-1.185,1.036-2.034,1.339l-0.546,0.195
		L217.032,142.911 M189.03,142.911c-0.139,0-0.208-0.069-0.208-0.208v-0.325c0-0.147,0.091-0.255,0.273-0.325l0.533-0.208
		c0.667-0.26,1.176-0.619,1.527-1.079c0.351-0.459,0.527-1.144,0.527-2.054c0-0.65-0.078-1.161-0.234-1.534
		c-0.156-0.373-0.414-0.641-0.773-0.806c-0.36-0.165-0.851-0.247-1.475-0.247h-0.442h-0.039l-1.014-0.013l-0.208-0.071l-0.078-0.202
		v-1.989l0.078-0.208l0.208-0.078h0.221l0.208,0.078l0.078,0.208v1.521h1.053c0.806,0,1.441,0.11,1.904,0.331
		c0.464,0.221,0.797,0.579,1.001,1.073c0.204,0.494,0.306,1.17,0.306,2.028c0,1.118-0.253,1.972-0.76,2.561
		c-0.507,0.59-1.185,1.036-2.034,1.339l-0.546,0.195L189.03,142.911 M85.239,142.911c-0.139,0-0.208-0.069-0.208-0.208v-0.325
		c0-0.147,0.091-0.255,0.273-0.325l0.533-0.208c0.667-0.26,1.176-0.619,1.527-1.079c0.351-0.459,0.527-1.144,0.527-2.054
		c0-0.65-0.078-1.161-0.234-1.534c-0.156-0.373-0.414-0.641-0.774-0.806c-0.36-0.165-0.851-0.247-1.475-0.247h-0.442h-0.039
		l-1.014-0.013l-0.208-0.071l-0.078-0.202v-1.989l0.078-0.208l0.208-0.078h0.221l0.208,0.078l0.078,0.208v1.521h1.053
		c0.806,0,1.441,0.11,1.904,0.331c0.464,0.221,0.797,0.579,1.001,1.073c0.204,0.494,0.306,1.17,0.306,2.028
		c0,1.118-0.253,1.972-0.76,2.561c-0.507,0.59-1.185,1.036-2.034,1.339l-0.546,0.195L85.239,142.911 M41.835,142.86
		c-0.039,0-0.079-0.001-0.119-0.001h-0.871c-0.512,0-0.981-0.128-1.41-0.384c-0.429-0.255-0.769-0.622-1.021-1.098
		c-0.251-0.476-0.377-1.031-0.377-1.664v-4.056l0.078-0.208l0.208-0.078h0.221l0.208,0.078l0.078,0.208l0.052,3.887
		c0.884-0.061,1.504-0.28,1.859-0.657c0.355-0.377,0.533-0.865,0.533-1.462v-1.768l0.078-0.208l0.208-0.078h0.221l0.208,0.078
		l0.078,0.208v1.833c0,0.771-0.264,1.419-0.793,1.943c-0.529,0.525-1.309,0.813-2.34,0.865c0.095,0.572,0.347,1.014,0.754,1.326
		c0.407,0.312,0.914,0.468,1.521,0.468h0.455c0.029,0.001,0.057,0.001,0.086,0.001c0.833,0,1.477-0.25,1.929-0.748
		c0.468-0.516,0.702-1.211,0.702-2.086v-3.601l0.078-0.208l0.208-0.078h0.221l0.208,0.078l0.078,0.208v3.692
		c0,0.719-0.143,1.348-0.429,1.885c-0.286,0.537-0.689,0.947-1.209,1.229C43.046,142.727,42.479,142.86,41.835,142.86
		 M261.374,142.794h-4.485l-0.208-0.078l-0.078-0.208v-0.182l0.078-0.208l0.208-0.078h3.705l-4.173-6.149
		c-0.069-0.104-0.104-0.19-0.104-0.26l0.084-0.182l0.188-0.078h0.234c0.13,0,0.238,0.069,0.325,0.208l2.496,3.627
		c0.849-0.321,1.274-1.083,1.274-2.288v-1.261l0.078-0.208l0.208-0.078h0.221l0.208,0.078l0.078,0.208v1.326
		c0,0.702-0.141,1.289-0.422,1.762c-0.282,0.472-0.695,0.821-1.241,1.046l1.469,2.145c0.095,0.139,0.143,0.269,0.143,0.39v0.182
		l-0.078,0.208L261.374,142.794 M246.659,142.794h-0.221l-0.208-0.078l-0.078-0.208v-3.9c0-1.655-0.828-2.483-2.483-2.483h-0.988
		c-0.087,0.624-0.15,1.127-0.189,1.508c-0.039,0.381-0.054,0.815-0.045,1.3v3.575l-0.078,0.208l-0.208,0.078l-1.482-0.026
		l-0.208-0.078l-0.078-0.208v-0.182l0.078-0.208l0.208-0.078l0.975,0.013v-3.029v-0.403c0-0.476,0.017-0.895,0.052-1.254
		c0.035-0.36,0.1-0.765,0.195-1.216h-0.663l-0.208-0.078l-0.078-0.208v-0.182l0.078-0.208l0.208-0.078h2.496
		c1.083,0,1.889,0.271,2.418,0.813c0.529,0.542,0.793,1.328,0.793,2.359v3.965l-0.078,0.208L246.659,142.794 M234.998,142.794
		h-3.289l-0.208-0.078l-0.078-0.208v-0.182l0.078-0.208l0.208-0.078h2.782v-3.432c0-0.476-0.085-0.905-0.253-1.287
		c-0.169-0.381-0.403-0.676-0.702-0.884c-0.299-0.208-0.635-0.312-1.008-0.312h-1.508l-0.962,6.37l-0.11,0.215l-0.214,0.084h-0.234
		l-0.182-0.084l-0.052-0.215l0.949-6.37h-0.585l-0.208-0.078l-0.078-0.208v-0.182l0.078-0.208l0.208-0.078h2.964
		c0.52,0,0.984,0.13,1.391,0.39c0.407,0.26,0.726,0.631,0.956,1.111c0.23,0.481,0.344,1.038,0.344,1.671v3.965l-0.078,0.208
		L234.998,142.794 M210.155,142.794h-0.221l-0.208-0.078l-0.078-0.208v-3.9c0-1.655-0.828-2.483-2.483-2.483h-2.236l-0.208-0.078
		l-0.078-0.208v-0.182l0.078-0.208l0.208-0.078h2.301c1.083,0,1.889,0.271,2.418,0.813c0.529,0.542,0.793,1.328,0.793,2.359v3.965
		l-0.078,0.208L210.155,142.794 M205.15,142.794h-0.221l-0.208-0.078l-0.078-0.208v-4.563l0.078-0.208l0.208-0.078h0.221
		l0.208,0.078l0.078,0.208v4.563l-0.078,0.208L205.15,142.794 M199.547,142.794h-1.911l-0.208-0.078l-0.078-0.208v-0.182
		l0.078-0.208l0.208-0.078h1.846c0.849,0,1.467-0.21,1.853-0.631c0.386-0.42,0.596-1.038,0.63-1.852
		c0.009-0.13,0.013-0.29,0.013-0.481c0-0.182-0.004-0.338-0.013-0.468c-0.026-0.815-0.234-1.432-0.624-1.852
		c-0.39-0.42-1.01-0.631-1.859-0.631h-1.846l-0.208-0.078l-0.078-0.208v-0.182l0.078-0.208l0.208-0.078h1.911
		c1.075,0,1.87,0.269,2.385,0.806c0.516,0.537,0.791,1.326,0.825,2.366c0.009,0.13,0.013,0.308,0.013,0.533
		c0,0.234-0.005,0.416-0.013,0.546c-0.035,1.04-0.31,1.829-0.825,2.366C201.417,142.525,200.621,142.794,199.547,142.794
		 M194.854,142.794h-0.221l-0.208-0.078l-0.078-0.208v-6.851l0.078-0.208l0.208-0.078h0.221l0.208,0.078l0.078,0.208v6.851
		l-0.078,0.208L194.854,142.794 M182.465,142.794h-0.247l-0.175-0.045l-0.149-0.15l-3.211-4.472
		c-0.425,0.304-0.713,0.655-0.864,1.053c-0.152,0.399-0.228,0.841-0.228,1.326v2.002l-0.078,0.208l-0.208,0.078h-0.221l-0.208-0.078
		l-0.078-0.208v-2.067c0-0.615,0.098-1.164,0.292-1.644c0.195-0.481,0.579-0.908,1.151-1.281l-1.157-1.625
		c-0.07-0.104-0.104-0.19-0.104-0.26l0.078-0.182l0.182-0.078h0.247c0.121,0,0.23,0.065,0.325,0.195l2.938,4.095
		c0.364-0.199,0.628-0.405,0.793-0.617c0.164-0.212,0.266-0.427,0.305-0.644c0.039-0.216,0.059-0.507,0.059-0.871v-1.872
		l0.078-0.208l0.208-0.078h0.221l0.208,0.078l0.078,0.208v1.937c0,0.399-0.035,0.743-0.104,1.033
		c-0.069,0.29-0.214,0.572-0.435,0.845c-0.221,0.273-0.548,0.535-0.982,0.787l1.443,2.015c0.069,0.104,0.104,0.191,0.104,0.26
		l-0.078,0.182L182.465,142.794 M174.769,142.794h-0.221l-0.208-0.078l-0.078-0.208v-3.9c0-1.655-0.828-2.483-2.483-2.483h-0.988
		c-0.087,0.624-0.15,1.127-0.188,1.508c-0.039,0.381-0.054,0.815-0.046,1.3v3.575l-0.078,0.208l-0.208,0.078l-1.482-0.026
		l-0.208-0.078l-0.078-0.208v-0.182l0.078-0.208l0.208-0.078l0.975,0.013v-3.029v-0.403c0-0.476,0.017-0.895,0.052-1.254
		c0.035-0.36,0.1-0.765,0.195-1.216h-0.663l-0.208-0.078l-0.078-0.208v-0.182l0.078-0.208l0.208-0.078h2.496
		c1.083,0,1.889,0.271,2.418,0.813c0.529,0.542,0.793,1.328,0.793,2.359v3.965l-0.078,0.208L174.769,142.794 M160.339,142.794
		h-0.221l-0.208-0.078l-0.078-0.208v-3.9c0-1.655-0.828-2.483-2.483-2.483h-0.988c-0.087,0.624-0.15,1.127-0.188,1.508
		c-0.039,0.381-0.054,0.815-0.045,1.3v3.575l-0.078,0.208l-0.208,0.078l-1.482-0.026l-0.208-0.078l-0.078-0.208v-0.182l0.078-0.208
		l0.208-0.078l0.975,0.013v-3.029v-0.403c0-0.476,0.017-0.895,0.052-1.254c0.035-0.36,0.1-0.765,0.195-1.216h-0.663l-0.208-0.078
		l-0.078-0.208v-0.182l0.078-0.208l0.208-0.078h2.496c1.083,0,1.889,0.271,2.418,0.813c0.529,0.542,0.793,1.328,0.793,2.359v3.965
		l-0.078,0.208L160.339,142.794 M152.032,142.794h-0.221l-0.208-0.078l-0.078-0.208v-3.9c0-1.655-0.828-2.483-2.483-2.483h-1.586
		l-0.208-0.078l-0.078-0.208v-0.182l0.078-0.208l0.208-0.078h1.651c1.083,0,1.889,0.271,2.418,0.813
		c0.529,0.542,0.793,1.328,0.793,2.359v3.965l-0.078,0.208L152.032,142.794 M145.415,142.794h-0.221l-0.208-0.078l-0.078-0.208v-3.9
		c0-1.655-0.828-2.483-2.483-2.483h-0.988c-0.087,0.624-0.149,1.127-0.188,1.508c-0.039,0.381-0.054,0.815-0.045,1.3v3.575
		l-0.078,0.208l-0.208,0.078l-1.482-0.026l-0.208-0.078l-0.078-0.208v-0.182l0.078-0.208l0.208-0.078l0.975,0.013v-3.029v-0.403
		c0-0.476,0.017-0.895,0.052-1.254c0.035-0.36,0.1-0.765,0.195-1.216h-0.663l-0.208-0.078l-0.078-0.208v-0.182l0.078-0.208
		l0.208-0.078h2.496c1.083,0,1.889,0.271,2.418,0.813c0.529,0.542,0.793,1.328,0.793,2.359v3.965l-0.078,0.208L145.415,142.794
		 M133.755,142.794h-0.221l-0.208-0.078l-0.078-0.208v-3.9c0-1.655-0.828-2.483-2.483-2.483h-2.236l-0.208-0.078l-0.078-0.208
		v-0.182l0.078-0.208l0.208-0.078h2.301c1.083,0,1.889,0.271,2.418,0.813c0.529,0.542,0.793,1.328,0.793,2.359v3.965l-0.078,0.208
		L133.755,142.794 M128.75,142.794h-0.221l-0.208-0.078l-0.078-0.208v-4.563l0.078-0.208l0.208-0.078h0.221l0.208,0.078l0.078,0.208
		v4.563l-0.078,0.208L128.75,142.794 M125.851,142.794h-0.221l-0.208-0.078l-0.078-0.208v-3.9c0-1.655-0.828-2.483-2.483-2.483
		h-1.586l-0.208-0.078l-0.078-0.208v-0.182l0.078-0.208l0.208-0.078h1.651c1.083,0,1.889,0.271,2.418,0.813
		c0.529,0.542,0.793,1.328,0.793,2.359v3.965l-0.078,0.208L125.851,142.794 M120.027,142.794h-5.2l-0.208-0.078l-0.078-0.208v-0.182
		l0.078-0.208l0.208-0.078h3.913v-3.432c0-1.655-0.828-2.483-2.483-2.483h-1.3l-0.208-0.078l-0.078-0.208v-0.182l0.078-0.208
		l0.208-0.078h1.365c1.083,0,1.889,0.273,2.418,0.819c0.529,0.546,0.793,1.33,0.793,2.353v3.497h0.494l0.208,0.078l0.078,0.208
		v0.182l-0.078,0.208L120.027,142.794 M107.014,142.794h-1.911l-0.208-0.078l-0.078-0.208v-0.182l0.078-0.208l0.208-0.078h1.846
		c0.849,0,1.467-0.21,1.853-0.631c0.386-0.42,0.596-1.038,0.63-1.852c0.009-0.13,0.013-0.29,0.013-0.481
		c0-0.182-0.005-0.338-0.013-0.468c-0.026-0.815-0.234-1.432-0.624-1.852c-0.39-0.42-1.01-0.631-1.859-0.631h-1.846l-0.208-0.078
		l-0.078-0.208v-0.182l0.078-0.208l0.208-0.078h1.911c1.075,0,1.87,0.269,2.385,0.806c0.516,0.537,0.791,1.326,0.826,2.366
		c0.008,0.13,0.013,0.308,0.013,0.533c0,0.234-0.005,0.416-0.013,0.546c-0.035,1.04-0.31,1.829-0.826,2.366
		C108.884,142.525,108.088,142.794,107.014,142.794 M102.399,142.794h-0.221l-0.208-0.078l-0.078-0.208v-3.9
		c0-1.655-0.828-2.483-2.483-2.483h-2.236l-0.208-0.078l-0.078-0.208v-0.182l0.078-0.208l0.208-0.078h2.301
		c1.083,0,1.889,0.271,2.418,0.813c0.529,0.542,0.793,1.328,0.793,2.359v3.965l-0.078,0.208L102.399,142.794 M97.394,142.794h-0.221
		l-0.208-0.078l-0.078-0.208v-4.563l0.078-0.208l0.208-0.078h0.221l0.208,0.078l0.078,0.208v4.563l-0.078,0.208L97.394,142.794
		 M91.063,142.794h-0.221l-0.208-0.078l-0.078-0.208v-6.851l0.078-0.208l0.208-0.078h0.221l0.208,0.078l0.078,0.208v6.851
		l-0.078,0.208L91.063,142.794 M81.729,142.794h-0.247l-0.176-0.045l-0.149-0.15l-3.211-4.472c-0.425,0.304-0.713,0.655-0.865,1.053
		c-0.152,0.399-0.228,0.841-0.228,1.326v2.002l-0.078,0.208l-0.208,0.078h-0.221l-0.208-0.078l-0.078-0.208v-2.067
		c0-0.615,0.098-1.164,0.293-1.644c0.195-0.481,0.578-0.908,1.15-1.281l-1.157-1.625c-0.069-0.104-0.104-0.19-0.104-0.26
		l0.078-0.182l0.182-0.078h0.247c0.121,0,0.23,0.065,0.325,0.195l2.938,4.095c0.364-0.199,0.628-0.405,0.793-0.617
		c0.165-0.212,0.266-0.427,0.306-0.644c0.039-0.216,0.058-0.507,0.058-0.871v-1.872l0.078-0.208l0.208-0.078h0.221l0.208,0.078
		l0.078,0.208v1.937c0,0.399-0.035,0.743-0.104,1.033c-0.07,0.29-0.215,0.572-0.436,0.845s-0.548,0.535-0.981,0.787l1.443,2.015
		c0.069,0.104,0.104,0.191,0.104,0.26l-0.078,0.182L81.729,142.794 M71.746,142.794h-2.158l-0.208-0.078l-0.078-0.208v-0.182
		l0.078-0.208l0.208-0.078h2.093c0.659,0,1.159-0.215,1.502-0.644c0.342-0.429,0.531-1.042,0.566-1.839
		c0.008-0.087,0.013-0.247,0.013-0.481c0-0.225-0.005-0.381-0.013-0.468c-0.018-0.788-0.202-1.399-0.553-1.833
		c-0.351-0.433-0.856-0.65-1.515-0.65h-1.768v1.235c0,0.407,0.043,0.726,0.13,0.956c0.087,0.23,0.238,0.37,0.455,0.422l0.533,0.13
		c0.147,0.043,0.221,0.182,0.221,0.416v0.182l-0.084,0.156l-0.215,0.052l-0.104-0.013l-0.494-0.117
		c-0.416-0.095-0.724-0.321-0.923-0.676c-0.199-0.355-0.299-0.858-0.299-1.508v-1.703l0.078-0.208l0.208-0.078h2.327
		c0.893,0,1.575,0.275,2.048,0.825c0.472,0.55,0.721,1.332,0.747,2.346c0.009,0.087,0.013,0.265,0.013,0.533
		c0,0.277-0.004,0.459-0.013,0.546c-0.026,1.014-0.275,1.796-0.747,2.346C73.321,142.518,72.638,142.794,71.746,142.794
		 M66.637,142.794h-0.221l-0.208-0.078l-0.078-0.208v-6.851l0.078-0.208l0.208-0.078h0.221l0.208,0.078l0.078,0.208v6.851
		l-0.078,0.208L66.637,142.794 M63.738,142.794h-0.221l-0.208-0.078l-0.078-0.208v-3.9c0-1.655-0.828-2.483-2.483-2.483H59.76
		c-0.087,0.624-0.149,1.127-0.188,1.508c-0.039,0.381-0.054,0.815-0.045,1.3v3.575l-0.078,0.208l-0.208,0.078l-1.482-0.026
		l-0.208-0.078l-0.078-0.208v-0.182l0.078-0.208l0.208-0.078l0.975,0.013v-3.029v-0.403c0-0.476,0.017-0.895,0.052-1.254
		c0.035-0.36,0.1-0.765,0.195-1.216h-0.663l-0.208-0.078l-0.078-0.208v-0.182l0.078-0.208l0.208-0.078h2.496
		c1.083,0,1.889,0.271,2.418,0.813c0.529,0.542,0.793,1.328,0.793,2.359v3.965l-0.078,0.208L63.738,142.794 M49.373,142.794h-1.911
		l-0.208-0.078l-0.078-0.208v-0.182l0.078-0.208l0.208-0.078h1.846c0.849,0,1.467-0.21,1.852-0.631
		c0.386-0.42,0.596-1.038,0.631-1.852c0.008-0.13,0.013-0.29,0.013-0.481c0-0.182-0.005-0.338-0.013-0.468
		c-0.026-0.815-0.234-1.432-0.624-1.852c-0.39-0.42-1.01-0.631-1.859-0.631h-1.846l-0.208-0.078l-0.078-0.208v-0.182l0.078-0.208
		l0.208-0.078h1.911c1.074,0,1.87,0.269,2.385,0.806c0.516,0.537,0.791,1.326,0.825,2.366c0.009,0.13,0.013,0.308,0.013,0.533
		c0,0.234-0.004,0.416-0.013,0.546c-0.035,1.04-0.31,1.829-0.825,2.366C51.243,142.525,50.448,142.794,49.373,142.794
		 M28.547,142.794h-0.221l-0.208-0.078l-0.078-0.208v-3.9c0-1.655-0.828-2.483-2.483-2.483h-2.236l-0.208-0.078l-0.078-0.208v-0.182
		l0.078-0.208l0.208-0.078h2.301c1.083,0,1.889,0.271,2.418,0.813c0.529,0.542,0.793,1.328,0.793,2.359v3.965l-0.078,0.208
		L28.547,142.794 M23.542,142.794h-0.221l-0.208-0.078l-0.078-0.208v-4.563l0.078-0.208l0.208-0.078h0.221l0.208,0.078l0.078,0.208
		v4.563l-0.078,0.208L23.542,142.794 M163.134,139.804h-0.221l-0.208-0.078l-0.078-0.208v-3.861l0.078-0.208l0.208-0.078h0.221
		l0.208,0.078l0.078,0.208v3.861l-0.078,0.208L163.134,139.804 M112.513,139.804h-0.221l-0.208-0.078l-0.078-0.208v-3.861
		l0.078-0.208l0.208-0.078h0.221l0.208,0.078l0.078,0.208v3.861l-0.078,0.208L112.513,139.804"/>
	<path fill="#000000" d="M268.602,159.693h-5.2l-0.208-0.078l-0.078-0.208v-0.182l0.078-0.208l0.208-0.078h3.913v-3.432
		c0-1.655-0.828-2.483-2.483-2.483h-1.3l-0.208-0.078l-0.078-0.208v-0.182l0.078-0.208l0.208-0.078h1.365
		c1.083,0,1.889,0.273,2.418,0.819c0.529,0.546,0.793,1.331,0.793,2.353v3.497h0.494l0.208,0.078l0.078,0.208v0.182l-0.078,0.208
		L268.602,159.693 M261.062,159.693h-0.221l-0.208-0.078l-0.078-0.208v-3.9c0-1.655-0.828-2.483-2.483-2.483h-1.742v6.383
		l-0.078,0.208l-0.208,0.078h-0.221l-0.208-0.078l-0.078-0.208v-6.851l0.078-0.208l0.208-0.078h2.314
		c1.083,0,1.889,0.271,2.418,0.813c0.529,0.542,0.793,1.328,0.793,2.36v3.965l-0.078,0.208L261.062,159.693 M253.067,159.693h-0.221
		l-0.208-0.078l-0.078-0.208v-6.851l0.078-0.208l0.208-0.078h0.221l0.208,0.078l0.078,0.208v6.851l-0.078,0.208L253.067,159.693
		 M250.168,159.693h-5.226l-0.208-0.078l-0.078-0.208v-6.851l0.078-0.208l0.208-0.078h2.301c1.083,0,1.889,0.271,2.418,0.813
		c0.529,0.542,0.793,1.328,0.793,2.36v3.965l-0.078,0.208L250.168,159.693 M245.436,153.024v5.915h4.225v-3.432
		c0-1.655-0.828-2.483-2.483-2.483H245.436 M239.755,159.693h-5.2l-0.208-0.078l-0.078-0.208v-0.182l0.078-0.208l0.208-0.078h3.913
		v-3.432c0-1.655-0.828-2.483-2.483-2.483h-1.3l-0.208-0.078l-0.078-0.208v-0.182l0.078-0.208l0.208-0.078h1.365
		c1.083,0,1.889,0.273,2.418,0.819c0.529,0.546,0.793,1.331,0.793,2.353v3.497h0.494l0.208,0.078l0.078,0.208v0.182l-0.078,0.208
		L239.755,159.693 M229.772,159.693h-3.224l-0.208-0.078l-0.078-0.208v-0.182l0.078-0.208l0.208-0.078h2.691l-0.247-3.562
		l-0.013-0.273c-0.035-0.52-0.078-0.914-0.13-1.183c-0.052-0.268-0.165-0.485-0.338-0.65c-0.174-0.165-0.438-0.247-0.793-0.247
		h-0.481l-0.208-0.078l-0.078-0.208v-0.182l0.078-0.208l0.208-0.078h0.481c0.581,0,1.012,0.126,1.294,0.377
		c0.281,0.251,0.468,0.577,0.559,0.975c0.091,0.399,0.162,0.962,0.214,1.69l0.273,4.095v0.039l-0.085,0.176L229.772,159.693
		 M224.26,159.693h-0.221l-0.208-0.078l-0.078-0.208v-6.851l0.078-0.208l0.208-0.078h0.221l0.208,0.078l0.078,0.208v6.851
		l-0.078,0.208L224.26,159.693 M221.686,159.693h-3.224l-0.208-0.078l-0.078-0.208v-0.182l0.078-0.208l0.208-0.078h2.691
		l-0.247-3.562l-0.013-0.273c-0.035-0.52-0.078-0.914-0.13-1.183c-0.052-0.268-0.165-0.485-0.338-0.65
		c-0.173-0.165-0.438-0.247-0.793-0.247h-0.481l-0.208-0.078l-0.078-0.208v-0.182l0.078-0.208l0.208-0.078h0.481
		c0.581,0,1.012,0.126,1.294,0.377c0.281,0.251,0.468,0.577,0.559,0.975c0.091,0.399,0.163,0.962,0.214,1.69l0.273,4.095v0.039
		l-0.085,0.176L221.686,159.693 M232.242,156.704h-0.221l-0.208-0.078l-0.078-0.208v-3.861l0.078-0.208l0.208-0.078h0.221
		l0.208,0.078l0.078,0.208v3.861l-0.078,0.208L232.242,156.704 M216.278,156.704h-0.221l-0.208-0.078l-0.078-0.208v-3.861
		l0.078-0.208l0.208-0.078h0.221l0.208,0.078l0.078,0.208v3.861l-0.078,0.208L216.278,156.704"/>
</g>
</svg>
