<!-- Generator: Adobe InDesign 14.0 SVG Export Plug-in, SVG Library version: 6.0 build 234 -->
<!DOCTYPE svg PUBLIC "-//W3C//DTD SVG 1.1//EN" "http://www.w3.org/Graphics/SVG/1.1/DTD/svg11.dtd">
<svg version="1.1" xmlns="http://www.w3.org/2000/svg" xmlns:xlink="http://www.w3.org/1999/xlink" x="0%" y="0%" width="100%"
	 height="100%" viewBox="0 0 313.376 534.346" preserveAspectRatio="xMidYMid slice" overflow="visible" xml:space="preserve">
<clipPath id="clp_unq_id_1" fill="none">
	<path shape-rendering="crispEdges" stroke="#000000" d="M0,0h313.376v534.346H0V0"/>
</clipPath>
<g clip-path="url(#clp_unq_id_1)" fill="none">
	<path fill="#D05559" d="M104.851,25.504h2.568v-9c0-1.552-0.36-2.688-1.08-3.408s-1.72-1.08-3-1.08h-6.552v1.968h5.904
		c0.704,0,1.24,0.188,1.608,0.564c0.368,0.376,0.552,0.988,0.552,1.836V25.504z M96.715,25.504h2.568v-8.136h-2.208l-0.36,1.608
		V25.504z M109.843,25.504h6.456v-9.552c0-1.104-0.26-1.988-0.78-2.652c-0.52-0.664-1.26-1.068-2.22-1.212l-2.496-0.36l-0.336,1.944
		l1.632,0.24c0.544,0.08,0.952,0.276,1.224,0.588c0.272,0.312,0.408,0.812,0.408,1.5v7.536h-3.888V25.504z M119.443,20.464
		l2.544-0.48l0.024-1.512v-3.648l-0.312-2.808h-2.544l0.288,2.808V20.464z M133.843,23.536v-7.032c0-1.552-0.36-2.688-1.08-3.408
		c-0.72-0.72-1.72-1.08-3-1.08h-5.16v1.968h4.512c0.704,0,1.24,0.188,1.608,0.564c0.368,0.376,0.552,0.988,0.552,1.836v7.152h-6.672
		v1.968h6.672h4.224v-1.968H133.843z M144.787,25.504l-0.816-5.16v-4.608c0-1.12-0.212-1.976-0.636-2.568
		c-0.424-0.592-1.108-0.96-2.052-1.104l-2.376-0.336l-0.336,1.944l1.512,0.216c0.512,0.08,0.86,0.276,1.044,0.588
		c0.184,0.312,0.276,0.82,0.276,1.524v4.2c-0.432,0.88-1.02,1.612-1.764,2.196c-0.744,0.584-1.668,1.068-2.772,1.452l0.936,2.04
		c0.912-0.32,1.696-0.756,2.352-1.308c0.656-0.552,1.208-1.228,1.656-2.028l0.528,2.952H144.787z M159.138,12.016h-4.392h-2.568
		v13.488h0.6h7.872h2.568v-9c0-1.552-0.36-2.688-1.08-3.408C161.418,12.376,160.418,12.016,159.138,12.016z M154.746,23.536v-9.552
		h3.744c0.704,0,1.24,0.188,1.608,0.564c0.368,0.376,0.552,0.988,0.552,1.836v7.152H154.746z M174.186,12.016v0.936
		c0,2.352-0.048,4.116-0.144,5.292s-0.336,2.148-0.72,2.916s-1.008,1.344-1.872,1.728l-2.688-10.872h-2.568l2.952,11.472
		l-4.056,0.792l0.36,2.016l4.512-0.888c2.112-0.416,3.644-1.132,4.596-2.148c0.952-1.016,1.552-2.336,1.8-3.96
		c0.248-1.624,0.372-4.052,0.372-7.284H174.186z M189.57,25.504h2.568v-8.712c0-1.2,0.176-2.136,0.528-2.808h1.8v-1.968h-10.704
		v1.968h6.48c-0.448,0.624-0.672,1.56-0.672,2.808V25.504z M203.058,25.504h2.568v-9c0-1.552-0.36-2.688-1.08-3.408
		s-1.72-1.08-3-1.08h-5.088v1.968h4.44c0.704,0,1.24,0.188,1.608,0.564c0.368,0.376,0.552,0.988,0.552,1.836V25.504z
		 M207.858,25.888c1.648-0.16,2.84-0.6,3.576-1.32c0.736-0.72,1.104-1.872,1.104-3.456v-7.128h3.264c0.704,0,1.24,0.188,1.608,0.564
		c0.368,0.376,0.552,0.988,0.552,1.836v9.12h2.568v-9c0-1.552-0.36-2.688-1.08-3.408c-0.72-0.72-1.72-1.08-3-1.08h-6.48V21.4
		c0,0.896-0.16,1.544-0.48,1.944c-0.32,0.4-0.944,0.648-1.872,0.744L207.858,25.888z M239.561,17.704l-0.024-0.768
		c-0.048-1.52-0.484-2.72-1.308-3.6c-0.824-0.88-1.98-1.32-3.468-1.32h-6.912l0.24,1.968l1.392,11.76
		c3.232-0.112,5.744-0.788,7.536-2.028C238.809,22.476,239.657,20.472,239.561,17.704z M231.737,23.416l-1.08-9.432h3.912
		c0.768,0,1.368,0.28,1.8,0.84c0.432,0.56,0.648,1.288,0.648,2.184v0.648c0.064,1.936-0.352,3.34-1.248,4.212
		C234.873,22.74,233.529,23.256,231.737,23.416z M246.545,25.528c2-0.064,3.528-0.744,4.584-2.04c1.056-1.296,1.64-3.12,1.752-5.472
		l0.336-4.272l0.096-1.728h-11.256v1.968h8.496l-0.36,4.632c-0.08,1.216-0.284,2.172-0.612,2.868
		c-0.328,0.696-0.76,1.192-1.296,1.488c-0.536,0.296-1.196,0.484-1.98,0.564L246.545,25.528z M242.009,30.304h2.568v-13.2h-2.208
		l-0.36,1.632V30.304z M261.809,25.504h2.568v-9c0-1.552-0.36-2.688-1.08-3.408c-0.72-0.72-1.72-1.08-3-1.08h-5.088v1.968h4.44
		c0.704,0,1.24,0.188,1.608,0.564c0.368,0.376,0.552,0.988,0.552,1.836V25.504z M267.569,25.504h2.568v-10.68l-0.312-2.808h-2.544
		l0.288,2.808V25.504z M281.969,23.536v-7.032c0-1.552-0.36-2.688-1.08-3.408c-0.72-0.72-1.72-1.08-3-1.08h-5.16v1.968h4.512
		c0.704,0,1.24,0.188,1.608,0.564c0.368,0.376,0.552,0.988,0.552,1.836v7.152h-6.672v1.968h6.672h4.224v-1.968H281.969z"/>
	<path fill="#000000" d="M218.555,59.06h-0.533l-0.215-0.078c-0.056-0.052-0.085-0.126-0.085-0.221V51.91l0.085-0.215l0.215-0.084
		h0.533l0.215,0.084l0.084,0.215v6.851l-0.084,0.215L218.555,59.06 M98.503,59.06H97.97l-0.214-0.078
		c-0.056-0.052-0.085-0.126-0.085-0.221V51.91l0.085-0.215l0.214-0.084h0.533l0.214,0.084l0.085,0.215v6.851l-0.085,0.215
		L98.503,59.06 M206.869,57.305l-0.182-0.065l-0.078-0.169v-0.403c0-0.199,0.069-0.321,0.208-0.364l1.703-0.572l-1.69-6.058
		c-0.043-0.147-0.065-0.234-0.065-0.26l0.078-0.182l0.182-0.078h0.598l0.195,0.058l0.104,0.137l1.664,6.032
		c0.684-0.243,1.164-0.585,1.437-1.027c0.273-0.442,0.409-0.996,0.409-1.664v-3.237l0.085-0.214l0.214-0.085h0.546
		c0.095,0,0.169,0.026,0.221,0.078c0.052,0.052,0.078,0.126,0.078,0.221v3.588c0,0.763-0.251,1.45-0.754,2.06
		c-0.503,0.611-1.174,1.042-2.015,1.294l-2.834,0.897L206.869,57.305 M220.401,56.707l-0.163-0.065l-0.071-0.182v-0.572
		c0-0.156,0.095-0.273,0.286-0.351l0.507-0.195c0.598-0.225,1.057-0.55,1.378-0.975c0.321-0.424,0.481-1.048,0.481-1.872
		c0-0.581-0.069-1.038-0.208-1.372c-0.139-0.333-0.366-0.574-0.682-0.721c-0.316-0.147-0.752-0.221-1.307-0.221h-2.6l-0.215-0.084
		l-0.085-0.215V49.44l0.085-0.208l0.215-0.078h2.756c0.797,0,1.428,0.113,1.891,0.338c0.464,0.225,0.8,0.585,1.008,1.079
		c0.208,0.494,0.312,1.153,0.312,1.976c0,1.109-0.273,1.974-0.819,2.593c-0.546,0.62-1.257,1.077-2.132,1.372l-0.546,0.182
		L220.401,56.707 M201.747,56.707l-0.163-0.065l-0.071-0.182v-0.572c0-0.156,0.095-0.273,0.286-0.351l0.507-0.195
		c0.598-0.225,1.057-0.55,1.378-0.975c0.32-0.424,0.481-1.048,0.481-1.872c0-0.581-0.069-1.038-0.208-1.372
		c-0.139-0.333-0.366-0.574-0.682-0.721c-0.316-0.147-0.752-0.221-1.306-0.221h-0.403h-0.039l-1.196-0.013l-0.214-0.078
		l-0.085-0.208v-2.236l0.085-0.215l0.214-0.084h0.52l0.208,0.084l0.078,0.215v1.508h1.001c0.789,0,1.415,0.113,1.878,0.338
		c0.464,0.225,0.799,0.585,1.007,1.079c0.208,0.494,0.312,1.153,0.312,1.976c0,1.109-0.273,1.974-0.819,2.593
		c-0.546,0.62-1.257,1.077-2.132,1.372l-0.546,0.182L201.747,56.707 M143.014,56.707l-0.163-0.065l-0.072-0.182v-0.572
		c0-0.156,0.095-0.273,0.286-0.351l0.507-0.195c0.598-0.225,1.057-0.55,1.378-0.975c0.321-0.424,0.481-1.048,0.481-1.872
		c0-0.581-0.07-1.038-0.208-1.372c-0.139-0.333-0.366-0.574-0.682-0.721c-0.316-0.147-0.752-0.221-1.307-0.221h-0.403h-0.039
		l-1.196-0.013l-0.215-0.078l-0.084-0.208v-2.236l0.084-0.215l0.215-0.084h0.52l0.208,0.084l0.078,0.215v1.508h1.001
		c0.789,0,1.415,0.113,1.879,0.338c0.464,0.225,0.8,0.585,1.008,1.079c0.208,0.494,0.312,1.153,0.312,1.976
		c0,1.109-0.273,1.974-0.819,2.593c-0.546,0.62-1.257,1.077-2.132,1.372l-0.546,0.182L143.014,56.707 M133.212,56.707l-0.163-0.065
		l-0.071-0.182v-0.572c0-0.156,0.095-0.273,0.286-0.351l0.507-0.195c0.598-0.225,1.057-0.55,1.378-0.975
		c0.321-0.424,0.481-1.048,0.481-1.872c0-0.581-0.069-1.038-0.208-1.372c-0.139-0.333-0.366-0.574-0.682-0.721
		c-0.316-0.147-0.752-0.221-1.307-0.221h-0.403h-0.039l-1.196-0.013l-0.214-0.078l-0.085-0.208v-2.236l0.085-0.215l0.214-0.084h0.52
		l0.208,0.084l0.078,0.215v1.508h1.001c0.789,0,1.415,0.113,1.878,0.338c0.464,0.225,0.799,0.585,1.007,1.079
		c0.208,0.494,0.312,1.153,0.312,1.976c0,1.109-0.273,1.974-0.819,2.593c-0.546,0.62-1.257,1.077-2.132,1.372l-0.546,0.182
		L133.212,56.707 M100.349,56.707l-0.163-0.065l-0.071-0.182v-0.572c0-0.156,0.095-0.273,0.286-0.351l0.507-0.195
		c0.598-0.225,1.057-0.55,1.378-0.975c0.321-0.424,0.481-1.048,0.481-1.872c0-0.581-0.069-1.038-0.208-1.372
		c-0.139-0.333-0.366-0.574-0.682-0.721c-0.316-0.147-0.752-0.221-1.307-0.221h-2.6l-0.214-0.084l-0.085-0.215V49.44l0.085-0.208
		l0.214-0.078h2.756c0.797,0,1.428,0.113,1.891,0.338c0.464,0.225,0.8,0.585,1.008,1.079c0.208,0.494,0.312,1.153,0.312,1.976
		c0,1.109-0.273,1.974-0.819,2.593c-0.546,0.62-1.257,1.077-2.132,1.372l-0.546,0.182L100.349,56.707 M252.485,56.694
		c-0.147,0-0.221-0.069-0.221-0.208v-0.611c0-0.147,0.091-0.256,0.273-0.325c0.026-0.009,0.197-0.067,0.514-0.176
		c0.316-0.108,0.6-0.245,0.851-0.409c0.26-0.165,0.516-0.392,0.767-0.682c0.251-0.29,0.429-0.566,0.533-0.825l-0.234-1.17
		c-0.104-0.511-0.214-0.916-0.331-1.216c-0.117-0.299-0.275-0.526-0.474-0.682c-0.199-0.156-0.459-0.234-0.78-0.234h-0.481
		l-0.215-0.078l-0.084-0.208v-0.442l0.084-0.215l0.215-0.084h0.481c0.554,0,1.01,0.113,1.365,0.338
		c0.355,0.226,0.639,0.561,0.851,1.008c0.212,0.447,0.392,1.029,0.54,1.748l0.78,4.056v0.052l-0.084,0.176l-0.201,0.072h-0.572
		c-0.165,0-0.265-0.1-0.299-0.299l-0.299-1.521c-0.321,0.494-0.689,0.88-1.105,1.157c-0.321,0.217-0.62,0.384-0.897,0.501
		c-0.277,0.117-0.572,0.206-0.884,0.266L252.485,56.694 M162.124,56.657c-0.039,0-0.078,0-0.118-0.001h-0.962
		c-0.563,0-1.071-0.13-1.521-0.39c-0.451-0.26-0.804-0.626-1.059-1.099c-0.256-0.472-0.383-1.016-0.383-1.631v-4.082
		c0-0.095,0.028-0.169,0.085-0.221l0.214-0.078h0.507l0.214,0.085l0.085,0.214l0.039,3.692c0.789-0.06,1.337-0.273,1.645-0.637
		c0.308-0.364,0.461-0.84,0.461-1.43v-1.625l0.085-0.214l0.214-0.085h0.507l0.215,0.085l0.084,0.214v1.677
		c0,0.832-0.264,1.517-0.793,2.054c-0.529,0.537-1.304,0.832-2.327,0.884c0.138,0.503,0.396,0.89,0.773,1.164
		c0.377,0.273,0.83,0.409,1.359,0.409h0.416c0.015,0,0.029,0,0.044,0c0.802,0,1.429-0.238,1.88-0.715
		c0.459-0.485,0.689-1.131,0.689-1.937v-3.536l0.085-0.214l0.215-0.085h0.507l0.214,0.085l0.085,0.214v3.614
		c0,0.728-0.15,1.367-0.449,1.918c-0.299,0.55-0.719,0.971-1.261,1.261C163.361,56.52,162.778,56.657,162.124,56.657
		 M250.392,56.577h-0.546l-0.214-0.085l-0.085-0.215v-3.887c0-1.491-0.745-2.236-2.236-2.236h-1.677l-0.215-0.078l-0.084-0.208
		v-0.416l0.084-0.214l0.215-0.085h1.755c2.201,0,3.302,1.057,3.302,3.172v3.952l-0.085,0.215L250.392,56.577 M238.12,56.577h-5.408
		l-0.208-0.085l-0.078-0.215v-0.416l0.078-0.214l0.208-0.085h3.757v-3.172c0-1.482-0.745-2.223-2.236-2.223h-1.391l-0.208-0.084
		l-0.078-0.215v-0.416l0.078-0.214l0.208-0.085h1.456c2.219,0,3.328,1.062,3.328,3.185v3.224h0.494l0.208,0.085l0.078,0.214v0.416
		l-0.078,0.215L238.12,56.577 M230.528,56.577h-4.68l-0.214-0.085l-0.085-0.215v-0.429l0.085-0.208l0.214-0.078h3.536l-4.069-5.902
		c-0.07-0.112-0.104-0.195-0.104-0.247l0.085-0.182l0.201-0.078h0.572c0.139,0,0.255,0.069,0.351,0.208l2.327,3.354
		c0.737-0.346,1.105-1.057,1.105-2.132v-1.131c0-0.095,0.028-0.169,0.084-0.221l0.215-0.078h0.507l0.214,0.085l0.085,0.214v1.274
		c0,0.668-0.139,1.239-0.416,1.716c-0.277,0.477-0.685,0.841-1.222,1.092l1.352,1.95c0.104,0.13,0.156,0.26,0.156,0.39v0.403
		l-0.084,0.215L230.528,56.577 M195,56.577h-5.447l-0.215-0.085l-0.084-0.215v-6.825c0-0.095,0.028-0.169,0.084-0.221l0.215-0.078
		h2.457c1.109,0,1.935,0.264,2.477,0.793c0.542,0.529,0.813,1.322,0.813,2.379v3.952l-0.085,0.215L195,56.577 M190.333,50.155v5.408
		h3.848v-3.172c0-1.491-0.745-2.236-2.236-2.236H190.333 M183.807,56.577h-3.354l-0.208-0.085l-0.078-0.215v-0.416l0.078-0.214
		l0.208-0.085h2.509v-3.159c0-0.659-0.167-1.194-0.5-1.605c-0.334-0.412-0.756-0.618-1.268-0.618h-1.378l-1.001,6.084l-0.11,0.221
		l-0.215,0.091h-0.546l-0.202-0.091l-0.058-0.221l1.04-6.084h-0.663l-0.214-0.084l-0.085-0.215v-0.429l0.085-0.214l0.214-0.085
		h3.263c0.537,0,1.016,0.128,1.437,0.384c0.42,0.256,0.749,0.622,0.988,1.099c0.238,0.477,0.357,1.04,0.357,1.69v3.952l-0.084,0.215
		L183.807,56.577 M175.669,56.577h-0.572l-0.214-0.085l-0.085-0.215v-6.825c0-0.095,0.028-0.169,0.085-0.221l0.214-0.078h0.572
		l0.215,0.085l0.084,0.214v6.825l-0.084,0.215L175.669,56.577 M170.093,56.577h-2.236l-0.215-0.085l-0.085-0.215v-0.429l0.085-0.214
		l0.215-0.085h2.171c0.606,0,1.075-0.195,1.404-0.585c0.329-0.39,0.507-0.94,0.533-1.651c0.009-0.087,0.013-0.238,0.013-0.455
		c0-0.208-0.004-0.355-0.013-0.442c-0.017-0.711-0.193-1.261-0.527-1.651c-0.334-0.39-0.804-0.585-1.41-0.585h-1.599v1.04
		c0,0.347,0.039,0.62,0.117,0.819c0.078,0.199,0.212,0.325,0.403,0.377l0.494,0.13l0.163,0.136c0.039,0.074,0.058,0.163,0.058,0.266
		v0.299c0,0.095-0.048,0.165-0.143,0.208c-0.068,0.031-0.14,0.046-0.217,0.046c-0.031,0-0.063-0.003-0.095-0.008l-0.507-0.104
		c-0.867-0.191-1.3-0.927-1.3-2.21v-1.729c0-0.095,0.028-0.169,0.085-0.221l0.214-0.078h2.392c0.953,0,1.677,0.277,2.171,0.832
		c0.494,0.555,0.758,1.348,0.793,2.379c0.009,0.087,0.013,0.251,0.013,0.494c0,0.251-0.004,0.42-0.013,0.507
		c-0.035,1.031-0.299,1.824-0.793,2.379C171.77,56.3,171.046,56.577,170.093,56.577 M155.962,56.577h-0.546l-0.215-0.085
		l-0.084-0.215v-3.887c0-1.491-0.745-2.236-2.236-2.236h-1.677l-0.215-0.078l-0.085-0.208v-0.416l0.085-0.214l0.215-0.085h1.755
		c2.201,0,3.302,1.057,3.302,3.172v3.952l-0.085,0.215L155.962,56.577 M129.715,56.577h-0.546l-0.214-0.085l-0.085-0.215v-3.887
		c0-1.491-0.741-2.236-2.223-2.236h-2.418l-0.215-0.078l-0.084-0.208v-0.416c0-0.095,0.028-0.169,0.084-0.221l0.215-0.078h2.483
		c2.201,0,3.302,1.066,3.302,3.198v3.926l-0.084,0.215L129.715,56.577 M124.775,56.577h-0.546l-0.215-0.085l-0.084-0.215V51.91
		l0.084-0.215l0.215-0.084h0.546l0.214,0.084l0.085,0.215v4.368l-0.085,0.215L124.775,56.577 M119.237,56.577h-5.408l-0.208-0.085
		l-0.078-0.215v-0.416l0.078-0.214l0.208-0.085h3.757v-3.172c0-1.482-0.745-2.223-2.236-2.223h-1.391l-0.208-0.084l-0.078-0.215
		v-0.416l0.078-0.214l0.208-0.085h1.456c2.219,0,3.328,1.062,3.328,3.185v3.224h0.494l0.208,0.085l0.078,0.214v0.416l-0.078,0.215
		L119.237,56.577 M111.607,56.577h-3.354l-0.208-0.085l-0.078-0.215v-0.416l0.078-0.214l0.208-0.085h2.509v-3.159
		c0-0.659-0.167-1.194-0.501-1.605c-0.334-0.412-0.756-0.618-1.267-0.618h-1.378l-1.001,6.084l-0.111,0.221l-0.214,0.091h-0.546
		l-0.201-0.091l-0.058-0.221l1.04-6.084h-0.663l-0.215-0.084l-0.084-0.215v-0.429l0.084-0.214l0.215-0.085h3.263
		c0.537,0,1.016,0.128,1.437,0.384c0.42,0.256,0.75,0.622,0.988,1.099c0.238,0.477,0.358,1.04,0.358,1.69v3.952l-0.085,0.215
		L111.607,56.577 M95.422,56.577h-0.546l-0.214-0.085l-0.085-0.215v-3.887c0-1.491-0.745-2.236-2.236-2.236h-1.677l-0.215-0.078
		l-0.084-0.208v-0.416l0.084-0.214l0.215-0.085h1.755c2.201,0,3.302,1.057,3.302,3.172v3.952l-0.085,0.215L95.422,56.577
		 M88.701,56.577h-0.546l-0.215-0.085l-0.085-0.215v-3.887c0-1.491-0.745-2.236-2.236-2.236h-1.677l-0.214-0.078l-0.085-0.208
		v-0.416l0.085-0.214l0.214-0.085h1.755c2.201,0,3.302,1.057,3.302,3.172v3.952l-0.085,0.215L88.701,56.577 M198.029,53.561h-0.572
		l-0.214-0.085l-0.085-0.214v-3.809c0-0.095,0.028-0.169,0.085-0.221l0.214-0.078h0.572l0.215,0.085l0.084,0.214v3.809l-0.084,0.214
		L198.029,53.561 M139.296,53.561h-0.572l-0.214-0.085l-0.085-0.214v-3.809c0-0.095,0.028-0.169,0.085-0.221l0.214-0.078h0.572
		l0.215,0.085l0.085,0.214v3.809l-0.085,0.214L139.296,53.561 M243.398,50.194h-0.377c-0.156,0-0.243-0.095-0.26-0.286l-0.221-2.262
		v-0.052l0.071-0.182l0.189-0.065h0.819l0.201,0.084l0.059,0.215l-0.221,2.262C243.641,50.099,243.554,50.194,243.398,50.194"/>
	<path fill="#000000" d="M280.344,56.707c-1.118,0-1.935-0.327-2.451-0.981c-0.516-0.654-0.791-1.51-0.825-2.568l-0.013-1.118
		l0.013-1.157c0.026-1.048,0.301-1.9,0.825-2.554c0.524-0.654,1.341-0.981,2.451-0.981c1.118,0,1.939,0.327,2.463,0.981
		c0.524,0.654,0.8,1.506,0.826,2.554c0.009,0.243,0.013,0.629,0.013,1.157c0,0.511-0.004,0.884-0.013,1.118
		c-0.035,1.058-0.31,1.913-0.826,2.568C282.291,56.38,281.47,56.707,280.344,56.707 M280.344,48.413
		c-0.659,0-1.157,0.223-1.495,0.669c-0.338,0.447-0.516,1.068-0.533,1.866l-0.013,1.066l0.013,1.079
		c0.017,0.806,0.195,1.43,0.533,1.872c0.338,0.442,0.836,0.663,1.495,0.663c0.667,0,1.17-0.221,1.508-0.663
		c0.338-0.442,0.516-1.066,0.533-1.872c0.009-0.251,0.013-0.611,0.013-1.079c0-0.476-0.004-0.832-0.013-1.066
		c-0.018-0.797-0.197-1.419-0.539-1.866C281.503,48.636,281.002,48.413,280.344,48.413 M272.115,56.707
		c-1.118,0-1.935-0.327-2.451-0.981c-0.516-0.654-0.791-1.51-0.825-2.568l-0.013-1.118l0.013-1.157
		c0.026-1.048,0.301-1.9,0.825-2.554c0.524-0.654,1.341-0.981,2.451-0.981c1.118,0,1.939,0.327,2.464,0.981
		c0.524,0.654,0.799,1.506,0.825,2.554c0.009,0.243,0.013,0.629,0.013,1.157c0,0.511-0.004,0.884-0.013,1.118
		c-0.035,1.058-0.31,1.913-0.825,2.568C274.062,56.38,273.241,56.707,272.115,56.707 M272.115,48.413
		c-0.659,0-1.157,0.223-1.495,0.669c-0.338,0.447-0.516,1.068-0.533,1.866l-0.013,1.066l0.013,1.079
		c0.017,0.806,0.195,1.43,0.533,1.872c0.338,0.442,0.836,0.663,1.495,0.663c0.667,0,1.17-0.221,1.508-0.663
		c0.338-0.442,0.516-1.066,0.533-1.872c0.009-0.251,0.013-0.611,0.013-1.079c0-0.476-0.004-0.832-0.013-1.066
		c-0.017-0.797-0.197-1.419-0.539-1.866C273.274,48.636,272.773,48.413,272.115,48.413 M264.094,56.707
		c-0.65,0-1.214-0.117-1.69-0.351c-0.477-0.234-0.841-0.539-1.092-0.916c-0.251-0.377-0.386-0.782-0.403-1.216v-0.026l0.078-0.169
		l0.182-0.065h0.637c0.182,0,0.299,0.095,0.351,0.286c0.13,0.468,0.37,0.817,0.721,1.046c0.351,0.23,0.756,0.344,1.216,0.344
		c0.589,0,1.079-0.18,1.469-0.539c0.39-0.359,0.585-0.856,0.585-1.488c0-0.581-0.195-1.042-0.585-1.384
		c-0.39-0.342-0.88-0.514-1.469-0.514c-0.312,0-0.563,0.039-0.754,0.117c-0.191,0.078-0.386,0.191-0.585,0.338
		c-0.113,0.087-0.206,0.15-0.279,0.189l-0.241,0.058h-0.624l-0.208-0.085l-0.078-0.201l0.403-4.329
		c0.026-0.217,0.134-0.325,0.325-0.325h4.498c0.095,0,0.169,0.026,0.221,0.078c0.052,0.052,0.078,0.126,0.078,0.221v0.481
		l-0.085,0.208l-0.214,0.078h-3.744l-0.234,2.613c0.416-0.295,0.975-0.442,1.677-0.442c0.581,0,1.109,0.115,1.586,0.344
		c0.477,0.23,0.856,0.566,1.138,1.008c0.282,0.442,0.422,0.966,0.422,1.573c0,0.642-0.141,1.194-0.422,1.658
		c-0.282,0.464-0.672,0.815-1.17,1.053C265.305,56.588,264.735,56.707,264.094,56.707"/>
	<path fill="#000000" d="M226.415,75.96h-0.533l-0.215-0.078c-0.056-0.052-0.084-0.126-0.084-0.221V68.81l0.084-0.215l0.215-0.084
		h0.533l0.215,0.084l0.084,0.215v6.851l-0.084,0.215L226.415,75.96 M228.261,73.607l-0.163-0.065l-0.071-0.182v-0.572
		c0-0.156,0.095-0.273,0.286-0.351l0.507-0.195c0.598-0.225,1.057-0.55,1.378-0.975c0.321-0.425,0.481-1.049,0.481-1.872
		c0-0.581-0.069-1.038-0.208-1.372c-0.139-0.333-0.366-0.574-0.682-0.721c-0.316-0.147-0.752-0.221-1.307-0.221h-2.6l-0.215-0.085
		l-0.084-0.215V66.34l0.084-0.208l0.215-0.078h2.756c0.797,0,1.428,0.113,1.892,0.338c0.464,0.225,0.799,0.585,1.007,1.079
		s0.312,1.153,0.312,1.976c0,1.109-0.273,1.974-0.819,2.593c-0.546,0.62-1.257,1.077-2.132,1.372l-0.546,0.182L228.261,73.607
		 M206.682,73.607l-0.163-0.065l-0.072-0.182v-0.572c0-0.156,0.095-0.273,0.286-0.351l0.507-0.195
		c0.598-0.225,1.057-0.55,1.378-0.975c0.321-0.425,0.481-1.049,0.481-1.872c0-0.581-0.07-1.038-0.208-1.372
		c-0.139-0.333-0.366-0.574-0.682-0.721c-0.316-0.147-0.752-0.221-1.307-0.221h-0.403h-0.039l-1.196-0.013l-0.215-0.078
		l-0.085-0.208v-2.236l0.085-0.215l0.215-0.084h0.52l0.208,0.084l0.078,0.215v1.508h1.001c0.789,0,1.415,0.113,1.879,0.338
		c0.464,0.225,0.8,0.585,1.008,1.079s0.312,1.153,0.312,1.976c0,1.109-0.273,1.974-0.819,2.593c-0.546,0.62-1.257,1.077-2.132,1.372
		l-0.546,0.182L206.682,73.607 M192.421,73.607c-1.066,0-1.866-0.279-2.399-0.838c-0.533-0.559-0.799-1.363-0.799-2.411v-4.004
		c0-0.095,0.028-0.169,0.084-0.221l0.215-0.078h3.12c1.118,0,1.919,0.251,2.405,0.754c0.485,0.503,0.749,1.274,0.793,2.314
		c0.009,0.087,0.013,0.321,0.013,0.702c0,0.382-0.004,0.615-0.013,0.702c-0.026,1.031-0.308,1.803-0.845,2.314
		C194.457,73.352,193.599,73.607,192.421,73.607 M190.314,67.055v3.302c0,0.719,0.176,1.27,0.527,1.651
		c0.351,0.382,0.873,0.572,1.566,0.572c0.815,0,1.4-0.171,1.755-0.514c0.355-0.342,0.541-0.878,0.559-1.605
		c0.009-0.087,0.013-0.299,0.013-0.637c0-0.338-0.004-0.55-0.013-0.637c-0.018-0.693-0.214-1.222-0.592-1.586
		c-0.377-0.364-0.895-0.546-1.553-0.546H190.314 M245.98,73.477h-5.408l-0.208-0.085l-0.078-0.215v-0.416l0.078-0.215l0.208-0.085
		h3.757v-3.172c0-1.482-0.745-2.223-2.236-2.223h-1.391l-0.208-0.084l-0.078-0.215v-0.416l0.078-0.214l0.208-0.085h1.456
		c2.219,0,3.328,1.062,3.328,3.185v3.224h0.494l0.208,0.085l0.078,0.215v0.416l-0.078,0.215L245.98,73.477 M238.388,73.477h-4.68
		l-0.214-0.085l-0.085-0.215v-0.429l0.085-0.208l0.214-0.078h3.536l-4.069-5.902c-0.07-0.112-0.104-0.195-0.104-0.247l0.085-0.182
		l0.201-0.078h0.572c0.139,0,0.256,0.069,0.351,0.208l2.327,3.354c0.737-0.346,1.105-1.057,1.105-2.132v-1.131
		c0-0.095,0.028-0.169,0.084-0.221l0.215-0.078h0.507l0.215,0.085l0.084,0.214v1.274c0,0.668-0.139,1.239-0.416,1.716
		c-0.277,0.477-0.685,0.841-1.222,1.092l1.352,1.95c0.104,0.13,0.156,0.26,0.156,0.39v0.403l-0.084,0.215L238.388,73.477
		 M217.679,73.477h-2.236l-0.214-0.085l-0.085-0.215v-0.429l0.085-0.214l0.214-0.085h2.171c0.607,0,1.075-0.195,1.404-0.585
		c0.329-0.39,0.507-0.94,0.533-1.651c0.009-0.087,0.013-0.238,0.013-0.455c0-0.208-0.004-0.355-0.013-0.442
		c-0.017-0.711-0.193-1.261-0.527-1.651c-0.334-0.39-0.804-0.585-1.41-0.585h-1.599v1.04c0,0.347,0.039,0.62,0.117,0.819
		c0.078,0.199,0.212,0.325,0.403,0.377l0.494,0.13l0.162,0.136c0.039,0.074,0.059,0.163,0.059,0.267v0.299
		c0,0.095-0.048,0.165-0.143,0.208c-0.068,0.031-0.14,0.046-0.217,0.046c-0.031,0-0.063-0.003-0.095-0.008l-0.507-0.104
		c-0.867-0.191-1.3-0.927-1.3-2.21v-1.729c0-0.095,0.028-0.169,0.085-0.221l0.214-0.078h2.392c0.953,0,1.677,0.277,2.171,0.832
		c0.494,0.555,0.758,1.348,0.793,2.379c0.008,0.087,0.013,0.251,0.013,0.494c0,0.251-0.005,0.421-0.013,0.507
		c-0.035,1.031-0.299,1.824-0.793,2.379C219.356,73.2,218.632,73.477,217.679,73.477 M203.211,73.477h-0.585
		c-0.113,0-0.2-0.033-0.26-0.098l-0.104-0.11l-2.964-4.173c-0.373,0.269-0.626,0.587-0.761,0.956
		c-0.134,0.368-0.201,0.773-0.201,1.216v1.911l-0.085,0.215l-0.214,0.085h-0.481l-0.214-0.085l-0.085-0.215v-1.963
		c0-0.641,0.098-1.2,0.293-1.677c0.195-0.476,0.578-0.905,1.15-1.287l-1.209-1.69c-0.061-0.095-0.091-0.178-0.091-0.247l0.078-0.182
		l0.182-0.078h0.572c0.138,0,0.26,0.074,0.364,0.221l2.73,3.809c0.312-0.182,0.539-0.373,0.682-0.572
		c0.143-0.199,0.232-0.396,0.267-0.592c0.035-0.195,0.052-0.449,0.052-0.76v-1.807l0.085-0.214l0.215-0.085h0.507l0.214,0.085
		l0.085,0.214v1.859c0,0.59-0.102,1.094-0.306,1.515c-0.204,0.421-0.613,0.813-1.229,1.176l1.482,2.067l0.091,0.247l-0.078,0.182
		L203.211,73.477 M212.765,70.461h-0.572l-0.215-0.085l-0.084-0.214v-3.809c0-0.095,0.028-0.169,0.084-0.221l0.215-0.078h0.572
		l0.214,0.085l0.085,0.214v3.809l-0.085,0.214L212.765,70.461"/>
	<path fill="#000000" d="M260.916,73.477h-1.599c-0.165,0-0.282-0.041-0.351-0.124l-0.117-0.136l-2.275-3.289
		c-0.226,0.208-0.373,0.446-0.442,0.715c-0.07,0.269-0.104,0.555-0.104,0.858v1.625c0,0.104-0.032,0.188-0.098,0.253
		c-0.065,0.065-0.145,0.098-0.24,0.098h-1.274l-0.228-0.104c-0.065-0.069-0.098-0.152-0.098-0.247v-1.612
		c0-0.737,0.1-1.334,0.299-1.794c0.199-0.459,0.576-0.892,1.131-1.3l-1.326-1.911l-0.065-0.182l0.084-0.188l0.188-0.085h1.534
		c0.121,0,0.215,0.026,0.28,0.078l0.188,0.208l2.093,2.964c0.243-0.173,0.396-0.364,0.462-0.572
		c0.065-0.208,0.098-0.455,0.098-0.741v-1.586c0-0.104,0.03-0.188,0.091-0.253c0.061-0.065,0.139-0.098,0.234-0.098h1.365
		c0.095,0,0.176,0.035,0.241,0.104c0.065,0.069,0.098,0.152,0.098,0.247v1.638c0,0.555-0.111,1.059-0.332,1.515
		c-0.221,0.455-0.622,0.865-1.202,1.229l1.586,2.236l0.052,0.182l-0.078,0.188L260.916,73.477 M252.389,73.477h-1.625
		c-0.096,0-0.176-0.03-0.241-0.091c-0.065-0.06-0.098-0.138-0.098-0.234v-6.773c0-0.095,0.033-0.173,0.098-0.234
		c0.065-0.06,0.145-0.091,0.241-0.091h1.625c0.095,0,0.173,0.031,0.234,0.091c0.061,0.061,0.091,0.139,0.091,0.234v6.773
		l-0.091,0.228C252.562,73.445,252.484,73.477,252.389,73.477"/>
	<path fill="#000000" d="M283.802,90.377h-5.408l-0.208-0.085l-0.078-0.214v-0.416l0.078-0.215l0.208-0.085h3.757v-3.172
		c0-1.482-0.745-2.223-2.236-2.223h-1.391l-0.208-0.084l-0.078-0.215v-0.416l0.078-0.214l0.208-0.085h1.456
		c2.219,0,3.328,1.062,3.328,3.185v3.224h0.494l0.208,0.085l0.078,0.215v0.416l-0.078,0.214L283.802,90.377 M273.207,90.377h-4.68
		l-0.215-0.085l-0.085-0.214v-0.429l0.085-0.208l0.215-0.078h3.536l-4.069-5.902c-0.069-0.112-0.104-0.195-0.104-0.247l0.084-0.182
		l0.202-0.078h0.572c0.138,0,0.255,0.07,0.351,0.208l2.327,3.354c0.737-0.346,1.105-1.057,1.105-2.132v-1.131
		c0-0.095,0.028-0.169,0.085-0.221l0.214-0.078h0.507l0.215,0.085l0.084,0.214v1.274c0,0.668-0.139,1.239-0.416,1.716
		c-0.278,0.477-0.685,0.841-1.222,1.092l1.352,1.95c0.104,0.13,0.156,0.26,0.156,0.39v0.403l-0.085,0.214L273.207,90.377
		 M266.265,90.377h-0.546l-0.214-0.085l-0.085-0.214v-3.887c0-1.491-0.741-2.236-2.223-2.236h-2.418l-0.215-0.078l-0.085-0.208
		v-0.416c0-0.095,0.028-0.169,0.085-0.221l0.215-0.078h2.483c2.201,0,3.302,1.066,3.302,3.198v3.926l-0.084,0.214L266.265,90.377
		 M261.325,90.377h-0.546l-0.215-0.085l-0.085-0.214V85.71l0.085-0.215l0.215-0.084h0.546l0.215,0.084l0.085,0.215v4.368
		l-0.085,0.214L261.325,90.377 M276.197,87.361h-0.572l-0.215-0.084l-0.085-0.215v-3.809c0-0.095,0.028-0.169,0.085-0.221
		l0.215-0.078h0.572l0.214,0.085l0.085,0.214v3.809l-0.085,0.215L276.197,87.361"/>
	<path fill="#000000" d="M280.201,107.357c-0.039,0-0.078,0-0.118-0.001h-0.962c-0.563,0-1.07-0.13-1.521-0.39
		c-0.451-0.26-0.804-0.626-1.06-1.099c-0.256-0.472-0.384-1.016-0.384-1.631v-4.082c0-0.095,0.028-0.169,0.085-0.221l0.214-0.078
		h0.507l0.214,0.085l0.085,0.214l0.039,3.692c0.789-0.061,1.337-0.273,1.645-0.637c0.308-0.364,0.462-0.841,0.462-1.43v-1.625
		l0.085-0.214l0.214-0.085h0.507l0.215,0.085l0.085,0.214v1.677c0,0.832-0.264,1.517-0.793,2.054
		c-0.529,0.537-1.304,0.832-2.327,0.884c0.138,0.503,0.396,0.891,0.773,1.164c0.377,0.273,0.83,0.41,1.359,0.41h0.416
		c0.015,0,0.029,0,0.043,0c0.802,0,1.429-0.238,1.881-0.715c0.459-0.485,0.689-1.131,0.689-1.937v-3.536l0.085-0.214l0.215-0.085
		h0.507l0.214,0.085l0.085,0.214v3.614c0,0.728-0.15,1.367-0.449,1.918c-0.299,0.55-0.719,0.971-1.261,1.261
		C281.438,107.22,280.855,107.357,280.201,107.357 M259.753,107.357c-0.039,0-0.078,0-0.118-0.001h-0.962
		c-0.563,0-1.07-0.13-1.521-0.39c-0.451-0.26-0.804-0.626-1.06-1.099c-0.256-0.472-0.383-1.016-0.383-1.631v-4.082
		c0-0.095,0.028-0.169,0.085-0.221l0.215-0.078h0.507l0.214,0.085l0.085,0.214l0.039,3.692c0.789-0.061,1.337-0.273,1.645-0.637
		c0.308-0.364,0.461-0.841,0.461-1.43v-1.625l0.085-0.214l0.214-0.085h0.507l0.215,0.085l0.085,0.214v1.677
		c0,0.832-0.264,1.517-0.793,2.054c-0.529,0.537-1.305,0.832-2.327,0.884c0.138,0.503,0.396,0.891,0.773,1.164
		c0.377,0.273,0.83,0.41,1.359,0.41h0.416c0.015,0,0.029,0,0.043,0c0.802,0,1.429-0.238,1.881-0.715
		c0.459-0.485,0.689-1.131,0.689-1.937v-3.536l0.085-0.214l0.215-0.085h0.507l0.214,0.085l0.085,0.214v3.614
		c0,0.728-0.15,1.367-0.449,1.918c-0.299,0.55-0.719,0.971-1.261,1.261C260.989,107.22,260.407,107.357,259.753,107.357
		 M273.974,107.277h-0.572l-0.215-0.085l-0.084-0.214v-6.825c0-0.095,0.028-0.169,0.084-0.221l0.215-0.078h0.572l0.214,0.085
		l0.085,0.214v6.825l-0.085,0.214L273.974,107.277 M270.854,107.277H267.5l-0.208-0.085l-0.078-0.214v-0.416l0.078-0.215
		l0.208-0.084h2.509v-3.159c0-0.659-0.167-1.194-0.5-1.605c-0.334-0.412-0.756-0.617-1.268-0.617h-1.378l-1.001,6.084l-0.11,0.221
		l-0.215,0.091h-0.546l-0.202-0.091l-0.058-0.221l1.04-6.084h-0.663l-0.214-0.085l-0.085-0.214v-0.429l0.085-0.214l0.214-0.085
		h3.263c0.537,0,1.016,0.128,1.437,0.384c0.42,0.256,0.75,0.622,0.988,1.099c0.238,0.477,0.358,1.04,0.358,1.69v3.952l-0.085,0.214
		L270.854,107.277 M253.525,107.277h-0.572l-0.215-0.085l-0.084-0.214v-6.825c0-0.095,0.028-0.169,0.084-0.221l0.215-0.078h0.572
		l0.215,0.085l0.084,0.214v6.825l-0.084,0.214L253.525,107.277 M250.405,107.277h-5.447l-0.214-0.085l-0.085-0.214v-6.825
		c0-0.095,0.028-0.169,0.085-0.221l0.214-0.078h2.457c1.109,0,1.935,0.264,2.476,0.793c0.542,0.529,0.813,1.322,0.813,2.379v3.952
		l-0.084,0.214L250.405,107.277 M245.738,100.855v5.408h3.848v-3.172c0-1.491-0.745-2.236-2.236-2.236H245.738"/>
	<path fill="#000000" d="M280.175,141.207l-0.163-0.065l-0.071-0.182v-0.572c0-0.156,0.095-0.273,0.286-0.351l0.507-0.195
		c0.598-0.225,1.057-0.55,1.378-0.975c0.32-0.425,0.481-1.049,0.481-1.872c0-0.581-0.069-1.038-0.208-1.372
		c-0.139-0.334-0.366-0.574-0.682-0.722c-0.316-0.147-0.752-0.221-1.307-0.221h-0.403h-0.039l-1.196-0.013l-0.215-0.078
		l-0.084-0.208v-2.236l0.084-0.214l0.215-0.085h0.52l0.208,0.085l0.078,0.214v1.508h1.001c0.788,0,1.415,0.113,1.879,0.338
		c0.464,0.226,0.799,0.585,1.007,1.079c0.208,0.494,0.312,1.153,0.312,1.976c0,1.109-0.273,1.974-0.819,2.593
		c-0.546,0.62-1.257,1.077-2.132,1.372l-0.546,0.182L280.175,141.207 M262.547,141.207l-0.162-0.065l-0.072-0.182v-0.572
		c0-0.156,0.095-0.273,0.286-0.351l0.507-0.195c0.598-0.225,1.057-0.55,1.378-0.975c0.32-0.425,0.481-1.049,0.481-1.872
		c0-0.581-0.069-1.038-0.208-1.372c-0.139-0.334-0.366-0.574-0.682-0.722c-0.316-0.147-0.752-0.221-1.306-0.221h-0.403h-0.039
		l-1.196-0.013l-0.215-0.078l-0.085-0.208v-2.236l0.085-0.214l0.215-0.085h0.52l0.208,0.085l0.078,0.214v1.508h1.001
		c0.789,0,1.415,0.113,1.879,0.338c0.464,0.226,0.8,0.585,1.008,1.079s0.312,1.153,0.312,1.976c0,1.109-0.273,1.974-0.819,2.593
		c-0.546,0.62-1.257,1.077-2.132,1.372l-0.546,0.182L262.547,141.207 M276.678,141.077h-3.354l-0.208-0.085l-0.078-0.214v-0.416
		l0.078-0.215l0.208-0.084h2.509v-3.159c0-0.659-0.167-1.194-0.501-1.605c-0.334-0.411-0.756-0.617-1.267-0.617h-1.378l-1.001,6.084
		l-0.11,0.221l-0.214,0.091h-0.546l-0.201-0.091l-0.058-0.221l1.04-6.084h-0.663l-0.215-0.085l-0.085-0.214v-0.429l0.085-0.215
		l0.215-0.085h3.263c0.537,0,1.016,0.128,1.436,0.384c0.42,0.256,0.75,0.622,0.988,1.099c0.238,0.477,0.358,1.04,0.358,1.69v3.952
		l-0.085,0.214L276.678,141.077 M258.738,141.077h-0.572l-0.214-0.085l-0.085-0.214v-6.825c0-0.095,0.028-0.169,0.085-0.221
		l0.214-0.078h0.572l0.215,0.085l0.084,0.215v6.825l-0.084,0.214L258.738,141.077 M252.628,141.077h-0.897l-0.208-0.085
		l-0.078-0.214v-0.871c0-0.095,0.026-0.171,0.078-0.228l0.208-0.085h0.897c0.095,0,0.171,0.028,0.228,0.085
		c0.056,0.056,0.085,0.132,0.085,0.228v0.871l-0.091,0.214L252.628,141.077 M268.631,138.061h-0.572l-0.215-0.084l-0.085-0.215
		v-3.809c0-0.095,0.028-0.169,0.085-0.221l0.215-0.078h0.572l0.214,0.085l0.085,0.215v3.809l-0.085,0.215L268.631,138.061
		 M255.644,138.061h-0.572l-0.215-0.084l-0.084-0.215v-3.809c0-0.095,0.028-0.169,0.084-0.221l0.215-0.078h0.572l0.214,0.085
		l0.085,0.215v3.809l-0.085,0.215L255.644,138.061 M252.628,136.527h-0.897l-0.208-0.085l-0.078-0.214v-0.871
		c0-0.095,0.026-0.171,0.078-0.227l0.208-0.085h0.897c0.095,0,0.171,0.028,0.228,0.085c0.056,0.056,0.085,0.132,0.085,0.227v0.871
		l-0.091,0.214L252.628,136.527"/>
	<path fill="#000000" d="M175.553,160.46h-0.533l-0.214-0.078c-0.056-0.052-0.085-0.126-0.085-0.221v-6.851l0.085-0.214l0.214-0.085
		h0.533l0.215,0.085l0.084,0.214v6.851l-0.084,0.214L175.553,160.46 M163.749,160.044l-0.201-0.085l-0.085-0.214v-0.429l0.078-0.201
		l0.182-0.085c0.485-0.009,0.869-0.176,1.151-0.501c0.281-0.325,0.483-0.851,0.604-1.579c0.121-0.728,0.182-1.725,0.182-2.99
		c0-1.265-0.061-2.26-0.182-2.983c-0.121-0.724-0.323-1.248-0.604-1.573c-0.282-0.325-0.665-0.492-1.151-0.501l-0.182-0.084
		l-0.078-0.202v-0.429l0.085-0.214l0.201-0.085c0.745,0,1.337,0.21,1.775,0.63c0.438,0.421,0.752,1.071,0.943,1.95
		c0.19,0.88,0.286,2.043,0.286,3.49c0,1.447-0.096,2.613-0.286,3.497c-0.191,0.884-0.505,1.536-0.943,1.956
		C165.086,159.834,164.494,160.044,163.749,160.044 M36.26,160.044c-0.745,0-1.337-0.21-1.774-0.63
		c-0.438-0.42-0.752-1.073-0.943-1.956c-0.191-0.884-0.286-2.05-0.286-3.497c0-1.447,0.095-2.611,0.286-3.49
		c0.19-0.88,0.505-1.529,0.943-1.95c0.438-0.42,1.029-0.63,1.774-0.63l0.215,0.085l0.085,0.214v0.429l-0.078,0.202l-0.182,0.084
		c-0.494,0.009-0.88,0.176-1.157,0.501c-0.278,0.325-0.477,0.849-0.598,1.573c-0.121,0.724-0.182,1.718-0.182,2.983
		c0,1.274,0.06,2.273,0.182,2.997c0.121,0.724,0.321,1.248,0.598,1.573c0.277,0.325,0.663,0.492,1.157,0.501l0.182,0.085
		l0.078,0.201v0.429l-0.085,0.214L36.26,160.044 M105.731,158.705l-0.182-0.065l-0.078-0.169v-0.403
		c0-0.199,0.069-0.321,0.208-0.364l1.703-0.572l-1.69-6.058c-0.043-0.147-0.065-0.234-0.065-0.26l0.078-0.182l0.182-0.078h0.598
		l0.195,0.059l0.104,0.136l1.664,6.032c0.685-0.243,1.164-0.585,1.437-1.027c0.273-0.442,0.409-0.997,0.409-1.664v-3.237
		l0.085-0.215l0.215-0.085h0.546c0.095,0,0.169,0.026,0.221,0.078c0.052,0.052,0.078,0.126,0.078,0.221v3.588
		c0,0.763-0.251,1.45-0.754,2.061c-0.503,0.611-1.174,1.042-2.015,1.293l-2.834,0.897L105.731,158.705 M87.05,158.705l-0.182-0.065
		l-0.078-0.169v-0.403c0-0.199,0.069-0.321,0.208-0.364l1.703-0.572l-1.69-6.058c-0.043-0.147-0.065-0.234-0.065-0.26l0.078-0.182
		l0.182-0.078h0.598l0.195,0.059l0.104,0.136l1.664,6.032c0.685-0.243,1.164-0.585,1.437-1.027c0.273-0.442,0.409-0.997,0.409-1.664
		v-3.237l0.085-0.215l0.215-0.085h0.546c0.095,0,0.169,0.026,0.221,0.078c0.052,0.052,0.078,0.126,0.078,0.221v3.588
		c0,0.763-0.251,1.45-0.754,2.061c-0.503,0.611-1.174,1.042-2.015,1.293l-2.834,0.897L87.05,158.705 M196.222,158.107
		c-1.136,0-1.963-0.271-2.483-0.813c-0.52-0.541-0.78-1.332-0.78-2.373v-4.069c0-0.095,0.028-0.169,0.084-0.221l0.215-0.078h0.494
		c0.095,0,0.169,0.026,0.221,0.078c0.052,0.052,0.078,0.126,0.078,0.221v4.004c0,0.72,0.18,1.27,0.539,1.651
		c0.36,0.382,0.903,0.572,1.632,0.572c0.719,0,1.25-0.175,1.593-0.527c0.342-0.351,0.522-0.882,0.539-1.592v-0.403v-0.936
		c-0.018-0.711-0.169-1.239-0.455-1.586c-0.286-0.346-0.676-0.52-1.17-0.52c-0.156,0-0.329,0.028-0.52,0.085
		c-0.191,0.056-0.356,0.128-0.494,0.214l-0.13,0.039l-0.163-0.072l-0.072-0.162v-0.377c0-0.104,0.009-0.186,0.026-0.247l0.143-0.156
		c0.182-0.121,0.375-0.21,0.578-0.267c0.204-0.056,0.462-0.084,0.774-0.084c0.84,0,1.48,0.245,1.917,0.734
		c0.438,0.49,0.67,1.246,0.696,2.269c0.008,0.087,0.013,0.342,0.013,0.767c0,0.425-0.005,0.68-0.013,0.767
		c-0.035,1.04-0.306,1.814-0.813,2.321C198.166,157.854,197.349,158.107,196.222,158.107 M177.398,158.107l-0.163-0.065
		l-0.071-0.182v-0.572c0-0.156,0.095-0.273,0.286-0.351l0.507-0.195c0.598-0.225,1.057-0.55,1.378-0.975
		c0.321-0.425,0.481-1.048,0.481-1.872c0-0.581-0.069-1.038-0.208-1.372c-0.139-0.334-0.366-0.574-0.682-0.722
		c-0.316-0.147-0.752-0.221-1.307-0.221h-2.6l-0.214-0.085l-0.085-0.214v-0.442l0.085-0.208l0.214-0.078h2.756
		c0.797,0,1.428,0.113,1.891,0.338c0.464,0.226,0.8,0.585,1.008,1.079s0.312,1.153,0.312,1.976c0,1.109-0.273,1.974-0.819,2.594
		c-0.546,0.62-1.257,1.077-2.132,1.372l-0.546,0.182L177.398,158.107 M81.928,158.107l-0.163-0.065l-0.072-0.182v-0.572
		c0-0.156,0.095-0.273,0.286-0.351l0.507-0.195c0.598-0.225,1.057-0.55,1.378-0.975c0.321-0.425,0.481-1.048,0.481-1.872
		c0-0.581-0.07-1.038-0.208-1.372c-0.139-0.334-0.366-0.574-0.682-0.722c-0.316-0.147-0.752-0.221-1.307-0.221h-0.403h-0.039
		l-1.196-0.013l-0.215-0.078l-0.084-0.208v-2.236l0.084-0.214l0.215-0.085h0.52l0.208,0.085l0.078,0.214v1.508h1.001
		c0.789,0,1.415,0.113,1.879,0.338c0.464,0.226,0.8,0.585,1.008,1.079s0.312,1.153,0.312,1.976c0,1.109-0.273,1.974-0.819,2.594
		c-0.546,0.62-1.257,1.077-2.132,1.372l-0.546,0.182L81.928,158.107 M46.621,158.107l-0.162-0.065l-0.072-0.182v-0.572
		c0-0.156,0.095-0.273,0.286-0.351l0.507-0.195c0.598-0.225,1.057-0.55,1.378-0.975c0.321-0.425,0.481-1.048,0.481-1.872
		c0-0.581-0.069-1.038-0.208-1.372c-0.139-0.334-0.366-0.574-0.682-0.722c-0.316-0.147-0.752-0.221-1.307-0.221h-0.403H46.4
		l-1.196-0.013l-0.214-0.078l-0.085-0.208v-2.236l0.085-0.214l0.214-0.085h0.52l0.208,0.085l0.078,0.214v1.508h1.001
		c0.789,0,1.415,0.113,1.879,0.338c0.464,0.226,0.8,0.585,1.007,1.079c0.208,0.494,0.312,1.153,0.312,1.976
		c0,1.109-0.273,1.974-0.819,2.594c-0.546,0.62-1.257,1.077-2.132,1.372l-0.546,0.182L46.621,158.107 M239.771,158.094
		c-0.147,0-0.221-0.07-0.221-0.208v-0.611c0-0.147,0.091-0.255,0.273-0.325c0.026-0.009,0.197-0.067,0.513-0.176
		c0.316-0.108,0.6-0.245,0.852-0.41c0.26-0.165,0.516-0.392,0.767-0.682c0.251-0.29,0.429-0.565,0.533-0.825l-0.234-1.17
		c-0.104-0.511-0.215-0.917-0.331-1.216c-0.117-0.299-0.275-0.527-0.474-0.682c-0.2-0.156-0.459-0.234-0.78-0.234h-0.481
		l-0.215-0.078l-0.084-0.208v-0.442l0.084-0.214l0.215-0.085h0.481c0.554,0,1.009,0.113,1.365,0.338
		c0.355,0.225,0.639,0.561,0.851,1.008c0.212,0.446,0.392,1.029,0.539,1.748l0.78,4.056v0.052l-0.084,0.176l-0.202,0.071h-0.572
		c-0.165,0-0.264-0.1-0.299-0.299l-0.299-1.521c-0.321,0.494-0.689,0.88-1.105,1.157c-0.321,0.217-0.62,0.384-0.897,0.5
		c-0.278,0.117-0.572,0.206-0.884,0.267L239.771,158.094 M124.424,158.094c-0.147,0-0.221-0.07-0.221-0.208v-0.611
		c0-0.147,0.091-0.255,0.273-0.325c0.026-0.009,0.197-0.067,0.514-0.176c0.316-0.108,0.6-0.245,0.851-0.41
		c0.26-0.165,0.516-0.392,0.767-0.682c0.251-0.29,0.429-0.565,0.533-0.825l-0.234-1.17c-0.104-0.511-0.214-0.917-0.331-1.216
		c-0.117-0.299-0.275-0.527-0.474-0.682c-0.199-0.156-0.459-0.234-0.78-0.234h-0.481l-0.215-0.078l-0.084-0.208v-0.442l0.084-0.214
		l0.215-0.085h0.481c0.554,0,1.01,0.113,1.365,0.338c0.355,0.225,0.639,0.561,0.851,1.008c0.212,0.446,0.392,1.029,0.54,1.748
		l0.78,4.056v0.052l-0.085,0.176l-0.202,0.071h-0.572c-0.165,0-0.264-0.1-0.299-0.299l-0.299-1.521
		c-0.321,0.494-0.689,0.88-1.105,1.157c-0.321,0.217-0.62,0.384-0.897,0.5c-0.277,0.117-0.572,0.206-0.884,0.267L124.424,158.094
		 M54.954,158.094c-0.148,0-0.221-0.07-0.221-0.208v-0.611c0-0.147,0.091-0.255,0.273-0.325c0.026-0.009,0.197-0.067,0.514-0.176
		c0.316-0.108,0.6-0.245,0.852-0.41c0.26-0.165,0.516-0.392,0.767-0.682c0.251-0.29,0.429-0.565,0.533-0.825l-0.234-1.17
		c-0.104-0.511-0.215-0.917-0.331-1.216c-0.117-0.299-0.275-0.527-0.475-0.682c-0.199-0.156-0.459-0.234-0.78-0.234H55.37
		l-0.215-0.078l-0.085-0.208v-0.442l0.085-0.214l0.215-0.085h0.481c0.555,0,1.01,0.113,1.365,0.338
		c0.355,0.225,0.639,0.561,0.851,1.008c0.212,0.446,0.392,1.029,0.539,1.748l0.78,4.056v0.052l-0.084,0.176l-0.202,0.071h-0.572
		c-0.165,0-0.264-0.1-0.299-0.299l-0.299-1.521c-0.321,0.494-0.689,0.88-1.105,1.157c-0.321,0.217-0.62,0.384-0.897,0.5
		c-0.278,0.117-0.572,0.206-0.884,0.267L54.954,158.094 M143.873,158.057c-0.039,0-0.078,0-0.118-0.001h-0.962
		c-0.563,0-1.07-0.13-1.521-0.39c-0.451-0.26-0.804-0.626-1.06-1.099c-0.256-0.472-0.383-1.016-0.383-1.632v-4.082
		c0-0.095,0.028-0.169,0.084-0.221l0.215-0.078h0.507l0.214,0.085l0.085,0.215l0.039,3.692c0.788-0.061,1.337-0.273,1.644-0.637
		c0.308-0.364,0.462-0.841,0.462-1.43v-1.625l0.085-0.215l0.215-0.085h0.507l0.214,0.085l0.085,0.215v1.677
		c0,0.832-0.264,1.517-0.793,2.054c-0.529,0.537-1.305,0.832-2.327,0.884c0.138,0.503,0.396,0.89,0.773,1.164
		c0.377,0.273,0.83,0.409,1.359,0.409h0.416c0.015,0,0.029,0,0.043,0c0.802,0,1.429-0.238,1.881-0.715
		c0.459-0.485,0.689-1.131,0.689-1.937v-3.536l0.084-0.215l0.215-0.085h0.507l0.214,0.085l0.085,0.215v3.614
		c0,0.728-0.149,1.367-0.449,1.917c-0.299,0.55-0.719,0.971-1.261,1.261C145.109,157.92,144.527,158.057,143.873,158.057
		 M237.678,157.977h-0.546l-0.214-0.085l-0.085-0.214v-3.887c0-1.491-0.745-2.236-2.236-2.236h-1.677l-0.215-0.078l-0.084-0.208
		v-0.416l0.084-0.215l0.215-0.085h1.755c2.201,0,3.302,1.058,3.302,3.172v3.952l-0.085,0.214L237.678,157.977 M224.653,157.977
		h-0.546l-0.214-0.085l-0.085-0.214v-3.887c0-1.491-0.745-2.236-2.236-2.236h-0.936c-0.087,0.546-0.15,0.999-0.189,1.358
		c-0.039,0.36-0.054,0.769-0.045,1.229l0.026,3.536l-0.085,0.214l-0.215,0.085l-1.807-0.026l-0.215-0.085l-0.084-0.214v-0.39
		l0.084-0.215l0.215-0.084l1.001,0.013v-2.782c-0.009-0.546,0.002-1.008,0.033-1.384c0.03-0.377,0.102-0.795,0.214-1.254h-0.702
		l-0.215-0.078l-0.085-0.208v-0.416c0-0.095,0.028-0.169,0.085-0.221l0.215-0.078h2.782c2.201,0,3.302,1.058,3.302,3.172v3.952
		l-0.084,0.214L224.653,157.977 M216.099,157.977h-0.546l-0.214-0.085l-0.085-0.214v-3.887c0-1.491-0.745-2.236-2.236-2.236h-1.677
		l-0.215-0.078l-0.084-0.208v-0.416l0.084-0.215l0.215-0.085h1.755c2.201,0,3.302,1.058,3.302,3.172v3.952l-0.085,0.214
		L216.099,157.977 M207.948,157.977h-0.546l-0.208-0.078l-0.078-0.208v-4.667c0-0.355,0.03-0.659,0.091-0.91
		c0.061-0.251,0.143-0.437,0.247-0.559h-3.588l-0.214-0.078l-0.085-0.208v-0.416l0.085-0.215l0.214-0.085h5.564
		c0.095,0,0.169,0.026,0.221,0.078c0.052,0.052,0.078,0.126,0.078,0.221v0.416l-0.085,0.208l-0.214,0.078h-0.767
		c-0.121,0.13-0.219,0.334-0.293,0.611c-0.074,0.278-0.11,0.59-0.11,0.936v4.589l-0.091,0.208L207.948,157.977 M190.71,157.977
		h-0.572l-0.214-0.085l-0.085-0.214v-6.825c0-0.095,0.028-0.169,0.085-0.221l0.214-0.078h0.572l0.215,0.085l0.085,0.215v6.825
		l-0.085,0.214L190.71,157.977 M187.59,157.977h-0.546l-0.214-0.085l-0.085-0.214v-3.887c0-1.491-0.745-2.236-2.236-2.236h-1.677
		l-0.215-0.078l-0.084-0.208v-0.416l0.084-0.215l0.215-0.085h1.755c2.201,0,3.302,1.058,3.302,3.172v3.952l-0.085,0.214
		L187.59,157.977 M162.176,157.977h-0.585c-0.113,0-0.199-0.033-0.26-0.098l-0.104-0.111l-2.964-4.173
		c-0.373,0.269-0.626,0.587-0.76,0.956c-0.134,0.369-0.201,0.774-0.201,1.216v1.911l-0.085,0.214l-0.215,0.085h-0.481l-0.215-0.085
		l-0.085-0.214v-1.963c0-0.641,0.098-1.2,0.293-1.677c0.195-0.477,0.579-0.906,1.151-1.287l-1.209-1.69
		c-0.061-0.095-0.091-0.178-0.091-0.247l0.078-0.182l0.182-0.078h0.572c0.139,0,0.26,0.074,0.364,0.221l2.73,3.809
		c0.312-0.182,0.539-0.373,0.682-0.572c0.143-0.199,0.232-0.396,0.266-0.592c0.035-0.195,0.052-0.448,0.052-0.76v-1.807l0.085-0.215
		l0.214-0.085h0.507l0.215,0.085l0.084,0.215v1.859c0,0.589-0.102,1.094-0.305,1.515c-0.204,0.42-0.613,0.813-1.229,1.176
		l1.482,2.067l0.091,0.247l-0.078,0.182L162.176,157.977 M151.841,157.977h-2.236l-0.215-0.085l-0.084-0.214v-0.429l0.084-0.215
		l0.215-0.084h2.171c0.607,0,1.075-0.195,1.404-0.585c0.329-0.39,0.507-0.94,0.533-1.651c0.008-0.087,0.013-0.238,0.013-0.455
		c0-0.208-0.005-0.355-0.013-0.442c-0.018-0.71-0.193-1.261-0.527-1.651c-0.334-0.39-0.804-0.585-1.411-0.585h-1.599v1.04
		c0,0.347,0.039,0.62,0.117,0.819c0.078,0.199,0.212,0.325,0.403,0.377l0.494,0.13l0.163,0.137c0.039,0.074,0.058,0.162,0.058,0.266
		v0.299c0,0.096-0.048,0.165-0.143,0.208c-0.068,0.031-0.141,0.047-0.217,0.047c-0.031,0-0.062-0.002-0.094-0.007l-0.507-0.104
		c-0.867-0.19-1.3-0.927-1.3-2.21v-1.729c0-0.095,0.028-0.169,0.085-0.221l0.215-0.078h2.392c0.953,0,1.677,0.278,2.171,0.832
		c0.494,0.555,0.758,1.348,0.793,2.379c0.009,0.087,0.013,0.251,0.013,0.494c0,0.251-0.004,0.42-0.013,0.507
		c-0.035,1.031-0.299,1.824-0.793,2.379C153.518,157.7,152.794,157.977,151.841,157.977 M137.71,157.977h-0.546l-0.214-0.085
		l-0.085-0.214v-3.887c0-1.491-0.745-2.236-2.236-2.236h-1.677l-0.215-0.078l-0.084-0.208v-0.416l0.084-0.215l0.215-0.085h1.755
		c2.201,0,3.302,1.058,3.302,3.172v3.952l-0.084,0.214L137.71,157.977 M122.332,157.977h-5.447l-0.215-0.085l-0.084-0.214v-6.825
		c0-0.095,0.028-0.169,0.084-0.221l0.215-0.078h2.457c1.109,0,1.935,0.265,2.477,0.793c0.541,0.529,0.813,1.322,0.813,2.379v3.952
		l-0.085,0.214L122.332,157.977 M117.665,151.555v5.408h3.848v-3.172c0-1.491-0.745-2.236-2.236-2.236H117.665 M103.651,157.977
		h-5.447l-0.215-0.085l-0.084-0.214v-6.825c0-0.095,0.028-0.169,0.084-0.221l0.215-0.078h2.457c1.109,0,1.935,0.265,2.476,0.793
		c0.541,0.529,0.813,1.322,0.813,2.379v3.952l-0.085,0.214L103.651,157.977 M98.984,151.555v5.408h3.848v-3.172
		c0-1.491-0.745-2.236-2.236-2.236H98.984 M71.984,157.977H68.63l-0.208-0.085l-0.078-0.214v-0.416l0.078-0.215l0.208-0.084h2.509
		v-3.159c0-0.659-0.167-1.194-0.5-1.605c-0.334-0.411-0.756-0.617-1.267-0.617h-1.378l-1.001,6.084l-0.11,0.221l-0.215,0.091h-0.546
		l-0.202-0.091l-0.058-0.221l1.04-6.084h-0.663l-0.214-0.085l-0.085-0.214v-0.429l0.085-0.215l0.214-0.085h3.263
		c0.537,0,1.016,0.128,1.437,0.384c0.42,0.256,0.75,0.622,0.988,1.098c0.238,0.477,0.358,1.04,0.358,1.69v3.952l-0.085,0.214
		L71.984,157.977 M64.223,157.977h-3.471l-0.215-0.085l-0.084-0.214v-0.416l0.084-0.215l0.215-0.084h2.561l-0.208-3.302
		c-0.043-0.563-0.089-0.977-0.136-1.242c-0.048-0.264-0.154-0.479-0.319-0.643c-0.165-0.165-0.421-0.247-0.767-0.247H61.35
		l-0.214-0.078l-0.085-0.208v-0.416l0.085-0.214l0.214-0.085h0.533c0.624,0,1.103,0.123,1.437,0.371
		c0.333,0.247,0.563,0.587,0.689,1.021c0.126,0.433,0.21,1.001,0.253,1.703l0.247,4.056v0.039l-0.085,0.189L64.223,157.977
		 M52.796,157.977h-0.572l-0.215-0.085l-0.084-0.214v-6.825c0-0.095,0.028-0.169,0.084-0.221l0.215-0.078h0.572l0.214,0.085
		l0.085,0.215v6.825l-0.085,0.214L52.796,157.977 M41.733,157.977h-0.546l-0.208-0.078l-0.078-0.208v-4.667
		c0-0.355,0.03-0.659,0.091-0.91c0.06-0.251,0.143-0.437,0.247-0.559h-3.588l-0.215-0.078l-0.084-0.208v-0.416l0.084-0.215
		l0.215-0.085h5.564c0.095,0,0.169,0.026,0.221,0.078c0.052,0.052,0.078,0.126,0.078,0.221v0.416l-0.084,0.208l-0.215,0.078h-0.767
		c-0.121,0.13-0.219,0.334-0.292,0.611c-0.074,0.278-0.11,0.59-0.11,0.936v4.589l-0.091,0.208L41.733,157.977 M172.498,154.961
		h-0.572l-0.214-0.085l-0.085-0.215v-3.809c0-0.095,0.028-0.169,0.085-0.221l0.214-0.078h0.572l0.215,0.085l0.084,0.215v3.809
		l-0.084,0.215L172.498,154.961 M78.21,154.961h-0.572l-0.214-0.085l-0.085-0.215v-3.809c0-0.095,0.028-0.169,0.085-0.221
		l0.214-0.078h0.572l0.214,0.085l0.085,0.215v3.809l-0.085,0.215L78.21,154.961 M230.684,151.594h-0.377
		c-0.156,0-0.243-0.095-0.26-0.286l-0.221-2.262v-0.052l0.071-0.182l0.188-0.065h0.819l0.201,0.085l0.059,0.214l-0.221,2.262
		C230.927,151.499,230.84,151.594,230.684,151.594"/>
	<path fill="#000000" d="M268.176,158.107c-1.118,0-1.935-0.327-2.451-0.981c-0.516-0.654-0.791-1.51-0.826-2.568l-0.013-1.118
		l0.013-1.157c0.026-1.049,0.301-1.9,0.826-2.555c0.524-0.654,1.341-0.981,2.451-0.981c1.118,0,1.939,0.327,2.463,0.981
		c0.524,0.655,0.8,1.506,0.825,2.555c0.009,0.243,0.013,0.628,0.013,1.157c0,0.512-0.004,0.884-0.013,1.118
		c-0.035,1.057-0.31,1.913-0.825,2.568C270.124,157.78,269.302,158.107,268.176,158.107 M268.176,149.813
		c-0.659,0-1.157,0.223-1.495,0.67c-0.338,0.447-0.516,1.068-0.533,1.866l-0.013,1.066l0.013,1.079
		c0.017,0.806,0.195,1.43,0.533,1.872c0.338,0.442,0.836,0.663,1.495,0.663c0.667,0,1.17-0.221,1.508-0.663
		c0.338-0.442,0.516-1.066,0.533-1.872c0.008-0.251,0.013-0.611,0.013-1.079c0-0.477-0.005-0.832-0.013-1.066
		c-0.018-0.797-0.197-1.419-0.539-1.866C269.335,150.036,268.834,149.813,268.176,149.813 M259.947,158.107
		c-1.118,0-1.935-0.327-2.45-0.981c-0.516-0.654-0.791-1.51-0.826-2.568l-0.013-1.118l0.013-1.157
		c0.026-1.049,0.301-1.9,0.826-2.555c0.524-0.654,1.341-0.981,2.45-0.981c1.118,0,1.939,0.327,2.464,0.981
		c0.524,0.655,0.799,1.506,0.825,2.555c0.009,0.243,0.013,0.628,0.013,1.157c0,0.512-0.004,0.884-0.013,1.118
		c-0.035,1.057-0.31,1.913-0.825,2.568C261.895,157.78,261.073,158.107,259.947,158.107 M259.947,149.813
		c-0.659,0-1.157,0.223-1.495,0.67c-0.338,0.447-0.516,1.068-0.533,1.866l-0.013,1.066l0.013,1.079
		c0.017,0.806,0.195,1.43,0.533,1.872c0.338,0.442,0.836,0.663,1.495,0.663c0.667,0,1.17-0.221,1.508-0.663
		c0.338-0.442,0.516-1.066,0.533-1.872c0.009-0.251,0.013-0.611,0.013-1.079c0-0.477-0.004-0.832-0.013-1.066
		c-0.017-0.797-0.197-1.419-0.539-1.866C261.106,150.036,260.605,149.813,259.947,149.813 M251.718,158.107
		c-0.659,0-1.246-0.111-1.762-0.331c-0.516-0.221-0.916-0.539-1.202-0.956s-0.429-0.901-0.429-1.456c0-0.511,0.128-0.96,0.384-1.345
		c0.255-0.386,0.6-0.682,1.033-0.89c-0.347-0.199-0.615-0.462-0.806-0.787c-0.191-0.325-0.286-0.708-0.286-1.151
		c0-0.754,0.282-1.35,0.845-1.787c0.563-0.438,1.304-0.657,2.223-0.657c0.918,0,1.658,0.217,2.216,0.65
		c0.559,0.434,0.839,1.031,0.839,1.794c0,0.434-0.096,0.813-0.286,1.138c-0.191,0.325-0.455,0.592-0.793,0.8
		c0.433,0.208,0.778,0.505,1.033,0.89c0.255,0.386,0.383,0.838,0.383,1.358c0,0.555-0.143,1.038-0.429,1.45
		c-0.286,0.412-0.687,0.728-1.203,0.949C252.964,157.997,252.377,158.107,251.718,158.107 M251.718,153.661
		c-0.624,0-1.142,0.156-1.554,0.468c-0.412,0.312-0.617,0.728-0.617,1.248c0,0.52,0.206,0.936,0.617,1.248
		c0.412,0.312,0.93,0.468,1.554,0.468c0.615,0,1.129-0.156,1.54-0.468c0.411-0.312,0.617-0.728,0.617-1.248
		c0-0.52-0.206-0.936-0.617-1.248C252.847,153.817,252.333,153.661,251.718,153.661 M251.718,149.761
		c-0.546,0-0.997,0.132-1.352,0.396c-0.356,0.264-0.533,0.618-0.533,1.06s0.178,0.795,0.533,1.059
		c0.355,0.264,0.806,0.396,1.352,0.396c0.529-0.017,0.975-0.156,1.339-0.416c0.364-0.26,0.546-0.607,0.546-1.04
		c0-0.442-0.18-0.795-0.539-1.06C252.704,149.893,252.255,149.761,251.718,149.761"/>
	<path fill="#000000" d="M280.435,157.977h-1.924l-0.215-0.085l-0.084-0.214v-0.429c0-0.095,0.028-0.169,0.084-0.221l0.215-0.078
		h1.859c0.754,0,1.309-0.191,1.664-0.572c0.355-0.381,0.55-0.936,0.585-1.664c0.008-0.121,0.013-0.273,0.013-0.455
		c0-0.173-0.005-0.321-0.013-0.442c-0.026-0.737-0.219-1.293-0.579-1.67c-0.36-0.377-0.916-0.565-1.671-0.565h-1.859l-0.215-0.085
		l-0.084-0.214v-0.429c0-0.095,0.028-0.169,0.084-0.221l0.215-0.078h1.924c1.101,0,1.918,0.275,2.451,0.826
		c0.533,0.55,0.817,1.345,0.851,2.385c0.009,0.121,0.013,0.286,0.013,0.494s-0.005,0.377-0.013,0.507
		c-0.035,1.04-0.318,1.835-0.851,2.385C282.352,157.702,281.535,157.977,280.435,157.977 M276.132,151.568h-2.769l-0.208-0.078
		l-0.078-0.208v-0.442l0.078-0.208l0.208-0.078h2.769l0.208,0.078l0.078,0.208v0.442l-0.078,0.208L276.132,151.568"/>
	<path fill="#000000" d="M197.353,175.007c-1.136,0-1.963-0.271-2.483-0.813c-0.52-0.542-0.78-1.332-0.78-2.373v-4.069
		c0-0.095,0.028-0.169,0.084-0.221l0.215-0.078h0.494c0.095,0,0.169,0.026,0.221,0.078c0.052,0.052,0.078,0.126,0.078,0.221v4.004
		c0,0.72,0.18,1.27,0.539,1.651c0.36,0.381,0.903,0.572,1.632,0.572c0.719,0,1.25-0.176,1.592-0.527
		c0.342-0.351,0.522-0.882,0.539-1.592v-0.403v-0.936c-0.018-0.711-0.169-1.239-0.455-1.586c-0.286-0.347-0.676-0.52-1.17-0.52
		c-0.156,0-0.329,0.028-0.52,0.085c-0.191,0.056-0.356,0.128-0.494,0.214l-0.13,0.039l-0.163-0.072l-0.072-0.162v-0.377
		c0-0.104,0.009-0.186,0.026-0.247l0.143-0.156c0.182-0.121,0.375-0.21,0.578-0.267c0.204-0.056,0.462-0.084,0.774-0.084
		c0.84,0,1.48,0.245,1.917,0.735c0.438,0.49,0.669,1.246,0.696,2.268c0.008,0.087,0.013,0.342,0.013,0.767
		c0,0.425-0.005,0.68-0.013,0.767c-0.035,1.04-0.306,1.813-0.813,2.32C199.297,174.754,198.48,175.007,197.353,175.007
		 M167.558,175.007l-0.163-0.065l-0.072-0.182v-0.572c0-0.156,0.095-0.273,0.286-0.351l0.507-0.195
		c0.598-0.225,1.057-0.55,1.378-0.975c0.321-0.425,0.481-1.048,0.481-1.872c0-0.581-0.069-1.038-0.208-1.372
		c-0.139-0.333-0.366-0.574-0.682-0.722c-0.316-0.147-0.752-0.221-1.307-0.221h-0.403h-0.039l-1.196-0.013l-0.215-0.078
		l-0.084-0.208v-2.236l0.084-0.214l0.215-0.085h0.52l0.208,0.085l0.078,0.214v1.508h1.001c0.789,0,1.415,0.113,1.879,0.338
		c0.464,0.226,0.8,0.585,1.008,1.079s0.312,1.153,0.312,1.976c0,1.109-0.273,1.974-0.819,2.594c-0.546,0.62-1.257,1.077-2.132,1.371
		l-0.546,0.182L167.558,175.007 M255.189,174.994c-0.147,0-0.221-0.069-0.221-0.208v-0.611c0-0.147,0.091-0.256,0.273-0.325
		c0.026-0.009,0.197-0.067,0.514-0.176c0.316-0.108,0.6-0.245,0.851-0.409c0.26-0.165,0.516-0.392,0.767-0.683
		c0.251-0.29,0.429-0.565,0.533-0.825l-0.234-1.17c-0.104-0.511-0.214-0.917-0.331-1.216c-0.117-0.299-0.275-0.527-0.474-0.682
		c-0.199-0.156-0.46-0.234-0.78-0.234h-0.481l-0.214-0.078l-0.085-0.208v-0.442l0.085-0.215l0.214-0.085h0.481
		c0.554,0,1.01,0.113,1.365,0.338c0.355,0.226,0.639,0.561,0.852,1.008c0.212,0.446,0.392,1.029,0.539,1.748l0.78,4.056v0.052
		l-0.085,0.176l-0.201,0.071h-0.572c-0.165,0-0.264-0.1-0.299-0.299l-0.299-1.521c-0.321,0.494-0.689,0.88-1.105,1.157
		c-0.321,0.217-0.62,0.383-0.897,0.5c-0.277,0.117-0.572,0.206-0.884,0.267L255.189,174.994 M236.678,174.994
		c-0.148,0-0.221-0.069-0.221-0.208v-0.611c0-0.147,0.091-0.256,0.273-0.325c0.026-0.009,0.197-0.067,0.514-0.176
		c0.316-0.108,0.6-0.245,0.852-0.409c0.26-0.165,0.516-0.392,0.767-0.683c0.251-0.29,0.429-0.565,0.533-0.825l-0.234-1.17
		c-0.104-0.511-0.215-0.917-0.331-1.216c-0.117-0.299-0.275-0.527-0.475-0.682c-0.199-0.156-0.459-0.234-0.78-0.234h-0.481
		l-0.215-0.078l-0.085-0.208v-0.442l0.085-0.215l0.215-0.085h0.481c0.555,0,1.01,0.113,1.365,0.338
		c0.355,0.226,0.639,0.561,0.851,1.008c0.212,0.446,0.392,1.029,0.539,1.748l0.78,4.056v0.052l-0.085,0.176l-0.201,0.071h-0.572
		c-0.165,0-0.264-0.1-0.299-0.299l-0.299-1.521c-0.321,0.494-0.689,0.88-1.105,1.157c-0.321,0.217-0.62,0.383-0.897,0.5
		c-0.277,0.117-0.572,0.206-0.884,0.267L236.678,174.994 M160.668,174.994c-0.148,0-0.221-0.069-0.221-0.208v-0.611
		c0-0.147,0.091-0.256,0.273-0.325c0.026-0.009,0.197-0.067,0.514-0.176c0.316-0.108,0.6-0.245,0.852-0.409
		c0.26-0.165,0.516-0.392,0.767-0.683c0.251-0.29,0.429-0.565,0.533-0.825l-0.234-1.17c-0.104-0.511-0.215-0.917-0.331-1.216
		c-0.117-0.299-0.275-0.527-0.475-0.682c-0.199-0.156-0.459-0.234-0.78-0.234h-0.481l-0.215-0.078l-0.085-0.208v-0.442l0.085-0.215
		l0.215-0.085h0.481c0.555,0,1.01,0.113,1.365,0.338c0.355,0.226,0.639,0.561,0.851,1.008c0.212,0.446,0.392,1.029,0.539,1.748
		l0.78,4.056v0.052l-0.085,0.176l-0.201,0.071h-0.572c-0.165,0-0.264-0.1-0.299-0.299l-0.299-1.521
		c-0.321,0.494-0.689,0.88-1.105,1.157c-0.321,0.217-0.62,0.383-0.897,0.5c-0.278,0.117-0.572,0.206-0.884,0.267L160.668,174.994
		 M253.096,174.877h-0.546l-0.214-0.084l-0.085-0.215v-3.887c0-1.49-0.745-2.236-2.236-2.236h-1.677l-0.215-0.078l-0.084-0.208
		v-0.416l0.084-0.215l0.215-0.084h1.755c2.201,0,3.302,1.057,3.302,3.172v3.952l-0.084,0.215L253.096,174.877 M235.156,174.877
		h-5.408l-0.208-0.084l-0.078-0.215v-0.416l0.078-0.214l0.208-0.085h3.757v-3.172c0-1.482-0.745-2.223-2.236-2.223h-1.391
		l-0.208-0.085l-0.078-0.214v-0.416l0.078-0.215l0.208-0.084h1.456c2.219,0,3.328,1.062,3.328,3.185v3.224h0.494l0.208,0.085
		l0.078,0.214v0.416l-0.078,0.215L235.156,174.877 M224.835,174.877h-3.471l-0.214-0.084l-0.085-0.215v-0.416l0.085-0.214
		l0.214-0.085h2.561l-0.208-3.302c-0.043-0.563-0.089-0.977-0.136-1.242c-0.048-0.264-0.154-0.479-0.318-0.643
		c-0.165-0.165-0.42-0.247-0.767-0.247h-0.533l-0.215-0.078l-0.085-0.208v-0.416l0.085-0.215l0.215-0.085h0.533
		c0.624,0,1.103,0.124,1.437,0.371c0.333,0.247,0.563,0.587,0.689,1.021c0.125,0.433,0.21,1.001,0.253,1.703l0.247,4.056v0.039
		l-0.085,0.188L224.835,174.877 M219.245,174.877h-0.546l-0.215-0.084l-0.085-0.215v-3.887c0-1.49-0.745-2.236-2.236-2.236h-0.936
		c-0.087,0.546-0.15,0.999-0.188,1.358c-0.039,0.36-0.054,0.769-0.046,1.229l0.026,3.536l-0.085,0.215l-0.214,0.084l-1.807-0.026
		l-0.214-0.085l-0.085-0.214v-0.39l0.085-0.214l0.214-0.085l1.001,0.013v-2.782c-0.009-0.546,0.002-1.008,0.033-1.385
		c0.03-0.377,0.102-0.795,0.215-1.254h-0.702l-0.215-0.078l-0.084-0.208v-0.416c0-0.095,0.028-0.169,0.084-0.221l0.215-0.078h2.782
		c2.201,0,3.302,1.057,3.302,3.172v3.952l-0.085,0.215L219.245,174.877 M205.036,174.877H202.8l-0.214-0.084l-0.085-0.215v-0.429
		l0.085-0.215l0.214-0.084h2.171c0.607,0,1.075-0.195,1.404-0.585c0.329-0.39,0.507-0.94,0.533-1.651
		c0.009-0.087,0.013-0.238,0.013-0.455c0-0.208-0.004-0.355-0.013-0.442c-0.017-0.711-0.193-1.261-0.527-1.651
		c-0.334-0.39-0.804-0.585-1.41-0.585h-1.599v1.04c0,0.347,0.039,0.62,0.117,0.819c0.078,0.2,0.212,0.325,0.403,0.377l0.494,0.13
		l0.163,0.137c0.039,0.074,0.058,0.163,0.058,0.266v0.299c0,0.096-0.048,0.165-0.143,0.208c-0.068,0.031-0.141,0.047-0.218,0.047
		c-0.031,0-0.062-0.002-0.095-0.007l-0.507-0.104c-0.867-0.19-1.3-0.927-1.3-2.21v-1.729c0-0.095,0.028-0.169,0.085-0.221
		l0.214-0.078h2.392c0.953,0,1.677,0.277,2.171,0.832c0.494,0.555,0.758,1.348,0.793,2.379c0.008,0.087,0.013,0.251,0.013,0.494
		c0,0.251-0.005,0.42-0.013,0.507c-0.035,1.031-0.299,1.824-0.793,2.379C206.713,174.6,205.99,174.877,205.036,174.877
		 M191.906,174.877h-0.546l-0.215-0.084l-0.085-0.215v-3.887c0-1.49-0.741-2.236-2.223-2.236h-2.418l-0.215-0.078l-0.084-0.208
		v-0.416c0-0.095,0.028-0.169,0.084-0.221l0.215-0.078h2.483c2.201,0,3.302,1.066,3.302,3.198v3.926l-0.084,0.215L191.906,174.877
		 M186.967,174.877h-0.546l-0.215-0.084l-0.084-0.215v-4.368l0.084-0.214l0.215-0.085h0.546l0.214,0.085l0.085,0.214v4.368
		l-0.085,0.215L186.967,174.877 M181.429,174.877h-5.408l-0.208-0.084l-0.078-0.215v-0.416l0.078-0.214l0.208-0.085h3.757v-3.172
		c0-1.482-0.745-2.223-2.236-2.223h-1.391l-0.208-0.085l-0.078-0.214v-0.416l0.078-0.215l0.208-0.084h1.456
		c2.219,0,3.328,1.062,3.328,3.185v3.224h0.494l0.208,0.085l0.078,0.214v0.416l-0.078,0.215L181.429,174.877 M173.733,174.877
		h-0.572l-0.214-0.084l-0.085-0.215v-6.825c0-0.095,0.028-0.169,0.085-0.221l0.214-0.078h0.572l0.215,0.084l0.084,0.215v6.825
		l-0.084,0.215L173.733,174.877 M158.575,174.877h-0.546l-0.215-0.084l-0.084-0.215v-3.887c0-1.49-0.745-2.236-2.236-2.236h-1.677
		l-0.214-0.078l-0.085-0.208v-0.416l0.085-0.215l0.214-0.084h1.755c2.201,0,3.302,1.057,3.302,3.172v3.952l-0.085,0.215
		L158.575,174.877 M148.565,174.877h-0.546l-0.214-0.084l-0.085-0.215v-3.887c0-1.49-0.745-2.236-2.236-2.236h-0.936
		c-0.087,0.546-0.149,0.999-0.188,1.358c-0.039,0.36-0.054,0.769-0.045,1.229l0.026,3.536l-0.084,0.215l-0.215,0.084l-1.807-0.026
		l-0.215-0.085l-0.085-0.214v-0.39l0.085-0.214l0.215-0.085l1.001,0.013v-2.782c-0.009-0.546,0.002-1.008,0.033-1.385
		c0.03-0.377,0.102-0.795,0.214-1.254h-0.702l-0.214-0.078l-0.085-0.208v-0.416c0-0.095,0.028-0.169,0.085-0.221l0.214-0.078h2.782
		c2.201,0,3.302,1.057,3.302,3.172v3.952l-0.085,0.215L148.565,174.877 M227.552,171.861h-0.572l-0.214-0.085l-0.085-0.214v-3.809
		c0-0.095,0.028-0.169,0.085-0.221l0.214-0.078h0.572l0.215,0.084l0.085,0.215v3.809l-0.085,0.214L227.552,171.861 M151.594,171.861
		h-0.572l-0.214-0.085l-0.085-0.214v-3.809c0-0.095,0.028-0.169,0.085-0.221l0.214-0.078h0.572l0.215,0.084l0.085,0.215v3.809
		l-0.085,0.214L151.594,171.861 M246.102,168.494h-0.377c-0.156,0-0.243-0.095-0.26-0.286l-0.221-2.262v-0.052l0.071-0.182
		l0.189-0.065h0.819l0.201,0.085l0.059,0.214l-0.221,2.262C246.345,168.399,246.258,168.494,246.102,168.494"/>
	<path fill="#000000" d="M280.344,175.007c-1.118,0-1.935-0.327-2.451-0.981c-0.516-0.654-0.791-1.51-0.825-2.568l-0.013-1.118
		l0.013-1.157c0.026-1.048,0.301-1.9,0.825-2.555c0.524-0.654,1.341-0.981,2.451-0.981c1.118,0,1.939,0.327,2.463,0.981
		c0.524,0.655,0.8,1.506,0.826,2.555c0.008,0.243,0.013,0.628,0.013,1.157c0,0.512-0.005,0.884-0.013,1.118
		c-0.035,1.057-0.31,1.913-0.826,2.568C282.291,174.68,281.47,175.007,280.344,175.007 M280.344,166.713
		c-0.659,0-1.157,0.223-1.495,0.67c-0.338,0.447-0.516,1.068-0.533,1.866l-0.013,1.066l0.013,1.079
		c0.017,0.806,0.195,1.43,0.533,1.872c0.338,0.442,0.836,0.663,1.495,0.663c0.667,0,1.17-0.221,1.508-0.663
		c0.338-0.442,0.515-1.066,0.533-1.872c0.009-0.251,0.013-0.611,0.013-1.079c0-0.476-0.004-0.832-0.013-1.066
		c-0.018-0.797-0.197-1.419-0.539-1.866C281.503,166.936,281.002,166.713,280.344,166.713 M272.323,175.007
		c-0.65,0-1.214-0.117-1.69-0.351c-0.477-0.234-0.841-0.539-1.092-0.916c-0.251-0.377-0.386-0.782-0.403-1.216v-0.026l0.078-0.169
		l0.182-0.065h0.637c0.182,0,0.299,0.096,0.351,0.286c0.13,0.468,0.371,0.817,0.722,1.047c0.351,0.23,0.756,0.344,1.216,0.344
		c0.589,0,1.079-0.18,1.469-0.539c0.39-0.36,0.585-0.856,0.585-1.489c0-0.58-0.195-1.042-0.585-1.384
		c-0.39-0.342-0.88-0.514-1.469-0.514c-0.312,0-0.563,0.039-0.754,0.117c-0.191,0.078-0.386,0.191-0.585,0.338
		c-0.113,0.087-0.206,0.15-0.28,0.188l-0.24,0.059h-0.624l-0.208-0.085l-0.078-0.201l0.403-4.329
		c0.026-0.217,0.134-0.325,0.325-0.325h4.498c0.095,0,0.169,0.026,0.221,0.078c0.052,0.052,0.078,0.126,0.078,0.221v0.481
		l-0.085,0.208l-0.215,0.078h-3.744l-0.234,2.613c0.416-0.295,0.975-0.442,1.677-0.442c0.581,0,1.109,0.115,1.586,0.344
		c0.477,0.23,0.856,0.565,1.138,1.008c0.281,0.442,0.422,0.966,0.422,1.573c0,0.641-0.141,1.194-0.422,1.658
		c-0.282,0.464-0.672,0.815-1.17,1.053C273.534,174.888,272.964,175.007,272.323,175.007 M267.24,174.877h-0.637l-0.208-0.084
		l-0.078-0.215v-7.332l-2.184,1.677l-0.195,0.078l-0.221-0.13l-0.312-0.403l-0.065-0.182c0-0.095,0.043-0.173,0.13-0.234
		l2.821-2.184c0.095-0.06,0.208-0.091,0.338-0.091h0.611l0.215,0.085l0.084,0.214v8.502l-0.084,0.215L267.24,174.877"/>
	<path fill="#000000" d="M202.462,194.26h-0.533l-0.214-0.078c-0.056-0.052-0.085-0.126-0.085-0.221v-6.851l0.085-0.214l0.214-0.085
		h0.533l0.214,0.085l0.085,0.214v6.851l-0.085,0.215L202.462,194.26 M185.159,194.26h-0.533l-0.215-0.078
		c-0.056-0.052-0.084-0.126-0.084-0.221v-6.851l0.084-0.214l0.215-0.085h0.533l0.215,0.085l0.084,0.214v6.851l-0.084,0.215
		L185.159,194.26 M204.308,191.907l-0.163-0.065l-0.071-0.182v-0.572c0-0.156,0.095-0.273,0.286-0.351l0.507-0.195
		c0.598-0.225,1.057-0.55,1.378-0.975c0.321-0.425,0.481-1.048,0.481-1.872c0-0.581-0.069-1.038-0.208-1.372
		c-0.139-0.333-0.366-0.574-0.682-0.722c-0.316-0.147-0.752-0.221-1.307-0.221h-2.6l-0.214-0.085l-0.085-0.214v-0.442l0.085-0.208
		l0.214-0.078h2.756c0.797,0,1.428,0.113,1.891,0.338c0.464,0.226,0.8,0.585,1.008,1.079s0.312,1.153,0.312,1.976
		c0,1.109-0.273,1.974-0.819,2.594c-0.546,0.62-1.257,1.077-2.132,1.371l-0.546,0.182L204.308,191.907 M187.005,191.907
		l-0.163-0.065l-0.071-0.182v-0.572c0-0.156,0.095-0.273,0.286-0.351l0.507-0.195c0.598-0.225,1.057-0.55,1.378-0.975
		c0.321-0.425,0.481-1.048,0.481-1.872c0-0.581-0.069-1.038-0.208-1.372c-0.139-0.333-0.366-0.574-0.682-0.722
		c-0.316-0.147-0.752-0.221-1.307-0.221h-2.6l-0.215-0.085l-0.084-0.214v-0.442l0.084-0.208l0.215-0.078h2.756
		c0.797,0,1.428,0.113,1.892,0.338c0.464,0.226,0.799,0.585,1.007,1.079s0.312,1.153,0.312,1.976c0,1.109-0.273,1.974-0.819,2.594
		c-0.546,0.62-1.257,1.077-2.132,1.371l-0.546,0.182L187.005,191.907 M171.965,191.907l-0.163-0.065l-0.072-0.182v-0.572
		c0-0.156,0.095-0.273,0.286-0.351l0.507-0.195c0.598-0.225,1.057-0.55,1.378-0.975c0.321-0.425,0.481-1.048,0.481-1.872
		c0-0.581-0.069-1.038-0.208-1.372c-0.139-0.333-0.366-0.574-0.682-0.722c-0.316-0.147-0.752-0.221-1.307-0.221h-0.403h-0.039
		l-1.196-0.013l-0.215-0.078l-0.084-0.208v-2.236l0.084-0.214l0.215-0.085h0.52l0.208,0.085l0.078,0.214v1.508h1.001
		c0.789,0,1.415,0.113,1.879,0.338c0.464,0.226,0.8,0.585,1.008,1.079s0.312,1.153,0.312,1.976c0,1.109-0.273,1.974-0.819,2.594
		c-0.546,0.62-1.257,1.077-2.132,1.371l-0.546,0.182L171.965,191.907 M255.189,191.894c-0.147,0-0.221-0.069-0.221-0.208v-0.611
		c0-0.147,0.091-0.255,0.273-0.325c0.026-0.009,0.197-0.067,0.514-0.176c0.316-0.108,0.6-0.245,0.851-0.409
		c0.26-0.165,0.516-0.392,0.767-0.683c0.251-0.29,0.429-0.565,0.533-0.825l-0.234-1.17c-0.104-0.511-0.214-0.917-0.331-1.216
		c-0.117-0.299-0.275-0.527-0.474-0.682c-0.199-0.156-0.46-0.234-0.78-0.234h-0.481l-0.214-0.078l-0.085-0.208v-0.442l0.085-0.215
		l0.214-0.085h0.481c0.554,0,1.01,0.113,1.365,0.338c0.355,0.226,0.639,0.561,0.852,1.008c0.212,0.446,0.392,1.029,0.539,1.748
		l0.78,4.056v0.052l-0.085,0.176l-0.201,0.071h-0.572c-0.165,0-0.264-0.1-0.299-0.299l-0.299-1.521
		c-0.321,0.494-0.689,0.88-1.105,1.157c-0.321,0.217-0.62,0.384-0.897,0.5c-0.277,0.117-0.572,0.206-0.884,0.267L255.189,191.894
		 M236.678,191.894c-0.148,0-0.221-0.069-0.221-0.208v-0.611c0-0.147,0.091-0.255,0.273-0.325c0.026-0.009,0.197-0.067,0.514-0.176
		c0.316-0.108,0.6-0.245,0.852-0.409c0.26-0.165,0.516-0.392,0.767-0.683c0.251-0.29,0.429-0.565,0.533-0.825l-0.234-1.17
		c-0.104-0.511-0.215-0.917-0.331-1.216c-0.117-0.299-0.275-0.527-0.475-0.682c-0.199-0.156-0.459-0.234-0.78-0.234h-0.481
		l-0.215-0.078l-0.085-0.208v-0.442l0.085-0.215l0.215-0.085h0.481c0.555,0,1.01,0.113,1.365,0.338
		c0.355,0.226,0.639,0.561,0.851,1.008c0.212,0.446,0.392,1.029,0.539,1.748l0.78,4.056v0.052l-0.085,0.176l-0.201,0.071h-0.572
		c-0.165,0-0.264-0.1-0.299-0.299l-0.299-1.521c-0.321,0.494-0.689,0.88-1.105,1.157c-0.321,0.217-0.62,0.384-0.897,0.5
		c-0.277,0.117-0.572,0.206-0.884,0.267L236.678,191.894 M196.353,191.857c-0.039,0-0.078,0-0.118-0.001h-0.962
		c-0.563,0-1.07-0.13-1.521-0.39c-0.451-0.26-0.804-0.626-1.06-1.099c-0.256-0.472-0.384-1.016-0.384-1.632v-4.082
		c0-0.095,0.028-0.169,0.085-0.221l0.214-0.078h0.507l0.214,0.084l0.085,0.215l0.039,3.692c0.789-0.061,1.337-0.273,1.645-0.637
		c0.308-0.364,0.462-0.841,0.462-1.43v-1.625l0.085-0.215l0.214-0.084h0.507l0.215,0.084l0.085,0.215v1.677
		c0,0.832-0.264,1.517-0.793,2.054c-0.529,0.537-1.304,0.832-2.327,0.884c0.138,0.503,0.396,0.89,0.773,1.164
		c0.377,0.273,0.83,0.409,1.359,0.409h0.416c0.015,0,0.029,0,0.043,0c0.803,0,1.429-0.238,1.881-0.715
		c0.459-0.485,0.689-1.131,0.689-1.937v-3.536l0.085-0.215l0.215-0.084h0.507l0.214,0.084l0.085,0.215v3.614
		c0,0.728-0.15,1.367-0.449,1.917c-0.299,0.55-0.719,0.971-1.261,1.261C197.59,191.72,197.007,191.857,196.353,191.857
		 M253.096,191.777h-0.546l-0.214-0.084l-0.085-0.215v-3.887c0-1.49-0.745-2.236-2.236-2.236h-1.677l-0.215-0.078l-0.084-0.208
		v-0.416l0.084-0.215l0.215-0.084h1.755c2.201,0,3.302,1.057,3.302,3.172v3.952l-0.084,0.215L253.096,191.777 M235.156,191.777
		h-5.408l-0.208-0.084l-0.078-0.215v-0.416l0.078-0.214l0.208-0.085h3.757v-3.172c0-1.482-0.745-2.223-2.236-2.223h-1.391
		l-0.208-0.085l-0.078-0.214v-0.416l0.078-0.215l0.208-0.084h1.456c2.219,0,3.328,1.062,3.328,3.185v3.224h0.494l0.208,0.085
		l0.078,0.214v0.416l-0.078,0.215L235.156,191.777 M224.835,191.777h-3.471l-0.214-0.084l-0.085-0.215v-0.416l0.085-0.214
		l0.214-0.085h2.561l-0.208-3.302c-0.043-0.563-0.089-0.977-0.136-1.242c-0.048-0.264-0.154-0.479-0.318-0.644
		c-0.165-0.165-0.42-0.247-0.767-0.247h-0.533l-0.215-0.078l-0.085-0.208v-0.416l0.085-0.215l0.215-0.085h0.533
		c0.624,0,1.103,0.124,1.437,0.371c0.333,0.247,0.563,0.587,0.689,1.021c0.125,0.433,0.21,1.001,0.253,1.703l0.247,4.056v0.039
		l-0.085,0.188L224.835,191.777 M219.245,191.777h-0.546l-0.215-0.084l-0.085-0.215v-3.887c0-1.49-0.745-2.236-2.236-2.236h-0.936
		c-0.087,0.546-0.15,0.999-0.188,1.358c-0.039,0.36-0.054,0.769-0.046,1.229l0.026,3.536l-0.085,0.215l-0.214,0.084l-1.807-0.026
		l-0.214-0.085l-0.085-0.214v-0.39l0.085-0.214l0.214-0.085l1.001,0.013v-2.782c-0.009-0.546,0.002-1.008,0.033-1.384
		c0.03-0.377,0.102-0.795,0.215-1.254h-0.702l-0.215-0.078l-0.084-0.208v-0.416c0-0.095,0.028-0.169,0.084-0.221l0.215-0.078h2.782
		c2.201,0,3.302,1.057,3.302,3.172v3.952l-0.085,0.215L219.245,191.777 M182.65,191.777h-5.408l-0.208-0.084l-0.078-0.215v-0.416
		l0.078-0.214l0.208-0.085H181v-3.172c0-1.482-0.745-2.223-2.236-2.223h-1.391l-0.208-0.085l-0.078-0.214v-0.416l0.078-0.215
		l0.208-0.084h1.456c2.219,0,3.328,1.062,3.328,3.185v3.224h0.494l0.208,0.085l0.078,0.214v0.416l-0.078,0.215L182.65,191.777
		 M227.552,188.761h-0.572l-0.214-0.085l-0.085-0.214v-3.809c0-0.095,0.028-0.169,0.085-0.221l0.214-0.078h0.572l0.215,0.084
		l0.085,0.215v3.809l-0.085,0.214L227.552,188.761 M246.102,185.394h-0.377c-0.156,0-0.243-0.095-0.26-0.286l-0.221-2.262v-0.052
		l0.071-0.182l0.189-0.065h0.819l0.201,0.085l0.059,0.214l-0.221,2.262C246.345,185.299,246.258,185.394,246.102,185.394"/>
	<path fill="#000000" d="M280.344,191.907c-1.118,0-1.935-0.327-2.451-0.981c-0.516-0.654-0.791-1.51-0.825-2.568l-0.013-1.118
		l0.013-1.157c0.026-1.048,0.301-1.9,0.825-2.554c0.524-0.654,1.341-0.982,2.451-0.982c1.118,0,1.939,0.327,2.463,0.982
		c0.524,0.654,0.8,1.506,0.826,2.554c0.008,0.243,0.013,0.628,0.013,1.157c0,0.512-0.005,0.884-0.013,1.118
		c-0.035,1.057-0.31,1.913-0.826,2.568C282.291,191.58,281.47,191.907,280.344,191.907 M280.344,183.613
		c-0.659,0-1.157,0.223-1.495,0.67c-0.338,0.447-0.516,1.068-0.533,1.866l-0.013,1.066l0.013,1.079
		c0.017,0.806,0.195,1.43,0.533,1.872c0.338,0.442,0.836,0.663,1.495,0.663c0.667,0,1.17-0.221,1.508-0.663
		c0.338-0.442,0.515-1.066,0.533-1.872c0.009-0.251,0.013-0.611,0.013-1.079c0-0.476-0.004-0.832-0.013-1.066
		c-0.018-0.797-0.197-1.419-0.539-1.866C281.503,183.836,281.002,183.613,280.344,183.613 M272.323,191.907
		c-0.65,0-1.214-0.117-1.69-0.351c-0.477-0.234-0.841-0.539-1.092-0.916c-0.251-0.377-0.386-0.782-0.403-1.216v-0.026l0.078-0.169
		l0.182-0.065h0.637c0.182,0,0.299,0.096,0.351,0.286c0.13,0.468,0.371,0.817,0.722,1.046c0.351,0.23,0.756,0.344,1.216,0.344
		c0.589,0,1.079-0.18,1.469-0.539c0.39-0.36,0.585-0.856,0.585-1.489c0-0.58-0.195-1.042-0.585-1.384
		c-0.39-0.342-0.88-0.514-1.469-0.514c-0.312,0-0.563,0.039-0.754,0.117c-0.191,0.078-0.386,0.191-0.585,0.338
		c-0.113,0.087-0.206,0.15-0.28,0.188l-0.24,0.059h-0.624l-0.208-0.085l-0.078-0.201l0.403-4.329
		c0.026-0.217,0.134-0.325,0.325-0.325h4.498c0.095,0,0.169,0.026,0.221,0.078c0.052,0.052,0.078,0.126,0.078,0.221v0.481
		l-0.085,0.208l-0.215,0.078h-3.744l-0.234,2.613c0.416-0.295,0.975-0.442,1.677-0.442c0.581,0,1.109,0.115,1.586,0.344
		c0.477,0.23,0.856,0.565,1.138,1.008c0.281,0.442,0.422,0.966,0.422,1.573c0,0.641-0.141,1.194-0.422,1.658
		c-0.282,0.464-0.672,0.815-1.17,1.053C273.534,191.788,272.964,191.907,272.323,191.907 M267.24,191.777h-0.637l-0.208-0.084
		l-0.078-0.215v-7.332l-2.184,1.677l-0.195,0.078l-0.221-0.13l-0.312-0.403l-0.065-0.182c0-0.095,0.043-0.173,0.13-0.234
		l2.821-2.184c0.095-0.06,0.208-0.091,0.338-0.091h0.611l0.215,0.085l0.084,0.214v8.502l-0.084,0.215L267.24,191.777"/>
	<path fill="#000000" d="M283.802,208.677h-5.408l-0.208-0.084l-0.078-0.215v-0.416l0.078-0.214l0.208-0.085h3.757v-3.172
		c0-1.482-0.745-2.223-2.236-2.223h-1.391l-0.208-0.085l-0.078-0.214v-0.416l0.078-0.214l0.208-0.085h1.456
		c2.219,0,3.328,1.062,3.328,3.185v3.224h0.494l0.208,0.085l0.078,0.214v0.416l-0.078,0.215L283.802,208.677 M273.207,208.677h-4.68
		l-0.215-0.084l-0.085-0.215v-0.429l0.085-0.208l0.215-0.078h3.536l-4.069-5.902c-0.069-0.113-0.104-0.195-0.104-0.247l0.084-0.182
		l0.202-0.078h0.572c0.138,0,0.255,0.069,0.351,0.208l2.327,3.354c0.737-0.347,1.105-1.057,1.105-2.132v-1.131
		c0-0.095,0.028-0.169,0.085-0.221l0.214-0.078h0.507l0.215,0.085l0.084,0.214v1.274c0,0.668-0.139,1.24-0.416,1.716
		c-0.278,0.477-0.685,0.841-1.222,1.092l1.352,1.95c0.104,0.13,0.156,0.26,0.156,0.39v0.403l-0.085,0.215L273.207,208.677
		 M266.265,208.677h-0.546l-0.214-0.084l-0.085-0.215v-3.887c0-1.49-0.741-2.236-2.223-2.236h-2.418l-0.215-0.078l-0.085-0.208
		v-0.416c0-0.095,0.028-0.169,0.085-0.221l0.215-0.078h2.483c2.201,0,3.302,1.066,3.302,3.198v3.926l-0.084,0.215L266.265,208.677
		 M261.325,208.677h-0.546l-0.215-0.084l-0.085-0.215v-4.368l0.085-0.215l0.215-0.085h0.546l0.215,0.085l0.085,0.215v4.368
		l-0.085,0.215L261.325,208.677 M276.197,205.661h-0.572l-0.215-0.085l-0.085-0.214v-3.809c0-0.095,0.028-0.169,0.085-0.221
		l0.215-0.078h0.572l0.214,0.085l0.085,0.214v3.809l-0.085,0.214L276.197,205.661"/>
	<path fill="#000000" d="M181.09,226.305l-0.182-0.065l-0.078-0.169v-0.403c0-0.199,0.069-0.321,0.208-0.364l1.703-0.572
		l-1.69-6.058c-0.043-0.147-0.065-0.234-0.065-0.26l0.078-0.182l0.182-0.078h0.598l0.195,0.058l0.104,0.137l1.664,6.032
		c0.685-0.243,1.164-0.585,1.437-1.027c0.273-0.442,0.409-0.996,0.409-1.664v-3.237l0.085-0.214l0.214-0.085h0.546
		c0.095,0,0.169,0.026,0.221,0.078c0.052,0.052,0.078,0.126,0.078,0.221v3.588c0,0.763-0.251,1.45-0.754,2.06
		c-0.503,0.611-1.174,1.042-2.015,1.294l-2.834,0.897L181.09,226.305 M272.102,225.707l-0.163-0.065l-0.072-0.182v-0.572
		c0-0.156,0.095-0.273,0.286-0.351l0.507-0.195c0.598-0.225,1.057-0.55,1.378-0.975c0.321-0.424,0.481-1.048,0.481-1.872
		c0-0.581-0.069-1.038-0.208-1.372c-0.139-0.333-0.366-0.574-0.683-0.722c-0.316-0.147-0.752-0.221-1.306-0.221h-0.403h-0.039
		l-1.196-0.013l-0.214-0.078l-0.085-0.208v-2.236l0.085-0.215l0.214-0.085h0.52l0.208,0.085l0.078,0.215v1.508h1.001
		c0.789,0,1.415,0.113,1.879,0.338c0.464,0.225,0.8,0.585,1.008,1.079s0.312,1.153,0.312,1.976c0,1.109-0.273,1.974-0.819,2.594
		c-0.546,0.62-1.257,1.077-2.132,1.372l-0.546,0.182L272.102,225.707 M243.71,225.707l-0.162-0.065l-0.072-0.182v-0.572
		c0-0.156,0.095-0.273,0.286-0.351l0.507-0.195c0.598-0.225,1.057-0.55,1.378-0.975c0.321-0.424,0.481-1.048,0.481-1.872
		c0-0.581-0.069-1.038-0.208-1.372c-0.139-0.333-0.366-0.574-0.683-0.722c-0.316-0.147-0.752-0.221-1.307-0.221h-0.403h-0.039
		l-1.196-0.013l-0.214-0.078l-0.085-0.208v-2.236l0.085-0.215l0.214-0.085h0.52l0.208,0.085l0.078,0.215v1.508h1.001
		c0.789,0,1.415,0.113,1.879,0.338c0.464,0.225,0.8,0.585,1.008,1.079c0.208,0.494,0.312,1.153,0.312,1.976
		c0,1.109-0.273,1.974-0.819,2.594c-0.546,0.62-1.257,1.077-2.132,1.372l-0.546,0.182L243.71,225.707 M229.645,225.707l-0.163-0.065
		l-0.072-0.182v-0.572c0-0.156,0.095-0.273,0.286-0.351l0.507-0.195c0.598-0.225,1.057-0.55,1.378-0.975
		c0.321-0.424,0.481-1.048,0.481-1.872c0-0.581-0.07-1.038-0.208-1.372c-0.139-0.333-0.366-0.574-0.682-0.722
		c-0.316-0.147-0.752-0.221-1.307-0.221h-0.403h-0.039l-1.196-0.013l-0.215-0.078l-0.085-0.208v-2.236l0.085-0.215l0.215-0.085h0.52
		l0.208,0.085l0.078,0.215v1.508h1.001c0.789,0,1.415,0.113,1.879,0.338c0.464,0.225,0.8,0.585,1.008,1.079s0.312,1.153,0.312,1.976
		c0,1.109-0.273,1.974-0.819,2.594c-0.546,0.62-1.257,1.077-2.132,1.372l-0.546,0.182L229.645,225.707 M219.934,225.707
		l-0.162-0.065l-0.072-0.182v-0.572c0-0.156,0.095-0.273,0.286-0.351l0.507-0.195c0.598-0.225,1.057-0.55,1.378-0.975
		c0.321-0.424,0.481-1.048,0.481-1.872c0-0.581-0.069-1.038-0.208-1.372c-0.139-0.333-0.366-0.574-0.683-0.722
		c-0.316-0.147-0.752-0.221-1.307-0.221h-0.403h-0.039l-1.196-0.013l-0.214-0.078l-0.085-0.208v-2.236l0.085-0.215l0.214-0.085h0.52
		l0.208,0.085l0.078,0.215v1.508h1.001c0.789,0,1.415,0.113,1.879,0.338c0.464,0.225,0.8,0.585,1.008,1.079
		c0.208,0.494,0.312,1.153,0.312,1.976c0,1.109-0.273,1.974-0.819,2.594c-0.546,0.62-1.257,1.077-2.132,1.372l-0.546,0.182
		L219.934,225.707 M191.945,225.707c-1.135,0-1.963-0.271-2.483-0.813c-0.52-0.541-0.78-1.332-0.78-2.372v-4.069
		c0-0.095,0.028-0.169,0.085-0.221l0.214-0.078h0.494c0.095,0,0.169,0.026,0.221,0.078s0.078,0.126,0.078,0.221v4.004
		c0,0.719,0.18,1.27,0.539,1.651c0.36,0.382,0.904,0.572,1.632,0.572c0.719,0,1.25-0.175,1.593-0.527
		c0.342-0.351,0.522-0.882,0.539-1.593v-0.403v-0.936c-0.018-0.711-0.169-1.239-0.455-1.586c-0.286-0.347-0.676-0.52-1.17-0.52
		c-0.156,0-0.329,0.028-0.52,0.085c-0.191,0.056-0.356,0.128-0.494,0.215l-0.13,0.039l-0.163-0.071l-0.071-0.163v-0.377
		c0-0.104,0.008-0.186,0.026-0.247l0.143-0.156c0.182-0.121,0.375-0.21,0.579-0.266c0.203-0.056,0.461-0.085,0.773-0.085
		c0.84,0,1.48,0.245,1.917,0.735c0.438,0.49,0.67,1.246,0.696,2.268c0.009,0.087,0.013,0.342,0.013,0.767
		c0,0.425-0.004,0.68-0.013,0.767c-0.035,1.04-0.306,1.813-0.813,2.32C193.889,225.454,193.072,225.707,191.945,225.707
		 M283.23,225.577h-3.354l-0.208-0.084l-0.078-0.215v-0.416l0.078-0.214l0.208-0.085h2.509v-3.159c0-0.659-0.167-1.194-0.501-1.605
		c-0.334-0.412-0.756-0.618-1.267-0.618h-1.378l-1.001,6.084l-0.111,0.221l-0.214,0.091h-0.546l-0.201-0.091l-0.059-0.221
		l1.04-6.084h-0.663l-0.215-0.084l-0.084-0.215v-0.429l0.084-0.214l0.215-0.085h3.263c0.537,0,1.016,0.128,1.437,0.384
		c0.42,0.256,0.75,0.622,0.988,1.098c0.238,0.477,0.357,1.04,0.357,1.69v3.952l-0.085,0.215L283.23,225.577 M268.605,225.577h-0.546
		l-0.215-0.084l-0.084-0.215v-3.887c0-1.49-0.745-2.236-2.236-2.236h-1.586v6.123l-0.085,0.215l-0.214,0.084h-0.546l-0.215-0.084
		l-0.084-0.215v-6.825c0-0.095,0.028-0.169,0.084-0.221l0.215-0.078h2.496c1.118,0,1.95,0.266,2.496,0.8
		c0.546,0.533,0.819,1.332,0.819,2.398v3.926l-0.085,0.215L268.605,225.577 M257.282,225.577h-0.572l-0.215-0.084l-0.085-0.215
		v-6.825c0-0.095,0.028-0.169,0.085-0.221l0.215-0.078h0.572l0.214,0.085l0.085,0.214v6.825l-0.085,0.215L257.282,225.577
		 M251.705,225.577h-2.236l-0.215-0.084l-0.084-0.215v-0.429l0.084-0.214l0.215-0.085h2.171c0.606,0,1.074-0.195,1.404-0.585
		c0.329-0.39,0.507-0.94,0.533-1.651c0.009-0.087,0.013-0.238,0.013-0.455c0-0.208-0.004-0.355-0.013-0.442
		c-0.018-0.711-0.193-1.261-0.527-1.651c-0.334-0.39-0.804-0.585-1.41-0.585h-1.599v1.04c0,0.347,0.039,0.62,0.117,0.819
		c0.078,0.199,0.212,0.325,0.403,0.377l0.494,0.13l0.163,0.136c0.039,0.074,0.058,0.163,0.058,0.266v0.299
		c0,0.095-0.048,0.165-0.143,0.208c-0.068,0.031-0.141,0.046-0.217,0.046c-0.031,0-0.062-0.003-0.095-0.008l-0.507-0.104
		c-0.867-0.191-1.3-0.927-1.3-2.21v-1.729c0-0.095,0.028-0.169,0.084-0.221l0.215-0.078h2.392c0.953,0,1.677,0.277,2.171,0.832
		c0.494,0.555,0.758,1.348,0.793,2.379c0.009,0.087,0.013,0.251,0.013,0.494c0,0.251-0.004,0.42-0.013,0.507
		c-0.035,1.031-0.299,1.824-0.793,2.379C253.382,225.3,252.659,225.577,251.705,225.577 M237.639,225.577h-2.236l-0.214-0.084
		l-0.085-0.215v-0.429l0.085-0.214l0.214-0.085h2.171c0.607,0,1.075-0.195,1.404-0.585c0.329-0.39,0.507-0.94,0.533-1.651
		c0.009-0.087,0.013-0.238,0.013-0.455c0-0.208-0.004-0.355-0.013-0.442c-0.018-0.711-0.193-1.261-0.527-1.651
		c-0.334-0.39-0.804-0.585-1.41-0.585h-1.599v1.04c0,0.347,0.039,0.62,0.117,0.819c0.078,0.199,0.212,0.325,0.403,0.377l0.494,0.13
		l0.162,0.136c0.039,0.074,0.059,0.163,0.059,0.266v0.299c0,0.095-0.048,0.165-0.143,0.208c-0.068,0.031-0.141,0.046-0.217,0.046
		c-0.031,0-0.062-0.003-0.095-0.008l-0.507-0.104c-0.867-0.191-1.3-0.927-1.3-2.21v-1.729c0-0.095,0.028-0.169,0.084-0.221
		l0.215-0.078h2.392c0.953,0,1.677,0.277,2.171,0.832c0.494,0.555,0.758,1.348,0.793,2.379c0.009,0.087,0.013,0.251,0.013,0.494
		c0,0.251-0.005,0.42-0.013,0.507c-0.035,1.031-0.299,1.824-0.793,2.379C239.316,225.3,238.593,225.577,237.639,225.577
		 M213.863,225.577h-2.236l-0.214-0.084l-0.085-0.215v-0.429l0.085-0.214l0.214-0.085h2.171c0.607,0,1.075-0.195,1.404-0.585
		c0.329-0.39,0.507-0.94,0.533-1.651c0.009-0.087,0.013-0.238,0.013-0.455c0-0.208-0.004-0.355-0.013-0.442
		c-0.018-0.711-0.193-1.261-0.527-1.651c-0.334-0.39-0.804-0.585-1.41-0.585h-1.599v1.04c0,0.347,0.039,0.62,0.117,0.819
		c0.078,0.199,0.212,0.325,0.403,0.377l0.494,0.13l0.162,0.136c0.039,0.074,0.059,0.163,0.059,0.266v0.299
		c0,0.095-0.048,0.165-0.143,0.208c-0.068,0.031-0.141,0.046-0.217,0.046c-0.031,0-0.062-0.003-0.095-0.008l-0.507-0.104
		c-0.867-0.191-1.3-0.927-1.3-2.21v-1.729c0-0.095,0.028-0.169,0.085-0.221l0.214-0.078h2.392c0.953,0,1.677,0.277,2.171,0.832
		c0.494,0.555,0.758,1.348,0.793,2.379c0.009,0.087,0.013,0.251,0.013,0.494c0,0.251-0.005,0.42-0.013,0.507
		c-0.035,1.031-0.299,1.824-0.793,2.379C215.54,225.3,214.816,225.577,213.863,225.577 M202.722,225.577h-0.546l-0.215-0.084
		l-0.084-0.215v-3.887c0-1.49-0.741-2.236-2.223-2.236h-2.418l-0.214-0.078l-0.085-0.208v-0.416c0-0.095,0.028-0.169,0.085-0.221
		l0.214-0.078h2.483c2.201,0,3.302,1.066,3.302,3.198v3.926l-0.085,0.215L202.722,225.577 M197.782,225.577h-0.546l-0.214-0.084
		l-0.085-0.215v-4.368l0.085-0.215l0.214-0.084h0.546l0.215,0.084l0.084,0.215v4.368l-0.084,0.215L197.782,225.577 M179.011,225.577
		h-5.447l-0.215-0.084l-0.084-0.215v-6.825c0-0.095,0.028-0.169,0.084-0.221l0.215-0.078h2.457c1.109,0,1.935,0.264,2.476,0.793
		c0.541,0.529,0.813,1.322,0.813,2.379v3.952l-0.085,0.215L179.011,225.577 M174.344,219.155v5.408h3.848v-3.172
		c0-1.49-0.745-2.236-2.236-2.236H174.344 M208.949,222.561h-0.572l-0.215-0.085l-0.084-0.214v-3.809
		c0-0.095,0.028-0.169,0.084-0.221l0.215-0.078h0.572l0.214,0.085l0.085,0.214v3.809l-0.085,0.214L208.949,222.561"/>
	<path fill="#000000" d="M207.194,244.96h-0.533l-0.215-0.078c-0.056-0.052-0.084-0.126-0.084-0.221v-6.851l0.084-0.215l0.215-0.084
		h0.533l0.215,0.084l0.085,0.215v6.851l-0.085,0.215L207.194,244.96 M269.749,243.205l-0.182-0.065l-0.078-0.169v-0.403
		c0-0.199,0.069-0.321,0.208-0.364l1.703-0.572l-1.69-6.058c-0.043-0.147-0.065-0.234-0.065-0.26l0.078-0.182l0.182-0.078h0.598
		l0.195,0.058l0.104,0.137l1.664,6.032c0.684-0.243,1.164-0.585,1.437-1.027c0.273-0.442,0.409-0.996,0.409-1.664v-3.237
		l0.085-0.214l0.214-0.085h0.546c0.095,0,0.169,0.026,0.221,0.078c0.052,0.052,0.078,0.126,0.078,0.221v3.588
		c0,0.763-0.251,1.45-0.754,2.06c-0.503,0.611-1.174,1.042-2.015,1.294l-2.834,0.897L269.749,243.205 M264.991,242.607
		c-1.135,0-1.963-0.271-2.483-0.813c-0.52-0.541-0.78-1.332-0.78-2.372v-4.069c0-0.095,0.028-0.169,0.085-0.221l0.214-0.078h0.494
		c0.095,0,0.169,0.026,0.221,0.078c0.052,0.052,0.078,0.126,0.078,0.221v4.004c0,0.719,0.18,1.27,0.539,1.651
		c0.36,0.382,0.904,0.572,1.632,0.572c0.719,0,1.25-0.176,1.593-0.527c0.342-0.351,0.522-0.882,0.539-1.593v-0.403v-0.936
		c-0.018-0.711-0.169-1.239-0.455-1.586c-0.286-0.347-0.676-0.52-1.17-0.52c-0.156,0-0.329,0.028-0.52,0.084
		c-0.191,0.056-0.356,0.128-0.494,0.215l-0.13,0.039l-0.163-0.071l-0.071-0.163v-0.377c0-0.104,0.009-0.186,0.026-0.247l0.143-0.156
		c0.182-0.121,0.375-0.21,0.579-0.266c0.203-0.056,0.461-0.085,0.773-0.085c0.84,0,1.48,0.245,1.918,0.735
		c0.437,0.49,0.669,1.246,0.695,2.268c0.009,0.087,0.013,0.343,0.013,0.767c0,0.425-0.004,0.68-0.013,0.767
		c-0.035,1.04-0.306,1.813-0.813,2.32C266.934,242.354,266.117,242.607,264.991,242.607 M217.594,242.607
		c-1.066,0-1.866-0.279-2.398-0.838c-0.533-0.559-0.8-1.363-0.8-2.411v-4.004c0-0.095,0.028-0.169,0.085-0.221l0.214-0.078h3.12
		c1.118,0,1.92,0.251,2.405,0.754c0.485,0.503,0.75,1.274,0.793,2.314c0.009,0.087,0.013,0.321,0.013,0.702
		c0,0.382-0.004,0.615-0.013,0.702c-0.026,1.031-0.308,1.803-0.845,2.314C219.63,242.352,218.772,242.607,217.594,242.607
		 M215.488,236.055v3.302c0,0.719,0.176,1.27,0.527,1.651c0.351,0.382,0.873,0.572,1.567,0.572c0.815,0,1.399-0.171,1.755-0.514
		c0.355-0.342,0.541-0.878,0.559-1.605c0.008-0.087,0.013-0.299,0.013-0.637c0-0.338-0.005-0.55-0.013-0.637
		c-0.018-0.693-0.215-1.222-0.592-1.586c-0.377-0.364-0.895-0.546-1.554-0.546H215.488 M209.04,242.607l-0.163-0.065l-0.071-0.182
		v-0.572c0-0.156,0.095-0.273,0.286-0.351l0.507-0.195c0.598-0.225,1.057-0.55,1.378-0.975c0.321-0.424,0.481-1.048,0.481-1.872
		c0-0.581-0.069-1.038-0.208-1.372c-0.139-0.333-0.366-0.574-0.682-0.721c-0.316-0.147-0.752-0.221-1.307-0.221h-2.6l-0.215-0.084
		l-0.084-0.215v-0.442l0.084-0.208l0.215-0.078h2.756c0.797,0,1.428,0.113,1.891,0.338c0.464,0.225,0.799,0.585,1.007,1.079
		c0.208,0.494,0.312,1.153,0.312,1.976c0,1.109-0.273,1.974-0.819,2.593c-0.546,0.62-1.257,1.077-2.132,1.372l-0.546,0.182
		L209.04,242.607 M201.37,242.607c-1.135,0-1.963-0.271-2.483-0.813c-0.52-0.541-0.78-1.332-0.78-2.372v-4.069
		c0-0.095,0.028-0.169,0.085-0.221l0.214-0.078h0.494c0.095,0,0.169,0.026,0.221,0.078c0.052,0.052,0.078,0.126,0.078,0.221v4.004
		c0,0.719,0.18,1.27,0.539,1.651c0.359,0.382,0.903,0.572,1.631,0.572c0.719,0,1.25-0.176,1.592-0.527
		c0.342-0.351,0.522-0.882,0.539-1.593v-0.403v-0.936c-0.017-0.711-0.169-1.239-0.455-1.586c-0.286-0.347-0.676-0.52-1.17-0.52
		c-0.156,0-0.329,0.028-0.52,0.084c-0.191,0.056-0.355,0.128-0.494,0.215l-0.13,0.039l-0.162-0.071l-0.072-0.163v-0.377
		c0-0.104,0.009-0.186,0.026-0.247l0.143-0.156c0.182-0.121,0.375-0.21,0.579-0.266c0.203-0.056,0.462-0.085,0.773-0.085
		c0.841,0,1.48,0.245,1.918,0.735c0.438,0.49,0.67,1.246,0.695,2.268c0.009,0.087,0.013,0.343,0.013,0.767
		c0,0.425-0.004,0.68-0.013,0.767c-0.035,1.04-0.306,1.813-0.813,2.32C203.313,242.354,202.496,242.607,201.37,242.607
		 M245.049,242.594c-0.148,0-0.221-0.069-0.221-0.208v-0.611c0-0.147,0.091-0.256,0.273-0.325c0.026-0.009,0.197-0.067,0.513-0.176
		c0.316-0.108,0.6-0.245,0.852-0.409c0.26-0.165,0.516-0.392,0.767-0.682c0.251-0.29,0.429-0.566,0.533-0.825l-0.234-1.17
		c-0.104-0.511-0.215-0.916-0.331-1.215c-0.117-0.299-0.275-0.527-0.475-0.683c-0.199-0.156-0.459-0.234-0.78-0.234h-0.481
		l-0.215-0.078l-0.085-0.208v-0.442l0.085-0.215l0.215-0.084h0.481c0.555,0,1.01,0.113,1.365,0.338
		c0.355,0.226,0.639,0.561,0.851,1.008c0.212,0.447,0.392,1.029,0.539,1.748l0.78,4.056v0.052l-0.084,0.176l-0.202,0.072h-0.572
		c-0.165,0-0.264-0.1-0.299-0.299l-0.299-1.521c-0.321,0.494-0.689,0.88-1.105,1.157c-0.321,0.217-0.62,0.384-0.897,0.501
		c-0.278,0.117-0.572,0.206-0.884,0.266L245.049,242.594 M180.973,242.594c-0.148,0-0.221-0.069-0.221-0.208v-0.611
		c0-0.147,0.091-0.256,0.273-0.325c0.026-0.009,0.197-0.067,0.513-0.176c0.316-0.108,0.6-0.245,0.852-0.409
		c0.26-0.165,0.516-0.392,0.767-0.682c0.251-0.29,0.429-0.566,0.533-0.825l-0.234-1.17c-0.104-0.511-0.215-0.916-0.331-1.215
		c-0.117-0.299-0.275-0.527-0.474-0.683c-0.2-0.156-0.459-0.234-0.78-0.234h-0.481l-0.215-0.078l-0.084-0.208v-0.442l0.084-0.215
		l0.215-0.084h0.481c0.554,0,1.009,0.113,1.365,0.338c0.355,0.226,0.639,0.561,0.851,1.008c0.212,0.447,0.392,1.029,0.539,1.748
		l0.78,4.056v0.052l-0.084,0.176l-0.202,0.072h-0.572c-0.165,0-0.264-0.1-0.299-0.299l-0.299-1.521
		c-0.321,0.494-0.689,0.88-1.105,1.157c-0.321,0.217-0.62,0.384-0.897,0.501c-0.278,0.117-0.572,0.206-0.884,0.266L180.973,242.594
		 M283.23,242.477h-3.354l-0.208-0.085l-0.078-0.215v-0.416l0.078-0.215l0.208-0.085h2.509v-3.159c0-0.659-0.167-1.194-0.501-1.605
		c-0.334-0.412-0.756-0.618-1.267-0.618h-1.378l-1.001,6.084l-0.111,0.221l-0.214,0.091h-0.546l-0.201-0.091l-0.059-0.221
		l1.04-6.084h-0.663l-0.215-0.084l-0.084-0.215v-0.429l0.084-0.214l0.215-0.085h3.263c0.537,0,1.016,0.128,1.437,0.383
		c0.42,0.256,0.75,0.622,0.988,1.099c0.238,0.477,0.357,1.04,0.357,1.69v3.952l-0.085,0.215L283.23,242.477 M256.619,242.477h-0.585
		c-0.113,0-0.199-0.033-0.26-0.098l-0.104-0.11l-2.964-4.173c-0.373,0.269-0.626,0.587-0.76,0.956
		c-0.134,0.368-0.201,0.773-0.201,1.215v1.911l-0.085,0.215l-0.214,0.085h-0.481l-0.215-0.085l-0.084-0.215v-1.963
		c0-0.641,0.097-1.2,0.292-1.677c0.195-0.476,0.579-0.905,1.151-1.287l-1.209-1.69c-0.061-0.095-0.091-0.178-0.091-0.247
		l0.078-0.182l0.182-0.078h0.572c0.139,0,0.26,0.074,0.364,0.221l2.73,3.809c0.312-0.182,0.539-0.373,0.682-0.572
		c0.143-0.199,0.232-0.396,0.266-0.592c0.035-0.195,0.052-0.449,0.052-0.76v-1.807l0.085-0.214l0.214-0.085h0.507l0.215,0.085
		l0.084,0.214v1.859c0,0.59-0.102,1.094-0.305,1.515c-0.204,0.42-0.613,0.813-1.229,1.176l1.482,2.067l0.091,0.247l-0.078,0.182
		L256.619,242.477 M242.891,242.477h-0.572l-0.215-0.085l-0.084-0.215v-6.825c0-0.095,0.028-0.169,0.084-0.221l0.215-0.078h0.572
		l0.214,0.085l0.085,0.214v6.825l-0.085,0.215L242.891,242.477 M238.523,242.477h-0.546l-0.208-0.078l-0.078-0.208v-4.667
		c0-0.355,0.03-0.659,0.091-0.91c0.061-0.251,0.143-0.438,0.247-0.559h-1.144l-0.214-0.078l-0.085-0.208v-0.416l0.085-0.214
		l0.214-0.085h3.12l0.214,0.085l0.085,0.214v0.416l-0.085,0.208l-0.214,0.078h-0.78c-0.122,0.13-0.219,0.334-0.293,0.611
		c-0.074,0.277-0.111,0.589-0.111,0.936v4.589l-0.085,0.208L238.523,242.477 M231.764,242.477h-3.354l-0.208-0.085l-0.078-0.215
		v-0.416l0.078-0.215l0.208-0.085h2.509v-3.159c0-0.659-0.167-1.194-0.501-1.605c-0.334-0.412-0.756-0.618-1.267-0.618h-1.378
		l-1.001,6.084l-0.11,0.221l-0.214,0.091h-0.546l-0.201-0.091l-0.059-0.221l1.04-6.084h-0.663l-0.215-0.084l-0.085-0.215v-0.429
		l0.085-0.214l0.215-0.085h3.263c0.537,0,1.016,0.128,1.436,0.383c0.42,0.256,0.75,0.622,0.988,1.099
		c0.238,0.477,0.358,1.04,0.358,1.69v3.952l-0.085,0.215L231.764,242.477 M223.626,242.477h-0.572l-0.214-0.085l-0.085-0.215v-6.825
		c0-0.095,0.028-0.169,0.085-0.221l0.214-0.078h0.572l0.215,0.085l0.085,0.214v6.825l-0.085,0.215L223.626,242.477 M192.725,242.477
		h-3.354l-0.208-0.085l-0.078-0.215v-0.416l0.078-0.215l0.208-0.085h2.509v-3.159c0-0.659-0.167-1.194-0.501-1.605
		c-0.334-0.412-0.756-0.618-1.267-0.618h-1.378l-1.001,6.084l-0.111,0.221l-0.215,0.091h-0.546l-0.201-0.091l-0.058-0.221
		l1.04-6.084h-0.663l-0.214-0.084l-0.085-0.215v-0.429l0.085-0.214l0.214-0.085h3.263c0.537,0,1.016,0.128,1.437,0.383
		c0.42,0.256,0.749,0.622,0.988,1.099c0.238,0.477,0.357,1.04,0.357,1.69v3.952l-0.084,0.215L192.725,242.477 M178.816,242.477
		h-0.572l-0.215-0.085l-0.084-0.215v-6.825c0-0.095,0.028-0.169,0.084-0.221l0.215-0.078h0.572l0.214,0.085l0.085,0.214v6.825
		l-0.085,0.215L178.816,242.477 M175.696,242.477h-0.546l-0.215-0.085l-0.085-0.215v-3.887c0-1.491-0.745-2.236-2.236-2.236h-1.677
		l-0.214-0.078l-0.085-0.208v-0.416l0.085-0.214l0.214-0.085h1.755c2.201,0,3.302,1.057,3.302,3.172v3.952l-0.085,0.215
		L175.696,242.477 M168.975,242.477h-0.546l-0.214-0.085l-0.085-0.215v-3.887c0-1.491-0.745-2.236-2.236-2.236h-1.677l-0.215-0.078
		l-0.084-0.208v-0.416l0.084-0.214l0.215-0.085h1.755c2.201,0,3.302,1.057,3.302,3.172v3.952l-0.085,0.215L168.975,242.477"/>
</g>
</svg>
