<!-- Generator: Adobe InDesign 14.0 SVG Export Plug-in, SVG Library version: 6.0 build 234 -->
<!DOCTYPE svg PUBLIC "-//W3C//DTD SVG 1.1//EN" "http://www.w3.org/Graphics/SVG/1.1/DTD/svg11.dtd">
<svg version="1.1" xmlns="http://www.w3.org/2000/svg" xmlns:xlink="http://www.w3.org/1999/xlink" x="0%" y="0%" width="100%"
	 height="100%" viewBox="0 0 313.376 534.346" preserveAspectRatio="xMidYMid slice" overflow="visible" xml:space="preserve">
<clipPath id="clp_unq_id_1" fill="none">
	<path shape-rendering="crispEdges" stroke="#000000" d="M0,0h313.376v534.346H0V0"/>
</clipPath>
<g clip-path="url(#clp_unq_id_1)" fill="none">
	<path fill="#923A7F" d="M172.315,12.016h-4.392h-2.568v13.488h0.6h7.872h2.568v-9c0-1.552-0.36-2.688-1.08-3.408
		S173.595,12.016,172.315,12.016z M167.923,23.536v-9.552h3.744c0.704,0,1.24,0.188,1.608,0.564
		c0.368,0.376,0.552,0.988,0.552,1.836v7.152H167.923z M179.515,20.464l2.544-0.48l0.024-1.512v-3.648l-0.312-2.808h-2.544
		l0.288,2.808V20.464z M191.034,25.504h2.568v-9c0-1.552-0.36-2.688-1.08-3.408s-1.72-1.08-3-1.08h-5.088v1.968h4.44
		c0.704,0,1.24,0.188,1.608,0.564c0.368,0.376,0.552,0.988,0.552,1.836V25.504z M208.938,18.712c0-2.368-0.448-4.108-1.344-5.22
		c-0.896-1.112-2.144-1.668-3.744-1.668c-0.88,0-1.664,0.252-2.352,0.756c-0.688,0.504-1.2,1.26-1.536,2.268l-1.08-2.832h-2.664
		l1.872,4.2l-1.728,9.288h2.568l1.608-9.192c0.16-0.736,0.484-1.324,0.972-1.764c0.488-0.44,1.116-0.66,1.884-0.66
		c0.992,0,1.756,0.38,2.292,1.14c0.536,0.76,0.804,2.012,0.804,3.756c0,1.632-0.28,2.872-0.84,3.72
		c-0.56,0.848-1.448,1.272-2.664,1.272c-0.432,0-0.952-0.064-1.56-0.192l-0.264,1.968c0.704,0.16,1.392,0.24,2.064,0.24
		c1.824,0,3.232-0.62,4.224-1.86C208.442,22.692,208.938,20.952,208.938,18.712z M210.738,25.888c1.648-0.16,2.84-0.6,3.576-1.32
		c0.736-0.72,1.104-1.872,1.104-3.456v-7.128h3.264c0.704,0,1.24,0.188,1.608,0.564c0.368,0.376,0.552,0.988,0.552,1.836v9.12h2.568
		v-9c0-1.552-0.36-2.688-1.08-3.408s-1.72-1.08-3-1.08h-6.48V21.4c0,0.896-0.16,1.544-0.48,1.944c-0.32,0.4-0.944,0.648-1.872,0.744
		L210.738,25.888z M230.37,25.888c1.648-0.16,2.84-0.6,3.576-1.32c0.736-0.72,1.104-1.872,1.104-3.456v-7.128h3.264
		c0.704,0,1.24,0.188,1.608,0.564c0.368,0.376,0.552,0.988,0.552,1.836v9.12h2.568v-9c0-1.552-0.36-2.688-1.08-3.408
		s-1.72-1.08-3-1.08h-6.48V21.4c0,0.896-0.16,1.544-0.48,1.944c-0.32,0.4-0.944,0.648-1.872,0.744L230.37,25.888z M246.162,25.504
		h2.568v-10.68l-0.312-2.808h-2.544l0.288,2.808V25.504z M251.921,20.464l2.544-0.48l0.024-1.512v-3.648l-0.312-2.808h-2.544
		l0.288,2.808V20.464z M264.449,25.504l-0.816-5.16v-4.608c0-1.12-0.212-1.976-0.636-2.568c-0.424-0.592-1.108-0.96-2.052-1.104
		l-2.376-0.336l-0.336,1.944l1.512,0.216c0.512,0.08,0.86,0.276,1.044,0.588c0.184,0.312,0.276,0.82,0.276,1.524v4.2
		c-0.432,0.88-1.02,1.612-1.764,2.196c-0.744,0.584-1.668,1.068-2.772,1.452l0.936,2.04c0.912-0.32,1.696-0.756,2.352-1.308
		c0.656-0.552,1.208-1.228,1.656-2.028l0.528,2.952H264.449z M267.161,25.504h2.568v-10.68l-0.312-2.808h-2.544l0.288,2.808V25.504z
		 M280.769,12.016v0.936c0,2.352-0.048,4.116-0.144,5.292c-0.096,1.176-0.336,2.148-0.72,2.916
		c-0.384,0.768-1.008,1.344-1.872,1.728l-2.688-10.872h-2.568l2.952,11.472l-4.056,0.792l0.36,2.016l4.512-0.888
		c2.112-0.416,3.644-1.132,4.596-2.148c0.952-1.016,1.552-2.336,1.8-3.96c0.248-1.624,0.372-4.052,0.372-7.284H280.769z"/>
	<path fill="#000000" d="M257.815,59.06h-0.533l-0.214-0.078c-0.057-0.052-0.085-0.126-0.085-0.221V51.91l0.085-0.215l0.214-0.084
		h0.533l0.214,0.084l0.085,0.215v6.851l-0.085,0.215L257.815,59.06 M280.175,56.707l-0.163-0.065l-0.071-0.182v-0.572
		c0-0.156,0.095-0.273,0.286-0.351l0.507-0.195c0.598-0.225,1.057-0.55,1.378-0.975c0.32-0.424,0.481-1.048,0.481-1.872
		c0-0.581-0.069-1.038-0.208-1.372c-0.139-0.333-0.366-0.574-0.682-0.721c-0.316-0.147-0.752-0.221-1.307-0.221h-0.403h-0.039
		l-1.196-0.013l-0.215-0.078l-0.084-0.208v-2.236l0.084-0.215l0.215-0.084h0.52l0.208,0.084l0.078,0.215v1.508h1.001
		c0.789,0,1.415,0.113,1.878,0.338c0.464,0.225,0.8,0.585,1.008,1.079c0.208,0.494,0.312,1.153,0.312,1.976
		c0,1.109-0.273,1.974-0.819,2.593c-0.546,0.62-1.257,1.077-2.132,1.372l-0.546,0.182L280.175,56.707 M259.661,56.707l-0.163-0.065
		l-0.072-0.182v-0.572c0-0.156,0.095-0.273,0.286-0.351l0.507-0.195c0.598-0.225,1.057-0.55,1.378-0.975
		c0.321-0.424,0.481-1.048,0.481-1.872c0-0.581-0.07-1.038-0.208-1.372c-0.139-0.333-0.366-0.574-0.682-0.721
		c-0.316-0.147-0.752-0.221-1.307-0.221h-2.6l-0.214-0.084l-0.085-0.215V49.44l0.085-0.208l0.214-0.078h2.756
		c0.797,0,1.428,0.113,1.891,0.338c0.464,0.225,0.8,0.585,1.008,1.079c0.208,0.494,0.312,1.153,0.312,1.976
		c0,1.109-0.273,1.974-0.819,2.593c-0.546,0.62-1.257,1.077-2.132,1.372l-0.546,0.182L259.661,56.707 M277.38,56.577h-5.408
		l-0.208-0.085l-0.078-0.215v-0.416l0.078-0.214l0.208-0.085h3.757v-3.172c0-1.482-0.745-2.223-2.236-2.223h-1.391l-0.208-0.084
		l-0.078-0.215v-0.416l0.078-0.214l0.208-0.085h1.456c2.219,0,3.328,1.062,3.328,3.185v3.224h0.494l0.208,0.085l0.078,0.214v0.416
		l-0.078,0.215L277.38,56.577 M269.788,56.577h-4.68l-0.215-0.085l-0.085-0.215v-0.429l0.085-0.208l0.215-0.078h3.536l-4.069-5.902
		c-0.069-0.112-0.104-0.195-0.104-0.247l0.084-0.182l0.202-0.078h0.572c0.138,0,0.255,0.069,0.351,0.208l2.327,3.354
		c0.737-0.346,1.105-1.057,1.105-2.132v-1.131c0-0.095,0.028-0.169,0.085-0.221l0.214-0.078h0.507l0.214,0.085l0.085,0.214v1.274
		c0,0.668-0.139,1.239-0.416,1.716c-0.277,0.477-0.685,0.841-1.222,1.092l1.352,1.95c0.104,0.13,0.156,0.26,0.156,0.39v0.403
		l-0.085,0.215L269.788,56.577 M254.747,56.577h-0.897l-0.208-0.085l-0.078-0.215v-0.871c0-0.095,0.026-0.171,0.078-0.228
		l0.208-0.084h0.897c0.095,0,0.171,0.028,0.228,0.084c0.056,0.057,0.085,0.132,0.085,0.228v0.871l-0.091,0.215L254.747,56.577
		 M254.747,52.027h-0.897l-0.208-0.084l-0.078-0.215v-0.871c0-0.095,0.026-0.171,0.078-0.228l0.208-0.084h0.897
		c0.095,0,0.171,0.028,0.228,0.084c0.056,0.056,0.085,0.132,0.085,0.228v0.871l-0.091,0.215L254.747,52.027"/>
	<path fill="#000000" d="M233.558,75.96h-0.533l-0.215-0.078c-0.056-0.052-0.085-0.126-0.085-0.221V68.81l0.085-0.215l0.215-0.084
		h0.533l0.215,0.084l0.084,0.215v6.851l-0.084,0.215L233.558,75.96 M258.894,73.607c-1.066,0-1.866-0.279-2.399-0.838
		c-0.533-0.559-0.799-1.363-0.799-2.411v-4.004c0-0.095,0.028-0.169,0.084-0.221l0.215-0.078h3.12c1.118,0,1.919,0.251,2.405,0.754
		c0.485,0.503,0.75,1.274,0.793,2.314c0.009,0.087,0.013,0.321,0.013,0.702c0,0.382-0.004,0.615-0.013,0.702
		c-0.026,1.031-0.308,1.803-0.845,2.314C260.931,73.352,260.073,73.607,258.894,73.607 M256.788,67.055v3.302
		c0,0.719,0.176,1.27,0.527,1.651c0.351,0.382,0.873,0.572,1.567,0.572c0.815,0,1.399-0.171,1.755-0.514
		c0.355-0.342,0.541-0.878,0.559-1.605c0.009-0.087,0.013-0.299,0.013-0.637c0-0.338-0.004-0.55-0.013-0.637
		c-0.018-0.693-0.214-1.222-0.592-1.586c-0.377-0.364-0.895-0.546-1.553-0.546H256.788 M235.404,73.607l-0.163-0.065l-0.071-0.182
		v-0.572c0-0.156,0.095-0.273,0.286-0.351l0.507-0.195c0.598-0.225,1.057-0.55,1.378-0.975c0.321-0.425,0.481-1.049,0.481-1.872
		c0-0.581-0.069-1.038-0.208-1.372c-0.139-0.333-0.366-0.574-0.682-0.721c-0.316-0.147-0.752-0.221-1.307-0.221h-2.6l-0.215-0.085
		l-0.085-0.215V66.34l0.085-0.208l0.215-0.078h2.756c0.797,0,1.428,0.113,1.892,0.338c0.464,0.225,0.799,0.585,1.007,1.079
		c0.208,0.494,0.312,1.153,0.312,1.976c0,1.109-0.273,1.974-0.819,2.593c-0.546,0.62-1.257,1.077-2.132,1.372l-0.546,0.182
		L235.404,73.607 M269.463,73.477h-1.924l-0.214-0.085l-0.085-0.215v-0.429c0-0.095,0.028-0.169,0.085-0.221l0.214-0.078h1.859
		c0.754,0,1.309-0.19,1.664-0.572c0.355-0.381,0.55-0.936,0.585-1.664c0.009-0.121,0.013-0.273,0.013-0.455
		c0-0.173-0.004-0.321-0.013-0.442c-0.026-0.737-0.219-1.294-0.579-1.67c-0.36-0.377-0.916-0.565-1.67-0.565h-1.859l-0.214-0.085
		l-0.085-0.215v-0.429c0-0.095,0.028-0.169,0.085-0.221l0.214-0.078h1.924c1.101,0,1.917,0.275,2.451,0.825
		c0.533,0.55,0.817,1.346,0.851,2.385c0.009,0.121,0.013,0.286,0.013,0.494c0,0.208-0.004,0.377-0.013,0.507
		c-0.035,1.04-0.319,1.835-0.851,2.386C271.38,73.202,270.564,73.477,269.463,73.477 M264.926,73.477h-0.572l-0.215-0.085
		l-0.084-0.215v-6.825c0-0.095,0.028-0.169,0.084-0.221l0.215-0.078h0.572l0.214,0.085l0.085,0.214v6.825l-0.085,0.215
		L264.926,73.477 M253.46,73.477h-0.572l-0.214-0.085l-0.085-0.215v-6.825c0-0.095,0.028-0.169,0.085-0.221l0.214-0.078h0.572
		l0.215,0.085l0.085,0.214v6.825l-0.085,0.215L253.46,73.477 M250.34,73.477h-0.546l-0.215-0.085l-0.084-0.215v-3.887
		c0-1.491-0.745-2.236-2.236-2.236h-0.936c-0.087,0.546-0.15,0.999-0.188,1.359c-0.039,0.36-0.054,0.769-0.045,1.229l0.026,3.536
		l-0.085,0.215l-0.214,0.085l-1.807-0.026l-0.214-0.084l-0.085-0.215v-0.39l0.085-0.215l0.214-0.085l1.001,0.013v-2.782
		c-0.009-0.546,0.002-1.007,0.033-1.384c0.03-0.377,0.102-0.795,0.215-1.254h-0.702l-0.214-0.078l-0.085-0.208v-0.416
		c0-0.095,0.028-0.169,0.085-0.221l0.214-0.078h2.782c2.201,0,3.302,1.057,3.302,3.172v3.952l-0.085,0.215L250.34,73.477
		 M230.477,73.477h-3.354l-0.208-0.085l-0.078-0.215v-0.416l0.078-0.215l0.208-0.085h2.509v-3.159c0-0.659-0.167-1.194-0.5-1.605
		c-0.334-0.412-0.756-0.617-1.268-0.617h-1.378l-1.001,6.084l-0.111,0.221l-0.215,0.091h-0.546l-0.201-0.091l-0.058-0.221
		l1.04-6.084h-0.663l-0.214-0.085l-0.085-0.215v-0.429l0.085-0.214l0.214-0.085h3.263c0.537,0,1.016,0.128,1.437,0.384
		c0.42,0.256,0.75,0.622,0.988,1.099c0.238,0.477,0.357,1.04,0.357,1.69v3.952l-0.084,0.215L230.477,73.477 M222.404,73.477h-0.546
		l-0.215-0.085l-0.084-0.215v-3.887c0-1.491-0.745-2.236-2.236-2.236h-1.586v6.123l-0.085,0.215l-0.214,0.085h-0.546l-0.215-0.085
		l-0.084-0.215v-6.825c0-0.095,0.028-0.169,0.084-0.221l0.215-0.078h2.496c1.118,0,1.95,0.266,2.496,0.8
		c0.546,0.533,0.819,1.332,0.819,2.398v3.926l-0.085,0.215L222.404,73.477"/>
	<path fill="#000000" d="M280.539,73.607c-0.676,0-1.261-0.11-1.755-0.331c-0.494-0.221-0.869-0.509-1.124-0.864
		c-0.256-0.355-0.392-0.724-0.409-1.105l0.078-0.188l0.195-0.072h0.585c0.095,0,0.173,0.02,0.234,0.059
		c0.061,0.039,0.108,0.115,0.143,0.227c0.113,0.442,0.358,0.754,0.735,0.936c0.377,0.182,0.821,0.273,1.332,0.273
		c0.624,0,1.12-0.149,1.489-0.448c0.368-0.299,0.552-0.726,0.552-1.281c0-1.057-0.646-1.586-1.937-1.586h-1.222l-0.215-0.085
		l-0.085-0.214v-0.338c0-0.13,0.048-0.243,0.143-0.338l2.535-2.808h-3.848l-0.214-0.078l-0.085-0.208v-0.468
		c0-0.095,0.028-0.171,0.085-0.228l0.214-0.085h5.148c0.095,0,0.171,0.028,0.228,0.085c0.056,0.056,0.085,0.132,0.085,0.228v0.429
		c0,0.096-0.043,0.195-0.13,0.299l-2.535,2.847h0.208c0.884,0.026,1.584,0.256,2.1,0.689c0.516,0.433,0.774,1.066,0.774,1.898
		c0,0.572-0.141,1.064-0.423,1.475c-0.282,0.412-0.674,0.728-1.176,0.949C281.739,73.497,281.171,73.607,280.539,73.607"/>
	<path fill="#000000" d="M252.589,90.494c-0.147,0-0.221-0.069-0.221-0.208v-0.611c0-0.147,0.091-0.256,0.273-0.325
		c0.026-0.008,0.197-0.067,0.514-0.176c0.316-0.108,0.6-0.245,0.851-0.409c0.26-0.165,0.516-0.392,0.767-0.682
		c0.251-0.29,0.429-0.566,0.533-0.825l-0.234-1.17c-0.104-0.511-0.214-0.916-0.331-1.215c-0.117-0.299-0.275-0.527-0.474-0.682
		c-0.199-0.156-0.459-0.234-0.78-0.234h-0.481l-0.214-0.078l-0.085-0.208v-0.442l0.085-0.215l0.214-0.084h0.481
		c0.554,0,1.01,0.113,1.365,0.338c0.355,0.225,0.639,0.561,0.851,1.007c0.212,0.447,0.392,1.029,0.54,1.748l0.78,4.056v0.052
		l-0.084,0.176l-0.201,0.072h-0.572c-0.165,0-0.265-0.1-0.299-0.299l-0.299-1.521c-0.321,0.494-0.689,0.88-1.105,1.157
		c-0.321,0.217-0.62,0.384-0.897,0.501c-0.277,0.117-0.572,0.206-0.884,0.266L252.589,90.494 M250.496,90.377h-0.546l-0.214-0.085
		l-0.085-0.214v-3.887c0-1.491-0.745-2.236-2.236-2.236h-1.677l-0.215-0.078l-0.084-0.208v-0.416l0.084-0.214l0.215-0.085h1.755
		c2.201,0,3.302,1.057,3.302,3.172v3.952l-0.085,0.214L250.496,90.377 M237.47,90.377h-0.546l-0.215-0.085l-0.084-0.214v-3.887
		c0-1.491-0.745-2.236-2.236-2.236h-1.586v6.123l-0.085,0.214l-0.214,0.085h-0.546l-0.215-0.085l-0.084-0.214v-6.825
		c0-0.095,0.028-0.169,0.084-0.221l0.215-0.078h2.496c1.118,0,1.95,0.266,2.496,0.8c0.546,0.533,0.819,1.332,0.819,2.398v3.926
		l-0.085,0.214L237.47,90.377 M229.41,90.377h-3.354l-0.208-0.085l-0.078-0.214v-0.416l0.078-0.215l0.208-0.085h2.509v-3.159
		c0-0.659-0.167-1.194-0.5-1.605c-0.334-0.412-0.756-0.617-1.267-0.617h-1.378l-1.001,6.084l-0.11,0.221l-0.215,0.091h-0.546
		l-0.202-0.091l-0.058-0.221l1.04-6.084h-0.663l-0.214-0.085l-0.085-0.215v-0.429l0.085-0.214l0.214-0.085h3.263
		c0.537,0,1.016,0.128,1.437,0.384c0.42,0.256,0.75,0.622,0.988,1.099c0.238,0.477,0.358,1.04,0.358,1.69v3.952l-0.085,0.214
		L229.41,90.377 M221.611,90.377h-0.585c-0.113,0-0.199-0.033-0.26-0.098l-0.104-0.11l-2.964-4.173
		c-0.373,0.269-0.626,0.587-0.76,0.956c-0.134,0.369-0.201,0.773-0.201,1.216v1.911l-0.085,0.214l-0.214,0.085h-0.481l-0.215-0.085
		l-0.084-0.214v-1.963c0-0.641,0.098-1.2,0.292-1.677c0.195-0.476,0.579-0.905,1.151-1.287l-1.209-1.69
		c-0.061-0.095-0.091-0.178-0.091-0.247l0.078-0.182l0.182-0.078h0.572c0.138,0,0.26,0.074,0.364,0.221l2.73,3.809
		c0.312-0.182,0.539-0.373,0.682-0.572c0.143-0.199,0.232-0.396,0.266-0.592c0.035-0.195,0.052-0.449,0.052-0.76v-1.807l0.085-0.214
		l0.214-0.085h0.507l0.214,0.085l0.085,0.214v1.859c0,0.589-0.102,1.094-0.306,1.514c-0.204,0.421-0.613,0.813-1.229,1.177
		l1.482,2.067l0.091,0.247l-0.078,0.182L221.611,90.377 M213.72,90.377h-0.546l-0.214-0.085l-0.085-0.214v-3.887
		c0-1.491-0.741-2.236-2.223-2.236h-2.418l-0.215-0.078l-0.085-0.208v-0.416c0-0.095,0.028-0.169,0.085-0.221l0.215-0.078h2.483
		c2.201,0,3.302,1.066,3.302,3.198v3.926l-0.085,0.214L213.72,90.377 M208.78,90.377h-0.546l-0.215-0.085l-0.085-0.214V85.71
		l0.085-0.215l0.215-0.084h0.546l0.215,0.084l0.084,0.215v4.368l-0.084,0.214L208.78,90.377 M243.502,83.994h-0.377
		c-0.156,0-0.243-0.095-0.26-0.286l-0.221-2.262v-0.052l0.071-0.182l0.189-0.065h0.819l0.201,0.084l0.059,0.215l-0.221,2.262
		C243.745,83.899,243.658,83.994,243.502,83.994"/>
	<path fill="#000000" d="M280.344,90.507c-1.118,0-1.935-0.327-2.451-0.982c-0.516-0.654-0.791-1.51-0.825-2.567l-0.013-1.118
		l0.013-1.157c0.026-1.049,0.301-1.9,0.825-2.555c0.524-0.654,1.341-0.981,2.451-0.981c1.118,0,1.939,0.327,2.463,0.981
		c0.524,0.655,0.8,1.506,0.826,2.555c0.009,0.243,0.013,0.628,0.013,1.157c0,0.511-0.004,0.884-0.013,1.118
		c-0.035,1.057-0.31,1.913-0.826,2.567C282.291,90.18,281.47,90.507,280.344,90.507 M280.344,82.213
		c-0.659,0-1.157,0.223-1.495,0.67c-0.338,0.446-0.516,1.068-0.533,1.865l-0.013,1.066l0.013,1.079
		c0.017,0.806,0.195,1.43,0.533,1.872c0.338,0.442,0.836,0.663,1.495,0.663c0.667,0,1.17-0.221,1.508-0.663
		c0.338-0.442,0.516-1.066,0.533-1.872c0.009-0.251,0.013-0.611,0.013-1.079c0-0.476-0.004-0.832-0.013-1.066
		c-0.018-0.797-0.197-1.419-0.539-1.865C281.503,82.436,281.002,82.213,280.344,82.213 M272.115,90.507
		c-1.118,0-1.935-0.327-2.451-0.982c-0.516-0.654-0.791-1.51-0.825-2.567l-0.013-1.118l0.013-1.157
		c0.026-1.049,0.301-1.9,0.825-2.555c0.524-0.654,1.341-0.981,2.451-0.981c1.118,0,1.939,0.327,2.464,0.981
		c0.524,0.655,0.799,1.506,0.825,2.555c0.009,0.243,0.013,0.628,0.013,1.157c0,0.511-0.004,0.884-0.013,1.118
		c-0.035,1.057-0.31,1.913-0.825,2.567C274.062,90.18,273.241,90.507,272.115,90.507 M272.115,82.213
		c-0.659,0-1.157,0.223-1.495,0.67c-0.338,0.446-0.516,1.068-0.533,1.865l-0.013,1.066l0.013,1.079
		c0.017,0.806,0.195,1.43,0.533,1.872c0.338,0.442,0.836,0.663,1.495,0.663c0.667,0,1.17-0.221,1.508-0.663
		c0.338-0.442,0.516-1.066,0.533-1.872c0.009-0.251,0.013-0.611,0.013-1.079c0-0.476-0.004-0.832-0.013-1.066
		c-0.017-0.797-0.197-1.419-0.539-1.865C273.274,82.436,272.773,82.213,272.115,82.213 M267.045,90.377h-5.694l-0.215-0.085
		l-0.084-0.214v-0.39c0-0.199,0.108-0.39,0.325-0.572l2.834-2.821c0.641-0.546,1.083-0.992,1.326-1.339
		c0.243-0.346,0.364-0.715,0.364-1.105c0-0.511-0.143-0.912-0.429-1.203c-0.286-0.29-0.702-0.435-1.248-0.435
		c-0.52,0-0.932,0.152-1.235,0.455c-0.304,0.304-0.49,0.711-0.559,1.222c-0.018,0.096-0.061,0.169-0.13,0.221l-0.208,0.078h-0.624
		l-0.195-0.078l-0.078-0.182c0.017-0.459,0.141-0.903,0.371-1.332c0.229-0.429,0.57-0.78,1.02-1.053
		c0.451-0.273,0.997-0.409,1.638-0.409c0.971,0,1.701,0.253,2.191,0.76c0.489,0.507,0.735,1.15,0.735,1.93
		c0,0.546-0.132,1.038-0.397,1.476c-0.264,0.438-0.678,0.899-1.241,1.384l-2.561,2.6h4.095c0.095,0,0.169,0.026,0.221,0.078
		c0.052,0.052,0.078,0.126,0.078,0.221v0.494l-0.084,0.214L267.045,90.377"/>
	<path fill="#000000" d="M261.143,107.407l-0.163-0.065l-0.071-0.182v-0.572c0-0.156,0.095-0.273,0.286-0.351l0.507-0.195
		c0.598-0.225,1.057-0.55,1.378-0.975c0.32-0.425,0.481-1.049,0.481-1.872c0-0.58-0.069-1.038-0.208-1.371
		c-0.139-0.334-0.366-0.574-0.682-0.722c-0.316-0.147-0.752-0.221-1.307-0.221h-0.403h-0.039l-1.196-0.013l-0.214-0.078
		l-0.085-0.208v-2.236l0.085-0.214l0.214-0.085h0.52l0.208,0.085l0.078,0.214v1.508h1.001c0.788,0,1.415,0.113,1.879,0.338
		c0.464,0.226,0.799,0.585,1.007,1.079c0.208,0.494,0.312,1.153,0.312,1.976c0,1.109-0.273,1.974-0.819,2.593
		c-0.546,0.62-1.257,1.077-2.132,1.372l-0.546,0.182L261.143,107.407 M272.258,107.277h-0.546l-0.215-0.085l-0.085-0.214v-3.887
		c0-1.491-0.745-2.236-2.236-2.236h-1.586v6.123l-0.085,0.214l-0.215,0.085h-0.546l-0.215-0.085l-0.085-0.214v-6.825
		c0-0.095,0.028-0.169,0.085-0.221l0.215-0.078h2.496c1.118,0,1.95,0.267,2.496,0.8c0.546,0.533,0.819,1.332,0.819,2.398v3.926
		l-0.085,0.214L272.258,107.277 M257.646,107.277h-3.354l-0.208-0.085l-0.078-0.214v-0.416l0.078-0.215l0.208-0.084h2.509v-3.159
		c0-0.659-0.167-1.194-0.501-1.605c-0.334-0.412-0.756-0.617-1.267-0.617h-1.378l-1.001,6.084l-0.11,0.221l-0.215,0.091h-0.546
		l-0.201-0.091l-0.058-0.221l1.04-6.084H251.9l-0.215-0.085l-0.084-0.214v-0.429l0.084-0.214l0.215-0.085h3.263
		c0.537,0,1.016,0.128,1.437,0.384c0.42,0.256,0.75,0.622,0.988,1.099c0.238,0.477,0.357,1.04,0.357,1.69v3.952l-0.085,0.214
		L257.646,107.277 M249.508,107.277h-0.572l-0.215-0.085l-0.084-0.214v-6.825c0-0.095,0.028-0.169,0.084-0.221l0.215-0.078h0.572
		l0.214,0.085l0.085,0.214v6.825l-0.085,0.214L249.508,107.277 M246.7,107.277h-3.471l-0.214-0.085l-0.085-0.214v-0.416l0.085-0.215
		l0.214-0.084h2.561l-0.208-3.302c-0.043-0.563-0.089-0.977-0.136-1.242c-0.048-0.264-0.154-0.479-0.318-0.643
		c-0.165-0.165-0.42-0.247-0.767-0.247h-0.533l-0.215-0.078l-0.085-0.208v-0.416l0.085-0.214l0.215-0.085h0.533
		c0.624,0,1.103,0.123,1.437,0.371c0.333,0.247,0.563,0.587,0.689,1.021c0.125,0.433,0.21,1.001,0.253,1.703l0.247,4.056v0.039
		l-0.085,0.188L246.7,107.277 M238.108,107.277h-5.447l-0.215-0.085l-0.085-0.214v-6.825c0-0.095,0.028-0.169,0.085-0.221
		l0.215-0.078h2.457c1.109,0,1.935,0.264,2.477,0.793c0.541,0.529,0.812,1.322,0.812,2.379v3.952l-0.084,0.214L238.108,107.277
		 M233.44,100.855v5.408h3.848v-3.172c0-1.491-0.745-2.236-2.236-2.236H233.44 M241.136,104.261h-0.572l-0.215-0.084l-0.084-0.215
		v-3.809c0-0.095,0.028-0.169,0.084-0.221l0.215-0.078h0.572l0.214,0.085l0.085,0.214v3.809l-0.085,0.215L241.136,104.261"/>
	<path fill="#000000" d="M280.539,107.407c-0.676,0-1.261-0.11-1.755-0.331c-0.494-0.221-0.869-0.509-1.124-0.865
		c-0.256-0.355-0.392-0.724-0.409-1.105l0.078-0.188l0.195-0.071h0.585c0.095,0,0.173,0.019,0.234,0.058
		c0.061,0.039,0.108,0.115,0.143,0.228c0.113,0.442,0.358,0.754,0.735,0.936c0.377,0.182,0.821,0.273,1.332,0.273
		c0.624,0,1.12-0.15,1.489-0.449c0.368-0.299,0.552-0.726,0.552-1.281c0-1.057-0.646-1.586-1.937-1.586h-1.222l-0.215-0.085
		l-0.085-0.214v-0.338c0-0.13,0.048-0.243,0.143-0.338l2.535-2.808h-3.848l-0.214-0.078l-0.085-0.208v-0.468
		c0-0.095,0.028-0.171,0.085-0.228l0.214-0.084h5.148c0.095,0,0.171,0.028,0.228,0.084c0.056,0.056,0.085,0.132,0.085,0.228v0.429
		c0,0.096-0.043,0.195-0.13,0.299l-2.535,2.847h0.208c0.884,0.026,1.584,0.256,2.1,0.689c0.516,0.434,0.774,1.066,0.774,1.898
		c0,0.572-0.141,1.064-0.423,1.475c-0.282,0.412-0.674,0.728-1.176,0.949C281.739,107.297,281.171,107.407,280.539,107.407"/>
	<path fill="#000000" d="M242.683,124.307c-1.066,0-1.866-0.28-2.398-0.839c-0.533-0.559-0.8-1.363-0.8-2.411v-4.004
		c0-0.095,0.028-0.169,0.085-0.221l0.214-0.078h3.12c1.118,0,1.92,0.251,2.405,0.754c0.485,0.503,0.75,1.274,0.793,2.314
		c0.009,0.087,0.013,0.321,0.013,0.702c0,0.382-0.005,0.615-0.013,0.702c-0.026,1.031-0.308,1.803-0.845,2.314
		C244.72,124.052,243.862,124.307,242.683,124.307 M240.577,117.755v3.302c0,0.719,0.176,1.27,0.527,1.651
		c0.351,0.382,0.873,0.572,1.566,0.572c0.815,0,1.399-0.171,1.755-0.513c0.355-0.342,0.541-0.878,0.559-1.606
		c0.008-0.086,0.013-0.299,0.013-0.637c0-0.338-0.005-0.55-0.013-0.637c-0.018-0.693-0.215-1.222-0.592-1.586
		c-0.377-0.364-0.895-0.546-1.554-0.546H240.577 M260.714,124.294c-0.148,0-0.221-0.07-0.221-0.208v-0.611
		c0-0.147,0.091-0.255,0.273-0.325c0.026-0.008,0.197-0.067,0.514-0.175c0.316-0.108,0.6-0.245,0.852-0.409
		c0.26-0.165,0.515-0.392,0.767-0.682c0.251-0.29,0.429-0.565,0.533-0.825l-0.234-1.17c-0.104-0.511-0.215-0.916-0.332-1.215
		c-0.117-0.299-0.275-0.527-0.474-0.682c-0.199-0.156-0.46-0.234-0.78-0.234h-0.481l-0.214-0.078l-0.085-0.208v-0.442l0.085-0.214
		l0.214-0.085h0.481c0.555,0,1.01,0.113,1.365,0.338c0.355,0.225,0.639,0.561,0.852,1.007c0.212,0.447,0.392,1.029,0.539,1.749
		l0.78,4.056v0.052l-0.085,0.175l-0.201,0.072h-0.572c-0.165,0-0.264-0.1-0.299-0.299l-0.299-1.521
		c-0.321,0.494-0.689,0.88-1.105,1.157c-0.321,0.217-0.62,0.383-0.897,0.5c-0.277,0.117-0.572,0.206-0.884,0.266L260.714,124.294
		 M258.621,124.177h-0.546l-0.215-0.085l-0.084-0.214v-3.887c0-1.491-0.745-2.236-2.236-2.236h-1.677l-0.214-0.078l-0.085-0.208
		v-0.416l0.085-0.215l0.214-0.085h1.755c2.201,0,3.302,1.058,3.302,3.172v3.952l-0.085,0.214L258.621,124.177 M237.249,124.177
		h-0.572l-0.214-0.085l-0.085-0.214v-6.825c0-0.095,0.028-0.169,0.085-0.221l0.214-0.078h0.572l0.215,0.085l0.084,0.215v6.825
		l-0.084,0.214L237.249,124.177 M231.335,124.177h-1.924l-0.215-0.085l-0.085-0.214v-0.429c0-0.095,0.028-0.169,0.085-0.221
		l0.215-0.078h1.859c0.754,0,1.309-0.19,1.664-0.572c0.355-0.381,0.55-0.936,0.585-1.664c0.008-0.121,0.013-0.273,0.013-0.455
		c0-0.173-0.005-0.321-0.013-0.442c-0.026-0.737-0.219-1.293-0.579-1.67c-0.36-0.377-0.917-0.565-1.671-0.565h-1.859l-0.215-0.085
		l-0.085-0.214v-0.429c0-0.095,0.028-0.169,0.085-0.221l0.215-0.078h1.924c1.101,0,1.917,0.275,2.451,0.825
		c0.533,0.551,0.817,1.346,0.851,2.386c0.009,0.121,0.013,0.286,0.013,0.494c0,0.208-0.005,0.377-0.013,0.507
		c-0.035,1.04-0.318,1.835-0.851,2.385C233.252,123.902,232.435,124.177,231.335,124.177 M226.863,124.177h-0.546l-0.214-0.085
		l-0.085-0.214v-3.887c0-1.491-0.745-2.236-2.236-2.236h-1.677l-0.214-0.078l-0.085-0.208v-0.416l0.085-0.215l0.214-0.085h1.755
		c2.201,0,3.302,1.058,3.302,3.172v3.952l-0.084,0.214L226.863,124.177 M251.627,117.794h-0.377c-0.156,0-0.243-0.095-0.26-0.286
		l-0.221-2.262v-0.052l0.072-0.182l0.188-0.065h0.819l0.201,0.085l0.058,0.214l-0.221,2.262
		C251.87,117.699,251.783,117.794,251.627,117.794"/>
	<path fill="#000000" d="M280.344,124.307c-1.118,0-1.935-0.327-2.451-0.982c-0.516-0.654-0.791-1.51-0.825-2.567l-0.013-1.118
		l0.013-1.157c0.026-1.049,0.301-1.9,0.825-2.555c0.524-0.654,1.341-0.981,2.451-0.981c1.118,0,1.939,0.327,2.463,0.981
		c0.524,0.655,0.8,1.506,0.826,2.555c0.009,0.243,0.013,0.628,0.013,1.157c0,0.512-0.004,0.884-0.013,1.118
		c-0.035,1.057-0.31,1.913-0.826,2.567C282.291,123.98,281.47,124.307,280.344,124.307 M280.344,116.013
		c-0.659,0-1.157,0.223-1.495,0.67c-0.338,0.446-0.516,1.068-0.533,1.866l-0.013,1.066l0.013,1.079
		c0.017,0.806,0.195,1.43,0.533,1.872c0.338,0.442,0.836,0.663,1.495,0.663c0.667,0,1.17-0.221,1.508-0.663
		c0.338-0.442,0.516-1.066,0.533-1.872c0.009-0.251,0.013-0.611,0.013-1.079c0-0.477-0.004-0.832-0.013-1.066
		c-0.018-0.797-0.197-1.419-0.539-1.866C281.503,116.236,281.002,116.013,280.344,116.013 M272.323,124.307
		c-0.65,0-1.213-0.117-1.69-0.351c-0.477-0.234-0.841-0.539-1.092-0.917c-0.251-0.377-0.386-0.782-0.403-1.215v-0.026l0.078-0.169
		l0.182-0.065h0.637c0.182,0,0.299,0.096,0.351,0.286c0.13,0.468,0.371,0.817,0.722,1.046c0.351,0.23,0.756,0.345,1.215,0.345
		c0.589,0,1.079-0.18,1.469-0.539c0.39-0.36,0.585-0.856,0.585-1.489c0-0.581-0.195-1.042-0.585-1.384
		c-0.39-0.342-0.88-0.514-1.469-0.514c-0.312,0-0.563,0.039-0.754,0.117c-0.191,0.078-0.386,0.191-0.585,0.338
		c-0.113,0.087-0.206,0.149-0.28,0.188l-0.241,0.058h-0.624l-0.208-0.084l-0.078-0.202l0.403-4.329
		c0.026-0.216,0.134-0.325,0.325-0.325h4.498c0.095,0,0.169,0.026,0.221,0.078c0.052,0.052,0.078,0.126,0.078,0.221v0.481
		l-0.084,0.208l-0.215,0.078h-3.744l-0.234,2.613c0.416-0.295,0.975-0.442,1.677-0.442c0.581,0,1.109,0.115,1.586,0.345
		c0.476,0.23,0.856,0.565,1.138,1.007c0.281,0.442,0.422,0.966,0.422,1.573c0,0.642-0.141,1.194-0.422,1.658
		c-0.282,0.464-0.672,0.815-1.17,1.053C273.534,124.188,272.964,124.307,272.323,124.307"/>
	<path fill="#000000" d="M255.189,141.194c-0.147,0-0.221-0.07-0.221-0.208v-0.611c0-0.147,0.091-0.256,0.273-0.325
		c0.026-0.009,0.197-0.067,0.513-0.175s0.6-0.245,0.852-0.41c0.26-0.165,0.516-0.392,0.767-0.682
		c0.251-0.29,0.429-0.565,0.533-0.825l-0.234-1.17c-0.104-0.511-0.215-0.917-0.331-1.216c-0.117-0.299-0.275-0.527-0.474-0.682
		c-0.2-0.156-0.46-0.234-0.78-0.234h-0.481l-0.215-0.078l-0.084-0.208v-0.442l0.084-0.214l0.215-0.085h0.481
		c0.554,0,1.009,0.113,1.365,0.338c0.355,0.225,0.639,0.561,0.851,1.008c0.212,0.446,0.392,1.029,0.54,1.748l0.78,4.056v0.052
		l-0.084,0.175l-0.202,0.072h-0.572c-0.165,0-0.264-0.1-0.299-0.299l-0.299-1.521c-0.321,0.494-0.689,0.88-1.105,1.157
		c-0.321,0.217-0.62,0.384-0.897,0.5c-0.277,0.117-0.572,0.206-0.884,0.267L255.189,141.194 M237.042,141.157
		c-0.039,0-0.078,0-0.118-0.001h-0.962c-0.563,0-1.07-0.13-1.521-0.39c-0.451-0.26-0.804-0.626-1.059-1.098
		c-0.256-0.472-0.384-1.016-0.384-1.632v-4.082c0-0.095,0.028-0.169,0.085-0.221l0.214-0.078h0.507l0.215,0.085l0.084,0.215
		l0.039,3.692c0.789-0.061,1.337-0.273,1.645-0.637c0.308-0.364,0.461-0.841,0.461-1.43v-1.625l0.084-0.215l0.215-0.085h0.507
		l0.215,0.085l0.084,0.215v1.677c0,0.832-0.264,1.517-0.793,2.054c-0.529,0.537-1.305,0.832-2.327,0.884
		c0.139,0.503,0.396,0.89,0.774,1.164c0.377,0.273,0.83,0.409,1.358,0.409h0.416c0.015,0,0.029,0,0.043,0
		c0.803,0,1.429-0.238,1.881-0.715c0.459-0.485,0.689-1.131,0.689-1.937v-3.536l0.085-0.215l0.214-0.085h0.507l0.215,0.085
		l0.085,0.215v3.614c0,0.728-0.15,1.367-0.449,1.917c-0.299,0.55-0.72,0.971-1.261,1.261
		C238.279,141.02,237.696,141.157,237.042,141.157 M253.096,141.077h-0.546l-0.214-0.085l-0.085-0.214v-3.887
		c0-1.491-0.745-2.236-2.236-2.236h-1.677l-0.215-0.078l-0.084-0.208v-0.416l0.084-0.215l0.215-0.085h1.755
		c2.201,0,3.302,1.058,3.302,3.172v3.952l-0.085,0.214L253.096,141.077 M230.88,141.077h-3.354l-0.208-0.085l-0.078-0.214v-0.416
		l0.078-0.215l0.208-0.084h2.509v-3.159c0-0.659-0.167-1.194-0.5-1.605c-0.334-0.411-0.756-0.617-1.268-0.617h-1.378l-1.001,6.084
		l-0.111,0.221l-0.215,0.091h-0.546l-0.202-0.091l-0.058-0.221l1.04-6.084h-0.663l-0.214-0.085l-0.085-0.214v-0.429l0.085-0.215
		l0.214-0.085h3.263c0.537,0,1.016,0.128,1.437,0.384c0.42,0.256,0.749,0.622,0.988,1.099c0.238,0.477,0.357,1.04,0.357,1.69v3.952
		l-0.084,0.214L230.88,141.077 M223.119,141.077h-3.471l-0.215-0.085l-0.084-0.214v-0.416l0.084-0.215l0.215-0.084h2.561
		l-0.208-3.302c-0.043-0.563-0.089-0.977-0.136-1.242c-0.048-0.264-0.154-0.479-0.319-0.643c-0.165-0.165-0.421-0.247-0.767-0.247
		h-0.533l-0.214-0.078l-0.085-0.208v-0.416l0.085-0.214l0.214-0.085h0.533c0.624,0,1.103,0.123,1.437,0.371
		c0.333,0.247,0.563,0.587,0.689,1.021c0.126,0.433,0.21,1.001,0.253,1.703l0.247,4.056v0.039l-0.085,0.188L223.119,141.077
		 M217.529,141.077h-0.546l-0.214-0.085l-0.085-0.214v-3.887c0-1.491-0.745-2.236-2.236-2.236h-0.936
		c-0.087,0.546-0.149,0.999-0.188,1.358c-0.039,0.36-0.054,0.769-0.045,1.229l0.026,3.536l-0.084,0.214l-0.215,0.085l-1.807-0.026
		l-0.215-0.085l-0.084-0.215v-0.39l0.084-0.215l0.215-0.084l1.001,0.013v-2.782c-0.009-0.546,0.002-1.008,0.033-1.385
		c0.03-0.377,0.102-0.795,0.214-1.254h-0.702l-0.215-0.078l-0.085-0.208v-0.416c0-0.095,0.028-0.169,0.085-0.221l0.215-0.078h2.782
		c2.201,0,3.302,1.058,3.302,3.172v3.952l-0.084,0.214L217.529,141.077 M205.777,141.077h-0.546l-0.215-0.085l-0.085-0.214v-3.887
		c0-1.491-0.745-2.236-2.236-2.236h-1.586v6.123l-0.085,0.214l-0.215,0.085h-0.546l-0.215-0.085l-0.085-0.214v-6.825
		c0-0.095,0.028-0.169,0.085-0.221l0.215-0.078h2.496c1.118,0,1.95,0.267,2.496,0.8c0.546,0.533,0.819,1.332,0.819,2.398v3.926
		l-0.084,0.214L205.777,141.077 M197.717,141.077h-3.354l-0.208-0.085l-0.078-0.214v-0.416l0.078-0.215l0.208-0.084h2.509v-3.159
		c0-0.659-0.167-1.194-0.501-1.605c-0.334-0.411-0.756-0.617-1.267-0.617h-1.378l-1.001,6.084l-0.11,0.221l-0.215,0.091h-0.546
		l-0.201-0.091l-0.058-0.221l1.04-6.084h-0.663l-0.215-0.085l-0.084-0.214v-0.429l0.084-0.215l0.215-0.085h3.263
		c0.537,0,1.016,0.128,1.437,0.384c0.42,0.256,0.75,0.622,0.988,1.099c0.238,0.477,0.357,1.04,0.357,1.69v3.952l-0.084,0.214
		L197.717,141.077 M189.58,141.077h-0.572l-0.215-0.085l-0.084-0.214v-6.825c0-0.095,0.028-0.169,0.084-0.221l0.215-0.078h0.572
		l0.214,0.085l0.085,0.215v6.825l-0.085,0.214L189.58,141.077 M186.499,141.077h-4.68l-0.214-0.085l-0.085-0.214v-0.429l0.085-0.208
		l0.214-0.078h3.536l-4.069-5.902c-0.07-0.113-0.104-0.195-0.104-0.247l0.085-0.182l0.201-0.078h0.572
		c0.139,0,0.256,0.07,0.351,0.208l2.327,3.354c0.737-0.347,1.105-1.057,1.105-2.132v-1.131c0-0.095,0.028-0.169,0.084-0.221
		l0.215-0.078h0.507l0.215,0.085l0.084,0.215v1.274c0,0.667-0.139,1.239-0.416,1.716c-0.277,0.477-0.685,0.841-1.222,1.092
		l1.352,1.95c0.104,0.13,0.156,0.26,0.156,0.39v0.403l-0.084,0.214L186.499,141.077 M179.557,141.077h-0.546l-0.214-0.085
		l-0.085-0.214v-3.887c0-1.491-0.741-2.236-2.223-2.236h-2.418l-0.215-0.078l-0.085-0.208v-0.416c0-0.095,0.028-0.169,0.085-0.221
		l0.215-0.078h2.483c2.201,0,3.302,1.066,3.302,3.198v3.926l-0.085,0.214L179.557,141.077 M174.617,141.077h-0.546l-0.215-0.085
		l-0.085-0.214v-4.368l0.085-0.214l0.215-0.085h0.546l0.215,0.085l0.084,0.214v4.368l-0.084,0.214L174.617,141.077 M246.102,134.694
		h-0.377c-0.156,0-0.243-0.095-0.26-0.286l-0.221-2.262v-0.052l0.071-0.182l0.188-0.065h0.819l0.201,0.085l0.059,0.214l-0.221,2.262
		C246.345,134.599,246.258,134.694,246.102,134.694"/>
	<path fill="#000000" d="M280.344,141.207c-1.118,0-1.935-0.327-2.451-0.981c-0.516-0.654-0.791-1.51-0.825-2.568l-0.013-1.118
		l0.013-1.157c0.026-1.049,0.301-1.9,0.825-2.555c0.524-0.654,1.341-0.981,2.451-0.981c1.118,0,1.939,0.327,2.463,0.981
		c0.524,0.655,0.8,1.506,0.826,2.555c0.009,0.243,0.013,0.628,0.013,1.157c0,0.512-0.004,0.884-0.013,1.118
		c-0.035,1.057-0.31,1.913-0.826,2.568C282.291,140.88,281.47,141.207,280.344,141.207 M280.344,132.913
		c-0.659,0-1.157,0.223-1.495,0.67c-0.338,0.447-0.516,1.068-0.533,1.866l-0.013,1.066l0.013,1.079
		c0.017,0.806,0.195,1.43,0.533,1.872c0.338,0.442,0.836,0.663,1.495,0.663c0.667,0,1.17-0.221,1.508-0.663
		c0.338-0.442,0.516-1.066,0.533-1.872c0.009-0.251,0.013-0.611,0.013-1.079c0-0.477-0.004-0.832-0.013-1.066
		c-0.018-0.797-0.197-1.419-0.539-1.866C281.503,133.136,281.002,132.913,280.344,132.913 M272.323,141.207
		c-0.65,0-1.213-0.117-1.69-0.351c-0.477-0.234-0.841-0.539-1.092-0.916c-0.251-0.377-0.386-0.782-0.403-1.216v-0.026l0.078-0.169
		l0.182-0.065h0.637c0.182,0,0.299,0.096,0.351,0.286c0.13,0.468,0.371,0.817,0.722,1.046c0.351,0.23,0.756,0.345,1.215,0.345
		c0.589,0,1.079-0.18,1.469-0.539c0.39-0.36,0.585-0.856,0.585-1.489c0-0.581-0.195-1.042-0.585-1.385
		c-0.39-0.342-0.88-0.513-1.469-0.513c-0.312,0-0.563,0.039-0.754,0.117c-0.191,0.078-0.386,0.191-0.585,0.338
		c-0.113,0.087-0.206,0.149-0.28,0.188l-0.241,0.058h-0.624l-0.208-0.084l-0.078-0.202l0.403-4.329
		c0.026-0.216,0.134-0.325,0.325-0.325h4.498c0.095,0,0.169,0.026,0.221,0.078s0.078,0.126,0.078,0.221v0.481l-0.084,0.208
		l-0.215,0.078h-3.744l-0.234,2.613c0.416-0.295,0.975-0.442,1.677-0.442c0.581,0,1.109,0.115,1.586,0.345
		c0.476,0.23,0.856,0.565,1.138,1.007c0.281,0.442,0.422,0.966,0.422,1.573c0,0.641-0.141,1.194-0.422,1.657
		c-0.282,0.464-0.672,0.815-1.17,1.053C273.534,141.088,272.964,141.207,272.323,141.207 M267.24,141.077h-0.637l-0.208-0.085
		l-0.078-0.214v-7.332l-2.184,1.677l-0.195,0.078l-0.221-0.13l-0.312-0.403l-0.065-0.182c0-0.095,0.043-0.173,0.13-0.234
		l2.821-2.184c0.095-0.06,0.208-0.091,0.338-0.091h0.611l0.215,0.084l0.084,0.215v8.502l-0.084,0.214L267.24,141.077"/>
	<path fill="#000000" d="M269.099,175.007l-0.163-0.065l-0.071-0.182v-0.572c0-0.156,0.095-0.273,0.286-0.351l0.507-0.195
		c0.598-0.225,1.057-0.55,1.378-0.975c0.32-0.425,0.481-1.048,0.481-1.872c0-0.581-0.069-1.038-0.208-1.372
		c-0.139-0.333-0.366-0.574-0.682-0.722c-0.316-0.147-0.752-0.221-1.307-0.221h-0.403h-0.039l-1.196-0.013l-0.214-0.078
		l-0.085-0.208v-2.236l0.085-0.214l0.214-0.085h0.52l0.208,0.085l0.078,0.214v1.508h1.001c0.789,0,1.415,0.113,1.878,0.338
		c0.464,0.226,0.799,0.585,1.007,1.079s0.312,1.153,0.312,1.976c0,1.109-0.273,1.974-0.819,2.594
		c-0.546,0.62-1.257,1.077-2.132,1.371l-0.546,0.182L269.099,175.007 M283.23,174.877h-3.354l-0.208-0.084l-0.078-0.215v-0.416
		l0.078-0.214l0.208-0.085h2.509v-3.159c0-0.658-0.167-1.194-0.501-1.605c-0.334-0.411-0.756-0.617-1.267-0.617h-1.378l-1.001,6.084
		l-0.111,0.221l-0.214,0.091h-0.546l-0.201-0.091l-0.059-0.221l1.04-6.084h-0.663l-0.215-0.085l-0.085-0.214v-0.429l0.085-0.215
		l0.215-0.084h3.263c0.537,0,1.016,0.128,1.436,0.384c0.42,0.256,0.75,0.622,0.988,1.099c0.238,0.477,0.358,1.04,0.358,1.69v3.952
		l-0.085,0.215L283.23,174.877 M265.29,174.877h-0.572l-0.214-0.084l-0.085-0.215v-6.825c0-0.095,0.028-0.169,0.085-0.221
		l0.214-0.078h0.572l0.214,0.084l0.085,0.215v6.825l-0.085,0.215L265.29,174.877 M259.18,174.877h-0.897l-0.208-0.084l-0.078-0.215
		v-0.871c0-0.095,0.026-0.171,0.078-0.228l0.208-0.085h0.897c0.095,0,0.171,0.028,0.228,0.085c0.056,0.056,0.085,0.132,0.085,0.228
		v0.871l-0.091,0.215L259.18,174.877 M275.183,171.861h-0.572l-0.214-0.085l-0.085-0.214v-3.809c0-0.095,0.028-0.169,0.085-0.221
		l0.214-0.078h0.572l0.215,0.084l0.085,0.215v3.809l-0.085,0.214L275.183,171.861 M262.196,171.861h-0.572l-0.215-0.085
		l-0.085-0.214v-3.809c0-0.095,0.028-0.169,0.085-0.221l0.215-0.078h0.572l0.214,0.084l0.085,0.215v3.809l-0.085,0.214
		L262.196,171.861 M259.18,170.327h-0.897l-0.208-0.085l-0.078-0.214v-0.871c0-0.095,0.026-0.171,0.078-0.228l0.208-0.085h0.897
		c0.095,0,0.171,0.028,0.228,0.085c0.056,0.056,0.085,0.132,0.085,0.228v0.871l-0.091,0.214L259.18,170.327"/>
	<path fill="#000000" d="M283.23,191.777h-3.354l-0.208-0.084l-0.078-0.215v-0.416l0.078-0.214l0.208-0.085h2.509v-3.159
		c0-0.658-0.167-1.194-0.501-1.605c-0.334-0.411-0.756-0.617-1.267-0.617h-1.378l-1.001,6.084l-0.111,0.221l-0.214,0.091h-0.546
		l-0.201-0.091l-0.059-0.221l1.04-6.084h-0.663l-0.215-0.085l-0.085-0.214v-0.429l0.085-0.215l0.215-0.084h3.263
		c0.537,0,1.016,0.128,1.437,0.384c0.42,0.256,0.75,0.622,0.988,1.098c0.238,0.477,0.358,1.04,0.358,1.69v3.952l-0.085,0.215
		L283.23,191.777 M275.157,191.777h-3.354l-0.208-0.084l-0.078-0.215v-0.416l0.078-0.214l0.208-0.085h2.509v-3.159
		c0-0.658-0.167-1.194-0.5-1.605c-0.334-0.411-0.756-0.617-1.268-0.617h-1.378l-1.001,6.084l-0.11,0.221l-0.215,0.091h-0.546
		l-0.202-0.091l-0.058-0.221l1.04-6.084h-0.663l-0.214-0.085l-0.085-0.214v-0.429l0.085-0.215l0.214-0.084h3.263
		c0.537,0,1.016,0.128,1.437,0.384c0.42,0.256,0.75,0.622,0.988,1.098c0.238,0.477,0.357,1.04,0.357,1.69v3.952l-0.084,0.215
		L275.157,191.777 M267.084,191.777h-0.546l-0.215-0.084l-0.084-0.215v-3.887c0-1.49-0.745-2.236-2.236-2.236h-1.677l-0.215-0.078
		l-0.084-0.208v-0.416l0.084-0.215l0.215-0.084h1.755c2.201,0,3.302,1.057,3.302,3.172v3.952l-0.085,0.215L267.084,191.777
		 M260.363,191.777h-0.546l-0.215-0.084l-0.084-0.215v-3.887c0-1.49-0.745-2.236-2.236-2.236h-1.586v6.123l-0.085,0.215
		l-0.215,0.084h-0.546l-0.215-0.084l-0.084-0.215v-6.825c0-0.095,0.028-0.169,0.084-0.221l0.215-0.078h2.496
		c1.118,0,1.95,0.266,2.496,0.799c0.546,0.533,0.819,1.333,0.819,2.399v3.926l-0.085,0.215L260.363,191.777 M249.105,191.777h-0.546
		l-0.214-0.084l-0.085-0.215v-3.887c0-1.49-0.745-2.236-2.236-2.236h-0.936c-0.087,0.546-0.149,0.999-0.188,1.358
		c-0.039,0.36-0.054,0.769-0.045,1.229l0.026,3.536l-0.085,0.215l-0.215,0.084l-1.807-0.026l-0.215-0.085l-0.084-0.214v-0.39
		l0.084-0.214l0.215-0.085l1.001,0.013v-2.782c-0.009-0.546,0.002-1.008,0.033-1.384c0.03-0.377,0.102-0.795,0.215-1.254h-0.702
		l-0.215-0.078l-0.085-0.208v-0.416c0-0.095,0.028-0.169,0.085-0.221l0.215-0.078h2.782c2.201,0,3.302,1.057,3.302,3.172v3.952
		l-0.084,0.215L249.105,191.777 M240.551,191.777h-3.354l-0.208-0.084l-0.078-0.215v-0.416l0.078-0.214l0.208-0.085h2.509v-3.159
		c0-0.658-0.167-1.194-0.501-1.605c-0.334-0.411-0.756-0.617-1.267-0.617h-1.378l-1.001,6.084l-0.111,0.221l-0.214,0.091h-0.546
		l-0.201-0.091l-0.058-0.221l1.04-6.084h-0.663l-0.215-0.085l-0.084-0.214v-0.429l0.084-0.215l0.215-0.084h3.263
		c0.537,0,1.016,0.128,1.437,0.384c0.42,0.256,0.75,0.622,0.988,1.098c0.238,0.477,0.358,1.04,0.358,1.69v3.952l-0.085,0.215
		L240.551,191.777 M232.479,191.777h-0.546l-0.215-0.084l-0.084-0.215v-3.887c0-1.49-0.745-2.236-2.236-2.236h-1.677l-0.214-0.078
		l-0.085-0.208v-0.416l0.085-0.215l0.214-0.084h1.755c2.201,0,3.302,1.057,3.302,3.172v3.952l-0.085,0.215L232.479,191.777
		 M222.469,191.777h-5.447l-0.215-0.084l-0.084-0.215v-6.825c0-0.095,0.028-0.169,0.084-0.221l0.215-0.078h2.457
		c1.109,0,1.935,0.264,2.477,0.793c0.541,0.529,0.813,1.322,0.813,2.379v3.952l-0.085,0.215L222.469,191.777 M217.802,185.355v5.408
		h3.848v-3.172c0-1.49-0.745-2.236-2.236-2.236H217.802 M225.498,188.761h-0.572l-0.214-0.085l-0.085-0.214v-3.809
		c0-0.095,0.028-0.169,0.085-0.221l0.214-0.078h0.572l0.215,0.084l0.085,0.215v3.809l-0.085,0.214L225.498,188.761"/>
	<path fill="#000000" d="M244.594,208.807c-1.135,0-1.963-0.271-2.483-0.813c-0.52-0.542-0.78-1.332-0.78-2.373v-4.069
		c0-0.095,0.028-0.169,0.085-0.221l0.214-0.078h0.494c0.095,0,0.169,0.026,0.221,0.078c0.052,0.052,0.078,0.126,0.078,0.221v4.004
		c0,0.719,0.18,1.27,0.539,1.651c0.36,0.382,0.904,0.572,1.632,0.572c0.719,0,1.25-0.176,1.593-0.527
		c0.342-0.351,0.522-0.882,0.539-1.592v-0.403v-0.936c-0.018-0.711-0.169-1.239-0.455-1.586c-0.286-0.347-0.676-0.52-1.17-0.52
		c-0.156,0-0.329,0.028-0.52,0.085c-0.191,0.056-0.356,0.128-0.494,0.215l-0.13,0.039l-0.163-0.071l-0.071-0.163v-0.377
		c0-0.104,0.008-0.186,0.026-0.247l0.143-0.156c0.182-0.121,0.375-0.21,0.579-0.266c0.203-0.056,0.462-0.085,0.773-0.085
		c0.84,0,1.48,0.245,1.917,0.735c0.438,0.49,0.67,1.246,0.696,2.268c0.009,0.087,0.013,0.342,0.013,0.767
		c0,0.425-0.004,0.68-0.013,0.767c-0.035,1.04-0.306,1.813-0.813,2.32C246.538,208.554,245.721,208.807,244.594,208.807
		 M271.933,208.794c-0.148,0-0.221-0.069-0.221-0.208v-0.611c0-0.147,0.091-0.256,0.273-0.325c0.026-0.009,0.197-0.067,0.514-0.176
		c0.316-0.108,0.6-0.245,0.852-0.409c0.26-0.165,0.516-0.392,0.767-0.682c0.251-0.29,0.429-0.566,0.533-0.825l-0.234-1.17
		c-0.104-0.511-0.215-0.916-0.331-1.216c-0.117-0.299-0.275-0.527-0.475-0.682c-0.199-0.156-0.459-0.234-0.78-0.234h-0.481
		l-0.215-0.078l-0.085-0.208v-0.442l0.085-0.215l0.215-0.085h0.481c0.555,0,1.01,0.113,1.365,0.338
		c0.355,0.226,0.639,0.561,0.851,1.008c0.212,0.447,0.392,1.029,0.539,1.748l0.78,4.056v0.052l-0.084,0.176l-0.202,0.071h-0.572
		c-0.165,0-0.264-0.1-0.299-0.299l-0.299-1.521c-0.321,0.494-0.689,0.88-1.105,1.157c-0.321,0.217-0.62,0.384-0.897,0.501
		c-0.277,0.117-0.572,0.206-0.884,0.266L271.933,208.794 M283.503,208.677h-0.585c-0.113,0-0.199-0.033-0.26-0.097l-0.104-0.11
		l-2.964-4.173c-0.373,0.269-0.626,0.587-0.76,0.956c-0.134,0.368-0.201,0.773-0.201,1.215v1.911l-0.085,0.215l-0.215,0.084h-0.481
		l-0.215-0.084l-0.085-0.215v-1.963c0-0.641,0.098-1.2,0.293-1.677c0.195-0.476,0.579-0.905,1.151-1.287l-1.209-1.69
		c-0.061-0.095-0.091-0.178-0.091-0.247l0.078-0.182l0.182-0.078h0.572c0.139,0,0.26,0.074,0.364,0.221l2.73,3.809
		c0.312-0.182,0.539-0.373,0.682-0.572c0.143-0.199,0.232-0.396,0.266-0.592c0.035-0.195,0.052-0.449,0.052-0.76v-1.807l0.085-0.214
		l0.214-0.085h0.507l0.215,0.085l0.085,0.214v1.859c0,0.59-0.102,1.094-0.306,1.515c-0.204,0.42-0.613,0.813-1.229,1.176
		l1.482,2.067l0.091,0.247l-0.078,0.182L283.503,208.677 M269.775,208.677h-0.572l-0.215-0.084l-0.084-0.215v-6.825
		c0-0.095,0.028-0.169,0.084-0.221l0.215-0.078h0.572l0.214,0.085l0.085,0.214v6.825l-0.085,0.215L269.775,208.677 M265.407,208.677
		h-0.546l-0.208-0.078l-0.078-0.208v-4.667c0-0.355,0.03-0.659,0.091-0.91c0.061-0.251,0.143-0.438,0.247-0.559h-1.144l-0.215-0.078
		l-0.085-0.208v-0.416l0.085-0.214l0.215-0.085h3.12l0.214,0.085l0.085,0.214v0.416l-0.085,0.208l-0.214,0.078h-0.78
		c-0.121,0.13-0.219,0.334-0.293,0.611c-0.074,0.277-0.111,0.589-0.111,0.936v4.589l-0.085,0.208L265.407,208.677 M258.53,208.677
		h-5.447l-0.214-0.084l-0.085-0.215v-6.825c0-0.095,0.028-0.169,0.085-0.221l0.214-0.078h2.457c1.109,0,1.935,0.264,2.476,0.793
		c0.541,0.529,0.813,1.322,0.813,2.379v3.952l-0.085,0.215L258.53,208.677 M253.863,202.255v5.408h3.848v-3.172
		c0-1.49-0.745-2.236-2.236-2.236H253.863 M239.148,208.677h-0.546l-0.215-0.084l-0.084-0.215v-3.887
		c0-1.49-0.745-2.236-2.236-2.236h-1.586v6.123l-0.085,0.215l-0.214,0.084h-0.546l-0.215-0.084l-0.084-0.215v-6.825
		c0-0.095,0.028-0.169,0.084-0.221l0.215-0.078h2.496c1.118,0,1.95,0.266,2.496,0.8c0.546,0.533,0.819,1.332,0.819,2.398v3.926
		l-0.085,0.215L239.148,208.677 M231.023,208.677h-0.572l-0.215-0.084l-0.085-0.215v-6.825c0-0.095,0.028-0.169,0.085-0.221
		l0.215-0.078h0.572l0.214,0.085l0.085,0.214v6.825l-0.085,0.215L231.023,208.677 M228.215,208.677h-3.471l-0.215-0.084
		l-0.084-0.215v-0.416l0.084-0.214l0.215-0.085h2.561l-0.208-3.302c-0.043-0.563-0.089-0.977-0.136-1.242
		c-0.048-0.264-0.154-0.479-0.319-0.644c-0.165-0.165-0.421-0.247-0.767-0.247h-0.533l-0.214-0.078l-0.085-0.208v-0.416l0.085-0.215
		l0.214-0.085h0.533c0.624,0,1.103,0.124,1.437,0.371c0.333,0.247,0.563,0.587,0.689,1.021c0.126,0.434,0.21,1.001,0.253,1.703
		l0.247,4.056v0.039l-0.085,0.188L228.215,208.677 M219.622,208.677h-5.447l-0.214-0.084l-0.085-0.215v-6.825
		c0-0.095,0.028-0.169,0.085-0.221l0.214-0.078h2.457c1.109,0,1.935,0.264,2.476,0.793c0.542,0.529,0.813,1.322,0.813,2.379v3.952
		l-0.084,0.215L219.622,208.677 M214.955,202.255v5.408h3.848v-3.172c0-1.49-0.745-2.236-2.236-2.236H214.955 M261.559,205.661
		h-0.572l-0.214-0.085l-0.085-0.214v-3.809c0-0.095,0.028-0.169,0.085-0.221l0.214-0.078h0.572l0.214,0.085l0.085,0.214v3.809
		l-0.085,0.214L261.559,205.661 M222.651,205.661h-0.572l-0.215-0.085l-0.084-0.214v-3.809c0-0.095,0.028-0.169,0.084-0.221
		l0.215-0.078h0.572l0.214,0.085l0.085,0.214v3.809l-0.085,0.214L222.651,205.661"/>
	<path fill="#000000" d="M283.243,242.477h-1.209l-0.221-0.091l-0.091-0.221v-6.708l-1.963,1.508l-0.195,0.065
		c-0.104,0-0.186-0.043-0.247-0.13l-0.559-0.728l-0.065-0.182c0-0.104,0.047-0.19,0.143-0.26l2.912-2.262
		c0.095-0.061,0.203-0.091,0.325-0.091h1.17l0.221,0.091l0.091,0.221v8.476l-0.091,0.221L283.243,242.477"/>
	<path fill="#000000" d="M216.992,244.96h-0.221l-0.208-0.078l-0.078-0.208v-7.046l0.078-0.208l0.208-0.078h0.221l0.208,0.078
		l0.078,0.208v7.046l-0.078,0.208L216.992,244.96 M134.937,244.96h-0.221l-0.208-0.078l-0.078-0.208v-7.046l0.078-0.208l0.208-0.078
		h0.221l0.208,0.078l0.078,0.208v7.046l-0.078,0.208L134.937,244.96 M241.613,244.089h-0.221l-0.208-0.078l-0.078-0.208v-8.463
		l0.078-0.208l0.208-0.078h0.221l0.208,0.078l0.078,0.208v8.463l-0.078,0.208L241.613,244.089 M155.944,244.089h-0.221l-0.208-0.078
		l-0.078-0.208v-8.463l0.078-0.208l0.208-0.078h0.221l0.208,0.078l0.078,0.208v8.463l-0.078,0.208L155.944,244.089 M191.174,243.218
		l-0.176-0.065l-0.071-0.156v-0.169c0-0.199,0.06-0.321,0.182-0.364l1.781-0.65l-1.729-6.24c-0.043-0.147-0.065-0.234-0.065-0.26
		l0.078-0.182l0.182-0.078h0.234l0.195,0.058l0.104,0.137l1.781,6.279l0.13-0.052c0.711-0.26,1.209-0.632,1.495-1.118
		c0.286-0.485,0.429-1.075,0.429-1.768v-3.25l0.078-0.208l0.208-0.078h0.221l0.208,0.078l0.078,0.208v3.51
		c0,0.728-0.234,1.404-0.702,2.028c-0.468,0.624-1.088,1.075-1.859,1.352l-2.665,0.962L191.174,243.218 M263.232,242.594
		c-0.139,0-0.208-0.069-0.208-0.208v-0.325c0-0.147,0.091-0.256,0.273-0.325l0.533-0.208c0.667-0.26,1.176-0.619,1.527-1.079
		c0.351-0.459,0.527-1.144,0.527-2.054c0-0.65-0.078-1.161-0.234-1.534c-0.156-0.372-0.414-0.641-0.773-0.806
		c-0.36-0.165-0.852-0.247-1.476-0.247h-0.442h-0.039l-1.014-0.013l-0.208-0.071l-0.078-0.201v-1.989l0.078-0.208l0.208-0.078h0.221
		l0.208,0.078l0.078,0.208v1.521h1.053c0.806,0,1.441,0.11,1.905,0.331c0.464,0.221,0.797,0.579,1.001,1.073
		c0.203,0.494,0.306,1.17,0.306,2.028c0,1.118-0.253,1.972-0.761,2.561c-0.507,0.59-1.185,1.036-2.034,1.339l-0.546,0.195
		L263.232,242.594 M218.916,242.594c-0.139,0-0.208-0.069-0.208-0.208v-0.325c0-0.147,0.091-0.256,0.273-0.325l0.533-0.208
		c0.667-0.26,1.176-0.619,1.527-1.079c0.351-0.459,0.527-1.144,0.527-2.054c0-0.65-0.078-1.161-0.234-1.534
		c-0.156-0.372-0.414-0.641-0.773-0.806c-0.36-0.165-0.852-0.247-1.475-0.247h-2.314l-0.208-0.078l-0.078-0.208v-0.182l0.078-0.208
		l0.208-0.078h2.379c0.806,0,1.441,0.11,1.904,0.331c0.464,0.221,0.797,0.579,1.001,1.073c0.204,0.494,0.306,1.17,0.306,2.028
		c0,1.118-0.253,1.972-0.76,2.561c-0.507,0.59-1.185,1.036-2.035,1.339l-0.546,0.195L218.916,242.594 M143.789,242.594
		c-0.139,0-0.208-0.069-0.208-0.208v-0.325c0-0.147,0.091-0.256,0.273-0.325l0.533-0.208c0.667-0.26,1.176-0.619,1.528-1.079
		c0.351-0.459,0.527-1.144,0.527-2.054c0-0.65-0.078-1.161-0.234-1.534c-0.156-0.372-0.414-0.641-0.773-0.806
		c-0.36-0.165-0.852-0.247-1.475-0.247h-0.442h-0.039l-1.014-0.013l-0.208-0.071l-0.078-0.201v-1.989l0.078-0.208l0.208-0.078h0.221
		l0.208,0.078l0.078,0.208v1.521h1.053c0.806,0,1.441,0.11,1.905,0.331c0.464,0.221,0.797,0.579,1.001,1.073
		c0.204,0.494,0.306,1.17,0.306,2.028c0,1.118-0.253,1.972-0.76,2.561c-0.507,0.59-1.185,1.036-2.035,1.339l-0.546,0.195
		L143.789,242.594 M136.861,242.594c-0.139,0-0.208-0.069-0.208-0.208v-0.325c0-0.147,0.091-0.256,0.273-0.325l0.533-0.208
		c0.667-0.26,1.177-0.619,1.527-1.079c0.351-0.459,0.527-1.144,0.527-2.054c0-0.65-0.078-1.161-0.234-1.534
		c-0.156-0.372-0.414-0.641-0.773-0.806c-0.36-0.165-0.852-0.247-1.476-0.247h-2.314l-0.208-0.078l-0.078-0.208v-0.182l0.078-0.208
		l0.208-0.078h2.379c0.806,0,1.441,0.11,1.905,0.331c0.464,0.221,0.797,0.579,1.001,1.073c0.203,0.494,0.306,1.17,0.306,2.028
		c0,1.118-0.254,1.972-0.761,2.561c-0.507,0.59-1.185,1.036-2.034,1.339l-0.546,0.195L136.861,242.594 M259.683,242.477h-0.221
		l-0.208-0.078l-0.078-0.208v-3.9c0-1.655-0.828-2.483-2.483-2.483h-2.236l-0.208-0.078l-0.078-0.208v-0.182l0.078-0.208
		l0.208-0.078h2.301c1.083,0,1.889,0.271,2.418,0.813c0.529,0.542,0.793,1.328,0.793,2.36v3.965l-0.078,0.208L259.683,242.477
		 M254.678,242.477h-0.221l-0.208-0.078l-0.078-0.208v-4.563l0.078-0.208l0.208-0.078h0.221l0.208,0.078l0.078,0.208v4.563
		l-0.078,0.208L254.678,242.477 M249.075,242.477h-1.911l-0.208-0.078l-0.078-0.208v-0.182l0.078-0.208l0.208-0.078h1.846
		c0.849,0,1.467-0.21,1.852-0.631c0.386-0.42,0.596-1.038,0.631-1.852c0.008-0.13,0.013-0.29,0.013-0.481
		c0-0.182-0.005-0.338-0.013-0.468c-0.026-0.815-0.234-1.432-0.624-1.853c-0.39-0.42-1.01-0.63-1.859-0.63h-1.846l-0.208-0.078
		l-0.078-0.208v-0.182l0.078-0.208l0.208-0.078h1.911c1.074,0,1.87,0.269,2.385,0.806c0.516,0.537,0.791,1.326,0.825,2.366
		c0.009,0.13,0.013,0.308,0.013,0.533c0,0.234-0.004,0.416-0.013,0.546c-0.035,1.04-0.31,1.829-0.825,2.366
		C250.945,242.209,250.149,242.477,249.075,242.477 M236.205,242.477h-5.2l-0.208-0.078l-0.078-0.208v-0.182l0.078-0.208
		l0.208-0.078h3.913v-3.432c0-1.655-0.828-2.483-2.483-2.483h-1.3l-0.208-0.078l-0.078-0.208v-0.182l0.078-0.208l0.208-0.078h1.365
		c1.083,0,1.889,0.273,2.418,0.819c0.529,0.546,0.793,1.331,0.793,2.353v3.497h0.494l0.208,0.078l0.078,0.208v0.182l-0.078,0.208
		L236.205,242.477 M228.808,242.477h-4.485l-0.208-0.078l-0.078-0.208v-0.182l0.078-0.208l0.208-0.078h3.705l-4.173-6.149
		c-0.07-0.104-0.104-0.19-0.104-0.26l0.085-0.182l0.188-0.078h0.234c0.13,0,0.238,0.069,0.325,0.208l2.496,3.627
		c0.849-0.321,1.274-1.083,1.274-2.288v-1.261l0.078-0.208l0.208-0.078h0.221l0.208,0.078l0.078,0.208v1.326
		c0,0.702-0.141,1.289-0.422,1.761c-0.282,0.472-0.696,0.821-1.242,1.046l1.469,2.145c0.095,0.139,0.143,0.269,0.143,0.39v0.182
		l-0.078,0.208L228.808,242.477 M211.584,242.477h-5.2l-0.208-0.078l-0.078-0.208v-0.182l0.078-0.208l0.208-0.078h3.913v-3.432
		c0-1.655-0.828-2.483-2.483-2.483h-1.3l-0.208-0.078l-0.078-0.208v-0.182l0.078-0.208l0.208-0.078h1.365
		c1.083,0,1.889,0.273,2.418,0.819c0.529,0.546,0.793,1.331,0.793,2.353v3.497h0.494l0.208,0.078l0.078,0.208v0.182l-0.078,0.208
		L211.584,242.477 M204.044,242.477h-3.289l-0.208-0.078l-0.078-0.208v-0.182l0.078-0.208l0.208-0.078h2.782v-3.432
		c0-0.477-0.084-0.906-0.253-1.287c-0.169-0.381-0.403-0.676-0.702-0.884c-0.299-0.208-0.635-0.312-1.007-0.312h-1.508l-0.962,6.37
		l-0.11,0.215l-0.215,0.085h-0.234l-0.182-0.085l-0.052-0.215l0.949-6.37h-0.585l-0.208-0.078l-0.078-0.208v-0.182l0.078-0.208
		l0.208-0.078h2.964c0.52,0,0.983,0.13,1.391,0.39c0.407,0.26,0.726,0.631,0.956,1.112c0.23,0.481,0.344,1.038,0.344,1.67v3.965
		l-0.078,0.208L204.044,242.477 M189.627,242.477h-5.2l-0.208-0.078l-0.078-0.208v-0.182l0.078-0.208l0.208-0.078h3.913v-3.432
		c0-1.655-0.828-2.483-2.483-2.483h-1.3l-0.208-0.078l-0.078-0.208v-0.182l0.078-0.208l0.208-0.078h1.365
		c1.083,0,1.889,0.273,2.418,0.819c0.529,0.546,0.793,1.331,0.793,2.353v3.497h0.494l0.208,0.078l0.078,0.208v0.182l-0.078,0.208
		L189.627,242.477 M180.904,242.477h-0.221l-0.208-0.078l-0.078-0.208v-4.914c0-0.338,0.033-0.637,0.097-0.897
		c0.065-0.26,0.15-0.451,0.254-0.572h-3.783l-0.208-0.078l-0.078-0.208v-0.182l0.078-0.208l0.208-0.078h5.486l0.208,0.078
		l0.078,0.208v0.182l-0.078,0.208l-0.208,0.078h-0.832c-0.139,0.121-0.245,0.318-0.318,0.591c-0.074,0.273-0.11,0.587-0.11,0.943
		v4.849l-0.078,0.208L180.904,242.477 M171.83,242.477h-3.289l-0.208-0.078l-0.078-0.208v-0.182l0.078-0.208l0.208-0.078h2.782
		v-3.432c0-0.477-0.085-0.906-0.253-1.287c-0.169-0.381-0.403-0.676-0.702-0.884s-0.635-0.312-1.008-0.312h-1.508l-0.962,6.37
		l-0.11,0.215l-0.214,0.085h-0.234l-0.182-0.085l-0.052-0.215l0.949-6.37h-0.585l-0.208-0.078l-0.078-0.208v-0.182l0.078-0.208
		l0.208-0.078h2.964c0.52,0,0.984,0.13,1.391,0.39c0.407,0.26,0.726,0.631,0.956,1.112c0.23,0.481,0.344,1.038,0.344,1.67v3.965
		l-0.078,0.208L171.83,242.477 M162.704,242.477h-0.221l-0.208-0.078l-0.078-0.208v-4.914c0-0.338,0.032-0.637,0.097-0.897
		c0.065-0.26,0.15-0.451,0.254-0.572h-1.183l-0.208-0.078l-0.078-0.208v-0.182l0.078-0.208l0.208-0.078h2.886l0.208,0.078
		l0.078,0.208v0.182l-0.078,0.208l-0.208,0.078h-0.832c-0.139,0.121-0.245,0.318-0.318,0.591c-0.074,0.273-0.11,0.587-0.11,0.943
		v4.849l-0.078,0.208L162.704,242.477 M158.921,242.477H158.7l-0.208-0.078l-0.078-0.208v-6.851l0.078-0.208l0.208-0.078h0.221
		l0.208,0.078l0.078,0.208v6.851l-0.078,0.208L158.921,242.477 M149.613,242.477h-0.221l-0.208-0.078l-0.078-0.208v-6.851
		l0.078-0.208l0.208-0.078h0.221l0.208,0.078l0.078,0.208v6.851l-0.078,0.208L149.613,242.477 M132.038,242.477h-0.221l-0.208-0.078
		l-0.078-0.208v-3.9c0-1.655-0.828-2.483-2.483-2.483h-1.586l-0.208-0.078l-0.078-0.208v-0.182l0.078-0.208l0.208-0.078h1.651
		c1.083,0,1.889,0.271,2.418,0.813c0.529,0.542,0.793,1.328,0.793,2.36v3.965l-0.078,0.208L132.038,242.477 M125.421,242.477H125.2
		l-0.208-0.078l-0.078-0.208v-3.9c0-1.655-0.828-2.483-2.483-2.483h-1.586l-0.208-0.078l-0.078-0.208v-0.182l0.078-0.208
		l0.208-0.078h1.651c1.083,0,1.889,0.271,2.418,0.813c0.529,0.542,0.793,1.328,0.793,2.36v3.965l-0.078,0.208L125.421,242.477
		 M244.486,239.487h-0.221l-0.208-0.078l-0.078-0.208v-3.861l0.078-0.208l0.208-0.078h0.221l0.208,0.078l0.078,0.208v3.861
		l-0.078,0.208L244.486,239.487"/>
	<path fill="#000000" d="M283.529,265.046h-6.227l-0.221-0.091l-0.091-0.221v-0.676c0-0.243,0.108-0.446,0.325-0.611l2.028-2.015
		c0.615-0.485,1.09-0.882,1.424-1.189c0.333-0.308,0.583-0.592,0.747-0.852c0.165-0.26,0.247-0.515,0.247-0.767
		c0-0.407-0.108-0.728-0.325-0.962c-0.217-0.234-0.546-0.351-0.988-0.351c-0.434,0-0.774,0.128-1.021,0.384
		c-0.247,0.256-0.401,0.587-0.461,0.995c-0.026,0.104-0.076,0.18-0.15,0.227l-0.241,0.072h-1.17l-0.195-0.078l-0.078-0.195
		c0.017-0.511,0.158-0.99,0.422-1.437c0.264-0.446,0.644-0.806,1.138-1.079c0.494-0.273,1.075-0.409,1.742-0.409
		c0.693,0,1.283,0.119,1.768,0.357c0.485,0.238,0.849,0.566,1.092,0.982c0.243,0.416,0.364,0.888,0.364,1.417
		c0,0.581-0.163,1.107-0.487,1.579c-0.325,0.472-0.83,0.977-1.515,1.515l-1.807,1.833h3.679c0.095,0,0.173,0.03,0.234,0.091
		c0.061,0.061,0.091,0.139,0.091,0.234v0.936c0,0.095-0.03,0.171-0.091,0.227C283.702,265.018,283.624,265.046,283.529,265.046"/>
	<path fill="#000000" d="M189.717,267.529h-0.221l-0.208-0.078l-0.078-0.208v-7.046l0.078-0.208l0.208-0.078h0.221l0.208,0.078
		l0.078,0.208v7.046l-0.078,0.208L189.717,267.529 M186.208,266.021h-0.221l-0.156-0.078l-0.026-0.195l0.247-1.56
		c0.026-0.234,0.134-0.351,0.325-0.351h0.585l0.143,0.065l0.052,0.143l-0.052,0.234l-0.559,1.469
		c-0.043,0.095-0.089,0.165-0.137,0.208L186.208,266.021 M263.232,265.163c-0.139,0-0.208-0.069-0.208-0.208v-0.325
		c0-0.147,0.091-0.255,0.273-0.325l0.533-0.208c0.667-0.26,1.176-0.62,1.527-1.079c0.351-0.459,0.527-1.144,0.527-2.054
		c0-0.65-0.078-1.161-0.234-1.534c-0.156-0.373-0.414-0.641-0.773-0.806c-0.36-0.165-0.852-0.247-1.476-0.247h-0.442h-0.039
		l-1.014-0.013l-0.208-0.072l-0.078-0.201v-1.989l0.078-0.208l0.208-0.078h0.221l0.208,0.078l0.078,0.208v1.521h1.053
		c0.806,0,1.441,0.111,1.905,0.331c0.464,0.221,0.797,0.578,1.001,1.072c0.203,0.494,0.306,1.17,0.306,2.028
		c0,1.118-0.254,1.972-0.761,2.561c-0.507,0.59-1.185,1.036-2.034,1.339l-0.546,0.195L263.232,265.163 M191.641,265.163
		c-0.139,0-0.208-0.069-0.208-0.208v-0.325c0-0.147,0.091-0.255,0.273-0.325l0.533-0.208c0.667-0.26,1.176-0.62,1.527-1.079
		c0.351-0.459,0.527-1.144,0.527-2.054c0-0.65-0.078-1.161-0.234-1.534c-0.156-0.373-0.414-0.641-0.773-0.806
		c-0.36-0.165-0.852-0.247-1.475-0.247h-2.314l-0.208-0.078l-0.078-0.208v-0.182l0.078-0.208l0.208-0.078h2.379
		c0.806,0,1.441,0.111,1.904,0.331c0.464,0.221,0.797,0.578,1.001,1.072c0.204,0.494,0.306,1.17,0.306,2.028
		c0,1.118-0.253,1.972-0.76,2.561c-0.507,0.59-1.185,1.036-2.034,1.339l-0.546,0.195L191.641,265.163 M177.459,265.163
		c-0.139,0-0.208-0.069-0.208-0.208v-0.325c0-0.147,0.091-0.255,0.273-0.325l0.533-0.208c0.667-0.26,1.176-0.62,1.527-1.079
		c0.351-0.459,0.527-1.144,0.527-2.054c0-0.65-0.078-1.161-0.234-1.534c-0.156-0.373-0.414-0.641-0.773-0.806
		c-0.36-0.165-0.852-0.247-1.475-0.247h-0.442h-0.039l-1.014-0.013l-0.208-0.072l-0.078-0.201v-1.989l0.078-0.208l0.208-0.078h0.221
		l0.208,0.078l0.078,0.208v1.521h1.053c0.806,0,1.441,0.111,1.904,0.331c0.464,0.221,0.797,0.578,1.001,1.072
		c0.204,0.494,0.306,1.17,0.306,2.028c0,1.118-0.253,1.972-0.76,2.561c-0.507,0.59-1.185,1.036-2.035,1.339l-0.546,0.195
		L177.459,265.163 M98.524,265.163c-0.139,0-0.208-0.069-0.208-0.208v-0.325c0-0.147,0.091-0.255,0.273-0.325l0.533-0.208
		c0.667-0.26,1.177-0.62,1.527-1.079c0.351-0.459,0.527-1.144,0.527-2.054c0-0.65-0.078-1.161-0.234-1.534
		c-0.156-0.373-0.414-0.641-0.773-0.806c-0.36-0.165-0.852-0.247-1.476-0.247H98.25h-0.039l-1.014-0.013l-0.208-0.072l-0.078-0.201
		v-1.989l0.078-0.208l0.208-0.078h0.221l0.208,0.078l0.078,0.208v1.521h1.053c0.806,0,1.441,0.111,1.905,0.331
		c0.464,0.221,0.797,0.578,1.001,1.072c0.203,0.494,0.306,1.17,0.306,2.028c0,1.118-0.254,1.972-0.761,2.561
		c-0.507,0.59-1.185,1.036-2.034,1.339l-0.546,0.195L98.524,265.163 M48.656,265.163c-0.139,0-0.208-0.069-0.208-0.208v-0.325
		c0-0.147,0.091-0.255,0.273-0.325l0.533-0.208c0.667-0.26,1.177-0.62,1.527-1.079c0.351-0.459,0.527-1.144,0.527-2.054
		c0-0.65-0.078-1.161-0.234-1.534c-0.156-0.373-0.414-0.641-0.773-0.806c-0.36-0.165-0.852-0.247-1.476-0.247h-0.442h-0.039
		l-1.014-0.013l-0.208-0.072l-0.078-0.201v-1.989l0.078-0.208l0.208-0.078h0.221l0.208,0.078l0.078,0.208v1.521h1.053
		c0.806,0,1.441,0.111,1.905,0.331c0.464,0.221,0.797,0.578,1.001,1.072c0.203,0.494,0.306,1.17,0.306,2.028
		c0,1.118-0.253,1.972-0.761,2.561c-0.507,0.59-1.185,1.036-2.034,1.339l-0.546,0.195L48.656,265.163 M41.974,265.163
		c-0.148,0-0.221-0.069-0.221-0.208v-0.351c0-0.147,0.091-0.255,0.273-0.325c0.633-0.225,1.083-0.429,1.352-0.611
		c0.329-0.225,0.646-0.539,0.949-0.943c0.303-0.403,0.455-0.73,0.455-0.981l-0.195-1.014c-0.113-0.563-0.234-1.01-0.364-1.339
		c-0.13-0.329-0.301-0.58-0.514-0.754c-0.212-0.173-0.492-0.26-0.838-0.26H42.39l-0.208-0.078l-0.078-0.208v-0.182l0.078-0.208
		l0.208-0.078h0.481c0.503,0,0.914,0.113,1.235,0.338c0.321,0.226,0.576,0.557,0.767,0.995c0.191,0.438,0.36,1.007,0.507,1.709
		l0.793,4.095v0.039l-0.085,0.176l-0.201,0.071h-0.221c-0.148,0-0.243-0.095-0.286-0.286l-0.338-1.729
		c-0.165,0.277-0.353,0.535-0.566,0.773c-0.212,0.238-0.427,0.431-0.643,0.579c-0.312,0.217-0.607,0.384-0.884,0.5
		c-0.277,0.117-0.572,0.206-0.884,0.267L41.974,265.163 M36.878,265.163c-0.139,0-0.208-0.069-0.208-0.208v-0.325
		c0-0.147,0.091-0.255,0.273-0.325l0.533-0.208c0.667-0.26,1.177-0.62,1.527-1.079c0.351-0.459,0.527-1.144,0.527-2.054
		c0-0.65-0.078-1.161-0.234-1.534c-0.156-0.373-0.414-0.641-0.773-0.806c-0.36-0.165-0.852-0.247-1.476-0.247h-0.442h-0.039
		l-1.014-0.013l-0.208-0.072l-0.078-0.201v-1.989l0.078-0.208l0.208-0.078h0.221l0.208,0.078l0.078,0.208v1.521h1.053
		c0.806,0,1.441,0.111,1.905,0.331c0.464,0.221,0.797,0.578,1.001,1.072c0.203,0.494,0.306,1.17,0.306,2.028
		c0,1.118-0.254,1.972-0.761,2.561c-0.507,0.59-1.185,1.036-2.034,1.339l-0.546,0.195L36.878,265.163 M30.196,265.163
		c-0.148,0-0.221-0.069-0.221-0.208v-0.351c0-0.147,0.091-0.255,0.273-0.325c0.633-0.225,1.083-0.429,1.352-0.611
		c0.329-0.225,0.646-0.539,0.949-0.943c0.303-0.403,0.455-0.73,0.455-0.981l-0.195-1.014c-0.113-0.563-0.234-1.01-0.364-1.339
		c-0.13-0.329-0.301-0.58-0.514-0.754c-0.212-0.173-0.492-0.26-0.838-0.26h-0.481l-0.208-0.078l-0.078-0.208v-0.182l0.078-0.208
		l0.208-0.078h0.481c0.503,0,0.914,0.113,1.235,0.338c0.321,0.226,0.576,0.557,0.767,0.995c0.191,0.438,0.36,1.007,0.507,1.709
		l0.793,4.095v0.039l-0.085,0.176l-0.201,0.071h-0.221c-0.148,0-0.243-0.095-0.286-0.286l-0.338-1.729
		c-0.165,0.277-0.353,0.535-0.566,0.773c-0.212,0.238-0.427,0.431-0.643,0.579c-0.312,0.217-0.607,0.384-0.884,0.5
		c-0.277,0.117-0.572,0.206-0.884,0.267L30.196,265.163 M25.1,265.163c-0.139,0-0.208-0.069-0.208-0.208v-0.325
		c0-0.147,0.091-0.255,0.273-0.325l0.533-0.208c0.667-0.26,1.176-0.62,1.527-1.079c0.351-0.459,0.527-1.144,0.527-2.054
		c0-0.65-0.078-1.161-0.234-1.534c-0.156-0.373-0.414-0.641-0.773-0.806c-0.36-0.165-0.852-0.247-1.476-0.247h-0.442h-0.039
		l-1.014-0.013l-0.208-0.072l-0.078-0.201v-1.989l0.078-0.208l0.208-0.078h0.221l0.208,0.078l0.078,0.208v1.521h1.053
		c0.806,0,1.441,0.111,1.905,0.331c0.464,0.221,0.797,0.578,1.001,1.072c0.203,0.494,0.306,1.17,0.306,2.028
		c0,1.118-0.254,1.972-0.761,2.561c-0.507,0.59-1.185,1.036-2.034,1.339l-0.546,0.195L25.1,265.163 M141.984,265.113
		c-0.039,0-0.079-0.001-0.119-0.001h-0.871c-0.511,0-0.981-0.128-1.41-0.384c-0.429-0.255-0.769-0.622-1.021-1.099
		c-0.251-0.476-0.377-1.031-0.377-1.664v-4.056l0.078-0.208l0.208-0.078h0.221l0.208,0.078l0.078,0.208l0.052,3.887
		c0.884-0.06,1.504-0.279,1.859-0.656c0.355-0.377,0.533-0.865,0.533-1.462v-1.768l0.078-0.208l0.208-0.078h0.221l0.208,0.078
		l0.078,0.208v1.833c0,0.771-0.264,1.419-0.793,1.943c-0.529,0.525-1.309,0.813-2.34,0.865c0.095,0.572,0.347,1.014,0.754,1.326
		c0.407,0.312,0.914,0.468,1.521,0.468h0.455c0.029,0.001,0.057,0.001,0.086,0.001c0.834,0,1.477-0.25,1.929-0.748
		c0.468-0.516,0.702-1.211,0.702-2.087v-3.601l0.078-0.208l0.208-0.078h0.221l0.208,0.078l0.078,0.208v3.692
		c0,0.719-0.143,1.348-0.429,1.885c-0.286,0.537-0.689,0.947-1.209,1.229C143.195,264.98,142.628,265.113,141.984,265.113
		 M107.509,265.113c-0.039,0-0.079-0.001-0.119-0.001h-0.871c-0.511,0-0.981-0.128-1.41-0.384c-0.429-0.255-0.769-0.622-1.021-1.099
		c-0.251-0.476-0.377-1.031-0.377-1.664v-4.056l0.078-0.208l0.208-0.078h0.221l0.208,0.078l0.078,0.208l0.052,3.887
		c0.884-0.06,1.504-0.279,1.859-0.656c0.355-0.377,0.533-0.865,0.533-1.462v-1.768l0.078-0.208l0.208-0.078h0.221l0.208,0.078
		l0.078,0.208v1.833c0,0.771-0.264,1.419-0.793,1.943c-0.529,0.525-1.309,0.813-2.34,0.865c0.095,0.572,0.347,1.014,0.754,1.326
		c0.407,0.312,0.914,0.468,1.521,0.468h0.455c0.029,0.001,0.057,0.001,0.086,0.001c0.834,0,1.477-0.25,1.929-0.748
		c0.468-0.516,0.702-1.211,0.702-2.087v-3.601l0.078-0.208l0.208-0.078h0.221l0.208,0.078l0.078,0.208v3.692
		c0,0.719-0.143,1.348-0.429,1.885c-0.286,0.537-0.689,0.947-1.209,1.229C108.719,264.98,108.153,265.113,107.509,265.113
		 M259.683,265.046h-0.221l-0.208-0.078l-0.078-0.208v-3.9c0-1.655-0.828-2.483-2.483-2.483h-1.586l-0.208-0.078l-0.078-0.208
		v-0.182l0.078-0.208l0.208-0.078h1.651c1.083,0,1.889,0.271,2.418,0.812c0.529,0.542,0.793,1.328,0.793,2.36v3.965l-0.078,0.208
		L259.683,265.046 M251.558,265.046h-0.221l-0.208-0.078l-0.078-0.208v-4.914c0-0.338,0.033-0.637,0.098-0.897
		c0.065-0.26,0.15-0.451,0.253-0.572h-3.783l-0.208-0.078l-0.078-0.208v-0.182l0.078-0.208l0.208-0.078h5.486l0.208,0.078
		l0.078,0.208v0.182l-0.078,0.208l-0.208,0.078h-0.832c-0.139,0.121-0.245,0.319-0.318,0.592c-0.074,0.273-0.11,0.587-0.11,0.943
		v4.849l-0.078,0.208L251.558,265.046 M244.33,265.046h-0.221l-0.208-0.078l-0.078-0.208v-4.914c0-0.338,0.033-0.637,0.097-0.897
		c0.065-0.26,0.15-0.451,0.254-0.572h-3.783l-0.208-0.078l-0.078-0.208v-0.182l0.078-0.208l0.208-0.078h5.486l0.208,0.078
		l0.078,0.208v0.182l-0.078,0.208l-0.208,0.078h-0.832c-0.139,0.121-0.245,0.319-0.319,0.592c-0.074,0.273-0.11,0.587-0.11,0.943
		v4.849l-0.078,0.208L244.33,265.046 M235.568,265.046h-0.247l-0.175-0.045l-0.149-0.15l-3.211-4.472
		c-0.425,0.304-0.713,0.655-0.865,1.053c-0.152,0.399-0.228,0.841-0.228,1.326v2.002l-0.078,0.208l-0.208,0.078h-0.221l-0.208-0.078
		l-0.078-0.208v-2.067c0-0.615,0.098-1.164,0.292-1.645c0.195-0.481,0.579-0.908,1.151-1.28l-1.157-1.625
		c-0.069-0.104-0.104-0.19-0.104-0.26l0.078-0.182l0.182-0.078h0.247c0.121,0,0.229,0.065,0.325,0.195l2.938,4.095
		c0.364-0.199,0.628-0.405,0.793-0.617c0.165-0.212,0.266-0.427,0.306-0.644c0.039-0.216,0.058-0.507,0.058-0.871v-1.872
		l0.078-0.208l0.208-0.078h0.221l0.208,0.078l0.078,0.208v1.937c0,0.399-0.035,0.743-0.104,1.033
		c-0.07,0.29-0.215,0.572-0.436,0.845c-0.221,0.273-0.548,0.535-0.981,0.786l1.443,2.015c0.069,0.104,0.104,0.191,0.104,0.26
		l-0.078,0.182L235.568,265.046 M227.872,265.046h-0.221l-0.208-0.078l-0.078-0.208v-3.9c0-1.655-0.828-2.483-2.483-2.483h-0.988
		c-0.087,0.624-0.15,1.127-0.188,1.508c-0.039,0.382-0.054,0.815-0.045,1.3v3.575l-0.078,0.208l-0.208,0.078l-1.482-0.026
		l-0.208-0.078l-0.078-0.208v-0.182l0.078-0.208l0.208-0.078l0.975,0.013v-3.029v-0.403c0-0.476,0.017-0.895,0.052-1.254
		c0.035-0.36,0.1-0.765,0.195-1.216h-0.663l-0.208-0.078l-0.078-0.208v-0.182l0.078-0.208l0.208-0.078h2.496
		c1.083,0,1.889,0.271,2.418,0.812c0.529,0.542,0.793,1.328,0.793,2.36v3.965l-0.078,0.208L227.872,265.046 M216.211,265.046h-0.221
		l-0.208-0.078l-0.078-0.208v-3.9c0-1.655-0.828-2.483-2.483-2.483h-2.236l-0.208-0.078l-0.078-0.208v-0.182l0.078-0.208
		l0.208-0.078h2.301c1.083,0,1.889,0.271,2.418,0.812c0.529,0.542,0.793,1.328,0.793,2.36v3.965l-0.078,0.208L216.211,265.046
		 M211.206,265.046h-0.221l-0.208-0.078l-0.078-0.208v-4.563l0.078-0.208l0.208-0.078h0.221l0.208,0.078l0.078,0.208v4.563
		l-0.078,0.208L211.206,265.046 M208.931,265.046h-5.2l-0.208-0.078l-0.078-0.208v-0.182l0.078-0.208l0.208-0.078h3.913v-3.432
		c0-1.655-0.828-2.483-2.483-2.483h-1.3l-0.208-0.078l-0.078-0.208v-0.182l0.078-0.208l0.208-0.078h1.365
		c1.083,0,1.889,0.273,2.418,0.819c0.529,0.546,0.793,1.33,0.793,2.353v3.497h0.494l0.208,0.078l0.078,0.208v0.182l-0.078,0.208
		L208.931,265.046 M201.534,265.046h-4.485l-0.208-0.078l-0.078-0.208v-0.182l0.078-0.208l0.208-0.078h3.705l-4.173-6.149
		c-0.07-0.104-0.104-0.19-0.104-0.26l0.085-0.182l0.188-0.078h0.234c0.13,0,0.238,0.069,0.325,0.208l2.496,3.627
		c0.849-0.321,1.274-1.083,1.274-2.288v-1.261l0.078-0.208l0.208-0.078h0.221l0.208,0.078l0.078,0.208v1.326
		c0,0.702-0.141,1.289-0.422,1.762c-0.282,0.472-0.696,0.821-1.242,1.046l1.469,2.145c0.095,0.139,0.143,0.269,0.143,0.39v0.182
		l-0.078,0.208L201.534,265.046 M173.91,265.046h-3.289l-0.208-0.078l-0.078-0.208v-0.182l0.078-0.208l0.208-0.078h2.782v-3.432
		c0-0.476-0.085-0.905-0.253-1.287c-0.169-0.381-0.403-0.676-0.702-0.884c-0.299-0.208-0.635-0.312-1.008-0.312h-1.508l-0.962,6.37
		l-0.111,0.214l-0.214,0.085h-0.234l-0.182-0.085l-0.052-0.214l0.949-6.37h-0.585l-0.208-0.078l-0.078-0.208v-0.182l0.078-0.208
		l0.208-0.078h2.964c0.52,0,0.984,0.13,1.391,0.39c0.407,0.26,0.726,0.63,0.956,1.111c0.23,0.481,0.344,1.038,0.344,1.671v3.965
		l-0.078,0.208L173.91,265.046 M166.097,265.046h-0.221l-0.208-0.078l-0.078-0.208v-3.9c0-1.655-0.828-2.483-2.483-2.483h-1.586
		l-0.208-0.078l-0.078-0.208v-0.182l0.078-0.208l0.208-0.078h1.651c1.083,0,1.889,0.271,2.418,0.812
		c0.529,0.542,0.793,1.328,0.793,2.36v3.965l-0.078,0.208L166.097,265.046 M159.077,265.046h-0.221l-0.208-0.078l-0.078-0.208
		v-6.851l0.078-0.208l0.208-0.078h0.221l0.208,0.078l0.078,0.208v6.851l-0.078,0.208L159.077,265.046 M156.178,265.046h-0.221
		l-0.208-0.078l-0.078-0.208v-3.9c0-1.655-0.828-2.483-2.483-2.483h-1.742v6.383l-0.078,0.208l-0.208,0.078h-0.221l-0.208-0.078
		l-0.078-0.208v-6.851l0.078-0.208l0.208-0.078h2.314c1.083,0,1.889,0.271,2.418,0.812c0.529,0.542,0.793,1.328,0.793,2.36v3.965
		l-0.078,0.208L156.178,265.046 M133.22,265.046h-1.911l-0.208-0.078l-0.078-0.208v-0.182l0.078-0.208l0.208-0.078h1.846
		c0.849,0,1.467-0.21,1.853-0.631c0.386-0.42,0.596-1.038,0.63-1.852c0.009-0.13,0.013-0.29,0.013-0.481
		c0-0.182-0.004-0.338-0.013-0.468c-0.026-0.815-0.234-1.432-0.624-1.853c-0.39-0.42-1.01-0.63-1.859-0.63h-1.846l-0.208-0.078
		l-0.078-0.208v-0.182l0.078-0.208l0.208-0.078h1.911c1.075,0,1.87,0.269,2.385,0.806c0.516,0.537,0.791,1.326,0.825,2.366
		c0.009,0.13,0.013,0.308,0.013,0.533c0,0.234-0.004,0.416-0.013,0.546c-0.035,1.04-0.31,1.829-0.825,2.366
		C135.09,264.778,134.295,265.046,133.22,265.046 M129.229,265.046h-5.2l-0.208-0.078l-0.078-0.208v-0.182l0.078-0.208l0.208-0.078
		h3.913v-3.432c0-1.655-0.828-2.483-2.483-2.483h-1.3l-0.208-0.078l-0.078-0.208v-0.182l0.078-0.208l0.208-0.078h1.365
		c1.083,0,1.889,0.273,2.418,0.819c0.529,0.546,0.793,1.33,0.793,2.353v3.497h0.494l0.208,0.078l0.078,0.208v0.182l-0.078,0.208
		L129.229,265.046 M121.689,265.046h-0.221l-0.208-0.078l-0.078-0.208v-3.9c0-1.655-0.828-2.483-2.483-2.483h-2.236l-0.208-0.078
		l-0.078-0.208v-0.182l0.078-0.208l0.208-0.078h2.301c1.083,0,1.889,0.271,2.418,0.812c0.529,0.542,0.793,1.328,0.793,2.36v3.965
		l-0.078,0.208L121.689,265.046 M116.684,265.046h-0.221l-0.208-0.078l-0.078-0.208v-4.563l0.078-0.208l0.208-0.078h0.221
		l0.208,0.078l0.078,0.208v4.563l-0.078,0.208L116.684,265.046 M91.647,265.046h-0.221l-0.208-0.078l-0.078-0.208v-3.9
		c0-1.655-0.828-2.483-2.483-2.483h-0.988c-0.087,0.624-0.15,1.127-0.188,1.508c-0.039,0.382-0.054,0.815-0.046,1.3v3.575
		l-0.078,0.208l-0.208,0.078l-1.482-0.026l-0.208-0.078l-0.078-0.208v-0.182l0.078-0.208l0.208-0.078l0.975,0.013v-3.029v-0.403
		c0-0.476,0.017-0.895,0.052-1.254c0.035-0.36,0.1-0.765,0.195-1.216h-0.663l-0.208-0.078l-0.078-0.208v-0.182l0.078-0.208
		l0.208-0.078h2.496c1.083,0,1.889,0.271,2.418,0.812c0.529,0.542,0.793,1.328,0.793,2.36v3.965l-0.078,0.208L91.647,265.046
		 M83.34,265.046h-3.289l-0.208-0.078l-0.078-0.208v-0.182l0.078-0.208l0.208-0.078h2.782v-3.432c0-0.476-0.085-0.905-0.253-1.287
		c-0.169-0.381-0.403-0.676-0.702-0.884s-0.635-0.312-1.008-0.312h-1.508l-0.962,6.37l-0.11,0.214l-0.214,0.085h-0.234l-0.182-0.085
		l-0.052-0.214l0.949-6.37h-0.585l-0.208-0.078l-0.078-0.208v-0.182l0.078-0.208l0.208-0.078h2.964c0.52,0,0.984,0.13,1.391,0.39
		c0.407,0.26,0.726,0.63,0.956,1.111c0.23,0.481,0.344,1.038,0.344,1.671v3.965l-0.078,0.208L83.34,265.046 M75.527,265.046h-0.221
		l-0.208-0.078l-0.078-0.208v-3.9c0-1.655-0.828-2.483-2.483-2.483h-1.586l-0.208-0.078l-0.078-0.208v-0.182l0.078-0.208
		l0.208-0.078h1.651c1.083,0,1.889,0.271,2.418,0.812c0.529,0.542,0.793,1.328,0.793,2.36v3.965l-0.078,0.208L75.527,265.046
		 M65.816,265.046H60.59l-0.208-0.078l-0.078-0.208v-6.851l0.078-0.208l0.208-0.078h2.301c1.083,0,1.889,0.271,2.418,0.812
		c0.529,0.542,0.793,1.328,0.793,2.36v3.965l-0.078,0.208L65.816,265.046 M61.084,258.377v5.915h4.225v-3.432
		c0-1.655-0.828-2.483-2.483-2.483H61.084 M54.48,265.046h-0.221l-0.208-0.078l-0.078-0.208v-6.851l0.078-0.208l0.208-0.078h0.221
		l0.208,0.078l0.078,0.208v6.851l-0.078,0.208L54.48,265.046 M68.611,262.056H68.39l-0.208-0.078l-0.078-0.208v-3.861l0.078-0.208
		l0.208-0.078h0.221l0.208,0.078l0.078,0.208v3.861l-0.078,0.208L68.611,262.056"/>
	<path fill="#000000" d="M280.318,287.746c-0.772,0-1.424-0.121-1.957-0.364c-0.533-0.243-0.932-0.548-1.196-0.916
		c-0.264-0.368-0.405-0.747-0.423-1.137l0.078-0.195l0.195-0.078h1.196c0.19,0,0.321,0.087,0.39,0.26
		c0.191,0.616,0.763,0.923,1.716,0.923c0.529,0,0.942-0.121,1.241-0.364c0.299-0.243,0.449-0.589,0.449-1.04
		c0-0.451-0.136-0.778-0.409-0.982c-0.273-0.203-0.674-0.305-1.202-0.305h-1.339l-0.221-0.091l-0.091-0.221v-0.559
		c0-0.165,0.056-0.295,0.169-0.39l2.314-2.262h-3.705c-0.096,0-0.173-0.03-0.234-0.091l-0.091-0.221v-0.871
		c0-0.095,0.03-0.173,0.091-0.234c0.06-0.06,0.138-0.091,0.234-0.091h5.59c0.095,0,0.173,0.03,0.234,0.091
		c0.061,0.061,0.091,0.139,0.091,0.234v0.793c0,0.148-0.056,0.269-0.169,0.364l-2.236,2.301l0.156,0.013
		c0.832,0.069,1.493,0.321,1.982,0.754c0.49,0.433,0.735,1.053,0.735,1.859c0,0.572-0.154,1.07-0.461,1.495
		c-0.308,0.425-0.732,0.752-1.274,0.981C281.628,287.631,281.011,287.746,280.318,287.746"/>
	<path fill="#000000" d="M39.258,290.099h-0.221l-0.208-0.078l-0.078-0.208v-7.046l0.078-0.208l0.208-0.078h0.221l0.208,0.078
		l0.078,0.208v7.046l-0.078,0.208L39.258,290.099 M41.182,287.733c-0.139,0-0.208-0.07-0.208-0.208V287.2
		c0-0.147,0.091-0.256,0.273-0.325l0.533-0.208c0.667-0.26,1.176-0.619,1.527-1.079c0.351-0.459,0.527-1.144,0.527-2.054
		c0-0.65-0.078-1.161-0.234-1.534c-0.156-0.373-0.414-0.641-0.773-0.806c-0.36-0.164-0.852-0.247-1.476-0.247h-2.314l-0.208-0.078
		l-0.078-0.208v-0.182l0.078-0.208l0.208-0.078h2.379c0.806,0,1.441,0.111,1.904,0.332c0.464,0.221,0.797,0.578,1.001,1.072
		c0.203,0.494,0.305,1.17,0.305,2.028c0,1.118-0.253,1.972-0.76,2.561c-0.507,0.589-1.185,1.036-2.034,1.339l-0.546,0.195
		L41.182,287.733 M50.334,287.616h-0.221l-0.208-0.078l-0.078-0.208v-4.914c0-0.338,0.033-0.637,0.098-0.897s0.15-0.451,0.253-0.572
		h-3.783l-0.208-0.078l-0.078-0.208v-0.182l0.078-0.208l0.208-0.078h5.486l0.208,0.078l0.078,0.208v0.182l-0.078,0.208l-0.208,0.078
		h-0.832c-0.139,0.121-0.245,0.318-0.319,0.592c-0.074,0.273-0.11,0.587-0.11,0.942v4.849l-0.078,0.208L50.334,287.616
		 M36.281,287.616H36.06l-0.208-0.078l-0.078-0.208v-6.851l0.078-0.208l0.208-0.078h0.221l0.208,0.078l0.078,0.208v6.851
		l-0.078,0.208L36.281,287.616 M33.382,287.616h-0.221l-0.208-0.078l-0.078-0.208v-3.9c0-1.655-0.828-2.483-2.483-2.483h-0.988
		c-0.087,0.624-0.15,1.127-0.188,1.508c-0.039,0.382-0.054,0.815-0.046,1.3v3.575l-0.078,0.208l-0.208,0.078l-1.482-0.026
		l-0.208-0.078l-0.078-0.208v-0.182l0.078-0.208l0.208-0.078l0.975,0.013v-3.029v-0.403c0-0.477,0.017-0.895,0.052-1.254
		c0.035-0.36,0.1-0.765,0.195-1.216h-0.663l-0.208-0.078l-0.078-0.208v-0.182l0.078-0.208l0.208-0.078h2.496
		c1.083,0,1.889,0.271,2.418,0.813c0.529,0.542,0.793,1.328,0.793,2.36v3.965l-0.078,0.208L33.382,287.616"/>
	<path fill="#000000" d="M67.156,287.746c-1.092,0-1.879-0.329-2.36-0.988c-0.481-0.659-0.734-1.525-0.76-2.6l-0.013-1.079
		l0.013-1.105c0.026-1.074,0.28-1.941,0.76-2.6c0.481-0.659,1.268-0.988,2.36-0.988c1.092,0,1.879,0.329,2.36,0.988
		c0.481,0.659,0.735,1.526,0.76,2.6c0.009,0.243,0.013,0.611,0.013,1.105c0,0.485-0.004,0.845-0.013,1.079
		c-0.026,1.075-0.279,1.941-0.76,2.6C69.034,287.416,68.248,287.746,67.156,287.746 M67.156,279.166
		c-0.745,0-1.311,0.254-1.696,0.76c-0.386,0.507-0.587,1.211-0.604,2.112l-0.013,1.014l0.013,1.04
		c0.017,0.919,0.219,1.627,0.604,2.126c0.386,0.498,0.951,0.747,1.696,0.747c0.745,0,1.311-0.249,1.697-0.747
		c0.386-0.498,0.587-1.207,0.604-2.126c0.008-0.251,0.013-0.598,0.013-1.04c0-0.442-0.005-0.78-0.013-1.014
		c-0.018-0.901-0.219-1.605-0.604-2.112C68.466,279.419,67.901,279.166,67.156,279.166 M62.164,287.616h-5.33l-0.208-0.078
		l-0.078-0.208v-0.195c0-0.173,0.108-0.355,0.325-0.546l3.367-3.367c0.476-0.442,0.797-0.815,0.962-1.118
		c0.165-0.303,0.247-0.663,0.247-1.079c0-0.581-0.167-1.035-0.501-1.365c-0.334-0.329-0.808-0.494-1.423-0.494
		c-0.581,0-1.044,0.169-1.391,0.507c-0.347,0.338-0.555,0.793-0.624,1.365c-0.009,0.096-0.045,0.169-0.11,0.221l-0.188,0.078h-0.26
		l-0.202-0.071l-0.071-0.176c0.017-0.425,0.13-0.845,0.338-1.261c0.208-0.416,0.524-0.76,0.949-1.033
		c0.425-0.273,0.945-0.409,1.56-0.409c0.927,0,1.616,0.251,2.067,0.754c0.451,0.503,0.676,1.131,0.676,1.885
		c0,0.52-0.113,0.988-0.338,1.404c-0.226,0.416-0.585,0.854-1.079,1.313l-3.042,3.094h4.355c0.095,0,0.169,0.026,0.221,0.078
		s0.078,0.126,0.078,0.221v0.195l-0.084,0.208L62.164,287.616"/>
	<path fill="#000000" d="M119.363,289.228h-0.221l-0.208-0.078l-0.078-0.208v-5.512c0-1.655-0.832-2.483-2.496-2.483h-1.846
		l-0.208-0.078l-0.078-0.208v-0.182l0.078-0.208l0.208-0.078h1.911c1.092,0,1.902,0.264,2.431,0.793
		c0.529,0.529,0.793,1.322,0.793,2.379v5.577l-0.078,0.208L119.363,289.228 M150.861,288.591h-0.221l-0.156-0.078l-0.026-0.195
		l0.247-1.56c0.026-0.234,0.134-0.351,0.325-0.351h0.585l0.143,0.065l0.052,0.143l-0.052,0.234l-0.559,1.469
		c-0.043,0.095-0.089,0.165-0.136,0.208L150.861,288.591 M180.579,287.733c-0.148,0-0.221-0.07-0.221-0.208v-0.351
		c0-0.147,0.091-0.256,0.273-0.325c0.633-0.225,1.083-0.429,1.352-0.611c0.329-0.225,0.646-0.54,0.949-0.943
		c0.303-0.403,0.455-0.73,0.455-0.982l-0.195-1.014c-0.113-0.563-0.234-1.01-0.364-1.339c-0.13-0.329-0.301-0.581-0.513-0.754
		c-0.213-0.173-0.492-0.26-0.839-0.26h-0.481l-0.208-0.078l-0.078-0.208v-0.182l0.078-0.208l0.208-0.078h0.481
		c0.503,0,0.914,0.113,1.235,0.338c0.321,0.226,0.576,0.557,0.767,0.994c0.19,0.438,0.359,1.008,0.507,1.71l0.793,4.095v0.039
		l-0.085,0.176l-0.201,0.072h-0.221c-0.148,0-0.243-0.095-0.286-0.286l-0.338-1.729c-0.165,0.278-0.353,0.535-0.566,0.774
		c-0.212,0.239-0.427,0.431-0.643,0.579c-0.312,0.217-0.607,0.383-0.884,0.5c-0.277,0.117-0.572,0.206-0.884,0.266L180.579,287.733
		 M175.483,287.733c-0.139,0-0.208-0.07-0.208-0.208V287.2c0-0.147,0.091-0.256,0.273-0.325l0.533-0.208
		c0.667-0.26,1.176-0.619,1.527-1.079c0.351-0.459,0.527-1.144,0.527-2.054c0-0.65-0.078-1.161-0.234-1.534
		c-0.156-0.373-0.414-0.641-0.773-0.806c-0.36-0.164-0.852-0.247-1.475-0.247h-0.442h-0.039l-1.014-0.013l-0.208-0.072l-0.078-0.201
		v-1.989l0.078-0.208l0.208-0.078h0.221l0.208,0.078l0.078,0.208v1.521h1.053c0.806,0,1.441,0.111,1.905,0.332
		c0.464,0.221,0.797,0.578,1.001,1.072c0.203,0.494,0.306,1.17,0.306,2.028c0,1.118-0.253,1.972-0.761,2.561
		c-0.507,0.589-1.185,1.036-2.034,1.339l-0.546,0.195L175.483,287.733 M165.967,287.733c-0.139,0-0.208-0.07-0.208-0.208V287.2
		c0-0.147,0.091-0.256,0.273-0.325l0.533-0.208c0.667-0.26,1.176-0.619,1.527-1.079c0.351-0.459,0.527-1.144,0.527-2.054
		c0-0.65-0.078-1.161-0.234-1.534c-0.156-0.373-0.414-0.641-0.774-0.806c-0.36-0.164-0.851-0.247-1.475-0.247h-0.442h-0.039
		l-1.014-0.013l-0.208-0.072l-0.078-0.201v-1.989l0.078-0.208l0.208-0.078h0.221l0.208,0.078l0.078,0.208v1.521h1.053
		c0.806,0,1.441,0.111,1.904,0.332c0.464,0.221,0.797,0.578,1.001,1.072c0.204,0.494,0.306,1.17,0.306,2.028
		c0,1.118-0.253,1.972-0.76,2.561c-0.507,0.589-1.185,1.036-2.034,1.339l-0.546,0.195L165.967,287.733 M142.112,287.733
		c-0.139,0-0.208-0.07-0.208-0.208V287.2c0-0.147,0.091-0.256,0.273-0.325l0.533-0.208c0.667-0.26,1.176-0.619,1.527-1.079
		c0.351-0.459,0.527-1.144,0.527-2.054c0-0.65-0.078-1.161-0.234-1.534c-0.156-0.373-0.414-0.641-0.773-0.806
		c-0.36-0.164-0.852-0.247-1.476-0.247h-0.442H141.8l-1.014-0.013l-0.208-0.072l-0.078-0.201v-1.989l0.078-0.208l0.208-0.078h0.221
		l0.208,0.078l0.078,0.208v1.521h1.053c0.806,0,1.441,0.111,1.904,0.332c0.464,0.221,0.797,0.578,1.001,1.072
		c0.203,0.494,0.305,1.17,0.305,2.028c0,1.118-0.253,1.972-0.76,2.561c-0.507,0.589-1.185,1.036-2.034,1.339l-0.546,0.195
		L142.112,287.733 M103.022,287.733c-0.139,0-0.208-0.07-0.208-0.208V287.2c0-0.147,0.091-0.256,0.273-0.325l0.533-0.208
		c0.667-0.26,1.176-0.619,1.527-1.079c0.351-0.459,0.526-1.144,0.526-2.054c0-0.65-0.078-1.161-0.234-1.534
		c-0.156-0.373-0.414-0.641-0.773-0.806c-0.36-0.164-0.852-0.247-1.475-0.247h-0.442h-0.039l-1.014-0.013l-0.208-0.072l-0.078-0.201
		v-1.989l0.078-0.208l0.208-0.078h0.221l0.208,0.078l0.078,0.208v1.521h1.053c0.806,0,1.441,0.111,1.905,0.332
		c0.464,0.221,0.797,0.578,1.001,1.072c0.203,0.494,0.306,1.17,0.306,2.028c0,1.118-0.253,1.972-0.761,2.561
		c-0.507,0.589-1.185,1.036-2.034,1.339l-0.546,0.195L103.022,287.733 M159.376,287.616h-5.226l-0.208-0.078l-0.078-0.208v-6.851
		l0.078-0.208l0.208-0.078h2.301c1.083,0,1.889,0.271,2.418,0.813c0.529,0.542,0.793,1.328,0.793,2.36v3.965l-0.078,0.208
		L159.376,287.616 M154.644,280.947v5.915h4.225v-3.432c0-1.655-0.828-2.483-2.483-2.483H154.644 M138.563,287.616h-0.221
		l-0.208-0.078l-0.078-0.208v-3.9c0-1.655-0.828-2.483-2.483-2.483h-1.742v6.383l-0.078,0.208l-0.208,0.078h-0.221l-0.208-0.078
		l-0.078-0.208v-6.851l0.078-0.208l0.208-0.078h2.314c1.083,0,1.889,0.271,2.418,0.813c0.529,0.542,0.793,1.328,0.793,2.36v3.965
		l-0.078,0.208L138.563,287.616 M130.647,287.616h-0.221l-0.208-0.078l-0.078-0.208v-3.9c0-1.655-0.828-2.483-2.483-2.483h-0.988
		c-0.087,0.624-0.149,1.127-0.188,1.508c-0.039,0.382-0.054,0.815-0.045,1.3v3.575l-0.078,0.208l-0.208,0.078l-1.482-0.026
		l-0.208-0.078l-0.078-0.208v-0.182l0.078-0.208l0.208-0.078l0.975,0.013v-3.029v-0.403c0-0.477,0.017-0.895,0.052-1.254
		c0.035-0.36,0.1-0.765,0.195-1.216h-0.663l-0.208-0.078l-0.078-0.208v-0.182l0.078-0.208l0.208-0.078h2.496
		c1.083,0,1.889,0.271,2.418,0.813c0.529,0.542,0.793,1.328,0.793,2.36v3.965l-0.078,0.208L130.647,287.616 M122.262,287.616h-0.221
		l-0.208-0.078l-0.078-0.208v-6.851l0.078-0.208l0.208-0.078h0.221l0.208,0.078l0.078,0.208v6.851l-0.078,0.208L122.262,287.616
		 M108.846,287.616h-0.221l-0.208-0.078l-0.078-0.208v-6.851l0.078-0.208l0.208-0.078h0.221l0.208,0.078l0.078,0.208v6.851
		l-0.078,0.208L108.846,287.616 M99.512,287.616h-0.247l-0.176-0.046l-0.15-0.15l-3.211-4.472c-0.425,0.304-0.713,0.655-0.865,1.053
		c-0.152,0.399-0.227,0.841-0.227,1.326v2.002l-0.078,0.208l-0.208,0.078H94.13l-0.208-0.078l-0.078-0.208v-2.067
		c0-0.615,0.098-1.164,0.293-1.645c0.195-0.481,0.579-0.908,1.151-1.281l-1.157-1.625c-0.07-0.104-0.104-0.19-0.104-0.26
		l0.078-0.182l0.182-0.078h0.247c0.121,0,0.23,0.065,0.325,0.195l2.938,4.095c0.364-0.199,0.628-0.405,0.793-0.617
		c0.165-0.212,0.267-0.427,0.306-0.644c0.039-0.217,0.058-0.507,0.058-0.871v-1.872l0.078-0.208l0.208-0.078h0.221l0.208,0.078
		l0.078,0.208v1.937c0,0.399-0.035,0.743-0.104,1.034c-0.069,0.29-0.214,0.572-0.435,0.845c-0.221,0.273-0.548,0.535-0.982,0.786
		l1.443,2.015c0.069,0.104,0.104,0.191,0.104,0.26l-0.078,0.182L99.512,287.616 M89.528,287.616H87.37l-0.208-0.078l-0.078-0.208
		v-0.182l0.078-0.208l0.208-0.078h2.093c0.659,0,1.159-0.214,1.502-0.643c0.342-0.429,0.531-1.042,0.565-1.84
		c0.009-0.087,0.013-0.247,0.013-0.481c0-0.225-0.004-0.381-0.013-0.468c-0.018-0.789-0.201-1.4-0.552-1.833
		c-0.351-0.433-0.856-0.65-1.515-0.65h-1.768v1.235c0,0.407,0.043,0.726,0.13,0.956c0.087,0.23,0.238,0.371,0.455,0.423l0.533,0.13
		c0.147,0.043,0.221,0.182,0.221,0.416v0.182l-0.085,0.156l-0.214,0.052l-0.104-0.013l-0.494-0.117
		c-0.416-0.095-0.724-0.321-0.923-0.676c-0.199-0.355-0.299-0.858-0.299-1.508v-1.703l0.078-0.208l0.208-0.078h2.327
		c0.893,0,1.575,0.275,2.047,0.825c0.472,0.551,0.722,1.333,0.747,2.347c0.009,0.087,0.013,0.264,0.013,0.533
		c0,0.277-0.004,0.459-0.013,0.546c-0.026,1.014-0.275,1.796-0.747,2.347C91.103,287.341,90.421,287.616,89.528,287.616
		 M84.419,287.616h-0.221l-0.208-0.078l-0.078-0.208v-6.851l0.078-0.208l0.208-0.078h0.221l0.208,0.078l0.078,0.208v6.851
		l-0.078,0.208L84.419,287.616 M81.521,287.616H81.3l-0.208-0.078l-0.078-0.208v-3.9c0-1.655-0.828-2.483-2.483-2.483h-0.988
		c-0.087,0.624-0.15,1.127-0.188,1.508c-0.039,0.382-0.054,0.815-0.045,1.3v3.575l-0.078,0.208l-0.208,0.078l-1.482-0.026
		l-0.208-0.078l-0.078-0.208v-0.182l0.078-0.208l0.208-0.078l0.975,0.013v-3.029v-0.403c0-0.477,0.017-0.895,0.052-1.254
		c0.035-0.36,0.1-0.765,0.195-1.216h-0.663l-0.208-0.078l-0.078-0.208v-0.182l0.078-0.208l0.208-0.078h2.496
		c1.083,0,1.889,0.271,2.418,0.813c0.529,0.542,0.793,1.328,0.793,2.36v3.965l-0.078,0.208L81.521,287.616 M171.687,284.626h-0.221
		l-0.208-0.078l-0.078-0.208v-3.861l0.078-0.208l0.208-0.078h0.221l0.208,0.078l0.078,0.208v3.861l-0.078,0.208L171.687,284.626
		 M162.171,284.626h-0.221l-0.208-0.078l-0.078-0.208v-3.861l0.078-0.208l0.208-0.078h0.221l0.208,0.078l0.078,0.208v3.861
		l-0.078,0.208L162.171,284.626"/>
	<path fill="#000000" d="M193.891,287.616h-0.247l-0.208-0.078l-0.078-0.208v-2.054h-4.29l-0.208-0.078l-0.078-0.208v-0.208
		c0-0.13,0.048-0.26,0.143-0.39l3.952-5.655l0.195-0.163c0.087-0.039,0.182-0.058,0.286-0.058h0.533l0.208,0.078l0.078,0.208v5.694
		h1.183l0.208,0.078l0.078,0.208v0.208l-0.078,0.208l-0.208,0.078h-1.183v2.054l-0.078,0.208L193.891,287.616 M193.358,279.439
		l-3.549,5.057h3.549V279.439"/>
	<path fill="#000000" d="M201.054,290.099h-0.221l-0.208-0.078l-0.078-0.208v-7.046l0.078-0.208l0.208-0.078h0.221l0.208,0.078
		l0.078,0.208v7.046l-0.078,0.208L201.054,290.099 M241.613,289.228h-0.221l-0.208-0.078l-0.078-0.208v-8.463l0.078-0.208
		l0.208-0.078h0.221l0.208,0.078l0.078,0.208v8.463l-0.078,0.208L241.613,289.228 M263.232,287.733c-0.139,0-0.208-0.07-0.208-0.208
		V287.2c0-0.147,0.091-0.256,0.273-0.325l0.533-0.208c0.667-0.26,1.176-0.619,1.527-1.079c0.351-0.459,0.527-1.144,0.527-2.054
		c0-0.65-0.078-1.161-0.234-1.534c-0.156-0.373-0.414-0.641-0.773-0.806c-0.36-0.164-0.852-0.247-1.476-0.247h-0.442h-0.039
		l-1.014-0.013l-0.208-0.072l-0.078-0.201v-1.989l0.078-0.208l0.208-0.078h0.221l0.208,0.078l0.078,0.208v1.521h1.053
		c0.806,0,1.441,0.111,1.905,0.332c0.464,0.221,0.797,0.578,1.001,1.072c0.203,0.494,0.306,1.17,0.306,2.028
		c0,1.118-0.253,1.972-0.761,2.561c-0.507,0.589-1.185,1.036-2.034,1.339l-0.546,0.195L263.232,287.733 M202.978,287.733
		c-0.139,0-0.208-0.07-0.208-0.208V287.2c0-0.147,0.091-0.256,0.273-0.325l0.533-0.208c0.667-0.26,1.176-0.619,1.527-1.079
		c0.351-0.459,0.527-1.144,0.527-2.054c0-0.65-0.078-1.161-0.234-1.534c-0.156-0.373-0.414-0.641-0.773-0.806
		c-0.36-0.164-0.851-0.247-1.475-0.247h-2.314l-0.208-0.078l-0.078-0.208v-0.182l0.078-0.208l0.208-0.078h2.379
		c0.806,0,1.441,0.111,1.904,0.332c0.464,0.221,0.797,0.578,1.001,1.072c0.204,0.494,0.306,1.17,0.306,2.028
		c0,1.118-0.253,1.972-0.76,2.561c-0.507,0.589-1.185,1.036-2.034,1.339l-0.546,0.195L202.978,287.733 M259.683,287.616h-0.221
		l-0.208-0.078l-0.078-0.208v-3.9c0-1.655-0.828-2.483-2.483-2.483h-2.236l-0.208-0.078l-0.078-0.208v-0.182l0.078-0.208
		l0.208-0.078h2.301c1.083,0,1.889,0.271,2.418,0.813c0.529,0.542,0.793,1.328,0.793,2.36v3.965l-0.078,0.208L259.683,287.616
		 M254.678,287.616h-0.221l-0.208-0.078l-0.078-0.208v-4.563l0.078-0.208l0.208-0.078h0.221l0.208,0.078l0.078,0.208v4.563
		l-0.078,0.208L254.678,287.616 M249.075,287.616h-1.911l-0.208-0.078l-0.078-0.208v-0.182l0.078-0.208l0.208-0.078h1.846
		c0.849,0,1.467-0.21,1.852-0.63c0.386-0.42,0.596-1.038,0.631-1.853c0.008-0.13,0.013-0.29,0.013-0.481
		c0-0.182-0.005-0.338-0.013-0.468c-0.026-0.815-0.234-1.432-0.624-1.853c-0.39-0.42-1.01-0.63-1.859-0.63h-1.846l-0.208-0.078
		l-0.078-0.208v-0.182l0.078-0.208l0.208-0.078h1.911c1.074,0,1.87,0.269,2.385,0.806c0.516,0.537,0.791,1.326,0.825,2.366
		c0.009,0.13,0.013,0.308,0.013,0.533c0,0.234-0.004,0.416-0.013,0.546c-0.035,1.04-0.31,1.829-0.825,2.366
		C250.945,287.347,250.149,287.616,249.075,287.616 M235.36,287.616h-3.289l-0.208-0.078l-0.078-0.208v-0.182l0.078-0.208
		l0.208-0.078h2.782v-3.432c0-0.477-0.084-0.905-0.253-1.287c-0.169-0.381-0.403-0.676-0.702-0.884
		c-0.299-0.208-0.635-0.312-1.007-0.312h-1.508l-0.962,6.37l-0.11,0.214l-0.215,0.085h-0.234l-0.182-0.085l-0.052-0.214l0.949-6.37
		h-0.585l-0.208-0.078l-0.078-0.208v-0.182l0.078-0.208l0.208-0.078h2.964c0.52,0,0.983,0.13,1.391,0.39
		c0.407,0.26,0.726,0.63,0.956,1.111c0.23,0.481,0.344,1.038,0.344,1.67v3.965l-0.078,0.208L235.36,287.616 M227.547,287.616h-0.221
		l-0.208-0.078l-0.078-0.208v-3.9c0-1.655-0.828-2.483-2.483-2.483h-2.236l-0.208-0.078l-0.078-0.208v-0.182l0.078-0.208
		l0.208-0.078h2.301c1.083,0,1.889,0.271,2.418,0.813c0.529,0.542,0.793,1.328,0.793,2.36v3.965l-0.078,0.208L227.547,287.616
		 M222.542,287.616h-0.221l-0.208-0.078l-0.078-0.208v-4.563l0.078-0.208l0.208-0.078h0.221l0.208,0.078l0.078,0.208v4.563
		l-0.078,0.208L222.542,287.616 M220.267,287.616h-5.2l-0.208-0.078l-0.078-0.208v-0.182l0.078-0.208l0.208-0.078h3.913v-3.432
		c0-1.655-0.828-2.483-2.483-2.483h-1.3l-0.208-0.078l-0.078-0.208v-0.182l0.078-0.208l0.208-0.078h1.365
		c1.083,0,1.889,0.273,2.418,0.819c0.529,0.546,0.793,1.33,0.793,2.353v3.497h0.494l0.208,0.078l0.078,0.208v0.182l-0.078,0.208
		L220.267,287.616 M212.871,287.616h-4.485l-0.208-0.078l-0.078-0.208v-0.182l0.078-0.208l0.208-0.078h3.705l-4.173-6.149
		c-0.07-0.104-0.104-0.19-0.104-0.26l0.085-0.182l0.188-0.078h0.234c0.13,0,0.238,0.069,0.325,0.208l2.496,3.627
		c0.849-0.32,1.274-1.083,1.274-2.288v-1.261l0.078-0.208l0.208-0.078h0.221l0.208,0.078l0.078,0.208v1.326
		c0,0.702-0.141,1.289-0.422,1.761c-0.282,0.472-0.696,0.821-1.242,1.047l1.469,2.145c0.095,0.139,0.143,0.269,0.143,0.39v0.182
		l-0.078,0.208L212.871,287.616 M244.486,284.626h-0.221l-0.208-0.078l-0.078-0.208v-3.861l0.078-0.208l0.208-0.078h0.221
		l0.208,0.078l0.078,0.208v3.861l-0.078,0.208L244.486,284.626"/>
	<path fill="#000000" d="M282.254,310.185h-1.144l-0.221-0.091l-0.091-0.221v-1.664h-4.121l-0.221-0.091l-0.091-0.221V307
		c0-0.138,0.047-0.268,0.143-0.39l3.835-5.304l0.195-0.163c0.087-0.039,0.182-0.058,0.286-0.058h1.43
		c0.095,0,0.171,0.028,0.228,0.085c0.056,0.056,0.085,0.132,0.085,0.228v5.265h1.17c0.095,0,0.171,0.028,0.228,0.084
		c0.056,0.057,0.085,0.132,0.085,0.228v0.923l-0.085,0.221c-0.056,0.061-0.132,0.091-0.228,0.091h-1.17v1.664l-0.085,0.221
		C282.426,310.155,282.35,310.185,282.254,310.185 M280.838,302.983l-2.639,3.731h2.639V302.983"/>
	<path fill="#000000" d="M213.793,312.668h-0.221l-0.208-0.078l-0.078-0.208v-7.046l0.078-0.208l0.208-0.078h0.221l0.208,0.078
		l0.078,0.208v7.046l-0.078,0.208L213.793,312.668 M196.4,310.315c-1.031,0-1.803-0.275-2.314-0.825
		c-0.511-0.55-0.767-1.354-0.767-2.411v-4.03l0.078-0.208l0.208-0.078h3.055c1.074,0,1.846,0.247,2.314,0.741
		c0.468,0.494,0.724,1.261,0.767,2.301c0.009,0.087,0.013,0.329,0.013,0.728c0,0.407-0.004,0.654-0.013,0.741
		c-0.026,1.031-0.304,1.796-0.832,2.295C198.38,310.066,197.544,310.315,196.4,310.315 M194.112,303.516v3.562
		c0,0.797,0.19,1.41,0.572,1.839c0.381,0.429,0.953,0.644,1.716,0.644c0.893,0,1.536-0.193,1.931-0.579
		c0.394-0.386,0.6-0.977,0.617-1.775c0.009-0.087,0.013-0.312,0.013-0.676c0-0.355-0.004-0.576-0.013-0.663
		c-0.018-0.762-0.239-1.345-0.663-1.748c-0.425-0.403-0.988-0.604-1.69-0.604H194.112 M263.232,310.302
		c-0.139,0-0.208-0.069-0.208-0.208v-0.325c0-0.147,0.091-0.256,0.273-0.325l0.533-0.208c0.667-0.26,1.176-0.62,1.527-1.079
		c0.351-0.459,0.527-1.144,0.527-2.054c0-0.65-0.078-1.161-0.234-1.534c-0.156-0.373-0.414-0.641-0.773-0.806
		c-0.36-0.165-0.852-0.247-1.476-0.247h-0.442h-0.039l-1.014-0.013l-0.208-0.071l-0.078-0.202v-1.989l0.078-0.208l0.208-0.078h0.221
		l0.208,0.078l0.078,0.208v1.521h1.053c0.806,0,1.441,0.111,1.905,0.331c0.464,0.221,0.797,0.579,1.001,1.072
		c0.203,0.494,0.306,1.17,0.306,2.028c0,1.118-0.253,1.972-0.761,2.561c-0.507,0.59-1.185,1.036-2.034,1.339l-0.546,0.195
		L263.232,310.302 M215.717,310.302c-0.139,0-0.208-0.069-0.208-0.208v-0.325c0-0.147,0.091-0.256,0.273-0.325l0.533-0.208
		c0.667-0.26,1.176-0.62,1.527-1.079c0.351-0.459,0.527-1.144,0.527-2.054c0-0.65-0.078-1.161-0.234-1.534
		c-0.156-0.373-0.414-0.641-0.774-0.806c-0.36-0.165-0.851-0.247-1.475-0.247h-2.314l-0.208-0.078l-0.078-0.208v-0.182l0.078-0.208
		l0.208-0.078h2.379c0.806,0,1.441,0.111,1.904,0.331c0.464,0.221,0.797,0.579,1.001,1.072c0.204,0.494,0.306,1.17,0.306,2.028
		c0,1.118-0.253,1.972-0.76,2.561c-0.507,0.59-1.185,1.036-2.034,1.339l-0.546,0.195L215.717,310.302 M258.097,310.185h-0.221
		l-0.208-0.078l-0.078-0.208v-4.914c0-0.338,0.033-0.637,0.098-0.897c0.065-0.26,0.149-0.451,0.254-0.572h-1.183l-0.208-0.078
		l-0.078-0.208v-0.182l0.078-0.208l0.208-0.078h2.886l0.208,0.078l0.078,0.208v0.182l-0.078,0.208l-0.208,0.078h-0.832
		c-0.139,0.121-0.245,0.318-0.318,0.592c-0.074,0.273-0.111,0.587-0.111,0.943v4.849l-0.078,0.208L258.097,310.185 M254.704,310.185
		h-0.221l-0.208-0.078l-0.078-0.208v-3.9c0-1.655-0.828-2.483-2.483-2.483h-1.586l-0.208-0.078l-0.078-0.208v-0.182l0.078-0.208
		l0.208-0.078h1.651c1.083,0,1.889,0.271,2.418,0.813c0.529,0.542,0.793,1.328,0.793,2.359v3.965l-0.078,0.208L254.704,310.185
		 M247.684,310.185h-0.221l-0.208-0.078l-0.078-0.208v-6.851l0.078-0.208l0.208-0.078h0.221l0.208,0.078l0.078,0.208v6.851
		l-0.078,0.208L247.684,310.185 M244.785,310.185h-0.221l-0.208-0.078l-0.078-0.208v-3.9c0-1.655-0.828-2.483-2.483-2.483h-0.988
		c-0.087,0.624-0.149,1.127-0.188,1.508c-0.039,0.381-0.054,0.815-0.045,1.3v3.575l-0.078,0.208l-0.208,0.078l-1.482-0.026
		l-0.208-0.078l-0.078-0.208v-0.182l0.078-0.208l0.208-0.078l0.975,0.013v-3.029v-0.403c0-0.476,0.017-0.895,0.052-1.254
		c0.035-0.36,0.1-0.765,0.195-1.216h-0.663l-0.208-0.078l-0.078-0.208v-0.182l0.078-0.208l0.208-0.078h2.496
		c1.083,0,1.889,0.271,2.418,0.813c0.529,0.542,0.793,1.328,0.793,2.359v3.965l-0.078,0.208L244.785,310.185 M233.436,310.185
		h-0.247l-0.176-0.046l-0.149-0.149l-3.211-4.472c-0.425,0.303-0.713,0.654-0.865,1.053c-0.152,0.399-0.227,0.841-0.227,1.326v2.002
		l-0.078,0.208l-0.208,0.078h-0.221l-0.208-0.078l-0.078-0.208v-2.067c0-0.615,0.098-1.164,0.292-1.644
		c0.195-0.481,0.579-0.908,1.151-1.281l-1.157-1.625c-0.07-0.104-0.104-0.19-0.104-0.26l0.078-0.182l0.182-0.078h0.247
		c0.121,0,0.23,0.065,0.325,0.195l2.938,4.095c0.364-0.199,0.628-0.405,0.793-0.617c0.164-0.212,0.266-0.427,0.305-0.644
		c0.039-0.216,0.059-0.507,0.059-0.871v-1.872l0.078-0.208l0.208-0.078h0.221l0.208,0.078l0.078,0.208v1.937
		c0,0.399-0.035,0.743-0.104,1.034c-0.069,0.291-0.214,0.572-0.435,0.845c-0.221,0.273-0.548,0.535-0.982,0.787l1.443,2.015
		c0.069,0.104,0.104,0.191,0.104,0.26l-0.078,0.182L233.436,310.185 M226.364,310.185h-5.2l-0.208-0.078l-0.078-0.208v-0.182
		l0.078-0.208l0.208-0.078h3.913v-3.432c0-1.655-0.828-2.483-2.483-2.483h-1.3l-0.208-0.078l-0.078-0.208v-0.182l0.078-0.208
		l0.208-0.078h1.365c1.083,0,1.889,0.273,2.418,0.819c0.529,0.546,0.793,1.33,0.793,2.353v3.497h0.494l0.208,0.078l0.078,0.208
		v0.182l-0.078,0.208L226.364,310.185 M210.894,310.185h-0.221l-0.208-0.078l-0.078-0.208v-3.9c0-1.655-0.828-2.483-2.483-2.483
		h-0.988c-0.087,0.624-0.149,1.127-0.188,1.508c-0.039,0.381-0.054,0.815-0.045,1.3v3.575l-0.078,0.208l-0.208,0.078l-1.482-0.026
		l-0.208-0.078l-0.078-0.208v-0.182l0.078-0.208l0.208-0.078l0.975,0.013v-3.029v-0.403c0-0.476,0.017-0.895,0.052-1.254
		c0.035-0.36,0.1-0.765,0.195-1.216h-0.663l-0.208-0.078l-0.078-0.208v-0.182l0.078-0.208l0.208-0.078h2.496
		c1.083,0,1.889,0.271,2.418,0.813c0.529,0.542,0.793,1.328,0.793,2.359v3.965l-0.078,0.208L210.894,310.185 M190.927,310.185
		h-0.221l-0.208-0.078l-0.078-0.208v-6.851l0.078-0.208l0.208-0.078h0.221l0.208,0.078l0.078,0.208v6.851l-0.078,0.208
		L190.927,310.185 M185.324,310.185h-1.911l-0.208-0.078l-0.078-0.208v-0.182l0.078-0.208l0.208-0.078h1.846
		c0.849,0,1.467-0.21,1.853-0.631c0.386-0.42,0.596-1.038,0.63-1.852c0.009-0.13,0.013-0.29,0.013-0.481
		c0-0.182-0.004-0.338-0.013-0.468c-0.026-0.815-0.234-1.432-0.624-1.852c-0.39-0.42-1.01-0.631-1.859-0.631h-1.846l-0.208-0.078
		l-0.078-0.208v-0.182l0.078-0.208l0.208-0.078h1.911c1.075,0,1.87,0.269,2.385,0.806c0.516,0.537,0.791,1.326,0.825,2.366
		c0.009,0.13,0.013,0.308,0.013,0.533c0,0.234-0.005,0.416-0.013,0.546c-0.035,1.04-0.31,1.829-0.825,2.366
		C187.194,309.916,186.398,310.185,185.324,310.185 M180.709,310.185h-0.221l-0.208-0.078l-0.078-0.208v-3.9
		c0-1.655-0.828-2.483-2.483-2.483h-1.586l-0.208-0.078l-0.078-0.208v-0.182l0.078-0.208l0.208-0.078h1.651
		c1.083,0,1.889,0.271,2.418,0.813c0.529,0.542,0.793,1.328,0.793,2.359v3.965l-0.078,0.208L180.709,310.185 M171.583,310.185h-5.2
		l-0.208-0.078l-0.078-0.208v-0.182l0.078-0.208l0.208-0.078h3.913v-3.432c0-1.655-0.828-2.483-2.483-2.483h-1.3l-0.208-0.078
		l-0.078-0.208v-0.182l0.078-0.208l0.208-0.078h1.365c1.083,0,1.889,0.273,2.418,0.819c0.529,0.546,0.793,1.33,0.793,2.353v3.497
		h0.494l0.208,0.078l0.078,0.208v0.182l-0.078,0.208L171.583,310.185 M164.043,310.185h-0.221l-0.208-0.078l-0.078-0.208v-3.9
		c0-1.655-0.828-2.483-2.483-2.483h-0.988c-0.087,0.624-0.149,1.127-0.188,1.508c-0.039,0.381-0.054,0.815-0.045,1.3v3.575
		l-0.078,0.208l-0.208,0.078l-1.482-0.026l-0.208-0.078l-0.078-0.208v-0.182l0.078-0.208l0.208-0.078l0.975,0.013v-3.029v-0.403
		c0-0.476,0.017-0.895,0.052-1.254c0.035-0.36,0.1-0.765,0.195-1.216h-0.663l-0.208-0.078l-0.078-0.208v-0.182l0.078-0.208
		l0.208-0.078h2.496c1.083,0,1.889,0.271,2.418,0.813c0.529,0.542,0.793,1.328,0.793,2.359v3.965l-0.078,0.208L164.043,310.185
		 M155.658,310.185h-0.221l-0.208-0.078l-0.078-0.208v-6.851l0.078-0.208l0.208-0.078h0.221l0.208,0.078l0.078,0.208v6.851
		l-0.078,0.208L155.658,310.185 M152.759,310.185h-5.226l-0.208-0.078l-0.078-0.208v-6.851l0.078-0.208l0.208-0.078h2.301
		c1.083,0,1.889,0.271,2.418,0.813c0.529,0.542,0.793,1.328,0.793,2.359v3.965l-0.078,0.208L152.759,310.185 M148.027,303.516v5.915
		h4.225v-3.432c0-1.655-0.828-2.483-2.483-2.483H148.027 M141.502,310.185h-0.221l-0.208-0.078l-0.078-0.208v-3.9
		c0-1.655-0.828-2.483-2.483-2.483h-2.236l-0.208-0.078l-0.078-0.208v-0.182l0.078-0.208l0.208-0.078h2.301
		c1.083,0,1.889,0.271,2.418,0.813c0.529,0.542,0.793,1.328,0.793,2.359v3.965l-0.078,0.208L141.502,310.185 M136.497,310.185
		h-0.221l-0.208-0.078l-0.078-0.208v-4.563l0.078-0.208l0.208-0.078h0.221l0.208,0.078l0.078,0.208v4.563l-0.078,0.208
		L136.497,310.185 M133.91,310.185h-0.247l-0.175-0.046l-0.149-0.149l-3.211-4.472c-0.425,0.303-0.713,0.654-0.864,1.053
		c-0.152,0.399-0.228,0.841-0.228,1.326v2.002l-0.078,0.208l-0.208,0.078h-0.221l-0.208-0.078l-0.078-0.208v-2.067
		c0-0.615,0.098-1.164,0.292-1.644c0.195-0.481,0.579-0.908,1.151-1.281l-1.157-1.625c-0.069-0.104-0.104-0.19-0.104-0.26
		l0.078-0.182l0.182-0.078h0.247c0.121,0,0.229,0.065,0.325,0.195l2.938,4.095c0.364-0.199,0.628-0.405,0.793-0.617
		c0.165-0.212,0.266-0.427,0.305-0.644c0.039-0.216,0.059-0.507,0.059-0.871v-1.872l0.078-0.208l0.208-0.078h0.221l0.208,0.078
		l0.078,0.208v1.937c0,0.399-0.035,0.743-0.104,1.034c-0.069,0.291-0.214,0.572-0.435,0.845c-0.221,0.273-0.548,0.535-0.982,0.787
		l1.443,2.015c0.069,0.104,0.104,0.191,0.104,0.26l-0.078,0.182L133.91,310.185 M123.926,310.185h-2.158l-0.208-0.078l-0.078-0.208
		v-0.182l0.078-0.208l0.208-0.078h2.093c0.659,0,1.159-0.215,1.502-0.644c0.342-0.429,0.531-1.042,0.565-1.839
		c0.009-0.087,0.013-0.247,0.013-0.481c0-0.225-0.005-0.381-0.013-0.468c-0.017-0.788-0.201-1.4-0.552-1.833
		c-0.351-0.433-0.856-0.65-1.515-0.65h-1.768v1.235c0,0.407,0.043,0.726,0.13,0.956c0.087,0.23,0.238,0.37,0.455,0.422l0.533,0.13
		c0.147,0.043,0.221,0.182,0.221,0.416v0.182l-0.085,0.156l-0.214,0.052l-0.104-0.013l-0.494-0.117
		c-0.416-0.095-0.724-0.321-0.923-0.676c-0.2-0.355-0.299-0.858-0.299-1.508v-1.703l0.078-0.208l0.208-0.078h2.327
		c0.892,0,1.575,0.275,2.047,0.826c0.472,0.55,0.722,1.332,0.748,2.346c0.008,0.087,0.013,0.264,0.013,0.533
		c0,0.277-0.005,0.459-0.013,0.546c-0.026,1.014-0.275,1.796-0.748,2.346C125.501,309.91,124.818,310.185,123.926,310.185
		 M113.357,310.185h-0.221l-0.208-0.078l-0.078-0.208v-3.9c0-1.655-0.828-2.483-2.483-2.483h-2.236l-0.208-0.078l-0.078-0.208
		v-0.182l0.078-0.208l0.208-0.078h2.301c1.083,0,1.889,0.271,2.418,0.813c0.529,0.542,0.793,1.328,0.793,2.359v3.965l-0.078,0.208
		L113.357,310.185 M108.352,310.185h-0.221l-0.208-0.078l-0.078-0.208v-4.563l0.078-0.208l0.208-0.078h0.221l0.208,0.078
		l0.078,0.208v4.563l-0.078,0.208L108.352,310.185 M118.921,307.195H118.7l-0.208-0.078l-0.078-0.208v-3.861l0.078-0.208
		l0.208-0.078h0.221l0.208,0.078l0.078,0.208v3.861l-0.078,0.208L118.921,307.195 M116.152,307.195h-0.221l-0.208-0.078
		l-0.078-0.208v-3.861l0.078-0.208l0.208-0.078h0.221l0.208,0.078l0.078,0.208v3.861l-0.078,0.208L116.152,307.195"/>
</g>
</svg>
