<!-- Generator: Adobe InDesign 14.0 SVG Export Plug-in, SVG Library version: 6.0 build 234 -->
<!DOCTYPE svg PUBLIC "-//W3C//DTD SVG 1.1//EN" "http://www.w3.org/Graphics/SVG/1.1/DTD/svg11.dtd">
<svg version="1.1" xmlns="http://www.w3.org/2000/svg" xmlns:xlink="http://www.w3.org/1999/xlink" x="0%" y="0%" width="100%"
	 height="100%" viewBox="0 0 313.376 534.346" preserveAspectRatio="xMidYMid slice" overflow="visible" xml:space="preserve">
<clipPath id="clp_unq_id_1" fill="none">
	<path shape-rendering="crispEdges" stroke="#000000" d="M0,0h313.376v534.346H0V0"/>
</clipPath>
<g clip-path="url(#clp_unq_id_1)" fill="none">
	<path fill="#923A7F" d="M114.548,25.504h2.568v-9c0-1.552-0.36-2.688-1.08-3.408s-1.72-1.08-3-1.08h-6.552v1.968h5.904
		c0.704,0,1.24,0.188,1.608,0.564c0.368,0.376,0.552,0.988,0.552,1.836V25.504z M106.412,25.504h2.568v-8.136h-2.208l-0.36,1.608
		V25.504z M119.54,25.504h6.456v-9.552c0-1.104-0.26-1.988-0.78-2.652c-0.52-0.664-1.26-1.068-2.22-1.212l-2.496-0.36l-0.336,1.944
		l1.632,0.24c0.544,0.08,0.952,0.276,1.224,0.588c0.272,0.312,0.408,0.812,0.408,1.5v7.536h-3.888V25.504z M135.788,12.016h-6.912
		v1.032v12.456h2.568v-11.52h3.696c1.44,0,2.16,0.88,2.16,2.64v8.88h2.568v-8.76c0-1.584-0.356-2.768-1.068-3.552
		C138.088,12.408,137.084,12.016,135.788,12.016z M144.019,25.744c3.232-0.144,5.756-0.892,7.572-2.244
		c1.816-1.352,2.676-3.42,2.58-6.204l-0.024-0.672c-0.064-1.504-0.528-2.652-1.392-3.444c-0.864-0.792-2.016-1.236-3.456-1.332
		l-1.416-0.072l-0.192,2.016l1.2,0.072c0.912,0.064,1.6,0.376,2.064,0.936c0.464,0.56,0.696,1.272,0.696,2.136v0.672
		c0.112,3.504-1.68,5.44-5.376,5.808l-1.296-11.4h-2.568L144.019,25.744z M168.835,18.712c0-2.368-0.448-4.108-1.344-5.22
		c-0.896-1.112-2.144-1.668-3.744-1.668c-0.88,0-1.664,0.252-2.352,0.756c-0.688,0.504-1.2,1.26-1.536,2.268l-1.08-2.832h-2.664
		l1.872,4.2l-1.728,9.288h2.568l1.608-9.192c0.16-0.736,0.484-1.324,0.972-1.764c0.488-0.44,1.116-0.66,1.884-0.66
		c0.992,0,1.756,0.38,2.292,1.14c0.536,0.76,0.804,2.012,0.804,3.756c0,1.632-0.28,2.872-0.84,3.72
		c-0.56,0.848-1.448,1.272-2.664,1.272c-0.432,0-0.952-0.064-1.56-0.192l-0.264,1.968c0.704,0.16,1.392,0.24,2.064,0.24
		c1.824,0,3.232-0.62,4.224-1.86C168.339,22.692,168.835,20.952,168.835,18.712z M180.235,23.536v-7.032
		c0-1.552-0.36-2.688-1.08-3.408s-1.72-1.08-3-1.08h-5.16v1.968h4.512c0.704,0,1.24,0.188,1.608,0.564
		c0.368,0.376,0.552,0.988,0.552,1.836v7.152h-6.672v1.968h6.672h4.224v-1.968H180.235z M196.051,12.016h-4.392h-2.568v13.488h0.6
		h7.872h2.568v-9c0-1.552-0.36-2.688-1.08-3.408S197.331,12.016,196.051,12.016z M191.659,23.536v-9.552h3.744
		c0.704,0,1.24,0.188,1.608,0.564c0.368,0.376,0.552,0.988,0.552,1.836v7.152H191.659z M203.251,20.464l2.544-0.48l0.024-1.512
		v-3.648l-0.312-2.808h-2.544l0.288,2.808V20.464z M210.018,25.744c3.232-0.144,5.756-0.892,7.572-2.244
		c1.816-1.352,2.676-3.42,2.58-6.204l-0.024-0.672c-0.064-1.504-0.528-2.652-1.392-3.444c-0.864-0.792-2.016-1.236-3.456-1.332
		l-1.416-0.072l-0.192,2.016l1.2,0.072c0.912,0.064,1.6,0.376,2.064,0.936c0.464,0.56,0.696,1.272,0.696,2.136v0.672
		c0.112,3.504-1.68,5.44-5.376,5.808l-1.296-11.4h-2.568L210.018,25.744z M222.69,20.464l2.544-0.48l0.024-1.512v-3.648
		l-0.312-2.808h-2.544l0.288,2.808V20.464z M228.45,25.504h2.568v-10.68l-0.312-2.808h-2.544l0.288,2.808V25.504z M234.21,25.504
		h2.568v-10.68l-0.312-2.808h-2.544l0.288,2.808V25.504z M244.073,25.528c2-0.064,3.528-0.744,4.584-2.04
		c1.056-1.296,1.64-3.12,1.752-5.472l0.336-4.272l0.096-1.728h-11.256v1.968h8.496l-0.36,4.632c-0.08,1.216-0.284,2.172-0.612,2.868
		c-0.328,0.696-0.76,1.192-1.296,1.488c-0.536,0.296-1.196,0.484-1.98,0.564L244.073,25.528z M239.537,30.304h2.568v-13.2h-2.208
		l-0.36,1.632V30.304z M264.689,17.704l-0.024-0.768c-0.048-1.52-0.484-2.72-1.308-3.6c-0.824-0.88-1.98-1.32-3.468-1.32h-6.912
		l0.24,1.968l1.392,11.76c3.232-0.112,5.744-0.788,7.536-2.028C263.937,22.476,264.785,20.472,264.689,17.704z M256.865,23.416
		l-1.08-9.432h3.912c0.768,0,1.368,0.28,1.8,0.84c0.432,0.56,0.648,1.288,0.648,2.184v0.648c0.064,1.936-0.352,3.34-1.248,4.212
		C260.001,22.74,258.657,23.256,256.865,23.416z M267.569,20.464l2.544-0.48l0.024-1.512v-3.648l-0.312-2.808h-2.544l0.288,2.808
		V20.464z M281.969,23.536v-7.032c0-1.552-0.36-2.688-1.08-3.408s-1.72-1.08-3-1.08h-5.16v1.968h4.512
		c0.704,0,1.24,0.188,1.608,0.564c0.368,0.376,0.552,0.988,0.552,1.836v7.152h-6.672v1.968h6.672h4.224v-1.968H281.969z"/>
	<path fill="#000000" d="M283.23,56.577h-0.546l-0.214-0.085l-0.085-0.215v-3.887c0-1.491-0.745-2.236-2.236-2.236h-1.586v6.123
		l-0.085,0.215l-0.214,0.085h-0.546l-0.214-0.085l-0.085-0.215v-6.825c0-0.095,0.028-0.169,0.085-0.221l0.214-0.078h2.496
		c1.118,0,1.95,0.266,2.496,0.8c0.546,0.533,0.819,1.332,0.819,2.398v3.926l-0.085,0.215L283.23,56.577 M275.105,56.577h-0.572
		l-0.215-0.085l-0.084-0.215v-6.825c0-0.095,0.028-0.169,0.084-0.221l0.215-0.078h0.572l0.214,0.085l0.085,0.214v6.825l-0.085,0.215
		L275.105,56.577 M271.985,56.577h-3.354l-0.208-0.085l-0.078-0.215v-0.416l0.078-0.214l0.208-0.085h2.509v-3.159
		c0-0.659-0.167-1.194-0.5-1.605c-0.334-0.412-0.756-0.618-1.268-0.618h-1.378l-1.001,6.084l-0.111,0.221l-0.215,0.091h-0.546
		l-0.201-0.091l-0.058-0.221l1.04-6.084h-0.663l-0.214-0.084l-0.085-0.215v-0.429l0.085-0.214l0.214-0.085h3.263
		c0.537,0,1.016,0.128,1.437,0.384c0.42,0.256,0.749,0.622,0.988,1.099c0.238,0.477,0.357,1.04,0.357,1.69v3.952l-0.084,0.215
		L271.985,56.577 M263.912,56.577h-0.546l-0.214-0.085l-0.085-0.215v-3.887c0-1.491-0.746-2.236-2.236-2.236h-1.677l-0.215-0.078
		l-0.085-0.208v-0.416l0.085-0.214l0.215-0.085h1.755c2.201,0,3.302,1.057,3.302,3.172v3.952l-0.085,0.215L263.912,56.577
		 M253.902,56.577h-5.447l-0.214-0.085l-0.085-0.215v-6.825c0-0.095,0.028-0.169,0.085-0.221l0.214-0.078h2.457
		c1.109,0,1.935,0.264,2.476,0.793c0.541,0.529,0.813,1.322,0.813,2.379v3.952l-0.085,0.215L253.902,56.577 M249.235,50.155v5.408
		h3.848v-3.172c0-1.491-0.745-2.236-2.236-2.236H249.235 M245.92,56.577h-0.897l-0.208-0.085l-0.078-0.215v-0.871
		c0-0.095,0.026-0.171,0.078-0.228l0.208-0.084h0.897c0.095,0,0.171,0.028,0.228,0.084c0.056,0.057,0.085,0.132,0.085,0.228v0.871
		l-0.091,0.215L245.92,56.577 M256.931,53.561h-0.572l-0.215-0.085l-0.085-0.214v-3.809c0-0.095,0.028-0.169,0.085-0.221
		l0.215-0.078h0.572l0.214,0.085l0.085,0.214v3.809l-0.085,0.214L256.931,53.561 M245.92,52.027h-0.897l-0.208-0.084l-0.078-0.215
		v-0.871c0-0.095,0.026-0.171,0.078-0.228l0.208-0.084h0.897c0.095,0,0.171,0.028,0.228,0.084c0.056,0.056,0.085,0.132,0.085,0.228
		v0.871l-0.091,0.215L245.92,52.027"/>
	<path fill="#000000" d="M269.476,75.96h-0.533l-0.214-0.078c-0.056-0.052-0.085-0.126-0.085-0.221V68.81l0.085-0.215l0.214-0.084
		h0.533l0.214,0.084l0.085,0.215v6.851l-0.085,0.215L269.476,75.96 M248.104,75.96h-0.533l-0.214-0.078
		c-0.056-0.052-0.085-0.126-0.085-0.221V68.81l0.085-0.215l0.214-0.084h0.533l0.214,0.084l0.085,0.215v6.851l-0.085,0.215
		L248.104,75.96 M271.322,73.607l-0.163-0.065l-0.072-0.182v-0.572c0-0.156,0.095-0.273,0.286-0.351l0.507-0.195
		c0.598-0.225,1.057-0.55,1.378-0.975c0.321-0.425,0.481-1.049,0.481-1.872c0-0.581-0.069-1.038-0.208-1.372
		c-0.139-0.333-0.366-0.574-0.682-0.721c-0.316-0.147-0.752-0.221-1.307-0.221h-2.6l-0.214-0.085l-0.085-0.215V66.34l0.085-0.208
		l0.214-0.078h2.756c0.797,0,1.428,0.113,1.891,0.338c0.464,0.225,0.8,0.585,1.008,1.079s0.312,1.153,0.312,1.976
		c0,1.109-0.273,1.974-0.819,2.593c-0.546,0.62-1.257,1.077-2.132,1.372l-0.546,0.182L271.322,73.607 M249.95,73.607l-0.163-0.065
		l-0.071-0.182v-0.572c0-0.156,0.095-0.273,0.286-0.351l0.507-0.195c0.598-0.225,1.057-0.55,1.378-0.975
		c0.32-0.425,0.481-1.049,0.481-1.872c0-0.581-0.069-1.038-0.208-1.372c-0.139-0.333-0.366-0.574-0.682-0.721
		c-0.316-0.147-0.752-0.221-1.307-0.221h-2.6l-0.214-0.085l-0.085-0.215V66.34l0.085-0.208l0.214-0.078h2.756
		c0.797,0,1.428,0.113,1.891,0.338c0.464,0.225,0.8,0.585,1.008,1.079c0.208,0.494,0.312,1.153,0.312,1.976
		c0,1.109-0.273,1.974-0.819,2.593c-0.546,0.62-1.257,1.077-2.132,1.372l-0.546,0.182L249.95,73.607 M258.426,73.594
		c-0.147,0-0.221-0.069-0.221-0.208v-0.611c0-0.147,0.091-0.256,0.273-0.325c0.026-0.009,0.197-0.067,0.514-0.176
		c0.316-0.108,0.6-0.245,0.851-0.409c0.26-0.165,0.516-0.392,0.767-0.682c0.251-0.29,0.429-0.566,0.533-0.825l-0.234-1.17
		c-0.104-0.511-0.214-0.916-0.331-1.215c-0.117-0.299-0.275-0.527-0.474-0.683c-0.199-0.156-0.459-0.234-0.78-0.234h-0.481
		l-0.214-0.078l-0.085-0.208v-0.442l0.085-0.215l0.214-0.084h0.481c0.554,0,1.01,0.113,1.365,0.338
		c0.355,0.226,0.639,0.561,0.852,1.008c0.212,0.447,0.392,1.029,0.539,1.748l0.78,4.056v0.052l-0.085,0.176l-0.201,0.072h-0.572
		c-0.165,0-0.264-0.1-0.299-0.299l-0.299-1.521c-0.321,0.494-0.689,0.88-1.105,1.157c-0.321,0.217-0.62,0.384-0.897,0.501
		c-0.277,0.117-0.572,0.206-0.884,0.266L258.426,73.594 M245.024,73.477h-3.354l-0.208-0.085l-0.078-0.215v-0.416l0.078-0.215
		l0.208-0.085h2.509v-3.159c0-0.659-0.167-1.194-0.501-1.605c-0.334-0.412-0.756-0.617-1.267-0.617h-1.378l-1.001,6.084l-0.11,0.221
		l-0.214,0.091h-0.546l-0.201-0.091l-0.059-0.221l1.04-6.084h-0.663l-0.215-0.085l-0.084-0.215v-0.429l0.084-0.214l0.215-0.085
		h3.263c0.537,0,1.016,0.128,1.437,0.384c0.42,0.256,0.749,0.622,0.988,1.099c0.238,0.477,0.358,1.04,0.358,1.69v3.952l-0.085,0.215
		L245.024,73.477 M236.951,73.477h-0.546l-0.215-0.085l-0.084-0.215v-3.887c0-1.491-0.745-2.236-2.236-2.236h-1.586v6.123
		l-0.085,0.215l-0.215,0.085h-0.546l-0.215-0.085l-0.084-0.215v-6.825c0-0.095,0.028-0.169,0.084-0.221l0.215-0.078h2.496
		c1.118,0,1.95,0.266,2.496,0.8c0.546,0.533,0.819,1.332,0.819,2.398v3.926l-0.085,0.215L236.951,73.477 M266.408,67.094h-0.377
		c-0.156,0-0.243-0.095-0.26-0.286l-0.221-2.262V64.52l0.071-0.201l0.189-0.071h0.819l0.201,0.084l0.059,0.215l-0.221,2.262
		C266.651,66.999,266.564,67.094,266.408,67.094 M264.419,67.094h-0.377c-0.156,0-0.243-0.095-0.26-0.286l-0.221-2.262v-0.052
		l0.071-0.182l0.188-0.065h0.819l0.201,0.084l0.059,0.215l-0.221,2.262C264.662,66.999,264.575,67.094,264.419,67.094"/>
	<path fill="#000000" d="M283.165,73.477h-0.637l-0.208-0.085l-0.078-0.215v-7.332l-2.184,1.677l-0.195,0.078l-0.221-0.13
		l-0.312-0.403l-0.065-0.182c0-0.095,0.043-0.173,0.13-0.234l2.821-2.184c0.095-0.061,0.208-0.091,0.338-0.091h0.611l0.214,0.085
		l0.085,0.215v8.502l-0.085,0.215L283.165,73.477"/>
	<path fill="#000000" d="M236.795,90.507c-1.066,0-1.866-0.28-2.398-0.839c-0.533-0.559-0.8-1.363-0.8-2.411v-4.004
		c0-0.095,0.028-0.169,0.085-0.221l0.214-0.078h3.12c1.118,0,1.92,0.251,2.405,0.754c0.485,0.503,0.75,1.274,0.793,2.314
		c0.009,0.087,0.013,0.321,0.013,0.702c0,0.382-0.004,0.615-0.013,0.702c-0.026,1.031-0.308,1.803-0.845,2.314
		C238.831,90.252,237.973,90.507,236.795,90.507 M234.689,83.955v3.302c0,0.719,0.176,1.27,0.527,1.651
		c0.351,0.382,0.873,0.572,1.567,0.572c0.815,0,1.399-0.171,1.755-0.514c0.355-0.342,0.542-0.877,0.559-1.605
		c0.009-0.087,0.013-0.299,0.013-0.637c0-0.338-0.005-0.55-0.013-0.637c-0.017-0.693-0.214-1.222-0.591-1.586
		c-0.377-0.364-0.895-0.546-1.554-0.546H234.689 M213.577,90.507c-1.066,0-1.866-0.28-2.398-0.839c-0.533-0.559-0.8-1.363-0.8-2.411
		v-4.004c0-0.095,0.028-0.169,0.085-0.221l0.214-0.078h3.12c1.118,0,1.92,0.251,2.405,0.754c0.485,0.503,0.75,1.274,0.793,2.314
		c0.009,0.087,0.013,0.321,0.013,0.702c0,0.382-0.005,0.615-0.013,0.702c-0.026,1.031-0.308,1.803-0.845,2.314
		C215.614,90.252,214.756,90.507,213.577,90.507 M211.471,83.955v3.302c0,0.719,0.176,1.27,0.527,1.651
		c0.351,0.382,0.873,0.572,1.566,0.572c0.815,0,1.4-0.171,1.755-0.514c0.355-0.342,0.541-0.877,0.559-1.605
		c0.008-0.087,0.013-0.299,0.013-0.637c0-0.338-0.005-0.55-0.013-0.637c-0.018-0.693-0.215-1.222-0.592-1.586
		c-0.377-0.364-0.895-0.546-1.553-0.546H211.471 M274.442,90.377h-0.572l-0.214-0.085l-0.085-0.214v-6.825
		c0-0.095,0.028-0.169,0.085-0.221l0.214-0.078h0.572l0.215,0.085l0.085,0.214v6.825l-0.085,0.214L274.442,90.377 M271.322,90.377
		h-0.546l-0.214-0.085l-0.085-0.214v-3.887c0-1.491-0.746-2.236-2.236-2.236h-1.586v6.123l-0.084,0.214l-0.215,0.085h-0.546
		l-0.214-0.085l-0.085-0.214v-6.825c0-0.095,0.028-0.169,0.085-0.221l0.214-0.078h2.496c1.118,0,1.95,0.266,2.496,0.8
		c0.546,0.533,0.819,1.332,0.819,2.398v3.926l-0.084,0.214L271.322,90.377 M263.301,90.377h-4.68l-0.215-0.085l-0.084-0.214v-0.429
		l0.084-0.208l0.215-0.078h3.536l-4.069-5.902c-0.07-0.112-0.104-0.195-0.104-0.247l0.085-0.182l0.201-0.078h0.572
		c0.139,0,0.255,0.07,0.351,0.208l2.327,3.354c0.737-0.346,1.105-1.057,1.105-2.132v-1.131c0-0.095,0.028-0.169,0.085-0.221
		l0.215-0.078h0.507l0.214,0.085l0.085,0.214v1.274c0,0.668-0.139,1.239-0.416,1.716c-0.277,0.477-0.685,0.841-1.222,1.092
		l1.352,1.95c0.104,0.13,0.156,0.26,0.156,0.39v0.403l-0.084,0.214L263.301,90.377 M247.364,90.377h-1.924l-0.215-0.085
		l-0.085-0.214v-0.429c0-0.095,0.028-0.169,0.085-0.221l0.215-0.078h1.859c0.754,0,1.309-0.19,1.664-0.572
		c0.355-0.381,0.55-0.936,0.585-1.664c0.008-0.121,0.013-0.273,0.013-0.455c0-0.173-0.005-0.321-0.013-0.442
		c-0.026-0.737-0.219-1.294-0.579-1.67c-0.36-0.377-0.917-0.565-1.671-0.565h-1.859l-0.215-0.085l-0.085-0.215v-0.429
		c0-0.095,0.028-0.169,0.085-0.221l0.215-0.078h1.924c1.101,0,1.917,0.275,2.451,0.825c0.533,0.55,0.817,1.346,0.851,2.385
		c0.009,0.121,0.013,0.286,0.013,0.494s-0.005,0.377-0.013,0.507c-0.035,1.04-0.318,1.835-0.851,2.385
		C249.281,90.102,248.464,90.377,247.364,90.377 M242.827,90.377h-0.572l-0.214-0.085l-0.085-0.214v-6.825
		c0-0.095,0.028-0.169,0.085-0.221l0.214-0.078h0.572l0.215,0.085l0.085,0.214v6.825l-0.085,0.214L242.827,90.377 M231.361,90.377
		h-0.572l-0.215-0.085l-0.084-0.214v-6.825c0-0.095,0.028-0.169,0.084-0.221l0.215-0.078h0.572l0.214,0.085l0.085,0.214v6.825
		l-0.085,0.214L231.361,90.377 M228.241,90.377h-0.546l-0.214-0.085l-0.085-0.214v-3.887c0-1.491-0.745-2.236-2.236-2.236h-0.936
		c-0.087,0.546-0.149,0.999-0.188,1.359c-0.039,0.36-0.054,0.769-0.045,1.229l0.026,3.536l-0.085,0.214l-0.215,0.085l-1.807-0.026
		l-0.215-0.084l-0.084-0.215v-0.39l0.084-0.215l0.215-0.085l1.001,0.013v-2.782c-0.009-0.546,0.002-1.007,0.033-1.385
		c0.03-0.377,0.102-0.795,0.214-1.254h-0.702l-0.214-0.078l-0.085-0.208v-0.416c0-0.095,0.028-0.169,0.085-0.221l0.214-0.078h2.782
		c2.201,0,3.302,1.057,3.302,3.172v3.952l-0.085,0.214L228.241,90.377 M208.143,90.377h-0.572l-0.214-0.085l-0.085-0.214v-6.825
		c0-0.095,0.028-0.169,0.085-0.221l0.214-0.078h0.572l0.215,0.085l0.084,0.214v6.825l-0.084,0.214L208.143,90.377 M202.228,90.377
		h-1.924l-0.215-0.085l-0.084-0.214v-0.429c0-0.095,0.028-0.169,0.084-0.221l0.215-0.078h1.859c0.754,0,1.309-0.19,1.664-0.572
		c0.355-0.381,0.55-0.936,0.585-1.664c0.008-0.121,0.013-0.273,0.013-0.455c0-0.173-0.005-0.321-0.013-0.442
		c-0.026-0.737-0.219-1.294-0.579-1.67c-0.36-0.377-0.917-0.565-1.671-0.565h-1.859l-0.215-0.085l-0.084-0.215v-0.429
		c0-0.095,0.028-0.169,0.084-0.221l0.215-0.078h1.924c1.101,0,1.917,0.275,2.45,0.825c0.533,0.55,0.817,1.346,0.851,2.385
		c0.009,0.121,0.013,0.286,0.013,0.494s-0.005,0.377-0.013,0.507c-0.035,1.04-0.318,1.835-0.851,2.385
		C204.146,90.102,203.329,90.377,202.228,90.377 M197.757,90.377h-0.546l-0.214-0.085l-0.085-0.214v-3.887
		c0-1.491-0.745-2.236-2.236-2.236h-1.677l-0.214-0.078l-0.085-0.208v-0.416l0.085-0.214l0.214-0.085h1.755
		c2.201,0,3.302,1.057,3.302,3.172v3.952l-0.084,0.214L197.757,90.377 M256.385,87.361h-0.572l-0.215-0.084l-0.085-0.215v-3.809
		c0-0.095,0.028-0.169,0.085-0.221l0.215-0.078h0.572l0.214,0.085l0.085,0.214v3.809l-0.085,0.215L256.385,87.361"/>
	<path fill="#000000" d="M283.165,90.377h-0.637l-0.208-0.085l-0.078-0.214v-7.332l-2.184,1.677l-0.195,0.078l-0.221-0.13
		l-0.312-0.403l-0.065-0.182c0-0.095,0.043-0.173,0.13-0.234l2.821-2.184c0.095-0.061,0.208-0.091,0.338-0.091h0.611l0.214,0.084
		l0.085,0.215v8.502l-0.085,0.214L283.165,90.377"/>
	<path fill="#000000" d="M272.752,107.277h-5.408l-0.208-0.085l-0.078-0.214v-0.416l0.078-0.215l0.208-0.084h3.757v-3.172
		c0-1.482-0.745-2.223-2.236-2.223h-1.391l-0.208-0.085l-0.078-0.215v-0.416l0.078-0.214l0.208-0.085h1.456
		c2.219,0,3.328,1.062,3.328,3.185v3.224h0.494l0.208,0.084l0.078,0.215v0.416l-0.078,0.214L272.752,107.277 M262.157,107.277h-4.68
		l-0.215-0.085l-0.085-0.214v-0.429l0.085-0.208l0.215-0.078h3.536l-4.069-5.902c-0.069-0.113-0.104-0.195-0.104-0.247l0.084-0.182
		l0.202-0.078h0.572c0.138,0,0.255,0.07,0.351,0.208l2.327,3.354c0.737-0.346,1.105-1.057,1.105-2.132v-1.131
		c0-0.095,0.028-0.169,0.085-0.221l0.214-0.078h0.507l0.215,0.085l0.085,0.214v1.274c0,0.668-0.139,1.239-0.416,1.716
		c-0.277,0.477-0.685,0.841-1.222,1.092l1.352,1.95c0.104,0.13,0.156,0.26,0.156,0.39v0.403l-0.085,0.214L262.157,107.277
		 M252.212,107.277h-5.447l-0.215-0.085l-0.084-0.214v-6.825c0-0.095,0.028-0.169,0.084-0.221l0.215-0.078h2.457
		c1.109,0,1.935,0.264,2.476,0.793c0.541,0.529,0.813,1.322,0.813,2.379v3.952l-0.085,0.214L252.212,107.277 M247.545,100.855v5.408
		h3.848v-3.172c0-1.491-0.745-2.236-2.236-2.236H247.545 M265.147,104.261h-0.572l-0.215-0.084l-0.085-0.215v-3.809
		c0-0.095,0.028-0.169,0.085-0.221l0.215-0.078h0.572l0.214,0.085l0.085,0.214v3.809l-0.085,0.215L265.147,104.261 M255.241,104.261
		h-0.572l-0.214-0.084l-0.085-0.215v-3.809c0-0.095,0.028-0.169,0.085-0.221l0.214-0.078h0.572l0.215,0.085l0.085,0.214v3.809
		l-0.085,0.215L255.241,104.261"/>
	<path fill="#000000" d="M282.255,107.277h-0.598l-0.215-0.085l-0.085-0.214v-1.898h-4.225l-0.215-0.085l-0.084-0.214V104.3
		c0-0.121,0.047-0.251,0.143-0.39l3.913-5.512l0.195-0.163c0.087-0.039,0.182-0.058,0.286-0.058h0.884
		c0.095,0,0.169,0.026,0.221,0.078c0.052,0.052,0.078,0.126,0.078,0.221v5.512h1.183l0.214,0.084l0.085,0.215v0.494l-0.085,0.214
		l-0.214,0.085h-1.183v1.898l-0.084,0.214L282.255,107.277 M281.371,99.49l-3.185,4.524h3.185V99.49"/>
	<path fill="#000000" d="M252.732,126.66h-0.533l-0.214-0.078c-0.056-0.052-0.085-0.126-0.085-0.221v-6.851l0.085-0.214l0.214-0.085
		h0.533l0.214,0.085l0.085,0.214v6.851l-0.085,0.214L252.732,126.66 M254.578,124.307l-0.163-0.065l-0.071-0.182v-0.572
		c0-0.156,0.095-0.273,0.286-0.351l0.507-0.195c0.598-0.225,1.057-0.55,1.378-0.975c0.321-0.425,0.481-1.049,0.481-1.872
		c0-0.58-0.069-1.038-0.208-1.371c-0.139-0.334-0.366-0.574-0.682-0.722c-0.316-0.147-0.752-0.221-1.307-0.221h-2.6l-0.214-0.085
		l-0.085-0.214v-0.442l0.085-0.208l0.214-0.078h2.756c0.797,0,1.428,0.113,1.891,0.338c0.464,0.226,0.8,0.585,1.008,1.079
		c0.208,0.494,0.312,1.153,0.312,1.976c0,1.109-0.273,1.974-0.819,2.593c-0.546,0.62-1.257,1.077-2.132,1.372l-0.546,0.182
		L254.578,124.307 M272.713,124.177h-0.585c-0.113,0-0.2-0.033-0.26-0.098l-0.104-0.11l-2.964-4.173
		c-0.373,0.269-0.626,0.587-0.761,0.956c-0.134,0.369-0.201,0.774-0.201,1.216v1.911l-0.085,0.214l-0.214,0.085h-0.481l-0.215-0.085
		l-0.084-0.214v-1.963c0-0.641,0.098-1.2,0.292-1.677c0.195-0.476,0.579-0.905,1.151-1.287l-1.209-1.69
		c-0.061-0.095-0.091-0.178-0.091-0.247l0.078-0.182l0.182-0.078h0.572c0.138,0,0.26,0.074,0.364,0.221l2.73,3.809
		c0.312-0.182,0.539-0.373,0.682-0.572c0.143-0.199,0.232-0.396,0.266-0.592c0.035-0.195,0.052-0.449,0.052-0.76v-1.807l0.085-0.215
		l0.215-0.085h0.507l0.214,0.085l0.085,0.215v1.859c0,0.589-0.102,1.094-0.306,1.515c-0.204,0.42-0.613,0.812-1.229,1.176
		l1.482,2.067l0.091,0.247l-0.078,0.182L272.713,124.177 M265.394,124.177h-5.408l-0.208-0.085l-0.078-0.214v-0.416l0.078-0.215
		l0.208-0.084h3.757v-3.172c0-1.482-0.745-2.223-2.236-2.223h-1.391l-0.208-0.085l-0.078-0.215v-0.416l0.078-0.215l0.208-0.085
		h1.456c2.219,0,3.328,1.062,3.328,3.185v3.224h0.494l0.208,0.084l0.078,0.215v0.416l-0.078,0.214L265.394,124.177 M249.651,124.177
		h-0.546l-0.215-0.085l-0.084-0.214v-3.887c0-1.491-0.745-2.236-2.236-2.236h-0.936c-0.087,0.546-0.15,0.999-0.188,1.359
		c-0.039,0.36-0.054,0.769-0.045,1.229l0.026,3.536l-0.085,0.214l-0.214,0.085l-1.807-0.026l-0.214-0.085l-0.085-0.215v-0.39
		l0.085-0.215l0.214-0.084l1.001,0.013v-2.782c-0.009-0.546,0.002-1.008,0.033-1.384c0.03-0.377,0.102-0.795,0.215-1.255h-0.702
		l-0.214-0.078l-0.085-0.208v-0.416c0-0.095,0.028-0.169,0.085-0.221l0.214-0.078h2.782c2.201,0,3.302,1.058,3.302,3.172v3.952
		l-0.085,0.214L249.651,124.177 M238.172,124.177h-0.585c-0.113,0-0.199-0.033-0.26-0.098l-0.104-0.11l-2.964-4.173
		c-0.373,0.269-0.626,0.587-0.76,0.956c-0.134,0.369-0.201,0.774-0.201,1.216v1.911l-0.085,0.214l-0.215,0.085h-0.481l-0.214-0.085
		l-0.085-0.214v-1.963c0-0.641,0.098-1.2,0.293-1.677c0.195-0.476,0.579-0.905,1.151-1.287l-1.209-1.69
		c-0.061-0.095-0.091-0.178-0.091-0.247l0.078-0.182l0.182-0.078h0.572c0.139,0,0.26,0.074,0.364,0.221l2.73,3.809
		c0.312-0.182,0.539-0.373,0.682-0.572c0.143-0.199,0.232-0.396,0.266-0.592c0.035-0.195,0.052-0.449,0.052-0.76v-1.807l0.084-0.215
		l0.215-0.085h0.507l0.215,0.085l0.084,0.215v1.859c0,0.589-0.102,1.094-0.305,1.515c-0.204,0.42-0.613,0.812-1.229,1.176
		l1.482,2.067l0.091,0.247l-0.078,0.182L238.172,124.177 M227.837,124.177h-2.236l-0.215-0.085l-0.084-0.214v-0.429l0.084-0.215
		l0.215-0.085h2.171c0.607,0,1.075-0.195,1.404-0.585c0.329-0.39,0.507-0.94,0.533-1.651c0.008-0.087,0.013-0.238,0.013-0.455
		c0-0.208-0.005-0.355-0.013-0.442c-0.018-0.71-0.193-1.261-0.527-1.651c-0.334-0.39-0.804-0.585-1.411-0.585h-1.599v1.04
		c0,0.347,0.039,0.62,0.117,0.819c0.078,0.199,0.212,0.325,0.403,0.377l0.494,0.13l0.163,0.137c0.039,0.074,0.058,0.162,0.058,0.266
		v0.299c0,0.096-0.048,0.165-0.143,0.208c-0.068,0.031-0.14,0.046-0.217,0.046c-0.031,0-0.063-0.003-0.095-0.008l-0.507-0.104
		c-0.867-0.19-1.3-0.927-1.3-2.21v-1.729c0-0.095,0.028-0.169,0.085-0.221l0.215-0.078h2.392c0.953,0,1.677,0.278,2.171,0.832
		c0.494,0.555,0.758,1.348,0.793,2.379c0.009,0.087,0.013,0.251,0.013,0.494c0,0.251-0.004,0.42-0.013,0.507
		c-0.035,1.031-0.299,1.824-0.793,2.379C229.514,123.9,228.791,124.177,227.837,124.177 M216.892,124.177h-0.546l-0.214-0.085
		l-0.085-0.214v-3.887c0-1.491-0.741-2.236-2.223-2.236h-2.418l-0.215-0.078l-0.085-0.208v-0.416c0-0.095,0.028-0.169,0.085-0.221
		l0.215-0.078h2.483c2.201,0,3.302,1.066,3.302,3.198v3.926l-0.085,0.214L216.892,124.177 M211.952,124.177h-0.546l-0.215-0.085
		l-0.085-0.214v-4.368l0.085-0.214l0.215-0.085h0.546l0.215,0.085l0.084,0.214v4.368l-0.084,0.214L211.952,124.177 M222.923,121.161
		h-0.572l-0.214-0.084l-0.085-0.215v-3.809c0-0.095,0.028-0.169,0.085-0.221l0.214-0.078h0.572l0.215,0.085l0.084,0.215v3.809
		l-0.084,0.215L222.923,121.161 M219.921,121.161h-0.572l-0.214-0.084l-0.085-0.215v-3.809c0-0.095,0.028-0.169,0.085-0.221
		l0.214-0.078h0.572l0.215,0.085l0.084,0.215v3.809l-0.084,0.215L219.921,121.161"/>
	<path fill="#000000" d="M283.503,124.177h-5.694l-0.215-0.085l-0.084-0.214v-0.39c0-0.199,0.108-0.39,0.325-0.572l2.834-2.821
		c0.641-0.546,1.083-0.992,1.326-1.339c0.243-0.347,0.364-0.715,0.364-1.105c0-0.511-0.143-0.912-0.429-1.202
		c-0.286-0.29-0.702-0.436-1.248-0.436c-0.52,0-0.932,0.152-1.235,0.455c-0.304,0.304-0.49,0.711-0.559,1.222
		c-0.017,0.095-0.061,0.169-0.13,0.221l-0.208,0.078h-0.624l-0.195-0.078l-0.078-0.182c0.017-0.459,0.141-0.903,0.371-1.332
		c0.229-0.429,0.57-0.78,1.02-1.053c0.451-0.273,0.997-0.409,1.638-0.409c0.971,0,1.701,0.253,2.191,0.76
		c0.489,0.507,0.734,1.151,0.734,1.931c0,0.546-0.132,1.038-0.397,1.475c-0.264,0.438-0.678,0.899-1.241,1.384l-2.561,2.6h4.095
		c0.095,0,0.169,0.026,0.221,0.078c0.052,0.052,0.078,0.126,0.078,0.221v0.494l-0.084,0.214L283.503,124.177"/>
	<path fill="#000000" d="M269.528,141.207c-1.066,0-1.866-0.28-2.398-0.838c-0.533-0.559-0.8-1.363-0.8-2.412v-4.004
		c0-0.095,0.028-0.169,0.085-0.221l0.214-0.078h3.12c1.118,0,1.92,0.251,2.405,0.754c0.485,0.503,0.75,1.274,0.793,2.314
		c0.008,0.087,0.013,0.321,0.013,0.702s-0.005,0.615-0.013,0.702c-0.026,1.031-0.308,1.803-0.845,2.314
		C271.564,140.952,270.706,141.207,269.528,141.207 M267.422,134.655v3.302c0,0.72,0.176,1.27,0.527,1.651
		c0.351,0.382,0.873,0.572,1.566,0.572c0.814,0,1.4-0.171,1.755-0.513c0.355-0.342,0.541-0.878,0.559-1.606
		c0.009-0.086,0.013-0.299,0.013-0.637c0-0.338-0.004-0.55-0.013-0.637c-0.018-0.693-0.215-1.222-0.592-1.586
		c-0.377-0.364-0.895-0.546-1.553-0.546H267.422 M229.294,141.207l-0.163-0.065l-0.071-0.182v-0.572
		c0-0.156,0.095-0.273,0.286-0.351l0.507-0.195c0.598-0.225,1.057-0.55,1.378-0.975c0.321-0.425,0.481-1.049,0.481-1.872
		c0-0.581-0.069-1.038-0.208-1.372c-0.139-0.334-0.366-0.574-0.682-0.722c-0.316-0.147-0.752-0.221-1.307-0.221h-0.403h-0.039
		l-1.196-0.013l-0.214-0.078l-0.085-0.208v-2.236l0.085-0.214l0.214-0.085h0.52l0.208,0.085l0.078,0.214v1.508h1.001
		c0.788,0,1.415,0.113,1.879,0.338c0.464,0.226,0.799,0.585,1.007,1.079s0.312,1.153,0.312,1.976c0,1.109-0.273,1.974-0.819,2.593
		c-0.546,0.62-1.257,1.077-2.132,1.372l-0.546,0.182L229.294,141.207 M264.094,141.077h-0.572l-0.214-0.085l-0.085-0.214v-6.825
		c0-0.095,0.028-0.169,0.085-0.221l0.214-0.078h0.572l0.215,0.085l0.084,0.215v6.825l-0.084,0.214L264.094,141.077 M258.179,141.077
		h-1.924l-0.215-0.085l-0.084-0.214v-0.429c0-0.095,0.028-0.169,0.084-0.221l0.215-0.078h1.859c0.754,0,1.309-0.191,1.664-0.572
		c0.355-0.381,0.55-0.936,0.585-1.664c0.009-0.121,0.013-0.273,0.013-0.455c0-0.173-0.005-0.321-0.013-0.442
		c-0.026-0.737-0.219-1.293-0.578-1.671c-0.36-0.377-0.917-0.565-1.67-0.565h-1.859l-0.215-0.085l-0.084-0.214v-0.429
		c0-0.095,0.028-0.169,0.084-0.221l0.215-0.078h1.924c1.1,0,1.917,0.275,2.451,0.826c0.533,0.55,0.817,1.345,0.851,2.385
		c0.009,0.121,0.013,0.286,0.013,0.494s-0.005,0.377-0.013,0.507c-0.035,1.04-0.319,1.835-0.851,2.385
		C260.096,140.802,259.28,141.077,258.179,141.077 M253.707,141.077h-0.546l-0.214-0.085l-0.085-0.214v-3.887
		c0-1.491-0.745-2.236-2.236-2.236h-1.677l-0.214-0.078l-0.085-0.208v-0.416l0.085-0.215l0.214-0.085h1.755
		c2.201,0,3.302,1.058,3.302,3.172v3.952l-0.084,0.214L253.707,141.077 M243.749,141.077h-0.572l-0.214-0.085l-0.085-0.214v-6.825
		c0-0.095,0.028-0.169,0.085-0.221l0.214-0.078h0.572l0.215,0.085l0.085,0.215v6.825l-0.085,0.214L243.749,141.077 M240.941,141.077
		h-3.471l-0.215-0.085l-0.084-0.214v-0.416l0.084-0.215l0.215-0.084h2.561l-0.208-3.302c-0.043-0.563-0.089-0.977-0.137-1.242
		c-0.048-0.264-0.154-0.479-0.318-0.643c-0.165-0.165-0.42-0.247-0.767-0.247h-0.533l-0.214-0.078l-0.085-0.208v-0.416l0.085-0.214
		l0.214-0.085h0.533c0.624,0,1.103,0.123,1.436,0.371c0.334,0.247,0.563,0.587,0.689,1.021c0.126,0.433,0.21,1.001,0.253,1.703
		l0.247,4.056v0.039l-0.085,0.188L240.941,141.077 M235.378,138.061h-0.572l-0.214-0.084l-0.085-0.215v-3.809
		c0-0.095,0.028-0.169,0.085-0.221l0.214-0.078h0.572l0.214,0.085l0.085,0.215v3.809l-0.085,0.215L235.378,138.061"/>
	<path fill="#000000" d="M283.503,141.077h-5.694l-0.215-0.085l-0.084-0.214v-0.39c0-0.199,0.108-0.39,0.325-0.572l2.834-2.821
		c0.641-0.546,1.083-0.992,1.326-1.339c0.243-0.347,0.364-0.715,0.364-1.105c0-0.511-0.143-0.912-0.429-1.202
		c-0.286-0.29-0.702-0.436-1.248-0.436c-0.52,0-0.932,0.152-1.235,0.455c-0.304,0.304-0.49,0.711-0.559,1.222
		c-0.017,0.095-0.061,0.169-0.13,0.221l-0.208,0.078h-0.624l-0.195-0.078l-0.078-0.182c0.017-0.459,0.141-0.903,0.371-1.332
		c0.229-0.429,0.57-0.78,1.02-1.053c0.451-0.273,0.997-0.409,1.638-0.409c0.971,0,1.701,0.253,2.191,0.76
		c0.489,0.507,0.734,1.151,0.734,1.931c0,0.546-0.132,1.038-0.397,1.475c-0.264,0.438-0.678,0.899-1.241,1.384l-2.561,2.6h4.095
		c0.095,0,0.169,0.026,0.221,0.078c0.052,0.052,0.078,0.126,0.078,0.221v0.494l-0.084,0.214L283.503,141.077"/>
	<path fill="#000000" d="M252.147,158.094c-0.147,0-0.221-0.07-0.221-0.208v-0.611c0-0.147,0.091-0.255,0.273-0.325
		c0.026-0.009,0.197-0.067,0.514-0.176c0.316-0.108,0.6-0.245,0.851-0.41c0.26-0.165,0.516-0.392,0.767-0.682
		c0.251-0.29,0.429-0.565,0.533-0.825l-0.234-1.17c-0.104-0.511-0.214-0.917-0.331-1.216c-0.117-0.299-0.275-0.527-0.474-0.682
		c-0.199-0.156-0.459-0.234-0.78-0.234h-0.481l-0.214-0.078l-0.085-0.208v-0.442l0.085-0.214l0.214-0.085h0.481
		c0.554,0,1.01,0.113,1.365,0.338c0.355,0.225,0.639,0.561,0.852,1.008c0.212,0.446,0.392,1.029,0.539,1.748l0.78,4.056v0.052
		l-0.085,0.176l-0.201,0.071h-0.572c-0.165,0-0.264-0.1-0.299-0.299l-0.299-1.521c-0.321,0.494-0.689,0.88-1.105,1.157
		c-0.321,0.217-0.62,0.384-0.897,0.5c-0.277,0.117-0.572,0.206-0.884,0.267L252.147,158.094 M169.949,158.094
		c-0.147,0-0.221-0.07-0.221-0.208v-0.611c0-0.147,0.091-0.255,0.273-0.325c0.026-0.009,0.197-0.067,0.514-0.176
		c0.316-0.108,0.6-0.245,0.851-0.41c0.26-0.165,0.516-0.392,0.767-0.682c0.251-0.29,0.429-0.565,0.533-0.825l-0.234-1.17
		c-0.104-0.511-0.214-0.917-0.331-1.216c-0.117-0.299-0.275-0.527-0.474-0.682c-0.199-0.156-0.459-0.234-0.78-0.234h-0.481
		l-0.214-0.078l-0.085-0.208v-0.442l0.085-0.214l0.214-0.085h0.481c0.554,0,1.01,0.113,1.365,0.338
		c0.355,0.225,0.639,0.561,0.852,1.008c0.212,0.446,0.392,1.029,0.539,1.748l0.78,4.056v0.052l-0.085,0.176l-0.201,0.071h-0.572
		c-0.165,0-0.264-0.1-0.299-0.299l-0.299-1.521c-0.321,0.494-0.689,0.88-1.105,1.157c-0.321,0.217-0.62,0.384-0.897,0.5
		c-0.277,0.117-0.572,0.206-0.884,0.267L169.949,158.094 M250.054,157.977h-0.546l-0.214-0.085l-0.085-0.214v-3.887
		c0-1.491-0.745-2.236-2.236-2.236h-1.677l-0.214-0.078l-0.085-0.208v-0.416l0.085-0.215l0.214-0.085h1.755
		c2.201,0,3.302,1.058,3.302,3.172v3.952l-0.084,0.214L250.054,157.977 M237.028,157.977h-0.546l-0.214-0.085l-0.085-0.214v-3.887
		c0-1.491-0.745-2.236-2.236-2.236h-1.586v6.123l-0.085,0.214l-0.214,0.085h-0.546l-0.214-0.085l-0.085-0.214v-6.825
		c0-0.095,0.028-0.169,0.085-0.221l0.214-0.078h2.496c1.118,0,1.95,0.267,2.496,0.8c0.546,0.533,0.819,1.333,0.819,2.398v3.926
		l-0.085,0.214L237.028,157.977 M228.968,157.977h-3.354l-0.208-0.085l-0.078-0.214v-0.416l0.078-0.215l0.208-0.084h2.509v-3.159
		c0-0.659-0.167-1.194-0.501-1.605c-0.334-0.411-0.756-0.617-1.267-0.617h-1.378l-1.001,6.084l-0.11,0.221l-0.214,0.091h-0.546
		l-0.201-0.091l-0.059-0.221l1.04-6.084h-0.663l-0.215-0.085l-0.085-0.214v-0.429l0.085-0.215l0.215-0.085h3.263
		c0.537,0,1.016,0.128,1.436,0.384c0.42,0.256,0.749,0.622,0.988,1.098c0.238,0.477,0.358,1.04,0.358,1.69v3.952l-0.085,0.214
		L228.968,157.977 M221.169,157.977h-0.585c-0.113,0-0.199-0.033-0.26-0.098l-0.104-0.111l-2.964-4.173
		c-0.373,0.269-0.626,0.587-0.761,0.956c-0.134,0.369-0.201,0.774-0.201,1.216v1.911l-0.085,0.214l-0.214,0.085h-0.481l-0.214-0.085
		l-0.085-0.214v-1.963c0-0.641,0.098-1.2,0.293-1.677c0.195-0.477,0.578-0.906,1.15-1.287l-1.209-1.69
		c-0.061-0.095-0.091-0.178-0.091-0.247l0.078-0.182l0.182-0.078h0.572c0.138,0,0.26,0.074,0.364,0.221l2.73,3.809
		c0.312-0.182,0.539-0.373,0.682-0.572c0.143-0.199,0.232-0.396,0.267-0.592c0.035-0.195,0.052-0.448,0.052-0.76v-1.807l0.085-0.215
		l0.214-0.085h0.507l0.214,0.085l0.085,0.215v1.859c0,0.589-0.102,1.094-0.306,1.515c-0.204,0.42-0.613,0.813-1.229,1.176
		l1.482,2.067l0.091,0.247l-0.078,0.182L221.169,157.977 M213.278,157.977h-0.546l-0.214-0.085l-0.085-0.214v-3.887
		c0-1.491-0.741-2.236-2.223-2.236h-2.418l-0.215-0.078l-0.085-0.208v-0.416c0-0.095,0.028-0.169,0.085-0.221l0.215-0.078h2.483
		c2.201,0,3.302,1.066,3.302,3.198v3.926l-0.085,0.214L213.278,157.977 M208.338,157.977h-0.546l-0.215-0.085l-0.085-0.214v-4.368
		l0.085-0.214l0.215-0.085h0.546l0.215,0.085l0.085,0.214v4.368l-0.085,0.214L208.338,157.977 M202.319,157.977h-0.585
		c-0.113,0-0.199-0.033-0.26-0.098l-0.104-0.111l-2.964-4.173c-0.373,0.269-0.626,0.587-0.76,0.956
		c-0.135,0.369-0.202,0.774-0.202,1.216v1.911l-0.084,0.214l-0.215,0.085h-0.481l-0.214-0.085l-0.085-0.214v-1.963
		c0-0.641,0.098-1.2,0.293-1.677c0.195-0.477,0.578-0.906,1.15-1.287l-1.209-1.69c-0.061-0.095-0.091-0.178-0.091-0.247l0.078-0.182
		l0.182-0.078h0.572c0.138,0,0.26,0.074,0.364,0.221l2.73,3.809c0.312-0.182,0.54-0.373,0.682-0.572
		c0.143-0.199,0.232-0.396,0.267-0.592c0.035-0.195,0.052-0.448,0.052-0.76v-1.807l0.084-0.215l0.215-0.085h0.507l0.214,0.085
		l0.085,0.215v1.859c0,0.589-0.102,1.094-0.306,1.515c-0.204,0.42-0.613,0.813-1.229,1.176l1.482,2.067l0.091,0.247l-0.078,0.182
		L202.319,157.977 M194.363,157.977h-0.572l-0.214-0.085l-0.085-0.214v-6.825c0-0.095,0.028-0.169,0.085-0.221l0.214-0.078h0.572
		l0.215,0.085l0.084,0.215v6.825l-0.084,0.214L194.363,157.977 M188.045,157.977h-3.354l-0.208-0.085l-0.078-0.214v-0.416
		l0.078-0.215l0.208-0.084h2.509v-3.159c0-0.659-0.167-1.194-0.501-1.605c-0.334-0.411-0.756-0.617-1.267-0.617h-1.378l-1.001,6.084
		l-0.11,0.221l-0.215,0.091h-0.546l-0.201-0.091l-0.058-0.221l1.04-6.084h-0.663l-0.215-0.085L182,151.282v-0.429l0.084-0.215
		l0.215-0.085h3.263c0.537,0,1.016,0.128,1.437,0.384c0.42,0.256,0.749,0.622,0.988,1.098c0.238,0.477,0.357,1.04,0.357,1.69v3.952
		l-0.085,0.214L188.045,157.977 M179.972,157.977h-0.546l-0.215-0.085l-0.084-0.214v-3.887c0-1.491-0.745-2.236-2.236-2.236h-1.677
		L175,151.477l-0.085-0.208v-0.416l0.085-0.215l0.214-0.085h1.755c2.201,0,3.302,1.058,3.302,3.172v3.952l-0.085,0.214
		L179.972,157.977 M167.857,157.977h-0.546l-0.214-0.085l-0.085-0.214v-3.887c0-1.491-0.745-2.236-2.236-2.236h-1.677l-0.214-0.078
		l-0.085-0.208v-0.416l0.085-0.215l0.214-0.085h1.755c2.201,0,3.302,1.058,3.302,3.172v3.952l-0.084,0.214L167.857,157.977
		 M158.159,157.977h-3.471l-0.215-0.085l-0.084-0.214v-0.416l0.084-0.215l0.215-0.084h2.561l-0.208-3.302
		c-0.043-0.563-0.089-0.977-0.137-1.242c-0.048-0.264-0.154-0.479-0.318-0.643c-0.165-0.165-0.42-0.247-0.767-0.247h-0.533
		l-0.214-0.078l-0.085-0.208v-0.416l0.085-0.214l0.214-0.085h0.533c0.624,0,1.103,0.123,1.436,0.371
		c0.334,0.247,0.563,0.587,0.689,1.021c0.126,0.433,0.21,1.001,0.253,1.703l0.247,4.056v0.039l-0.085,0.189L158.159,157.977
		 M152.569,157.977h-0.546l-0.215-0.085l-0.085-0.214v-3.887c0-1.491-0.741-2.236-2.223-2.236h-2.418l-0.215-0.078l-0.084-0.208
		v-0.416c0-0.095,0.028-0.169,0.084-0.221l0.215-0.078h2.483c2.201,0,3.302,1.066,3.302,3.198v3.926l-0.084,0.214L152.569,157.977
		 M147.629,157.977h-0.546l-0.215-0.085l-0.084-0.214v-4.368l0.084-0.214l0.215-0.085h0.546l0.214,0.085l0.085,0.214v4.368
		l-0.085,0.214L147.629,157.977 M160.876,154.961h-0.572l-0.215-0.085l-0.084-0.215v-3.809c0-0.095,0.028-0.169,0.084-0.221
		l0.215-0.078h0.572l0.214,0.085l0.085,0.215v3.809l-0.085,0.215L160.876,154.961 M243.06,151.594h-0.377
		c-0.156,0-0.243-0.095-0.26-0.286l-0.221-2.262v-0.052l0.071-0.182l0.189-0.065h0.819l0.201,0.085l0.059,0.214l-0.221,2.262
		C243.303,151.499,243.216,151.594,243.06,151.594"/>
	<path fill="#000000" d="M280.344,158.107c-1.118,0-1.935-0.327-2.451-0.981c-0.516-0.654-0.791-1.51-0.825-2.568l-0.013-1.118
		l0.013-1.157c0.026-1.049,0.301-1.9,0.825-2.555c0.524-0.654,1.341-0.981,2.451-0.981c1.118,0,1.939,0.327,2.463,0.981
		c0.524,0.655,0.8,1.506,0.826,2.555c0.009,0.243,0.013,0.628,0.013,1.157c0,0.512-0.004,0.884-0.013,1.118
		c-0.035,1.057-0.31,1.913-0.826,2.568C282.291,157.78,281.47,158.107,280.344,158.107 M280.344,149.813
		c-0.659,0-1.157,0.223-1.495,0.67c-0.338,0.447-0.516,1.068-0.533,1.866l-0.013,1.066l0.013,1.079
		c0.017,0.806,0.195,1.43,0.533,1.872c0.338,0.442,0.836,0.663,1.495,0.663c0.667,0,1.17-0.221,1.508-0.663
		c0.338-0.442,0.516-1.066,0.533-1.872c0.009-0.251,0.013-0.611,0.013-1.079c0-0.477-0.004-0.832-0.013-1.066
		c-0.018-0.797-0.197-1.419-0.539-1.866C281.503,150.036,281.002,149.813,280.344,149.813 M272.115,158.107
		c-1.118,0-1.935-0.327-2.451-0.981c-0.516-0.654-0.791-1.51-0.825-2.568l-0.013-1.118l0.013-1.157
		c0.026-1.049,0.301-1.9,0.825-2.555c0.524-0.654,1.341-0.981,2.451-0.981c1.118,0,1.939,0.327,2.464,0.981
		c0.524,0.655,0.799,1.506,0.825,2.555c0.009,0.243,0.013,0.628,0.013,1.157c0,0.512-0.004,0.884-0.013,1.118
		c-0.035,1.057-0.31,1.913-0.825,2.568C274.062,157.78,273.241,158.107,272.115,158.107 M272.115,149.813
		c-0.659,0-1.157,0.223-1.495,0.67c-0.338,0.447-0.516,1.068-0.533,1.866l-0.013,1.066l0.013,1.079
		c0.017,0.806,0.195,1.43,0.533,1.872c0.338,0.442,0.836,0.663,1.495,0.663c0.667,0,1.17-0.221,1.508-0.663
		c0.338-0.442,0.516-1.066,0.533-1.872c0.009-0.251,0.013-0.611,0.013-1.079c0-0.477-0.004-0.832-0.013-1.066
		c-0.017-0.797-0.197-1.419-0.539-1.866C273.274,150.036,272.773,149.813,272.115,149.813 M265.797,157.977h-0.598l-0.215-0.085
		l-0.085-0.214v-1.898h-4.225l-0.215-0.085l-0.084-0.214V155c0-0.121,0.047-0.251,0.143-0.39l3.913-5.512l0.195-0.163
		c0.087-0.039,0.182-0.058,0.286-0.058h0.884c0.095,0,0.169,0.026,0.221,0.078c0.052,0.052,0.078,0.126,0.078,0.221v5.512h1.183
		l0.214,0.084l0.085,0.215v0.494l-0.085,0.214l-0.214,0.085h-1.183v1.898l-0.085,0.214L265.797,157.977 M264.913,150.19
		l-3.185,4.524h3.185V150.19"/>
	<path fill="#000000" d="M157.496,177.36h-0.533l-0.215-0.078c-0.056-0.052-0.084-0.126-0.084-0.221v-6.851l0.084-0.214l0.215-0.085
		h0.533l0.215,0.085l0.085,0.214v6.851l-0.085,0.215L157.496,177.36 M146.199,177.36h-0.533l-0.215-0.078
		c-0.056-0.052-0.084-0.126-0.084-0.221v-6.851l0.084-0.214l0.215-0.085h0.533l0.214,0.085l0.085,0.214v6.851l-0.085,0.215
		L146.199,177.36 M266.317,176.489h-0.546l-0.215-0.078c-0.056-0.052-0.085-0.126-0.085-0.221v-8.437
		c0-0.095,0.028-0.169,0.085-0.221l0.215-0.078h0.546l0.215,0.084l0.085,0.215v8.437l-0.085,0.214L266.317,176.489 M230.984,176.489
		h-0.533l-0.214-0.085l-0.085-0.214v-5.473c0-1.491-0.745-2.236-2.236-2.236h-1.209v1.313c0,0.355,0.039,0.637,0.117,0.845
		c0.078,0.208,0.212,0.338,0.403,0.39l0.494,0.13l0.163,0.136c0.039,0.074,0.058,0.163,0.058,0.267v0.325l-0.13,0.195
		c-0.062,0.031-0.128,0.046-0.198,0.046c-0.028,0-0.058-0.003-0.088-0.008l-0.546-0.117c-0.867-0.191-1.3-0.94-1.3-2.249v-2.002
		c0-0.095,0.028-0.169,0.085-0.221l0.214-0.078h2.041c1.092,0,1.905,0.277,2.438,0.832c0.533,0.555,0.804,1.348,0.813,2.379
		l0.013,5.525l-0.085,0.214L230.984,176.489 M256.97,175.007l-0.162-0.065l-0.072-0.182v-0.572c0-0.156,0.095-0.273,0.286-0.351
		l0.507-0.195c0.598-0.225,1.057-0.55,1.378-0.975c0.32-0.425,0.481-1.048,0.481-1.872c0-0.581-0.07-1.038-0.208-1.372
		c-0.139-0.333-0.366-0.574-0.682-0.722c-0.316-0.147-0.752-0.221-1.307-0.221h-0.403h-0.039l-1.196-0.013l-0.214-0.078
		l-0.085-0.208v-2.236l0.085-0.214l0.214-0.085h0.52l0.208,0.085l0.078,0.214v1.508h1.001c0.789,0,1.415,0.113,1.879,0.338
		c0.464,0.226,0.8,0.585,1.008,1.079s0.312,1.153,0.312,1.976c0,1.109-0.273,1.974-0.819,2.594c-0.546,0.62-1.257,1.077-2.132,1.371
		l-0.546,0.182L256.97,175.007 M239.342,175.007c-1.066,0-1.865-0.279-2.398-0.838c-0.533-0.559-0.8-1.363-0.8-2.412v-4.004
		c0-0.095,0.028-0.169,0.085-0.221l0.214-0.078h3.12c1.118,0,1.92,0.251,2.405,0.754c0.485,0.503,0.75,1.274,0.793,2.314
		c0.009,0.087,0.013,0.321,0.013,0.702c0,0.381-0.005,0.615-0.013,0.702c-0.026,1.031-0.308,1.803-0.845,2.314
		C241.379,174.752,240.521,175.007,239.342,175.007 M237.237,168.455v3.302c0,0.72,0.176,1.27,0.526,1.651
		c0.351,0.381,0.873,0.572,1.567,0.572c0.815,0,1.399-0.171,1.755-0.514c0.355-0.342,0.541-0.878,0.559-1.605
		c0.008-0.087,0.013-0.299,0.013-0.637s-0.005-0.55-0.013-0.637c-0.018-0.693-0.215-1.222-0.592-1.586
		c-0.377-0.364-0.895-0.546-1.554-0.546H237.237 M159.342,175.007l-0.163-0.065l-0.072-0.182v-0.572
		c0-0.156,0.095-0.273,0.286-0.351l0.507-0.195c0.598-0.225,1.057-0.55,1.378-0.975c0.321-0.425,0.481-1.048,0.481-1.872
		c0-0.581-0.07-1.038-0.208-1.372c-0.139-0.333-0.366-0.574-0.682-0.722c-0.316-0.147-0.752-0.221-1.307-0.221h-2.6l-0.215-0.085
		l-0.084-0.214v-0.442l0.084-0.208l0.215-0.078h2.756c0.797,0,1.428,0.113,1.891,0.338c0.464,0.226,0.8,0.585,1.008,1.079
		s0.312,1.153,0.312,1.976c0,1.109-0.273,1.974-0.819,2.594c-0.546,0.62-1.257,1.077-2.132,1.371l-0.546,0.182L159.342,175.007
		 M148.045,175.007l-0.163-0.065l-0.072-0.182v-0.572c0-0.156,0.095-0.273,0.286-0.351l0.507-0.195
		c0.598-0.225,1.057-0.55,1.378-0.975c0.321-0.425,0.481-1.048,0.481-1.872c0-0.581-0.07-1.038-0.208-1.372
		c-0.139-0.333-0.366-0.574-0.682-0.722c-0.316-0.147-0.752-0.221-1.307-0.221h-2.6l-0.215-0.085l-0.084-0.214v-0.442l0.084-0.208
		l0.215-0.078h2.756c0.797,0,1.428,0.113,1.891,0.338c0.464,0.226,0.8,0.585,1.008,1.079s0.312,1.153,0.312,1.976
		c0,1.109-0.273,1.974-0.819,2.594c-0.546,0.62-1.257,1.077-2.132,1.371l-0.546,0.182L148.045,175.007 M137.021,175.007
		c-1.066,0-1.865-0.279-2.398-0.838c-0.533-0.559-0.8-1.363-0.8-2.412v-4.004c0-0.095,0.028-0.169,0.085-0.221l0.215-0.078h3.12
		c1.118,0,1.92,0.251,2.405,0.754c0.485,0.503,0.75,1.274,0.793,2.314c0.009,0.087,0.013,0.321,0.013,0.702
		c0,0.381-0.005,0.615-0.013,0.702c-0.026,1.031-0.308,1.803-0.845,2.314C139.058,174.752,138.2,175.007,137.021,175.007
		 M134.916,168.455v3.302c0,0.72,0.175,1.27,0.527,1.651c0.351,0.381,0.873,0.572,1.566,0.572c0.815,0,1.399-0.171,1.755-0.514
		c0.355-0.342,0.542-0.878,0.559-1.605c0.009-0.087,0.013-0.299,0.013-0.637s-0.004-0.55-0.013-0.637
		c-0.018-0.693-0.215-1.222-0.592-1.586c-0.377-0.364-0.895-0.546-1.553-0.546H134.916 M217.517,174.957
		c-0.039,0-0.078,0-0.118-0.001h-0.962c-0.564,0-1.071-0.13-1.521-0.39c-0.451-0.26-0.804-0.626-1.059-1.098
		c-0.256-0.472-0.384-1.016-0.384-1.632v-4.082c0-0.095,0.028-0.169,0.084-0.221l0.215-0.078h0.507l0.215,0.084l0.084,0.215
		l0.039,3.692c0.789-0.061,1.337-0.273,1.645-0.637c0.308-0.364,0.462-0.841,0.462-1.43v-1.625l0.084-0.215l0.215-0.084h0.507
		l0.214,0.084l0.085,0.215v1.677c0,0.832-0.264,1.517-0.793,2.054c-0.529,0.537-1.305,0.832-2.327,0.884
		c0.139,0.503,0.396,0.891,0.774,1.164c0.377,0.273,0.83,0.409,1.358,0.409h0.416c0.015,0,0.029,0,0.043,0
		c0.802,0,1.429-0.238,1.881-0.715c0.459-0.485,0.689-1.131,0.689-1.937v-3.536l0.085-0.215l0.214-0.084h0.507l0.215,0.084
		l0.084,0.215v3.614c0,0.728-0.149,1.367-0.448,1.917c-0.299,0.55-0.72,0.971-1.261,1.261
		C218.753,174.82,218.171,174.957,217.517,174.957 M197.068,174.957c-0.039,0-0.078,0-0.118-0.001h-0.962
		c-0.564,0-1.071-0.13-1.521-0.39c-0.451-0.26-0.804-0.626-1.059-1.098c-0.256-0.472-0.384-1.016-0.384-1.632v-4.082
		c0-0.095,0.028-0.169,0.084-0.221l0.215-0.078h0.507l0.215,0.084l0.084,0.215l0.039,3.692c0.789-0.061,1.337-0.273,1.645-0.637
		c0.308-0.364,0.462-0.841,0.462-1.43v-1.625l0.084-0.215l0.215-0.084h0.507l0.214,0.084l0.085,0.215v1.677
		c0,0.832-0.264,1.517-0.793,2.054c-0.529,0.537-1.305,0.832-2.327,0.884c0.139,0.503,0.396,0.891,0.774,1.164
		c0.377,0.273,0.83,0.409,1.358,0.409h0.416c0.015,0,0.029,0,0.043,0c0.803,0,1.429-0.238,1.881-0.715
		c0.459-0.485,0.689-1.131,0.689-1.937v-3.536l0.085-0.215l0.214-0.084h0.507l0.215,0.084l0.084,0.215v3.614
		c0,0.728-0.149,1.367-0.448,1.917c-0.299,0.55-0.72,0.971-1.261,1.261C198.305,174.82,197.722,174.957,197.068,174.957
		 M283.542,174.877h-3.471l-0.215-0.084l-0.084-0.215v-0.416l0.084-0.214l0.215-0.085h2.561l-0.208-3.302
		c-0.043-0.563-0.089-0.977-0.136-1.242c-0.048-0.264-0.154-0.479-0.319-0.643c-0.165-0.165-0.421-0.247-0.767-0.247h-0.533
		l-0.214-0.078l-0.085-0.208v-0.416l0.085-0.215l0.214-0.085h0.533c0.624,0,1.103,0.124,1.437,0.371
		c0.333,0.247,0.563,0.587,0.689,1.021c0.126,0.433,0.21,1.001,0.253,1.703l0.247,4.056v0.039l-0.085,0.188L283.542,174.877
		 M274.949,174.877h-0.546l-0.214-0.084l-0.085-0.215v-3.887c0-1.49-0.745-2.236-2.236-2.236h-0.936
		c-0.087,0.546-0.149,0.999-0.188,1.358c-0.039,0.36-0.054,0.769-0.045,1.229l0.026,3.536l-0.084,0.215l-0.215,0.084l-1.807-0.026
		l-0.215-0.085l-0.084-0.214v-0.39l0.084-0.214l0.215-0.085l1.001,0.013v-2.782c-0.009-0.546,0.002-1.008,0.033-1.385
		c0.03-0.377,0.102-0.795,0.214-1.254h-0.702l-0.214-0.078l-0.085-0.208v-0.416c0-0.095,0.028-0.169,0.085-0.221l0.214-0.078h2.782
		c2.201,0,3.302,1.057,3.302,3.172v3.952l-0.085,0.215L274.949,174.877 M253.473,174.877h-0.546l-0.215-0.084l-0.085-0.215v-3.887
		c0-1.49-0.741-2.236-2.223-2.236h-2.418l-0.215-0.078l-0.084-0.208v-0.416c0-0.095,0.028-0.169,0.084-0.221l0.215-0.078h2.483
		c2.201,0,3.302,1.066,3.302,3.198v3.926l-0.085,0.215L253.473,174.877 M248.533,174.877h-0.546l-0.215-0.084l-0.084-0.215v-4.368
		l0.084-0.214l0.215-0.085h0.546l0.214,0.085l0.085,0.214v4.368l-0.085,0.215L248.533,174.877 M245.374,174.877h-0.572l-0.215-0.084
		l-0.085-0.215v-6.825c0-0.095,0.028-0.169,0.085-0.221l0.215-0.078h0.572l0.214,0.084l0.085,0.215v6.825l-0.085,0.215
		L245.374,174.877 M211.289,174.877h-0.572l-0.214-0.084l-0.085-0.215v-6.825c0-0.095,0.028-0.169,0.085-0.221l0.214-0.078h0.572
		l0.215,0.084l0.085,0.215v6.825l-0.085,0.215L211.289,174.877 M208.169,174.877h-3.354l-0.208-0.084l-0.078-0.215v-0.416
		l0.078-0.214l0.208-0.085h2.509v-3.159c0-0.658-0.167-1.194-0.501-1.605c-0.334-0.411-0.756-0.617-1.267-0.617h-1.378l-1.001,6.084
		l-0.111,0.221l-0.214,0.091h-0.546l-0.201-0.091l-0.058-0.221l1.04-6.084h-0.663l-0.215-0.085l-0.084-0.214v-0.429l0.084-0.215
		l0.215-0.084h3.263c0.537,0,1.016,0.128,1.437,0.384c0.42,0.256,0.749,0.622,0.988,1.099c0.238,0.477,0.357,1.04,0.357,1.69v3.952
		l-0.085,0.215L208.169,174.877 M190.84,174.877h-0.572l-0.215-0.084l-0.085-0.215v-6.825c0-0.095,0.028-0.169,0.085-0.221
		l0.215-0.078h0.572l0.215,0.084l0.085,0.215v6.825l-0.085,0.215L190.84,174.877 M187.721,174.877h-5.447l-0.215-0.084l-0.084-0.215
		v-6.825c0-0.095,0.028-0.169,0.084-0.221l0.215-0.078h2.457c1.109,0,1.935,0.264,2.477,0.793c0.542,0.529,0.813,1.322,0.813,2.379
		v3.952l-0.085,0.215L187.721,174.877 M183.054,168.455v5.408h3.848v-3.172c0-1.49-0.745-2.236-2.236-2.236H183.054
		 M176.801,174.877h-0.585c-0.113,0-0.199-0.033-0.26-0.098l-0.104-0.11l-2.964-4.173c-0.373,0.269-0.626,0.587-0.76,0.955
		c-0.135,0.369-0.202,0.774-0.202,1.216v1.911l-0.084,0.215l-0.215,0.084h-0.481l-0.214-0.084l-0.085-0.215v-1.963
		c0-0.641,0.098-1.2,0.293-1.677c0.195-0.477,0.578-0.906,1.151-1.287l-1.209-1.69c-0.061-0.095-0.091-0.178-0.091-0.247
		l0.078-0.182l0.182-0.078h0.572c0.139,0,0.26,0.074,0.364,0.221l2.73,3.809c0.312-0.182,0.539-0.372,0.682-0.572
		c0.143-0.199,0.232-0.396,0.266-0.591c0.035-0.195,0.052-0.449,0.052-0.761v-1.807l0.084-0.215l0.215-0.084h0.507l0.214,0.084
		l0.085,0.215v1.859c0,0.59-0.102,1.094-0.306,1.515c-0.204,0.42-0.613,0.813-1.228,1.176l1.482,2.067l0.091,0.247l-0.078,0.182
		L176.801,174.877 M168.845,174.877h-0.572l-0.214-0.084l-0.085-0.215v-6.825c0-0.095,0.028-0.169,0.085-0.221l0.214-0.078h0.572
		l0.215,0.084l0.085,0.215v6.825l-0.085,0.215L168.845,174.877 M154.35,174.877h-0.572l-0.215-0.084l-0.085-0.215v-6.825
		c0-0.095,0.028-0.169,0.085-0.221l0.215-0.078h0.572l0.214,0.084l0.085,0.215v6.825l-0.085,0.215L154.35,174.877 M143.053,174.877
		h-0.572l-0.215-0.084l-0.085-0.215v-6.825c0-0.095,0.028-0.169,0.085-0.221l0.215-0.078h0.572l0.214,0.084l0.085,0.215v6.825
		l-0.085,0.215L143.053,174.877 M277.978,171.861h-0.572l-0.214-0.085l-0.085-0.214v-3.809c0-0.095,0.028-0.169,0.085-0.221
		l0.214-0.078h0.572l0.214,0.084l0.085,0.215v3.809l-0.085,0.214L277.978,171.861 M234,171.861h-0.572l-0.214-0.085l-0.085-0.214
		v-3.809c0-0.095,0.028-0.169,0.085-0.221l0.214-0.078H234l0.215,0.084l0.084,0.215v3.809l-0.084,0.214L234,171.861"/>
	<path fill="#000000" d="M283.243,208.677h-1.209l-0.221-0.091l-0.091-0.221v-6.708l-1.963,1.508l-0.195,0.065
		c-0.104,0-0.186-0.043-0.247-0.13l-0.559-0.728l-0.065-0.182c0-0.104,0.047-0.19,0.143-0.26l2.912-2.262
		c0.095-0.061,0.203-0.091,0.325-0.091h1.17l0.221,0.091l0.091,0.221v8.476l-0.091,0.221L283.243,208.677"/>
	<path fill="#000000" d="M218.98,211.16h-0.221l-0.208-0.078l-0.078-0.208v-7.046l0.078-0.208l0.208-0.078h0.221l0.208,0.078
		l0.078,0.208v7.046l-0.078,0.208L218.98,211.16 M263.232,208.794c-0.139,0-0.208-0.069-0.208-0.208v-0.325
		c0-0.147,0.091-0.256,0.273-0.325l0.533-0.208c0.667-0.26,1.176-0.619,1.527-1.079c0.351-0.459,0.527-1.144,0.527-2.054
		c0-0.65-0.078-1.161-0.234-1.534c-0.156-0.373-0.414-0.641-0.773-0.806c-0.36-0.165-0.852-0.247-1.476-0.247h-0.442h-0.039
		l-1.014-0.013l-0.208-0.071l-0.078-0.202v-1.989l0.078-0.208l0.208-0.078h0.221l0.208,0.078l0.078,0.208v1.521h1.053
		c0.806,0,1.441,0.111,1.905,0.331c0.464,0.221,0.797,0.579,1.001,1.073c0.203,0.494,0.306,1.17,0.306,2.028
		c0,1.118-0.253,1.972-0.761,2.561c-0.507,0.59-1.185,1.036-2.034,1.339l-0.546,0.195L263.232,208.794 M256.485,208.794
		c-0.139,0-0.208-0.069-0.208-0.208v-0.325c0-0.147,0.091-0.256,0.273-0.325l0.533-0.208c0.667-0.26,1.176-0.619,1.527-1.079
		c0.351-0.459,0.526-1.144,0.526-2.054c0-0.65-0.078-1.161-0.234-1.534c-0.156-0.373-0.414-0.641-0.773-0.806
		c-0.36-0.165-0.852-0.247-1.475-0.247h-0.442h-0.039l-1.014-0.013l-0.208-0.071l-0.078-0.202v-1.989l0.078-0.208l0.208-0.078h0.221
		l0.208,0.078l0.078,0.208v1.521h1.053c0.806,0,1.441,0.111,1.904,0.331c0.464,0.221,0.797,0.579,1.001,1.073
		c0.203,0.494,0.306,1.17,0.306,2.028c0,1.118-0.254,1.972-0.76,2.561c-0.507,0.59-1.185,1.036-2.035,1.339l-0.546,0.195
		L256.485,208.794 M220.904,208.794c-0.139,0-0.208-0.069-0.208-0.208v-0.325c0-0.147,0.091-0.256,0.273-0.325l0.533-0.208
		c0.667-0.26,1.176-0.619,1.527-1.079c0.351-0.459,0.527-1.144,0.527-2.054c0-0.65-0.078-1.161-0.234-1.534
		c-0.156-0.373-0.414-0.641-0.774-0.806c-0.36-0.165-0.851-0.247-1.475-0.247h-2.314l-0.208-0.078l-0.078-0.208v-0.182l0.078-0.208
		l0.208-0.078h2.379c0.806,0,1.441,0.111,1.904,0.331c0.464,0.221,0.797,0.579,1.001,1.073c0.204,0.494,0.306,1.17,0.306,2.028
		c0,1.118-0.253,1.972-0.76,2.561c-0.507,0.59-1.185,1.036-2.034,1.339l-0.546,0.195L220.904,208.794 M194.736,208.794
		c-0.139,0-0.208-0.069-0.208-0.208v-0.325c0-0.147,0.091-0.256,0.273-0.325l0.533-0.208c0.667-0.26,1.176-0.619,1.527-1.079
		c0.351-0.459,0.527-1.144,0.527-2.054c0-0.65-0.078-1.161-0.234-1.534c-0.156-0.373-0.414-0.641-0.773-0.806
		c-0.36-0.165-0.852-0.247-1.475-0.247h-0.442h-0.039l-1.014-0.013l-0.208-0.071l-0.078-0.202v-1.989l0.078-0.208l0.208-0.078h0.221
		l0.208,0.078l0.078,0.208v1.521h1.053c0.806,0,1.441,0.111,1.905,0.331c0.464,0.221,0.797,0.579,1.001,1.073
		c0.203,0.494,0.306,1.17,0.306,2.028c0,1.118-0.253,1.972-0.761,2.561c-0.507,0.59-1.185,1.036-2.034,1.339l-0.546,0.195
		L194.736,208.794 M246.763,208.744c-0.039,0-0.079-0.001-0.119-0.001h-0.871c-0.512,0-0.981-0.128-1.41-0.384
		c-0.429-0.255-0.769-0.622-1.021-1.099c-0.251-0.476-0.377-1.031-0.377-1.664v-4.056l0.078-0.208l0.208-0.078h0.221l0.208,0.078
		l0.078,0.208l0.052,3.887c0.884-0.061,1.504-0.28,1.859-0.657c0.355-0.377,0.533-0.865,0.533-1.462v-1.768l0.078-0.208l0.208-0.078
		h0.221l0.208,0.078l0.078,0.208v1.833c0,0.771-0.264,1.419-0.793,1.944c-0.529,0.524-1.309,0.813-2.34,0.864
		c0.095,0.572,0.347,1.014,0.754,1.326c0.407,0.312,0.914,0.468,1.521,0.468h0.455c0.029,0.001,0.057,0.001,0.085,0.001
		c0.834,0,1.477-0.249,1.93-0.748c0.468-0.516,0.702-1.211,0.702-2.087v-3.601l0.078-0.208l0.208-0.078h0.221l0.208,0.078
		l0.078,0.208v3.692c0,0.719-0.143,1.348-0.429,1.885c-0.286,0.537-0.689,0.947-1.209,1.229
		C247.974,208.611,247.407,208.744,246.763,208.744 M252.585,208.677h-0.221l-0.208-0.078l-0.078-0.208v-6.851l0.078-0.208
		l0.208-0.078h0.221l0.208,0.078l0.078,0.208v6.851l-0.078,0.208L252.585,208.677 M238.194,208.677h-5.2l-0.208-0.078l-0.078-0.208
		v-0.182l0.078-0.208l0.208-0.078h3.913v-3.432c0-1.655-0.828-2.483-2.483-2.483h-1.3l-0.208-0.078l-0.078-0.208v-0.182l0.078-0.208
		l0.208-0.078h1.365c1.083,0,1.889,0.273,2.418,0.819c0.529,0.546,0.793,1.331,0.793,2.353v3.497h0.494l0.208,0.078l0.078,0.208
		v0.182l-0.078,0.208L238.194,208.677 M230.797,208.677h-4.485l-0.208-0.078l-0.078-0.208v-0.182l0.078-0.208l0.208-0.078h3.705
		l-4.173-6.149c-0.069-0.104-0.104-0.19-0.104-0.26l0.084-0.182l0.188-0.078h0.234c0.13,0,0.238,0.069,0.325,0.208l2.496,3.627
		c0.849-0.321,1.274-1.083,1.274-2.288v-1.261l0.078-0.208l0.208-0.078h0.221l0.208,0.078l0.078,0.208v1.326
		c0,0.702-0.141,1.289-0.422,1.761c-0.282,0.472-0.695,0.821-1.242,1.046l1.469,2.145c0.095,0.139,0.143,0.269,0.143,0.39v0.182
		l-0.078,0.208L230.797,208.677 M212.727,208.677h-3.289l-0.208-0.078l-0.078-0.208v-0.182l0.078-0.208l0.208-0.078h2.782v-3.432
		c0-0.476-0.085-0.905-0.253-1.287c-0.169-0.381-0.403-0.676-0.702-0.884c-0.299-0.208-0.635-0.312-1.008-0.312h-1.508l-0.962,6.37
		l-0.11,0.215l-0.215,0.084h-0.234l-0.182-0.084l-0.052-0.215l0.949-6.37h-0.585l-0.208-0.078l-0.078-0.208v-0.182l0.078-0.208
		l0.208-0.078h2.964c0.52,0,0.984,0.13,1.391,0.39c0.407,0.26,0.726,0.631,0.956,1.112c0.23,0.481,0.344,1.038,0.344,1.67v3.965
		l-0.078,0.208L212.727,208.677 M202.275,208.677h-1.911l-0.208-0.078l-0.078-0.208v-0.182l0.078-0.208l0.208-0.078h1.846
		c0.849,0,1.467-0.21,1.853-0.631c0.386-0.42,0.596-1.038,0.63-1.852c0.009-0.13,0.013-0.29,0.013-0.481
		c0-0.182-0.004-0.338-0.013-0.468c-0.026-0.815-0.234-1.432-0.624-1.852c-0.39-0.42-1.01-0.631-1.859-0.631h-1.846l-0.208-0.078
		l-0.078-0.208v-0.182l0.078-0.208l0.208-0.078h1.911c1.075,0,1.87,0.269,2.385,0.806c0.516,0.537,0.791,1.326,0.825,2.366
		c0.009,0.13,0.013,0.308,0.013,0.533c0,0.234-0.005,0.416-0.013,0.546c-0.035,1.04-0.31,1.829-0.825,2.366
		C204.145,208.409,203.35,208.677,202.275,208.677 M187.859,208.677h-0.221l-0.208-0.078l-0.078-0.208v-3.9
		c0-1.655-0.828-2.483-2.483-2.483h-2.236l-0.208-0.078l-0.078-0.208v-0.182l0.078-0.208l0.208-0.078h2.301
		c1.083,0,1.889,0.271,2.418,0.813c0.529,0.542,0.793,1.328,0.793,2.36v3.965l-0.078,0.208L187.859,208.677 M182.854,208.677h-0.221
		l-0.208-0.078l-0.078-0.208v-4.563l0.078-0.208l0.208-0.078h0.221l0.208,0.078l0.078,0.208v4.563l-0.078,0.208L182.854,208.677
		 M179.955,208.677h-0.221l-0.208-0.078l-0.078-0.208v-3.9c0-1.655-0.828-2.483-2.483-2.483h-1.742v6.383l-0.078,0.208l-0.208,0.078
		h-0.221l-0.208-0.078l-0.078-0.208v-6.851l0.078-0.208l0.208-0.078h2.314c1.083,0,1.889,0.271,2.418,0.813
		c0.529,0.542,0.793,1.328,0.793,2.36v3.965l-0.078,0.208L179.955,208.677 M171.96,208.677h-0.221l-0.208-0.078l-0.078-0.208v-6.851
		l0.078-0.208l0.208-0.078h0.221l0.208,0.078l0.078,0.208v6.851l-0.078,0.208L171.96,208.677 M169.061,208.677h-3.289l-0.208-0.078
		l-0.078-0.208v-0.182l0.078-0.208l0.208-0.078h2.782v-3.432c0-0.476-0.084-0.905-0.253-1.287c-0.169-0.381-0.403-0.676-0.702-0.884
		c-0.299-0.208-0.635-0.312-1.007-0.312h-1.508l-0.962,6.37l-0.111,0.215l-0.215,0.084h-0.234l-0.182-0.084l-0.052-0.215l0.949-6.37
		h-0.585l-0.208-0.078l-0.078-0.208v-0.182l0.078-0.208l0.208-0.078h2.964c0.52,0,0.983,0.13,1.391,0.39
		c0.407,0.26,0.726,0.631,0.956,1.112c0.23,0.481,0.345,1.038,0.345,1.67v3.965l-0.078,0.208L169.061,208.677 M161.248,208.677
		h-0.221l-0.208-0.078l-0.078-0.208v-3.9c0-1.655-0.828-2.483-2.483-2.483h-1.586l-0.208-0.078l-0.078-0.208v-0.182l0.078-0.208
		l0.208-0.078h1.651c1.083,0,1.889,0.271,2.418,0.813c0.529,0.542,0.793,1.328,0.793,2.36v3.965l-0.078,0.208L161.248,208.677
		 M151.537,208.677h-5.226l-0.208-0.078l-0.078-0.208v-6.851l0.078-0.208l0.208-0.078h2.301c1.083,0,1.889,0.271,2.418,0.813
		c0.529,0.542,0.793,1.328,0.793,2.36v3.965l-0.078,0.208L151.537,208.677 M146.805,202.008v5.915h4.225v-3.432
		c0-1.655-0.828-2.483-2.483-2.483H146.805 M154.332,205.687h-0.221l-0.208-0.078l-0.078-0.208v-3.861l0.078-0.208l0.208-0.078
		h0.221l0.208,0.078l0.078,0.208v3.861l-0.078,0.208L154.332,205.687"/>
	<path fill="#000000" d="M283.529,231.246h-6.227l-0.221-0.091l-0.091-0.221v-0.676c0-0.243,0.108-0.446,0.325-0.611l2.028-2.015
		c0.615-0.485,1.09-0.882,1.424-1.189c0.333-0.308,0.583-0.592,0.747-0.852c0.165-0.26,0.247-0.516,0.247-0.767
		c0-0.407-0.108-0.728-0.325-0.962c-0.217-0.234-0.546-0.351-0.988-0.351c-0.434,0-0.774,0.128-1.021,0.384
		c-0.247,0.256-0.401,0.587-0.461,0.995c-0.026,0.104-0.076,0.18-0.15,0.227l-0.241,0.072h-1.17l-0.195-0.078l-0.078-0.195
		c0.017-0.511,0.158-0.99,0.422-1.437c0.264-0.446,0.644-0.806,1.138-1.079c0.494-0.273,1.075-0.409,1.742-0.409
		c0.693,0,1.283,0.119,1.768,0.357c0.485,0.239,0.849,0.566,1.092,0.981c0.243,0.416,0.364,0.888,0.364,1.417
		c0,0.581-0.163,1.107-0.487,1.58c-0.325,0.472-0.83,0.977-1.515,1.515l-1.807,1.833h3.679c0.095,0,0.173,0.031,0.234,0.091
		c0.061,0.061,0.091,0.139,0.091,0.234v0.936c0,0.095-0.03,0.171-0.091,0.227C283.702,231.218,283.624,231.246,283.529,231.246"/>
	<path fill="#000000" d="M254.184,231.987l-0.176-0.065l-0.072-0.156v-0.169c0-0.199,0.06-0.321,0.182-0.364l1.781-0.65l-1.729-6.24
		c-0.043-0.147-0.065-0.234-0.065-0.26l0.078-0.182l0.182-0.078h0.234l0.195,0.059l0.104,0.136l1.781,6.279l0.13-0.052
		c0.711-0.26,1.209-0.633,1.495-1.118c0.286-0.485,0.429-1.075,0.429-1.768v-3.25l0.078-0.208l0.208-0.078h0.221l0.208,0.078
		l0.078,0.208v3.51c0,0.728-0.234,1.404-0.702,2.028c-0.468,0.624-1.088,1.075-1.859,1.352l-2.665,0.962L254.184,231.987
		 M170.763,231.987l-0.176-0.065l-0.071-0.156v-0.169c0-0.199,0.06-0.321,0.182-0.364l1.781-0.65l-1.729-6.24
		c-0.043-0.147-0.065-0.234-0.065-0.26l0.078-0.182l0.182-0.078h0.234l0.195,0.059l0.104,0.136l1.781,6.279l0.13-0.052
		c0.71-0.26,1.209-0.633,1.495-1.118c0.286-0.485,0.429-1.075,0.429-1.768v-3.25l0.078-0.208l0.208-0.078h0.221l0.208,0.078
		l0.078,0.208v3.51c0,0.728-0.234,1.404-0.702,2.028c-0.468,0.624-1.088,1.075-1.859,1.352l-2.665,0.962L170.763,231.987
		 M141.461,231.376c-1.101,0-1.9-0.269-2.398-0.806c-0.499-0.537-0.747-1.326-0.747-2.366v-4.095l0.078-0.208l0.208-0.078h0.221
		l0.208,0.078l0.078,0.208v4.03c0,0.798,0.193,1.411,0.579,1.84c0.386,0.429,0.977,0.643,1.774,0.643
		c0.797,0,1.385-0.193,1.761-0.578c0.377-0.386,0.574-0.977,0.592-1.775v-0.442V226.8c-0.017-0.78-0.191-1.356-0.52-1.729
		c-0.329-0.373-0.776-0.559-1.339-0.559c-0.165,0-0.353,0.031-0.565,0.091c-0.213,0.061-0.392,0.143-0.54,0.247l-0.13,0.039
		l-0.15-0.059l-0.072-0.149v-0.169v-0.065l0.026-0.182l0.104-0.117c0.199-0.13,0.405-0.228,0.617-0.293
		c0.212-0.065,0.47-0.098,0.774-0.098c0.806,0,1.432,0.243,1.879,0.728c0.446,0.485,0.682,1.235,0.708,2.249
		c0.009,0.087,0.013,0.351,0.013,0.793c0,0.451-0.005,0.719-0.013,0.806c-0.026,1.04-0.279,1.807-0.76,2.301
		C143.366,231.129,142.571,231.376,141.461,231.376 M155.41,231.363c-0.139,0-0.208-0.07-0.208-0.208v-0.325
		c0-0.147,0.091-0.255,0.273-0.325l0.533-0.208c0.667-0.26,1.176-0.62,1.527-1.079c0.351-0.459,0.527-1.144,0.527-2.054
		c0-0.65-0.078-1.161-0.234-1.534c-0.156-0.373-0.414-0.641-0.773-0.806c-0.36-0.165-0.852-0.247-1.475-0.247h-0.442h-0.039
		l-1.014-0.013l-0.208-0.072l-0.078-0.201v-1.989l0.078-0.208l0.208-0.078h0.221l0.208,0.078l0.078,0.208v1.521h1.053
		c0.806,0,1.441,0.111,1.904,0.332c0.464,0.221,0.797,0.578,1.001,1.072c0.203,0.494,0.306,1.17,0.306,2.028
		c0,1.118-0.253,1.972-0.76,2.561c-0.507,0.59-1.185,1.036-2.035,1.339l-0.546,0.195L155.41,231.363 M266.781,231.246h-5.2
		l-0.208-0.078l-0.078-0.208v-0.182l0.078-0.208l0.208-0.078h3.913v-3.432c0-1.655-0.828-2.483-2.483-2.483h-1.3l-0.208-0.078
		l-0.078-0.208v-0.182l0.078-0.208l0.208-0.078h1.365c1.083,0,1.889,0.273,2.418,0.819c0.529,0.546,0.793,1.33,0.793,2.353v3.497
		h0.494l0.208,0.078l0.078,0.208v0.182l-0.078,0.208L266.781,231.246 M250.7,231.246h-0.221l-0.208-0.078l-0.078-0.208v-4.914
		c0-0.338,0.033-0.637,0.097-0.897c0.065-0.26,0.15-0.451,0.254-0.572h-1.183l-0.208-0.078l-0.078-0.208v-0.182l0.078-0.208
		l0.208-0.078h2.886l0.208,0.078l0.078,0.208v0.182l-0.078,0.208l-0.208,0.078h-0.832c-0.139,0.121-0.245,0.318-0.318,0.592
		c-0.074,0.273-0.111,0.587-0.111,0.943v4.849l-0.078,0.208L250.7,231.246 M247.307,231.246h-0.221l-0.208-0.078l-0.078-0.208v-3.9
		c0-1.655-0.828-2.483-2.483-2.483h-1.586l-0.208-0.078l-0.078-0.208v-0.182l0.078-0.208l0.208-0.078h1.651
		c1.083,0,1.889,0.271,2.418,0.813c0.529,0.542,0.793,1.328,0.793,2.36v3.965l-0.078,0.208L247.307,231.246 M240.69,231.246h-0.221
		l-0.208-0.078l-0.078-0.208v-3.9c0-1.655-0.828-2.483-2.483-2.483h-0.988c-0.087,0.624-0.15,1.127-0.188,1.508
		c-0.039,0.382-0.054,0.815-0.045,1.3v3.575l-0.078,0.208l-0.208,0.078l-1.482-0.026l-0.208-0.078l-0.078-0.208v-0.182l0.078-0.208
		l0.208-0.078l0.975,0.013v-3.029v-0.403c0-0.477,0.017-0.895,0.052-1.254c0.035-0.36,0.1-0.765,0.195-1.216h-0.663l-0.208-0.078
		l-0.078-0.208v-0.182l0.078-0.208l0.208-0.078h2.496c1.083,0,1.889,0.271,2.418,0.813c0.529,0.542,0.793,1.328,0.793,2.36v3.965
		l-0.078,0.208L240.69,231.246 M229.341,231.246h-0.247l-0.176-0.045l-0.15-0.15l-3.211-4.472c-0.425,0.304-0.713,0.655-0.865,1.053
		c-0.152,0.399-0.228,0.841-0.228,1.326v2.002l-0.078,0.208l-0.208,0.078h-0.221l-0.208-0.078l-0.078-0.208v-2.067
		c0-0.615,0.098-1.164,0.293-1.645c0.195-0.481,0.579-0.908,1.151-1.28l-1.157-1.625c-0.069-0.104-0.104-0.191-0.104-0.26
		l0.078-0.182l0.182-0.078h0.247c0.121,0,0.23,0.065,0.325,0.195l2.938,4.095c0.364-0.199,0.628-0.405,0.793-0.617
		c0.165-0.212,0.266-0.427,0.306-0.644c0.039-0.217,0.058-0.507,0.058-0.871v-1.872l0.078-0.208l0.208-0.078h0.221l0.208,0.078
		l0.078,0.208v1.937c0,0.399-0.035,0.743-0.104,1.033c-0.069,0.29-0.215,0.572-0.436,0.845c-0.221,0.273-0.548,0.535-0.981,0.786
		l1.443,2.015c0.069,0.104,0.104,0.191,0.104,0.26l-0.078,0.182L229.341,231.246 M222.269,231.246h-5.2l-0.208-0.078l-0.078-0.208
		v-0.182l0.078-0.208l0.208-0.078h3.913v-3.432c0-1.655-0.828-2.483-2.483-2.483h-1.3l-0.208-0.078l-0.078-0.208v-0.182l0.078-0.208
		l0.208-0.078h1.365c1.083,0,1.889,0.273,2.418,0.819c0.529,0.546,0.793,1.33,0.793,2.353v3.497h0.494l0.208,0.078l0.078,0.208
		v0.182l-0.078,0.208L222.269,231.246 M210.647,231.246h-0.221l-0.208-0.078l-0.078-0.208v-4.914c0-0.338,0.033-0.637,0.098-0.897
		c0.065-0.26,0.15-0.451,0.253-0.572h-1.183l-0.208-0.078l-0.078-0.208v-0.182l0.078-0.208l0.208-0.078h2.886l0.208,0.078
		l0.078,0.208v0.182l-0.078,0.208l-0.208,0.078h-0.832c-0.139,0.121-0.245,0.318-0.318,0.592c-0.074,0.273-0.11,0.587-0.11,0.943
		v4.849l-0.078,0.208L210.647,231.246 M207.254,231.246h-0.221l-0.208-0.078l-0.078-0.208v-3.9c0-1.655-0.828-2.483-2.483-2.483
		h-1.586l-0.208-0.078l-0.078-0.208v-0.182l0.078-0.208l0.208-0.078h1.651c1.083,0,1.889,0.271,2.418,0.813
		c0.529,0.542,0.793,1.328,0.793,2.36v3.965l-0.078,0.208L207.254,231.246 M197.283,231.246h-0.221l-0.208-0.078l-0.078-0.208v-3.9
		c0-1.655-0.828-2.483-2.483-2.483h-2.236l-0.208-0.078l-0.078-0.208v-0.182l0.078-0.208l0.208-0.078h2.301
		c1.083,0,1.889,0.271,2.418,0.813c0.529,0.542,0.793,1.328,0.793,2.36v3.965l-0.078,0.208L197.283,231.246 M192.278,231.246h-0.221
		l-0.208-0.078l-0.078-0.208v-4.563l0.078-0.208l0.208-0.078h0.221l0.208,0.078l0.078,0.208v4.563l-0.078,0.208L192.278,231.246
		 M189.379,231.246h-3.289l-0.208-0.078l-0.078-0.208v-0.182l0.078-0.208l0.208-0.078h2.782v-3.432c0-0.476-0.085-0.905-0.253-1.287
		c-0.169-0.381-0.403-0.676-0.702-0.884c-0.299-0.208-0.635-0.312-1.007-0.312h-1.508l-0.962,6.37l-0.11,0.214l-0.215,0.085h-0.234
		l-0.182-0.085l-0.052-0.214l0.949-6.37h-0.585l-0.208-0.078l-0.078-0.208v-0.182l0.078-0.208l0.208-0.078h2.964
		c0.52,0,0.984,0.13,1.391,0.39c0.407,0.26,0.726,0.63,0.956,1.111c0.23,0.481,0.344,1.038,0.344,1.67v3.965l-0.078,0.208
		L189.379,231.246 M178.719,231.246h-0.221l-0.208-0.078l-0.078-0.208v-6.851l0.078-0.208l0.208-0.078h0.221l0.208,0.078
		l0.078,0.208v6.851l-0.078,0.208L178.719,231.246 M167.409,231.246h-0.221l-0.208-0.078l-0.078-0.208v-4.914
		c0-0.338,0.033-0.637,0.098-0.897c0.065-0.26,0.15-0.451,0.253-0.572h-3.783l-0.208-0.078l-0.078-0.208v-0.182l0.078-0.208
		l0.208-0.078h5.486l0.208,0.078l0.078,0.208v0.182l-0.078,0.208l-0.208,0.078h-0.832c-0.139,0.121-0.245,0.318-0.318,0.592
		c-0.074,0.273-0.11,0.587-0.11,0.943v4.849l-0.078,0.208L167.409,231.246 M151.861,231.246h-3.289l-0.208-0.078l-0.078-0.208
		v-0.182l0.078-0.208l0.208-0.078h2.782v-3.432c0-0.476-0.085-0.905-0.253-1.287c-0.169-0.381-0.403-0.676-0.702-0.884
		c-0.299-0.208-0.635-0.312-1.008-0.312h-1.508l-0.962,6.37l-0.11,0.214l-0.214,0.085h-0.234l-0.182-0.085l-0.052-0.214l0.949-6.37
		h-0.585l-0.208-0.078l-0.078-0.208v-0.182l0.078-0.208l0.208-0.078h2.964c0.52,0,0.984,0.13,1.391,0.39
		c0.407,0.26,0.726,0.63,0.956,1.111c0.23,0.481,0.344,1.038,0.344,1.67v3.965l-0.078,0.208L151.861,231.246 M135.988,231.246
		h-0.221l-0.208-0.078l-0.078-0.208v-3.9c0-1.655-0.828-2.483-2.483-2.483h-1.742v6.383l-0.078,0.208l-0.208,0.078h-0.221
		l-0.208-0.078l-0.078-0.208v-6.851l0.078-0.208l0.208-0.078h2.314c1.083,0,1.889,0.271,2.418,0.813
		c0.529,0.542,0.793,1.328,0.793,2.36v3.965l-0.078,0.208L135.988,231.246 M128.397,231.246h-3.224l-0.208-0.078l-0.078-0.208
		v-0.182l0.078-0.208l0.208-0.078h2.691l-0.247-3.562l-0.013-0.273c-0.035-0.52-0.078-0.914-0.13-1.183
		c-0.052-0.269-0.165-0.485-0.338-0.65c-0.173-0.165-0.438-0.247-0.793-0.247h-0.481l-0.208-0.078l-0.078-0.208v-0.182l0.078-0.208
		l0.208-0.078h0.481c0.58,0,1.012,0.126,1.293,0.377c0.282,0.251,0.468,0.576,0.559,0.975c0.091,0.399,0.163,0.962,0.215,1.69
		l0.273,4.095v0.039l-0.085,0.176L128.397,231.246 M122.963,231.246h-0.221l-0.208-0.078l-0.078-0.208v-3.9
		c0-1.655-0.828-2.483-2.483-2.483h-2.236l-0.208-0.078l-0.078-0.208v-0.182l0.078-0.208l0.208-0.078h2.301
		c1.083,0,1.889,0.271,2.418,0.813c0.529,0.542,0.793,1.328,0.793,2.36v3.965l-0.078,0.208L122.963,231.246 M117.958,231.246h-0.221
		l-0.208-0.078l-0.078-0.208v-4.563l0.078-0.208l0.208-0.078h0.221l0.208,0.078l0.078,0.208v4.563l-0.078,0.208L117.958,231.246
		 M108.858,231.246h-0.221l-0.208-0.078l-0.078-0.208v-6.851l0.078-0.208l0.208-0.078h0.221l0.208,0.078l0.078,0.208v6.851
		l-0.078,0.208L108.858,231.246 M106.102,231.246h-4.485l-0.208-0.078l-0.078-0.208v-0.182l0.078-0.208l0.208-0.078h3.705
		l-4.173-6.149c-0.069-0.104-0.104-0.191-0.104-0.26l0.084-0.182l0.188-0.078h0.234c0.13,0,0.238,0.07,0.325,0.208l2.496,3.627
		c0.849-0.321,1.274-1.083,1.274-2.288v-1.261l0.078-0.208l0.208-0.078h0.221l0.208,0.078l0.078,0.208v1.326
		c0,0.702-0.141,1.289-0.423,1.761c-0.282,0.473-0.695,0.821-1.242,1.047l1.469,2.145c0.095,0.139,0.143,0.269,0.143,0.39v0.182
		l-0.078,0.208L106.102,231.246 M99.316,231.246h-0.221l-0.208-0.078l-0.078-0.208v-3.9c0-1.655-0.828-2.483-2.483-2.483H94.74
		l-0.208-0.078l-0.078-0.208v-0.182l0.078-0.208l0.208-0.078h1.651c1.083,0,1.889,0.271,2.418,0.813
		c0.529,0.542,0.793,1.328,0.793,2.36v3.965l-0.078,0.208L99.316,231.246 M89.605,231.246H84.38l-0.208-0.078l-0.078-0.208v-6.851
		l0.078-0.208l0.208-0.078h2.301c1.083,0,1.889,0.271,2.418,0.813c0.529,0.542,0.793,1.328,0.793,2.36v3.965l-0.078,0.208
		L89.605,231.246 M84.874,224.577v5.915h4.225v-3.432c0-1.655-0.828-2.483-2.483-2.483H84.874 M78.491,231.246h-4.485l-0.208-0.078
		l-0.078-0.208v-0.182l0.078-0.208l0.208-0.078h3.705l-4.173-6.149c-0.07-0.104-0.104-0.191-0.104-0.26l0.085-0.182l0.188-0.078
		h0.234c0.13,0,0.238,0.07,0.325,0.208l2.496,3.627c0.849-0.321,1.274-1.083,1.274-2.288v-1.261l0.078-0.208l0.208-0.078h0.221
		l0.208,0.078l0.078,0.208v1.326c0,0.702-0.141,1.289-0.422,1.761c-0.282,0.473-0.696,0.821-1.242,1.047l1.469,2.145
		c0.095,0.139,0.143,0.269,0.143,0.39v0.182l-0.078,0.208L78.491,231.246 M71.627,231.246h-0.221l-0.208-0.078l-0.078-0.208v-6.851
		l0.078-0.208l0.208-0.078h0.221l0.208,0.078l0.078,0.208v6.851l-0.078,0.208L71.627,231.246 M68.728,231.246h-0.221l-0.208-0.078
		l-0.078-0.208v-3.9c0-1.655-0.828-2.483-2.483-2.483h-1.586l-0.208-0.078l-0.078-0.208v-0.182l0.078-0.208l0.208-0.078h1.651
		c1.083,0,1.889,0.271,2.418,0.813c0.529,0.542,0.793,1.328,0.793,2.36v3.965l-0.078,0.208L68.728,231.246 M61.708,231.246h-0.221
		l-0.208-0.078l-0.078-0.208v-6.851l0.078-0.208l0.208-0.078h0.221l0.208,0.078l0.078,0.208v6.851l-0.078,0.208L61.708,231.246
		 M58.809,231.246h-0.221l-0.208-0.078l-0.078-0.208v-3.9c0-1.655-0.828-2.483-2.483-2.483h-0.988
		c-0.087,0.624-0.149,1.127-0.188,1.508c-0.039,0.382-0.054,0.815-0.045,1.3v3.575l-0.078,0.208l-0.208,0.078l-1.482-0.026
		l-0.208-0.078l-0.078-0.208v-0.182l0.078-0.208l0.208-0.078l0.975,0.013v-3.029v-0.403c0-0.477,0.017-0.895,0.052-1.254
		c0.035-0.36,0.1-0.765,0.195-1.216h-0.663l-0.208-0.078l-0.078-0.208v-0.182l0.078-0.208l0.208-0.078h2.496
		c1.083,0,1.889,0.271,2.418,0.813c0.529,0.542,0.793,1.328,0.793,2.36v3.965l-0.078,0.208L58.809,231.246 M214.755,228.256h-0.221
		l-0.208-0.078l-0.078-0.208v-3.861l0.078-0.208l0.208-0.078h0.221l0.208,0.078l0.078,0.208v3.861l-0.078,0.208L214.755,228.256
		 M181.592,228.256h-0.221l-0.208-0.078l-0.078-0.208v-3.861l0.078-0.208l0.208-0.078h0.221l0.208,0.078l0.078,0.208v3.861
		l-0.078,0.208L181.592,228.256 M111.731,228.256h-0.221l-0.208-0.078l-0.078-0.208v-3.861l0.078-0.208l0.208-0.078h0.221
		l0.208,0.078l0.078,0.208v3.861l-0.078,0.208L111.731,228.256 M92.4,228.256h-0.221l-0.208-0.078l-0.078-0.208v-3.861l0.078-0.208
		l0.208-0.078H92.4l0.208,0.078l0.078,0.208v3.861l-0.078,0.208L92.4,228.256"/>
	<path fill="#000000" d="M280.318,253.946c-0.772,0-1.424-0.122-1.957-0.364c-0.533-0.243-0.932-0.548-1.196-0.916
		c-0.264-0.368-0.405-0.747-0.423-1.138l0.078-0.195l0.195-0.078h1.196c0.19,0,0.321,0.087,0.39,0.26
		c0.191,0.615,0.763,0.923,1.716,0.923c0.529,0,0.942-0.121,1.241-0.364c0.299-0.243,0.449-0.589,0.449-1.04
		c0-0.451-0.136-0.778-0.409-0.981c-0.273-0.203-0.674-0.306-1.202-0.306h-1.339l-0.221-0.091l-0.091-0.221v-0.559
		c0-0.165,0.056-0.295,0.169-0.39l2.314-2.262h-3.705c-0.096,0-0.173-0.03-0.234-0.091l-0.091-0.221v-0.871
		c0-0.095,0.03-0.173,0.091-0.234c0.06-0.061,0.138-0.091,0.234-0.091h5.59c0.095,0,0.173,0.03,0.234,0.091
		c0.061,0.061,0.091,0.139,0.091,0.234v0.793c0,0.148-0.056,0.269-0.169,0.364l-2.236,2.301l0.156,0.013
		c0.832,0.069,1.493,0.321,1.982,0.754c0.49,0.433,0.735,1.053,0.735,1.859c0,0.572-0.154,1.07-0.461,1.495
		c-0.308,0.425-0.732,0.752-1.274,0.981C281.628,253.831,281.011,253.946,280.318,253.946"/>
	<path fill="#000000" d="M125.174,256.299h-0.221l-0.208-0.078l-0.078-0.208v-7.046l0.078-0.208l0.208-0.078h0.221l0.208,0.078
		l0.078,0.208v7.046l-0.078,0.208L125.174,256.299 M102.58,254.557l-0.176-0.065l-0.071-0.156v-0.169c0-0.2,0.06-0.321,0.182-0.364
		l1.781-0.65l-1.729-6.24c-0.043-0.147-0.065-0.234-0.065-0.26l0.078-0.182l0.182-0.078h0.234l0.195,0.058l0.104,0.137l1.781,6.279
		l0.13-0.052c0.711-0.26,1.209-0.632,1.495-1.118c0.286-0.485,0.429-1.075,0.429-1.768v-3.25l0.078-0.208l0.208-0.078h0.221
		l0.208,0.078l0.078,0.208v3.51c0,0.728-0.234,1.404-0.702,2.028c-0.468,0.624-1.088,1.075-1.859,1.352l-2.665,0.962L102.58,254.557
		 M127.098,253.933c-0.139,0-0.208-0.069-0.208-0.208V253.4c0-0.147,0.091-0.255,0.273-0.325l0.533-0.208
		c0.667-0.26,1.176-0.619,1.528-1.079c0.351-0.459,0.527-1.144,0.527-2.054c0-0.65-0.078-1.161-0.234-1.534
		c-0.156-0.373-0.414-0.641-0.773-0.806c-0.36-0.165-0.852-0.247-1.475-0.247h-2.314l-0.208-0.078l-0.078-0.208v-0.182l0.078-0.208
		l0.208-0.078h2.379c0.806,0,1.441,0.11,1.904,0.331c0.464,0.221,0.797,0.579,1.001,1.073c0.204,0.494,0.306,1.17,0.306,2.028
		c0,1.118-0.253,1.972-0.76,2.561c-0.507,0.589-1.185,1.036-2.035,1.339l-0.546,0.195L127.098,253.933 M87.227,253.933
		c-0.139,0-0.208-0.069-0.208-0.208V253.4c0-0.147,0.091-0.255,0.273-0.325l0.533-0.208c0.667-0.26,1.176-0.619,1.527-1.079
		c0.351-0.459,0.527-1.144,0.527-2.054c0-0.65-0.078-1.161-0.234-1.534c-0.156-0.373-0.414-0.641-0.773-0.806
		c-0.36-0.165-0.852-0.247-1.476-0.247h-0.442h-0.039l-1.014-0.013l-0.208-0.071l-0.078-0.201v-1.989l0.078-0.208l0.208-0.078h0.221
		l0.208,0.078l0.078,0.208v1.521h1.053c0.806,0,1.441,0.11,1.905,0.331c0.464,0.221,0.797,0.579,1.001,1.073
		c0.203,0.494,0.305,1.17,0.305,2.028c0,1.118-0.253,1.972-0.76,2.561s-1.185,1.036-2.034,1.339l-0.546,0.195L87.227,253.933
		 M136.25,253.816h-0.221l-0.208-0.078l-0.078-0.208v-4.914c0-0.338,0.033-0.637,0.097-0.897c0.065-0.26,0.15-0.451,0.254-0.572
		h-3.783l-0.208-0.078l-0.078-0.208v-0.182l0.078-0.208l0.208-0.078h5.486l0.208,0.078l0.078,0.208v0.182l-0.078,0.208l-0.208,0.078
		h-0.832c-0.139,0.121-0.245,0.319-0.319,0.592c-0.074,0.273-0.11,0.587-0.11,0.942v4.849l-0.078,0.208L136.25,253.816
		 M122.197,253.816h-0.221l-0.208-0.078l-0.078-0.208v-6.851l0.078-0.208l0.208-0.078h0.221l0.208,0.078l0.078,0.208v6.851
		l-0.078,0.208L122.197,253.816 M119.298,253.816h-0.221l-0.208-0.078l-0.078-0.208v-3.9c0-1.655-0.828-2.483-2.483-2.483h-0.988
		c-0.087,0.624-0.149,1.127-0.188,1.508c-0.039,0.382-0.054,0.815-0.045,1.3v3.575l-0.078,0.208l-0.208,0.078l-1.482-0.026
		l-0.208-0.078l-0.078-0.208v-0.182l0.078-0.208l0.208-0.078l0.975,0.013v-3.029v-0.403c0-0.476,0.017-0.895,0.052-1.254
		c0.035-0.359,0.1-0.765,0.195-1.215h-0.663l-0.208-0.078l-0.078-0.208v-0.182l0.078-0.208l0.208-0.078h2.496
		c1.083,0,1.889,0.271,2.418,0.813c0.529,0.542,0.793,1.328,0.793,2.36v3.965l-0.078,0.208L119.298,253.816 M99.226,253.816h-0.221
		l-0.208-0.078l-0.078-0.208v-4.914c0-0.338,0.033-0.637,0.098-0.897c0.065-0.26,0.149-0.451,0.253-0.572h-3.783l-0.208-0.078
		l-0.078-0.208v-0.182l0.078-0.208l0.208-0.078h5.486l0.208,0.078l0.078,0.208v0.182l-0.078,0.208l-0.208,0.078h-0.832
		c-0.139,0.121-0.245,0.319-0.318,0.592c-0.074,0.273-0.11,0.587-0.11,0.942v4.849l-0.078,0.208L99.226,253.816 M83.678,253.816
		h-0.221l-0.208-0.078l-0.078-0.208v-3.9c0-1.655-0.828-2.483-2.483-2.483h-2.236l-0.208-0.078l-0.078-0.208v-0.182l0.078-0.208
		l0.208-0.078h2.301c1.083,0,1.889,0.271,2.418,0.813c0.529,0.542,0.793,1.328,0.793,2.36v3.965l-0.078,0.208L83.678,253.816
		 M78.673,253.816h-0.221l-0.208-0.078l-0.078-0.208v-4.563l0.078-0.208l0.208-0.078h0.221l0.208,0.078l0.078,0.208v4.563
		l-0.078,0.208L78.673,253.816 M74.461,253.816H74.24l-0.208-0.078l-0.078-0.208v-4.914c0-0.338,0.033-0.637,0.098-0.897
		c0.065-0.26,0.15-0.451,0.253-0.572h-1.183l-0.208-0.078l-0.078-0.208v-0.182l0.078-0.208l0.208-0.078h2.886l0.208,0.078
		l0.078,0.208v0.182l-0.078,0.208l-0.208,0.078h-0.832c-0.139,0.121-0.245,0.319-0.318,0.592c-0.074,0.273-0.11,0.587-0.11,0.942
		v4.849l-0.078,0.208L74.461,253.816 M71.068,253.816h-0.221l-0.208-0.078l-0.078-0.208v-3.9c0-1.655-0.828-2.483-2.483-2.483
		h-2.236l-0.208-0.078l-0.078-0.208v-0.182l0.078-0.208l0.208-0.078h2.301c1.083,0,1.889,0.271,2.418,0.813
		c0.529,0.542,0.793,1.328,0.793,2.36v3.965l-0.078,0.208L71.068,253.816 M66.063,253.816h-0.221l-0.208-0.078l-0.078-0.208v-4.563
		l0.078-0.208l0.208-0.078h0.221l0.208,0.078l0.078,0.208v4.563l-0.078,0.208L66.063,253.816 M63.788,253.816h-5.2l-0.208-0.078
		l-0.078-0.208v-0.182l0.078-0.208l0.208-0.078h3.913v-3.432c0-1.655-0.828-2.483-2.483-2.483h-1.3l-0.208-0.078l-0.078-0.208
		v-0.182l0.078-0.208l0.208-0.078h1.365c1.083,0,1.889,0.273,2.418,0.819c0.529,0.546,0.793,1.33,0.793,2.353v3.497h0.494
		l0.208,0.078l0.078,0.208v0.182l-0.078,0.208L63.788,253.816 M56.249,253.816h-0.221l-0.208-0.078l-0.078-0.208v-3.9
		c0-1.655-0.828-2.483-2.483-2.483h-2.236l-0.208-0.078l-0.078-0.208v-0.182l0.078-0.208l0.208-0.078h2.301
		c1.083,0,1.889,0.271,2.418,0.813c0.529,0.542,0.793,1.328,0.793,2.36v3.965l-0.078,0.208L56.249,253.816 M51.244,253.816h-0.221
		l-0.208-0.078l-0.078-0.208v-4.563l0.078-0.208l0.208-0.078h0.221l0.208,0.078l0.078,0.208v4.563l-0.078,0.208L51.244,253.816"/>
	<path fill="#000000" d="M174.118,253.946c-1.092,0-1.879-0.329-2.36-0.988c-0.481-0.659-0.735-1.525-0.76-2.6l-0.013-1.079
		l0.013-1.105c0.026-1.075,0.279-1.941,0.76-2.6c0.481-0.658,1.268-0.988,2.36-0.988s1.878,0.329,2.36,0.988
		c0.481,0.659,0.735,1.525,0.76,2.6c0.009,0.243,0.013,0.611,0.013,1.105c0,0.485-0.004,0.845-0.013,1.079
		c-0.026,1.075-0.28,1.942-0.76,2.6C175.997,253.616,175.21,253.946,174.118,253.946 M174.118,245.366
		c-0.745,0-1.311,0.253-1.696,0.76c-0.386,0.507-0.587,1.211-0.604,2.112l-0.013,1.014l0.013,1.04
		c0.017,0.919,0.219,1.627,0.604,2.125c0.386,0.499,0.951,0.748,1.696,0.748c0.745,0,1.311-0.249,1.696-0.748
		c0.386-0.498,0.587-1.207,0.604-2.125c0.009-0.251,0.013-0.598,0.013-1.04c0-0.442-0.005-0.78-0.013-1.014
		c-0.017-0.901-0.219-1.605-0.604-2.112C175.429,245.619,174.864,245.366,174.118,245.366 M152.707,253.946
		c-0.607,0-1.133-0.115-1.579-0.345c-0.447-0.23-0.789-0.527-1.027-0.891c-0.238-0.364-0.366-0.754-0.383-1.17v-0.026l0.072-0.163
		l0.188-0.058h0.247l0.208,0.058c0.052,0.039,0.091,0.119,0.117,0.241c0.13,0.529,0.394,0.923,0.793,1.183
		c0.399,0.26,0.854,0.39,1.365,0.39c0.667,0,1.22-0.199,1.658-0.598c0.438-0.398,0.657-0.953,0.657-1.664
		c0-0.433-0.102-0.81-0.306-1.131c-0.204-0.321-0.483-0.568-0.838-0.741c-0.355-0.173-0.745-0.26-1.17-0.26
		c-0.347,0-0.626,0.045-0.838,0.136c-0.212,0.091-0.427,0.215-0.643,0.371c-0.13,0.095-0.236,0.165-0.318,0.208
		c-0.083,0.043-0.171,0.065-0.267,0.065h-0.234l-0.208-0.085l-0.078-0.201l0.39-4.251c0.009-0.095,0.037-0.169,0.085-0.221
		l0.202-0.078h4.238l0.208,0.078l0.078,0.208v0.208l-0.078,0.208l-0.208,0.078h-3.731l-0.273,2.938
		c0.459-0.295,1.018-0.442,1.677-0.442c0.589,0,1.12,0.113,1.593,0.338c0.472,0.226,0.847,0.557,1.125,0.995
		c0.277,0.438,0.416,0.964,0.416,1.58c0,0.65-0.139,1.205-0.416,1.664c-0.278,0.459-0.652,0.804-1.125,1.033
		C153.827,253.831,153.297,253.946,152.707,253.946 M169.126,253.816h-5.33l-0.208-0.078l-0.078-0.208v-0.195
		c0-0.173,0.108-0.355,0.325-0.546l3.367-3.367c0.476-0.442,0.797-0.815,0.962-1.118c0.165-0.303,0.247-0.663,0.247-1.079
		c0-0.581-0.167-1.035-0.501-1.365c-0.334-0.329-0.808-0.494-1.423-0.494c-0.581,0-1.044,0.169-1.391,0.507
		c-0.347,0.338-0.555,0.793-0.624,1.365c-0.009,0.096-0.045,0.169-0.111,0.221l-0.188,0.078h-0.26l-0.201-0.071l-0.071-0.176
		c0.017-0.425,0.13-0.845,0.338-1.261s0.524-0.76,0.949-1.033c0.424-0.273,0.945-0.409,1.56-0.409c0.927,0,1.616,0.251,2.067,0.754
		c0.451,0.503,0.676,1.131,0.676,1.885c0,0.52-0.113,0.988-0.338,1.404c-0.226,0.416-0.585,0.854-1.079,1.313l-3.042,3.094h4.355
		c0.095,0,0.169,0.026,0.221,0.078c0.052,0.052,0.078,0.126,0.078,0.221v0.195l-0.085,0.208L169.126,253.816 M148.08,253.816h-5.33
		l-0.208-0.078l-0.078-0.208v-0.195c0-0.173,0.108-0.355,0.325-0.546l3.367-3.367c0.477-0.442,0.797-0.815,0.962-1.118
		c0.165-0.303,0.247-0.663,0.247-1.079c0-0.581-0.167-1.035-0.5-1.365c-0.334-0.329-0.808-0.494-1.424-0.494
		c-0.581,0-1.044,0.169-1.391,0.507c-0.347,0.338-0.555,0.793-0.624,1.365c-0.009,0.096-0.045,0.169-0.111,0.221l-0.188,0.078h-0.26
		l-0.201-0.071l-0.072-0.176c0.017-0.425,0.13-0.845,0.338-1.261c0.208-0.416,0.524-0.76,0.949-1.033
		c0.425-0.273,0.945-0.409,1.56-0.409c0.927,0,1.616,0.251,2.067,0.754c0.451,0.503,0.676,1.131,0.676,1.885
		c0,0.52-0.113,0.988-0.338,1.404c-0.225,0.416-0.585,0.854-1.079,1.313l-3.042,3.094h4.355c0.095,0,0.169,0.026,0.221,0.078
		c0.052,0.052,0.078,0.126,0.078,0.221v0.195l-0.085,0.208L148.08,253.816 M161.586,250.293h-3.835l-0.208-0.078l-0.078-0.208
		v-0.182l0.078-0.208l0.208-0.078h3.835l0.208,0.078l0.078,0.208v0.182l-0.078,0.208L161.586,250.293"/>
	<path fill="#000000" d="M266.469,253.816h-0.247l-0.175-0.046l-0.15-0.149l-3.211-4.472c-0.425,0.304-0.713,0.654-0.865,1.053
		c-0.152,0.399-0.228,0.841-0.228,1.326v2.002l-0.078,0.208l-0.208,0.078h-0.221l-0.208-0.078l-0.078-0.208v-2.067
		c0-0.615,0.098-1.164,0.293-1.645c0.195-0.481,0.578-0.908,1.15-1.281l-1.157-1.625c-0.069-0.104-0.104-0.19-0.104-0.26
		l0.078-0.182l0.182-0.078h0.247c0.121,0,0.23,0.065,0.325,0.195l2.938,4.095c0.364-0.199,0.628-0.405,0.793-0.618
		c0.165-0.212,0.266-0.427,0.306-0.643c0.039-0.217,0.058-0.507,0.058-0.871v-1.872l0.078-0.208l0.208-0.078h0.221l0.208,0.078
		l0.078,0.208v1.937c0,0.399-0.035,0.743-0.104,1.033c-0.069,0.291-0.215,0.572-0.436,0.845c-0.221,0.273-0.548,0.535-0.981,0.787
		l1.443,2.015c0.069,0.104,0.104,0.191,0.104,0.26l-0.078,0.182L266.469,253.816 M258.695,253.816h-0.221l-0.208-0.078l-0.078-0.208
		v-6.851l0.078-0.208l0.208-0.078h0.221l0.208,0.078l0.078,0.208v6.851l-0.078,0.208L258.695,253.816 M253.508,253.816h-2.158
		l-0.208-0.078l-0.078-0.208v-0.182l0.078-0.208l0.208-0.078h2.093c0.659,0,1.159-0.215,1.501-0.644
		c0.342-0.429,0.531-1.042,0.566-1.839c0.009-0.087,0.013-0.247,0.013-0.481c0-0.225-0.004-0.381-0.013-0.468
		c-0.018-0.789-0.201-1.4-0.552-1.833c-0.351-0.433-0.856-0.65-1.515-0.65h-1.768v1.235c0,0.407,0.043,0.726,0.13,0.956
		c0.087,0.23,0.238,0.371,0.455,0.422l0.533,0.13c0.147,0.043,0.221,0.182,0.221,0.416v0.182l-0.085,0.156l-0.215,0.052
		l-0.104-0.013l-0.494-0.117c-0.416-0.095-0.724-0.32-0.923-0.676c-0.199-0.355-0.299-0.858-0.299-1.508v-1.703l0.078-0.208
		l0.208-0.078h2.327c0.893,0,1.575,0.275,2.047,0.825c0.472,0.55,0.722,1.332,0.747,2.347c0.009,0.087,0.013,0.264,0.013,0.533
		c0,0.277-0.004,0.459-0.013,0.546c-0.026,1.014-0.275,1.796-0.747,2.347C255.083,253.541,254.401,253.816,253.508,253.816
		 M245.708,253.816h-5.226l-0.208-0.078l-0.078-0.208v-6.851l0.078-0.208l0.208-0.078h2.301c1.083,0,1.889,0.271,2.418,0.813
		c0.529,0.542,0.793,1.328,0.793,2.36v3.965l-0.078,0.208L245.708,253.816 M240.976,247.147v5.915h4.225v-3.432
		c0-1.655-0.828-2.483-2.483-2.483H240.976 M235.295,253.816h-5.2l-0.208-0.078l-0.078-0.208v-0.182l0.078-0.208l0.208-0.078h3.913
		v-3.432c0-1.655-0.828-2.483-2.483-2.483h-1.3l-0.208-0.078l-0.078-0.208v-0.182l0.078-0.208l0.208-0.078h1.365
		c1.083,0,1.889,0.273,2.418,0.819c0.529,0.546,0.793,1.33,0.793,2.353v3.497h0.494l0.208,0.078l0.078,0.208v0.182l-0.078,0.208
		L235.295,253.816 M227.755,253.816h-0.221l-0.208-0.078l-0.078-0.208v-3.9c0-1.655-0.828-2.483-2.483-2.483h-1.742v6.383
		l-0.078,0.208l-0.208,0.078h-0.221l-0.208-0.078l-0.078-0.208v-6.851l0.078-0.208l0.208-0.078h2.314
		c1.083,0,1.889,0.271,2.418,0.813c0.529,0.542,0.793,1.328,0.793,2.36v3.965l-0.078,0.208L227.755,253.816 M219.761,253.816h-0.221
		l-0.208-0.078l-0.078-0.208v-6.851l0.078-0.208l0.208-0.078h0.221l0.208,0.078l0.078,0.208v6.851l-0.078,0.208L219.761,253.816
		 M216.862,253.816h-5.226l-0.208-0.078l-0.078-0.208v-6.851l0.078-0.208l0.208-0.078h2.301c1.083,0,1.889,0.271,2.418,0.813
		c0.529,0.542,0.793,1.328,0.793,2.36v3.965l-0.078,0.208L216.862,253.816 M212.13,247.147v5.915h4.225v-3.432
		c0-1.655-0.828-2.483-2.483-2.483H212.13 M206.449,253.816h-5.2l-0.208-0.078l-0.078-0.208v-0.182l0.078-0.208l0.208-0.078h3.913
		v-3.432c0-1.655-0.828-2.483-2.483-2.483h-1.3l-0.208-0.078l-0.078-0.208v-0.182l0.078-0.208l0.208-0.078h1.365
		c1.083,0,1.889,0.273,2.418,0.819c0.529,0.546,0.793,1.33,0.793,2.353v3.497h0.494l0.208,0.078l0.078,0.208v0.182l-0.078,0.208
		L206.449,253.816 M196.465,253.816h-3.224l-0.208-0.078l-0.078-0.208v-0.182l0.078-0.208l0.208-0.078h2.691l-0.247-3.562
		l-0.013-0.273c-0.035-0.52-0.078-0.914-0.13-1.183c-0.052-0.268-0.165-0.485-0.338-0.65c-0.173-0.165-0.438-0.247-0.793-0.247
		h-0.481l-0.208-0.078l-0.078-0.208v-0.182l0.078-0.208l0.208-0.078h0.481c0.581,0,1.012,0.126,1.294,0.377
		c0.281,0.251,0.468,0.577,0.559,0.975c0.091,0.399,0.163,0.962,0.215,1.69l0.273,4.095v0.039l-0.085,0.176L196.465,253.816
		 M190.953,253.816h-0.221l-0.208-0.078l-0.078-0.208v-6.851l0.078-0.208l0.208-0.078h0.221l0.208,0.078l0.078,0.208v6.851
		l-0.078,0.208L190.953,253.816 M188.379,253.816h-3.224l-0.208-0.078l-0.078-0.208v-0.182l0.078-0.208l0.208-0.078h2.691
		l-0.247-3.562l-0.013-0.273c-0.035-0.52-0.078-0.914-0.13-1.183c-0.052-0.268-0.165-0.485-0.338-0.65
		c-0.174-0.165-0.438-0.247-0.793-0.247h-0.481l-0.208-0.078l-0.078-0.208v-0.182l0.078-0.208l0.208-0.078h0.481
		c0.581,0,1.012,0.126,1.294,0.377c0.281,0.251,0.468,0.577,0.559,0.975c0.091,0.399,0.162,0.962,0.214,1.69l0.273,4.095v0.039
		l-0.085,0.176L188.379,253.816 M248.503,250.826h-0.221l-0.208-0.078l-0.078-0.208v-3.861l0.078-0.208l0.208-0.078h0.221
		l0.208,0.078l0.078,0.208v3.861l-0.078,0.208L248.503,250.826 M198.935,250.826h-0.221l-0.208-0.078l-0.078-0.208v-3.861
		l0.078-0.208l0.208-0.078h0.221l0.208,0.078l0.078,0.208v3.861l-0.078,0.208L198.935,250.826 M182.971,250.826h-0.221l-0.208-0.078
		l-0.078-0.208v-3.861l0.078-0.208l0.208-0.078h0.221l0.208,0.078l0.078,0.208v3.861l-0.078,0.208L182.971,250.826"/>
</g>
</svg>
