<!-- Generator: Adobe InDesign 14.0 SVG Export Plug-in, SVG Library version: 6.0 build 234 -->
<!DOCTYPE svg PUBLIC "-//W3C//DTD SVG 1.1//EN" "http://www.w3.org/Graphics/SVG/1.1/DTD/svg11.dtd">
<svg version="1.1" xmlns="http://www.w3.org/2000/svg" xmlns:xlink="http://www.w3.org/1999/xlink" x="0%" y="0%" width="100%"
	 height="100%" viewBox="0 0 299.385 534.346" preserveAspectRatio="xMidYMid slice" overflow="visible" xml:space="preserve">
<clipPath id="clp_unq_id_1" fill="none">
	<path shape-rendering="crispEdges" stroke="#000000" d="M0,0h299.385v534.346H0V0"/>
</clipPath>
<g clip-path="url(#clp_unq_id_1)" fill="none">
	<path fill="#71A850" d="M182.85,12.016v-3.72h-2.328v5.688h7.224l-4.488,11.52h2.568l4.488-11.352v-2.136H182.85z M205.77,15.712
		l-0.024-3.696h-2.568l0.048,3.816c0.016,2.432-0.548,4.288-1.692,5.568c-1.144,1.28-2.924,2-5.34,2.16l-0.384-3.264
		c1.632-0.656,2.784-1.516,3.456-2.58c0.672-1.064,1.024-2.476,1.056-4.236l0.024-1.44h-2.448v1.488
		c-0.032,1.408-0.208,2.464-0.528,3.168c-0.32,0.704-0.92,1.272-1.8,1.704l-0.768-6.384h-2.448l1.752,13.728
		c3.968,0.032,6.912-0.788,8.832-2.46C204.858,21.612,205.802,19.088,205.77,15.712z M208.602,25.504h2.568v-10.68l-0.312-2.808
		h-2.544l0.288,2.808V25.504z M223.002,23.536v-7.032c0-1.552-0.36-2.688-1.08-3.408c-0.72-0.72-1.72-1.08-3-1.08h-5.16v1.968h4.512
		c0.704,0,1.24,0.188,1.608,0.564c0.368,0.376,0.552,0.988,0.552,1.836v7.152h-6.672v1.968h6.672h4.224v-1.968H223.002z
		 M239.322,18.712c0-2.368-0.448-4.108-1.344-5.22c-0.896-1.112-2.144-1.668-3.744-1.668c-0.88,0-1.664,0.252-2.352,0.756
		c-0.688,0.504-1.2,1.26-1.536,2.268l-1.08-2.832h-2.664l1.872,4.2l-1.728,9.288h2.568l1.608-9.192
		c0.16-0.736,0.484-1.324,0.972-1.764c0.488-0.44,1.116-0.66,1.884-0.66c0.992,0,1.756,0.38,2.292,1.14
		c0.536,0.76,0.804,2.012,0.804,3.756c0,1.632-0.28,2.872-0.84,3.72c-0.56,0.848-1.448,1.272-2.664,1.272
		c-0.432,0-0.952-0.064-1.56-0.192l-0.264,1.968c0.704,0.16,1.392,0.24,2.064,0.24c1.824,0,3.232-0.62,4.224-1.86
		C238.826,22.692,239.322,20.952,239.322,18.712z"/>
	<path fill="#71A850" d="M250.985,25.528c2-0.064,3.528-0.744,4.584-2.04c1.056-1.296,1.64-3.12,1.752-5.472l0.336-4.272
		l0.096-1.728h-11.256v1.968h8.496l-0.36,4.632c-0.08,1.216-0.284,2.172-0.612,2.868c-0.328,0.696-0.76,1.192-1.296,1.488
		c-0.536,0.296-1.196,0.484-1.98,0.564L250.985,25.528z M246.449,30.304h2.568v-13.2h-2.208l-0.36,1.632V30.304z M262.049,12.016
		v-3.72h-2.328v5.688h7.224l-4.488,11.52h2.568l4.488-11.352v-2.136H262.049z M283.265,17.704l-0.024-0.768
		c-0.048-1.52-0.484-2.72-1.308-3.6c-0.824-0.88-1.98-1.32-3.468-1.32h-6.912l0.24,1.968l1.392,11.76
		c3.232-0.112,5.744-0.788,7.536-2.028C282.513,22.476,283.361,20.472,283.265,17.704z M275.441,23.416l-1.08-9.432h3.912
		c0.768,0,1.368,0.28,1.8,0.84c0.432,0.56,0.648,1.288,0.648,2.184v0.648c0.064,1.936-0.352,3.34-1.248,4.212
		C278.577,22.74,277.232,23.256,275.441,23.416z"/>
	<path fill="#000000" d="M283.23,56.577h-0.546l-0.214-0.085l-0.085-0.215v-3.887c0-1.491-0.745-2.236-2.236-2.236h-1.586v6.123
		l-0.084,0.215l-0.215,0.085h-0.546l-0.214-0.085l-0.085-0.215v-6.825c0-0.095,0.028-0.169,0.085-0.221l0.214-0.078h2.496
		c1.118,0,1.95,0.266,2.496,0.8c0.546,0.533,0.819,1.332,0.819,2.398v3.926l-0.084,0.215L283.23,56.577 M275.105,56.577h-0.572
		l-0.214-0.085l-0.085-0.215v-6.825c0-0.095,0.028-0.169,0.085-0.221l0.214-0.078h0.572l0.215,0.085l0.084,0.214v6.825l-0.084,0.215
		L275.105,56.577 M271.985,56.577h-3.354l-0.208-0.085l-0.078-0.215v-0.416l0.078-0.214l0.208-0.085h2.509v-3.159
		c0-0.659-0.167-1.194-0.5-1.605c-0.334-0.412-0.756-0.618-1.267-0.618h-1.378l-1.001,6.084l-0.111,0.221l-0.214,0.091h-0.546
		l-0.201-0.091l-0.059-0.221l1.04-6.084h-0.663l-0.214-0.084l-0.085-0.215v-0.429l0.085-0.214l0.214-0.085h3.263
		c0.537,0,1.016,0.128,1.437,0.384c0.42,0.256,0.749,0.622,0.988,1.099c0.238,0.477,0.358,1.04,0.358,1.69v3.952l-0.085,0.215
		L271.985,56.577 M263.912,56.577h-0.546l-0.214-0.085l-0.085-0.215v-3.887c0-1.491-0.746-2.236-2.236-2.236h-1.677l-0.215-0.078
		l-0.084-0.208v-0.416l0.084-0.214l0.215-0.085h1.755c2.201,0,3.302,1.057,3.302,3.172v3.952l-0.084,0.215L263.912,56.577
		 M253.902,56.577h-5.447l-0.214-0.085l-0.085-0.215v-6.825c0-0.095,0.028-0.169,0.085-0.221l0.214-0.078h2.457
		c1.109,0,1.935,0.264,2.476,0.793c0.542,0.529,0.813,1.322,0.813,2.379v3.952l-0.084,0.215L253.902,56.577 M249.235,50.155v5.408
		h3.848v-3.172c0-1.491-0.745-2.236-2.236-2.236H249.235 M245.921,56.577h-0.897l-0.208-0.085l-0.078-0.215v-0.871
		c0-0.095,0.026-0.171,0.078-0.228l0.208-0.084h0.897c0.095,0,0.171,0.028,0.227,0.084c0.056,0.057,0.085,0.132,0.085,0.228v0.871
		l-0.091,0.215L245.921,56.577 M256.931,53.561h-0.572l-0.215-0.085l-0.084-0.214v-3.809c0-0.095,0.028-0.169,0.084-0.221
		l0.215-0.078h0.572l0.214,0.085l0.085,0.214v3.809l-0.085,0.214L256.931,53.561 M245.921,52.027h-0.897l-0.208-0.084l-0.078-0.215
		v-0.871c0-0.095,0.026-0.171,0.078-0.228l0.208-0.084h0.897c0.095,0,0.171,0.028,0.227,0.084c0.056,0.056,0.085,0.132,0.085,0.228
		v0.871l-0.091,0.215L245.921,52.027"/>
	<path fill="#000000" d="M237.899,75.96h-0.533l-0.215-0.078c-0.056-0.052-0.084-0.126-0.084-0.221V68.81l0.084-0.215l0.215-0.084
		h0.533l0.215,0.084l0.085,0.215v6.851l-0.085,0.215L237.899,75.96 M255.098,73.607c-1.066,0-1.866-0.279-2.399-0.838
		c-0.533-0.559-0.799-1.363-0.799-2.411v-4.004c0-0.095,0.028-0.169,0.084-0.221l0.215-0.078h3.12c1.118,0,1.919,0.251,2.405,0.754
		c0.485,0.503,0.75,1.274,0.793,2.314c0.009,0.087,0.013,0.321,0.013,0.702c0,0.382-0.004,0.615-0.013,0.702
		c-0.026,1.031-0.308,1.803-0.845,2.314C257.135,73.352,256.277,73.607,255.098,73.607 M252.992,67.055v3.302
		c0,0.719,0.176,1.27,0.527,1.651c0.351,0.382,0.873,0.572,1.566,0.572c0.815,0,1.4-0.171,1.755-0.514
		c0.355-0.342,0.542-0.878,0.559-1.605c0.009-0.087,0.013-0.299,0.013-0.637c0-0.338-0.004-0.55-0.013-0.637
		c-0.017-0.693-0.215-1.222-0.592-1.586s-0.895-0.546-1.553-0.546H252.992 M246.674,73.607l-0.162-0.065l-0.072-0.182v-0.572
		c0-0.156,0.095-0.273,0.286-0.351l0.507-0.195c0.598-0.225,1.057-0.55,1.378-0.975c0.321-0.425,0.481-1.049,0.481-1.872
		c0-0.581-0.07-1.038-0.208-1.372c-0.139-0.333-0.366-0.574-0.683-0.721c-0.316-0.147-0.752-0.221-1.306-0.221h-0.403h-0.039
		l-1.196-0.013l-0.214-0.078l-0.085-0.208v-2.236l0.085-0.215l0.214-0.084h0.52l0.208,0.084l0.078,0.215v1.508h1.001
		c0.789,0,1.415,0.113,1.879,0.338c0.464,0.225,0.8,0.585,1.008,1.079c0.208,0.494,0.312,1.153,0.312,1.976
		c0,1.109-0.273,1.974-0.819,2.593c-0.546,0.62-1.257,1.077-2.132,1.372l-0.546,0.182L246.674,73.607 M239.745,73.607l-0.163-0.065
		l-0.072-0.182v-0.572c0-0.156,0.095-0.273,0.286-0.351l0.507-0.195c0.598-0.225,1.057-0.55,1.378-0.975
		c0.321-0.425,0.481-1.049,0.481-1.872c0-0.581-0.07-1.038-0.208-1.372c-0.139-0.333-0.366-0.574-0.682-0.721
		c-0.316-0.147-0.752-0.221-1.307-0.221h-2.6l-0.215-0.085l-0.084-0.215V66.34l0.084-0.208l0.215-0.078h2.756
		c0.797,0,1.428,0.113,1.891,0.338c0.464,0.225,0.8,0.585,1.008,1.079s0.312,1.153,0.312,1.976c0,1.109-0.273,1.974-0.819,2.593
		c-0.546,0.62-1.257,1.077-2.132,1.372l-0.546,0.182L239.745,73.607 M231.815,73.477h-5.447l-0.214-0.085l-0.085-0.215v-6.825
		c0-0.095,0.028-0.169,0.085-0.221l0.214-0.078h2.457c1.109,0,1.935,0.264,2.476,0.793c0.541,0.529,0.813,1.322,0.813,2.379v3.952
		l-0.085,0.215L231.815,73.477 M227.148,67.055v5.408h3.848v-3.172c0-1.491-0.745-2.236-2.236-2.236H227.148 M234.844,70.461h-0.572
		l-0.215-0.085l-0.085-0.214v-3.809c0-0.095,0.028-0.169,0.085-0.221l0.215-0.078h0.572l0.214,0.085l0.085,0.214v3.809l-0.085,0.214
		L234.844,70.461"/>
	<path fill="#000000" d="M266.226,73.607c-0.65,0-1.213-0.117-1.69-0.351c-0.477-0.234-0.841-0.54-1.092-0.917
		c-0.251-0.377-0.386-0.782-0.403-1.215v-0.026l0.078-0.169l0.182-0.065h0.637c0.182,0,0.299,0.096,0.351,0.286
		c0.13,0.468,0.371,0.817,0.722,1.046c0.351,0.23,0.756,0.344,1.215,0.344c0.589,0,1.079-0.18,1.469-0.539
		c0.39-0.359,0.585-0.856,0.585-1.488c0-0.581-0.195-1.042-0.585-1.385c-0.39-0.342-0.88-0.514-1.469-0.514
		c-0.312,0-0.563,0.039-0.754,0.117c-0.191,0.078-0.386,0.191-0.585,0.338c-0.113,0.087-0.206,0.149-0.28,0.188l-0.241,0.058h-0.624
		l-0.208-0.085l-0.078-0.201l0.403-4.329c0.026-0.217,0.134-0.325,0.325-0.325h4.498c0.095,0,0.169,0.026,0.221,0.078
		c0.052,0.052,0.078,0.126,0.078,0.221v0.481l-0.084,0.208l-0.215,0.078h-3.744l-0.234,2.613c0.416-0.295,0.975-0.442,1.677-0.442
		c0.58,0,1.109,0.115,1.586,0.344c0.476,0.23,0.856,0.566,1.137,1.008c0.282,0.442,0.423,0.966,0.423,1.573
		c0,0.642-0.141,1.194-0.423,1.658c-0.282,0.464-0.672,0.815-1.17,1.053C267.437,73.488,266.867,73.607,266.226,73.607
		 M282.255,73.477h-0.598l-0.215-0.085l-0.085-0.215V71.28h-4.225l-0.215-0.085l-0.084-0.215V70.5c0-0.121,0.047-0.251,0.143-0.39
		l3.913-5.512l0.195-0.163c0.087-0.039,0.182-0.059,0.286-0.059h0.884c0.095,0,0.169,0.026,0.221,0.078
		c0.052,0.052,0.078,0.126,0.078,0.221v5.512h1.183l0.215,0.085l0.084,0.215v0.494l-0.084,0.215l-0.215,0.085h-1.183v1.898
		l-0.084,0.215L282.255,73.477 M281.371,65.69l-3.185,4.524h3.185V65.69 M275.235,70.097h-3.9l-0.215-0.078l-0.084-0.208v-0.468
		l0.084-0.214l0.215-0.085h3.9l0.214,0.085l0.085,0.214v0.468l-0.085,0.208L275.235,70.097"/>
	<path fill="#000000" d="M263.353,91.989h-0.598c-0.148,0-0.256-0.069-0.325-0.208l-3.276-8.32c-0.043-0.147-0.065-0.23-0.065-0.247
		l0.078-0.182l0.182-0.078h0.572c0.165,0,0.286,0.104,0.364,0.312l1.404,3.536c1.231-0.138,1.846-0.893,1.846-2.262v-1.287
		l0.084-0.214l0.215-0.085h0.507l0.215,0.085l0.084,0.214v1.365c0,0.884-0.223,1.601-0.67,2.151
		c-0.446,0.551-1.077,0.899-1.891,1.047l1.456,3.666c0.052,0.13,0.078,0.212,0.078,0.247l-0.078,0.182L263.353,91.989
		 M283.23,90.377h-0.546l-0.214-0.085l-0.085-0.214v-3.887c0-1.491-0.745-2.236-2.236-2.236h-1.586v6.123l-0.084,0.214l-0.215,0.085
		h-0.546l-0.214-0.085l-0.085-0.214v-6.825c0-0.095,0.028-0.169,0.085-0.221l0.214-0.078h2.496c1.118,0,1.95,0.266,2.496,0.8
		c0.546,0.533,0.819,1.332,0.819,2.398v3.926l-0.084,0.214L283.23,90.377 M275.105,90.377h-0.572l-0.214-0.085l-0.085-0.214v-6.825
		c0-0.095,0.028-0.169,0.085-0.221l0.214-0.078h0.572l0.215,0.085l0.084,0.214v6.825l-0.084,0.214L275.105,90.377 M271.985,90.377
		h-3.354l-0.208-0.085l-0.078-0.214v-0.416l0.078-0.215l0.208-0.085h2.509v-3.159c0-0.659-0.167-1.194-0.5-1.605
		c-0.334-0.412-0.756-0.617-1.267-0.617h-1.378l-1.001,6.084l-0.111,0.221l-0.214,0.091h-0.546l-0.201-0.091l-0.059-0.221
		l1.04-6.084h-0.663l-0.214-0.085l-0.085-0.215v-0.429l0.085-0.214l0.214-0.085h3.263c0.537,0,1.016,0.128,1.437,0.384
		c0.42,0.256,0.749,0.622,0.988,1.099c0.238,0.477,0.358,1.04,0.358,1.69v3.952l-0.085,0.214L271.985,90.377"/>
	<path fill="#000000" d="M265.888,108.889h-0.546l-0.214-0.078c-0.056-0.052-0.085-0.126-0.085-0.221v-8.437
		c0-0.095,0.028-0.169,0.085-0.221l0.214-0.078h0.546l0.215,0.085l0.084,0.214v8.437l-0.084,0.215L265.888,108.889 M280.201,107.357
		c-0.039,0-0.078,0-0.118-0.001h-0.962c-0.563,0-1.07-0.13-1.521-0.39c-0.451-0.26-0.804-0.626-1.06-1.099
		c-0.256-0.472-0.384-1.016-0.384-1.631v-4.082c0-0.095,0.028-0.169,0.085-0.221l0.215-0.078h0.507l0.214,0.085l0.085,0.214
		l0.039,3.692c0.789-0.061,1.337-0.273,1.645-0.637c0.308-0.364,0.462-0.841,0.462-1.43v-1.625l0.085-0.214l0.214-0.085h0.507
		l0.215,0.085l0.085,0.214v1.677c0,0.832-0.265,1.517-0.793,2.054c-0.529,0.537-1.304,0.832-2.327,0.884
		c0.138,0.503,0.396,0.891,0.773,1.164c0.377,0.273,0.83,0.41,1.359,0.41h0.416c0.015,0,0.029,0,0.043,0
		c0.802,0,1.429-0.238,1.881-0.715c0.459-0.485,0.689-1.131,0.689-1.937v-3.536l0.085-0.214l0.215-0.085h0.507l0.214,0.085
		l0.085,0.214v3.614c0,0.728-0.15,1.367-0.449,1.918c-0.299,0.55-0.719,0.971-1.261,1.261
		C281.438,107.22,280.855,107.357,280.201,107.357 M274.039,107.277h-3.354l-0.208-0.085l-0.078-0.214v-0.416l0.078-0.215
		l0.208-0.084h2.509v-3.159c0-0.659-0.167-1.194-0.501-1.605c-0.334-0.412-0.756-0.617-1.267-0.617h-1.378l-1.001,6.084
		l-0.111,0.221l-0.214,0.091h-0.546l-0.201-0.091l-0.058-0.221l1.04-6.084h-0.663l-0.215-0.085l-0.084-0.214v-0.429l0.084-0.214
		l0.215-0.085h3.263c0.537,0,1.016,0.128,1.436,0.384c0.42,0.256,0.75,0.622,0.988,1.099c0.238,0.477,0.358,1.04,0.358,1.69v3.952
		l-0.085,0.214L274.039,107.277"/>
	<path fill="#000000" d="M280.201,124.257c-0.039,0-0.078,0-0.118-0.001h-0.962c-0.563,0-1.07-0.13-1.521-0.39
		c-0.451-0.26-0.804-0.626-1.06-1.099c-0.256-0.472-0.384-1.016-0.384-1.632v-4.082c0-0.095,0.028-0.169,0.085-0.221l0.215-0.078
		h0.507l0.214,0.085l0.085,0.215l0.039,3.692c0.789-0.061,1.337-0.273,1.645-0.637c0.308-0.364,0.462-0.841,0.462-1.43v-1.625
		l0.085-0.215l0.214-0.085h0.507l0.215,0.085l0.085,0.215v1.677c0,0.832-0.264,1.517-0.793,2.054
		c-0.529,0.537-1.305,0.832-2.327,0.884c0.138,0.503,0.396,0.89,0.773,1.163c0.377,0.273,0.83,0.41,1.359,0.41h0.416
		c0.015,0,0.029,0,0.043,0c0.802,0,1.429-0.238,1.881-0.715c0.459-0.485,0.689-1.131,0.689-1.937v-3.536l0.084-0.215l0.215-0.085
		h0.507l0.214,0.085l0.085,0.215v3.614c0,0.728-0.15,1.367-0.449,1.918c-0.299,0.55-0.719,0.971-1.261,1.261
		C281.438,124.12,280.855,124.257,280.201,124.257 M273.974,124.177h-0.572l-0.215-0.085l-0.084-0.214v-6.825
		c0-0.095,0.028-0.169,0.084-0.221l0.215-0.078h0.572l0.215,0.085l0.084,0.215v6.825l-0.084,0.214L273.974,124.177 M270.854,124.177
		h-5.447l-0.214-0.085l-0.085-0.214v-6.825c0-0.095,0.028-0.169,0.085-0.221l0.214-0.078h2.457c1.109,0,1.935,0.264,2.476,0.793
		c0.542,0.529,0.813,1.322,0.813,2.379v3.952l-0.084,0.214L270.854,124.177 M266.187,117.755v5.408h3.848v-3.172
		c0-1.491-0.745-2.236-2.236-2.236H266.187"/>
	<path fill="#000000" d="M272.778,141.207l-0.163-0.065l-0.071-0.182v-0.572c0-0.156,0.095-0.273,0.286-0.351l0.507-0.195
		c0.598-0.225,1.057-0.55,1.378-0.975c0.321-0.425,0.481-1.049,0.481-1.872c0-0.581-0.069-1.038-0.208-1.372
		c-0.139-0.334-0.366-0.574-0.682-0.722c-0.316-0.147-0.752-0.221-1.307-0.221h-0.403h-0.039l-1.196-0.013l-0.214-0.078
		l-0.085-0.208v-2.236l0.085-0.214l0.214-0.085h0.52l0.208,0.085l0.078,0.214v1.508h1.001c0.789,0,1.415,0.113,1.879,0.338
		c0.464,0.226,0.799,0.585,1.007,1.079s0.312,1.153,0.312,1.976c0,1.109-0.273,1.974-0.819,2.593
		c-0.546,0.62-1.257,1.077-2.132,1.372l-0.546,0.182L272.778,141.207 M258.712,141.207l-0.162-0.065l-0.072-0.182v-0.572
		c0-0.156,0.095-0.273,0.286-0.351l0.507-0.195c0.598-0.225,1.057-0.55,1.378-0.975c0.32-0.425,0.481-1.049,0.481-1.872
		c0-0.581-0.07-1.038-0.208-1.372c-0.139-0.334-0.366-0.574-0.683-0.722c-0.316-0.147-0.752-0.221-1.306-0.221h-0.403h-0.039
		l-1.196-0.013l-0.215-0.078l-0.085-0.208v-2.236l0.085-0.214l0.215-0.085h0.52l0.208,0.085l0.078,0.214v1.508h1.001
		c0.789,0,1.415,0.113,1.879,0.338c0.464,0.226,0.8,0.585,1.008,1.079s0.312,1.153,0.312,1.976c0,1.109-0.273,1.974-0.819,2.593
		c-0.546,0.62-1.257,1.077-2.132,1.372l-0.546,0.182L258.712,141.207 M249.028,141.157c-0.039,0-0.078,0-0.118-0.001h-0.962
		c-0.563,0-1.07-0.13-1.521-0.39c-0.451-0.26-0.804-0.626-1.059-1.098c-0.256-0.472-0.384-1.016-0.384-1.632v-4.082
		c0-0.095,0.028-0.169,0.084-0.221l0.215-0.078h0.507l0.214,0.085l0.085,0.215l0.039,3.692c0.788-0.061,1.337-0.273,1.644-0.637
		c0.308-0.364,0.462-0.841,0.462-1.43v-1.625l0.085-0.215l0.215-0.085h0.507l0.214,0.085l0.085,0.215v1.677
		c0,0.832-0.264,1.517-0.793,2.054c-0.529,0.537-1.305,0.832-2.327,0.884c0.139,0.503,0.396,0.89,0.773,1.164
		c0.377,0.273,0.83,0.409,1.359,0.409h0.416c0.015,0,0.029,0,0.043,0c0.802,0,1.429-0.238,1.881-0.715
		c0.459-0.485,0.689-1.131,0.689-1.937v-3.536l0.084-0.215l0.215-0.085h0.507l0.215,0.085l0.084,0.215v3.614
		c0,0.728-0.149,1.367-0.449,1.917c-0.299,0.55-0.719,0.971-1.261,1.261C250.264,141.02,249.682,141.157,249.028,141.157
		 M280.773,141.077h-2.236l-0.215-0.085l-0.084-0.214v-0.429l0.084-0.215l0.215-0.084h2.171c0.607,0,1.074-0.195,1.404-0.585
		c0.329-0.39,0.507-0.94,0.533-1.651c0.009-0.087,0.013-0.238,0.013-0.455c0-0.208-0.004-0.355-0.013-0.442
		c-0.018-0.71-0.193-1.261-0.526-1.651c-0.334-0.39-0.804-0.585-1.41-0.585h-1.599v1.04c0,0.347,0.039,0.62,0.117,0.819
		c0.078,0.199,0.212,0.325,0.403,0.377l0.494,0.13l0.163,0.137c0.039,0.074,0.058,0.162,0.058,0.266v0.299
		c0,0.096-0.048,0.165-0.143,0.208c-0.068,0.031-0.141,0.047-0.217,0.047c-0.031,0-0.062-0.002-0.095-0.007l-0.507-0.104
		c-0.867-0.19-1.3-0.927-1.3-2.21v-1.729c0-0.095,0.028-0.169,0.085-0.221l0.215-0.078h2.392c0.953,0,1.677,0.278,2.171,0.832
		c0.494,0.555,0.758,1.348,0.793,2.379c0.009,0.087,0.013,0.251,0.013,0.494c0,0.251-0.004,0.42-0.013,0.507
		c-0.035,1.031-0.299,1.824-0.793,2.379C282.45,140.8,281.726,141.077,280.773,141.077 M266.707,141.077h-2.236l-0.214-0.085
		l-0.085-0.214v-0.429l0.085-0.215l0.214-0.084h2.171c0.606,0,1.075-0.195,1.404-0.585c0.329-0.39,0.507-0.94,0.533-1.651
		c0.009-0.087,0.013-0.238,0.013-0.455c0-0.208-0.004-0.355-0.013-0.442c-0.017-0.71-0.193-1.261-0.527-1.651
		c-0.334-0.39-0.804-0.585-1.41-0.585h-1.599v1.04c0,0.347,0.039,0.62,0.117,0.819c0.078,0.199,0.212,0.325,0.403,0.377l0.494,0.13
		l0.163,0.137c0.039,0.074,0.059,0.162,0.059,0.266v0.299c0,0.096-0.048,0.165-0.143,0.208c-0.068,0.031-0.141,0.047-0.218,0.047
		c-0.031,0-0.062-0.002-0.094-0.007l-0.507-0.104c-0.867-0.19-1.3-0.927-1.3-2.21v-1.729c0-0.095,0.028-0.169,0.085-0.221
		l0.214-0.078h2.392c0.953,0,1.677,0.278,2.171,0.832c0.494,0.555,0.758,1.348,0.793,2.379c0.009,0.087,0.013,0.251,0.013,0.494
		c0,0.251-0.005,0.42-0.013,0.507c-0.035,1.031-0.299,1.824-0.793,2.379C268.384,140.8,267.66,141.077,266.707,141.077
		 M242.865,141.077h-0.546l-0.215-0.085l-0.085-0.214v-3.887c0-1.491-0.745-2.236-2.236-2.236h-1.586v6.123l-0.085,0.214
		l-0.215,0.085h-0.546l-0.215-0.085l-0.085-0.214v-6.825c0-0.095,0.028-0.169,0.085-0.221l0.215-0.078h2.496
		c1.118,0,1.95,0.267,2.496,0.8c0.546,0.533,0.819,1.332,0.819,2.398v3.926l-0.084,0.214L242.865,141.077 M234.74,141.077h-0.572
		l-0.214-0.085l-0.085-0.214v-6.825c0-0.095,0.028-0.169,0.085-0.221l0.214-0.078h0.572l0.215,0.085l0.085,0.215v6.825l-0.085,0.214
		L234.74,141.077 M231.621,141.077h-0.546l-0.215-0.085l-0.084-0.214v-3.887c0-1.491-0.745-2.236-2.236-2.236h-1.677l-0.215-0.078
		l-0.085-0.208v-0.416l0.085-0.215l0.215-0.085h1.755c2.201,0,3.302,1.058,3.302,3.172v3.952l-0.085,0.214L231.621,141.077"/>
	<path fill="#000000" d="M280.318,158.107c-1.066,0-1.866-0.28-2.398-0.838c-0.533-0.559-0.8-1.363-0.8-2.412v-4.004
		c0-0.095,0.028-0.169,0.085-0.221l0.214-0.078h3.12c1.118,0,1.92,0.251,2.405,0.754c0.485,0.503,0.749,1.274,0.793,2.314
		c0.009,0.087,0.013,0.321,0.013,0.702c0,0.381-0.005,0.615-0.013,0.702c-0.026,1.031-0.308,1.803-0.845,2.314
		C282.354,157.852,281.496,158.107,280.318,158.107 M278.212,151.555v3.302c0,0.72,0.175,1.27,0.526,1.651
		c0.351,0.382,0.873,0.572,1.567,0.572c0.815,0,1.399-0.171,1.755-0.513c0.355-0.342,0.541-0.878,0.559-1.605
		c0.008-0.087,0.013-0.299,0.013-0.637c0-0.338-0.005-0.55-0.013-0.637c-0.018-0.693-0.215-1.222-0.592-1.586
		c-0.377-0.364-0.895-0.546-1.554-0.546H278.212 M274.884,157.977h-0.572l-0.214-0.085l-0.085-0.214v-6.825
		c0-0.095,0.028-0.169,0.085-0.221l0.214-0.078h0.572l0.215,0.085l0.084,0.215v6.825l-0.084,0.214L274.884,157.977 M268.969,157.977
		h-1.924l-0.215-0.085l-0.085-0.214v-0.429c0-0.095,0.028-0.169,0.085-0.221l0.215-0.078h1.859c0.754,0,1.309-0.191,1.664-0.572
		c0.355-0.381,0.55-0.936,0.585-1.664c0.009-0.121,0.013-0.273,0.013-0.455c0-0.173-0.005-0.321-0.013-0.442
		c-0.026-0.737-0.219-1.293-0.578-1.67c-0.36-0.377-0.917-0.565-1.671-0.565h-1.859l-0.215-0.085l-0.085-0.214v-0.429
		c0-0.095,0.028-0.169,0.085-0.221l0.215-0.078h1.924c1.101,0,1.917,0.275,2.451,0.826c0.533,0.55,0.817,1.345,0.851,2.385
		c0.009,0.121,0.013,0.286,0.013,0.494s-0.004,0.377-0.013,0.507c-0.035,1.04-0.319,1.835-0.851,2.385
		C270.886,157.702,270.069,157.977,268.969,157.977 M264.497,157.977h-0.546l-0.214-0.085l-0.085-0.214v-3.887
		c0-1.491-0.745-2.236-2.236-2.236h-1.677l-0.214-0.078l-0.085-0.208v-0.416l0.085-0.215l0.214-0.085h1.755
		c2.201,0,3.302,1.058,3.302,3.172v3.952l-0.084,0.214L264.497,157.977"/>
	<path fill="#000000" d="M272.102,175.007l-0.163-0.065l-0.072-0.182v-0.572c0-0.156,0.095-0.273,0.286-0.351l0.507-0.195
		c0.598-0.225,1.057-0.55,1.378-0.975c0.321-0.425,0.481-1.048,0.481-1.872c0-0.581-0.07-1.038-0.208-1.372
		c-0.139-0.333-0.366-0.574-0.682-0.722c-0.316-0.147-0.752-0.221-1.307-0.221h-0.403h-0.039l-1.196-0.013l-0.215-0.078
		l-0.085-0.208v-2.236l0.085-0.214l0.215-0.085h0.52l0.208,0.085l0.078,0.214v1.508h1.001c0.789,0,1.415,0.113,1.879,0.338
		c0.464,0.226,0.8,0.585,1.008,1.079s0.312,1.153,0.312,1.976c0,1.109-0.273,1.974-0.819,2.594c-0.546,0.62-1.257,1.077-2.132,1.371
		l-0.546,0.182L272.102,175.007 M283.23,174.877h-3.354l-0.208-0.084l-0.078-0.215v-0.416l0.078-0.214l0.208-0.085h2.509v-3.159
		c0-0.658-0.167-1.194-0.501-1.605c-0.334-0.411-0.756-0.617-1.267-0.617h-1.378l-1.001,6.084l-0.111,0.221l-0.214,0.091h-0.546
		l-0.201-0.091l-0.058-0.221l1.04-6.084h-0.663l-0.215-0.085l-0.084-0.214v-0.429l0.084-0.215l0.215-0.084h3.263
		c0.537,0,1.016,0.128,1.437,0.384c0.42,0.256,0.75,0.622,0.988,1.099c0.238,0.477,0.357,1.04,0.357,1.69v3.952l-0.085,0.215
		L283.23,174.877 M268.605,174.877h-0.546l-0.215-0.084l-0.084-0.215v-3.887c0-1.49-0.745-2.236-2.236-2.236h-1.586v6.123
		l-0.085,0.215l-0.214,0.084h-0.546l-0.215-0.084l-0.084-0.215v-6.825c0-0.095,0.028-0.169,0.084-0.221l0.215-0.078h2.496
		c1.118,0,1.95,0.266,2.496,0.799c0.546,0.533,0.819,1.333,0.819,2.399v3.926l-0.085,0.215L268.605,174.877"/>
	<path fill="#000000" d="M283.243,208.677h-1.209l-0.221-0.091l-0.091-0.221v-6.708l-1.963,1.508l-0.195,0.065
		c-0.104,0-0.186-0.043-0.247-0.13l-0.559-0.728l-0.065-0.182c0-0.104,0.047-0.19,0.143-0.26l2.912-2.262
		c0.095-0.061,0.203-0.091,0.325-0.091h1.17l0.221,0.091l0.091,0.221v8.476l-0.091,0.221L283.243,208.677"/>
	<path fill="#000000" d="M152.785,211.16h-0.221l-0.208-0.078l-0.078-0.208v-7.046l0.078-0.208l0.208-0.078h0.221l0.208,0.078
		l0.078,0.208v7.046l-0.078,0.208L152.785,211.16 M69.391,211.16H69.17l-0.208-0.078l-0.078-0.208v-7.046l0.078-0.208l0.208-0.078
		h0.221l0.208,0.078l0.078,0.208v7.046l-0.078,0.208L69.391,211.16 M239.338,210.289h-0.221l-0.208-0.078l-0.078-0.208v-5.512
		c0-1.655-0.828-2.483-2.483-2.483h-1.313v1.56c0,0.407,0.043,0.726,0.13,0.955c0.087,0.23,0.238,0.371,0.455,0.423l0.533,0.13
		c0.147,0.043,0.221,0.182,0.221,0.416v0.182l-0.085,0.156l-0.214,0.052l-0.104-0.013l-0.494-0.117
		c-0.416-0.095-0.724-0.321-0.923-0.676c-0.199-0.355-0.299-0.858-0.299-1.508v-2.028l0.078-0.208l0.208-0.078h1.872
		c1.083,0,1.889,0.271,2.418,0.813c0.529,0.542,0.793,1.328,0.793,2.36v5.577l-0.078,0.208L239.338,210.289 M95.755,209.418
		l-0.175-0.065l-0.072-0.156v-0.169c0-0.199,0.061-0.321,0.182-0.364l1.781-0.65l-1.729-6.24c-0.043-0.147-0.065-0.234-0.065-0.26
		l0.078-0.182l0.182-0.078h0.234l0.195,0.058l0.104,0.137l1.781,6.279l0.13-0.052c0.711-0.26,1.209-0.632,1.495-1.118
		c0.286-0.485,0.429-1.075,0.429-1.768v-3.25l0.078-0.208l0.208-0.078h0.221l0.208,0.078l0.078,0.208v3.51
		c0,0.728-0.234,1.404-0.702,2.028c-0.468,0.624-1.088,1.075-1.859,1.352l-2.665,0.962L95.755,209.418 M247.788,208.807
		c-1.101,0-1.9-0.268-2.398-0.806c-0.499-0.537-0.747-1.326-0.747-2.366v-4.095l0.078-0.208l0.208-0.078h0.221l0.208,0.078
		l0.078,0.208v4.03c0,0.797,0.193,1.41,0.578,1.839c0.386,0.429,0.977,0.644,1.775,0.644c0.797,0,1.384-0.193,1.761-0.579
		c0.377-0.386,0.574-0.977,0.592-1.775v-0.442v-1.027c-0.018-0.78-0.191-1.356-0.52-1.729c-0.329-0.372-0.776-0.559-1.339-0.559
		c-0.165,0-0.353,0.03-0.566,0.091c-0.212,0.061-0.392,0.143-0.539,0.247l-0.13,0.039l-0.15-0.058l-0.072-0.15v-0.169v-0.065
		l0.026-0.182l0.104-0.117c0.199-0.13,0.405-0.227,0.617-0.292c0.212-0.065,0.47-0.098,0.774-0.098c0.806,0,1.432,0.243,1.879,0.728
		c0.446,0.485,0.682,1.235,0.708,2.249c0.009,0.087,0.013,0.351,0.013,0.793c0,0.451-0.004,0.72-0.013,0.806
		c-0.026,1.04-0.279,1.807-0.76,2.301S248.897,208.807,247.788,208.807 M215.483,208.807c-1.101,0-1.9-0.268-2.398-0.806
		c-0.499-0.537-0.747-1.326-0.747-2.366v-4.095l0.078-0.208l0.208-0.078h0.221l0.208,0.078l0.078,0.208v4.03
		c0,0.797,0.193,1.41,0.579,1.839c0.386,0.429,0.977,0.644,1.774,0.644c0.797,0,1.385-0.193,1.761-0.579
		c0.377-0.386,0.574-0.977,0.592-1.775v-0.442v-1.027c-0.017-0.78-0.191-1.356-0.52-1.729c-0.329-0.372-0.776-0.559-1.339-0.559
		c-0.165,0-0.353,0.03-0.565,0.091c-0.213,0.061-0.392,0.143-0.539,0.247l-0.13,0.039l-0.15-0.058l-0.071-0.15v-0.169v-0.065
		l0.026-0.182l0.104-0.117c0.199-0.13,0.405-0.227,0.618-0.292c0.212-0.065,0.47-0.098,0.773-0.098c0.806,0,1.432,0.243,1.879,0.728
		c0.446,0.485,0.682,1.235,0.708,2.249c0.009,0.087,0.013,0.351,0.013,0.793c0,0.451-0.005,0.72-0.013,0.806
		c-0.026,1.04-0.279,1.807-0.76,2.301C217.388,208.56,216.593,208.807,215.483,208.807 M169.958,208.807
		c-1.031,0-1.803-0.275-2.314-0.825c-0.511-0.55-0.767-1.354-0.767-2.411v-4.03l0.078-0.208l0.208-0.078h3.055
		c1.074,0,1.846,0.247,2.314,0.741c0.468,0.494,0.724,1.261,0.767,2.301c0.009,0.087,0.013,0.329,0.013,0.728
		c0,0.407-0.004,0.655-0.013,0.741c-0.026,1.031-0.304,1.796-0.832,2.295C171.938,208.558,171.102,208.807,169.958,208.807
		 M167.67,202.008v3.562c0,0.797,0.19,1.41,0.572,1.839c0.381,0.429,0.953,0.644,1.716,0.644c0.893,0,1.536-0.193,1.931-0.579
		c0.394-0.386,0.6-0.977,0.617-1.775c0.009-0.086,0.013-0.312,0.013-0.676c0-0.355-0.004-0.576-0.013-0.663
		c-0.018-0.763-0.239-1.346-0.663-1.748c-0.425-0.403-0.988-0.605-1.69-0.605H167.67 M263.232,208.794
		c-0.139,0-0.208-0.069-0.208-0.208v-0.325c0-0.147,0.091-0.256,0.273-0.325l0.533-0.208c0.667-0.26,1.176-0.619,1.527-1.079
		c0.351-0.459,0.527-1.144,0.527-2.054c0-0.65-0.078-1.161-0.234-1.534c-0.156-0.373-0.414-0.641-0.773-0.806
		c-0.36-0.165-0.852-0.247-1.475-0.247h-0.442h-0.039l-1.014-0.013l-0.208-0.071l-0.078-0.202v-1.989l0.078-0.208l0.208-0.078h0.221
		l0.208,0.078l0.078,0.208v1.521h1.053c0.806,0,1.441,0.111,1.904,0.331c0.464,0.221,0.797,0.579,1.001,1.073
		c0.204,0.494,0.306,1.17,0.306,2.028c0,1.118-0.253,1.972-0.76,2.561c-0.507,0.59-1.185,1.036-2.035,1.339l-0.546,0.195
		L263.232,208.794 M161.638,208.794c-0.139,0-0.208-0.069-0.208-0.208v-0.325c0-0.147,0.091-0.256,0.273-0.325l0.533-0.208
		c0.667-0.26,1.177-0.619,1.528-1.079c0.351-0.459,0.526-1.144,0.526-2.054c0-0.65-0.078-1.161-0.234-1.534
		c-0.156-0.373-0.414-0.641-0.773-0.806c-0.36-0.165-0.852-0.247-1.476-0.247h-0.442h-0.039l-1.014-0.013l-0.208-0.071l-0.078-0.202
		v-1.989l0.078-0.208l0.208-0.078h0.221l0.208,0.078l0.078,0.208v1.521h1.053c0.806,0,1.441,0.111,1.905,0.331
		c0.464,0.221,0.797,0.579,1.001,1.073c0.203,0.494,0.306,1.17,0.306,2.028c0,1.118-0.253,1.972-0.761,2.561
		c-0.507,0.59-1.185,1.036-2.034,1.339l-0.546,0.195L161.638,208.794 M154.709,208.794c-0.139,0-0.208-0.069-0.208-0.208v-0.325
		c0-0.147,0.091-0.256,0.273-0.325l0.533-0.208c0.667-0.26,1.176-0.619,1.527-1.079c0.351-0.459,0.527-1.144,0.527-2.054
		c0-0.65-0.078-1.161-0.234-1.534c-0.156-0.373-0.414-0.641-0.774-0.806c-0.36-0.165-0.851-0.247-1.475-0.247h-2.314l-0.208-0.078
		l-0.078-0.208v-0.182l0.078-0.208l0.208-0.078h2.379c0.806,0,1.441,0.111,1.904,0.331c0.464,0.221,0.797,0.579,1.001,1.073
		c0.203,0.494,0.305,1.17,0.305,2.028c0,1.118-0.253,1.972-0.76,2.561c-0.507,0.59-1.185,1.036-2.034,1.339l-0.546,0.195
		L154.709,208.794 M129.958,208.794c-0.139,0-0.208-0.069-0.208-0.208v-0.325c0-0.147,0.091-0.256,0.273-0.325l0.533-0.208
		c0.667-0.26,1.176-0.619,1.527-1.079c0.351-0.459,0.527-1.144,0.527-2.054c0-0.65-0.078-1.161-0.234-1.534
		c-0.156-0.373-0.414-0.641-0.774-0.806c-0.36-0.165-0.851-0.247-1.475-0.247h-0.442h-0.039l-1.014-0.013l-0.208-0.071l-0.078-0.202
		v-1.989l0.078-0.208l0.208-0.078h0.221l0.208,0.078l0.078,0.208v1.521h1.053c0.806,0,1.441,0.111,1.904,0.331
		c0.464,0.221,0.797,0.579,1.001,1.073c0.204,0.494,0.306,1.17,0.306,2.028c0,1.118-0.253,1.972-0.76,2.561
		c-0.507,0.59-1.185,1.036-2.034,1.339l-0.546,0.195L129.958,208.794 M107.689,208.794c-0.139,0-0.208-0.069-0.208-0.208v-0.325
		c0-0.147,0.091-0.256,0.273-0.325l0.533-0.208c0.667-0.26,1.177-0.619,1.527-1.079c0.351-0.459,0.527-1.144,0.527-2.054
		c0-0.65-0.078-1.161-0.234-1.534c-0.156-0.373-0.414-0.641-0.773-0.806c-0.36-0.165-0.852-0.247-1.476-0.247h-0.442h-0.039
		l-1.014-0.013l-0.208-0.071l-0.078-0.202v-1.989l0.078-0.208l0.208-0.078h0.221l0.208,0.078l0.078,0.208v1.521h1.053
		c0.806,0,1.441,0.111,1.905,0.331c0.464,0.221,0.797,0.579,1.001,1.073c0.203,0.494,0.306,1.17,0.306,2.028
		c0,1.118-0.254,1.972-0.761,2.561c-0.507,0.59-1.185,1.036-2.034,1.339l-0.546,0.195L107.689,208.794 M71.315,208.794
		c-0.139,0-0.208-0.069-0.208-0.208v-0.325c0-0.147,0.091-0.256,0.273-0.325l0.533-0.208c0.667-0.26,1.177-0.619,1.527-1.079
		c0.351-0.459,0.527-1.144,0.527-2.054c0-0.65-0.078-1.161-0.234-1.534c-0.156-0.373-0.414-0.641-0.773-0.806
		c-0.36-0.165-0.852-0.247-1.476-0.247H69.17l-0.208-0.078l-0.078-0.208v-0.182l0.078-0.208l0.208-0.078h2.379
		c0.806,0,1.441,0.111,1.905,0.331c0.464,0.221,0.797,0.579,1.001,1.073c0.203,0.494,0.306,1.17,0.306,2.028
		c0,1.118-0.254,1.972-0.761,2.561c-0.507,0.59-1.185,1.036-2.034,1.339l-0.546,0.195L71.315,208.794 M63.567,208.794
		c-0.139,0-0.208-0.069-0.208-0.208v-0.325c0-0.147,0.091-0.256,0.273-0.325l0.533-0.208c0.667-0.26,1.176-0.619,1.528-1.079
		c0.351-0.459,0.526-1.144,0.526-2.054c0-0.65-0.078-1.161-0.234-1.534c-0.156-0.373-0.414-0.641-0.773-0.806
		c-0.36-0.165-0.852-0.247-1.475-0.247h-0.442h-0.039l-1.014-0.013l-0.208-0.071l-0.078-0.202v-1.989l0.078-0.208l0.208-0.078h0.221
		l0.208,0.078l0.078,0.208v1.521h1.053c0.806,0,1.441,0.111,1.905,0.331c0.464,0.221,0.797,0.579,1.001,1.073
		c0.203,0.494,0.306,1.17,0.306,2.028c0,1.118-0.253,1.972-0.761,2.561c-0.507,0.59-1.185,1.036-2.034,1.339l-0.546,0.195
		L63.567,208.794 M256.487,208.744c-0.039,0-0.079-0.001-0.119-0.001h-0.871c-0.512,0-0.982-0.128-1.411-0.384
		c-0.429-0.255-0.769-0.622-1.02-1.099c-0.251-0.476-0.377-1.031-0.377-1.664v-4.056l0.078-0.208l0.208-0.078h0.221l0.208,0.078
		l0.078,0.208l0.052,3.887c0.884-0.061,1.504-0.28,1.859-0.657c0.355-0.377,0.533-0.865,0.533-1.462v-1.768l0.078-0.208l0.208-0.078
		h0.221l0.208,0.078l0.078,0.208v1.833c0,0.771-0.264,1.419-0.793,1.944c-0.529,0.524-1.309,0.813-2.34,0.864
		c0.095,0.572,0.346,1.014,0.754,1.326c0.407,0.312,0.914,0.468,1.521,0.468h0.455c0.029,0.001,0.057,0.001,0.085,0.001
		c0.834,0,1.477-0.249,1.93-0.748c0.468-0.516,0.702-1.211,0.702-2.087v-3.601l0.078-0.208l0.208-0.078h0.221l0.208,0.078
		l0.078,0.208v3.692c0,0.719-0.143,1.348-0.429,1.885c-0.286,0.537-0.689,0.947-1.209,1.229
		C257.698,208.611,257.131,208.744,256.487,208.744 M116.674,208.744c-0.039,0-0.079-0.001-0.119-0.001h-0.871
		c-0.511,0-0.981-0.128-1.41-0.384c-0.429-0.255-0.769-0.622-1.021-1.099c-0.251-0.476-0.377-1.031-0.377-1.664v-4.056l0.078-0.208
		l0.208-0.078h0.221l0.208,0.078l0.078,0.208l0.052,3.887c0.884-0.061,1.504-0.28,1.859-0.657c0.355-0.377,0.533-0.865,0.533-1.462
		v-1.768l0.078-0.208l0.208-0.078h0.221l0.208,0.078l0.078,0.208v1.833c0,0.771-0.264,1.419-0.793,1.944
		c-0.529,0.524-1.309,0.813-2.34,0.864c0.095,0.572,0.347,1.014,0.754,1.326c0.407,0.312,0.914,0.468,1.521,0.468h0.455
		c0.029,0.001,0.057,0.001,0.085,0.001c0.834,0,1.477-0.249,1.93-0.748c0.468-0.516,0.702-1.211,0.702-2.087v-3.601l0.078-0.208
		l0.208-0.078h0.221l0.208,0.078l0.078,0.208v3.692c0,0.719-0.143,1.348-0.429,1.885c-0.286,0.537-0.689,0.947-1.209,1.229
		C117.885,208.611,117.318,208.744,116.674,208.744 M242.237,208.677h-0.221l-0.208-0.078l-0.078-0.208v-6.851l0.078-0.208
		l0.208-0.078h0.221l0.208,0.078l0.078,0.208v6.851l-0.078,0.208L242.237,208.677 M228.795,208.677h-0.221l-0.208-0.078
		l-0.078-0.208v-3.9c0-1.655-0.828-2.483-2.483-2.483h-2.236l-0.208-0.078l-0.078-0.208v-0.182l0.078-0.208l0.208-0.078h2.301
		c1.083,0,1.889,0.271,2.418,0.813c0.529,0.542,0.793,1.328,0.793,2.36v3.965l-0.078,0.208L228.795,208.677 M223.79,208.677h-0.221
		l-0.208-0.078l-0.078-0.208v-4.563l0.078-0.208l0.208-0.078h0.221l0.208,0.078l0.078,0.208v4.563l-0.078,0.208L223.79,208.677
		 M210.635,208.677h-5.2l-0.208-0.078l-0.078-0.208v-0.182l0.078-0.208l0.208-0.078h3.913v-3.432c0-1.655-0.828-2.483-2.483-2.483
		h-1.3l-0.208-0.078l-0.078-0.208v-0.182l0.078-0.208l0.208-0.078h1.365c1.083,0,1.889,0.273,2.418,0.819
		c0.529,0.546,0.793,1.331,0.793,2.353v3.497h0.494l0.208,0.078l0.078,0.208v0.182l-0.078,0.208L210.635,208.677 M200.053,208.677
		h-0.247l-0.175-0.045l-0.15-0.149l-3.211-4.472c-0.425,0.303-0.713,0.654-0.865,1.053c-0.152,0.399-0.228,0.841-0.228,1.326v2.002
		l-0.078,0.208l-0.208,0.078h-0.221l-0.208-0.078l-0.078-0.208v-2.067c0-0.615,0.098-1.164,0.293-1.644
		c0.195-0.481,0.578-0.908,1.151-1.281l-1.157-1.625c-0.069-0.104-0.104-0.19-0.104-0.26l0.078-0.182l0.182-0.078h0.247
		c0.121,0,0.23,0.065,0.325,0.195l2.938,4.095c0.364-0.199,0.628-0.405,0.793-0.617c0.165-0.212,0.266-0.427,0.306-0.643
		c0.039-0.217,0.058-0.507,0.058-0.871v-1.872l0.078-0.208l0.208-0.078h0.221l0.208,0.078l0.078,0.208v1.937
		c0,0.399-0.035,0.743-0.104,1.033c-0.069,0.291-0.215,0.572-0.436,0.845c-0.221,0.273-0.548,0.535-0.981,0.787l1.443,2.015
		c0.069,0.104,0.104,0.191,0.104,0.26l-0.078,0.182L200.053,208.677 M192.357,208.677h-0.221l-0.208-0.078l-0.078-0.208v-3.9
		c0-1.655-0.828-2.483-2.483-2.483h-0.988c-0.087,0.624-0.149,1.127-0.188,1.508c-0.039,0.381-0.054,0.815-0.045,1.3v3.575
		l-0.078,0.208l-0.208,0.078l-1.482-0.026l-0.208-0.078l-0.078-0.208v-0.182l0.078-0.208l0.208-0.078l0.975,0.013v-3.029v-0.403
		c0-0.476,0.017-0.895,0.052-1.254c0.035-0.36,0.1-0.765,0.195-1.216h-0.663l-0.208-0.078l-0.078-0.208v-0.182l0.078-0.208
		l0.208-0.078h2.496c1.083,0,1.889,0.271,2.418,0.813c0.529,0.542,0.793,1.328,0.793,2.36v3.965l-0.078,0.208L192.357,208.677
		 M180.696,208.677h-0.221l-0.208-0.078l-0.078-0.208v-3.9c0-1.655-0.828-2.483-2.483-2.483h-2.236l-0.208-0.078l-0.078-0.208
		v-0.182l0.078-0.208l0.208-0.078h2.301c1.083,0,1.889,0.271,2.418,0.813c0.529,0.542,0.793,1.328,0.793,2.36v3.965l-0.078,0.208
		L180.696,208.677 M175.691,208.677h-0.221l-0.208-0.078l-0.078-0.208v-4.563l0.078-0.208l0.208-0.078h0.221l0.208,0.078
		l0.078,0.208v4.563l-0.078,0.208L175.691,208.677 M147.117,208.677h-5.226l-0.208-0.078l-0.078-0.208v-6.851l0.078-0.208
		l0.208-0.078h2.301c1.083,0,1.889,0.271,2.418,0.813c0.529,0.542,0.793,1.328,0.793,2.36v3.965l-0.078,0.208L147.117,208.677
		 M142.386,202.008v5.915h4.225v-3.432c0-1.655-0.828-2.483-2.483-2.483H142.386 M135.782,208.677h-0.221l-0.208-0.078l-0.078-0.208
		v-6.851l0.078-0.208l0.208-0.078h0.221l0.208,0.078l0.078,0.208v6.851l-0.078,0.208L135.782,208.677 M127.137,208.677h-5.2
		l-0.208-0.078l-0.078-0.208v-0.182l0.078-0.208l0.208-0.078h3.913v-3.432c0-1.655-0.828-2.483-2.483-2.483h-1.3l-0.208-0.078
		l-0.078-0.208v-0.182l0.078-0.208l0.208-0.078h1.365c1.083,0,1.889,0.273,2.418,0.819c0.529,0.546,0.793,1.331,0.793,2.353v3.497
		h0.494l0.208,0.078l0.078,0.208v0.182l-0.078,0.208L127.137,208.677 M93.584,208.677h-5.226l-0.208-0.078l-0.078-0.208v-6.851
		l0.078-0.208l0.208-0.078h2.301c1.083,0,1.889,0.271,2.418,0.813c0.529,0.542,0.793,1.328,0.793,2.36v3.965l-0.078,0.208
		L93.584,208.677 M88.852,202.008v5.915h4.225v-3.432c0-1.655-0.828-2.483-2.483-2.483H88.852 M82.326,208.677h-0.221l-0.208-0.078
		l-0.078-0.208v-3.9c0-1.655-0.828-2.483-2.483-2.483H77.1l-0.208-0.078l-0.078-0.208v-0.182l0.078-0.208l0.208-0.078h2.301
		c1.083,0,1.889,0.271,2.418,0.813c0.529,0.542,0.793,1.328,0.793,2.36v3.965l-0.078,0.208L82.326,208.677 M77.321,208.677H77.1
		l-0.208-0.078l-0.078-0.208v-4.563l0.078-0.208l0.208-0.078h0.221l0.208,0.078l0.078,0.208v4.563l-0.078,0.208L77.321,208.677
		 M54.689,208.677h-2.158l-0.208-0.078l-0.078-0.208v-0.182l0.078-0.208l0.208-0.078h2.093c0.658,0,1.159-0.215,1.501-0.644
		c0.342-0.429,0.531-1.042,0.566-1.839c0.008-0.087,0.013-0.247,0.013-0.481c0-0.225-0.005-0.381-0.013-0.468
		c-0.018-0.788-0.202-1.399-0.553-1.833c-0.351-0.433-0.856-0.65-1.514-0.65h-1.768v1.235c0,0.407,0.043,0.726,0.13,0.956
		c0.087,0.23,0.238,0.371,0.455,0.422l0.533,0.13c0.147,0.043,0.221,0.182,0.221,0.416v0.182l-0.084,0.156l-0.215,0.052
		l-0.104-0.013l-0.494-0.117c-0.416-0.095-0.724-0.321-0.923-0.676c-0.199-0.355-0.299-0.858-0.299-1.508v-1.703l0.078-0.208
		l0.208-0.078h2.327c0.893,0,1.575,0.275,2.048,0.825c0.472,0.55,0.721,1.332,0.747,2.347c0.009,0.087,0.013,0.264,0.013,0.533
		c0,0.277-0.004,0.459-0.013,0.546c-0.026,1.014-0.275,1.796-0.747,2.346C56.264,208.402,55.581,208.677,54.689,208.677
		 M49.658,208.677h-0.221l-0.208-0.078l-0.078-0.208v-3.9c0-1.655-0.828-2.483-2.483-2.483h-2.236l-0.208-0.078l-0.078-0.208v-0.182
		l0.078-0.208l0.208-0.078h2.301c1.083,0,1.889,0.271,2.418,0.813c0.529,0.542,0.793,1.328,0.793,2.36v3.965l-0.078,0.208
		L49.658,208.677 M44.653,208.677h-0.221l-0.208-0.078l-0.078-0.208v-4.563l0.078-0.208l0.208-0.078h0.221l0.208,0.078l0.078,0.208
		v4.563l-0.078,0.208L44.653,208.677 M35.696,208.677h-1.911l-0.208-0.078l-0.078-0.208v-0.182l0.078-0.208l0.208-0.078h1.846
		c0.849,0,1.467-0.21,1.852-0.631c0.386-0.42,0.596-1.038,0.631-1.852c0.009-0.13,0.013-0.29,0.013-0.481
		c0-0.182-0.004-0.338-0.013-0.468c-0.026-0.815-0.234-1.432-0.624-1.852c-0.39-0.42-1.01-0.631-1.859-0.631h-1.846l-0.208-0.078
		l-0.078-0.208v-0.182l0.078-0.208l0.208-0.078h1.911c1.074,0,1.87,0.269,2.385,0.806c0.516,0.537,0.791,1.326,0.825,2.366
		c0.009,0.13,0.013,0.308,0.013,0.533c0,0.234-0.004,0.416-0.013,0.546c-0.035,1.04-0.31,1.829-0.825,2.366
		C37.566,208.409,36.77,208.677,35.696,208.677 M31.081,208.677H30.86l-0.208-0.078l-0.078-0.208v-3.9
		c0-1.655-0.828-2.483-2.483-2.483h-1.742v6.383l-0.078,0.208l-0.208,0.078h-0.221l-0.208-0.078l-0.078-0.208v-6.851l0.078-0.208
		l0.208-0.078h2.314c1.083,0,1.889,0.271,2.418,0.813c0.529,0.542,0.793,1.328,0.793,2.36v3.965l-0.078,0.208L31.081,208.677
		 M23.307,208.677h-4.485l-0.208-0.078l-0.078-0.208v-0.182l0.078-0.208l0.208-0.078h3.705l-4.173-6.149
		c-0.069-0.104-0.104-0.19-0.104-0.26l0.085-0.182l0.188-0.078h0.234c0.13,0,0.238,0.069,0.325,0.208l2.496,3.627
		c0.849-0.321,1.274-1.083,1.274-2.288v-1.261l0.078-0.208l0.208-0.078h0.221l0.208,0.078l0.078,0.208v1.326
		c0,0.702-0.141,1.289-0.423,1.761c-0.282,0.472-0.695,0.821-1.242,1.046l1.469,2.145c0.095,0.139,0.143,0.269,0.143,0.39v0.182
		l-0.078,0.208L23.307,208.677 M220.917,205.687h-0.221l-0.208-0.078l-0.078-0.208v-3.861l0.078-0.208l0.208-0.078h0.221
		l0.208,0.078l0.078,0.208v3.861l-0.078,0.208L220.917,205.687 M149.912,205.687h-0.221l-0.208-0.078l-0.078-0.208v-3.861
		l0.078-0.208l0.208-0.078h0.221l0.208,0.078l0.078,0.208v3.861l-0.078,0.208L149.912,205.687 M59.771,205.687H59.55l-0.208-0.078
		l-0.078-0.208v-3.861l0.078-0.208l0.208-0.078h0.221l0.208,0.078l0.078,0.208v3.861l-0.078,0.208L59.771,205.687 M16.547,205.687
		h-0.221l-0.208-0.078l-0.078-0.208v-3.861l0.078-0.208l0.208-0.078h0.221l0.208,0.078l0.078,0.208v3.861l-0.078,0.208
		L16.547,205.687"/>
	<path fill="#000000" d="M252.117,226.318l-0.175-0.065l-0.072-0.156v-0.169c0-0.199,0.061-0.321,0.182-0.364l1.781-0.65
		l-1.729-6.24c-0.043-0.147-0.065-0.234-0.065-0.26l0.078-0.182l0.182-0.078h0.234l0.195,0.058l0.104,0.137l1.781,6.279l0.13-0.052
		c0.711-0.26,1.209-0.632,1.495-1.118c0.286-0.485,0.429-1.075,0.429-1.768v-3.25l0.078-0.208l0.208-0.078h0.221l0.208,0.078
		l0.078,0.208v3.51c0,0.728-0.234,1.404-0.702,2.028c-0.468,0.624-1.088,1.075-1.859,1.352l-2.665,0.962L252.117,226.318
		 M263.234,225.644c-0.039,0-0.079,0-0.119-0.001h-0.871c-0.512,0-0.982-0.128-1.411-0.383c-0.429-0.256-0.769-0.622-1.021-1.099
		c-0.251-0.476-0.377-1.031-0.377-1.664v-4.056l0.078-0.208l0.208-0.078h0.221l0.208,0.078l0.078,0.208l0.052,3.887
		c0.884-0.061,1.504-0.28,1.859-0.657c0.355-0.377,0.533-0.865,0.533-1.462v-1.768l0.078-0.208l0.208-0.078h0.221l0.208,0.078
		l0.078,0.208v1.833c0,0.771-0.264,1.419-0.793,1.944c-0.529,0.524-1.309,0.813-2.34,0.864c0.095,0.572,0.346,1.014,0.754,1.326
		c0.407,0.312,0.914,0.468,1.521,0.468h0.455c0.029,0.001,0.057,0.001,0.085,0.001c0.834,0,1.477-0.25,1.93-0.748
		c0.468-0.516,0.702-1.211,0.702-2.087v-3.601l0.078-0.208l0.208-0.078h0.221l0.208,0.078l0.078,0.208v3.692
		c0,0.719-0.143,1.348-0.429,1.885c-0.286,0.537-0.689,0.947-1.209,1.228C264.445,225.511,263.878,225.644,263.234,225.644
		 M249.946,225.577h-0.221l-0.208-0.078l-0.078-0.208v-3.9c0-1.655-0.828-2.483-2.483-2.483h-2.236l-0.208-0.078l-0.078-0.208
		v-0.182l0.078-0.208l0.208-0.078h2.301c1.083,0,1.889,0.271,2.418,0.813c0.529,0.542,0.793,1.328,0.793,2.36v3.965l-0.078,0.208
		L249.946,225.577 M244.941,225.577h-0.221l-0.208-0.078l-0.078-0.208v-4.563l0.078-0.208l0.208-0.078h0.221l0.208,0.078
		l0.078,0.208v4.563l-0.078,0.208L244.941,225.577"/>
	<path fill="#000000" d="M283.529,248.146h-6.227l-0.221-0.091l-0.091-0.221v-0.676c0-0.243,0.108-0.446,0.325-0.611l2.028-2.015
		c0.615-0.485,1.09-0.882,1.424-1.189c0.333-0.308,0.583-0.592,0.747-0.852c0.165-0.26,0.247-0.516,0.247-0.767
		c0-0.407-0.108-0.728-0.325-0.962c-0.217-0.234-0.546-0.351-0.988-0.351c-0.434,0-0.774,0.128-1.021,0.384
		c-0.247,0.256-0.401,0.587-0.461,0.995c-0.026,0.104-0.076,0.18-0.15,0.227l-0.241,0.072h-1.17l-0.195-0.078l-0.078-0.195
		c0.017-0.511,0.158-0.99,0.423-1.437c0.264-0.446,0.643-0.806,1.137-1.079c0.494-0.273,1.075-0.409,1.742-0.409
		c0.693,0,1.282,0.119,1.768,0.357c0.485,0.239,0.849,0.566,1.092,0.981c0.243,0.416,0.364,0.888,0.364,1.417
		c0,0.581-0.163,1.107-0.487,1.579c-0.325,0.472-0.83,0.977-1.515,1.515l-1.807,1.833h3.679c0.095,0,0.173,0.031,0.234,0.091
		c0.06,0.061,0.091,0.139,0.091,0.234v0.936c0,0.095-0.03,0.171-0.091,0.227C283.702,248.118,283.624,248.146,283.529,248.146"/>
	<path fill="#000000" d="M241.613,249.758h-0.221l-0.208-0.078l-0.078-0.208v-8.463l0.078-0.208l0.208-0.078h0.221l0.208,0.078
		l0.078,0.208v8.463l-0.078,0.208L241.613,249.758 M222.803,248.276c-1.101,0-1.9-0.269-2.399-0.806
		c-0.498-0.537-0.747-1.326-0.747-2.366v-4.095l0.078-0.208l0.208-0.078h0.221l0.208,0.078l0.078,0.208v4.03
		c0,0.798,0.193,1.411,0.579,1.84c0.386,0.429,0.977,0.643,1.775,0.643c0.797,0,1.385-0.193,1.761-0.578
		c0.377-0.386,0.574-0.977,0.592-1.775v-0.442V243.7c-0.018-0.78-0.191-1.356-0.52-1.729c-0.329-0.373-0.776-0.559-1.339-0.559
		c-0.165,0-0.353,0.03-0.566,0.091c-0.212,0.061-0.392,0.143-0.539,0.247l-0.13,0.039l-0.149-0.059l-0.072-0.149v-0.169v-0.065
		l0.026-0.182l0.104-0.117c0.199-0.13,0.405-0.228,0.617-0.293c0.212-0.065,0.47-0.097,0.774-0.097c0.806,0,1.432,0.243,1.878,0.728
		c0.446,0.485,0.683,1.235,0.709,2.249c0.009,0.087,0.013,0.351,0.013,0.793c0,0.451-0.004,0.719-0.013,0.806
		c-0.026,1.04-0.279,1.807-0.76,2.301C224.707,248.029,223.912,248.276,222.803,248.276 M263.232,248.263
		c-0.139,0-0.208-0.07-0.208-0.208v-0.325c0-0.147,0.091-0.255,0.273-0.325l0.533-0.208c0.667-0.26,1.176-0.62,1.527-1.079
		c0.351-0.459,0.527-1.144,0.527-2.054c0-0.65-0.078-1.161-0.234-1.534c-0.156-0.373-0.414-0.641-0.773-0.806
		c-0.36-0.165-0.852-0.247-1.475-0.247h-0.442h-0.039l-1.014-0.013l-0.208-0.072l-0.078-0.201v-1.989l0.078-0.208l0.208-0.078h0.221
		l0.208,0.078l0.078,0.208v1.521h1.053c0.806,0,1.441,0.111,1.904,0.332c0.464,0.221,0.797,0.578,1.001,1.072
		c0.204,0.494,0.306,1.17,0.306,2.028c0,1.118-0.253,1.972-0.76,2.561c-0.507,0.59-1.185,1.036-2.035,1.339l-0.546,0.195
		L263.232,248.263 M189.068,248.263c-0.139,0-0.208-0.07-0.208-0.208v-0.325c0-0.147,0.091-0.255,0.273-0.325l0.533-0.208
		c0.667-0.26,1.176-0.62,1.527-1.079c0.351-0.459,0.527-1.144,0.527-2.054c0-0.65-0.078-1.161-0.234-1.534
		c-0.156-0.373-0.414-0.641-0.774-0.806c-0.36-0.165-0.851-0.247-1.475-0.247h-0.442h-0.039l-1.014-0.013l-0.208-0.072l-0.078-0.201
		v-1.989l0.078-0.208l0.208-0.078h0.221l0.208,0.078l0.078,0.208v1.521h1.053c0.806,0,1.441,0.111,1.904,0.332
		c0.464,0.221,0.797,0.578,1.001,1.072c0.204,0.494,0.306,1.17,0.306,2.028c0,1.118-0.253,1.972-0.76,2.561
		c-0.507,0.59-1.185,1.036-2.034,1.339l-0.546,0.195L189.068,248.263 M179.268,248.213c-0.039,0-0.079-0.001-0.119-0.001h-0.871
		c-0.511,0-0.981-0.128-1.41-0.384c-0.429-0.255-0.769-0.622-1.021-1.099c-0.251-0.476-0.377-1.031-0.377-1.664v-4.056l0.078-0.208
		l0.208-0.078h0.221l0.208,0.078l0.078,0.208l0.052,3.887c0.884-0.06,1.504-0.279,1.859-0.656c0.355-0.377,0.533-0.865,0.533-1.463
		v-1.768l0.078-0.208l0.208-0.078h0.221l0.208,0.078l0.078,0.208v1.833c0,0.772-0.264,1.419-0.793,1.944
		c-0.529,0.525-1.309,0.813-2.34,0.865c0.095,0.572,0.347,1.014,0.754,1.326c0.407,0.312,0.914,0.468,1.521,0.468h0.455
		c0.029,0.001,0.057,0.001,0.086,0.001c0.833,0,1.477-0.25,1.929-0.748c0.468-0.516,0.702-1.211,0.702-2.087v-3.601l0.078-0.208
		l0.208-0.078h0.221l0.208,0.078l0.078,0.208v3.692c0,0.719-0.143,1.348-0.429,1.885c-0.286,0.537-0.689,0.947-1.209,1.229
		C180.479,248.08,179.912,248.213,179.268,248.213 M259.683,248.146h-0.221l-0.208-0.078l-0.078-0.208v-3.9
		c0-1.655-0.828-2.483-2.483-2.483h-2.236l-0.208-0.078l-0.078-0.208v-0.182l0.078-0.208l0.208-0.078h2.301
		c1.083,0,1.889,0.271,2.418,0.813c0.529,0.542,0.793,1.328,0.793,2.36v3.965l-0.078,0.208L259.683,248.146 M254.678,248.146h-0.221
		l-0.208-0.078l-0.078-0.208v-4.563l0.078-0.208l0.208-0.078h0.221l0.208,0.078l0.078,0.208v4.563l-0.078,0.208L254.678,248.146
		 M249.075,248.146h-1.911l-0.208-0.078l-0.078-0.208v-0.182l0.078-0.208l0.208-0.078h1.846c0.849,0,1.467-0.21,1.852-0.63
		c0.386-0.42,0.596-1.038,0.631-1.853c0.009-0.13,0.013-0.29,0.013-0.481c0-0.182-0.004-0.338-0.013-0.468
		c-0.026-0.815-0.234-1.432-0.624-1.852c-0.39-0.42-1.01-0.631-1.859-0.631h-1.846l-0.208-0.078l-0.078-0.208v-0.182l0.078-0.208
		l0.208-0.078h1.911c1.075,0,1.87,0.269,2.385,0.806c0.516,0.537,0.791,1.326,0.825,2.366c0.009,0.13,0.013,0.308,0.013,0.533
		c0,0.234-0.004,0.416-0.013,0.546c-0.035,1.04-0.31,1.829-0.825,2.366C250.945,247.878,250.15,248.146,249.075,248.146
		 M235.36,248.146h-0.221l-0.208-0.078l-0.078-0.208v-3.9c0-1.655-0.828-2.483-2.483-2.483h-1.586l-0.208-0.078l-0.078-0.208v-0.182
		l0.078-0.208l0.208-0.078h1.651c1.083,0,1.889,0.271,2.418,0.813c0.529,0.542,0.793,1.328,0.793,2.36v3.965l-0.078,0.208
		L235.36,248.146 M228.34,248.146h-0.221l-0.208-0.078l-0.078-0.208v-6.851l0.078-0.208l0.208-0.078h0.221l0.208,0.078l0.078,0.208
		v6.851l-0.078,0.208L228.34,248.146 M217.953,248.146h-5.2l-0.208-0.078l-0.078-0.208v-0.182l0.078-0.208l0.208-0.078h3.913v-3.432
		c0-1.655-0.828-2.483-2.483-2.483h-1.3l-0.208-0.078l-0.078-0.208v-0.182l0.078-0.208l0.208-0.078h1.365
		c1.083,0,1.889,0.273,2.418,0.819c0.529,0.546,0.793,1.33,0.793,2.353v3.497h0.494l0.208,0.078l0.078,0.208v0.182l-0.078,0.208
		L217.953,248.146 M207.06,248.146h-3.289l-0.208-0.078l-0.078-0.208v-0.182l0.078-0.208l0.208-0.078h2.782v-3.432
		c0-0.476-0.085-0.905-0.254-1.287c-0.169-0.381-0.403-0.676-0.702-0.884c-0.299-0.208-0.635-0.312-1.008-0.312h-1.508l-0.962,6.37
		l-0.11,0.214l-0.214,0.085h-0.234l-0.182-0.085l-0.052-0.214l0.949-6.37h-0.585l-0.208-0.078l-0.078-0.208v-0.182l0.078-0.208
		l0.208-0.078h2.964c0.52,0,0.983,0.13,1.391,0.39c0.407,0.26,0.726,0.63,0.956,1.111c0.23,0.481,0.345,1.038,0.345,1.671v3.965
		l-0.078,0.208L207.06,248.146 M196.608,248.146h-1.911l-0.208-0.078l-0.078-0.208v-0.182l0.078-0.208l0.208-0.078h1.846
		c0.849,0,1.467-0.21,1.852-0.63c0.386-0.42,0.596-1.038,0.631-1.853c0.008-0.13,0.013-0.29,0.013-0.481
		c0-0.182-0.005-0.338-0.013-0.468c-0.026-0.815-0.234-1.432-0.624-1.852c-0.39-0.42-1.01-0.631-1.859-0.631h-1.846l-0.208-0.078
		l-0.078-0.208v-0.182l0.078-0.208l0.208-0.078h1.911c1.074,0,1.87,0.269,2.385,0.806c0.516,0.537,0.791,1.326,0.825,2.366
		c0.009,0.13,0.013,0.308,0.013,0.533c0,0.234-0.004,0.416-0.013,0.546c-0.035,1.04-0.31,1.829-0.825,2.366
		C198.477,247.878,197.682,248.146,196.608,248.146 M173.52,248.146h-0.247l-0.176-0.045l-0.149-0.15l-3.211-4.472
		c-0.425,0.304-0.713,0.655-0.864,1.053c-0.152,0.399-0.228,0.841-0.228,1.326v2.002l-0.078,0.208l-0.208,0.078h-0.221l-0.208-0.078
		l-0.078-0.208v-2.067c0-0.615,0.098-1.164,0.292-1.645c0.195-0.481,0.579-0.908,1.151-1.28l-1.157-1.625
		c-0.069-0.104-0.104-0.191-0.104-0.26l0.078-0.182l0.182-0.078h0.247c0.121,0,0.229,0.065,0.325,0.195l2.938,4.095
		c0.364-0.199,0.628-0.405,0.793-0.617c0.165-0.212,0.266-0.427,0.306-0.644c0.039-0.217,0.058-0.507,0.058-0.871v-1.872
		l0.078-0.208l0.208-0.078h0.221l0.208,0.078l0.078,0.208v1.937c0,0.399-0.035,0.743-0.104,1.033
		c-0.07,0.29-0.215,0.572-0.436,0.845c-0.221,0.273-0.548,0.535-0.981,0.786l1.443,2.015c0.069,0.104,0.104,0.191,0.104,0.26
		l-0.078,0.182L173.52,248.146 M165.824,248.146h-0.221l-0.208-0.078l-0.078-0.208v-3.9c0-1.655-0.828-2.483-2.483-2.483h-1.586
		l-0.208-0.078l-0.078-0.208v-0.182l0.078-0.208l0.208-0.078h1.651c1.083,0,1.889,0.271,2.418,0.813
		c0.529,0.542,0.793,1.328,0.793,2.36v3.965l-0.078,0.208L165.824,248.146 M155.853,248.146h-0.221l-0.208-0.078l-0.078-0.208v-3.9
		c0-1.655-0.828-2.483-2.483-2.483h-2.236l-0.208-0.078l-0.078-0.208v-0.182l0.078-0.208l0.208-0.078h2.301
		c1.083,0,1.889,0.271,2.418,0.813c0.529,0.542,0.793,1.328,0.793,2.36v3.965l-0.078,0.208L155.853,248.146 M150.848,248.146h-0.221
		l-0.208-0.078l-0.078-0.208v-4.563l0.078-0.208l0.208-0.078h0.221l0.208,0.078l0.078,0.208v4.563l-0.078,0.208L150.848,248.146
		 M147.949,248.146h-0.221l-0.208-0.078l-0.078-0.208v-3.9c0-1.655-0.828-2.483-2.483-2.483h-1.742v6.383l-0.078,0.208l-0.208,0.078
		h-0.221l-0.208-0.078l-0.078-0.208v-6.851l0.078-0.208l0.208-0.078h2.314c1.083,0,1.889,0.271,2.418,0.813
		c0.529,0.542,0.793,1.328,0.793,2.36v3.965l-0.078,0.208L147.949,248.146 M139.954,248.146h-0.221l-0.208-0.078l-0.078-0.208
		v-6.851l0.078-0.208l0.208-0.078h0.221l0.208,0.078l0.078,0.208v6.851l-0.078,0.208L139.954,248.146 M137.055,248.146h-3.289
		l-0.208-0.078l-0.078-0.208v-0.182l0.078-0.208l0.208-0.078h2.782v-3.432c0-0.476-0.084-0.905-0.253-1.287
		c-0.169-0.381-0.403-0.676-0.702-0.884c-0.299-0.208-0.635-0.312-1.007-0.312h-1.508l-0.962,6.37l-0.11,0.214l-0.215,0.085h-0.234
		l-0.182-0.085l-0.052-0.214l0.949-6.37h-0.585l-0.208-0.078l-0.078-0.208v-0.182l0.078-0.208l0.208-0.078h2.964
		c0.52,0,0.983,0.13,1.391,0.39c0.407,0.26,0.726,0.63,0.956,1.111c0.23,0.481,0.344,1.038,0.344,1.671v3.965l-0.078,0.208
		L137.055,248.146 M129.242,248.146h-0.221l-0.208-0.078l-0.078-0.208v-3.9c0-1.655-0.828-2.483-2.483-2.483h-1.586l-0.208-0.078
		l-0.078-0.208v-0.182l0.078-0.208l0.208-0.078h1.651c1.083,0,1.889,0.271,2.418,0.813c0.529,0.542,0.793,1.328,0.793,2.36v3.965
		l-0.078,0.208L129.242,248.146 M119.532,248.146h-5.226l-0.208-0.078l-0.078-0.208v-6.851l0.078-0.208l0.208-0.078h2.301
		c1.083,0,1.889,0.271,2.418,0.813c0.529,0.542,0.793,1.328,0.793,2.36v3.965l-0.078,0.208L119.532,248.146 M114.8,241.477v5.915
		h4.225v-3.432c0-1.655-0.828-2.483-2.483-2.483H114.8 M244.486,245.156h-0.221l-0.208-0.078l-0.078-0.208v-3.861l0.078-0.208
		l0.208-0.078h0.221l0.208,0.078l0.078,0.208v3.861l-0.078,0.208L244.486,245.156 M122.326,245.156h-0.221l-0.208-0.078
		l-0.078-0.208v-3.861l0.078-0.208l0.208-0.078h0.221l0.208,0.078l0.078,0.208v3.861l-0.078,0.208L122.326,245.156"/>
	<path fill="#000000" d="M280.318,270.846c-0.771,0-1.424-0.121-1.956-0.364c-0.533-0.243-0.932-0.548-1.196-0.916
		c-0.264-0.368-0.405-0.747-0.423-1.137l0.078-0.195l0.195-0.078h1.196c0.19,0,0.321,0.087,0.39,0.26
		c0.19,0.616,0.762,0.923,1.716,0.923c0.529,0,0.943-0.121,1.241-0.364c0.299-0.243,0.449-0.589,0.449-1.04
		c0-0.451-0.137-0.778-0.41-0.982c-0.273-0.203-0.674-0.306-1.202-0.306h-1.339l-0.221-0.091l-0.091-0.221v-0.559
		c0-0.165,0.056-0.295,0.169-0.39l2.314-2.262h-3.705c-0.095,0-0.173-0.03-0.234-0.091l-0.091-0.221v-0.871
		c0-0.095,0.03-0.173,0.091-0.234c0.061-0.061,0.139-0.091,0.234-0.091h5.59c0.095,0,0.173,0.03,0.234,0.091
		c0.061,0.061,0.091,0.139,0.091,0.234v0.793c0,0.148-0.056,0.269-0.169,0.364l-2.236,2.301l0.156,0.013
		c0.832,0.069,1.493,0.321,1.982,0.754c0.49,0.433,0.735,1.053,0.735,1.859c0,0.572-0.154,1.07-0.461,1.495
		c-0.308,0.425-0.732,0.752-1.274,0.981S281.011,270.846,280.318,270.846"/>
	<path fill="#000000" d="M254.379,273.199h-0.221l-0.208-0.078l-0.078-0.208v-7.046l0.078-0.208l0.208-0.078h0.221l0.208,0.078
		l0.078,0.208v7.046l-0.078,0.208L254.379,273.199 M187.508,273.199h-0.221l-0.208-0.078l-0.078-0.208v-7.046l0.078-0.208
		l0.208-0.078h0.221l0.208,0.078l0.078,0.208v7.046l-0.078,0.208L187.508,273.199 M245.006,272.328h-0.221l-0.208-0.078
		l-0.078-0.208v-5.512c0-1.655-0.828-2.483-2.483-2.483h-1.313v1.56c0,0.407,0.043,0.726,0.13,0.956
		c0.087,0.23,0.238,0.371,0.455,0.422l0.533,0.13c0.147,0.043,0.221,0.182,0.221,0.416v0.182l-0.085,0.156l-0.214,0.052
		l-0.104-0.013l-0.494-0.117c-0.416-0.095-0.724-0.321-0.923-0.676c-0.199-0.355-0.299-0.858-0.299-1.508v-2.028l0.078-0.208
		l0.208-0.078h1.872c1.083,0,1.889,0.271,2.418,0.813c0.529,0.542,0.793,1.328,0.793,2.36v5.577l-0.078,0.208L245.006,272.328
		 M141.931,272.328h-0.221l-0.208-0.078l-0.078-0.208v-5.512c0-1.655-0.832-2.483-2.496-2.483h-1.846l-0.208-0.078l-0.078-0.208
		v-0.182l0.078-0.208l0.208-0.078h1.911c1.092,0,1.902,0.264,2.431,0.793c0.529,0.529,0.793,1.322,0.793,2.379v5.577l-0.078,0.208
		L141.931,272.328 M98.277,272.328h-0.221l-0.208-0.078l-0.078-0.208v-8.463l0.078-0.208l0.208-0.078h0.221l0.208,0.078l0.078,0.208
		v8.463l-0.078,0.208L98.277,272.328 M204.68,270.846c-1.031,0-1.803-0.275-2.314-0.825c-0.512-0.55-0.767-1.354-0.767-2.412v-4.03
		l0.078-0.208l0.208-0.078h3.055c1.075,0,1.846,0.247,2.314,0.741c0.468,0.494,0.723,1.261,0.767,2.301
		c0.009,0.087,0.013,0.329,0.013,0.728c0,0.407-0.005,0.655-0.013,0.741c-0.026,1.031-0.303,1.796-0.832,2.295
		C206.661,270.597,205.824,270.846,204.68,270.846 M202.393,264.047v3.562c0,0.798,0.19,1.41,0.572,1.84
		c0.381,0.429,0.953,0.643,1.716,0.643c0.893,0,1.536-0.193,1.931-0.579c0.394-0.386,0.6-0.977,0.617-1.774
		c0.009-0.087,0.013-0.312,0.013-0.676c0-0.355-0.004-0.576-0.013-0.663c-0.017-0.762-0.239-1.345-0.663-1.748
		c-0.425-0.403-0.988-0.604-1.69-0.604H202.393 M263.232,270.833c-0.139,0-0.208-0.069-0.208-0.208V270.3
		c0-0.147,0.091-0.255,0.273-0.325l0.533-0.208c0.667-0.26,1.176-0.619,1.527-1.079c0.351-0.459,0.527-1.144,0.527-2.054
		c0-0.65-0.078-1.161-0.234-1.534c-0.156-0.373-0.414-0.641-0.773-0.806c-0.36-0.165-0.852-0.247-1.475-0.247h-0.442h-0.039
		l-1.014-0.013l-0.208-0.072l-0.078-0.201v-1.989l0.078-0.208l0.208-0.078h0.221l0.208,0.078l0.078,0.208v1.521h1.053
		c0.806,0,1.441,0.111,1.904,0.331c0.464,0.221,0.797,0.579,1.001,1.073c0.204,0.494,0.306,1.17,0.306,2.028
		c0,1.118-0.253,1.972-0.76,2.561c-0.507,0.589-1.185,1.036-2.035,1.339l-0.546,0.195L263.232,270.833 M256.303,270.833
		c-0.139,0-0.208-0.069-0.208-0.208V270.3c0-0.147,0.091-0.255,0.273-0.325l0.533-0.208c0.667-0.26,1.177-0.619,1.527-1.079
		c0.351-0.459,0.527-1.144,0.527-2.054c0-0.65-0.078-1.161-0.234-1.534c-0.156-0.373-0.414-0.641-0.773-0.806
		c-0.36-0.165-0.852-0.247-1.476-0.247h-2.314l-0.208-0.078l-0.078-0.208v-0.182l0.078-0.208l0.208-0.078h2.379
		c0.806,0,1.441,0.111,1.905,0.331c0.464,0.221,0.797,0.579,1.001,1.073c0.203,0.494,0.306,1.17,0.306,2.028
		c0,1.118-0.254,1.972-0.761,2.561c-0.507,0.589-1.185,1.036-2.034,1.339l-0.546,0.195L256.303,270.833 M248.555,270.833
		c-0.139,0-0.208-0.069-0.208-0.208V270.3c0-0.147,0.091-0.255,0.273-0.325l0.533-0.208c0.667-0.26,1.176-0.619,1.527-1.079
		c0.351-0.459,0.526-1.144,0.526-2.054c0-0.65-0.078-1.161-0.234-1.534c-0.156-0.373-0.414-0.641-0.773-0.806
		c-0.36-0.165-0.852-0.247-1.476-0.247h-0.442h-0.039l-1.014-0.013l-0.208-0.072l-0.078-0.201v-1.989l0.078-0.208l0.208-0.078h0.221
		l0.208,0.078l0.078,0.208v1.521h1.053c0.806,0,1.441,0.111,1.905,0.331c0.464,0.221,0.797,0.579,1.001,1.073
		c0.203,0.494,0.306,1.17,0.306,2.028c0,1.118-0.253,1.972-0.761,2.561c-0.507,0.589-1.185,1.036-2.034,1.339l-0.546,0.195
		L248.555,270.833 M196.361,270.833c-0.139,0-0.208-0.069-0.208-0.208V270.3c0-0.147,0.091-0.255,0.273-0.325l0.533-0.208
		c0.667-0.26,1.176-0.619,1.527-1.079c0.351-0.459,0.527-1.144,0.527-2.054c0-0.65-0.078-1.161-0.234-1.534
		c-0.156-0.373-0.414-0.641-0.773-0.806c-0.36-0.165-0.851-0.247-1.475-0.247h-0.442h-0.039l-1.014-0.013l-0.208-0.072l-0.078-0.201
		v-1.989l0.078-0.208l0.208-0.078h0.221l0.208,0.078l0.078,0.208v1.521h1.053c0.806,0,1.441,0.111,1.904,0.331
		c0.464,0.221,0.797,0.579,1.001,1.073c0.204,0.494,0.306,1.17,0.306,2.028c0,1.118-0.253,1.972-0.76,2.561
		c-0.507,0.589-1.185,1.036-2.035,1.339l-0.546,0.195L196.361,270.833 M189.432,270.833c-0.139,0-0.208-0.069-0.208-0.208V270.3
		c0-0.147,0.091-0.255,0.273-0.325l0.533-0.208c0.667-0.26,1.176-0.619,1.527-1.079c0.351-0.459,0.526-1.144,0.526-2.054
		c0-0.65-0.078-1.161-0.234-1.534c-0.156-0.373-0.414-0.641-0.773-0.806c-0.36-0.165-0.852-0.247-1.475-0.247h-2.314l-0.208-0.078
		l-0.078-0.208v-0.182l0.078-0.208l0.208-0.078h2.379c0.806,0,1.441,0.111,1.905,0.331c0.464,0.221,0.797,0.579,1.001,1.073
		c0.203,0.494,0.306,1.17,0.306,2.028c0,1.118-0.253,1.972-0.761,2.561c-0.507,0.589-1.185,1.036-2.034,1.339l-0.546,0.195
		L189.432,270.833 M164.68,270.833c-0.139,0-0.208-0.069-0.208-0.208V270.3c0-0.147,0.091-0.255,0.273-0.325l0.533-0.208
		c0.667-0.26,1.176-0.619,1.527-1.079c0.351-0.459,0.527-1.144,0.527-2.054c0-0.65-0.078-1.161-0.234-1.534
		c-0.156-0.373-0.414-0.641-0.774-0.806c-0.36-0.165-0.851-0.247-1.475-0.247h-0.442h-0.039l-1.014-0.013l-0.208-0.072l-0.078-0.201
		v-1.989l0.078-0.208l0.208-0.078h0.221l0.208,0.078l0.078,0.208v1.521h1.053c0.806,0,1.441,0.111,1.904,0.331
		s0.797,0.579,1.001,1.073c0.204,0.494,0.306,1.17,0.306,2.028c0,1.118-0.253,1.972-0.76,2.561
		c-0.507,0.589-1.185,1.036-2.034,1.339l-0.546,0.195L164.68,270.833 M73.097,270.833c-0.148,0-0.221-0.069-0.221-0.208v-0.351
		c0-0.147,0.091-0.256,0.273-0.325c0.632-0.225,1.083-0.429,1.352-0.611c0.329-0.225,0.645-0.539,0.949-0.942
		c0.303-0.403,0.455-0.73,0.455-0.982L75.71,266.4c-0.113-0.563-0.234-1.01-0.364-1.339c-0.13-0.329-0.301-0.581-0.514-0.754
		c-0.212-0.173-0.492-0.26-0.838-0.26h-0.481l-0.208-0.078l-0.078-0.208v-0.182l0.078-0.208l0.208-0.078h0.481
		c0.502,0,0.914,0.113,1.235,0.338c0.321,0.226,0.576,0.557,0.767,0.994c0.19,0.438,0.359,1.008,0.507,1.71l0.793,4.095v0.039
		l-0.085,0.176l-0.201,0.072h-0.221c-0.148,0-0.243-0.095-0.286-0.286l-0.338-1.729c-0.165,0.278-0.353,0.535-0.565,0.774
		c-0.213,0.239-0.427,0.431-0.644,0.578c-0.312,0.217-0.607,0.384-0.884,0.501c-0.278,0.117-0.572,0.206-0.884,0.266L73.097,270.833
		 M58.212,270.833c-0.148,0-0.221-0.069-0.221-0.208v-0.351c0-0.147,0.091-0.256,0.273-0.325c0.633-0.225,1.083-0.429,1.352-0.611
		c0.329-0.225,0.645-0.539,0.949-0.942c0.303-0.403,0.455-0.73,0.455-0.982l-0.195-1.014c-0.113-0.563-0.234-1.01-0.364-1.339
		c-0.13-0.329-0.301-0.581-0.513-0.754c-0.213-0.173-0.492-0.26-0.839-0.26h-0.481l-0.208-0.078l-0.078-0.208v-0.182l0.078-0.208
		l0.208-0.078h0.481c0.503,0,0.914,0.113,1.235,0.338c0.321,0.226,0.576,0.557,0.767,0.994c0.19,0.438,0.359,1.008,0.507,1.71
		l0.793,4.095v0.039l-0.085,0.176l-0.201,0.072h-0.221c-0.148,0-0.243-0.095-0.286-0.286l-0.338-1.729
		c-0.165,0.278-0.353,0.535-0.566,0.774c-0.212,0.239-0.427,0.431-0.643,0.578c-0.312,0.217-0.607,0.384-0.884,0.501
		c-0.278,0.117-0.572,0.206-0.884,0.266L58.212,270.833 M36.047,270.833c-0.139,0-0.208-0.069-0.208-0.208V270.3
		c0-0.147,0.091-0.255,0.273-0.325l0.533-0.208c0.667-0.26,1.176-0.619,1.527-1.079c0.351-0.459,0.527-1.144,0.527-2.054
		c0-0.65-0.078-1.161-0.234-1.534c-0.156-0.373-0.414-0.641-0.773-0.806c-0.36-0.165-0.851-0.247-1.475-0.247h-0.442h-0.039
		l-1.014-0.013l-0.208-0.072l-0.078-0.201v-1.989l0.078-0.208l0.208-0.078h0.221l0.208,0.078l0.078,0.208v1.521h1.053
		c0.806,0,1.441,0.111,1.904,0.331c0.464,0.221,0.797,0.579,1.001,1.073c0.204,0.494,0.306,1.17,0.306,2.028
		c0,1.118-0.253,1.972-0.76,2.561c-0.507,0.589-1.185,1.036-2.034,1.339l-0.546,0.195L36.047,270.833 M29.365,270.833
		c-0.148,0-0.221-0.069-0.221-0.208v-0.351c0-0.147,0.091-0.256,0.273-0.325c0.632-0.225,1.083-0.429,1.352-0.611
		c0.329-0.225,0.645-0.539,0.949-0.942c0.303-0.403,0.455-0.73,0.455-0.982l-0.195-1.014c-0.113-0.563-0.234-1.01-0.364-1.339
		c-0.13-0.329-0.301-0.581-0.514-0.754c-0.213-0.173-0.492-0.26-0.838-0.26h-0.481l-0.208-0.078l-0.078-0.208v-0.182l0.078-0.208
		l0.208-0.078h0.481c0.502,0,0.914,0.113,1.235,0.338c0.321,0.226,0.576,0.557,0.767,0.994c0.19,0.438,0.359,1.008,0.507,1.71
		l0.793,4.095v0.039l-0.085,0.176l-0.201,0.072h-0.221c-0.148,0-0.243-0.095-0.286-0.286l-0.338-1.729
		c-0.165,0.278-0.353,0.535-0.565,0.774c-0.213,0.239-0.427,0.431-0.644,0.578c-0.312,0.217-0.607,0.384-0.884,0.501
		c-0.278,0.117-0.572,0.206-0.884,0.266L29.365,270.833 M234.775,270.716h-0.247l-0.176-0.045l-0.15-0.15l-3.211-4.472
		c-0.425,0.303-0.713,0.655-0.865,1.053c-0.152,0.399-0.227,0.841-0.227,1.326v2.002l-0.078,0.208l-0.208,0.078h-0.221l-0.208-0.078
		l-0.078-0.208v-2.067c0-0.615,0.098-1.164,0.293-1.645c0.195-0.481,0.579-0.908,1.151-1.28l-1.157-1.625
		c-0.07-0.104-0.104-0.19-0.104-0.26l0.078-0.182l0.182-0.078h0.247c0.121,0,0.23,0.065,0.325,0.195l2.938,4.095
		c0.364-0.199,0.628-0.405,0.793-0.617c0.165-0.212,0.267-0.427,0.306-0.644c0.039-0.217,0.058-0.507,0.058-0.871v-1.872
		l0.078-0.208l0.208-0.078h0.221l0.208,0.078l0.078,0.208v1.937c0,0.399-0.035,0.743-0.104,1.034
		c-0.069,0.29-0.214,0.572-0.435,0.845c-0.221,0.273-0.548,0.535-0.982,0.787l1.443,2.015c0.069,0.104,0.104,0.191,0.104,0.26
		l-0.078,0.182L234.775,270.716 M227.079,270.716h-0.221l-0.208-0.078l-0.078-0.208v-3.9c0-1.655-0.828-2.483-2.483-2.483h-0.988
		c-0.087,0.624-0.15,1.127-0.189,1.508c-0.039,0.382-0.054,0.815-0.045,1.3v3.575l-0.078,0.208l-0.208,0.078l-1.482-0.026
		l-0.208-0.078l-0.078-0.208v-0.182l0.078-0.208l0.208-0.078l0.975,0.013v-3.029v-0.403c0-0.477,0.017-0.895,0.052-1.254
		c0.035-0.36,0.1-0.765,0.195-1.216h-0.663l-0.208-0.078l-0.078-0.208v-0.182l0.078-0.208l0.208-0.078h2.496
		c1.083,0,1.889,0.271,2.418,0.813c0.529,0.542,0.793,1.328,0.793,2.36v3.965l-0.078,0.208L227.079,270.716 M215.418,270.716h-0.221
		l-0.208-0.078l-0.078-0.208v-3.9c0-1.655-0.828-2.483-2.483-2.483h-2.236l-0.208-0.078l-0.078-0.208v-0.182l0.078-0.208
		l0.208-0.078h2.301c1.083,0,1.889,0.271,2.418,0.813c0.529,0.542,0.793,1.328,0.793,2.36v3.965l-0.078,0.208L215.418,270.716
		 M210.414,270.716h-0.221l-0.208-0.078l-0.078-0.208v-4.563l0.078-0.208l0.208-0.078h0.221l0.208,0.078l0.078,0.208v4.563
		l-0.078,0.208L210.414,270.716 M181.84,270.716h-5.226l-0.208-0.078l-0.078-0.208v-6.851l0.078-0.208l0.208-0.078h2.301
		c1.083,0,1.889,0.271,2.418,0.813c0.529,0.542,0.793,1.328,0.793,2.36v3.965l-0.078,0.208L181.84,270.716 M177.108,264.047v5.915
		h4.225v-3.432c0-1.655-0.828-2.483-2.483-2.483H177.108 M170.504,270.716h-0.221l-0.208-0.078l-0.078-0.208v-6.851l0.078-0.208
		l0.208-0.078h0.221l0.208,0.078l0.078,0.208v6.851l-0.078,0.208L170.504,270.716 M161.131,270.716h-0.221l-0.208-0.078
		l-0.078-0.208v-3.9c0-1.655-0.828-2.483-2.483-2.483h-1.742v6.383l-0.078,0.208l-0.208,0.078h-0.221l-0.208-0.078l-0.078-0.208
		v-6.851l0.078-0.208l0.208-0.078h2.314c1.083,0,1.889,0.271,2.418,0.813c0.529,0.542,0.793,1.328,0.793,2.36v3.965l-0.078,0.208
		L161.131,270.716 M153.214,270.716h-0.221l-0.208-0.078l-0.078-0.208v-3.9c0-1.655-0.828-2.483-2.483-2.483h-0.988
		c-0.087,0.624-0.149,1.127-0.188,1.508c-0.039,0.382-0.054,0.815-0.045,1.3v3.575l-0.078,0.208l-0.208,0.078l-1.482-0.026
		l-0.208-0.078l-0.078-0.208v-0.182l0.078-0.208l0.208-0.078l0.975,0.013v-3.029v-0.403c0-0.477,0.017-0.895,0.052-1.254
		c0.035-0.36,0.1-0.765,0.195-1.216h-0.663l-0.208-0.078l-0.078-0.208v-0.182l0.078-0.208l0.208-0.078h2.496
		c1.083,0,1.889,0.271,2.418,0.813c0.529,0.542,0.793,1.328,0.793,2.36v3.965l-0.078,0.208L153.214,270.716 M144.829,270.716h-0.221
		l-0.208-0.078l-0.078-0.208v-6.851l0.078-0.208l0.208-0.078h0.221l0.208,0.078l0.078,0.208v6.851l-0.078,0.208L144.829,270.716
		 M132.337,270.716h-5.2l-0.208-0.078l-0.078-0.208v-0.182l0.078-0.208l0.208-0.078h3.913v-3.432c0-1.655-0.828-2.483-2.483-2.483
		h-1.3l-0.208-0.078l-0.078-0.208v-0.182l0.078-0.208l0.208-0.078h1.365c1.083,0,1.889,0.273,2.418,0.819
		c0.529,0.546,0.793,1.33,0.793,2.353v3.497h0.494l0.208,0.078l0.078,0.208v0.182l-0.078,0.208L132.337,270.716 M124.797,270.716
		h-0.221l-0.208-0.078l-0.078-0.208v-3.9c0-1.655-0.828-2.483-2.483-2.483h-1.742v6.383l-0.078,0.208l-0.208,0.078h-0.221
		l-0.208-0.078l-0.078-0.208v-6.851l0.078-0.208l0.208-0.078h2.314c1.083,0,1.889,0.271,2.418,0.813
		c0.529,0.542,0.793,1.328,0.793,2.36v3.965l-0.078,0.208L124.797,270.716 M116.802,270.716h-0.221l-0.208-0.078l-0.078-0.208
		v-6.851l0.078-0.208l0.208-0.078h0.221l0.208,0.078l0.078,0.208v6.851l-0.078,0.208L116.802,270.716 M113.903,270.716h-0.221
		l-0.208-0.078l-0.078-0.208v-3.9c0-1.655-0.828-2.483-2.483-2.483h-0.988c-0.087,0.624-0.15,1.127-0.189,1.508
		c-0.039,0.382-0.054,0.815-0.045,1.3v3.575l-0.078,0.208l-0.208,0.078l-1.482-0.026l-0.208-0.078l-0.078-0.208v-0.182l0.078-0.208
		l0.208-0.078l0.975,0.013v-3.029v-0.403c0-0.477,0.017-0.895,0.052-1.254c0.035-0.36,0.1-0.765,0.195-1.216h-0.663l-0.208-0.078
		l-0.078-0.208v-0.182l0.078-0.208l0.208-0.078h2.496c1.083,0,1.889,0.271,2.418,0.813c0.529,0.542,0.793,1.328,0.793,2.36v3.965
		l-0.078,0.208L113.903,270.716 M102.97,270.716h-1.911l-0.208-0.078l-0.078-0.208v-0.182l0.078-0.208l0.208-0.078h1.846
		c0.849,0,1.467-0.21,1.853-0.63c0.386-0.42,0.596-1.038,0.63-1.853c0.009-0.13,0.013-0.29,0.013-0.481
		c0-0.182-0.005-0.338-0.013-0.468c-0.026-0.815-0.234-1.432-0.624-1.853c-0.39-0.42-1.01-0.63-1.859-0.63h-1.846l-0.208-0.078
		l-0.078-0.208v-0.182l0.078-0.208l0.208-0.078h1.911c1.075,0,1.87,0.269,2.386,0.806c0.515,0.537,0.791,1.326,0.825,2.366
		c0.008,0.13,0.013,0.308,0.013,0.533c0,0.234-0.005,0.416-0.013,0.546c-0.035,1.04-0.31,1.829-0.825,2.366
		C104.84,270.447,104.045,270.716,102.97,270.716 M92.024,270.716h-0.221l-0.208-0.078l-0.078-0.208v-3.9
		c0-1.655-0.828-2.483-2.483-2.483h-2.236l-0.208-0.078l-0.078-0.208v-0.182l0.078-0.208l0.208-0.078h2.301
		c1.083,0,1.889,0.271,2.418,0.813c0.529,0.542,0.793,1.328,0.793,2.36v3.965l-0.078,0.208L92.024,270.716 M87.019,270.716h-0.221
		l-0.208-0.078l-0.078-0.208v-4.563l0.078-0.208l0.208-0.078h0.221l0.208,0.078l0.078,0.208v4.563l-0.078,0.208L87.019,270.716
		 M82.808,270.716h-0.221l-0.208-0.078l-0.078-0.208v-4.914c0-0.338,0.033-0.637,0.098-0.897s0.15-0.451,0.253-0.572h-1.183
		l-0.208-0.078l-0.078-0.208v-0.182l0.078-0.208l0.208-0.078h2.886l0.208,0.078l0.078,0.208v0.182l-0.078,0.208l-0.208,0.078h-0.832
		c-0.139,0.121-0.245,0.319-0.319,0.592c-0.074,0.273-0.11,0.587-0.11,0.942v4.849l-0.078,0.208L82.808,270.716 M64.816,270.716
		h-0.221l-0.208-0.078l-0.078-0.208v-4.914c0-0.338,0.033-0.637,0.097-0.897c0.065-0.26,0.15-0.451,0.254-0.572h-1.183l-0.208-0.078
		l-0.078-0.208v-0.182l0.078-0.208l0.208-0.078h2.886l0.208,0.078l0.078,0.208v0.182l-0.078,0.208l-0.208,0.078h-0.832
		c-0.139,0.121-0.245,0.319-0.319,0.592c-0.074,0.273-0.11,0.587-0.11,0.942v4.849l-0.078,0.208L64.816,270.716 M52.999,270.716
		h-0.247l-0.176-0.045l-0.15-0.15l-3.211-4.472c-0.425,0.303-0.713,0.655-0.865,1.053c-0.152,0.399-0.227,0.841-0.227,1.326v2.002
		l-0.078,0.208l-0.208,0.078h-0.221l-0.208-0.078l-0.078-0.208v-2.067c0-0.615,0.097-1.164,0.292-1.645s0.579-0.908,1.151-1.28
		l-1.157-1.625c-0.07-0.104-0.104-0.19-0.104-0.26l0.078-0.182l0.182-0.078h0.247c0.121,0,0.23,0.065,0.325,0.195l2.938,4.095
		c0.364-0.199,0.628-0.405,0.793-0.617c0.165-0.212,0.267-0.427,0.306-0.644c0.039-0.217,0.059-0.507,0.059-0.871v-1.872
		l0.078-0.208l0.208-0.078h0.221l0.208,0.078l0.078,0.208v1.937c0,0.399-0.035,0.743-0.104,1.034
		c-0.069,0.29-0.214,0.572-0.435,0.845c-0.221,0.273-0.548,0.535-0.982,0.787l1.443,2.015c0.069,0.104,0.104,0.191,0.104,0.26
		l-0.078,0.182L52.999,270.716 M45.225,270.716h-0.221l-0.208-0.078l-0.078-0.208v-6.851l0.078-0.208l0.208-0.078h0.221l0.208,0.078
		l0.078,0.208v6.851l-0.078,0.208L45.225,270.716 M27.195,270.716h-0.221l-0.208-0.078l-0.078-0.208v-3.9
		c0-1.655-0.828-2.483-2.483-2.483h-1.586l-0.208-0.078l-0.078-0.208v-0.182l0.078-0.208l0.208-0.078h1.651
		c1.083,0,1.889,0.271,2.418,0.813c0.529,0.542,0.793,1.328,0.793,2.36v3.965l-0.078,0.208L27.195,270.716 M20.577,270.716h-0.221
		l-0.208-0.078l-0.078-0.208v-3.9c0-1.655-0.828-2.483-2.483-2.483h-1.586l-0.208-0.078l-0.078-0.208v-0.182l0.078-0.208
		l0.208-0.078h1.651c1.083,0,1.889,0.271,2.418,0.813c0.529,0.542,0.793,1.328,0.793,2.36v3.965l-0.078,0.208L20.577,270.716
		 M184.635,267.726h-0.221l-0.208-0.078l-0.078-0.208v-3.861l0.078-0.208l0.208-0.078h0.221l0.208,0.078l0.078,0.208v3.861
		l-0.078,0.208L184.635,267.726 M79.129,267.726h-0.221l-0.208-0.078l-0.078-0.208v-3.861l0.078-0.208l0.208-0.078h0.221
		l0.208,0.078l0.078,0.208v3.861l-0.078,0.208L79.129,267.726 M71.16,264.047h-2.665l-0.208-0.078l-0.078-0.208v-0.182l0.078-0.208
		l0.208-0.078h2.665l0.208,0.078l0.078,0.208v0.182l-0.078,0.208L71.16,264.047"/>
	<path fill="#000000" d="M211.856,287.746c-1.031,0-1.803-0.275-2.314-0.825c-0.512-0.55-0.767-1.354-0.767-2.412v-4.03l0.078-0.208
		l0.208-0.078h3.055c1.075,0,1.846,0.247,2.314,0.741c0.468,0.494,0.724,1.261,0.767,2.301c0.009,0.087,0.013,0.329,0.013,0.728
		c0,0.407-0.004,0.655-0.013,0.741c-0.026,1.031-0.303,1.796-0.832,2.295C213.837,287.497,213,287.746,211.856,287.746
		 M209.568,280.947v3.562c0,0.798,0.19,1.41,0.572,1.84c0.381,0.429,0.953,0.643,1.716,0.643c0.893,0,1.536-0.193,1.931-0.579
		c0.394-0.386,0.6-0.977,0.617-1.774c0.009-0.087,0.013-0.312,0.013-0.676c0-0.355-0.004-0.576-0.013-0.663
		c-0.018-0.762-0.239-1.345-0.663-1.748c-0.425-0.403-0.988-0.604-1.69-0.604H209.568 M216.861,287.733
		c-0.147,0-0.221-0.07-0.221-0.208v-0.351c0-0.147,0.091-0.256,0.273-0.325c0.632-0.225,1.083-0.429,1.352-0.611
		c0.329-0.225,0.646-0.54,0.949-0.943c0.303-0.403,0.455-0.73,0.455-0.982l-0.195-1.014c-0.113-0.563-0.234-1.01-0.364-1.339
		c-0.13-0.329-0.301-0.581-0.514-0.754c-0.212-0.173-0.492-0.26-0.838-0.26h-0.481l-0.208-0.078l-0.078-0.208v-0.182l0.078-0.208
		l0.208-0.078h0.481c0.503,0,0.914,0.113,1.235,0.338c0.321,0.226,0.576,0.557,0.767,0.994c0.19,0.438,0.36,1.008,0.507,1.71
		l0.793,4.095v0.039l-0.084,0.176l-0.202,0.072h-0.221c-0.147,0-0.243-0.095-0.286-0.286l-0.338-1.729
		c-0.165,0.278-0.353,0.535-0.565,0.774c-0.212,0.239-0.427,0.431-0.644,0.579c-0.312,0.217-0.607,0.383-0.884,0.5
		c-0.277,0.117-0.572,0.206-0.884,0.266L216.861,287.733 M266.781,287.616h-5.2l-0.208-0.078l-0.078-0.208v-0.182l0.078-0.208
		l0.208-0.078h3.913v-3.432c0-1.655-0.828-2.483-2.483-2.483h-1.3l-0.208-0.078l-0.078-0.208v-0.182l0.078-0.208l0.208-0.078h1.365
		c1.083,0,1.889,0.273,2.418,0.819c0.529,0.546,0.793,1.33,0.793,2.353v3.497h0.494l0.208,0.078l0.078,0.208v0.182l-0.078,0.208
		L266.781,287.616 M257.109,287.616h-2.158l-0.208-0.078l-0.078-0.208v-0.182l0.078-0.208l0.208-0.078h2.093
		c0.658,0,1.159-0.214,1.501-0.643c0.342-0.429,0.531-1.042,0.566-1.84c0.008-0.087,0.013-0.247,0.013-0.481
		c0-0.225-0.005-0.381-0.013-0.468c-0.018-0.789-0.202-1.4-0.553-1.833c-0.351-0.433-0.856-0.65-1.514-0.65h-1.768v1.235
		c0,0.407,0.043,0.726,0.13,0.956c0.087,0.23,0.238,0.371,0.455,0.423l0.533,0.13c0.147,0.043,0.221,0.182,0.221,0.416v0.182
		l-0.085,0.156l-0.215,0.052l-0.104-0.013l-0.494-0.117c-0.416-0.095-0.724-0.321-0.923-0.676c-0.199-0.355-0.299-0.858-0.299-1.508
		v-1.703l0.078-0.208l0.208-0.078h2.327c0.893,0,1.575,0.275,2.048,0.825c0.472,0.551,0.722,1.333,0.747,2.347
		c0.009,0.087,0.013,0.264,0.013,0.533c0,0.277-0.004,0.459-0.013,0.546c-0.026,1.014-0.275,1.796-0.747,2.347
		C258.684,287.341,258.001,287.616,257.109,287.616 M252,287.616h-0.221l-0.208-0.078l-0.078-0.208v-6.851l0.078-0.208l0.208-0.078
		H252l0.208,0.078l0.078,0.208v6.851l-0.078,0.208L252,287.616 M249.101,287.616h-3.289l-0.208-0.078l-0.078-0.208v-0.182
		l0.078-0.208l0.208-0.078h2.782v-3.432c0-0.477-0.085-0.905-0.253-1.287c-0.169-0.381-0.403-0.676-0.702-0.884
		c-0.299-0.208-0.635-0.312-1.008-0.312h-1.508l-0.962,6.37l-0.11,0.214l-0.214,0.085h-0.234l-0.182-0.085l-0.052-0.214l0.949-6.37
		h-0.585l-0.208-0.078l-0.078-0.208v-0.182l0.078-0.208l0.208-0.078h2.964c0.52,0,0.984,0.13,1.391,0.39
		c0.407,0.26,0.726,0.63,0.956,1.111c0.23,0.481,0.344,1.038,0.344,1.67v3.965l-0.078,0.208L249.101,287.616 M239.052,287.616
		h-2.158l-0.208-0.078l-0.078-0.208v-0.182l0.078-0.208l0.208-0.078h2.093c0.659,0,1.159-0.214,1.502-0.643
		c0.342-0.429,0.531-1.042,0.565-1.84c0.009-0.087,0.013-0.247,0.013-0.481c0-0.225-0.005-0.381-0.013-0.468
		c-0.017-0.789-0.201-1.4-0.552-1.833c-0.351-0.433-0.856-0.65-1.515-0.65h-1.768v1.235c0,0.407,0.043,0.726,0.13,0.956
		c0.087,0.23,0.238,0.371,0.455,0.423l0.533,0.13c0.147,0.043,0.221,0.182,0.221,0.416v0.182l-0.084,0.156l-0.215,0.052
		l-0.104-0.013l-0.494-0.117c-0.416-0.095-0.724-0.321-0.923-0.676c-0.2-0.355-0.299-0.858-0.299-1.508v-1.703l0.078-0.208
		l0.208-0.078h2.327c0.893,0,1.575,0.275,2.048,0.825c0.472,0.551,0.721,1.333,0.747,2.347c0.008,0.087,0.013,0.264,0.013,0.533
		c0,0.277-0.005,0.459-0.013,0.546c-0.026,1.014-0.275,1.796-0.747,2.347C240.627,287.341,239.945,287.616,239.052,287.616
		 M231.252,287.616h-0.221l-0.208-0.078l-0.078-0.208v-3.9c0-1.655-0.828-2.483-2.483-2.483h-2.236l-0.208-0.078l-0.078-0.208
		v-0.182l0.078-0.208l0.208-0.078h2.301c1.083,0,1.889,0.271,2.418,0.813c0.529,0.542,0.793,1.328,0.793,2.36v3.965l-0.078,0.208
		L231.252,287.616 M226.247,287.616h-0.221l-0.208-0.078l-0.078-0.208v-4.563l0.078-0.208l0.208-0.078h0.221l0.208,0.078
		l0.078,0.208v4.563l-0.078,0.208L226.247,287.616 M206.461,287.616h-0.221l-0.208-0.078l-0.078-0.208v-3.9
		c0-1.655-0.828-2.483-2.483-2.483h-2.236l-0.208-0.078l-0.078-0.208v-0.182l0.078-0.208l0.208-0.078h2.301
		c1.083,0,1.889,0.271,2.418,0.813c0.529,0.542,0.793,1.328,0.793,2.36v3.965l-0.078,0.208L206.461,287.616 M201.457,287.616h-0.221
		l-0.208-0.078l-0.078-0.208v-4.563l0.078-0.208l0.208-0.078h0.221l0.208,0.078l0.078,0.208v4.563l-0.078,0.208L201.457,287.616
		 M234.047,284.626h-0.221l-0.208-0.078l-0.078-0.208v-3.861l0.078-0.208l0.208-0.078h0.221l0.208,0.078l0.078,0.208v3.861
		l-0.078,0.208L234.047,284.626"/>
	<path fill="#000000" d="M282.255,310.185h-1.144l-0.221-0.091l-0.091-0.221v-1.664h-4.121l-0.221-0.091l-0.091-0.221V307
		c0-0.138,0.047-0.268,0.143-0.39l3.835-5.304l0.195-0.163c0.087-0.039,0.182-0.058,0.286-0.058h1.43
		c0.095,0,0.171,0.028,0.227,0.085c0.056,0.056,0.085,0.132,0.085,0.228v5.265h1.17c0.095,0,0.171,0.028,0.227,0.084
		c0.056,0.057,0.085,0.132,0.085,0.228v0.923l-0.085,0.221c-0.056,0.061-0.132,0.091-0.227,0.091h-1.17v1.664l-0.085,0.221
		C282.426,310.155,282.35,310.185,282.255,310.185 M280.838,302.983l-2.639,3.731h2.639V302.983"/>
	<path fill="#000000" d="M247.736,312.668h-0.221l-0.208-0.078l-0.078-0.208v-7.046l0.078-0.208l0.208-0.078h0.221l0.208,0.078
		l0.078,0.208v7.046l-0.078,0.208L247.736,312.668 M62.06,312.668h-0.221l-0.208-0.078l-0.078-0.208v-7.046l0.078-0.208l0.208-0.078
		h0.221l0.208,0.078l0.078,0.208v7.046l-0.078,0.208L62.06,312.668 M80.09,311.797h-0.221l-0.208-0.078l-0.078-0.208v-8.463
		l0.078-0.208l0.208-0.078h0.221l0.208,0.078l0.078,0.208v8.463l-0.078,0.208L80.09,311.797 M163.146,310.926l-0.176-0.065
		l-0.071-0.156v-0.169c0-0.199,0.06-0.321,0.182-0.364l1.781-0.65l-1.729-6.24c-0.043-0.147-0.065-0.234-0.065-0.26l0.078-0.182
		l0.182-0.078h0.234l0.195,0.058l0.104,0.137l1.781,6.279l0.13-0.052c0.711-0.26,1.209-0.632,1.495-1.118
		c0.286-0.485,0.429-1.075,0.429-1.768v-3.25l0.078-0.208l0.208-0.078h0.221l0.208,0.078l0.078,0.208v3.51
		c0,0.728-0.234,1.404-0.702,2.028c-0.468,0.624-1.088,1.075-1.859,1.352l-2.665,0.962L163.146,310.926 M193.67,310.315
		c-1.101,0-1.9-0.268-2.398-0.806c-0.498-0.537-0.747-1.326-0.747-2.366v-4.095l0.078-0.208l0.208-0.078h0.221l0.208,0.078
		l0.078,0.208v4.03c0,0.797,0.193,1.41,0.579,1.839c0.386,0.429,0.977,0.644,1.774,0.644c0.797,0,1.385-0.193,1.762-0.579
		c0.377-0.386,0.574-0.977,0.592-1.775v-0.442v-1.027c-0.018-0.78-0.191-1.356-0.52-1.729c-0.329-0.373-0.776-0.559-1.339-0.559
		c-0.165,0-0.353,0.031-0.565,0.091c-0.212,0.061-0.392,0.143-0.539,0.247l-0.13,0.039l-0.15-0.059l-0.071-0.149v-0.169v-0.065
		l0.026-0.182l0.104-0.117c0.199-0.13,0.405-0.227,0.617-0.292c0.212-0.065,0.47-0.098,0.773-0.098c0.806,0,1.432,0.243,1.879,0.728
		c0.446,0.485,0.682,1.235,0.709,2.249c0.008,0.087,0.013,0.351,0.013,0.793c0,0.451-0.005,0.719-0.013,0.806
		c-0.026,1.04-0.28,1.807-0.76,2.301C195.574,310.068,194.779,310.315,193.67,310.315 M124.03,310.315
		c-1.101,0-1.9-0.268-2.398-0.806c-0.498-0.537-0.747-1.326-0.747-2.366v-4.095l0.078-0.208l0.208-0.078h0.221l0.208,0.078
		l0.078,0.208v4.03c0,0.797,0.193,1.41,0.579,1.839c0.386,0.429,0.977,0.644,1.774,0.644c0.797,0,1.384-0.193,1.762-0.579
		c0.377-0.386,0.574-0.977,0.591-1.775v-0.442v-1.027c-0.017-0.78-0.191-1.356-0.52-1.729c-0.329-0.373-0.776-0.559-1.339-0.559
		c-0.165,0-0.353,0.031-0.565,0.091c-0.213,0.061-0.392,0.143-0.539,0.247l-0.13,0.039l-0.15-0.059l-0.071-0.149v-0.169v-0.065
		l0.026-0.182l0.104-0.117c0.199-0.13,0.405-0.227,0.617-0.292c0.212-0.065,0.47-0.098,0.773-0.098c0.806,0,1.432,0.243,1.879,0.728
		c0.446,0.485,0.682,1.235,0.709,2.249c0.008,0.087,0.013,0.351,0.013,0.793c0,0.451-0.005,0.719-0.013,0.806
		c-0.026,1.04-0.28,1.807-0.761,2.301C125.934,310.068,125.139,310.315,124.03,310.315 M263.232,310.302
		c-0.139,0-0.208-0.069-0.208-0.208v-0.325c0-0.147,0.091-0.256,0.273-0.325l0.533-0.208c0.667-0.26,1.176-0.62,1.527-1.079
		c0.351-0.459,0.527-1.144,0.527-2.054c0-0.65-0.078-1.161-0.234-1.534c-0.156-0.373-0.414-0.641-0.773-0.806
		c-0.36-0.165-0.852-0.247-1.475-0.247h-0.442h-0.039l-1.014-0.013l-0.208-0.071l-0.078-0.202v-1.989l0.078-0.208l0.208-0.078h0.221
		l0.208,0.078l0.078,0.208v1.521h1.053c0.806,0,1.441,0.111,1.904,0.331c0.464,0.221,0.797,0.579,1.001,1.072
		c0.204,0.494,0.306,1.17,0.306,2.028c0,1.118-0.253,1.972-0.76,2.561c-0.507,0.59-1.185,1.036-2.035,1.339l-0.546,0.195
		L263.232,310.302 M249.66,310.302c-0.139,0-0.208-0.069-0.208-0.208v-0.325c0-0.147,0.091-0.256,0.273-0.325l0.533-0.208
		c0.667-0.26,1.176-0.62,1.527-1.079c0.351-0.459,0.527-1.144,0.527-2.054c0-0.65-0.078-1.161-0.234-1.534
		c-0.156-0.373-0.414-0.641-0.774-0.806c-0.36-0.165-0.851-0.247-1.475-0.247h-2.314l-0.208-0.078l-0.078-0.208v-0.182l0.078-0.208
		l0.208-0.078h2.379c0.806,0,1.441,0.111,1.904,0.331c0.464,0.221,0.797,0.579,1.001,1.072c0.203,0.494,0.305,1.17,0.305,2.028
		c0,1.118-0.253,1.972-0.76,2.561c-0.507,0.59-1.185,1.036-2.034,1.339l-0.546,0.195L249.66,310.302 M172.025,310.302
		c-0.139,0-0.208-0.069-0.208-0.208v-0.325c0-0.147,0.091-0.256,0.273-0.325l0.533-0.208c0.667-0.26,1.176-0.62,1.527-1.079
		c0.351-0.459,0.527-1.144,0.527-2.054c0-0.65-0.078-1.161-0.234-1.534c-0.156-0.373-0.414-0.641-0.774-0.806
		c-0.36-0.165-0.851-0.247-1.475-0.247h-0.442h-0.039l-1.014-0.013l-0.208-0.071l-0.078-0.202v-1.989l0.078-0.208l0.208-0.078h0.221
		l0.208,0.078l0.078,0.208v1.521h1.053c0.806,0,1.441,0.111,1.904,0.331c0.464,0.221,0.797,0.579,1.001,1.072
		c0.204,0.494,0.306,1.17,0.306,2.028c0,1.118-0.253,1.972-0.76,2.561c-0.507,0.59-1.185,1.036-2.034,1.339l-0.546,0.195
		L172.025,310.302 M70.912,310.302c-0.139,0-0.208-0.069-0.208-0.208v-0.325c0-0.147,0.091-0.256,0.273-0.325l0.533-0.208
		c0.667-0.26,1.176-0.62,1.527-1.079c0.351-0.459,0.527-1.144,0.527-2.054c0-0.65-0.078-1.161-0.234-1.534
		c-0.156-0.373-0.414-0.641-0.774-0.806c-0.36-0.165-0.851-0.247-1.475-0.247h-0.442H70.6l-1.014-0.013l-0.208-0.071L69.3,303.23
		v-1.989l0.078-0.208l0.208-0.078h0.221l0.208,0.078l0.078,0.208v1.521h1.053c0.806,0,1.441,0.111,1.904,0.331
		c0.464,0.221,0.797,0.579,1.001,1.072c0.203,0.494,0.305,1.17,0.305,2.028c0,1.118-0.253,1.972-0.76,2.561
		c-0.507,0.59-1.185,1.036-2.034,1.339l-0.546,0.195L70.912,310.302 M63.984,310.302c-0.139,0-0.208-0.069-0.208-0.208v-0.325
		c0-0.147,0.091-0.256,0.273-0.325l0.533-0.208c0.667-0.26,1.176-0.62,1.527-1.079c0.351-0.459,0.527-1.144,0.527-2.054
		c0-0.65-0.078-1.161-0.234-1.534c-0.156-0.373-0.414-0.641-0.774-0.806c-0.36-0.165-0.851-0.247-1.475-0.247h-2.314l-0.208-0.078
		l-0.078-0.208v-0.182l0.078-0.208l0.208-0.078h2.379c0.806,0,1.441,0.111,1.904,0.331c0.464,0.221,0.797,0.579,1.001,1.072
		c0.204,0.494,0.306,1.17,0.306,2.028c0,1.118-0.253,1.972-0.76,2.561c-0.507,0.59-1.185,1.036-2.034,1.339l-0.546,0.195
		L63.984,310.302 M259.553,310.185h-4.485l-0.208-0.078l-0.078-0.208v-0.182l0.078-0.208l0.208-0.078h3.705l-4.173-6.149
		c-0.069-0.104-0.104-0.19-0.104-0.26l0.085-0.182l0.188-0.078h0.234c0.13,0,0.238,0.069,0.325,0.208l2.496,3.627
		c0.849-0.32,1.274-1.083,1.274-2.288v-1.261l0.078-0.208l0.208-0.078h0.221l0.208,0.078l0.078,0.208v1.326
		c0,0.702-0.141,1.289-0.422,1.762c-0.282,0.472-0.695,0.821-1.242,1.046l1.469,2.145c0.095,0.139,0.143,0.269,0.143,0.39v0.182
		l-0.078,0.208L259.553,310.185 M244.837,310.185h-0.221l-0.208-0.078l-0.078-0.208v-3.9c0-1.655-0.828-2.483-2.483-2.483h-0.988
		c-0.087,0.624-0.15,1.127-0.189,1.508c-0.039,0.381-0.054,0.815-0.045,1.3v3.575l-0.078,0.208l-0.208,0.078l-1.482-0.026
		l-0.208-0.078l-0.078-0.208v-0.182l0.078-0.208l0.208-0.078l0.975,0.013v-3.029v-0.403c0-0.476,0.017-0.895,0.052-1.254
		c0.035-0.36,0.1-0.765,0.195-1.216h-0.663l-0.208-0.078l-0.078-0.208v-0.182l0.078-0.208l0.208-0.078h2.496
		c1.083,0,1.889,0.271,2.418,0.813c0.529,0.542,0.793,1.328,0.793,2.359v3.965l-0.078,0.208L244.837,310.185 M233.488,310.185
		h-0.247l-0.176-0.046l-0.149-0.149l-3.211-4.472c-0.425,0.303-0.713,0.654-0.865,1.053c-0.152,0.399-0.228,0.841-0.228,1.326v2.002
		l-0.078,0.208l-0.208,0.078h-0.221l-0.208-0.078l-0.078-0.208v-2.067c0-0.615,0.098-1.164,0.292-1.644
		c0.195-0.481,0.579-0.908,1.151-1.281l-1.157-1.625c-0.069-0.104-0.104-0.19-0.104-0.26l0.078-0.182l0.182-0.078h0.247
		c0.121,0,0.23,0.065,0.325,0.195l2.938,4.095c0.364-0.199,0.628-0.405,0.793-0.617c0.165-0.212,0.266-0.427,0.306-0.644
		c0.039-0.216,0.058-0.507,0.058-0.871v-1.872l0.078-0.208l0.208-0.078h0.221l0.208,0.078l0.078,0.208v1.937
		c0,0.399-0.035,0.743-0.104,1.034c-0.07,0.291-0.215,0.572-0.436,0.845c-0.221,0.273-0.548,0.535-0.981,0.787l1.443,2.015
		c0.069,0.104,0.104,0.191,0.104,0.26l-0.078,0.182L233.488,310.185 M225.792,310.185h-0.221l-0.208-0.078l-0.078-0.208v-3.9
		c0-1.655-0.828-2.483-2.483-2.483h-0.988c-0.087,0.624-0.15,1.127-0.188,1.508c-0.039,0.381-0.054,0.815-0.045,1.3v3.575
		l-0.078,0.208l-0.208,0.078l-1.482-0.026l-0.208-0.078l-0.078-0.208v-0.182l0.078-0.208l0.208-0.078l0.975,0.013v-3.029v-0.403
		c0-0.476,0.017-0.895,0.052-1.254c0.035-0.36,0.1-0.765,0.195-1.216h-0.663l-0.208-0.078l-0.078-0.208v-0.182l0.078-0.208
		l0.208-0.078h2.496c1.083,0,1.889,0.271,2.418,0.813c0.529,0.542,0.793,1.328,0.793,2.359v3.965L226,310.107L225.792,310.185
		 M214.132,310.185h-0.221l-0.208-0.078l-0.078-0.208v-3.9c0-1.655-0.828-2.483-2.483-2.483h-2.236l-0.208-0.078l-0.078-0.208
		v-0.182l0.078-0.208l0.208-0.078h2.301c1.083,0,1.889,0.271,2.418,0.813c0.529,0.542,0.793,1.328,0.793,2.359v3.965l-0.078,0.208
		L214.132,310.185 M209.127,310.185h-0.221l-0.208-0.078l-0.078-0.208v-4.563l0.078-0.208l0.208-0.078h0.221l0.208,0.078
		l0.078,0.208v4.563l-0.078,0.208L209.127,310.185 M206.228,310.185h-0.221l-0.208-0.078l-0.078-0.208v-3.9
		c0-1.655-0.828-2.483-2.483-2.483h-1.586l-0.208-0.078l-0.078-0.208v-0.182l0.078-0.208l0.208-0.078h1.651
		c1.083,0,1.889,0.271,2.418,0.813c0.529,0.542,0.793,1.328,0.793,2.359v3.965l-0.078,0.208L206.228,310.185 M199.208,310.185
		h-0.221l-0.208-0.078l-0.078-0.208v-6.851l0.078-0.208l0.208-0.078h0.221l0.208,0.078l0.078,0.208v6.851l-0.078,0.208
		L199.208,310.185 M188.821,310.185h-5.2l-0.208-0.078l-0.078-0.208v-0.182l0.078-0.208l0.208-0.078h3.913v-3.432
		c0-1.655-0.828-2.483-2.483-2.483h-1.3l-0.208-0.078l-0.078-0.208v-0.182l0.078-0.208l0.208-0.078h1.365
		c1.083,0,1.889,0.273,2.418,0.819c0.529,0.546,0.793,1.33,0.793,2.353v3.497h0.494l0.208,0.078l0.078,0.208v0.182l-0.078,0.208
		L188.821,310.185 M177.849,310.185h-0.221l-0.208-0.078l-0.078-0.208v-6.851l0.078-0.208l0.208-0.078h0.221l0.208,0.078
		l0.078,0.208v6.851l-0.078,0.208L177.849,310.185 M160.975,310.185h-0.221l-0.208-0.078l-0.078-0.208v-3.9
		c0-1.655-0.828-2.483-2.483-2.483h-1.586l-0.208-0.078l-0.078-0.208v-0.182l0.078-0.208l0.208-0.078h1.651
		c1.083,0,1.889,0.271,2.418,0.813c0.529,0.542,0.793,1.328,0.793,2.359v3.965l-0.078,0.208L160.975,310.185 M155.151,310.185h-5.2
		l-0.208-0.078l-0.078-0.208v-0.182l0.078-0.208l0.208-0.078h3.913v-3.432c0-1.655-0.828-2.483-2.483-2.483h-1.3l-0.208-0.078
		l-0.078-0.208v-0.182l0.078-0.208l0.208-0.078h1.365c1.083,0,1.889,0.273,2.418,0.819c0.529,0.546,0.793,1.33,0.793,2.353v3.497
		h0.494l0.208,0.078l0.078,0.208v0.182l-0.078,0.208L155.151,310.185 M148.235,310.185h-5.2l-0.208-0.078l-0.078-0.208v-0.182
		l0.078-0.208l0.208-0.078h3.913v-3.432c0-1.655-0.828-2.483-2.483-2.483h-1.3l-0.208-0.078l-0.078-0.208v-0.182l0.078-0.208
		l0.208-0.078h1.365c1.083,0,1.889,0.273,2.418,0.819c0.529,0.546,0.793,1.33,0.793,2.353v3.497h0.494l0.208,0.078l0.078,0.208
		v0.182l-0.078,0.208L148.235,310.185 M137.342,310.185h-0.221l-0.208-0.078l-0.078-0.208v-3.9c0-1.655-0.828-2.483-2.483-2.483
		h-2.236l-0.208-0.078l-0.078-0.208v-0.182l0.078-0.208l0.208-0.078h2.301c1.083,0,1.889,0.271,2.418,0.813
		c0.529,0.542,0.793,1.328,0.793,2.359v3.965l-0.078,0.208L137.342,310.185 M132.336,310.185h-0.221l-0.208-0.078l-0.078-0.208
		v-4.563l0.078-0.208l0.208-0.078h0.221l0.208,0.078l0.078,0.208v4.563l-0.078,0.208L132.336,310.185 M119.181,310.185h-5.2
		l-0.208-0.078l-0.078-0.208v-0.182l0.078-0.208l0.208-0.078h3.913v-3.432c0-1.655-0.828-2.483-2.483-2.483h-1.3l-0.208-0.078
		l-0.078-0.208v-0.182l0.078-0.208l0.208-0.078h1.365c1.083,0,1.889,0.273,2.418,0.819c0.529,0.546,0.793,1.33,0.793,2.353v3.497
		h0.494l0.208,0.078l0.078,0.208v0.182l-0.078,0.208L119.181,310.185 M111.706,310.185h-0.624l-0.208-0.078l-0.078-0.208v-0.624
		l0.078-0.214l0.208-0.085h0.624l0.214,0.085l0.085,0.214v0.624l-0.085,0.208L111.706,310.185 M102.489,310.185h-1.911l-0.208-0.078
		l-0.078-0.208v-0.182l0.078-0.208l0.208-0.078h1.846c0.849,0,1.467-0.21,1.853-0.631c0.386-0.42,0.596-1.038,0.63-1.852
		c0.009-0.13,0.013-0.29,0.013-0.481c0-0.182-0.005-0.338-0.013-0.468c-0.026-0.815-0.234-1.432-0.624-1.852
		c-0.39-0.42-1.01-0.631-1.859-0.631h-1.846l-0.208-0.078l-0.078-0.208v-0.182l0.078-0.208l0.208-0.078h1.911
		c1.075,0,1.87,0.269,2.385,0.806c0.516,0.537,0.791,1.326,0.826,2.366c0.008,0.13,0.013,0.308,0.013,0.533
		c0,0.234-0.005,0.416-0.013,0.546c-0.035,1.04-0.31,1.829-0.826,2.366C104.359,309.916,103.563,310.185,102.489,310.185
		 M97.874,310.185h-3.289l-0.208-0.078l-0.078-0.208v-0.182l0.078-0.208l0.208-0.078h2.782v-3.432c0-0.477-0.084-0.905-0.253-1.287
		c-0.169-0.381-0.403-0.676-0.702-0.884c-0.299-0.208-0.635-0.312-1.007-0.312h-1.508l-0.962,6.37l-0.11,0.215l-0.215,0.084h-0.234
		l-0.182-0.084l-0.052-0.215l0.949-6.37h-0.585l-0.208-0.078l-0.078-0.208v-0.182l0.078-0.208l0.208-0.078h2.964
		c0.52,0,0.983,0.13,1.391,0.39c0.407,0.26,0.726,0.631,0.956,1.111c0.23,0.481,0.345,1.038,0.345,1.67v3.965l-0.078,0.208
		L97.874,310.185 M89.983,310.185h-0.221l-0.208-0.078l-0.078-0.208v-6.851l0.078-0.208l0.208-0.078h0.221l0.208,0.078l0.078,0.208
		v6.851l-0.078,0.208L89.983,310.185 M87.708,310.185h-5.2l-0.208-0.078l-0.078-0.208v-0.182l0.078-0.208l0.208-0.078h3.913v-3.432
		c0-1.655-0.828-2.483-2.483-2.483h-1.3l-0.208-0.078l-0.078-0.208v-0.182l0.078-0.208l0.208-0.078h1.365
		c1.083,0,1.889,0.273,2.418,0.819c0.529,0.546,0.793,1.33,0.793,2.353v3.497h0.494l0.208,0.078l0.078,0.208v0.182l-0.078,0.208
		L87.708,310.185 M59.161,310.185H58.94l-0.208-0.078l-0.078-0.208v-3.9c0-1.655-0.828-2.483-2.483-2.483h-1.586l-0.208-0.078
		l-0.078-0.208v-0.182l0.078-0.208l0.208-0.078h1.651c1.083,0,1.889,0.271,2.418,0.813c0.529,0.542,0.793,1.328,0.793,2.359v3.965
		l-0.078,0.208L59.161,310.185 M52.544,310.185h-0.221l-0.208-0.078l-0.078-0.208v-3.9c0-1.655-0.828-2.483-2.483-2.483h-1.586
		l-0.208-0.078l-0.078-0.208v-0.182l0.078-0.208l0.208-0.078h1.651c1.083,0,1.889,0.271,2.418,0.813
		c0.529,0.542,0.793,1.328,0.793,2.359v3.965l-0.078,0.208L52.544,310.185 M129.464,307.195h-0.221l-0.208-0.078l-0.078-0.208
		v-3.861l0.078-0.208l0.208-0.078h0.221l0.208,0.078l0.078,0.208v3.861l-0.078,0.208L129.464,307.195"/>
</g>
</svg>
