<!-- Generator: Adobe InDesign 14.0 SVG Export Plug-in, SVG Library version: 6.0 build 234 -->
<!DOCTYPE svg PUBLIC "-//W3C//DTD SVG 1.1//EN" "http://www.w3.org/Graphics/SVG/1.1/DTD/svg11.dtd">
<svg version="1.1" xmlns="http://www.w3.org/2000/svg" xmlns:xlink="http://www.w3.org/1999/xlink" x="0%" y="0%" width="100%"
	 height="100%" viewBox="0 0 313.376 534.346" preserveAspectRatio="xMidYMid slice" overflow="visible" xml:space="preserve">
<clipPath id="clp_unq_id_1" fill="none">
	<path shape-rendering="crispEdges" stroke="#000000" d="M0,0h313.376v534.346H0V0"/>
</clipPath>
<g clip-path="url(#clp_unq_id_1)" fill="none">
	<path fill="#923A7F" d="M227.25,12.016v-3.72h-2.328v5.688h7.224l-4.488,11.52h2.568l4.488-11.352v-2.136H227.25z M237.354,25.504
		h2.568v-10.68l-0.312-2.808h-2.544l0.288,2.808V25.504z M255.257,18.712c0-2.368-0.448-4.108-1.344-5.22
		c-0.896-1.112-2.144-1.668-3.744-1.668c-0.88,0-1.664,0.252-2.352,0.756c-0.688,0.504-1.2,1.26-1.536,2.268l-1.08-2.832h-2.664
		l1.872,4.2l-1.728,9.288h2.568l1.608-9.192c0.16-0.736,0.484-1.324,0.972-1.764c0.488-0.44,1.116-0.66,1.884-0.66
		c0.992,0,1.756,0.38,2.292,1.14c0.536,0.76,0.804,2.012,0.804,3.756c0,1.632-0.28,2.872-0.84,3.72
		c-0.56,0.848-1.448,1.272-2.664,1.272c-0.432,0-0.952-0.064-1.56-0.192l-0.264,1.968c0.704,0.16,1.392,0.24,2.064,0.24
		c1.824,0,3.232-0.62,4.224-1.86C254.761,22.692,255.257,20.952,255.257,18.712z M265.865,12.016v0.936
		c0,2.352-0.048,4.116-0.144,5.292s-0.336,2.148-0.72,2.916s-1.008,1.344-1.872,1.728l-2.688-10.872h-2.568l2.952,11.472
		l-4.056,0.792l0.36,2.016l4.512-0.888c2.112-0.416,3.644-1.132,4.596-2.148c0.952-1.016,1.552-2.336,1.8-3.96
		c0.248-1.624,0.372-4.052,0.372-7.284H265.865z M283.385,18.712c0-2.368-0.448-4.108-1.344-5.22
		c-0.896-1.112-2.144-1.668-3.744-1.668c-0.88,0-1.664,0.252-2.352,0.756c-0.688,0.504-1.2,1.26-1.536,2.268l-1.08-2.832h-2.664
		l1.872,4.2l-1.728,9.288h2.568l1.608-9.192c0.16-0.736,0.484-1.324,0.972-1.764c0.488-0.44,1.116-0.66,1.884-0.66
		c0.992,0,1.756,0.38,2.292,1.14c0.536,0.76,0.804,2.012,0.804,3.756c0,1.632-0.28,2.872-0.84,3.72
		c-0.56,0.848-1.448,1.272-2.664,1.272c-0.432,0-0.952-0.064-1.56-0.192l-0.264,1.968c0.704,0.16,1.392,0.24,2.064,0.24
		c1.824,0,3.232-0.62,4.224-1.86C282.889,22.692,283.385,20.952,283.385,18.712z"/>
	<path fill="#000000" d="M264.237,59.06h-0.533l-0.215-0.078c-0.056-0.052-0.084-0.126-0.084-0.221V51.91l0.084-0.215l0.215-0.084
		h0.533l0.215,0.084l0.085,0.215v6.851l-0.085,0.215L264.237,59.06 M266.083,56.707l-0.162-0.065l-0.072-0.182v-0.572
		c0-0.156,0.095-0.273,0.286-0.351l0.507-0.195c0.598-0.225,1.057-0.55,1.378-0.975c0.32-0.424,0.481-1.048,0.481-1.872
		c0-0.581-0.07-1.038-0.208-1.372c-0.139-0.333-0.366-0.574-0.683-0.721c-0.316-0.147-0.752-0.221-1.306-0.221h-2.6l-0.215-0.084
		l-0.084-0.215V49.44l0.084-0.208l0.215-0.078h2.756c0.797,0,1.428,0.113,1.891,0.338c0.464,0.225,0.8,0.585,1.008,1.079
		c0.208,0.494,0.312,1.153,0.312,1.976c0,1.109-0.273,1.974-0.819,2.593c-0.546,0.62-1.257,1.077-2.132,1.372l-0.546,0.182
		L266.083,56.707 M283.801,56.577h-5.408l-0.208-0.085l-0.078-0.215v-0.416l0.078-0.214l0.208-0.085h3.757v-3.172
		c0-1.482-0.745-2.223-2.236-2.223h-1.391l-0.208-0.084l-0.078-0.215v-0.416l0.078-0.214l0.208-0.085h1.456
		c2.219,0,3.328,1.062,3.328,3.185v3.224h0.494l0.208,0.085l0.078,0.214v0.416l-0.078,0.215L283.801,56.577 M276.21,56.577h-4.68
		l-0.214-0.085l-0.085-0.215v-0.429l0.085-0.208l0.214-0.078h3.536l-4.069-5.902c-0.069-0.112-0.104-0.195-0.104-0.247l0.084-0.182
		l0.202-0.078h0.572c0.138,0,0.255,0.069,0.351,0.208l2.327,3.354c0.737-0.346,1.105-1.057,1.105-2.132v-1.131
		c0-0.095,0.028-0.169,0.085-0.221l0.214-0.078h0.507l0.215,0.085l0.085,0.214v1.274c0,0.668-0.139,1.239-0.416,1.716
		c-0.278,0.477-0.685,0.841-1.222,1.092l1.352,1.95c0.104,0.13,0.156,0.26,0.156,0.39v0.403l-0.085,0.215L276.21,56.577
		 M261.169,56.577h-0.897l-0.208-0.085l-0.078-0.215v-0.871c0-0.095,0.026-0.171,0.078-0.228l0.208-0.084h0.897
		c0.095,0,0.171,0.028,0.228,0.084c0.056,0.057,0.085,0.132,0.085,0.228v0.871l-0.091,0.215L261.169,56.577 M261.169,52.027h-0.897
		l-0.208-0.084l-0.078-0.215v-0.871c0-0.095,0.026-0.171,0.078-0.228l0.208-0.084h0.897c0.095,0,0.171,0.028,0.228,0.084
		c0.056,0.056,0.085,0.132,0.085,0.228v0.871l-0.091,0.215L261.169,52.027"/>
	<path fill="#000000" d="M234.454,73.607c-1.066,0-1.866-0.279-2.398-0.838c-0.533-0.559-0.8-1.363-0.8-2.411v-4.004
		c0-0.095,0.028-0.169,0.084-0.221l0.215-0.078h3.12c1.118,0,1.92,0.251,2.405,0.754c0.485,0.503,0.75,1.274,0.793,2.314
		c0.009,0.087,0.013,0.321,0.013,0.702c0,0.382-0.004,0.615-0.013,0.702c-0.026,1.031-0.308,1.803-0.845,2.314
		C236.491,73.352,235.633,73.607,234.454,73.607 M232.348,67.055v3.302c0,0.719,0.176,1.27,0.527,1.651
		c0.351,0.382,0.873,0.572,1.567,0.572c0.815,0,1.399-0.171,1.755-0.514c0.355-0.342,0.542-0.878,0.559-1.605
		c0.009-0.087,0.013-0.299,0.013-0.637c0-0.338-0.004-0.55-0.013-0.637c-0.017-0.693-0.214-1.222-0.592-1.586
		c-0.377-0.364-0.895-0.546-1.553-0.546H232.348 M222.846,73.607l-0.163-0.065l-0.071-0.182v-0.572c0-0.156,0.095-0.273,0.286-0.351
		l0.507-0.195c0.598-0.225,1.057-0.55,1.378-0.975c0.321-0.425,0.481-1.049,0.481-1.872c0-0.581-0.069-1.038-0.208-1.372
		c-0.139-0.333-0.366-0.574-0.682-0.721c-0.316-0.147-0.752-0.221-1.307-0.221h-0.403h-0.039l-1.196-0.013l-0.214-0.078
		l-0.085-0.208v-2.236l0.085-0.215l0.214-0.084h0.52l0.208,0.084l0.078,0.215v1.508h1.001c0.788,0,1.415,0.113,1.878,0.338
		c0.464,0.225,0.799,0.585,1.007,1.079s0.312,1.153,0.312,1.976c0,1.109-0.273,1.974-0.819,2.593
		c-0.546,0.62-1.257,1.077-2.132,1.372l-0.546,0.182L222.846,73.607 M252.485,73.594c-0.147,0-0.221-0.069-0.221-0.208v-0.611
		c0-0.147,0.091-0.256,0.273-0.325c0.026-0.009,0.197-0.067,0.514-0.176c0.316-0.108,0.6-0.245,0.851-0.409
		c0.26-0.165,0.516-0.392,0.767-0.682c0.251-0.29,0.429-0.566,0.533-0.825l-0.234-1.17c-0.104-0.511-0.214-0.916-0.331-1.215
		c-0.117-0.299-0.275-0.527-0.474-0.683c-0.199-0.156-0.459-0.234-0.78-0.234h-0.481l-0.214-0.078l-0.085-0.208v-0.442l0.085-0.215
		l0.214-0.084h0.481c0.554,0,1.01,0.113,1.365,0.338c0.355,0.226,0.639,0.561,0.851,1.008c0.212,0.447,0.392,1.029,0.54,1.748
		l0.78,4.056v0.052l-0.084,0.176l-0.201,0.072h-0.572c-0.165,0-0.265-0.1-0.299-0.299l-0.299-1.521
		c-0.321,0.494-0.689,0.88-1.105,1.157c-0.321,0.217-0.62,0.384-0.897,0.501c-0.277,0.117-0.572,0.206-0.884,0.266L252.485,73.594
		 M250.392,73.477h-0.546l-0.214-0.085l-0.085-0.215v-3.887c0-1.491-0.745-2.236-2.236-2.236h-1.677l-0.215-0.078l-0.084-0.208
		v-0.416l0.084-0.214l0.215-0.085h1.755c2.201,0,3.302,1.057,3.302,3.172v3.952l-0.085,0.215L250.392,73.477 M229.021,73.477h-0.572
		l-0.215-0.085l-0.085-0.215v-6.825c0-0.095,0.028-0.169,0.085-0.221l0.215-0.078h0.572l0.214,0.085l0.085,0.214v6.825l-0.085,0.215
		L229.021,73.477 M219.349,73.477h-0.546l-0.215-0.085l-0.084-0.215v-3.887c0-1.491-0.745-2.236-2.236-2.236h-0.936
		c-0.087,0.546-0.15,0.999-0.188,1.359c-0.039,0.36-0.054,0.769-0.045,1.229l0.026,3.536l-0.085,0.215l-0.214,0.085l-1.807-0.026
		l-0.215-0.084l-0.085-0.215v-0.39l0.085-0.215l0.215-0.085l1.001,0.013v-2.782c-0.009-0.546,0.002-1.007,0.033-1.384
		c0.03-0.377,0.102-0.795,0.214-1.254h-0.702l-0.214-0.078l-0.085-0.208v-0.416c0-0.095,0.028-0.169,0.085-0.221l0.214-0.078h2.782
		c2.201,0,3.302,1.057,3.302,3.172v3.952l-0.085,0.215L219.349,73.477 M243.398,67.094h-0.377c-0.156,0-0.243-0.095-0.26-0.286
		l-0.221-2.262v-0.052l0.071-0.182l0.189-0.065h0.819l0.201,0.084l0.059,0.215l-0.221,2.262
		C243.641,66.999,243.554,67.094,243.398,67.094"/>
	<path fill="#000000" d="M280.344,73.607c-1.118,0-1.935-0.327-2.451-0.981c-0.516-0.654-0.791-1.51-0.825-2.568l-0.013-1.118
		l0.013-1.157c0.026-1.048,0.301-1.9,0.825-2.554c0.524-0.654,1.341-0.981,2.451-0.981c1.118,0,1.939,0.327,2.463,0.981
		c0.524,0.654,0.8,1.506,0.826,2.554c0.009,0.243,0.013,0.629,0.013,1.157c0,0.511-0.004,0.884-0.013,1.118
		c-0.035,1.058-0.31,1.913-0.826,2.568C282.291,73.28,281.47,73.607,280.344,73.607 M280.344,65.313
		c-0.659,0-1.157,0.223-1.495,0.67c-0.338,0.446-0.516,1.068-0.533,1.865l-0.013,1.066l0.013,1.079
		c0.017,0.806,0.195,1.43,0.533,1.872c0.338,0.442,0.836,0.663,1.495,0.663c0.667,0,1.17-0.221,1.508-0.663
		c0.338-0.442,0.516-1.066,0.533-1.872c0.009-0.251,0.013-0.611,0.013-1.079c0-0.476-0.004-0.832-0.013-1.066
		c-0.018-0.797-0.197-1.419-0.539-1.865C281.503,65.536,281.002,65.313,280.344,65.313 M272.115,73.607
		c-1.118,0-1.935-0.327-2.451-0.981c-0.516-0.654-0.791-1.51-0.825-2.568l-0.013-1.118l0.013-1.157
		c0.026-1.048,0.301-1.9,0.825-2.554c0.524-0.654,1.341-0.981,2.451-0.981c1.118,0,1.939,0.327,2.464,0.981
		c0.524,0.654,0.799,1.506,0.825,2.554c0.009,0.243,0.013,0.629,0.013,1.157c0,0.511-0.004,0.884-0.013,1.118
		c-0.035,1.058-0.31,1.913-0.825,2.568C274.062,73.28,273.241,73.607,272.115,73.607 M272.115,65.313
		c-0.659,0-1.157,0.223-1.495,0.67c-0.338,0.446-0.516,1.068-0.533,1.865l-0.013,1.066l0.013,1.079
		c0.017,0.806,0.195,1.43,0.533,1.872c0.338,0.442,0.836,0.663,1.495,0.663c0.667,0,1.17-0.221,1.508-0.663
		c0.338-0.442,0.516-1.066,0.533-1.872c0.009-0.251,0.013-0.611,0.013-1.079c0-0.476-0.004-0.832-0.013-1.066
		c-0.017-0.797-0.197-1.419-0.539-1.865C273.274,65.536,272.773,65.313,272.115,65.313 M264.094,73.607
		c-0.65,0-1.214-0.117-1.69-0.351c-0.477-0.234-0.841-0.54-1.092-0.917c-0.251-0.377-0.386-0.782-0.403-1.215v-0.026l0.078-0.169
		l0.182-0.065h0.637c0.182,0,0.299,0.096,0.351,0.286c0.13,0.468,0.37,0.817,0.721,1.046c0.351,0.23,0.756,0.344,1.216,0.344
		c0.589,0,1.079-0.18,1.469-0.539c0.39-0.359,0.585-0.856,0.585-1.488c0-0.581-0.195-1.042-0.585-1.385
		c-0.39-0.342-0.88-0.514-1.469-0.514c-0.312,0-0.563,0.039-0.754,0.117c-0.191,0.078-0.386,0.191-0.585,0.338
		c-0.113,0.087-0.206,0.149-0.279,0.188l-0.241,0.058h-0.624l-0.208-0.085l-0.078-0.201l0.403-4.329
		c0.026-0.217,0.134-0.325,0.325-0.325h4.498c0.095,0,0.169,0.026,0.221,0.078c0.052,0.052,0.078,0.126,0.078,0.221v0.481
		l-0.085,0.208l-0.214,0.078h-3.744l-0.234,2.613c0.416-0.295,0.975-0.442,1.677-0.442c0.581,0,1.109,0.115,1.586,0.344
		c0.477,0.23,0.856,0.566,1.138,1.008c0.282,0.442,0.422,0.966,0.422,1.573c0,0.642-0.141,1.194-0.422,1.658
		c-0.282,0.464-0.672,0.815-1.17,1.053C265.305,73.488,264.735,73.607,264.094,73.607"/>
	<path fill="#000000" d="M242.514,92.86h-0.533l-0.215-0.078c-0.056-0.052-0.084-0.126-0.084-0.221V85.71l0.084-0.215l0.215-0.084
		h0.533l0.215,0.084l0.085,0.215v6.851l-0.085,0.214L242.514,92.86 M256.112,90.507c-1.066,0-1.866-0.28-2.398-0.839
		c-0.533-0.559-0.8-1.363-0.8-2.411v-4.004c0-0.095,0.028-0.169,0.085-0.221l0.214-0.078h3.12c1.118,0,1.92,0.251,2.405,0.754
		c0.485,0.503,0.75,1.274,0.793,2.314c0.009,0.087,0.013,0.321,0.013,0.702c0,0.382-0.004,0.615-0.013,0.702
		c-0.026,1.031-0.308,1.803-0.845,2.314C258.149,90.252,257.291,90.507,256.112,90.507 M254.006,83.955v3.302
		c0,0.719,0.176,1.27,0.527,1.651c0.351,0.382,0.873,0.572,1.567,0.572c0.815,0,1.399-0.171,1.755-0.514
		c0.355-0.342,0.542-0.877,0.559-1.605c0.009-0.087,0.013-0.299,0.013-0.637c0-0.338-0.005-0.55-0.013-0.637
		c-0.017-0.693-0.214-1.222-0.591-1.586c-0.377-0.364-0.895-0.546-1.554-0.546H254.006 M244.36,90.507l-0.162-0.065l-0.072-0.182
		v-0.572c0-0.156,0.095-0.273,0.286-0.351l0.507-0.195c0.598-0.225,1.057-0.55,1.378-0.975c0.321-0.425,0.481-1.049,0.481-1.872
		c0-0.581-0.069-1.038-0.208-1.372c-0.139-0.333-0.366-0.574-0.682-0.721c-0.316-0.147-0.752-0.221-1.307-0.221h-2.6l-0.215-0.085
		l-0.084-0.215V83.24l0.084-0.208l0.215-0.078h2.756c0.797,0,1.428,0.113,1.891,0.338c0.464,0.225,0.8,0.585,1.008,1.079
		c0.208,0.494,0.312,1.153,0.312,1.976c0,1.109-0.273,1.974-0.819,2.593c-0.546,0.62-1.257,1.077-2.132,1.372l-0.546,0.182
		L244.36,90.507 M282.97,90.403h-0.338l-0.208-0.078l-0.078-0.208v-0.624h-1.911l-0.208-0.078l-0.078-0.208v-0.286
		c0-0.121,0.052-0.251,0.156-0.39l1.755-2.444c0.113-0.156,0.243-0.234,0.39-0.234h0.52l0.208,0.078l0.078,0.208v2.509h0.455
		l0.208,0.078l0.078,0.208v0.273l-0.078,0.208l-0.208,0.078h-0.455v0.624l-0.078,0.208L282.97,90.403 M282.359,87.036l-1.131,1.625
		h1.131V87.036 M276.236,90.377h-0.351l-0.188-0.072l-0.072-0.188l0.052-0.143l6.409-8.45c0.069-0.095,0.132-0.16,0.189-0.195
		c0.056-0.035,0.136-0.052,0.241-0.052h0.351l0.195,0.071l0.078,0.188l-0.052,0.143l-6.422,8.45l-0.188,0.188
		C276.42,90.358,276.34,90.377,276.236,90.377 M266.681,90.377h-1.924l-0.215-0.085l-0.085-0.214v-0.429
		c0-0.095,0.028-0.169,0.085-0.221l0.215-0.078h1.859c0.754,0,1.309-0.19,1.664-0.572c0.355-0.381,0.55-0.936,0.585-1.664
		c0.009-0.121,0.013-0.273,0.013-0.455c0-0.173-0.005-0.321-0.013-0.442c-0.026-0.737-0.219-1.294-0.578-1.67
		c-0.36-0.377-0.917-0.565-1.671-0.565h-1.859l-0.215-0.085l-0.085-0.215v-0.429c0-0.095,0.028-0.169,0.085-0.221l0.215-0.078h1.924
		c1.101,0,1.917,0.275,2.451,0.825c0.533,0.55,0.817,1.346,0.851,2.385c0.009,0.121,0.013,0.286,0.013,0.494
		s-0.004,0.377-0.013,0.507c-0.035,1.04-0.319,1.835-0.851,2.385C268.598,90.102,267.781,90.377,266.681,90.377 M262.144,90.377
		h-0.572l-0.214-0.085l-0.085-0.214v-6.825c0-0.095,0.028-0.169,0.085-0.221l0.214-0.078h0.572l0.215,0.085l0.084,0.214v6.825
		l-0.084,0.214L262.144,90.377 M239.433,90.377h-3.354l-0.208-0.085l-0.078-0.214v-0.416l0.078-0.215l0.208-0.085h2.509v-3.159
		c0-0.659-0.167-1.194-0.5-1.605c-0.334-0.412-0.756-0.617-1.268-0.617h-1.378l-1.001,6.084l-0.11,0.221l-0.215,0.091h-0.546
		l-0.202-0.091l-0.058-0.221l1.04-6.084h-0.663l-0.214-0.085l-0.085-0.215v-0.429l0.085-0.214l0.214-0.085h3.263
		c0.537,0,1.016,0.128,1.437,0.384c0.42,0.256,0.749,0.622,0.988,1.099c0.238,0.477,0.357,1.04,0.357,1.69v3.952l-0.084,0.214
		L239.433,90.377 M231.361,90.377h-0.546l-0.214-0.085l-0.085-0.214v-3.887c0-1.491-0.745-2.236-2.236-2.236h-1.586v6.123
		l-0.084,0.214l-0.215,0.085h-0.546l-0.214-0.085l-0.085-0.214v-6.825c0-0.095,0.028-0.169,0.085-0.221l0.214-0.078h2.496
		c1.118,0,1.95,0.266,2.496,0.8c0.546,0.533,0.819,1.332,0.819,2.398v3.926l-0.084,0.214L231.361,90.377 M276.054,85.892
		c-0.564,0-0.999-0.106-1.307-0.319c-0.308-0.212-0.47-0.466-0.488-0.761v-0.026l0.078-0.156l0.143-0.065h0.325
		c0.113,0,0.221,0.052,0.325,0.156l0.136,0.136c0.065,0.065,0.16,0.117,0.286,0.156c0.126,0.039,0.288,0.058,0.487,0.058
		c0.269,0,0.49-0.052,0.663-0.156c0.173-0.104,0.26-0.247,0.26-0.429c0-0.208-0.074-0.358-0.221-0.449
		c-0.147-0.091-0.36-0.136-0.637-0.136h-0.533l-0.208-0.078l-0.078-0.208V83.37c0-0.087,0.052-0.182,0.156-0.286l1.053-0.962h-1.742
		l-0.208-0.078l-0.078-0.208v-0.273l0.078-0.208l0.208-0.078h2.665l0.208,0.078l0.078,0.208v0.247c0,0.096-0.013,0.178-0.039,0.247
		l-0.169,0.221l-0.936,0.845c0.442,0.035,0.773,0.173,0.994,0.416c0.221,0.243,0.332,0.559,0.332,0.949
		c0,0.442-0.161,0.786-0.481,1.033C277.085,85.769,276.634,85.892,276.054,85.892"/>
	<path fill="#000000" d="M225.524,109.76h-0.533l-0.215-0.078c-0.056-0.052-0.084-0.126-0.084-0.221v-6.851l0.084-0.214l0.215-0.085
		h0.533l0.215,0.085l0.085,0.214v6.851l-0.085,0.214L225.524,109.76 M227.37,107.407l-0.163-0.065l-0.071-0.182v-0.572
		c0-0.156,0.095-0.273,0.286-0.351l0.507-0.195c0.598-0.225,1.057-0.55,1.378-0.975c0.321-0.425,0.481-1.049,0.481-1.872
		c0-0.58-0.069-1.038-0.208-1.371c-0.139-0.334-0.366-0.574-0.682-0.722c-0.316-0.147-0.752-0.221-1.307-0.221h-2.6l-0.215-0.085
		l-0.084-0.214v-0.442l0.084-0.208l0.215-0.078h2.756c0.797,0,1.428,0.113,1.891,0.338c0.464,0.226,0.799,0.585,1.007,1.079
		c0.208,0.494,0.312,1.153,0.312,1.976c0,1.109-0.273,1.974-0.819,2.593c-0.546,0.62-1.257,1.077-2.132,1.372l-0.546,0.182
		L227.37,107.407 M271.712,107.277h-1.924l-0.214-0.085l-0.085-0.214v-0.429c0-0.095,0.028-0.169,0.085-0.221l0.214-0.078h1.859
		c0.754,0,1.309-0.19,1.664-0.572c0.355-0.381,0.55-0.936,0.585-1.664c0.009-0.121,0.013-0.273,0.013-0.455
		c0-0.173-0.004-0.321-0.013-0.442c-0.026-0.737-0.219-1.293-0.578-1.67c-0.36-0.377-0.917-0.565-1.671-0.565h-1.859l-0.214-0.085
		l-0.085-0.214v-0.429c0-0.095,0.028-0.169,0.085-0.221l0.214-0.078h1.924c1.101,0,1.918,0.275,2.451,0.825
		c0.533,0.55,0.817,1.346,0.852,2.386c0.009,0.121,0.013,0.286,0.013,0.494c0,0.208-0.004,0.377-0.013,0.507
		c-0.035,1.04-0.318,1.835-0.852,2.385C273.629,107.002,272.813,107.277,271.712,107.277 M264.926,107.277h-2.236l-0.214-0.085
		l-0.085-0.214v-0.429l0.085-0.215l0.214-0.085h2.171c0.607,0,1.075-0.195,1.404-0.585c0.329-0.39,0.507-0.94,0.533-1.651
		c0.009-0.087,0.013-0.238,0.013-0.455c0-0.208-0.005-0.355-0.013-0.442c-0.017-0.71-0.193-1.261-0.526-1.651
		c-0.334-0.39-0.804-0.585-1.411-0.585h-1.599v1.04c0,0.347,0.039,0.62,0.117,0.819c0.078,0.199,0.212,0.325,0.403,0.377l0.494,0.13
		l0.163,0.136c0.039,0.074,0.058,0.163,0.058,0.267v0.299c0,0.096-0.048,0.165-0.143,0.208c-0.068,0.031-0.14,0.046-0.217,0.046
		c-0.031,0-0.063-0.003-0.095-0.008l-0.507-0.104c-0.867-0.19-1.3-0.927-1.3-2.21v-1.729c0-0.095,0.028-0.169,0.085-0.221
		l0.214-0.078h2.392c0.953,0,1.677,0.278,2.171,0.832c0.494,0.555,0.758,1.348,0.793,2.379c0.008,0.087,0.013,0.251,0.013,0.494
		c0,0.251-0.005,0.421-0.013,0.507c-0.035,1.031-0.299,1.824-0.793,2.379C266.603,107,265.879,107.277,264.926,107.277
		 M256.983,107.277h-0.546l-0.215-0.085l-0.085-0.214v-3.887c0-1.491-0.745-2.236-2.236-2.236h-0.936
		c-0.087,0.546-0.15,0.999-0.188,1.359c-0.039,0.36-0.054,0.769-0.046,1.229l0.026,3.536l-0.085,0.214l-0.214,0.085l-1.807-0.026
		l-0.214-0.084l-0.085-0.215v-0.39l0.085-0.215l0.214-0.084l1.001,0.013v-2.782c-0.009-0.546,0.002-1.008,0.033-1.384
		c0.03-0.377,0.102-0.795,0.215-1.255h-0.702l-0.215-0.078l-0.084-0.208v-0.416c0-0.095,0.028-0.169,0.084-0.221l0.215-0.078h2.782
		c2.201,0,3.302,1.058,3.302,3.172v3.952l-0.084,0.214L256.983,107.277 M245.504,107.277h-0.585c-0.113,0-0.199-0.033-0.26-0.098
		l-0.104-0.11l-2.964-4.173c-0.373,0.269-0.626,0.587-0.76,0.956c-0.135,0.369-0.202,0.773-0.202,1.216v1.911l-0.084,0.214
		l-0.215,0.085h-0.481l-0.214-0.085l-0.085-0.214v-1.963c0-0.641,0.098-1.2,0.293-1.677c0.195-0.476,0.578-0.905,1.151-1.287
		l-1.209-1.69c-0.061-0.095-0.091-0.178-0.091-0.247l0.078-0.182l0.182-0.078h0.572c0.139,0,0.26,0.074,0.364,0.221l2.73,3.809
		c0.312-0.182,0.54-0.373,0.683-0.572c0.143-0.199,0.232-0.396,0.266-0.592c0.035-0.195,0.052-0.449,0.052-0.76v-1.807l0.084-0.214
		l0.215-0.085h0.507l0.214,0.085l0.085,0.214v1.859c0,0.589-0.102,1.094-0.306,1.514c-0.204,0.421-0.613,0.813-1.228,1.177
		l1.482,2.067l0.091,0.247l-0.078,0.182L245.504,107.277 M238.186,107.277h-5.408l-0.208-0.085l-0.078-0.214v-0.416l0.078-0.215
		l0.208-0.084h3.757v-3.172c0-1.482-0.745-2.223-2.236-2.223h-1.391l-0.208-0.085l-0.078-0.215v-0.416l0.078-0.214l0.208-0.085
		h1.456c2.219,0,3.328,1.062,3.328,3.185v3.224h0.494l0.208,0.084l0.078,0.215v0.416l-0.078,0.214L238.186,107.277 M222.443,107.277
		h-0.546l-0.214-0.085l-0.085-0.214v-3.887c0-1.491-0.745-2.236-2.236-2.236h-0.936c-0.087,0.546-0.149,0.999-0.188,1.359
		c-0.039,0.36-0.054,0.769-0.045,1.229l0.026,3.536l-0.084,0.214l-0.215,0.085l-1.807-0.026l-0.215-0.084l-0.085-0.215v-0.39
		l0.085-0.215l0.215-0.084l1.001,0.013v-2.782c-0.009-0.546,0.002-1.008,0.033-1.384c0.03-0.377,0.102-0.795,0.214-1.255h-0.702
		l-0.214-0.078l-0.085-0.208v-0.416c0-0.095,0.028-0.169,0.085-0.221l0.214-0.078h2.782c2.201,0,3.302,1.058,3.302,3.172v3.952
		l-0.085,0.214L222.443,107.277 M210.964,107.277h-0.585c-0.113,0-0.199-0.033-0.26-0.098l-0.104-0.11l-2.964-4.173
		c-0.373,0.269-0.626,0.587-0.76,0.956c-0.134,0.369-0.201,0.773-0.201,1.216v1.911l-0.085,0.214l-0.214,0.085h-0.481l-0.215-0.085
		l-0.084-0.214v-1.963c0-0.641,0.098-1.2,0.292-1.677c0.195-0.476,0.579-0.905,1.151-1.287l-1.209-1.69
		c-0.061-0.095-0.091-0.178-0.091-0.247l0.078-0.182l0.182-0.078h0.572c0.139,0,0.26,0.074,0.364,0.221l2.73,3.809
		c0.312-0.182,0.539-0.373,0.682-0.572c0.143-0.199,0.232-0.396,0.266-0.592c0.035-0.195,0.052-0.449,0.052-0.76v-1.807l0.085-0.214
		l0.214-0.085h0.507l0.214,0.085l0.085,0.214v1.859c0,0.589-0.102,1.094-0.306,1.514c-0.204,0.421-0.613,0.813-1.229,1.177
		l1.482,2.067l0.091,0.247l-0.078,0.182L210.964,107.277 M200.629,107.277h-2.236l-0.214-0.085l-0.085-0.214v-0.429l0.085-0.215
		l0.214-0.085h2.171c0.607,0,1.075-0.195,1.404-0.585c0.329-0.39,0.507-0.94,0.533-1.651c0.009-0.087,0.013-0.238,0.013-0.455
		c0-0.208-0.004-0.355-0.013-0.442c-0.018-0.71-0.193-1.261-0.527-1.651c-0.334-0.39-0.804-0.585-1.41-0.585h-1.599v1.04
		c0,0.347,0.039,0.62,0.117,0.819c0.078,0.199,0.212,0.325,0.403,0.377l0.494,0.13l0.163,0.136c0.039,0.074,0.059,0.163,0.059,0.267
		v0.299c0,0.096-0.048,0.165-0.143,0.208c-0.068,0.031-0.14,0.046-0.217,0.046c-0.031,0-0.063-0.003-0.095-0.008l-0.507-0.104
		c-0.867-0.19-1.3-0.927-1.3-2.21v-1.729c0-0.095,0.028-0.169,0.084-0.221l0.215-0.078h2.392c0.953,0,1.677,0.278,2.171,0.832
		c0.494,0.555,0.758,1.348,0.793,2.379c0.009,0.087,0.013,0.251,0.013,0.494c0,0.251-0.005,0.421-0.013,0.507
		c-0.035,1.031-0.299,1.824-0.793,2.379C202.306,107,201.582,107.277,200.629,107.277 M189.683,107.277h-0.546l-0.215-0.085
		l-0.085-0.214v-3.887c0-1.491-0.741-2.236-2.223-2.236h-2.418l-0.215-0.078l-0.084-0.208v-0.416c0-0.095,0.028-0.169,0.084-0.221
		l0.215-0.078h2.483c2.201,0,3.302,1.066,3.302,3.198v3.926l-0.084,0.214L189.683,107.277 M184.743,107.277h-0.546l-0.215-0.085
		l-0.084-0.214v-4.368l0.084-0.214l0.215-0.085h0.546l0.214,0.085l0.085,0.214v4.368l-0.085,0.214L184.743,107.277 M260.012,104.261
		h-0.572l-0.215-0.084l-0.084-0.215v-3.809c0-0.095,0.028-0.169,0.084-0.221l0.215-0.078h0.572l0.215,0.085l0.084,0.214v3.809
		l-0.084,0.215L260.012,104.261 M195.715,104.261h-0.572l-0.215-0.084l-0.085-0.215v-3.809c0-0.095,0.028-0.169,0.085-0.221
		l0.215-0.078h0.572l0.214,0.085l0.085,0.214v3.809l-0.085,0.215L195.715,104.261 M192.712,104.261h-0.572l-0.214-0.084
		l-0.085-0.215v-3.809c0-0.095,0.028-0.169,0.085-0.221l0.214-0.078h0.572l0.214,0.085l0.085,0.214v3.809l-0.085,0.215
		L192.712,104.261"/>
	<path fill="#000000" d="M283.165,107.277h-0.637l-0.208-0.085l-0.078-0.214v-7.332l-2.184,1.677l-0.195,0.078l-0.221-0.13
		l-0.312-0.403l-0.065-0.182c0-0.095,0.043-0.173,0.13-0.234l2.821-2.184c0.095-0.061,0.208-0.091,0.338-0.091h0.611l0.214,0.084
		l0.085,0.215v8.502l-0.085,0.214L283.165,107.277"/>
	<path fill="#000000" d="M230.152,124.307l-0.163-0.065l-0.071-0.182v-0.572c0-0.156,0.095-0.273,0.286-0.351l0.507-0.195
		c0.598-0.225,1.057-0.55,1.378-0.975c0.321-0.425,0.481-1.049,0.481-1.872c0-0.58-0.069-1.038-0.208-1.371
		c-0.139-0.334-0.366-0.574-0.682-0.722c-0.316-0.147-0.752-0.221-1.307-0.221h-0.403h-0.039l-1.196-0.013l-0.214-0.078
		l-0.085-0.208v-2.236l0.085-0.214l0.214-0.085h0.52l0.208,0.085l0.078,0.214v1.508h1.001c0.789,0,1.415,0.113,1.879,0.338
		c0.464,0.226,0.799,0.585,1.007,1.079c0.208,0.494,0.312,1.153,0.312,1.976c0,1.109-0.273,1.974-0.819,2.593
		c-0.546,0.62-1.257,1.077-2.132,1.372l-0.546,0.182L230.152,124.307 M282.736,124.203h-0.338l-0.208-0.078l-0.078-0.208v-0.624
		h-1.911l-0.208-0.078l-0.078-0.208v-0.286c0-0.121,0.052-0.251,0.156-0.39l1.755-2.444c0.113-0.156,0.243-0.234,0.39-0.234h0.52
		l0.208,0.078l0.078,0.208v2.509h0.455l0.208,0.078l0.078,0.208v0.273l-0.078,0.208l-0.208,0.078h-0.455v0.624l-0.078,0.208
		L282.736,124.203 M282.125,120.836l-1.131,1.625h1.131V120.836 M276.028,124.177h-0.351l-0.188-0.072l-0.072-0.188l0.052-0.143
		l6.409-8.45c0.069-0.095,0.132-0.16,0.189-0.195c0.056-0.035,0.136-0.052,0.241-0.052h0.351l0.195,0.071l0.078,0.188l-0.052,0.143
		l-6.422,8.45l-0.188,0.189C276.212,124.158,276.132,124.177,276.028,124.177 M267.76,124.177h-1.924l-0.215-0.085l-0.085-0.214
		v-0.429c0-0.095,0.028-0.169,0.085-0.221l0.215-0.078h1.859c0.754,0,1.309-0.19,1.664-0.572c0.355-0.381,0.55-0.936,0.585-1.664
		c0.009-0.121,0.013-0.273,0.013-0.455c0-0.173-0.005-0.321-0.013-0.442c-0.026-0.737-0.219-1.293-0.578-1.67
		c-0.36-0.377-0.917-0.565-1.671-0.565h-1.859l-0.215-0.085l-0.085-0.214v-0.429c0-0.095,0.028-0.169,0.085-0.221l0.215-0.078h1.924
		c1.101,0,1.917,0.275,2.451,0.825c0.533,0.551,0.817,1.346,0.851,2.386c0.009,0.121,0.013,0.286,0.013,0.494
		c0,0.208-0.004,0.377-0.013,0.507c-0.035,1.04-0.319,1.835-0.851,2.385C269.677,123.902,268.861,124.177,267.76,124.177
		 M260.974,124.177h-2.236l-0.215-0.085l-0.084-0.214v-0.429l0.084-0.215l0.215-0.085h2.171c0.607,0,1.075-0.195,1.404-0.585
		c0.329-0.39,0.507-0.94,0.533-1.651c0.008-0.087,0.013-0.238,0.013-0.455c0-0.208-0.005-0.355-0.013-0.442
		c-0.018-0.71-0.193-1.261-0.526-1.651c-0.334-0.39-0.804-0.585-1.411-0.585h-1.599v1.04c0,0.347,0.039,0.62,0.117,0.819
		c0.078,0.199,0.212,0.325,0.403,0.377l0.494,0.13l0.163,0.137c0.039,0.074,0.058,0.162,0.058,0.266v0.299
		c0,0.096-0.048,0.165-0.143,0.208c-0.068,0.031-0.14,0.046-0.217,0.046c-0.031,0-0.063-0.003-0.095-0.008l-0.507-0.104
		c-0.867-0.19-1.3-0.927-1.3-2.21v-1.729c0-0.095,0.028-0.169,0.085-0.221l0.215-0.078h2.392c0.953,0,1.677,0.278,2.171,0.832
		c0.494,0.555,0.758,1.348,0.793,2.379c0.009,0.087,0.013,0.251,0.013,0.494c0,0.251-0.004,0.42-0.013,0.507
		c-0.035,1.031-0.299,1.824-0.793,2.379C262.651,123.9,261.927,124.177,260.974,124.177 M253.031,124.177h-0.546l-0.215-0.085
		l-0.084-0.214v-3.887c0-1.491-0.745-2.236-2.236-2.236h-0.936c-0.087,0.546-0.15,0.999-0.188,1.359
		c-0.039,0.36-0.054,0.769-0.045,1.229l0.026,3.536l-0.085,0.214l-0.214,0.085l-1.807-0.026l-0.214-0.085l-0.085-0.215v-0.39
		l0.085-0.215l0.214-0.084l1.001,0.013v-2.782c-0.009-0.546,0.002-1.008,0.033-1.384c0.03-0.377,0.102-0.795,0.215-1.255h-0.702
		l-0.214-0.078l-0.085-0.208v-0.416c0-0.095,0.028-0.169,0.085-0.221l0.214-0.078h2.782c2.201,0,3.302,1.058,3.302,3.172v3.952
		l-0.085,0.214L253.031,124.177 M241.28,124.177h-3.354l-0.208-0.085l-0.078-0.214v-0.416l0.078-0.215l0.208-0.084h2.509v-3.159
		c0-0.659-0.167-1.194-0.501-1.605c-0.334-0.411-0.756-0.617-1.267-0.617h-1.378l-1.001,6.084l-0.111,0.221l-0.214,0.091h-0.546
		l-0.201-0.091l-0.059-0.221l1.04-6.084h-0.663l-0.215-0.085l-0.085-0.214v-0.429l0.085-0.215l0.215-0.085h3.263
		c0.537,0,1.016,0.128,1.436,0.384c0.42,0.256,0.75,0.622,0.988,1.099c0.238,0.477,0.358,1.04,0.358,1.69v3.952l-0.085,0.214
		L241.28,124.177 M226.655,124.177h-0.546l-0.215-0.085l-0.085-0.214v-3.887c0-1.491-0.745-2.236-2.236-2.236h-1.586v6.123
		l-0.084,0.214l-0.215,0.085h-0.546l-0.215-0.085l-0.085-0.214v-6.825c0-0.095,0.028-0.169,0.085-0.221l0.215-0.078h2.496
		c1.118,0,1.95,0.267,2.496,0.8c0.546,0.533,0.819,1.332,0.819,2.398v3.926l-0.084,0.214L226.655,124.177 M256.06,121.161h-0.572
		l-0.214-0.084l-0.085-0.215v-3.809c0-0.095,0.028-0.169,0.085-0.221l0.214-0.078h0.572l0.215,0.085l0.084,0.215v3.809l-0.084,0.215
		L256.06,121.161 M277.237,119.627h-0.351l-0.208-0.078l-0.078-0.208v-3.12l-0.78,0.585l-0.169,0.052l-0.234-0.117l-0.156-0.208
		l-0.065-0.182l0.117-0.221l1.287-0.962c0.087-0.061,0.186-0.091,0.299-0.091h0.338l0.208,0.078l0.078,0.208v3.978l-0.078,0.208
		L277.237,119.627"/>
	<path fill="#000000" d="M223.274,143.56h-0.533l-0.214-0.078c-0.057-0.052-0.085-0.126-0.085-0.221v-6.851l0.085-0.214l0.214-0.085
		h0.533l0.214,0.085l0.085,0.214v6.851l-0.085,0.214L223.274,143.56 M225.12,141.207l-0.163-0.065l-0.072-0.182v-0.572
		c0-0.156,0.095-0.273,0.286-0.351l0.507-0.195c0.598-0.225,1.057-0.55,1.378-0.975c0.321-0.425,0.481-1.049,0.481-1.872
		c0-0.581-0.07-1.038-0.208-1.372c-0.139-0.334-0.366-0.574-0.682-0.722c-0.316-0.147-0.752-0.221-1.307-0.221h-2.6l-0.214-0.085
		l-0.085-0.214v-0.442l0.085-0.208l0.214-0.078h2.756c0.797,0,1.428,0.113,1.891,0.338c0.464,0.226,0.8,0.585,1.008,1.079
		s0.312,1.153,0.312,1.976c0,1.109-0.273,1.974-0.819,2.593c-0.546,0.62-1.257,1.077-2.132,1.372l-0.546,0.182L225.12,141.207
		 M205.53,141.207c-1.066,0-1.866-0.28-2.399-0.838c-0.533-0.559-0.799-1.363-0.799-2.412v-4.004c0-0.095,0.028-0.169,0.084-0.221
		l0.215-0.078h3.12c1.118,0,1.919,0.251,2.405,0.754c0.485,0.503,0.749,1.274,0.793,2.314c0.009,0.087,0.013,0.321,0.013,0.702
		s-0.004,0.615-0.013,0.702c-0.026,1.031-0.308,1.803-0.845,2.314C207.566,140.952,206.708,141.207,205.53,141.207 M203.424,134.655
		v3.302c0,0.72,0.176,1.27,0.527,1.651c0.351,0.382,0.873,0.572,1.566,0.572c0.815,0,1.4-0.171,1.755-0.513
		c0.355-0.342,0.541-0.878,0.559-1.606c0.009-0.086,0.013-0.299,0.013-0.637c0-0.338-0.004-0.55-0.013-0.637
		c-0.018-0.693-0.214-1.222-0.592-1.586c-0.377-0.364-0.895-0.546-1.553-0.546H203.424 M269.645,141.077h-1.924l-0.214-0.085
		l-0.085-0.214v-0.429c0-0.095,0.028-0.169,0.085-0.221l0.214-0.078h1.859c0.754,0,1.309-0.191,1.664-0.572
		c0.355-0.381,0.55-0.936,0.585-1.664c0.009-0.121,0.013-0.273,0.013-0.455c0-0.173-0.004-0.321-0.013-0.442
		c-0.026-0.737-0.219-1.293-0.579-1.671c-0.36-0.377-0.916-0.565-1.671-0.565h-1.859l-0.214-0.085l-0.085-0.214v-0.429
		c0-0.095,0.028-0.169,0.085-0.221l0.214-0.078h1.924c1.101,0,1.918,0.275,2.451,0.826c0.533,0.55,0.817,1.345,0.852,2.385
		c0.009,0.121,0.013,0.286,0.013,0.494s-0.004,0.377-0.013,0.507c-0.035,1.04-0.319,1.835-0.852,2.385
		C271.562,140.802,270.745,141.077,269.645,141.077 M262.859,141.077h-2.236l-0.214-0.085l-0.085-0.214v-0.429l0.085-0.215
		l0.214-0.084h2.171c0.607,0,1.075-0.195,1.404-0.585c0.329-0.39,0.507-0.94,0.533-1.651c0.009-0.087,0.013-0.238,0.013-0.455
		c0-0.208-0.004-0.355-0.013-0.442c-0.018-0.71-0.193-1.261-0.527-1.651c-0.334-0.39-0.804-0.585-1.41-0.585h-1.599v1.04
		c0,0.347,0.039,0.62,0.117,0.819c0.078,0.199,0.212,0.325,0.403,0.377l0.494,0.13l0.162,0.137c0.039,0.074,0.059,0.162,0.059,0.266
		v0.299c0,0.096-0.048,0.165-0.143,0.208c-0.068,0.031-0.141,0.047-0.218,0.047c-0.031,0-0.062-0.002-0.095-0.007l-0.507-0.104
		c-0.867-0.19-1.3-0.927-1.3-2.21v-1.729c0-0.095,0.028-0.169,0.084-0.221l0.215-0.078h2.392c0.953,0,1.677,0.278,2.171,0.832
		c0.494,0.555,0.758,1.348,0.793,2.379c0.009,0.087,0.013,0.251,0.013,0.494c0,0.251-0.005,0.42-0.013,0.507
		c-0.035,1.031-0.299,1.824-0.793,2.379C264.536,140.8,263.812,141.077,262.859,141.077 M257.854,141.077h-0.572l-0.215-0.085
		l-0.085-0.214v-6.825c0-0.095,0.028-0.169,0.085-0.221l0.215-0.078h0.572l0.214,0.085l0.085,0.215v6.825l-0.085,0.214
		L257.854,141.077 M254.734,141.077h-0.546l-0.214-0.085l-0.085-0.214v-3.887c0-1.491-0.745-2.236-2.236-2.236h-0.936
		c-0.087,0.546-0.149,0.999-0.188,1.358c-0.039,0.36-0.054,0.769-0.045,1.229l0.026,3.536l-0.084,0.214l-0.215,0.085l-1.807-0.026
		l-0.215-0.085l-0.085-0.215v-0.39l0.085-0.215l0.215-0.084l1.001,0.013v-2.782c-0.009-0.546,0.002-1.008,0.033-1.385
		c0.03-0.377,0.102-0.795,0.214-1.254h-0.702l-0.214-0.078l-0.085-0.208v-0.416c0-0.095,0.028-0.169,0.085-0.221l0.214-0.078h2.782
		c2.201,0,3.302,1.058,3.302,3.172v3.952l-0.085,0.214L254.734,141.077 M243.255,141.077h-0.585c-0.113,0-0.199-0.033-0.26-0.098
		l-0.104-0.11l-2.964-4.173c-0.373,0.269-0.626,0.587-0.76,0.956c-0.134,0.369-0.201,0.774-0.201,1.216v1.911l-0.085,0.214
		l-0.214,0.085H237.6l-0.215-0.085l-0.084-0.214v-1.963c0-0.641,0.097-1.2,0.292-1.677c0.195-0.477,0.579-0.906,1.151-1.287
		l-1.209-1.69c-0.061-0.095-0.091-0.178-0.091-0.247l0.078-0.182l0.182-0.078h0.572c0.139,0,0.26,0.074,0.364,0.221l2.73,3.809
		c0.312-0.182,0.539-0.373,0.682-0.572c0.143-0.199,0.232-0.396,0.266-0.592c0.035-0.195,0.052-0.449,0.052-0.76v-1.807l0.085-0.215
		l0.214-0.085h0.507l0.215,0.085l0.085,0.215v1.859c0,0.589-0.102,1.094-0.306,1.515c-0.204,0.42-0.613,0.813-1.229,1.176
		l1.482,2.067l0.091,0.247l-0.078,0.182L243.255,141.077 M235.936,141.077h-5.408l-0.208-0.085l-0.078-0.214v-0.416l0.078-0.215
		l0.208-0.084h3.757v-3.172c0-1.482-0.745-2.223-2.236-2.223h-1.391l-0.208-0.085l-0.078-0.214v-0.416l0.078-0.215l0.208-0.085
		h1.456c2.218,0,3.328,1.062,3.328,3.185v3.224h0.494l0.208,0.084l0.078,0.215v0.416l-0.078,0.214L235.936,141.077 M220.193,141.077
		h-0.546l-0.215-0.085l-0.085-0.214v-3.887c0-1.491-0.745-2.236-2.236-2.236h-0.936c-0.087,0.546-0.15,0.999-0.188,1.358
		c-0.039,0.36-0.054,0.769-0.046,1.229l0.026,3.536l-0.085,0.214l-0.214,0.085l-1.807-0.026l-0.214-0.085l-0.085-0.215v-0.39
		l0.085-0.215l0.214-0.084l1.001,0.013v-2.782c-0.009-0.546,0.002-1.008,0.033-1.385c0.03-0.377,0.102-0.795,0.215-1.254h-0.702
		l-0.215-0.078l-0.084-0.208v-0.416c0-0.095,0.028-0.169,0.084-0.221l0.215-0.078h2.782c2.201,0,3.302,1.058,3.302,3.172v3.952
		l-0.085,0.214L220.193,141.077 M200.096,141.077h-0.572l-0.215-0.085l-0.085-0.214v-6.825c0-0.095,0.028-0.169,0.085-0.221
		l0.215-0.078h0.572l0.214,0.085l0.085,0.215v6.825l-0.085,0.214L200.096,141.077 M194.181,141.077h-1.924l-0.215-0.085
		l-0.084-0.214v-0.429c0-0.095,0.028-0.169,0.084-0.221l0.215-0.078h1.859c0.754,0,1.309-0.191,1.664-0.572
		c0.355-0.381,0.55-0.936,0.585-1.664c0.009-0.121,0.013-0.273,0.013-0.455c0-0.173-0.004-0.321-0.013-0.442
		c-0.026-0.737-0.219-1.293-0.579-1.671c-0.36-0.377-0.916-0.565-1.671-0.565h-1.859l-0.215-0.085l-0.084-0.214v-0.429
		c0-0.095,0.028-0.169,0.084-0.221l0.215-0.078h1.924c1.101,0,1.918,0.275,2.45,0.826c0.533,0.55,0.817,1.345,0.852,2.385
		c0.008,0.121,0.013,0.286,0.013,0.494s-0.005,0.377-0.013,0.507c-0.035,1.04-0.319,1.835-0.852,2.385
		C196.098,140.802,195.281,141.077,194.181,141.077 M189.709,141.077h-0.546l-0.215-0.085l-0.084-0.214v-3.887
		c0-1.491-0.745-2.236-2.236-2.236h-1.677l-0.215-0.078l-0.085-0.208v-0.416l0.085-0.215l0.215-0.085h1.755
		c2.201,0,3.302,1.058,3.302,3.172v3.952l-0.085,0.214L189.709,141.077"/>
	<path fill="#000000" d="M283.503,141.077h-5.694l-0.215-0.085l-0.084-0.214v-0.39c0-0.199,0.108-0.39,0.325-0.572l2.834-2.821
		c0.641-0.546,1.083-0.992,1.326-1.339c0.243-0.347,0.364-0.715,0.364-1.105c0-0.511-0.143-0.912-0.429-1.202
		c-0.286-0.29-0.702-0.436-1.248-0.436c-0.52,0-0.932,0.152-1.235,0.455c-0.304,0.304-0.49,0.711-0.559,1.222
		c-0.017,0.095-0.061,0.169-0.13,0.221l-0.208,0.078h-0.624l-0.195-0.078l-0.078-0.182c0.017-0.459,0.141-0.903,0.371-1.332
		c0.229-0.429,0.57-0.78,1.02-1.053c0.451-0.273,0.997-0.409,1.638-0.409c0.971,0,1.701,0.253,2.191,0.76
		c0.489,0.507,0.734,1.151,0.734,1.931c0,0.546-0.132,1.038-0.397,1.475c-0.264,0.438-0.678,0.899-1.241,1.384l-2.561,2.6h4.095
		c0.095,0,0.169,0.026,0.221,0.078c0.052,0.052,0.078,0.126,0.078,0.221v0.494l-0.084,0.214L283.503,141.077"/>
	<path fill="#000000" d="M256.112,158.107c-1.066,0-1.866-0.28-2.398-0.838c-0.533-0.559-0.8-1.363-0.8-2.412v-4.004
		c0-0.095,0.028-0.169,0.085-0.221l0.214-0.078h3.12c1.118,0,1.92,0.251,2.405,0.754c0.485,0.503,0.75,1.274,0.793,2.314
		c0.009,0.087,0.013,0.321,0.013,0.702c0,0.381-0.004,0.615-0.013,0.702c-0.026,1.031-0.308,1.803-0.845,2.314
		C258.149,157.852,257.291,158.107,256.112,158.107 M254.006,151.555v3.302c0,0.72,0.176,1.27,0.527,1.651
		c0.351,0.382,0.873,0.572,1.567,0.572c0.815,0,1.399-0.171,1.755-0.513c0.355-0.342,0.542-0.878,0.559-1.605
		c0.009-0.087,0.013-0.299,0.013-0.637c0-0.338-0.005-0.55-0.013-0.637c-0.017-0.693-0.214-1.222-0.591-1.586
		c-0.377-0.364-0.895-0.546-1.554-0.546H254.006 M282.97,158.003h-0.338l-0.208-0.078l-0.078-0.208v-0.624h-1.911l-0.208-0.078
		l-0.078-0.208v-0.286c0-0.121,0.052-0.251,0.156-0.39l1.755-2.444c0.113-0.156,0.243-0.234,0.39-0.234h0.52l0.208,0.078
		l0.078,0.208v2.509h0.455l0.208,0.078l0.078,0.208v0.273l-0.078,0.208l-0.208,0.078h-0.455v0.624l-0.078,0.208L282.97,158.003
		 M282.359,154.636l-1.131,1.625h1.131V154.636 M276.236,157.977h-0.351l-0.188-0.071l-0.072-0.189l0.052-0.143l6.409-8.45
		c0.069-0.095,0.132-0.16,0.189-0.195c0.056-0.035,0.136-0.052,0.241-0.052h0.351l0.195,0.071l0.078,0.189l-0.052,0.143l-6.422,8.45
		l-0.188,0.188C276.42,157.958,276.34,157.977,276.236,157.977 M266.681,157.977h-1.924l-0.215-0.085l-0.085-0.214v-0.429
		c0-0.095,0.028-0.169,0.085-0.221l0.215-0.078h1.859c0.754,0,1.309-0.191,1.664-0.572c0.355-0.381,0.55-0.936,0.585-1.664
		c0.009-0.121,0.013-0.273,0.013-0.455c0-0.173-0.005-0.321-0.013-0.442c-0.026-0.737-0.219-1.293-0.578-1.67
		c-0.36-0.377-0.917-0.565-1.671-0.565h-1.859l-0.215-0.085l-0.085-0.214v-0.429c0-0.095,0.028-0.169,0.085-0.221l0.215-0.078h1.924
		c1.101,0,1.917,0.275,2.451,0.826c0.533,0.55,0.817,1.345,0.851,2.385c0.009,0.121,0.013,0.286,0.013,0.494
		s-0.004,0.377-0.013,0.507c-0.035,1.04-0.319,1.835-0.851,2.385C268.598,157.702,267.781,157.977,266.681,157.977 M262.144,157.977
		h-0.572l-0.214-0.085l-0.085-0.214v-6.825c0-0.095,0.028-0.169,0.085-0.221l0.214-0.078h0.572l0.215,0.085l0.084,0.215v6.825
		l-0.084,0.214L262.144,157.977 M247.545,157.977h-3.354l-0.208-0.085l-0.078-0.214v-0.416l0.078-0.215l0.208-0.084h2.509v-3.159
		c0-0.659-0.167-1.194-0.501-1.605c-0.334-0.411-0.756-0.617-1.267-0.617h-1.378l-1.001,6.084l-0.111,0.221l-0.214,0.091h-0.546
		l-0.201-0.091l-0.058-0.221l1.04-6.084h-0.663l-0.215-0.085l-0.084-0.214v-0.429l0.084-0.215l0.215-0.085h3.263
		c0.537,0,1.016,0.128,1.437,0.384c0.42,0.256,0.75,0.622,0.988,1.098c0.238,0.477,0.358,1.04,0.358,1.69v3.952l-0.085,0.214
		L247.545,157.977 M236.47,157.977h-5.447l-0.214-0.085l-0.085-0.214v-6.825c0-0.095,0.028-0.169,0.085-0.221l0.214-0.078h2.457
		c1.109,0,1.935,0.265,2.476,0.793c0.541,0.529,0.813,1.322,0.813,2.379v3.952l-0.085,0.214L236.47,157.977 M231.803,151.555v5.408
		h3.848v-3.172c0-1.491-0.745-2.236-2.236-2.236H231.803 M239.499,154.961h-0.572l-0.215-0.085l-0.085-0.215v-3.809
		c0-0.095,0.028-0.169,0.085-0.221l0.215-0.078h0.572l0.214,0.085l0.085,0.215v3.809l-0.085,0.215L239.499,154.961 M276.054,153.492
		c-0.564,0-0.999-0.106-1.307-0.318c-0.308-0.212-0.47-0.466-0.488-0.76v-0.026l0.078-0.156l0.143-0.065h0.325
		c0.113,0,0.221,0.052,0.325,0.156l0.136,0.137c0.065,0.065,0.16,0.117,0.286,0.156c0.126,0.039,0.288,0.058,0.487,0.058
		c0.269,0,0.49-0.052,0.663-0.156c0.173-0.104,0.26-0.247,0.26-0.429c0-0.208-0.074-0.357-0.221-0.449
		c-0.147-0.091-0.36-0.136-0.637-0.136h-0.533l-0.208-0.078l-0.078-0.208v-0.247c0-0.087,0.052-0.182,0.156-0.286l1.053-0.962
		h-1.742l-0.208-0.078l-0.078-0.208v-0.273l0.078-0.208l0.208-0.078h2.665l0.208,0.078l0.078,0.208v0.247
		c0,0.096-0.013,0.178-0.039,0.247l-0.169,0.221l-0.936,0.845c0.442,0.035,0.773,0.173,0.994,0.416
		c0.221,0.243,0.332,0.559,0.332,0.949c0,0.442-0.161,0.787-0.481,1.033C277.085,153.369,276.634,153.492,276.054,153.492"/>
	<path fill="#000000" d="M207.818,176.944l-0.201-0.084l-0.085-0.215v-0.429l0.078-0.201l0.182-0.085
		c0.485-0.009,0.869-0.176,1.151-0.5c0.281-0.325,0.483-0.852,0.605-1.58c0.121-0.728,0.182-1.725,0.182-2.99
		c0-1.265-0.061-2.26-0.182-2.984c-0.121-0.724-0.323-1.248-0.605-1.573c-0.282-0.325-0.665-0.492-1.151-0.501l-0.182-0.084
		l-0.078-0.202v-0.429l0.085-0.214l0.201-0.085c0.745,0,1.337,0.21,1.775,0.63c0.438,0.421,0.752,1.071,0.943,1.95
		c0.19,0.88,0.286,2.043,0.286,3.491s-0.096,2.613-0.286,3.497c-0.191,0.884-0.505,1.536-0.943,1.956
		C209.155,176.734,208.563,176.944,207.818,176.944 M136.384,176.944c-0.745,0-1.337-0.21-1.775-0.63
		c-0.438-0.42-0.752-1.073-0.943-1.956c-0.191-0.884-0.286-2.05-0.286-3.497s0.095-2.611,0.286-3.491
		c0.191-0.88,0.505-1.53,0.943-1.95c0.438-0.42,1.029-0.63,1.775-0.63l0.214,0.085l0.085,0.214v0.429l-0.078,0.202l-0.182,0.084
		c-0.494,0.009-0.88,0.176-1.157,0.501c-0.278,0.325-0.477,0.849-0.598,1.573c-0.121,0.724-0.182,1.718-0.182,2.984
		c0,1.274,0.06,2.273,0.182,2.996c0.121,0.724,0.321,1.248,0.598,1.573c0.277,0.325,0.663,0.492,1.157,0.5l0.182,0.085l0.078,0.201
		v0.429l-0.085,0.215L136.384,176.944 M283.399,174.877h-3.081l-0.208-0.078l-0.078-0.208v-0.273l0.065-0.201
		c0.043-0.065,0.125-0.145,0.247-0.241l0.598-0.429c0.459-0.321,0.793-0.565,1.001-0.735c0.208-0.169,0.366-0.331,0.474-0.487
		c0.108-0.156,0.163-0.325,0.163-0.507c0-0.199-0.072-0.358-0.215-0.474c-0.143-0.117-0.319-0.176-0.527-0.176
		c-0.191,0-0.34,0.03-0.448,0.091c-0.108,0.061-0.178,0.115-0.208,0.163c-0.03,0.048-0.076,0.132-0.137,0.253
		c-0.052,0.095-0.1,0.158-0.143,0.188l-0.169,0.045h-0.351c-0.156,0-0.234-0.074-0.234-0.221c0-0.225,0.078-0.44,0.234-0.644
		c0.156-0.203,0.362-0.368,0.617-0.494c0.256-0.125,0.535-0.188,0.838-0.188c0.494,0,0.893,0.141,1.196,0.423
		c0.303,0.282,0.455,0.622,0.455,1.021c0,0.303-0.067,0.57-0.201,0.799c-0.135,0.23-0.334,0.455-0.598,0.676
		c-0.264,0.221-0.652,0.509-1.164,0.865h1.872l0.208,0.078l0.078,0.208v0.26l-0.078,0.208L283.399,174.877 M275.937,174.877h-0.351
		l-0.188-0.071l-0.071-0.188l0.052-0.143l6.409-8.45c0.069-0.095,0.132-0.16,0.189-0.195c0.056-0.035,0.136-0.052,0.241-0.052h0.351
		l0.195,0.072l0.078,0.188l-0.052,0.143l-6.422,8.45l-0.188,0.188C276.121,174.858,276.041,174.877,275.937,174.877
		 M267.669,174.877h-1.924l-0.215-0.084l-0.084-0.215v-0.429c0-0.095,0.028-0.169,0.084-0.221l0.215-0.078h1.859
		c0.754,0,1.309-0.191,1.664-0.572c0.355-0.381,0.55-0.936,0.585-1.664c0.009-0.121,0.013-0.273,0.013-0.455
		c0-0.173-0.004-0.32-0.013-0.442c-0.026-0.737-0.219-1.294-0.579-1.671c-0.36-0.377-0.916-0.566-1.671-0.566h-1.859l-0.215-0.085
		l-0.084-0.214v-0.429c0-0.095,0.028-0.169,0.084-0.221l0.215-0.078h1.924c1.101,0,1.918,0.275,2.451,0.825
		c0.533,0.55,0.817,1.345,0.852,2.385c0.008,0.121,0.013,0.286,0.013,0.494c0,0.208-0.005,0.377-0.013,0.507
		c-0.035,1.04-0.318,1.835-0.852,2.385C269.586,174.602,268.769,174.877,267.669,174.877 M260.883,174.877h-2.236l-0.215-0.084
		l-0.084-0.215v-0.429l0.084-0.215l0.215-0.084h2.171c0.607,0,1.075-0.195,1.404-0.585c0.329-0.39,0.507-0.94,0.533-1.651
		c0.009-0.087,0.013-0.238,0.013-0.455c0-0.208-0.004-0.355-0.013-0.442c-0.018-0.711-0.193-1.261-0.526-1.651
		c-0.334-0.39-0.804-0.585-1.41-0.585h-1.599v1.04c0,0.347,0.039,0.62,0.117,0.819c0.078,0.2,0.212,0.325,0.403,0.377l0.494,0.13
		l0.163,0.137c0.039,0.074,0.059,0.163,0.059,0.266v0.299c0,0.096-0.048,0.165-0.143,0.208c-0.068,0.031-0.141,0.047-0.218,0.047
		c-0.031,0-0.062-0.002-0.095-0.007l-0.507-0.104c-0.867-0.19-1.3-0.927-1.3-2.21v-1.729c0-0.095,0.028-0.169,0.084-0.221
		l0.215-0.078h2.392c0.953,0,1.677,0.277,2.171,0.832c0.494,0.555,0.758,1.348,0.793,2.379c0.009,0.087,0.013,0.251,0.013,0.494
		c0,0.251-0.005,0.42-0.013,0.507c-0.035,1.031-0.299,1.824-0.793,2.379C262.56,174.6,261.836,174.877,260.883,174.877
		 M252.94,174.877h-0.546l-0.214-0.084l-0.085-0.215v-3.887c0-1.49-0.745-2.236-2.236-2.236h-0.936
		c-0.087,0.546-0.149,0.999-0.188,1.358c-0.039,0.36-0.054,0.769-0.045,1.229l0.026,3.536l-0.084,0.215l-0.215,0.084l-1.807-0.026
		l-0.215-0.085l-0.085-0.214v-0.39l0.085-0.214l0.215-0.085l1.001,0.013v-2.782c-0.009-0.546,0.002-1.008,0.033-1.385
		c0.03-0.377,0.102-0.795,0.214-1.254h-0.702l-0.214-0.078l-0.085-0.208v-0.416c0-0.095,0.028-0.169,0.085-0.221l0.214-0.078h2.782
		c2.201,0,3.302,1.057,3.302,3.172v3.952l-0.084,0.215L252.94,174.877 M241.189,174.877h-3.354l-0.208-0.084l-0.078-0.215v-0.416
		l0.078-0.214l0.208-0.085h2.509v-3.159c0-0.658-0.167-1.194-0.501-1.605c-0.334-0.411-0.756-0.617-1.267-0.617h-1.378l-1.001,6.084
		l-0.11,0.221l-0.215,0.091h-0.546l-0.201-0.091l-0.058-0.221l1.04-6.084h-0.663l-0.215-0.085l-0.084-0.214v-0.429l0.084-0.215
		l0.215-0.084h3.263c0.537,0,1.016,0.128,1.437,0.384c0.42,0.256,0.749,0.622,0.988,1.099c0.238,0.477,0.357,1.04,0.357,1.69v3.952
		l-0.085,0.215L241.189,174.877 M231.868,174.877h-0.546l-0.208-0.078l-0.078-0.208v-4.667c0-0.355,0.03-0.658,0.091-0.91
		c0.061-0.251,0.143-0.438,0.247-0.559h-1.144l-0.215-0.078l-0.084-0.208v-0.416l0.084-0.215l0.215-0.084h3.12l0.214,0.084
		l0.085,0.215v0.416l-0.085,0.208l-0.214,0.078h-0.78c-0.121,0.13-0.219,0.334-0.293,0.611c-0.074,0.278-0.11,0.59-0.11,0.936v4.589
		l-0.085,0.208L231.868,174.877 M228.267,174.877h-0.546l-0.214-0.084l-0.085-0.215v-3.887c0-1.49-0.741-2.236-2.223-2.236h-2.418
		l-0.215-0.078l-0.084-0.208v-0.416c0-0.095,0.028-0.169,0.084-0.221l0.215-0.078h2.483c2.201,0,3.302,1.066,3.302,3.198v3.926
		l-0.084,0.215L228.267,174.877 M223.327,174.877h-0.546l-0.215-0.084l-0.084-0.215v-4.368l0.084-0.214l0.215-0.085h0.546
		l0.214,0.085l0.085,0.214v4.368l-0.085,0.215L223.327,174.877 M220.233,174.877h-0.546l-0.215-0.084l-0.085-0.215v-3.887
		c0-1.49-0.745-2.236-2.236-2.236h-1.677l-0.214-0.078l-0.085-0.208v-0.416l0.085-0.215l0.214-0.084h1.755
		c2.201,0,3.302,1.057,3.302,3.172v3.952l-0.084,0.215L220.233,174.877 M203.515,174.877h-2.236l-0.215-0.084l-0.084-0.215v-0.429
		l0.084-0.215l0.215-0.084h2.171c0.607,0,1.075-0.195,1.404-0.585c0.329-0.39,0.507-0.94,0.533-1.651
		c0.008-0.087,0.013-0.238,0.013-0.455c0-0.208-0.005-0.355-0.013-0.442c-0.018-0.711-0.193-1.261-0.527-1.651
		c-0.334-0.39-0.804-0.585-1.411-0.585h-1.599v1.04c0,0.347,0.039,0.62,0.117,0.819c0.078,0.2,0.212,0.325,0.403,0.377l0.494,0.13
		l0.163,0.137c0.039,0.074,0.058,0.163,0.058,0.266v0.299c0,0.096-0.048,0.165-0.143,0.208c-0.068,0.031-0.141,0.047-0.217,0.047
		c-0.031,0-0.062-0.002-0.094-0.007l-0.507-0.104c-0.867-0.19-1.3-0.927-1.3-2.21v-1.729c0-0.095,0.028-0.169,0.085-0.221
		l0.215-0.078h2.392c0.953,0,1.677,0.277,2.171,0.832c0.494,0.555,0.758,1.348,0.793,2.379c0.009,0.087,0.013,0.251,0.013,0.494
		c0,0.251-0.004,0.42-0.013,0.507c-0.035,1.031-0.299,1.824-0.793,2.379C205.192,174.6,204.468,174.877,203.515,174.877
		 M198.575,174.877h-0.546l-0.214-0.084l-0.085-0.215v-3.887c0-1.49-0.745-2.236-2.236-2.236h-1.677l-0.215-0.078l-0.084-0.208
		v-0.416l0.084-0.215l0.215-0.084h1.755c2.201,0,3.302,1.057,3.302,3.172v3.952l-0.084,0.215L198.575,174.877 M188.565,174.877
		h-0.546l-0.215-0.084l-0.084-0.215v-3.887c0-1.49-0.745-2.236-2.236-2.236h-1.586v6.123l-0.085,0.215l-0.214,0.084h-0.546
		l-0.214-0.084l-0.085-0.215v-6.825c0-0.095,0.028-0.169,0.085-0.221l0.214-0.078h2.496c1.118,0,1.95,0.266,2.496,0.799
		c0.546,0.533,0.819,1.333,0.819,2.399v3.926l-0.085,0.215L188.565,174.877 M180.506,174.877h-0.546l-0.214-0.084l-0.085-0.215
		v-3.887c0-1.49-0.745-2.236-2.236-2.236h-0.936c-0.087,0.546-0.15,0.999-0.189,1.358c-0.039,0.36-0.054,0.769-0.045,1.229
		l0.026,3.536l-0.085,0.215l-0.215,0.084l-1.807-0.026l-0.215-0.085l-0.084-0.214v-0.39l0.084-0.214l0.215-0.085l1.001,0.013v-2.782
		c-0.009-0.546,0.002-1.008,0.033-1.385c0.03-0.377,0.102-0.795,0.215-1.254h-0.702l-0.215-0.078l-0.085-0.208v-0.416
		c0-0.095,0.028-0.169,0.085-0.221l0.215-0.078h2.782c2.201,0,3.302,1.057,3.302,3.172v3.952l-0.084,0.215L180.506,174.877
		 M168.754,174.877h-0.546l-0.214-0.084l-0.085-0.215v-3.887c0-1.49-0.741-2.236-2.223-2.236h-2.418l-0.215-0.078l-0.084-0.208
		v-0.416c0-0.095,0.028-0.169,0.084-0.221l0.215-0.078h2.483c2.201,0,3.302,1.066,3.302,3.198v3.926l-0.084,0.215L168.754,174.877
		 M163.814,174.877h-0.546l-0.215-0.084l-0.084-0.215v-4.368l0.084-0.214l0.215-0.085h0.546l0.214,0.085l0.085,0.214v4.368
		l-0.085,0.215L163.814,174.877 M159.576,174.877h-0.546l-0.208-0.078l-0.078-0.208v-4.667c0-0.355,0.03-0.658,0.091-0.91
		c0.061-0.251,0.143-0.438,0.247-0.559h-3.588l-0.214-0.078l-0.085-0.208v-0.416l0.085-0.215l0.214-0.084h5.564
		c0.095,0,0.169,0.026,0.221,0.078c0.052,0.052,0.078,0.126,0.078,0.221v0.416l-0.085,0.208l-0.214,0.078h-0.767
		c-0.121,0.13-0.219,0.334-0.293,0.611c-0.074,0.278-0.11,0.59-0.11,0.936v4.589l-0.091,0.208L159.576,174.877 M153.765,174.877
		h-0.546l-0.214-0.084l-0.085-0.215v-3.887c0-1.49-0.745-2.236-2.236-2.236h-1.677l-0.214-0.078l-0.085-0.208v-0.416l0.085-0.215
		l0.214-0.084h1.755c2.201,0,3.302,1.057,3.302,3.172v3.952l-0.084,0.215L153.765,174.877 M143.755,174.877h-5.447l-0.214-0.084
		l-0.085-0.215v-6.825c0-0.095,0.028-0.169,0.085-0.221l0.214-0.078h2.457c1.109,0,1.935,0.264,2.477,0.793
		c0.542,0.529,0.812,1.322,0.812,2.379v3.952l-0.084,0.215L143.755,174.877 M139.088,168.455v5.408h3.848v-3.172
		c0-1.49-0.745-2.236-2.236-2.236H139.088 M255.969,171.861h-0.572l-0.215-0.085l-0.085-0.214v-3.809
		c0-0.095,0.028-0.169,0.085-0.221l0.215-0.078h0.572l0.214,0.084l0.085,0.215v3.809l-0.085,0.214L255.969,171.861 M191.594,171.861
		h-0.572l-0.215-0.085l-0.084-0.214v-3.809c0-0.095,0.028-0.169,0.084-0.221l0.215-0.078h0.572l0.214,0.084l0.085,0.215v3.809
		l-0.085,0.214L191.594,171.861 M146.784,171.861h-0.572l-0.215-0.085l-0.084-0.214v-3.809c0-0.095,0.028-0.169,0.084-0.221
		l0.215-0.078h0.572l0.214,0.084l0.085,0.215v3.809l-0.085,0.214L146.784,171.861 M277.146,170.327h-0.351l-0.208-0.078
		l-0.078-0.208v-3.12l-0.78,0.585l-0.169,0.052l-0.234-0.117l-0.156-0.208l-0.065-0.182l0.117-0.221l1.287-0.962
		c0.087-0.06,0.186-0.091,0.299-0.091h0.338l0.208,0.078l0.078,0.208v3.978l-0.078,0.208L277.146,170.327"/>
	<path fill="#000000" d="M180.31,191.907c-1.066,0-1.866-0.279-2.398-0.838c-0.533-0.559-0.8-1.363-0.8-2.412v-4.004
		c0-0.095,0.028-0.169,0.085-0.221l0.214-0.078h3.12c1.118,0,1.92,0.251,2.405,0.754c0.485,0.503,0.749,1.274,0.793,2.314
		c0.009,0.087,0.013,0.321,0.013,0.702c0,0.382-0.004,0.615-0.013,0.702c-0.026,1.031-0.308,1.803-0.845,2.314
		C182.347,191.652,181.489,191.907,180.31,191.907 M178.204,185.355v3.302c0,0.72,0.175,1.27,0.527,1.651
		c0.351,0.381,0.873,0.572,1.567,0.572c0.815,0,1.399-0.171,1.755-0.514c0.355-0.342,0.541-0.878,0.559-1.605
		c0.009-0.087,0.013-0.299,0.013-0.637c0-0.338-0.005-0.55-0.013-0.637c-0.017-0.693-0.214-1.222-0.591-1.586
		c-0.377-0.364-0.895-0.546-1.554-0.546H178.204 M252.589,191.894c-0.147,0-0.221-0.069-0.221-0.208v-0.611
		c0-0.147,0.091-0.255,0.273-0.325c0.026-0.009,0.197-0.067,0.514-0.176c0.316-0.108,0.6-0.245,0.851-0.409
		c0.26-0.165,0.516-0.392,0.767-0.683c0.251-0.29,0.429-0.565,0.533-0.825l-0.234-1.17c-0.104-0.511-0.214-0.917-0.331-1.216
		c-0.117-0.299-0.275-0.527-0.474-0.682c-0.199-0.156-0.459-0.234-0.78-0.234h-0.481l-0.214-0.078l-0.085-0.208v-0.442l0.085-0.215
		l0.214-0.085h0.481c0.554,0,1.01,0.113,1.365,0.338c0.355,0.226,0.639,0.561,0.851,1.008c0.212,0.446,0.392,1.029,0.54,1.748
		l0.78,4.056v0.052l-0.084,0.176l-0.201,0.071h-0.572c-0.165,0-0.265-0.1-0.299-0.299l-0.299-1.521
		c-0.321,0.494-0.689,0.88-1.105,1.157c-0.321,0.217-0.62,0.384-0.897,0.5c-0.277,0.117-0.572,0.206-0.884,0.267L252.589,191.894
		 M250.496,191.777h-0.546l-0.214-0.084l-0.085-0.215v-3.887c0-1.49-0.745-2.236-2.236-2.236h-1.677l-0.215-0.078l-0.084-0.208
		v-0.416l0.084-0.215l0.215-0.084h1.755c2.201,0,3.302,1.057,3.302,3.172v3.952l-0.085,0.215L250.496,191.777 M237.47,191.777
		h-0.546l-0.215-0.084l-0.084-0.215v-3.887c0-1.49-0.745-2.236-2.236-2.236h-1.586v6.123l-0.085,0.215l-0.214,0.084h-0.546
		l-0.215-0.084l-0.084-0.215v-6.825c0-0.095,0.028-0.169,0.084-0.221l0.215-0.078h2.496c1.118,0,1.95,0.266,2.496,0.799
		c0.546,0.533,0.819,1.333,0.819,2.399v3.926l-0.085,0.215L237.47,191.777 M229.41,191.777h-3.354l-0.208-0.084l-0.078-0.215v-0.416
		l0.078-0.214l0.208-0.085h2.509v-3.159c0-0.658-0.167-1.194-0.5-1.605c-0.334-0.411-0.756-0.617-1.267-0.617h-1.378l-1.001,6.084
		l-0.11,0.221l-0.215,0.091h-0.546l-0.202-0.091l-0.058-0.221l1.04-6.084h-0.663l-0.214-0.085l-0.085-0.214v-0.429l0.085-0.215
		l0.214-0.084h3.263c0.537,0,1.016,0.128,1.437,0.384c0.42,0.256,0.75,0.622,0.988,1.098c0.238,0.477,0.358,1.04,0.358,1.69v3.952
		l-0.085,0.215L229.41,191.777 M221.611,191.777h-0.585c-0.113,0-0.199-0.033-0.26-0.098l-0.104-0.111l-2.964-4.173
		c-0.373,0.269-0.626,0.587-0.76,0.955c-0.134,0.369-0.201,0.774-0.201,1.216v1.911l-0.085,0.215l-0.214,0.084h-0.481l-0.215-0.084
		l-0.084-0.215v-1.963c0-0.641,0.098-1.2,0.292-1.677c0.195-0.477,0.579-0.906,1.151-1.287l-1.209-1.69
		c-0.061-0.095-0.091-0.178-0.091-0.247l0.078-0.182l0.182-0.078h0.572c0.138,0,0.26,0.074,0.364,0.221l2.73,3.809
		c0.312-0.182,0.539-0.372,0.682-0.572c0.143-0.199,0.232-0.396,0.266-0.591c0.035-0.195,0.052-0.449,0.052-0.761v-1.807
		l0.085-0.215l0.214-0.084h0.507l0.214,0.084l0.085,0.215v1.859c0,0.59-0.102,1.094-0.306,1.515
		c-0.204,0.42-0.613,0.813-1.229,1.176l1.482,2.067l0.091,0.247l-0.078,0.182L221.611,191.777 M213.72,191.777h-0.546l-0.214-0.084
		l-0.085-0.215v-3.887c0-1.49-0.741-2.236-2.223-2.236h-2.418l-0.215-0.078l-0.085-0.208v-0.416c0-0.095,0.028-0.169,0.085-0.221
		l0.215-0.078h2.483c2.201,0,3.302,1.066,3.302,3.198v3.926l-0.085,0.215L213.72,191.777 M208.78,191.777h-0.546l-0.215-0.084
		l-0.085-0.215v-4.368l0.085-0.214l0.215-0.085h0.546l0.215,0.085l0.084,0.214v4.368l-0.084,0.215L208.78,191.777 M202.488,191.777
		h-3.354l-0.208-0.084l-0.078-0.215v-0.416l0.078-0.214l0.208-0.085h2.509v-3.159c0-0.658-0.167-1.194-0.5-1.605
		c-0.334-0.411-0.756-0.617-1.268-0.617h-1.378l-1.001,6.084l-0.11,0.221l-0.215,0.091h-0.546l-0.201-0.091l-0.058-0.221l1.04-6.084
		h-0.663l-0.214-0.085l-0.085-0.214v-0.429l0.085-0.215l0.214-0.084h3.263c0.537,0,1.016,0.128,1.437,0.384
		c0.42,0.256,0.749,0.622,0.988,1.098c0.238,0.477,0.357,1.04,0.357,1.69v3.952l-0.084,0.215L202.488,191.777 M194.35,191.777
		h-0.572l-0.215-0.084l-0.084-0.215v-6.825c0-0.095,0.028-0.169,0.084-0.221l0.215-0.078h0.572l0.214,0.084l0.085,0.215v6.825
		l-0.085,0.215L194.35,191.777 M191.23,191.777h-3.354l-0.208-0.084l-0.078-0.215v-0.416l0.078-0.214l0.208-0.085h2.509v-3.159
		c0-0.658-0.167-1.194-0.5-1.605c-0.334-0.411-0.756-0.617-1.267-0.617h-1.378l-1.001,6.084l-0.11,0.221l-0.215,0.091h-0.546
		l-0.202-0.091l-0.058-0.221l1.04-6.084h-0.663l-0.214-0.085l-0.085-0.214v-0.429l0.085-0.215l0.214-0.084h3.263
		c0.537,0,1.016,0.128,1.437,0.384c0.42,0.256,0.749,0.622,0.988,1.098c0.238,0.477,0.357,1.04,0.357,1.69v3.952l-0.084,0.215
		L191.23,191.777 M174.941,191.777h-0.546l-0.215-0.084l-0.084-0.215v-3.887c0-1.49-0.745-2.236-2.236-2.236h-0.936
		c-0.087,0.546-0.15,0.999-0.188,1.358c-0.039,0.36-0.054,0.769-0.046,1.229l0.026,3.536l-0.085,0.215l-0.214,0.084l-1.807-0.026
		l-0.214-0.085l-0.085-0.214v-0.39l0.085-0.214l0.214-0.085l1.001,0.013v-2.782c-0.009-0.546,0.002-1.008,0.033-1.384
		s0.102-0.795,0.215-1.254h-0.702l-0.215-0.078l-0.084-0.208v-0.416c0-0.095,0.028-0.169,0.084-0.221l0.215-0.078h2.782
		c2.201,0,3.302,1.057,3.302,3.172v3.952l-0.085,0.215L174.941,191.777 M243.502,185.394h-0.377c-0.156,0-0.243-0.095-0.26-0.286
		l-0.221-2.262v-0.052l0.071-0.182l0.189-0.065h0.819l0.201,0.085l0.059,0.214l-0.221,2.262
		C243.745,185.299,243.658,185.394,243.502,185.394"/>
	<path fill="#000000" d="M280.344,191.907c-1.118,0-1.935-0.327-2.451-0.981c-0.516-0.654-0.791-1.51-0.825-2.568l-0.013-1.118
		l0.013-1.157c0.026-1.048,0.301-1.9,0.825-2.554c0.524-0.654,1.341-0.982,2.451-0.982c1.118,0,1.939,0.327,2.463,0.982
		c0.524,0.654,0.8,1.506,0.826,2.554c0.009,0.243,0.013,0.628,0.013,1.157c0,0.512-0.004,0.884-0.013,1.118
		c-0.035,1.057-0.31,1.913-0.826,2.568C282.291,191.58,281.47,191.907,280.344,191.907 M280.344,183.613
		c-0.659,0-1.157,0.223-1.495,0.67c-0.338,0.447-0.516,1.068-0.533,1.866l-0.013,1.066l0.013,1.079
		c0.017,0.806,0.195,1.43,0.533,1.872c0.338,0.442,0.836,0.663,1.495,0.663c0.667,0,1.17-0.221,1.508-0.663
		c0.338-0.442,0.516-1.066,0.533-1.872c0.009-0.251,0.013-0.611,0.013-1.079c0-0.476-0.004-0.832-0.013-1.066
		c-0.018-0.797-0.197-1.419-0.539-1.866C281.503,183.836,281.002,183.613,280.344,183.613 M272.115,191.907
		c-1.118,0-1.935-0.327-2.451-0.981c-0.516-0.654-0.791-1.51-0.825-2.568l-0.013-1.118l0.013-1.157
		c0.026-1.048,0.301-1.9,0.825-2.554c0.524-0.654,1.341-0.982,2.451-0.982c1.118,0,1.939,0.327,2.464,0.982
		c0.524,0.654,0.799,1.506,0.825,2.554c0.009,0.243,0.013,0.628,0.013,1.157c0,0.512-0.004,0.884-0.013,1.118
		c-0.035,1.057-0.31,1.913-0.825,2.568C274.062,191.58,273.241,191.907,272.115,191.907 M272.115,183.613
		c-0.659,0-1.157,0.223-1.495,0.67c-0.338,0.447-0.516,1.068-0.533,1.866l-0.013,1.066l0.013,1.079
		c0.017,0.806,0.195,1.43,0.533,1.872c0.338,0.442,0.836,0.663,1.495,0.663c0.667,0,1.17-0.221,1.508-0.663
		c0.338-0.442,0.516-1.066,0.533-1.872c0.009-0.251,0.013-0.611,0.013-1.079c0-0.476-0.004-0.832-0.013-1.066
		c-0.017-0.797-0.197-1.419-0.539-1.866C273.274,183.836,272.773,183.613,272.115,183.613 M267.045,191.777h-5.694l-0.215-0.084
		l-0.084-0.215v-0.39c0-0.199,0.108-0.39,0.325-0.572l2.834-2.821c0.641-0.546,1.083-0.992,1.326-1.339
		c0.243-0.347,0.364-0.715,0.364-1.105c0-0.511-0.143-0.912-0.429-1.202c-0.286-0.29-0.702-0.436-1.248-0.436
		c-0.52,0-0.932,0.152-1.235,0.455c-0.304,0.303-0.49,0.711-0.559,1.222c-0.018,0.096-0.061,0.169-0.13,0.221l-0.208,0.078h-0.624
		l-0.195-0.078l-0.078-0.182c0.017-0.459,0.141-0.903,0.371-1.332c0.229-0.429,0.57-0.78,1.02-1.053
		c0.451-0.273,0.997-0.409,1.638-0.409c0.971,0,1.701,0.253,2.191,0.76c0.489,0.507,0.735,1.151,0.735,1.931
		c0,0.546-0.132,1.038-0.397,1.475c-0.264,0.438-0.678,0.899-1.241,1.385l-2.561,2.6h4.095c0.095,0,0.169,0.026,0.221,0.078
		c0.052,0.052,0.078,0.126,0.078,0.221v0.494l-0.084,0.215L267.045,191.777"/>
	<path fill="#000000" d="M269.099,225.707l-0.163-0.065l-0.071-0.182v-0.572c0-0.156,0.095-0.273,0.286-0.351l0.507-0.195
		c0.598-0.225,1.057-0.55,1.378-0.975c0.32-0.424,0.481-1.048,0.481-1.872c0-0.581-0.069-1.038-0.208-1.372
		c-0.139-0.333-0.366-0.574-0.682-0.722c-0.316-0.147-0.752-0.221-1.307-0.221h-0.403h-0.039l-1.196-0.013l-0.214-0.078
		l-0.085-0.208v-2.236l0.085-0.215l0.214-0.085h0.52l0.208,0.085l0.078,0.215v1.508h1.001c0.789,0,1.415,0.113,1.878,0.338
		c0.464,0.225,0.799,0.585,1.007,1.079s0.312,1.153,0.312,1.976c0,1.109-0.273,1.974-0.819,2.594
		c-0.546,0.62-1.257,1.077-2.132,1.372l-0.546,0.182L269.099,225.707 M283.23,225.577h-3.354l-0.208-0.084l-0.078-0.215v-0.416
		l0.078-0.214l0.208-0.085h2.509v-3.159c0-0.659-0.167-1.194-0.501-1.605c-0.334-0.412-0.756-0.618-1.267-0.618h-1.378l-1.001,6.084
		l-0.111,0.221l-0.214,0.091h-0.546l-0.201-0.091l-0.059-0.221l1.04-6.084h-0.663l-0.215-0.084l-0.085-0.215v-0.429l0.085-0.214
		l0.215-0.085h3.263c0.537,0,1.016,0.128,1.436,0.384c0.42,0.256,0.75,0.622,0.988,1.098c0.238,0.477,0.358,1.04,0.358,1.69v3.952
		l-0.085,0.215L283.23,225.577 M265.29,225.577h-0.572l-0.214-0.084l-0.085-0.215v-6.825c0-0.095,0.028-0.169,0.085-0.221
		l0.214-0.078h0.572l0.214,0.085l0.085,0.214v6.825l-0.085,0.215L265.29,225.577 M259.18,225.577h-0.897l-0.208-0.084l-0.078-0.215
		v-0.871c0-0.095,0.026-0.171,0.078-0.228l0.208-0.084h0.897c0.095,0,0.171,0.028,0.228,0.084c0.056,0.056,0.085,0.132,0.085,0.228
		v0.871l-0.091,0.215L259.18,225.577 M275.183,222.561h-0.572l-0.214-0.085l-0.085-0.214v-3.809c0-0.095,0.028-0.169,0.085-0.221
		l0.214-0.078h0.572l0.215,0.085l0.085,0.214v3.809l-0.085,0.214L275.183,222.561 M262.196,222.561h-0.572l-0.215-0.085
		l-0.085-0.214v-3.809c0-0.095,0.028-0.169,0.085-0.221l0.215-0.078h0.572l0.214,0.085l0.085,0.214v3.809l-0.085,0.214
		L262.196,222.561 M259.18,221.027h-0.897l-0.208-0.084l-0.078-0.215v-0.871c0-0.095,0.026-0.171,0.078-0.228l0.208-0.084h0.897
		c0.095,0,0.171,0.028,0.228,0.084c0.056,0.056,0.085,0.132,0.085,0.228v0.871l-0.091,0.215L259.18,221.027"/>
	<path fill="#000000" d="M170.938,243.205l-0.182-0.065l-0.078-0.169v-0.403c0-0.199,0.069-0.321,0.208-0.364l1.703-0.572
		l-1.69-6.058c-0.043-0.147-0.065-0.234-0.065-0.26l0.078-0.182l0.182-0.078h0.598l0.195,0.058l0.104,0.137l1.664,6.032
		c0.684-0.243,1.164-0.585,1.437-1.027c0.273-0.442,0.409-0.996,0.409-1.664v-3.237l0.085-0.214l0.214-0.085h0.546
		c0.095,0,0.169,0.026,0.221,0.078c0.052,0.052,0.078,0.126,0.078,0.221v3.588c0,0.763-0.251,1.45-0.754,2.06
		c-0.503,0.611-1.174,1.042-2.015,1.294l-2.834,0.897L170.938,243.205 M180.09,242.607l-0.163-0.065l-0.072-0.182v-0.572
		c0-0.156,0.095-0.273,0.286-0.351l0.507-0.195c0.598-0.225,1.057-0.55,1.378-0.975c0.321-0.424,0.481-1.048,0.481-1.872
		c0-0.581-0.07-1.038-0.208-1.372c-0.139-0.333-0.366-0.574-0.682-0.721c-0.316-0.147-0.752-0.221-1.307-0.221h-0.403h-0.039
		l-1.196-0.013l-0.215-0.078l-0.085-0.208v-2.236l0.085-0.215l0.215-0.084h0.52l0.208,0.084l0.078,0.215v1.508h1.001
		c0.789,0,1.415,0.113,1.879,0.338c0.464,0.225,0.8,0.585,1.008,1.079c0.208,0.494,0.312,1.153,0.312,1.976
		c0,1.109-0.273,1.974-0.819,2.593c-0.546,0.62-1.257,1.077-2.132,1.372l-0.546,0.182L180.09,242.607 M253.122,242.594
		c-0.148,0-0.221-0.069-0.221-0.208v-0.611c0-0.147,0.091-0.256,0.273-0.325c0.026-0.009,0.197-0.067,0.514-0.176
		c0.316-0.108,0.6-0.245,0.852-0.409c0.26-0.165,0.516-0.392,0.767-0.682c0.251-0.29,0.429-0.566,0.533-0.825l-0.234-1.17
		c-0.104-0.511-0.215-0.916-0.331-1.215c-0.117-0.299-0.275-0.527-0.475-0.683c-0.199-0.156-0.459-0.234-0.78-0.234h-0.481
		l-0.215-0.078l-0.085-0.208v-0.442l0.085-0.215l0.215-0.084h0.481c0.555,0,1.01,0.113,1.365,0.338
		c0.355,0.226,0.639,0.561,0.851,1.008c0.212,0.447,0.392,1.029,0.539,1.748l0.78,4.056v0.052l-0.085,0.176l-0.201,0.072h-0.572
		c-0.165,0-0.264-0.1-0.299-0.299l-0.299-1.521c-0.321,0.494-0.689,0.88-1.105,1.157c-0.321,0.217-0.62,0.384-0.897,0.501
		c-0.277,0.117-0.572,0.206-0.884,0.266L253.122,242.594 M188.423,242.594c-0.147,0-0.221-0.069-0.221-0.208v-0.611
		c0-0.147,0.091-0.256,0.273-0.325c0.026-0.009,0.197-0.067,0.514-0.176c0.316-0.108,0.6-0.245,0.851-0.409
		c0.26-0.165,0.516-0.392,0.767-0.682c0.251-0.29,0.429-0.566,0.533-0.825l-0.234-1.17c-0.104-0.511-0.215-0.916-0.331-1.215
		c-0.117-0.299-0.275-0.527-0.474-0.683c-0.2-0.156-0.459-0.234-0.78-0.234h-0.481l-0.215-0.078l-0.084-0.208v-0.442l0.084-0.215
		l0.215-0.084h0.481c0.554,0,1.009,0.113,1.365,0.338c0.355,0.226,0.639,0.561,0.851,1.008c0.212,0.447,0.392,1.029,0.539,1.748
		l0.78,4.056v0.052l-0.084,0.176l-0.202,0.072h-0.572c-0.165,0-0.264-0.1-0.299-0.299l-0.299-1.521
		c-0.321,0.494-0.689,0.88-1.105,1.157c-0.321,0.217-0.62,0.384-0.897,0.501c-0.278,0.117-0.572,0.206-0.884,0.266L188.423,242.594
		 M251.029,242.477h-0.546l-0.215-0.085l-0.084-0.215v-3.887c0-1.491-0.745-2.236-2.236-2.236h-1.677l-0.215-0.078l-0.085-0.208
		v-0.416l0.085-0.214l0.215-0.085h1.755c2.201,0,3.302,1.057,3.302,3.172v3.952l-0.085,0.215L251.029,242.477 M238.003,242.477
		h-0.546l-0.214-0.085l-0.085-0.215v-3.887c0-1.491-0.745-2.236-2.236-2.236h-0.936c-0.087,0.546-0.149,0.999-0.188,1.359
		c-0.039,0.36-0.054,0.769-0.045,1.228l0.026,3.536l-0.085,0.215l-0.214,0.085l-1.807-0.026l-0.215-0.085l-0.085-0.214v-0.39
		l0.085-0.215l0.215-0.085l1.001,0.013v-2.782c-0.009-0.546,0.002-1.007,0.033-1.384c0.03-0.377,0.102-0.795,0.214-1.254h-0.702
		l-0.214-0.078l-0.085-0.208v-0.416c0-0.095,0.028-0.169,0.085-0.221l0.214-0.078H235c2.201,0,3.302,1.057,3.302,3.172v3.952
		l-0.085,0.215L238.003,242.477 M229.45,242.477h-3.354l-0.208-0.085l-0.078-0.215v-0.416l0.078-0.215l0.208-0.085h2.509v-3.159
		c0-0.659-0.167-1.194-0.501-1.605c-0.334-0.412-0.756-0.618-1.267-0.618h-1.378l-1.001,6.084l-0.11,0.221l-0.214,0.091h-0.546
		l-0.201-0.091l-0.059-0.221l1.04-6.084h-0.663l-0.215-0.084l-0.085-0.215v-0.429l0.085-0.214l0.215-0.085h3.263
		c0.537,0,1.016,0.128,1.436,0.383c0.42,0.256,0.75,0.622,0.988,1.099c0.238,0.477,0.358,1.04,0.358,1.69v3.952l-0.085,0.215
		L229.45,242.477 M221.377,242.477h-0.546l-0.214-0.085l-0.085-0.215v-3.887c0-1.491-0.745-2.236-2.236-2.236h-1.677l-0.214-0.078
		l-0.085-0.208v-0.416l0.085-0.214l0.214-0.085h1.755c2.201,0,3.302,1.057,3.302,3.172v3.952l-0.084,0.215L221.377,242.477
		 M211.367,242.477h-5.447l-0.215-0.085l-0.085-0.215v-6.825c0-0.095,0.028-0.169,0.085-0.221l0.215-0.078h2.457
		c1.109,0,1.935,0.264,2.476,0.793c0.542,0.529,0.813,1.322,0.813,2.379v3.952l-0.084,0.215L211.367,242.477 M206.7,236.055v5.408
		h3.848v-3.172c0-1.491-0.745-2.236-2.236-2.236H206.7 M200.174,242.477h-3.354l-0.208-0.085l-0.078-0.215v-0.416l0.078-0.215
		l0.208-0.085h2.509v-3.159c0-0.659-0.167-1.194-0.5-1.605c-0.334-0.412-0.756-0.618-1.268-0.618h-1.378l-1.001,6.084l-0.11,0.221
		l-0.215,0.091h-0.546l-0.202-0.091l-0.058-0.221l1.04-6.084h-0.663l-0.214-0.084l-0.085-0.215v-0.429l0.085-0.214l0.214-0.085
		h3.263c0.537,0,1.016,0.128,1.437,0.383c0.42,0.256,0.749,0.622,0.988,1.099c0.238,0.477,0.357,1.04,0.357,1.69v3.952l-0.084,0.215
		L200.174,242.477 M186.265,242.477h-0.572l-0.215-0.085l-0.084-0.215v-6.825c0-0.095,0.028-0.169,0.084-0.221l0.215-0.078h0.572
		l0.215,0.085l0.084,0.214v6.825l-0.084,0.215L186.265,242.477 M169.17,242.477h-3.471l-0.215-0.085l-0.084-0.215v-0.416
		l0.084-0.215l0.215-0.085h2.561l-0.208-3.302c-0.043-0.563-0.089-0.977-0.137-1.242c-0.048-0.264-0.154-0.479-0.318-0.644
		c-0.165-0.165-0.421-0.247-0.767-0.247h-0.533l-0.214-0.078l-0.085-0.208v-0.416l0.085-0.215l0.214-0.084h0.533
		c0.624,0,1.103,0.123,1.436,0.37c0.334,0.247,0.563,0.587,0.689,1.021c0.126,0.434,0.21,1.001,0.253,1.703l0.247,4.056v0.039
		l-0.085,0.188L169.17,242.477 M160.577,242.477h-5.447l-0.214-0.085l-0.085-0.215v-6.825c0-0.095,0.028-0.169,0.085-0.221
		l0.214-0.078h2.457c1.109,0,1.935,0.264,2.476,0.793c0.541,0.529,0.813,1.322,0.813,2.379v3.952l-0.085,0.215L160.577,242.477
		 M155.91,236.055v5.408h3.848v-3.172c0-1.491-0.745-2.236-2.236-2.236H155.91 M214.396,239.461h-0.572l-0.215-0.085l-0.084-0.214
		v-3.809c0-0.095,0.028-0.169,0.084-0.221l0.215-0.078h0.572l0.214,0.085l0.085,0.214v3.809l-0.085,0.214L214.396,239.461
		 M163.606,239.461h-0.572l-0.214-0.085l-0.085-0.214v-3.809c0-0.095,0.028-0.169,0.085-0.221l0.214-0.078h0.572l0.214,0.085
		l0.085,0.214v3.809l-0.085,0.214L163.606,239.461 M244.035,236.094h-0.377c-0.156,0-0.243-0.095-0.26-0.286l-0.221-2.262v-0.052
		l0.072-0.182l0.188-0.065h0.819l0.201,0.084l0.058,0.215l-0.221,2.262C244.278,235.999,244.191,236.094,244.035,236.094"/>
	<path fill="#000000" d="M280.344,242.607c-1.118,0-1.935-0.327-2.451-0.981c-0.516-0.654-0.791-1.51-0.825-2.568l-0.013-1.118
		l0.013-1.157c0.026-1.048,0.301-1.9,0.825-2.554c0.524-0.654,1.341-0.981,2.451-0.981c1.118,0,1.939,0.327,2.463,0.981
		c0.524,0.654,0.8,1.506,0.826,2.554c0.008,0.243,0.013,0.628,0.013,1.157c0,0.511-0.005,0.884-0.013,1.118
		c-0.035,1.058-0.31,1.913-0.826,2.568C282.291,242.28,281.47,242.607,280.344,242.607 M280.344,234.313
		c-0.659,0-1.157,0.223-1.495,0.669c-0.338,0.447-0.516,1.068-0.533,1.866l-0.013,1.066l0.013,1.079
		c0.017,0.806,0.195,1.43,0.533,1.872c0.338,0.442,0.836,0.663,1.495,0.663c0.667,0,1.17-0.221,1.508-0.663
		c0.338-0.442,0.516-1.066,0.533-1.872c0.009-0.251,0.013-0.611,0.013-1.079c0-0.476-0.004-0.832-0.013-1.066
		c-0.018-0.797-0.197-1.419-0.539-1.866C281.503,234.536,281.002,234.313,280.344,234.313 M272.323,242.607
		c-0.65,0-1.214-0.117-1.69-0.351c-0.477-0.234-0.841-0.539-1.092-0.916c-0.251-0.377-0.386-0.782-0.403-1.216v-0.026l0.078-0.169
		l0.182-0.065h0.637c0.182,0,0.299,0.095,0.351,0.286c0.13,0.468,0.371,0.817,0.722,1.046c0.351,0.23,0.756,0.344,1.216,0.344
		c0.589,0,1.079-0.18,1.469-0.539c0.39-0.36,0.585-0.856,0.585-1.488c0-0.581-0.195-1.042-0.585-1.384
		c-0.39-0.342-0.88-0.514-1.469-0.514c-0.312,0-0.564,0.039-0.754,0.117c-0.191,0.078-0.386,0.191-0.585,0.338
		c-0.113,0.087-0.206,0.15-0.28,0.189l-0.241,0.058h-0.624l-0.208-0.085l-0.078-0.201l0.403-4.329
		c0.026-0.217,0.134-0.325,0.325-0.325h4.498c0.095,0,0.169,0.026,0.221,0.078c0.052,0.052,0.078,0.126,0.078,0.221v0.481
		l-0.084,0.208l-0.215,0.078h-3.744l-0.234,2.613c0.416-0.295,0.975-0.442,1.677-0.442c0.581,0,1.109,0.115,1.586,0.344
		c0.477,0.23,0.856,0.566,1.138,1.008c0.281,0.442,0.422,0.966,0.422,1.573c0,0.642-0.141,1.194-0.422,1.658
		c-0.282,0.464-0.672,0.815-1.17,1.053C273.534,242.488,272.964,242.607,272.323,242.607 M267.578,242.477h-5.694l-0.215-0.085
		l-0.085-0.215v-0.39c0-0.199,0.108-0.39,0.325-0.572l2.834-2.821c0.641-0.546,1.083-0.992,1.326-1.339
		c0.243-0.346,0.364-0.715,0.364-1.105c0-0.511-0.143-0.912-0.429-1.203c-0.286-0.29-0.702-0.435-1.248-0.435
		c-0.52,0-0.932,0.152-1.235,0.455c-0.303,0.304-0.49,0.711-0.559,1.222c-0.018,0.096-0.061,0.169-0.13,0.221l-0.208,0.078h-0.624
		l-0.195-0.078l-0.078-0.182c0.017-0.459,0.141-0.904,0.371-1.333c0.23-0.429,0.57-0.78,1.021-1.053
		c0.451-0.273,0.997-0.41,1.638-0.41c0.97,0,1.701,0.253,2.19,0.761c0.49,0.507,0.735,1.15,0.735,1.93
		c0,0.546-0.132,1.038-0.397,1.476c-0.264,0.438-0.678,0.899-1.241,1.384l-2.561,2.6h4.095c0.095,0,0.169,0.026,0.221,0.078
		c0.052,0.052,0.078,0.126,0.078,0.221v0.494l-0.085,0.215L267.578,242.477"/>
	<path fill="#000000" d="M196.768,260.989h-0.546l-0.214-0.078c-0.056-0.052-0.085-0.126-0.085-0.221v-5.499
		c0-1.491-0.745-2.236-2.236-2.236h-1.911l-0.208-0.078l-0.078-0.208v-0.416l0.078-0.214l0.208-0.085h1.976
		c1.118,0,1.95,0.26,2.496,0.78c0.546,0.52,0.819,1.317,0.819,2.392v5.564l-0.084,0.215L196.768,260.989 M200.512,259.507
		l-0.163-0.065l-0.071-0.182v-0.572c0-0.156,0.095-0.273,0.286-0.351l0.507-0.195c0.598-0.225,1.057-0.55,1.378-0.975
		c0.321-0.425,0.481-1.049,0.481-1.872c0-0.581-0.069-1.038-0.208-1.372c-0.139-0.333-0.366-0.574-0.682-0.721
		c-0.316-0.147-0.752-0.221-1.307-0.221h-0.403h-0.039l-1.196-0.013l-0.214-0.078l-0.085-0.208v-2.236l0.085-0.215l0.214-0.084h0.52
		l0.208,0.084l0.078,0.215v1.508h1.001c0.788,0,1.415,0.113,1.879,0.338c0.464,0.225,0.8,0.585,1.007,1.079
		c0.208,0.494,0.312,1.153,0.312,1.976c0,1.109-0.273,1.974-0.819,2.594c-0.546,0.62-1.257,1.077-2.132,1.372l-0.546,0.182
		L200.512,259.507 M183.782,259.507c-1.135,0-1.963-0.271-2.483-0.813s-0.78-1.333-0.78-2.373v-4.069
		c0-0.095,0.028-0.169,0.085-0.221l0.214-0.078h0.494c0.095,0,0.169,0.026,0.221,0.078c0.052,0.052,0.078,0.126,0.078,0.221v4.004
		c0,0.719,0.18,1.27,0.54,1.651c0.359,0.382,0.903,0.572,1.631,0.572c0.719,0,1.25-0.176,1.593-0.527
		c0.342-0.351,0.522-0.882,0.539-1.592v-0.403v-0.936c-0.017-0.71-0.169-1.239-0.455-1.586c-0.286-0.347-0.676-0.52-1.17-0.52
		c-0.156,0-0.329,0.028-0.52,0.084c-0.191,0.056-0.355,0.128-0.494,0.215l-0.13,0.039l-0.163-0.071l-0.071-0.163v-0.377
		c0-0.104,0.009-0.186,0.026-0.247l0.143-0.156c0.182-0.121,0.375-0.21,0.579-0.266c0.203-0.056,0.462-0.085,0.773-0.085
		c0.841,0,1.48,0.245,1.918,0.735c0.438,0.49,0.669,1.246,0.695,2.269c0.009,0.087,0.013,0.342,0.013,0.767
		c0,0.425-0.004,0.68-0.013,0.767c-0.035,1.04-0.306,1.814-0.813,2.32C185.725,259.254,184.908,259.507,183.782,259.507
		 M139.231,259.507c-1.066,0-1.866-0.28-2.398-0.839c-0.533-0.559-0.8-1.363-0.8-2.411v-4.004c0-0.095,0.028-0.169,0.084-0.221
		l0.215-0.078h3.12c1.118,0,1.92,0.251,2.405,0.754c0.485,0.503,0.749,1.274,0.793,2.314c0.009,0.087,0.013,0.321,0.013,0.702
		c0,0.382-0.004,0.615-0.013,0.702c-0.026,1.031-0.308,1.803-0.845,2.314C141.268,259.252,140.41,259.507,139.231,259.507
		 M137.125,252.955v3.302c0,0.719,0.175,1.27,0.527,1.651c0.351,0.382,0.873,0.572,1.567,0.572c0.815,0,1.399-0.171,1.755-0.514
		c0.355-0.342,0.542-0.877,0.559-1.605c0.009-0.087,0.013-0.299,0.013-0.637c0-0.338-0.004-0.55-0.013-0.637
		c-0.017-0.693-0.214-1.222-0.592-1.586c-0.377-0.364-0.895-0.546-1.553-0.546H137.125 M254.656,259.494
		c-0.147,0-0.221-0.069-0.221-0.208v-0.611c0-0.147,0.091-0.255,0.273-0.325c0.026-0.008,0.197-0.067,0.514-0.176
		c0.316-0.108,0.6-0.245,0.851-0.409c0.26-0.165,0.516-0.392,0.767-0.682c0.251-0.29,0.429-0.565,0.533-0.825l-0.234-1.17
		c-0.104-0.511-0.215-0.916-0.332-1.215c-0.117-0.299-0.275-0.527-0.474-0.682c-0.199-0.156-0.459-0.234-0.78-0.234h-0.481
		l-0.214-0.078l-0.085-0.208v-0.442l0.085-0.215l0.214-0.084h0.481c0.554,0,1.01,0.113,1.365,0.338
		c0.355,0.225,0.639,0.561,0.852,1.007c0.212,0.447,0.392,1.029,0.539,1.748l0.78,4.056v0.052l-0.085,0.176l-0.201,0.072h-0.572
		c-0.165,0-0.264-0.1-0.299-0.299l-0.299-1.521c-0.321,0.494-0.689,0.88-1.105,1.157c-0.321,0.217-0.62,0.384-0.897,0.501
		c-0.277,0.117-0.572,0.206-0.884,0.266L254.656,259.494 M228.241,259.494c-0.148,0-0.221-0.069-0.221-0.208v-0.611
		c0-0.147,0.091-0.255,0.273-0.325c0.026-0.008,0.197-0.067,0.513-0.176c0.316-0.108,0.6-0.245,0.852-0.409
		c0.26-0.165,0.516-0.392,0.767-0.682c0.251-0.29,0.429-0.565,0.533-0.825l-0.234-1.17c-0.104-0.511-0.215-0.916-0.331-1.215
		c-0.117-0.299-0.275-0.527-0.474-0.682c-0.2-0.156-0.46-0.234-0.78-0.234h-0.481l-0.215-0.078l-0.085-0.208v-0.442l0.085-0.215
		l0.215-0.084h0.481c0.555,0,1.01,0.113,1.365,0.338c0.355,0.225,0.639,0.561,0.851,1.007c0.212,0.447,0.392,1.029,0.539,1.748
		l0.78,4.056v0.052l-0.084,0.176l-0.202,0.072h-0.572c-0.165,0-0.264-0.1-0.299-0.299l-0.299-1.521
		c-0.321,0.494-0.689,0.88-1.105,1.157c-0.321,0.217-0.62,0.384-0.897,0.501c-0.278,0.117-0.572,0.206-0.884,0.266L228.241,259.494
		 M144.223,259.494c-0.147,0-0.221-0.069-0.221-0.208v-0.611c0-0.147,0.091-0.255,0.273-0.325c0.026-0.008,0.197-0.067,0.514-0.176
		c0.316-0.108,0.6-0.245,0.851-0.409c0.26-0.165,0.516-0.392,0.767-0.682c0.251-0.29,0.429-0.565,0.533-0.825l-0.234-1.17
		c-0.104-0.511-0.214-0.916-0.331-1.215c-0.117-0.299-0.275-0.527-0.474-0.682c-0.199-0.156-0.459-0.234-0.78-0.234h-0.481
		l-0.214-0.078l-0.085-0.208v-0.442l0.085-0.215l0.214-0.084h0.481c0.554,0,1.01,0.113,1.365,0.338
		c0.355,0.225,0.639,0.561,0.852,1.007c0.212,0.447,0.392,1.029,0.539,1.748l0.78,4.056v0.052l-0.085,0.176l-0.201,0.072h-0.572
		c-0.165,0-0.264-0.1-0.299-0.299l-0.299-1.521c-0.321,0.494-0.689,0.88-1.105,1.157c-0.321,0.217-0.62,0.384-0.897,0.501
		c-0.277,0.117-0.572,0.206-0.884,0.266L144.223,259.494 M252.563,259.377h-0.546l-0.215-0.085l-0.085-0.215v-3.887
		c0-1.491-0.745-2.236-2.236-2.236h-1.677l-0.214-0.078l-0.085-0.208v-0.416l0.085-0.214l0.214-0.085h1.755
		c2.201,0,3.302,1.057,3.302,3.172v3.952l-0.084,0.215L252.563,259.377 M239.811,259.377h-0.585c-0.113,0-0.199-0.033-0.26-0.098
		l-0.104-0.111l-2.964-4.173c-0.373,0.269-0.626,0.587-0.76,0.956c-0.134,0.368-0.201,0.773-0.201,1.216v1.911l-0.085,0.215
		l-0.214,0.085h-0.481l-0.215-0.085l-0.084-0.215v-1.963c0-0.641,0.097-1.2,0.292-1.677c0.195-0.476,0.579-0.905,1.151-1.287
		l-1.209-1.69c-0.061-0.095-0.091-0.178-0.091-0.247l0.078-0.182l0.182-0.078h0.572c0.139,0,0.26,0.074,0.364,0.221l2.73,3.809
		c0.312-0.182,0.539-0.373,0.682-0.572c0.143-0.199,0.232-0.396,0.266-0.592c0.035-0.195,0.052-0.449,0.052-0.76v-1.807l0.085-0.214
		l0.214-0.085h0.507l0.215,0.085l0.085,0.214v1.859c0,0.589-0.102,1.094-0.306,1.514c-0.204,0.421-0.613,0.813-1.229,1.176
		l1.482,2.067l0.091,0.247l-0.078,0.182L239.811,259.377 M226.083,259.377h-0.572l-0.215-0.085l-0.084-0.215v-6.825
		c0-0.095,0.028-0.169,0.084-0.221l0.215-0.078h0.572l0.215,0.085l0.084,0.214v6.825l-0.084,0.215L226.083,259.377 M221.715,259.377
		h-0.546l-0.208-0.078l-0.078-0.208v-4.667c0-0.355,0.03-0.659,0.091-0.91c0.061-0.251,0.143-0.438,0.247-0.559h-1.144l-0.215-0.078
		l-0.085-0.208v-0.416l0.085-0.214l0.215-0.085h3.12l0.214,0.085l0.085,0.214v0.416l-0.085,0.208l-0.214,0.078h-0.78
		c-0.121,0.13-0.219,0.334-0.293,0.611c-0.074,0.277-0.111,0.59-0.111,0.936v4.589l-0.085,0.208L221.715,259.377 M211.64,259.377
		h-3.354l-0.208-0.085L208,259.078v-0.416l0.078-0.215l0.208-0.085h2.509v-3.159c0-0.659-0.167-1.194-0.501-1.605
		c-0.334-0.412-0.756-0.617-1.267-0.617h-1.378l-1.001,6.084l-0.111,0.221l-0.214,0.091h-0.546l-0.201-0.091l-0.059-0.221
		l1.04-6.084h-0.663l-0.215-0.085l-0.085-0.215v-0.429l0.085-0.214l0.215-0.085h3.263c0.537,0,1.016,0.128,1.436,0.384
		c0.42,0.256,0.75,0.622,0.988,1.099c0.238,0.477,0.358,1.04,0.358,1.69v3.952l-0.085,0.215L211.64,259.377 M178.335,259.377h-0.546
		l-0.214-0.085l-0.085-0.215v-3.887c0-1.491-0.745-2.236-2.236-2.236h-1.586v6.123l-0.085,0.215l-0.214,0.085h-0.546l-0.214-0.085
		l-0.085-0.215v-6.825c0-0.095,0.028-0.169,0.085-0.221l0.214-0.078h2.496c1.118,0,1.95,0.266,2.496,0.8
		c0.546,0.533,0.819,1.332,0.819,2.398v3.926l-0.085,0.215L178.335,259.377 M170.21,259.377h-0.572l-0.215-0.085l-0.084-0.215
		v-6.825c0-0.095,0.028-0.169,0.084-0.221l0.215-0.078h0.572l0.214,0.085l0.085,0.214v6.825l-0.085,0.215L170.21,259.377
		 M167.402,259.377h-3.471l-0.214-0.085l-0.085-0.215v-0.416l0.085-0.215l0.214-0.085h2.561l-0.208-3.302
		c-0.043-0.563-0.089-0.977-0.136-1.242c-0.048-0.264-0.154-0.479-0.318-0.644c-0.165-0.165-0.42-0.247-0.767-0.247h-0.533
		l-0.215-0.078l-0.085-0.208v-0.416l0.085-0.215l0.215-0.084h0.533c0.624,0,1.103,0.123,1.437,0.37
		c0.333,0.247,0.563,0.587,0.689,1.021c0.125,0.434,0.21,1.001,0.253,1.703l0.247,4.056v0.039l-0.084,0.188L167.402,259.377
		 M158.809,259.377h-5.447l-0.215-0.085l-0.085-0.215v-6.825c0-0.095,0.028-0.169,0.085-0.221l0.215-0.078h2.457
		c1.109,0,1.935,0.264,2.477,0.793c0.541,0.529,0.813,1.322,0.813,2.379v3.952l-0.085,0.215L158.809,259.377 M154.142,252.955v5.408
		h3.848v-3.172c0-1.491-0.745-2.236-2.236-2.236H154.142 M217.867,256.361h-0.572l-0.215-0.084l-0.085-0.215v-3.809
		c0-0.095,0.028-0.169,0.085-0.221l0.215-0.078h0.572l0.214,0.085l0.085,0.214v3.809l-0.085,0.215L217.867,256.361 M161.838,256.361
		h-0.572l-0.215-0.084l-0.084-0.215v-3.809c0-0.095,0.028-0.169,0.084-0.221l0.215-0.078h0.572l0.215,0.085l0.084,0.214v3.809
		l-0.084,0.215L161.838,256.361 M245.569,252.994h-0.377c-0.156,0-0.243-0.095-0.26-0.286l-0.221-2.262v-0.052l0.072-0.182
		l0.188-0.065h0.819l0.202,0.084l0.058,0.215l-0.221,2.262C245.812,252.899,245.725,252.994,245.569,252.994"/>
	<path fill="#000000" d="M280.344,259.507c-1.118,0-1.935-0.327-2.451-0.982c-0.516-0.654-0.791-1.51-0.825-2.568l-0.013-1.118
		l0.013-1.157c0.026-1.048,0.301-1.9,0.825-2.554c0.524-0.654,1.341-0.981,2.451-0.981c1.118,0,1.939,0.327,2.463,0.981
		c0.524,0.655,0.8,1.506,0.826,2.554c0.008,0.243,0.013,0.629,0.013,1.157c0,0.511-0.005,0.884-0.013,1.118
		c-0.035,1.058-0.31,1.913-0.826,2.568C282.291,259.18,281.47,259.507,280.344,259.507 M280.344,251.213
		c-0.659,0-1.157,0.223-1.495,0.67c-0.338,0.446-0.516,1.068-0.533,1.865l-0.013,1.066l0.013,1.079
		c0.017,0.806,0.195,1.43,0.533,1.872c0.338,0.442,0.836,0.663,1.495,0.663c0.667,0,1.17-0.221,1.508-0.663
		c0.338-0.442,0.516-1.066,0.533-1.872c0.009-0.251,0.013-0.611,0.013-1.079c0-0.476-0.004-0.832-0.013-1.066
		c-0.018-0.797-0.197-1.419-0.539-1.865C281.503,251.436,281.002,251.213,280.344,251.213 M272.115,259.507
		c-1.118,0-1.935-0.327-2.451-0.982c-0.516-0.654-0.791-1.51-0.826-2.568l-0.013-1.118l0.013-1.157
		c0.026-1.048,0.301-1.9,0.826-2.554c0.524-0.654,1.341-0.981,2.451-0.981c1.118,0,1.939,0.327,2.463,0.981
		c0.524,0.655,0.8,1.506,0.825,2.554c0.009,0.243,0.013,0.629,0.013,1.157c0,0.511-0.004,0.884-0.013,1.118
		c-0.035,1.058-0.31,1.913-0.825,2.568C274.062,259.18,273.241,259.507,272.115,259.507 M272.115,251.213
		c-0.659,0-1.157,0.223-1.495,0.67c-0.338,0.446-0.516,1.068-0.533,1.865l-0.013,1.066l0.013,1.079
		c0.017,0.806,0.195,1.43,0.533,1.872c0.338,0.442,0.836,0.663,1.495,0.663c0.667,0,1.17-0.221,1.508-0.663
		c0.338-0.442,0.516-1.066,0.533-1.872c0.009-0.251,0.013-0.611,0.013-1.079c0-0.476-0.004-0.832-0.013-1.066
		c-0.017-0.797-0.197-1.419-0.539-1.865C273.274,251.436,272.773,251.213,272.115,251.213 M266.707,259.377h-0.637l-0.208-0.085
		l-0.078-0.215v-7.332l-2.184,1.677l-0.195,0.078l-0.221-0.13l-0.312-0.403l-0.065-0.182c0-0.095,0.043-0.173,0.13-0.234
		l2.821-2.184c0.095-0.061,0.208-0.091,0.338-0.091h0.611l0.214,0.085l0.085,0.215v8.502l-0.085,0.215L266.707,259.377"/>
	<path fill="#000000" d="M275.976,277.889h-0.533l-0.215-0.084l-0.085-0.215v-5.473c0-1.491-0.745-2.236-2.236-2.236h-1.209v1.313
		c0,0.355,0.039,0.637,0.117,0.845c0.078,0.208,0.212,0.338,0.403,0.39l0.494,0.13l0.163,0.137c0.039,0.074,0.058,0.163,0.058,0.266
		v0.325l-0.13,0.195c-0.062,0.031-0.128,0.047-0.199,0.047c-0.028,0-0.057-0.003-0.087-0.008l-0.546-0.117
		c-0.867-0.19-1.3-0.94-1.3-2.249v-2.002c0-0.095,0.028-0.169,0.084-0.221l0.215-0.078h2.041c1.092,0,1.904,0.277,2.437,0.832
		c0.533,0.555,0.804,1.348,0.813,2.379l0.013,5.525l-0.085,0.215L275.976,277.889 M262.144,276.394
		c-0.148,0-0.221-0.069-0.221-0.208v-0.611c0-0.147,0.091-0.255,0.273-0.325c0.026-0.008,0.197-0.067,0.514-0.176
		c0.316-0.108,0.6-0.245,0.852-0.409c0.26-0.165,0.516-0.392,0.767-0.682c0.251-0.29,0.429-0.565,0.533-0.825l-0.234-1.17
		c-0.104-0.511-0.215-0.916-0.331-1.215c-0.117-0.299-0.275-0.527-0.475-0.682c-0.199-0.156-0.459-0.234-0.78-0.234h-0.481
		l-0.215-0.078l-0.085-0.208v-0.442l0.085-0.215l0.215-0.084h0.481c0.555,0,1.01,0.113,1.365,0.338
		c0.355,0.225,0.639,0.561,0.851,1.007c0.212,0.447,0.392,1.029,0.539,1.749l0.78,4.056v0.052l-0.084,0.176l-0.202,0.072h-0.572
		c-0.165,0-0.264-0.1-0.299-0.299l-0.299-1.521c-0.321,0.494-0.689,0.88-1.105,1.157c-0.321,0.217-0.62,0.384-0.897,0.501
		c-0.277,0.117-0.572,0.206-0.884,0.266L262.144,276.394 M280.435,276.277h-1.924l-0.215-0.085l-0.084-0.215v-0.429
		c0-0.095,0.028-0.169,0.084-0.221l0.215-0.078h1.859c0.754,0,1.309-0.19,1.664-0.572c0.355-0.381,0.55-0.936,0.585-1.664
		c0.008-0.121,0.013-0.273,0.013-0.455c0-0.173-0.005-0.321-0.013-0.442c-0.026-0.737-0.219-1.294-0.579-1.67
		c-0.36-0.377-0.916-0.565-1.671-0.565h-1.859l-0.215-0.085l-0.084-0.215v-0.429c0-0.095,0.028-0.169,0.084-0.221l0.215-0.078h1.924
		c1.101,0,1.918,0.275,2.451,0.826c0.533,0.55,0.817,1.346,0.851,2.385c0.009,0.121,0.013,0.286,0.013,0.494
		s-0.005,0.377-0.013,0.507c-0.035,1.04-0.319,1.835-0.851,2.385C282.352,276.002,281.535,276.277,280.435,276.277 M260.051,276.277
		h-0.546l-0.215-0.085l-0.084-0.215v-3.887c0-1.491-0.745-2.236-2.236-2.236h-1.677l-0.215-0.078l-0.085-0.208v-0.416l0.085-0.214
		l0.215-0.085h1.755c2.201,0,3.302,1.057,3.302,3.172v3.952l-0.085,0.215L260.051,276.277 M248.897,276.277h-0.546l-0.208-0.078
		l-0.078-0.208v-4.667c0-0.355,0.03-0.659,0.091-0.91c0.061-0.251,0.143-0.438,0.247-0.559h-3.588l-0.214-0.078l-0.085-0.208v-0.416
		l0.085-0.214l0.214-0.085h5.564c0.095,0,0.169,0.026,0.221,0.078c0.052,0.052,0.078,0.126,0.078,0.221v0.416l-0.085,0.208
		l-0.215,0.078h-0.767c-0.121,0.13-0.219,0.334-0.293,0.611c-0.074,0.277-0.11,0.59-0.11,0.936v4.589l-0.091,0.208L248.897,276.277
		 M243.086,276.277h-0.546l-0.215-0.085l-0.084-0.215v-3.887c0-1.491-0.745-2.236-2.236-2.236h-0.936
		c-0.087,0.546-0.15,0.999-0.188,1.359c-0.039,0.36-0.054,0.769-0.045,1.229l0.026,3.536l-0.085,0.215l-0.214,0.085l-1.807-0.026
		l-0.214-0.084l-0.085-0.215v-0.39l0.085-0.215l0.214-0.085l1.001,0.013v-2.782c-0.009-0.546,0.002-1.008,0.033-1.385
		c0.03-0.377,0.102-0.795,0.215-1.254h-0.702l-0.214-0.078l-0.085-0.208v-0.416c0-0.095,0.028-0.169,0.085-0.221l0.214-0.078h2.782
		c2.201,0,3.302,1.057,3.302,3.172v3.952l-0.085,0.215L243.086,276.277 M231.335,276.277h-0.546l-0.215-0.085l-0.085-0.215v-3.887
		c0-1.491-0.745-2.236-2.236-2.236h-0.936c-0.087,0.546-0.15,0.999-0.189,1.359c-0.039,0.36-0.054,0.769-0.045,1.229l0.026,3.536
		l-0.085,0.215l-0.215,0.085l-1.807-0.026l-0.214-0.084l-0.085-0.215v-0.39l0.085-0.215l0.214-0.085l1.001,0.013v-2.782
		c-0.009-0.546,0.002-1.008,0.033-1.385c0.03-0.377,0.102-0.795,0.215-1.254h-0.702l-0.215-0.078l-0.084-0.208v-0.416
		c0-0.095,0.028-0.169,0.084-0.221l0.215-0.078h2.782c2.201,0,3.302,1.057,3.302,3.172v3.952l-0.084,0.215L231.335,276.277
		 M220.376,276.277h-2.236l-0.215-0.085l-0.085-0.215v-0.429l0.085-0.215l0.215-0.085h2.171c0.607,0,1.075-0.195,1.404-0.585
		c0.329-0.39,0.507-0.94,0.533-1.651c0.009-0.087,0.013-0.238,0.013-0.455c0-0.208-0.005-0.355-0.013-0.442
		c-0.017-0.711-0.193-1.261-0.526-1.651c-0.334-0.39-0.804-0.585-1.411-0.585h-1.599v1.04c0,0.347,0.039,0.62,0.117,0.819
		c0.078,0.199,0.212,0.325,0.403,0.377l0.494,0.13l0.163,0.136c0.039,0.074,0.058,0.163,0.058,0.267v0.299
		c0,0.095-0.048,0.165-0.143,0.208c-0.068,0.031-0.14,0.046-0.217,0.046c-0.031,0-0.063-0.003-0.095-0.008l-0.507-0.104
		c-0.867-0.19-1.3-0.927-1.3-2.21v-1.729c0-0.095,0.028-0.169,0.085-0.221l0.214-0.078h2.392c0.953,0,1.677,0.277,2.171,0.832
		c0.494,0.555,0.758,1.348,0.793,2.379c0.009,0.087,0.013,0.251,0.013,0.494c0,0.251-0.004,0.421-0.013,0.507
		c-0.035,1.031-0.299,1.824-0.793,2.379C222.053,276,221.329,276.277,220.376,276.277 M215.371,276.277h-0.572l-0.215-0.085
		l-0.084-0.215v-6.825c0-0.095,0.028-0.169,0.084-0.221l0.215-0.078h0.572l0.215,0.085l0.084,0.214v6.825l-0.084,0.215
		L215.371,276.277 M211.003,276.277h-0.546l-0.208-0.078l-0.078-0.208v-4.667c0-0.355,0.03-0.659,0.091-0.91
		c0.061-0.251,0.143-0.438,0.247-0.559h-1.144l-0.215-0.078l-0.085-0.208v-0.416l0.085-0.214l0.215-0.085h3.12l0.214,0.085
		l0.085,0.214v0.416l-0.085,0.208l-0.214,0.078h-0.78c-0.121,0.13-0.219,0.334-0.293,0.611c-0.074,0.277-0.11,0.59-0.11,0.936v4.589
		l-0.085,0.208L211.003,276.277 M253.07,273.261h-0.572l-0.214-0.084l-0.085-0.215v-3.809c0-0.095,0.028-0.169,0.085-0.221
		l0.214-0.078h0.572l0.214,0.085l0.085,0.214v3.809l-0.085,0.215L253.07,273.261"/>
	<path fill="#000000" d="M211.861,295.244l-0.201-0.085l-0.085-0.214v-0.429l0.078-0.202l0.182-0.084
		c0.485-0.009,0.869-0.176,1.151-0.501c0.282-0.325,0.483-0.851,0.604-1.58c0.121-0.728,0.182-1.725,0.182-2.99
		c0-1.265-0.061-2.26-0.182-2.983c-0.121-0.724-0.323-1.248-0.604-1.573c-0.282-0.325-0.665-0.492-1.151-0.501l-0.182-0.085
		l-0.078-0.201v-0.429l0.085-0.215l0.201-0.084c0.745,0,1.337,0.21,1.774,0.63c0.438,0.42,0.752,1.071,0.943,1.95
		c0.19,0.88,0.286,2.043,0.286,3.491c0,1.448-0.096,2.613-0.286,3.497c-0.191,0.884-0.505,1.536-0.943,1.956
		C213.198,295.034,212.606,295.244,211.861,295.244 M166.686,295.244c-0.745,0-1.337-0.21-1.775-0.631
		c-0.438-0.42-0.752-1.072-0.942-1.956c-0.191-0.884-0.286-2.05-0.286-3.497c0-1.447,0.095-2.611,0.286-3.491
		c0.19-0.879,0.505-1.53,0.942-1.95c0.438-0.42,1.029-0.63,1.775-0.63l0.214,0.084l0.085,0.215v0.429l-0.078,0.201l-0.182,0.085
		c-0.494,0.009-0.88,0.176-1.157,0.501c-0.277,0.325-0.477,0.849-0.598,1.573c-0.121,0.724-0.182,1.718-0.182,2.983
		c0,1.274,0.061,2.273,0.182,2.997c0.121,0.724,0.32,1.248,0.598,1.573c0.277,0.325,0.663,0.492,1.157,0.501l0.182,0.084
		l0.078,0.202v0.429l-0.085,0.214L166.686,295.244 M206.96,293.307l-0.162-0.065l-0.072-0.182v-0.572
		c0-0.156,0.095-0.273,0.286-0.351l0.507-0.195c0.598-0.225,1.057-0.55,1.378-0.975c0.321-0.425,0.481-1.049,0.481-1.872
		c0-0.581-0.069-1.038-0.208-1.371c-0.139-0.334-0.366-0.574-0.683-0.722c-0.316-0.147-0.752-0.221-1.307-0.221h-0.403h-0.039
		l-1.196-0.013l-0.214-0.078l-0.085-0.208v-2.236l0.085-0.215l0.214-0.084h0.52l0.208,0.084l0.078,0.215v1.508h1.001
		c0.789,0,1.415,0.113,1.879,0.338c0.464,0.226,0.8,0.585,1.008,1.079c0.208,0.494,0.312,1.153,0.312,1.976
		c0,1.109-0.273,1.974-0.819,2.593c-0.546,0.62-1.257,1.077-2.132,1.372l-0.546,0.182L206.96,293.307 M271.712,293.177h-1.924
		l-0.214-0.085l-0.085-0.214v-0.429c0-0.095,0.028-0.169,0.085-0.221l0.214-0.078h1.859c0.754,0,1.309-0.19,1.664-0.572
		c0.355-0.381,0.55-0.936,0.585-1.664c0.009-0.121,0.013-0.273,0.013-0.455c0-0.173-0.004-0.321-0.013-0.442
		c-0.026-0.737-0.219-1.293-0.578-1.671c-0.36-0.377-0.917-0.565-1.671-0.565h-1.859l-0.214-0.085l-0.085-0.215v-0.429
		c0-0.095,0.028-0.169,0.085-0.221l0.214-0.078h1.924c1.101,0,1.918,0.275,2.451,0.826c0.533,0.55,0.817,1.346,0.852,2.385
		c0.009,0.121,0.013,0.286,0.013,0.494c0,0.208-0.004,0.377-0.013,0.507c-0.035,1.04-0.318,1.835-0.852,2.385
		C273.629,292.902,272.813,293.177,271.712,293.177 M264.926,293.177h-2.236l-0.214-0.085l-0.085-0.214v-0.429l0.085-0.215
		l0.214-0.085h2.171c0.607,0,1.075-0.195,1.404-0.585c0.329-0.39,0.507-0.94,0.533-1.651c0.009-0.087,0.013-0.238,0.013-0.455
		c0-0.208-0.005-0.355-0.013-0.442c-0.017-0.711-0.193-1.261-0.526-1.651c-0.334-0.39-0.804-0.585-1.411-0.585h-1.599v1.04
		c0,0.347,0.039,0.62,0.117,0.819c0.078,0.199,0.212,0.325,0.403,0.377l0.494,0.13l0.163,0.137c0.039,0.074,0.058,0.162,0.058,0.266
		v0.299c0,0.096-0.048,0.165-0.143,0.208c-0.068,0.031-0.14,0.047-0.217,0.046c-0.031,0-0.063-0.003-0.095-0.008l-0.507-0.104
		c-0.867-0.19-1.3-0.927-1.3-2.21v-1.729c0-0.095,0.028-0.169,0.085-0.221l0.214-0.078h2.392c0.953,0,1.677,0.277,2.171,0.832
		c0.494,0.555,0.758,1.348,0.793,2.379c0.008,0.087,0.013,0.251,0.013,0.494c0,0.251-0.005,0.42-0.013,0.507
		c-0.035,1.031-0.299,1.824-0.793,2.379C266.603,292.9,265.879,293.177,264.926,293.177 M256.983,293.177h-0.546l-0.215-0.085
		l-0.085-0.214v-3.887c0-1.491-0.745-2.236-2.236-2.236h-0.936c-0.087,0.546-0.15,0.999-0.188,1.359
		c-0.039,0.36-0.054,0.769-0.046,1.229l0.026,3.536l-0.085,0.214l-0.214,0.085l-1.807-0.026l-0.214-0.084l-0.085-0.215v-0.39
		l0.085-0.215l0.214-0.085l1.001,0.013v-2.782c-0.009-0.546,0.002-1.008,0.033-1.385c0.03-0.377,0.102-0.795,0.215-1.254h-0.702
		l-0.215-0.078l-0.084-0.208v-0.416c0-0.095,0.028-0.169,0.084-0.221l0.215-0.078h2.782c2.201,0,3.302,1.057,3.302,3.172v3.952
		l-0.084,0.214L256.983,293.177 M245.232,293.177h-3.354l-0.208-0.085l-0.078-0.214v-0.416l0.078-0.215l0.208-0.085h2.509v-3.159
		c0-0.659-0.167-1.194-0.5-1.605c-0.334-0.412-0.756-0.617-1.267-0.617h-1.378l-1.001,6.084l-0.111,0.221l-0.215,0.091h-0.546
		l-0.202-0.091l-0.058-0.221l1.04-6.084h-0.663l-0.214-0.085l-0.085-0.215v-0.429l0.085-0.214l0.214-0.085h3.263
		c0.537,0,1.016,0.128,1.437,0.384c0.42,0.256,0.75,0.622,0.988,1.099c0.238,0.477,0.357,1.04,0.357,1.69v3.952l-0.084,0.214
		L245.232,293.177 M235.911,293.177h-0.546l-0.208-0.078l-0.078-0.208v-4.667c0-0.355,0.03-0.659,0.091-0.91
		c0.06-0.251,0.143-0.438,0.247-0.559h-1.144l-0.214-0.078l-0.085-0.208v-0.416l0.085-0.214l0.214-0.085h3.12l0.215,0.085
		l0.084,0.214v0.416l-0.084,0.208l-0.215,0.078h-0.78c-0.121,0.13-0.219,0.334-0.292,0.611c-0.074,0.277-0.111,0.59-0.111,0.936
		v4.589l-0.084,0.208L235.911,293.177 M232.31,293.177h-0.546l-0.215-0.085l-0.084-0.214v-3.887c0-1.491-0.741-2.236-2.223-2.236
		h-2.418l-0.214-0.078l-0.085-0.208v-0.416c0-0.095,0.028-0.169,0.085-0.221l0.214-0.078h2.483c2.201,0,3.302,1.066,3.302,3.198
		v3.926l-0.085,0.214L232.31,293.177 M227.37,293.177h-0.546l-0.214-0.085l-0.085-0.214v-4.368l0.085-0.214l0.214-0.085h0.546
		l0.214,0.085l0.085,0.214v4.368l-0.085,0.214L227.37,293.177 M224.276,293.177h-0.546l-0.215-0.085l-0.084-0.214v-3.887
		c0-1.491-0.745-2.236-2.236-2.236h-1.677l-0.215-0.078l-0.085-0.208v-0.416l0.085-0.214l0.215-0.085h1.755
		c2.201,0,3.302,1.057,3.302,3.172v3.952l-0.085,0.214L224.276,293.177 M203.489,293.177h-0.585c-0.113,0-0.199-0.033-0.26-0.098
		l-0.104-0.11l-2.964-4.173c-0.373,0.269-0.626,0.587-0.76,0.956c-0.134,0.369-0.201,0.773-0.201,1.216v1.911l-0.085,0.214
		l-0.214,0.085h-0.481l-0.215-0.085l-0.084-0.214v-1.963c0-0.641,0.098-1.2,0.292-1.677c0.195-0.476,0.579-0.905,1.151-1.287
		l-1.209-1.69c-0.061-0.095-0.091-0.178-0.091-0.247l0.078-0.182l0.182-0.078h0.572c0.139,0,0.26,0.074,0.364,0.221l2.73,3.809
		c0.312-0.182,0.539-0.373,0.682-0.572c0.143-0.199,0.232-0.396,0.266-0.592c0.035-0.195,0.052-0.449,0.052-0.76v-1.807l0.085-0.214
		l0.214-0.085h0.507l0.215,0.085l0.085,0.214v1.859c0,0.589-0.102,1.094-0.306,1.515c-0.204,0.42-0.613,0.813-1.229,1.176
		l1.482,2.067l0.091,0.247l-0.078,0.182L203.489,293.177 M192.4,293.177h-0.546l-0.214-0.085l-0.085-0.214v-3.887
		c0-1.491-0.745-2.236-2.236-2.236h-1.586v6.123l-0.084,0.214l-0.215,0.085h-0.546l-0.214-0.085l-0.085-0.214v-6.825
		c0-0.095,0.028-0.169,0.085-0.221l0.214-0.078h2.496c1.118,0,1.95,0.267,2.496,0.8c0.546,0.533,0.819,1.332,0.819,2.398v3.926
		l-0.084,0.214L192.4,293.177 M184.275,293.177h-0.572l-0.215-0.085l-0.084-0.214v-6.825c0-0.095,0.028-0.169,0.084-0.221
		l0.215-0.078h0.572l0.215,0.085l0.084,0.214v6.825l-0.084,0.214L184.275,293.177 M181.727,293.177h-5.408l-0.208-0.085
		l-0.078-0.214v-0.416l0.078-0.215l0.208-0.085h3.757v-3.172c0-1.482-0.745-2.223-2.236-2.223h-1.391l-0.208-0.085l-0.078-0.215
		v-0.416l0.078-0.214l0.208-0.085h1.456c2.219,0,3.328,1.062,3.328,3.185v3.224h0.494l0.208,0.085l0.078,0.215v0.416l-0.078,0.214
		L181.727,293.177 M174.096,293.177h-0.546l-0.214-0.085l-0.085-0.214v-3.887c0-1.491-0.741-2.236-2.223-2.236h-2.418l-0.215-0.078
		l-0.084-0.208v-0.416c0-0.095,0.028-0.169,0.084-0.221l0.215-0.078h2.483c2.201,0,3.302,1.066,3.302,3.198v3.926l-0.084,0.214
		L174.096,293.177 M169.156,293.177h-0.546l-0.215-0.085l-0.084-0.214v-4.368l0.084-0.214l0.215-0.085h0.546l0.215,0.085
		l0.085,0.214v4.368l-0.085,0.214L169.156,293.177 M260.012,290.161h-0.572l-0.215-0.084l-0.084-0.215v-3.809
		c0-0.095,0.028-0.169,0.084-0.221l0.215-0.078h0.572l0.215,0.085l0.084,0.214v3.809l-0.084,0.215L260.012,290.161"/>
	<path fill="#000000" d="M283.165,293.177h-0.637l-0.208-0.085l-0.078-0.214v-7.332l-2.184,1.677l-0.195,0.078l-0.221-0.13
		l-0.312-0.403l-0.065-0.182c0-0.095,0.043-0.173,0.13-0.234l2.821-2.184c0.095-0.061,0.208-0.091,0.338-0.091h0.611l0.214,0.084
		l0.085,0.215v8.502l-0.085,0.214L283.165,293.177"/>
</g>
</svg>
