<!-- Generator: Adobe InDesign 14.0 SVG Export Plug-in, SVG Library version: 6.0 build 234 -->
<!DOCTYPE svg PUBLIC "-//W3C//DTD SVG 1.1//EN" "http://www.w3.org/Graphics/SVG/1.1/DTD/svg11.dtd">
<svg version="1.1" xmlns="http://www.w3.org/2000/svg" xmlns:xlink="http://www.w3.org/1999/xlink" x="0%" y="0%" width="100%"
	 height="100%" viewBox="0 0 304.677 534.346" preserveAspectRatio="xMidYMid slice" overflow="visible" xml:space="preserve">
<clipPath id="clp_unq_id_1" fill="none">
	<path shape-rendering="crispEdges" stroke="#000000" d="M0,0h304.677v534.346H0V0"/>
</clipPath>
<g clip-path="url(#clp_unq_id_1)" fill="none">
	<path fill="#923A7F" d="M62.481,12.016h-4.392h-2.568v13.488h0.6h7.872h2.568v-9c0-1.552-0.36-2.688-1.08-3.408
		S63.761,12.016,62.481,12.016z M58.089,23.536v-9.552h3.744c0.704,0,1.24,0.188,1.608,0.564c0.368,0.376,0.552,0.988,0.552,1.836
		v7.152H58.089z M69.681,25.504h2.568v-10.68l-0.312-2.808h-2.544l0.288,2.808V25.504z M88.257,15.712l-0.024-3.696h-2.568
		l0.048,3.816c0.016,2.432-0.548,4.288-1.692,5.568c-1.144,1.28-2.924,2-5.34,2.16l-0.384-3.264c1.632-0.656,2.784-1.516,3.456-2.58
		c0.672-1.064,1.024-2.476,1.056-4.236l0.024-1.44h-2.448v1.488c-0.032,1.408-0.208,2.464-0.528,3.168
		c-0.32,0.704-0.92,1.272-1.8,1.704l-0.768-6.384H74.84l1.752,13.728c3.968,0.032,6.912-0.788,8.832-2.46
		C87.344,21.612,88.288,19.088,88.257,15.712z M103.232,18.712c0-2.368-0.448-4.108-1.344-5.22
		c-0.896-1.112-2.144-1.668-3.744-1.668c-0.88,0-1.664,0.252-2.352,0.756c-0.688,0.504-1.2,1.26-1.536,2.268l-1.08-2.832h-2.664
		l1.872,4.2l-1.728,9.288h2.568l1.608-9.192c0.16-0.736,0.484-1.324,0.972-1.764c0.488-0.44,1.116-0.66,1.884-0.66
		c0.992,0,1.756,0.38,2.292,1.14c0.536,0.76,0.804,2.012,0.804,3.756c0,1.632-0.28,2.872-0.84,3.72
		c-0.56,0.848-1.448,1.272-2.664,1.272c-0.432,0-0.952-0.064-1.56-0.192l-0.264,1.968c0.704,0.16,1.392,0.24,2.064,0.24
		c1.824,0,3.232-0.62,4.224-1.86C102.736,22.692,103.232,20.952,103.232,18.712z M105.992,25.504h2.568v-10.68l-0.312-2.808h-2.544
		l0.288,2.808V25.504z M124.568,15.712l-0.024-3.696h-2.568l0.048,3.816c0.016,2.432-0.548,4.288-1.692,5.568
		c-1.144,1.28-2.924,2-5.34,2.16l-0.384-3.264c1.632-0.656,2.784-1.516,3.456-2.58c0.672-1.064,1.024-2.476,1.056-4.236l0.024-1.44
		h-2.448v1.488c-0.032,1.408-0.208,2.464-0.528,3.168c-0.32,0.704-0.92,1.272-1.8,1.704l-0.768-6.384h-2.448l1.752,13.728
		c3.968,0.032,6.912-0.788,8.832-2.46C123.656,21.612,124.6,19.088,124.568,15.712z M139.04,12.016h-4.392h-2.568v13.488h0.6h7.872
		h2.568v-9c0-1.552-0.36-2.688-1.08-3.408C141.32,12.376,140.319,12.016,139.04,12.016z M134.648,23.536v-9.552h3.744
		c0.704,0,1.24,0.188,1.608,0.564c0.368,0.376,0.552,0.988,0.552,1.836v7.152H134.648z M154.087,12.016v0.936
		c0,2.352-0.048,4.116-0.144,5.292c-0.096,1.176-0.336,2.148-0.72,2.916s-1.008,1.344-1.872,1.728l-2.688-10.872h-2.568
		l2.952,11.472l-4.056,0.792l0.36,2.016l4.512-0.888c2.112-0.416,3.644-1.132,4.596-2.148c0.952-1.016,1.552-2.336,1.8-3.96
		c0.248-1.624,0.372-4.052,0.372-7.284H154.087z M163.303,25.888c1.648-0.16,2.84-0.6,3.576-1.32
		c0.736-0.72,1.104-1.872,1.104-3.456v-7.128h3.264c0.704,0,1.24,0.188,1.608,0.564c0.368,0.376,0.552,0.988,0.552,1.836v9.12h2.568
		v-9c0-1.552-0.36-2.688-1.08-3.408s-1.72-1.08-3-1.08h-6.48V21.4c0,0.896-0.16,1.544-0.48,1.944c-0.32,0.4-0.944,0.648-1.872,0.744
		L163.303,25.888z M179.095,25.504h2.568v-10.68l-0.312-2.808h-2.544l0.288,2.808V25.504z M191.503,12.016h-6.912v1.032v12.456
		h2.568v-11.52h3.696c1.44,0,2.16,0.88,2.16,2.64v8.88h2.568v-8.76c0-1.584-0.356-2.768-1.068-3.552
		C193.803,12.408,192.799,12.016,191.503,12.016z M198.727,25.504h2.568v-10.68l-0.312-2.808h-2.544l0.288,2.808V25.504z
		 M206.046,12.016v-3.72h-2.328v5.688h7.224l-4.488,11.52h2.568l4.488-11.352v-2.136H206.046z M228.294,18.712
		c0-2.368-0.448-4.108-1.344-5.22c-0.896-1.112-2.144-1.668-3.744-1.668c-0.88,0-1.664,0.252-2.352,0.756
		c-0.688,0.504-1.2,1.26-1.536,2.268l-1.08-2.832h-2.664l1.872,4.2l-1.728,9.288h2.568l1.608-9.192
		c0.16-0.736,0.484-1.324,0.972-1.764c0.488-0.44,1.116-0.66,1.884-0.66c0.992,0,1.756,0.38,2.292,1.14
		c0.536,0.76,0.804,2.012,0.804,3.756c0,1.632-0.28,2.872-0.84,3.72c-0.56,0.848-1.448,1.272-2.664,1.272
		c-0.432,0-0.952-0.064-1.56-0.192l-0.264,1.968c0.704,0.16,1.392,0.24,2.064,0.24c1.824,0,3.232-0.62,4.224-1.86
		C227.798,22.692,228.294,20.952,228.294,18.712z"/>
	<path fill="#923A7F" d="M234.894,25.888c1.648-0.16,2.84-0.6,3.576-1.32c0.736-0.72,1.104-1.872,1.104-3.456v-7.128h3.264
		c0.704,0,1.24,0.188,1.608,0.564c0.368,0.376,0.552,0.988,0.552,1.836v9.12h2.568v-9c0-1.552-0.36-2.688-1.08-3.408
		s-1.72-1.08-3-1.08h-6.48V21.4c0,0.896-0.16,1.544-0.48,1.944c-0.32,0.4-0.944,0.648-1.872,0.744L234.894,25.888z M250.686,25.504
		h2.568v-10.68l-0.312-2.808h-2.544l0.288,2.808V25.504z M256.445,20.464l2.544-0.48l0.024-1.512v-3.648l-0.312-2.808h-2.544
		l0.288,2.808V20.464z M268.973,25.504l-0.816-5.16v-4.608c0-1.12-0.212-1.976-0.636-2.568c-0.424-0.592-1.108-0.96-2.052-1.104
		l-2.376-0.336l-0.336,1.944l1.512,0.216c0.512,0.08,0.86,0.276,1.044,0.588c0.184,0.312,0.276,0.82,0.276,1.524v4.2
		c-0.432,0.88-1.02,1.612-1.764,2.196c-0.744,0.584-1.668,1.068-2.772,1.452l0.936,2.04c0.912-0.32,1.696-0.756,2.352-1.308
		c0.656-0.552,1.208-1.228,1.656-2.028l0.528,2.952H268.973z M271.685,25.504h2.568v-10.68l-0.312-2.808h-2.544l0.288,2.808V25.504z
		 M285.293,12.016v0.936c0,2.352-0.048,4.116-0.144,5.292s-0.336,2.148-0.72,2.916s-1.008,1.344-1.872,1.728l-2.688-10.872h-2.568
		l2.952,11.472l-4.056,0.792l0.36,2.016l4.512-0.888c2.112-0.416,3.644-1.132,4.596-2.148c0.952-1.016,1.552-2.336,1.8-3.96
		c0.248-1.624,0.372-4.052,0.372-7.284H285.293z"/>
	<path fill="#000000" d="M287.754,56.577h-0.546l-0.215-0.085l-0.084-0.215v-3.887c0-1.491-0.745-2.236-2.236-2.236h-1.586v6.123
		l-0.085,0.215l-0.214,0.085h-0.546l-0.215-0.085l-0.084-0.215v-6.825c0-0.095,0.028-0.169,0.084-0.221l0.215-0.078h2.496
		c1.118,0,1.95,0.266,2.496,0.8c0.546,0.533,0.819,1.332,0.819,2.398v3.926l-0.085,0.215L287.754,56.577 M279.629,56.577h-0.572
		l-0.214-0.085l-0.085-0.215v-6.825c0-0.095,0.028-0.169,0.085-0.221l0.214-0.078h0.572l0.214,0.085l0.085,0.214v6.825l-0.085,0.215
		L279.629,56.577 M276.509,56.577h-3.354l-0.208-0.085l-0.078-0.215v-0.416l0.078-0.214l0.208-0.085h2.509v-3.159
		c0-0.659-0.167-1.194-0.501-1.605c-0.334-0.412-0.756-0.618-1.267-0.618h-1.378l-1.001,6.084l-0.11,0.221l-0.214,0.091h-0.546
		l-0.201-0.091l-0.058-0.221l1.04-6.084h-0.663l-0.215-0.084l-0.084-0.215v-0.429l0.084-0.214l0.215-0.085h3.263
		c0.537,0,1.016,0.128,1.436,0.384c0.42,0.256,0.75,0.622,0.988,1.099c0.238,0.477,0.358,1.04,0.358,1.69v3.952l-0.085,0.215
		L276.509,56.577 M268.436,56.577h-0.546l-0.215-0.085l-0.084-0.215v-3.887c0-1.491-0.745-2.236-2.236-2.236h-1.677l-0.214-0.078
		l-0.085-0.208v-0.416l0.085-0.214l0.214-0.085h1.755c2.201,0,3.302,1.057,3.302,3.172v3.952l-0.084,0.215L268.436,56.577
		 M258.426,56.577h-5.447l-0.215-0.085l-0.084-0.215v-6.825c0-0.095,0.028-0.169,0.084-0.221l0.215-0.078h2.457
		c1.109,0,1.935,0.264,2.477,0.793c0.542,0.529,0.813,1.322,0.813,2.379v3.952l-0.085,0.215L258.426,56.577 M253.759,50.155v5.408
		h3.848v-3.172c0-1.491-0.746-2.236-2.236-2.236H253.759 M250.444,56.577h-0.897l-0.208-0.085l-0.078-0.215v-0.871
		c0-0.095,0.026-0.171,0.078-0.228l0.208-0.084h0.897c0.095,0,0.171,0.028,0.228,0.084c0.056,0.057,0.084,0.132,0.084,0.228v0.871
		l-0.091,0.215L250.444,56.577 M261.455,53.561h-0.572l-0.214-0.085l-0.085-0.214v-3.809c0-0.095,0.028-0.169,0.085-0.221
		l0.214-0.078h0.572l0.215,0.085l0.084,0.214v3.809l-0.084,0.214L261.455,53.561 M250.444,52.027h-0.897l-0.208-0.084l-0.078-0.215
		v-0.871c0-0.095,0.026-0.171,0.078-0.228l0.208-0.084h0.897c0.095,0,0.171,0.028,0.228,0.084c0.056,0.056,0.084,0.132,0.084,0.228
		v0.871l-0.091,0.215L250.444,52.027"/>
	<path fill="#000000" d="M274,75.96h-0.533l-0.215-0.078c-0.056-0.052-0.084-0.126-0.084-0.221V68.81l0.084-0.215l0.215-0.084H274
		l0.215,0.084l0.085,0.215v6.851l-0.085,0.215L274,75.96 M252.628,75.96h-0.533l-0.215-0.078c-0.056-0.052-0.084-0.126-0.084-0.221
		V68.81l0.084-0.215l0.215-0.084h0.533l0.214,0.084l0.085,0.215v6.851l-0.085,0.215L252.628,75.96 M275.846,73.607l-0.162-0.065
		l-0.072-0.182v-0.572c0-0.156,0.095-0.273,0.286-0.351l0.507-0.195c0.598-0.225,1.057-0.55,1.378-0.975
		c0.32-0.425,0.481-1.049,0.481-1.872c0-0.581-0.069-1.038-0.208-1.372c-0.139-0.333-0.366-0.574-0.682-0.721
		c-0.316-0.147-0.752-0.221-1.306-0.221h-2.6l-0.215-0.085l-0.084-0.215V66.34l0.084-0.208l0.215-0.078h2.756
		c0.797,0,1.428,0.113,1.891,0.338c0.464,0.225,0.8,0.585,1.008,1.079s0.312,1.153,0.312,1.976c0,1.109-0.273,1.974-0.819,2.593
		c-0.546,0.62-1.257,1.077-2.132,1.372l-0.546,0.182L275.846,73.607 M254.474,73.607l-0.163-0.065l-0.072-0.182v-0.572
		c0-0.156,0.095-0.273,0.286-0.351l0.507-0.195c0.598-0.225,1.057-0.55,1.378-0.975c0.32-0.425,0.481-1.049,0.481-1.872
		c0-0.581-0.07-1.038-0.208-1.372c-0.139-0.333-0.366-0.574-0.682-0.721c-0.317-0.147-0.752-0.221-1.307-0.221h-2.6l-0.215-0.085
		l-0.084-0.215V66.34l0.084-0.208l0.215-0.078h2.756c0.797,0,1.428,0.113,1.891,0.338c0.464,0.225,0.8,0.585,1.008,1.079
		s0.312,1.153,0.312,1.976c0,1.109-0.273,1.974-0.819,2.593c-0.546,0.62-1.257,1.077-2.132,1.372l-0.546,0.182L254.474,73.607
		 M262.95,73.594c-0.147,0-0.221-0.069-0.221-0.208v-0.611c0-0.147,0.091-0.256,0.273-0.325c0.026-0.009,0.197-0.067,0.514-0.176
		c0.316-0.108,0.6-0.245,0.851-0.409c0.26-0.165,0.516-0.392,0.767-0.682c0.251-0.29,0.429-0.566,0.533-0.825l-0.234-1.17
		c-0.104-0.511-0.214-0.916-0.331-1.215c-0.117-0.299-0.275-0.527-0.474-0.683c-0.2-0.156-0.46-0.234-0.78-0.234h-0.481
		l-0.215-0.078l-0.084-0.208v-0.442l0.084-0.215l0.215-0.084h0.481c0.554,0,1.01,0.113,1.365,0.338
		c0.355,0.226,0.639,0.561,0.851,1.008c0.212,0.447,0.392,1.029,0.539,1.748l0.78,4.056v0.052l-0.084,0.176l-0.202,0.072h-0.572
		c-0.165,0-0.264-0.1-0.299-0.299l-0.299-1.521c-0.321,0.494-0.689,0.88-1.105,1.157c-0.321,0.217-0.62,0.384-0.897,0.501
		c-0.278,0.117-0.572,0.206-0.884,0.266L262.95,73.594 M249.548,73.477h-3.354l-0.208-0.085l-0.078-0.215v-0.416l0.078-0.215
		l0.208-0.085h2.509v-3.159c0-0.659-0.167-1.194-0.5-1.605c-0.334-0.412-0.756-0.617-1.267-0.617h-1.378l-1.001,6.084l-0.11,0.221
		l-0.215,0.091h-0.546l-0.202-0.091l-0.058-0.221l1.04-6.084h-0.663l-0.214-0.085l-0.085-0.215v-0.429l0.085-0.214l0.214-0.085
		h3.263c0.537,0,1.016,0.128,1.437,0.384c0.42,0.256,0.749,0.622,0.988,1.099c0.238,0.477,0.358,1.04,0.358,1.69v3.952l-0.085,0.215
		L249.548,73.477 M241.475,73.477h-0.546l-0.214-0.085l-0.085-0.215v-3.887c0-1.491-0.745-2.236-2.236-2.236h-1.586v6.123
		l-0.084,0.215l-0.215,0.085h-0.546l-0.214-0.085l-0.085-0.215v-6.825c0-0.095,0.028-0.169,0.085-0.221l0.214-0.078h2.496
		c1.118,0,1.95,0.266,2.496,0.8c0.546,0.533,0.819,1.332,0.819,2.398v3.926l-0.084,0.215L241.475,73.477 M270.932,67.094h-0.377
		c-0.156,0-0.243-0.095-0.26-0.286l-0.221-2.262V64.52l0.071-0.201l0.188-0.071h0.819l0.201,0.084l0.059,0.215l-0.221,2.262
		C271.175,66.999,271.088,67.094,270.932,67.094 M268.943,67.094h-0.377c-0.156,0-0.243-0.095-0.26-0.286l-0.221-2.262v-0.052
		l0.071-0.182l0.188-0.065h0.819l0.201,0.084l0.058,0.215l-0.221,2.262C269.186,66.999,269.099,67.094,268.943,67.094"/>
	<path fill="#000000" d="M287.689,73.477h-0.637l-0.208-0.085l-0.078-0.215v-7.332l-2.184,1.677l-0.195,0.078l-0.221-0.13
		l-0.312-0.403l-0.065-0.182c0-0.095,0.043-0.173,0.13-0.234l2.821-2.184c0.095-0.061,0.208-0.091,0.338-0.091h0.611l0.215,0.085
		l0.084,0.215v8.502l-0.084,0.215L287.689,73.477"/>
	<path fill="#000000" d="M262.742,92.86h-0.533l-0.215-0.078c-0.056-0.052-0.085-0.126-0.085-0.221V85.71l0.085-0.215l0.215-0.084
		h0.533l0.215,0.084l0.084,0.215v6.851l-0.084,0.214L262.742,92.86 M222.014,92.86h-0.533l-0.215-0.078
		c-0.056-0.052-0.085-0.126-0.085-0.221V85.71l0.085-0.215l0.215-0.084h0.533l0.215,0.084l0.084,0.215v6.851l-0.084,0.214
		L222.014,92.86 M264.588,90.507l-0.163-0.065l-0.071-0.182v-0.572c0-0.156,0.095-0.273,0.286-0.351l0.507-0.195
		c0.598-0.225,1.057-0.55,1.378-0.975c0.321-0.425,0.481-1.049,0.481-1.872c0-0.581-0.069-1.038-0.208-1.372
		c-0.139-0.333-0.366-0.574-0.682-0.721c-0.316-0.147-0.752-0.221-1.307-0.221h-2.6l-0.215-0.085l-0.085-0.215V83.24l0.085-0.208
		l0.215-0.078h2.756c0.797,0,1.428,0.113,1.891,0.338c0.464,0.225,0.8,0.585,1.008,1.079s0.312,1.153,0.312,1.976
		c0,1.109-0.273,1.974-0.819,2.593c-0.546,0.62-1.257,1.077-2.132,1.372l-0.546,0.182L264.588,90.507 M223.86,90.507l-0.163-0.065
		l-0.071-0.182v-0.572c0-0.156,0.095-0.273,0.286-0.351l0.507-0.195c0.598-0.225,1.057-0.55,1.378-0.975
		c0.321-0.425,0.481-1.049,0.481-1.872c0-0.581-0.069-1.038-0.208-1.372c-0.139-0.333-0.366-0.574-0.682-0.721
		c-0.316-0.147-0.752-0.221-1.307-0.221h-2.6l-0.215-0.085l-0.085-0.215V83.24l0.085-0.208l0.215-0.078h2.756
		c0.797,0,1.428,0.113,1.892,0.338c0.464,0.225,0.799,0.585,1.007,1.079c0.208,0.494,0.312,1.153,0.312,1.976
		c0,1.109-0.273,1.974-0.819,2.593c-0.546,0.62-1.257,1.077-2.132,1.372l-0.546,0.182L223.86,90.507 M273.935,90.457
		c-0.039,0-0.078,0-0.118-0.001h-0.962c-0.563,0-1.071-0.13-1.521-0.39c-0.451-0.26-0.804-0.626-1.059-1.099
		c-0.256-0.472-0.384-1.016-0.384-1.631v-4.082c0-0.095,0.028-0.169,0.085-0.221l0.214-0.078h0.507l0.215,0.085l0.085,0.214
		l0.039,3.692c0.789-0.06,1.337-0.273,1.645-0.637c0.308-0.364,0.461-0.84,0.461-1.43v-1.625l0.084-0.214l0.215-0.085h0.507
		l0.215,0.085l0.084,0.214v1.677c0,0.832-0.264,1.517-0.793,2.054c-0.529,0.537-1.305,0.832-2.327,0.884
		c0.138,0.503,0.396,0.89,0.773,1.164c0.377,0.273,0.83,0.41,1.358,0.41h0.416c0.015,0,0.029,0,0.043,0
		c0.802,0,1.429-0.238,1.881-0.715c0.459-0.485,0.689-1.131,0.689-1.937v-3.536l0.085-0.214l0.214-0.085h0.507l0.215,0.085
		l0.085,0.214v3.614c0,0.728-0.15,1.367-0.449,1.918c-0.299,0.55-0.72,0.971-1.261,1.261
		C275.172,90.32,274.589,90.457,273.935,90.457 M256.593,90.377h-0.572l-0.215-0.085l-0.084-0.214v-6.825
		c0-0.095,0.028-0.169,0.084-0.221l0.215-0.078h0.572l0.215,0.085l0.084,0.214v6.825l-0.084,0.214L256.593,90.377 M253.473,90.377
		h-0.546l-0.214-0.085l-0.085-0.214v-3.887c0-1.491-0.745-2.236-2.236-2.236h-0.936c-0.087,0.546-0.15,0.999-0.189,1.359
		c-0.039,0.36-0.054,0.769-0.045,1.229l0.026,3.536l-0.085,0.214l-0.215,0.085l-1.807-0.026l-0.215-0.084l-0.084-0.215v-0.39
		l0.084-0.215l0.215-0.085l1.001,0.013v-2.782c-0.009-0.546,0.002-1.007,0.033-1.385c0.03-0.377,0.102-0.795,0.215-1.254h-0.702
		l-0.215-0.078l-0.085-0.208v-0.416c0-0.095,0.028-0.169,0.085-0.221l0.215-0.078h2.782c2.201,0,3.302,1.057,3.302,3.172v3.952
		l-0.084,0.214L253.473,90.377 M241.995,90.377h-0.585c-0.113,0-0.2-0.033-0.26-0.098l-0.104-0.11l-2.964-4.173
		c-0.373,0.269-0.626,0.587-0.761,0.956c-0.134,0.369-0.201,0.773-0.201,1.216v1.911l-0.085,0.214l-0.214,0.085h-0.481l-0.214-0.085
		l-0.085-0.214v-1.963c0-0.641,0.098-1.2,0.293-1.677c0.195-0.476,0.578-0.905,1.15-1.287l-1.209-1.69
		c-0.061-0.095-0.091-0.178-0.091-0.247l0.078-0.182l0.182-0.078h0.572c0.138,0,0.26,0.074,0.364,0.221l2.73,3.809
		c0.312-0.182,0.539-0.373,0.682-0.572c0.143-0.199,0.232-0.396,0.267-0.592c0.035-0.195,0.052-0.449,0.052-0.76v-1.807l0.085-0.214
		l0.215-0.085h0.507l0.214,0.085l0.085,0.214v1.859c0,0.589-0.102,1.094-0.306,1.514c-0.204,0.421-0.613,0.813-1.229,1.177
		l1.482,2.067l0.091,0.247l-0.078,0.182L241.995,90.377 M234.676,90.377h-5.408l-0.208-0.085l-0.078-0.214v-0.416l0.078-0.215
		l0.208-0.085h3.757v-3.172c0-1.482-0.745-2.223-2.236-2.223h-1.391l-0.208-0.084l-0.078-0.215v-0.416l0.078-0.214l0.208-0.085
		h1.456c2.219,0,3.328,1.062,3.328,3.185v3.224h0.494l0.208,0.085l0.078,0.215v0.416l-0.078,0.214L234.676,90.377 M218.933,90.377
		h-0.546l-0.214-0.085l-0.085-0.214v-3.887c0-1.491-0.745-2.236-2.236-2.236h-0.936c-0.087,0.546-0.15,0.999-0.188,1.359
		c-0.039,0.36-0.054,0.769-0.045,1.229l0.026,3.536l-0.085,0.214l-0.214,0.085l-1.807-0.026l-0.215-0.084l-0.085-0.215v-0.39
		l0.085-0.215l0.215-0.085l1.001,0.013v-2.782c-0.009-0.546,0.002-1.007,0.033-1.385c0.03-0.377,0.102-0.795,0.214-1.254h-0.702
		l-0.214-0.078l-0.085-0.208v-0.416c0-0.095,0.028-0.169,0.085-0.221l0.214-0.078h2.782c2.201,0,3.302,1.057,3.302,3.172v3.952
		l-0.085,0.214L218.933,90.377 M207.454,90.377h-0.585c-0.113,0-0.199-0.033-0.26-0.098l-0.104-0.11l-2.964-4.173
		c-0.373,0.269-0.626,0.587-0.76,0.956c-0.134,0.369-0.201,0.773-0.201,1.216v1.911l-0.085,0.214l-0.215,0.085h-0.481l-0.215-0.085
		l-0.085-0.214v-1.963c0-0.641,0.098-1.2,0.293-1.677c0.195-0.476,0.579-0.905,1.151-1.287l-1.209-1.69
		c-0.061-0.095-0.091-0.178-0.091-0.247l0.078-0.182l0.182-0.078h0.572c0.139,0,0.26,0.074,0.364,0.221l2.73,3.809
		c0.312-0.182,0.539-0.373,0.682-0.572c0.143-0.199,0.232-0.396,0.266-0.592c0.035-0.195,0.052-0.449,0.052-0.76v-1.807l0.085-0.214
		l0.214-0.085h0.507l0.215,0.085l0.085,0.214v1.859c0,0.589-0.102,1.094-0.306,1.514c-0.204,0.421-0.613,0.813-1.229,1.177
		l1.482,2.067l0.091,0.247l-0.078,0.182L207.454,90.377 M197.119,90.377h-2.236l-0.215-0.085l-0.084-0.214v-0.429l0.084-0.215
		l0.215-0.085h2.171c0.607,0,1.074-0.195,1.404-0.585c0.329-0.39,0.507-0.94,0.533-1.651c0.009-0.087,0.013-0.238,0.013-0.455
		c0-0.208-0.004-0.355-0.013-0.442c-0.018-0.711-0.193-1.261-0.527-1.651c-0.334-0.39-0.804-0.585-1.41-0.585h-1.599v1.04
		c0,0.347,0.039,0.62,0.117,0.819c0.078,0.199,0.212,0.325,0.403,0.377l0.494,0.13l0.163,0.136c0.039,0.074,0.058,0.163,0.058,0.267
		v0.299c0,0.096-0.048,0.165-0.143,0.208c-0.068,0.031-0.14,0.046-0.217,0.046c-0.031,0-0.063-0.003-0.095-0.008l-0.507-0.104
		c-0.867-0.19-1.3-0.927-1.3-2.21v-1.729c0-0.095,0.028-0.169,0.085-0.221l0.215-0.078h2.392c0.953,0,1.677,0.277,2.171,0.832
		c0.494,0.555,0.758,1.348,0.793,2.379c0.009,0.087,0.013,0.251,0.013,0.494c0,0.251-0.004,0.421-0.013,0.507
		c-0.035,1.031-0.299,1.824-0.793,2.379C198.796,90.1,198.072,90.377,197.119,90.377 M189.176,90.377h-0.546l-0.214-0.085
		l-0.085-0.214v-3.887c0-1.491-0.741-2.236-2.223-2.236h-2.418l-0.215-0.078l-0.084-0.208v-0.416c0-0.095,0.028-0.169,0.084-0.221
		l0.215-0.078h2.483c2.201,0,3.302,1.066,3.302,3.198v3.926l-0.084,0.214L189.176,90.377 M184.236,90.377h-0.546l-0.215-0.085
		l-0.084-0.214V85.71l0.084-0.215l0.215-0.084h0.546l0.215,0.084l0.085,0.215v4.368l-0.085,0.214L184.236,90.377 M259.687,87.361
		h-0.572l-0.214-0.084l-0.085-0.215v-3.809c0-0.095,0.028-0.169,0.085-0.221l0.214-0.078h0.572l0.215,0.085l0.084,0.214v3.809
		l-0.084,0.215L259.687,87.361 M192.205,87.361h-0.572l-0.214-0.084l-0.085-0.215v-3.809c0-0.095,0.028-0.169,0.085-0.221
		l0.214-0.078h0.572l0.215,0.085l0.085,0.214v3.809l-0.085,0.215L192.205,87.361"/>
	<path fill="#000000" d="M288.027,90.377h-5.694l-0.215-0.085l-0.085-0.214v-0.39c0-0.199,0.108-0.39,0.325-0.572l2.834-2.821
		c0.641-0.546,1.083-0.992,1.326-1.339c0.243-0.346,0.364-0.715,0.364-1.105c0-0.511-0.143-0.912-0.429-1.203
		c-0.286-0.29-0.702-0.435-1.248-0.435c-0.52,0-0.932,0.152-1.235,0.455c-0.303,0.304-0.49,0.711-0.559,1.222
		c-0.018,0.096-0.061,0.169-0.13,0.221l-0.208,0.078h-0.624l-0.195-0.078l-0.078-0.182c0.017-0.459,0.141-0.903,0.371-1.332
		c0.23-0.429,0.57-0.78,1.021-1.053c0.451-0.273,0.997-0.409,1.638-0.409c0.97,0,1.701,0.253,2.19,0.76
		c0.49,0.507,0.735,1.15,0.735,1.93c0,0.546-0.132,1.038-0.396,1.476c-0.264,0.438-0.678,0.899-1.242,1.384l-2.561,2.6h4.095
		c0.095,0,0.169,0.026,0.221,0.078c0.052,0.052,0.078,0.126,0.078,0.221v0.494l-0.085,0.214L288.027,90.377"/>
	<path fill="#000000" d="M280.5,108.889h-0.533l-0.214-0.085l-0.085-0.215v-5.473c0-1.49-0.745-2.236-2.236-2.236h-1.209v1.313
		c0,0.356,0.039,0.637,0.117,0.845c0.078,0.208,0.212,0.338,0.403,0.39l0.494,0.13l0.163,0.137c0.039,0.074,0.058,0.163,0.058,0.266
		v0.325l-0.13,0.195c-0.062,0.031-0.128,0.047-0.199,0.047c-0.028,0-0.057-0.003-0.087-0.008l-0.546-0.117
		c-0.867-0.19-1.3-0.94-1.3-2.249v-2.002c0-0.095,0.028-0.169,0.085-0.221l0.215-0.078h2.041c1.092,0,1.905,0.278,2.438,0.832
		c0.533,0.555,0.804,1.348,0.813,2.379l0.013,5.525l-0.085,0.215L280.5,108.889 M258.933,107.407l-0.163-0.065l-0.071-0.182v-0.572
		c0-0.156,0.095-0.273,0.286-0.351l0.507-0.195c0.598-0.225,1.057-0.55,1.378-0.975c0.32-0.425,0.481-1.049,0.481-1.872
		c0-0.58-0.069-1.038-0.208-1.371c-0.139-0.334-0.366-0.574-0.682-0.722c-0.316-0.147-0.752-0.221-1.307-0.221h-0.403h-0.039
		l-1.196-0.013l-0.215-0.078l-0.084-0.208v-2.236l0.084-0.214l0.215-0.085h0.52l0.208,0.085l0.078,0.214v1.508h1.001
		c0.789,0,1.415,0.113,1.879,0.338c0.464,0.226,0.8,0.585,1.008,1.079c0.208,0.494,0.312,1.153,0.312,1.976
		c0,1.109-0.273,1.974-0.819,2.593c-0.546,0.62-1.257,1.077-2.132,1.372l-0.546,0.182L258.933,107.407 M284.959,107.277h-1.924
		l-0.214-0.085l-0.085-0.214v-0.429c0-0.095,0.028-0.169,0.085-0.221l0.214-0.078h1.859c0.754,0,1.309-0.19,1.664-0.572
		c0.355-0.381,0.55-0.936,0.585-1.664c0.009-0.121,0.013-0.273,0.013-0.455c0-0.173-0.004-0.321-0.013-0.442
		c-0.026-0.737-0.219-1.293-0.578-1.67c-0.36-0.377-0.917-0.565-1.67-0.565h-1.859l-0.214-0.085l-0.085-0.214v-0.429
		c0-0.095,0.028-0.169,0.085-0.221l0.214-0.078h1.924c1.1,0,1.917,0.275,2.451,0.825c0.533,0.55,0.817,1.346,0.851,2.386
		c0.009,0.121,0.013,0.286,0.013,0.494c0,0.208-0.004,0.377-0.013,0.507c-0.035,1.04-0.319,1.835-0.851,2.385
		C286.876,107.002,286.059,107.277,284.959,107.277 M270.061,107.277h-3.354l-0.208-0.085l-0.078-0.214v-0.416l0.078-0.215
		l0.208-0.084h2.509v-3.159c0-0.659-0.167-1.194-0.5-1.605c-0.334-0.412-0.756-0.617-1.268-0.617h-1.378l-1.001,6.084l-0.11,0.221
		l-0.215,0.091h-0.546l-0.202-0.091l-0.058-0.221l1.04-6.084h-0.663l-0.214-0.085l-0.085-0.214v-0.429l0.085-0.214l0.214-0.085
		h3.263c0.537,0,1.016,0.128,1.437,0.384c0.42,0.256,0.75,0.622,0.988,1.099c0.238,0.477,0.357,1.04,0.357,1.69v3.952l-0.084,0.214
		L270.061,107.277 M255.436,107.277h-0.546l-0.214-0.085l-0.085-0.214v-3.887c0-1.491-0.745-2.236-2.236-2.236h-1.586v6.123
		l-0.085,0.214l-0.214,0.085h-0.546l-0.214-0.085l-0.085-0.214v-6.825c0-0.095,0.028-0.169,0.085-0.221l0.214-0.078h2.496
		c1.118,0,1.95,0.267,2.496,0.8c0.546,0.533,0.819,1.332,0.819,2.398v3.926l-0.085,0.214L255.436,107.277"/>
	<path fill="#000000" d="M257.113,124.294c-0.148,0-0.221-0.07-0.221-0.208v-0.611c0-0.147,0.091-0.255,0.273-0.325
		c0.026-0.008,0.197-0.067,0.513-0.175c0.316-0.108,0.6-0.245,0.852-0.409c0.26-0.165,0.516-0.392,0.767-0.682
		c0.251-0.29,0.429-0.565,0.533-0.825l-0.234-1.17c-0.104-0.511-0.215-0.916-0.331-1.215c-0.117-0.299-0.275-0.527-0.475-0.682
		c-0.199-0.156-0.459-0.234-0.78-0.234h-0.481l-0.215-0.078l-0.085-0.208v-0.442l0.085-0.214l0.215-0.085h0.481
		c0.555,0,1.01,0.113,1.365,0.338c0.355,0.225,0.639,0.561,0.851,1.007c0.212,0.447,0.392,1.029,0.539,1.749l0.78,4.056v0.052
		l-0.084,0.175l-0.202,0.072h-0.572c-0.165,0-0.264-0.1-0.299-0.299l-0.299-1.521c-0.321,0.494-0.689,0.88-1.105,1.157
		c-0.321,0.217-0.62,0.383-0.897,0.5c-0.278,0.117-0.572,0.206-0.884,0.266L257.113,124.294 M223.899,124.294
		c-0.147,0-0.221-0.07-0.221-0.208v-0.611c0-0.147,0.091-0.255,0.273-0.325c0.026-0.008,0.197-0.067,0.514-0.175
		c0.316-0.108,0.6-0.245,0.851-0.409c0.26-0.165,0.516-0.392,0.767-0.682c0.251-0.29,0.429-0.565,0.533-0.825l-0.234-1.17
		c-0.104-0.511-0.214-0.916-0.331-1.215c-0.117-0.299-0.275-0.527-0.474-0.682c-0.199-0.156-0.459-0.234-0.78-0.234h-0.481
		l-0.214-0.078l-0.085-0.208v-0.442l0.085-0.214l0.214-0.085h0.481c0.555,0,1.01,0.113,1.365,0.338
		c0.355,0.225,0.639,0.561,0.852,1.007c0.212,0.447,0.392,1.029,0.539,1.749l0.78,4.056v0.052l-0.085,0.175l-0.201,0.072h-0.572
		c-0.165,0-0.264-0.1-0.299-0.299l-0.299-1.521c-0.321,0.494-0.689,0.88-1.105,1.157c-0.321,0.217-0.62,0.383-0.897,0.5
		c-0.277,0.117-0.572,0.206-0.884,0.266L223.899,124.294 M255.02,124.177h-0.546l-0.215-0.085l-0.084-0.214v-3.887
		c0-1.491-0.745-2.236-2.236-2.236h-1.677l-0.215-0.078l-0.085-0.208v-0.416l0.085-0.215l0.215-0.085h1.755
		c2.201,0,3.302,1.058,3.302,3.172v3.952l-0.085,0.214L255.02,124.177 M241.994,124.177h-3.354l-0.208-0.085l-0.078-0.214v-0.416
		l0.078-0.215l0.208-0.084h2.509v-3.159c0-0.659-0.167-1.194-0.5-1.605c-0.334-0.411-0.756-0.617-1.268-0.617h-1.378l-1.001,6.084
		l-0.11,0.221l-0.215,0.091h-0.546l-0.202-0.091l-0.058-0.221l1.04-6.084h-0.663l-0.214-0.085l-0.085-0.214v-0.429l0.085-0.215
		l0.214-0.085h3.263c0.537,0,1.016,0.128,1.437,0.384c0.42,0.256,0.749,0.622,0.988,1.099c0.238,0.477,0.357,1.04,0.357,1.69v3.952
		l-0.084,0.214L241.994,124.177 M233.922,124.177h-0.546l-0.214-0.085l-0.085-0.214v-3.887c0-1.491-0.745-2.236-2.236-2.236h-1.677
		l-0.215-0.078l-0.085-0.208v-0.416l0.085-0.215l0.215-0.085h1.755c2.201,0,3.302,1.058,3.302,3.172v3.952l-0.085,0.214
		L233.922,124.177 M221.806,124.177h-0.546l-0.215-0.085l-0.085-0.214v-3.887c0-1.491-0.745-2.236-2.236-2.236h-1.677l-0.214-0.078
		l-0.085-0.208v-0.416l0.085-0.215l0.214-0.085h1.755c2.201,0,3.302,1.058,3.302,3.172v3.952l-0.085,0.214L221.806,124.177
		 M212.108,124.177h-3.471l-0.215-0.085l-0.084-0.214v-0.416l0.084-0.215l0.215-0.084h2.561l-0.208-3.302
		c-0.043-0.563-0.089-0.977-0.136-1.242c-0.048-0.264-0.154-0.479-0.319-0.643c-0.165-0.165-0.421-0.247-0.767-0.247h-0.533
		l-0.214-0.078l-0.085-0.208v-0.416l0.085-0.214l0.214-0.085h0.533c0.624,0,1.103,0.123,1.437,0.371
		c0.333,0.247,0.563,0.587,0.689,1.021c0.126,0.433,0.21,1.001,0.253,1.703l0.247,4.056v0.039l-0.085,0.188L212.108,124.177
		 M206.518,124.177h-0.546l-0.215-0.085l-0.085-0.214v-3.887c0-1.491-0.741-2.236-2.223-2.236h-2.418l-0.214-0.078l-0.085-0.208
		v-0.416c0-0.095,0.028-0.169,0.085-0.221l0.214-0.078h2.483c2.201,0,3.302,1.066,3.302,3.198v3.926l-0.085,0.214L206.518,124.177
		 M201.578,124.177h-0.546l-0.214-0.085l-0.085-0.214v-4.368l0.085-0.214l0.214-0.085h0.546l0.214,0.085l0.085,0.214v4.368
		l-0.085,0.214L201.578,124.177 M214.825,121.161h-0.572l-0.214-0.084l-0.085-0.215v-3.809c0-0.095,0.028-0.169,0.085-0.221
		l0.214-0.078h0.572l0.215,0.085l0.084,0.215v3.809l-0.084,0.215L214.825,121.161 M248.026,117.794h-0.377
		c-0.156,0-0.243-0.095-0.26-0.286l-0.221-2.262v-0.052l0.072-0.182l0.188-0.065h0.819l0.201,0.085l0.058,0.214l-0.221,2.262
		C248.269,117.699,248.182,117.794,248.026,117.794"/>
	<path fill="#000000" d="M284.868,124.307c-1.118,0-1.935-0.327-2.451-0.982c-0.516-0.654-0.791-1.51-0.826-2.567l-0.013-1.118
		l0.013-1.157c0.026-1.049,0.301-1.9,0.826-2.555c0.524-0.654,1.341-0.981,2.451-0.981c1.118,0,1.939,0.327,2.463,0.981
		c0.524,0.655,0.8,1.506,0.825,2.555c0.009,0.243,0.013,0.628,0.013,1.157c0,0.512-0.004,0.884-0.013,1.118
		c-0.035,1.057-0.31,1.913-0.825,2.567C286.815,123.98,285.994,124.307,284.868,124.307 M284.868,116.013
		c-0.659,0-1.157,0.223-1.495,0.67c-0.338,0.446-0.516,1.068-0.533,1.866l-0.013,1.066l0.013,1.079
		c0.017,0.806,0.195,1.43,0.533,1.872c0.338,0.442,0.836,0.663,1.495,0.663c0.667,0,1.17-0.221,1.508-0.663
		c0.338-0.442,0.516-1.066,0.533-1.872c0.009-0.251,0.013-0.611,0.013-1.079c0-0.477-0.005-0.832-0.013-1.066
		c-0.017-0.797-0.197-1.419-0.539-1.866C286.027,116.236,285.526,116.013,284.868,116.013 M276.639,124.307
		c-1.118,0-1.935-0.327-2.451-0.982c-0.516-0.654-0.791-1.51-0.826-2.567l-0.013-1.118l0.013-1.157
		c0.026-1.049,0.301-1.9,0.826-2.555c0.524-0.654,1.341-0.981,2.451-0.981c1.118,0,1.939,0.327,2.463,0.981
		c0.524,0.655,0.8,1.506,0.825,2.555c0.009,0.243,0.013,0.628,0.013,1.157c0,0.512-0.005,0.884-0.013,1.118
		c-0.035,1.057-0.31,1.913-0.825,2.567C278.586,123.98,277.765,124.307,276.639,124.307 M276.639,116.013
		c-0.659,0-1.157,0.223-1.495,0.67c-0.338,0.446-0.516,1.068-0.533,1.866l-0.013,1.066l0.013,1.079
		c0.017,0.806,0.195,1.43,0.533,1.872c0.338,0.442,0.836,0.663,1.495,0.663c0.667,0,1.17-0.221,1.508-0.663
		c0.338-0.442,0.516-1.066,0.533-1.872c0.009-0.251,0.013-0.611,0.013-1.079c0-0.477-0.004-0.832-0.013-1.066
		c-0.018-0.797-0.197-1.419-0.539-1.866C277.798,116.236,277.297,116.013,276.639,116.013 M271.569,124.177h-5.694l-0.215-0.085
		l-0.085-0.214v-0.39c0-0.199,0.108-0.39,0.325-0.572l2.834-2.821c0.641-0.546,1.083-0.992,1.326-1.339
		c0.243-0.347,0.364-0.715,0.364-1.105c0-0.511-0.143-0.912-0.429-1.202c-0.286-0.29-0.702-0.436-1.248-0.436
		c-0.52,0-0.932,0.152-1.235,0.455c-0.303,0.304-0.49,0.711-0.559,1.222c-0.018,0.095-0.061,0.169-0.13,0.221l-0.208,0.078h-0.624
		l-0.195-0.078l-0.078-0.182c0.017-0.459,0.141-0.903,0.371-1.332c0.23-0.429,0.57-0.78,1.021-1.053
		c0.451-0.273,0.997-0.409,1.638-0.409c0.97,0,1.701,0.253,2.19,0.76c0.49,0.507,0.735,1.151,0.735,1.931
		c0,0.546-0.132,1.038-0.396,1.475c-0.264,0.438-0.678,0.899-1.242,1.384l-2.561,2.6h4.095c0.095,0,0.169,0.026,0.221,0.078
		c0.052,0.052,0.078,0.126,0.078,0.221v0.494l-0.085,0.214L271.569,124.177"/>
	<path fill="#000000" d="M239.759,142.689h-0.546l-0.215-0.078c-0.056-0.052-0.084-0.126-0.084-0.221v-8.437
		c0-0.095,0.028-0.169,0.084-0.221l0.215-0.078h0.546l0.215,0.085l0.085,0.215v8.437l-0.085,0.214L239.759,142.689 M265.667,141.207
		c-1.066,0-1.865-0.28-2.398-0.838c-0.533-0.559-0.8-1.363-0.8-2.412v-4.004c0-0.095,0.028-0.169,0.085-0.221l0.214-0.078h3.12
		c1.118,0,1.92,0.251,2.405,0.754c0.485,0.503,0.75,1.274,0.793,2.314c0.009,0.087,0.013,0.321,0.013,0.702
		s-0.005,0.615-0.013,0.702c-0.026,1.031-0.308,1.803-0.845,2.314C267.704,140.952,266.846,141.207,265.667,141.207
		 M263.561,134.655v3.302c0,0.72,0.176,1.27,0.526,1.651c0.351,0.382,0.873,0.572,1.567,0.572c0.815,0,1.399-0.171,1.755-0.513
		c0.355-0.342,0.541-0.878,0.559-1.606c0.008-0.086,0.013-0.299,0.013-0.637c0-0.338-0.005-0.55-0.013-0.637
		c-0.018-0.693-0.215-1.222-0.592-1.586c-0.377-0.364-0.895-0.546-1.554-0.546H263.561 M254.072,141.157
		c-0.039,0-0.078,0-0.118-0.001h-0.962c-0.563,0-1.07-0.13-1.521-0.39c-0.451-0.26-0.804-0.626-1.059-1.098
		c-0.256-0.472-0.383-1.016-0.383-1.632v-4.082c0-0.095,0.028-0.169,0.084-0.221l0.215-0.078h0.507l0.215,0.085l0.084,0.215
		l0.039,3.692c0.789-0.061,1.337-0.273,1.644-0.637c0.308-0.364,0.462-0.841,0.462-1.43v-1.625l0.085-0.215l0.215-0.085h0.507
		l0.214,0.085l0.085,0.215v1.677c0,0.832-0.264,1.517-0.793,2.054c-0.529,0.537-1.305,0.832-2.327,0.884
		c0.139,0.503,0.396,0.89,0.773,1.164c0.377,0.273,0.83,0.409,1.359,0.409h0.416c0.015,0,0.029,0,0.043,0
		c0.802,0,1.429-0.238,1.881-0.715c0.459-0.485,0.689-1.131,0.689-1.937v-3.536l0.084-0.215l0.215-0.085h0.507l0.215,0.085
		l0.084,0.215v3.614c0,0.728-0.149,1.367-0.448,1.917c-0.299,0.55-0.72,0.971-1.261,1.261
		C255.309,141.02,254.726,141.157,254.072,141.157 M276.236,141.077h-1.924l-0.215-0.085l-0.084-0.214v-0.429
		c0-0.095,0.028-0.169,0.084-0.221l0.215-0.078h1.859c0.754,0,1.309-0.191,1.664-0.572c0.355-0.381,0.55-0.936,0.585-1.664
		c0.009-0.121,0.013-0.273,0.013-0.455c0-0.173-0.004-0.321-0.013-0.442c-0.026-0.737-0.219-1.293-0.579-1.671
		c-0.36-0.377-0.916-0.565-1.67-0.565h-1.859l-0.215-0.085l-0.084-0.214v-0.429c0-0.095,0.028-0.169,0.084-0.221l0.215-0.078h1.924
		c1.1,0,1.918,0.275,2.451,0.826c0.533,0.55,0.817,1.345,0.852,2.385c0.008,0.121,0.013,0.286,0.013,0.494s-0.005,0.377-0.013,0.507
		c-0.035,1.04-0.319,1.835-0.852,2.385C278.154,140.802,277.336,141.077,276.236,141.077 M271.699,141.077h-0.572l-0.215-0.085
		l-0.085-0.214v-6.825c0-0.095,0.028-0.169,0.085-0.221l0.215-0.078h0.572l0.214,0.085l0.085,0.215v6.825l-0.085,0.214
		L271.699,141.077 M247.91,141.077h-3.354l-0.208-0.085l-0.078-0.214v-0.416l0.078-0.215l0.208-0.084h2.509v-3.159
		c0-0.659-0.167-1.194-0.5-1.605c-0.334-0.411-0.756-0.617-1.268-0.617h-1.378l-1.001,6.084l-0.11,0.221l-0.215,0.091h-0.546
		l-0.202-0.091l-0.058-0.221l1.04-6.084h-0.663l-0.214-0.085l-0.085-0.214v-0.429l0.085-0.215l0.214-0.085h3.263
		c0.537,0,1.016,0.128,1.437,0.384c0.42,0.256,0.749,0.622,0.988,1.099c0.238,0.477,0.357,1.04,0.357,1.69v3.952l-0.084,0.214
		L247.91,141.077"/>
	<path fill="#000000" d="M287.689,141.077h-0.637l-0.208-0.085l-0.078-0.214v-7.332l-2.184,1.677l-0.195,0.078l-0.221-0.13
		l-0.312-0.403l-0.065-0.182c0-0.095,0.043-0.173,0.13-0.234l2.821-2.184c0.095-0.06,0.208-0.091,0.338-0.091h0.611l0.215,0.084
		l0.084,0.215v8.502l-0.084,0.214L287.689,141.077"/>
	<path fill="#000000" d="M265.667,158.107c-1.066,0-1.865-0.28-2.398-0.838c-0.533-0.559-0.8-1.363-0.8-2.412v-4.004
		c0-0.095,0.028-0.169,0.085-0.221l0.214-0.078h3.12c1.118,0,1.92,0.251,2.405,0.754c0.485,0.503,0.75,1.274,0.793,2.314
		c0.009,0.087,0.013,0.321,0.013,0.702c0,0.381-0.005,0.615-0.013,0.702c-0.026,1.031-0.308,1.803-0.845,2.314
		C267.704,157.852,266.846,158.107,265.667,158.107 M263.561,151.555v3.302c0,0.72,0.176,1.27,0.526,1.651
		c0.351,0.382,0.873,0.572,1.567,0.572c0.815,0,1.399-0.171,1.755-0.513c0.355-0.342,0.541-0.878,0.559-1.605
		c0.008-0.087,0.013-0.299,0.013-0.637c0-0.338-0.005-0.55-0.013-0.637c-0.018-0.693-0.215-1.222-0.592-1.586
		c-0.377-0.364-0.895-0.546-1.554-0.546H263.561 M276.236,157.977h-1.924l-0.215-0.085l-0.084-0.214v-0.429
		c0-0.095,0.028-0.169,0.084-0.221l0.215-0.078h1.859c0.754,0,1.309-0.191,1.664-0.572c0.355-0.381,0.55-0.936,0.585-1.664
		c0.009-0.121,0.013-0.273,0.013-0.455c0-0.173-0.004-0.321-0.013-0.442c-0.026-0.737-0.219-1.293-0.579-1.67
		c-0.36-0.377-0.916-0.565-1.67-0.565h-1.859l-0.215-0.085l-0.084-0.214v-0.429c0-0.095,0.028-0.169,0.084-0.221l0.215-0.078h1.924
		c1.1,0,1.918,0.275,2.451,0.826c0.533,0.55,0.817,1.345,0.852,2.385c0.008,0.121,0.013,0.286,0.013,0.494s-0.005,0.377-0.013,0.507
		c-0.035,1.04-0.319,1.835-0.852,2.385C278.154,157.702,277.336,157.977,276.236,157.977 M271.699,157.977h-0.572l-0.215-0.085
		l-0.085-0.214v-6.825c0-0.095,0.028-0.169,0.085-0.221l0.215-0.078h0.572l0.214,0.085l0.085,0.215v6.825l-0.085,0.214
		L271.699,157.977 M257.1,157.977h-3.354l-0.208-0.085l-0.078-0.214v-0.416l0.078-0.215l0.208-0.084h2.509v-3.159
		c0-0.659-0.167-1.194-0.5-1.605c-0.334-0.411-0.756-0.617-1.268-0.617h-1.378l-1.001,6.084l-0.11,0.221l-0.215,0.091h-0.546
		l-0.202-0.091l-0.058-0.221l1.04-6.084h-0.663l-0.214-0.085l-0.085-0.214v-0.429l0.085-0.215l0.214-0.085h3.263
		c0.537,0,1.016,0.128,1.437,0.384c0.42,0.256,0.749,0.622,0.988,1.098c0.238,0.477,0.357,1.04,0.357,1.69v3.952l-0.084,0.214
		L257.1,157.977 M246.025,157.977h-5.447l-0.215-0.085l-0.085-0.214v-6.825c0-0.095,0.028-0.169,0.085-0.221l0.215-0.078h2.457
		c1.109,0,1.935,0.265,2.477,0.793c0.541,0.529,0.813,1.322,0.813,2.379v3.952l-0.085,0.214L246.025,157.977 M241.358,151.555v5.408
		h3.848v-3.172c0-1.491-0.745-2.236-2.236-2.236H241.358 M249.054,154.961h-0.572l-0.215-0.085l-0.084-0.215v-3.809
		c0-0.095,0.028-0.169,0.084-0.221l0.215-0.078h0.572l0.215,0.085l0.084,0.215v3.809l-0.084,0.215L249.054,154.961"/>
	<path fill="#000000" d="M287.689,157.977h-0.637l-0.208-0.085l-0.078-0.214v-7.332l-2.184,1.677l-0.195,0.078l-0.221-0.13
		l-0.312-0.403l-0.065-0.182c0-0.095,0.043-0.173,0.13-0.234l2.821-2.184c0.095-0.06,0.208-0.091,0.338-0.091h0.611l0.215,0.085
		l0.084,0.214v8.502l-0.084,0.214L287.689,157.977"/>
	<path fill="#000000" d="M159.537,176.489h-0.533l-0.214-0.085l-0.085-0.214v-5.473c0-1.491-0.745-2.236-2.236-2.236h-1.209v1.313
		c0,0.355,0.039,0.637,0.117,0.845c0.078,0.208,0.212,0.338,0.403,0.39l0.494,0.13l0.163,0.136c0.039,0.074,0.058,0.163,0.058,0.267
		v0.325l-0.13,0.195c-0.062,0.031-0.128,0.046-0.199,0.046c-0.028,0-0.058-0.003-0.087-0.008l-0.546-0.117
		c-0.867-0.191-1.3-0.94-1.3-2.249v-2.002c0-0.095,0.028-0.169,0.085-0.221l0.214-0.078h2.041c1.092,0,1.904,0.277,2.438,0.832
		c0.533,0.555,0.804,1.348,0.813,2.379l0.013,5.525l-0.085,0.214L159.537,176.489 M180.064,175.605l-0.182-0.065l-0.078-0.169
		v-0.403c0-0.199,0.069-0.321,0.208-0.364l1.703-0.572l-1.69-6.058c-0.043-0.147-0.065-0.234-0.065-0.26l0.078-0.182l0.182-0.078
		h0.598l0.195,0.058l0.104,0.136l1.664,6.032c0.684-0.243,1.164-0.585,1.437-1.027c0.273-0.442,0.409-0.997,0.409-1.664v-3.237
		l0.085-0.215l0.214-0.084h0.546c0.095,0,0.169,0.026,0.221,0.078c0.052,0.052,0.078,0.126,0.078,0.221v3.588
		c0,0.763-0.251,1.45-0.754,2.061c-0.503,0.611-1.174,1.042-2.015,1.294l-2.834,0.897L180.064,175.605 M256.814,175.007
		c-1.135,0-1.963-0.271-2.483-0.813c-0.52-0.542-0.78-1.332-0.78-2.373v-4.069c0-0.095,0.028-0.169,0.085-0.221l0.214-0.078h0.494
		c0.095,0,0.169,0.026,0.221,0.078c0.052,0.052,0.078,0.126,0.078,0.221v4.004c0,0.72,0.18,1.27,0.54,1.651
		c0.359,0.381,0.903,0.572,1.631,0.572c0.719,0,1.25-0.176,1.592-0.527c0.342-0.351,0.522-0.882,0.539-1.592v-0.403v-0.936
		c-0.018-0.711-0.169-1.239-0.455-1.586c-0.286-0.347-0.676-0.52-1.17-0.52c-0.156,0-0.329,0.028-0.52,0.085
		c-0.191,0.056-0.356,0.128-0.494,0.214l-0.13,0.039l-0.163-0.072l-0.071-0.162v-0.377c0-0.104,0.008-0.186,0.026-0.247l0.143-0.156
		c0.182-0.121,0.375-0.21,0.579-0.267c0.203-0.056,0.462-0.084,0.773-0.084c0.84,0,1.48,0.245,1.917,0.735
		c0.438,0.49,0.67,1.246,0.696,2.268c0.009,0.087,0.013,0.342,0.013,0.767c0,0.425-0.004,0.68-0.013,0.767
		c-0.035,1.04-0.306,1.813-0.813,2.32C258.758,174.754,257.941,175.007,256.814,175.007 M200.2,175.007l-0.163-0.065l-0.071-0.182
		v-0.572c0-0.156,0.095-0.273,0.286-0.351l0.507-0.195c0.598-0.225,1.057-0.55,1.378-0.975c0.321-0.425,0.481-1.048,0.481-1.872
		c0-0.581-0.069-1.038-0.208-1.372c-0.139-0.333-0.366-0.574-0.682-0.722c-0.316-0.147-0.752-0.221-1.307-0.221h-0.403h-0.039
		l-1.196-0.013l-0.215-0.078l-0.084-0.208v-2.236l0.084-0.214l0.215-0.085h0.52l0.208,0.085l0.078,0.214v1.508h1.001
		c0.789,0,1.415,0.113,1.879,0.338c0.464,0.226,0.8,0.585,1.008,1.079s0.312,1.153,0.312,1.976c0,1.109-0.273,1.974-0.819,2.594
		c-0.546,0.62-1.257,1.077-2.132,1.371l-0.546,0.182L200.2,175.007 M123.775,175.007l-0.163-0.065l-0.071-0.182v-0.572
		c0-0.156,0.095-0.273,0.286-0.351l0.507-0.195c0.598-0.225,1.057-0.55,1.378-0.975c0.321-0.425,0.481-1.048,0.481-1.872
		c0-0.581-0.069-1.038-0.208-1.372c-0.139-0.333-0.366-0.574-0.682-0.722c-0.316-0.147-0.752-0.221-1.307-0.221h-0.403h-0.039
		l-1.196-0.013l-0.214-0.078l-0.085-0.208v-2.236l0.085-0.214l0.214-0.085h0.52l0.208,0.085l0.078,0.214v1.508h1.001
		c0.788,0,1.415,0.113,1.879,0.338c0.464,0.226,0.799,0.585,1.007,1.079s0.312,1.153,0.312,1.976c0,1.109-0.273,1.974-0.819,2.594
		c-0.546,0.62-1.257,1.077-2.132,1.371l-0.546,0.182L123.775,175.007 M117.418,175.007c-1.135,0-1.963-0.271-2.483-0.813
		c-0.52-0.542-0.78-1.332-0.78-2.373v-4.069c0-0.095,0.028-0.169,0.085-0.221l0.214-0.078h0.494c0.095,0,0.169,0.026,0.221,0.078
		c0.052,0.052,0.078,0.126,0.078,0.221v4.004c0,0.72,0.18,1.27,0.539,1.651c0.359,0.381,0.903,0.572,1.631,0.572
		c0.719,0,1.25-0.176,1.593-0.527c0.342-0.351,0.522-0.882,0.539-1.592v-0.403v-0.936c-0.017-0.711-0.169-1.239-0.455-1.586
		c-0.286-0.347-0.676-0.52-1.17-0.52c-0.156,0-0.329,0.028-0.52,0.085c-0.191,0.056-0.355,0.128-0.494,0.214l-0.13,0.039
		l-0.163-0.072l-0.071-0.162v-0.377c0-0.104,0.009-0.186,0.026-0.247l0.143-0.156c0.182-0.121,0.375-0.21,0.579-0.267
		c0.203-0.056,0.462-0.084,0.773-0.084c0.841,0,1.48,0.245,1.918,0.735c0.438,0.49,0.67,1.246,0.695,2.268
		c0.009,0.087,0.013,0.342,0.013,0.767c0,0.425-0.004,0.68-0.013,0.767c-0.035,1.04-0.306,1.813-0.813,2.32
		C119.361,174.754,118.544,175.007,117.418,175.007 M98.867,175.007l-0.163-0.065l-0.072-0.182v-0.572
		c0-0.156,0.095-0.273,0.286-0.351l0.507-0.195c0.598-0.225,1.057-0.55,1.378-0.975c0.321-0.425,0.481-1.048,0.481-1.872
		c0-0.581-0.07-1.038-0.208-1.372c-0.139-0.333-0.366-0.574-0.682-0.722c-0.316-0.147-0.752-0.221-1.307-0.221h-0.403h-0.039
		l-1.196-0.013l-0.215-0.078l-0.084-0.208v-2.236l0.084-0.214l0.215-0.085h0.52l0.208,0.085l0.078,0.214v1.508h1.001
		c0.789,0,1.415,0.113,1.879,0.338c0.464,0.226,0.8,0.585,1.008,1.079s0.312,1.153,0.312,1.976c0,1.109-0.273,1.974-0.819,2.594
		c-0.546,0.62-1.257,1.077-2.132,1.371l-0.546,0.182L98.867,175.007 M288.326,174.877h-5.408l-0.208-0.084l-0.078-0.215v-0.416
		l0.078-0.214l0.208-0.085h3.757v-3.172c0-1.482-0.746-2.223-2.236-2.223h-1.391l-0.208-0.085l-0.078-0.214v-0.416l0.078-0.215
		l0.208-0.084h1.456c2.219,0,3.328,1.062,3.328,3.185v3.224h0.494l0.208,0.085l0.078,0.214v0.416l-0.078,0.215L288.326,174.877
		 M277.731,174.877h-4.68l-0.215-0.084l-0.084-0.215v-0.429l0.084-0.208l0.215-0.078h3.536l-4.069-5.902
		c-0.07-0.113-0.104-0.195-0.104-0.247l0.085-0.182l0.201-0.078h0.572c0.139,0,0.255,0.069,0.351,0.208l2.327,3.354
		c0.737-0.347,1.105-1.057,1.105-2.132v-1.131c0-0.095,0.028-0.169,0.085-0.221l0.215-0.078h0.507l0.214,0.084l0.085,0.215v1.274
		c0,0.667-0.139,1.24-0.416,1.716c-0.277,0.477-0.685,0.841-1.222,1.092l1.352,1.95c0.104,0.13,0.156,0.26,0.156,0.39v0.403
		l-0.085,0.215L277.731,174.877 M270.789,174.877h-0.546l-0.215-0.084l-0.084-0.215v-3.887c0-1.49-0.741-2.236-2.223-2.236h-2.418
		l-0.214-0.078l-0.085-0.208v-0.416c0-0.095,0.028-0.169,0.085-0.221l0.214-0.078h2.483c2.201,0,3.302,1.066,3.302,3.198v3.926
		l-0.085,0.215L270.789,174.877 M265.849,174.877h-0.546l-0.214-0.084l-0.085-0.215v-4.368l0.085-0.214l0.214-0.085h0.546
		l0.214,0.085l0.085,0.214v4.368l-0.085,0.215L265.849,174.877 M251.367,174.877h-0.546l-0.215-0.084l-0.084-0.215v-3.887
		c0-1.49-0.745-2.236-2.236-2.236h-1.677l-0.215-0.078l-0.085-0.208v-0.416l0.085-0.215l0.215-0.084h1.755
		c2.201,0,3.302,1.057,3.302,3.172v3.952l-0.085,0.215L251.367,174.877 M244.295,174.877h-0.572l-0.214-0.084l-0.085-0.215v-6.825
		c0-0.095,0.028-0.169,0.085-0.221l0.214-0.078h0.572l0.215,0.084l0.085,0.215v6.825l-0.085,0.215L244.295,174.877 M238.719,174.877
		h-2.236l-0.215-0.084l-0.084-0.215v-0.429l0.084-0.215l0.215-0.084h2.171c0.607,0,1.075-0.195,1.404-0.585
		c0.329-0.39,0.507-0.94,0.533-1.651c0.008-0.087,0.013-0.238,0.013-0.455c0-0.208-0.005-0.355-0.013-0.442
		c-0.018-0.711-0.193-1.261-0.527-1.651c-0.334-0.39-0.804-0.585-1.411-0.585h-1.599v1.04c0,0.347,0.039,0.62,0.117,0.819
		c0.078,0.2,0.212,0.325,0.403,0.377l0.494,0.13l0.163,0.137c0.039,0.074,0.058,0.163,0.058,0.266v0.299
		c0,0.096-0.048,0.165-0.143,0.208c-0.068,0.031-0.141,0.047-0.217,0.047c-0.031,0-0.062-0.002-0.094-0.007l-0.507-0.104
		c-0.867-0.19-1.3-0.927-1.3-2.21v-1.729c0-0.095,0.028-0.169,0.085-0.221l0.215-0.078h2.392c0.953,0,1.677,0.277,2.171,0.832
		c0.494,0.555,0.758,1.348,0.793,2.379c0.009,0.087,0.013,0.251,0.013,0.494c0,0.251-0.004,0.42-0.013,0.507
		c-0.035,1.031-0.299,1.824-0.793,2.379C240.396,174.6,239.672,174.877,238.719,174.877 M233.779,174.877h-0.546l-0.214-0.084
		l-0.085-0.215v-3.887c0-1.49-0.741-2.236-2.223-2.236h-2.418l-0.215-0.078l-0.084-0.208v-0.416c0-0.095,0.028-0.169,0.084-0.221
		l0.215-0.078h2.483c2.201,0,3.302,1.066,3.302,3.198v3.926l-0.084,0.215L233.779,174.877 M228.839,174.877h-0.546l-0.215-0.084
		l-0.084-0.215v-4.368l0.084-0.214l0.215-0.085h0.546l0.215,0.085l0.085,0.214v4.368l-0.085,0.215L228.839,174.877 M222.547,174.877
		h-3.354l-0.208-0.084l-0.078-0.215v-0.416l0.078-0.214l0.208-0.085h2.509v-3.159c0-0.658-0.167-1.194-0.5-1.605
		c-0.334-0.411-0.756-0.617-1.267-0.617h-1.378l-1.001,6.084l-0.11,0.221l-0.215,0.091h-0.546l-0.202-0.091l-0.058-0.221l1.04-6.084
		h-0.663l-0.214-0.085l-0.085-0.214v-0.429l0.085-0.215l0.214-0.084h3.263c0.537,0,1.016,0.128,1.437,0.384
		c0.42,0.256,0.749,0.622,0.988,1.099c0.238,0.477,0.358,1.04,0.358,1.69v3.952l-0.085,0.215L222.547,174.877 M214.474,174.877
		h-0.546l-0.214-0.084l-0.085-0.215v-3.887c0-1.49-0.741-2.236-2.223-2.236h-2.418l-0.215-0.078l-0.084-0.208v-0.416
		c0-0.095,0.028-0.169,0.084-0.221l0.215-0.078h2.483c2.201,0,3.302,1.066,3.302,3.198v3.926l-0.084,0.215L214.474,174.877
		 M209.534,174.877h-0.546l-0.215-0.084l-0.084-0.215v-4.368l0.084-0.214l0.215-0.085h0.546l0.215,0.085l0.085,0.214v4.368
		l-0.085,0.215L209.534,174.877 M206.375,174.877h-0.572l-0.214-0.084l-0.085-0.215v-6.825c0-0.095,0.028-0.169,0.085-0.221
		l0.214-0.078h0.572l0.215,0.084l0.084,0.215v6.825l-0.084,0.215L206.375,174.877 M196.703,174.877h-0.546l-0.215-0.084
		l-0.084-0.215v-3.887c0-1.49-0.741-2.236-2.223-2.236h-2.418l-0.214-0.078l-0.085-0.208v-0.416c0-0.095,0.028-0.169,0.085-0.221
		l0.214-0.078h2.483c2.201,0,3.302,1.066,3.302,3.198v3.926l-0.085,0.215L196.703,174.877 M191.763,174.877h-0.546l-0.214-0.084
		l-0.085-0.215v-4.368l0.085-0.214l0.214-0.085h0.546l0.215,0.085l0.084,0.214v4.368l-0.084,0.215L191.763,174.877 M177.984,174.877
		h-5.447l-0.215-0.084l-0.085-0.215v-6.825c0-0.095,0.028-0.169,0.085-0.221l0.215-0.078h2.457c1.109,0,1.935,0.264,2.476,0.793
		c0.542,0.529,0.813,1.322,0.813,2.379v3.952l-0.084,0.215L177.984,174.877 M173.317,168.455v5.408h3.848v-3.172
		c0-1.49-0.745-2.236-2.236-2.236H173.317 M163.996,174.877h-1.924l-0.214-0.084l-0.085-0.215v-0.429
		c0-0.095,0.028-0.169,0.085-0.221l0.214-0.078h1.859c0.754,0,1.309-0.191,1.664-0.572c0.355-0.381,0.55-0.936,0.585-1.664
		c0.009-0.121,0.013-0.273,0.013-0.455c0-0.173-0.004-0.32-0.013-0.442c-0.026-0.737-0.219-1.294-0.579-1.671
		c-0.36-0.377-0.916-0.566-1.671-0.566h-1.859l-0.214-0.085l-0.085-0.214v-0.429c0-0.095,0.028-0.169,0.085-0.221l0.214-0.078h1.924
		c1.101,0,1.918,0.275,2.451,0.825c0.533,0.55,0.817,1.345,0.852,2.385c0.009,0.121,0.013,0.286,0.013,0.494
		c0,0.208-0.004,0.377-0.013,0.507c-0.035,1.04-0.318,1.835-0.852,2.385C165.913,174.602,165.097,174.877,163.996,174.877
		 M149.098,174.877h-3.354l-0.208-0.084l-0.078-0.215v-0.416l0.078-0.214l0.208-0.085h2.509v-3.159c0-0.658-0.167-1.194-0.5-1.605
		c-0.334-0.411-0.756-0.617-1.268-0.617h-1.378l-1.001,6.084l-0.11,0.221l-0.215,0.091h-0.546l-0.201-0.091l-0.058-0.221l1.04-6.084
		h-0.663l-0.214-0.085l-0.085-0.214v-0.429l0.085-0.215l0.214-0.084h3.263c0.537,0,1.016,0.128,1.437,0.384
		c0.42,0.256,0.749,0.622,0.988,1.099c0.238,0.477,0.357,1.04,0.357,1.69v3.952l-0.084,0.215L149.098,174.877 M138.023,174.877
		h-5.447l-0.214-0.084l-0.085-0.215v-6.825c0-0.095,0.028-0.169,0.085-0.221l0.214-0.078h2.457c1.109,0,1.935,0.264,2.476,0.793
		c0.542,0.529,0.813,1.322,0.813,2.379v3.952l-0.084,0.215L138.023,174.877 M133.355,168.455v5.408h3.848v-3.172
		c0-1.49-0.745-2.236-2.236-2.236H133.355 M112.556,174.877h-5.408l-0.208-0.084l-0.078-0.215v-0.416l0.078-0.214l0.208-0.085h3.757
		v-3.172c0-1.482-0.745-2.223-2.236-2.223h-1.391l-0.208-0.085l-0.078-0.214v-0.416l0.078-0.215l0.208-0.084h1.456
		c2.219,0,3.328,1.062,3.328,3.185v3.224h0.494l0.208,0.085l0.078,0.214v0.416l-0.078,0.215L112.556,174.877 M95.37,174.877h-0.546
		l-0.215-0.084l-0.084-0.215v-3.887c0-1.49-0.741-2.236-2.223-2.236h-2.418l-0.214-0.078l-0.085-0.208v-0.416
		c0-0.095,0.028-0.169,0.085-0.221l0.214-0.078h2.483c2.201,0,3.302,1.066,3.302,3.198v3.926l-0.085,0.215L95.37,174.877
		 M90.43,174.877h-0.546l-0.214-0.084l-0.085-0.215v-4.368l0.085-0.214l0.214-0.085h0.546l0.214,0.085l0.085,0.214v4.368
		l-0.085,0.215L90.43,174.877 M280.721,171.861h-0.572l-0.214-0.085l-0.085-0.214v-3.809c0-0.095,0.028-0.169,0.085-0.221
		l0.214-0.078h0.572l0.215,0.084l0.085,0.215v3.809l-0.085,0.214L280.721,171.861 M141.051,171.861h-0.572l-0.215-0.085
		l-0.084-0.214v-3.809c0-0.095,0.028-0.169,0.084-0.221l0.215-0.078h0.572l0.214,0.084l0.085,0.215v3.809l-0.085,0.214
		L141.051,171.861 M104.951,171.861h-0.572l-0.215-0.085l-0.084-0.214v-3.809c0-0.095,0.028-0.169,0.084-0.221l0.215-0.078h0.572
		l0.214,0.084l0.085,0.215v3.809l-0.085,0.214L104.951,171.861"/>
	<path fill="#000000" d="M231.907,194.26h-0.533l-0.214-0.078c-0.056-0.052-0.085-0.126-0.085-0.221v-6.851l0.085-0.214l0.214-0.085
		h0.533l0.214,0.085l0.085,0.214v6.851l-0.085,0.215L231.907,194.26 M240.682,191.907l-0.163-0.065l-0.072-0.182v-0.572
		c0-0.156,0.095-0.273,0.286-0.351l0.507-0.195c0.598-0.225,1.057-0.55,1.378-0.975c0.321-0.425,0.481-1.048,0.481-1.872
		c0-0.581-0.07-1.038-0.208-1.372c-0.139-0.333-0.366-0.574-0.682-0.722c-0.316-0.147-0.752-0.221-1.307-0.221H240.5h-0.039
		l-1.196-0.013l-0.215-0.078l-0.085-0.208v-2.236l0.085-0.214l0.215-0.085h0.52l0.208,0.085l0.078,0.214v1.508h1.001
		c0.789,0,1.415,0.113,1.879,0.338c0.464,0.226,0.8,0.585,1.008,1.079s0.312,1.153,0.312,1.976c0,1.109-0.273,1.974-0.819,2.594
		c-0.546,0.62-1.257,1.077-2.132,1.371l-0.546,0.182L240.682,191.907 M233.753,191.907l-0.163-0.065l-0.072-0.182v-0.572
		c0-0.156,0.095-0.273,0.286-0.351l0.507-0.195c0.598-0.225,1.057-0.55,1.378-0.975c0.321-0.425,0.481-1.048,0.481-1.872
		c0-0.581-0.07-1.038-0.208-1.372c-0.139-0.333-0.366-0.574-0.682-0.722c-0.316-0.147-0.752-0.221-1.307-0.221h-2.6l-0.214-0.085
		l-0.085-0.214v-0.442l0.085-0.208l0.214-0.078h2.756c0.797,0,1.428,0.113,1.891,0.338c0.464,0.226,0.8,0.585,1.008,1.079
		s0.312,1.153,0.312,1.976c0,1.109-0.273,1.974-0.819,2.594c-0.546,0.62-1.257,1.077-2.132,1.371l-0.546,0.182L233.753,191.907
		 M210.704,191.907c-1.135,0-1.963-0.271-2.483-0.813c-0.52-0.541-0.78-1.332-0.78-2.373v-4.069c0-0.095,0.028-0.169,0.085-0.221
		l0.214-0.078h0.494c0.095,0,0.169,0.026,0.221,0.078c0.052,0.052,0.078,0.126,0.078,0.221v4.004c0,0.72,0.18,1.27,0.54,1.651
		c0.359,0.381,0.903,0.572,1.631,0.572c0.719,0,1.25-0.175,1.593-0.527c0.342-0.351,0.522-0.882,0.539-1.593v-0.403v-0.936
		c-0.017-0.711-0.169-1.239-0.455-1.586c-0.286-0.347-0.676-0.52-1.17-0.52c-0.156,0-0.329,0.028-0.52,0.085
		c-0.191,0.056-0.355,0.128-0.494,0.214l-0.13,0.039l-0.163-0.072l-0.071-0.162v-0.377c0-0.104,0.009-0.186,0.026-0.247l0.143-0.156
		c0.182-0.121,0.375-0.21,0.579-0.267c0.203-0.056,0.462-0.084,0.773-0.084c0.841,0,1.48,0.245,1.918,0.735
		c0.437,0.49,0.67,1.246,0.695,2.268c0.009,0.087,0.013,0.342,0.013,0.767c0,0.425-0.004,0.68-0.013,0.767
		c-0.035,1.04-0.306,1.813-0.813,2.32C212.648,191.654,211.831,191.907,210.704,191.907 M284.725,191.857
		c-0.039,0-0.078,0-0.118-0.001h-0.962c-0.564,0-1.071-0.13-1.521-0.39c-0.451-0.26-0.804-0.626-1.059-1.099
		c-0.256-0.472-0.384-1.016-0.384-1.632v-4.082c0-0.095,0.028-0.169,0.084-0.221l0.215-0.078h0.507l0.215,0.084l0.084,0.215
		l0.039,3.692c0.789-0.061,1.337-0.273,1.645-0.637c0.308-0.364,0.461-0.841,0.461-1.43v-1.625l0.085-0.215l0.215-0.084h0.507
		l0.214,0.084l0.085,0.215v1.677c0,0.832-0.264,1.517-0.793,2.054c-0.529,0.537-1.305,0.832-2.327,0.884
		c0.139,0.503,0.396,0.89,0.774,1.164c0.377,0.273,0.83,0.409,1.358,0.409h0.416c0.015,0,0.029,0,0.043,0
		c0.802,0,1.429-0.238,1.881-0.715c0.459-0.485,0.689-1.131,0.689-1.937v-3.536l0.085-0.215l0.214-0.084h0.507l0.215,0.084
		l0.084,0.215v3.614c0,0.728-0.149,1.367-0.448,1.917c-0.299,0.55-0.72,0.971-1.261,1.261
		C285.962,191.72,285.379,191.857,284.725,191.857 M264.277,191.857c-0.039,0-0.078,0-0.118-0.001h-0.962
		c-0.564,0-1.071-0.13-1.521-0.39c-0.451-0.26-0.804-0.626-1.059-1.099c-0.256-0.472-0.384-1.016-0.384-1.632v-4.082
		c0-0.095,0.028-0.169,0.084-0.221l0.215-0.078h0.507l0.215,0.084l0.084,0.215l0.039,3.692c0.789-0.061,1.337-0.273,1.645-0.637
		c0.308-0.364,0.461-0.841,0.461-1.43v-1.625l0.084-0.215l0.215-0.084h0.507l0.214,0.084l0.085,0.215v1.677
		c0,0.832-0.264,1.517-0.793,2.054c-0.529,0.537-1.305,0.832-2.327,0.884c0.139,0.503,0.396,0.89,0.774,1.164
		c0.377,0.273,0.83,0.409,1.358,0.409h0.416c0.015,0,0.029,0,0.043,0c0.802,0,1.429-0.238,1.881-0.715
		c0.459-0.485,0.689-1.131,0.689-1.937v-3.536l0.085-0.215l0.214-0.084h0.507l0.215,0.084l0.084,0.215v3.614
		c0,0.728-0.149,1.367-0.448,1.917c-0.299,0.55-0.72,0.971-1.261,1.261C265.513,191.72,264.931,191.857,264.277,191.857
		 M222.795,191.857c-0.039,0-0.078,0-0.118-0.001h-0.962c-0.564,0-1.071-0.13-1.521-0.39c-0.451-0.26-0.804-0.626-1.059-1.099
		c-0.256-0.472-0.384-1.016-0.384-1.632v-4.082c0-0.095,0.028-0.169,0.085-0.221l0.214-0.078h0.507l0.215,0.084l0.084,0.215
		l0.039,3.692c0.789-0.061,1.337-0.273,1.645-0.637c0.308-0.364,0.462-0.841,0.462-1.43v-1.625l0.084-0.215l0.215-0.084h0.507
		l0.215,0.084l0.084,0.215v1.677c0,0.832-0.264,1.517-0.793,2.054c-0.529,0.537-1.305,0.832-2.327,0.884
		c0.139,0.503,0.396,0.89,0.774,1.164c0.377,0.273,0.83,0.409,1.358,0.409h0.416c0.015,0,0.029,0,0.043,0
		c0.803,0,1.429-0.238,1.881-0.715c0.459-0.485,0.689-1.131,0.689-1.937v-3.536l0.085-0.215l0.214-0.084h0.507l0.215,0.084
		l0.085,0.215v3.614c0,0.728-0.15,1.367-0.449,1.917c-0.299,0.55-0.72,0.971-1.261,1.261
		C224.031,191.72,223.449,191.857,222.795,191.857 M278.498,191.777h-0.572l-0.214-0.084l-0.085-0.215v-6.825
		c0-0.095,0.028-0.169,0.085-0.221l0.214-0.078h0.572l0.215,0.084l0.085,0.215v6.825l-0.085,0.215L278.498,191.777 M275.378,191.777
		h-3.354l-0.208-0.084l-0.078-0.215v-0.416l0.078-0.214l0.208-0.085h2.509v-3.159c0-0.658-0.167-1.194-0.501-1.605
		c-0.334-0.411-0.756-0.617-1.267-0.617h-1.378l-1.001,6.084l-0.111,0.221l-0.214,0.091h-0.546l-0.201-0.091l-0.058-0.221
		l1.04-6.084h-0.663l-0.215-0.085l-0.084-0.214v-0.429l0.084-0.215l0.215-0.084h3.263c0.537,0,1.016,0.128,1.437,0.384
		c0.42,0.256,0.749,0.622,0.988,1.098c0.238,0.477,0.357,1.04,0.357,1.69v3.952l-0.085,0.215L275.378,191.777 M258.049,191.777
		h-0.572l-0.215-0.084l-0.085-0.215v-6.825c0-0.095,0.028-0.169,0.085-0.221l0.215-0.078h0.572l0.214,0.084l0.085,0.215v6.825
		l-0.085,0.215L258.049,191.777 M254.929,191.777h-5.447l-0.215-0.084l-0.084-0.215v-6.825c0-0.095,0.028-0.169,0.084-0.221
		l0.215-0.078h2.457c1.109,0,1.935,0.264,2.477,0.793c0.542,0.529,0.813,1.322,0.813,2.379v3.952l-0.085,0.215L254.929,191.777
		 M250.262,185.355v5.408h3.848v-3.172c0-1.49-0.745-2.236-2.236-2.236H250.262 M216.567,191.777h-0.572l-0.215-0.084l-0.085-0.215
		v-6.825c0-0.095,0.028-0.169,0.085-0.221l0.215-0.078h0.572l0.214,0.084l0.085,0.215v6.825l-0.085,0.215L216.567,191.777
		 M228.852,188.761h-0.572l-0.215-0.085l-0.084-0.214v-3.809c0-0.095,0.028-0.169,0.084-0.221l0.215-0.078h0.572l0.214,0.084
		l0.085,0.215v3.809l-0.085,0.214L228.852,188.761"/>
	<path fill="#000000" d="M287.767,225.577h-1.209l-0.221-0.091l-0.091-0.221v-6.708l-1.963,1.508l-0.195,0.065
		c-0.104,0-0.186-0.043-0.247-0.13l-0.559-0.728l-0.065-0.182c0-0.104,0.047-0.19,0.143-0.26l2.912-2.262
		c0.095-0.061,0.204-0.091,0.325-0.091h1.17l0.221,0.091l0.091,0.221v8.476l-0.091,0.221L287.767,225.577"/>
	<path fill="#000000" d="M53.882,228.06h-0.221l-0.208-0.078l-0.078-0.208v-7.046l0.078-0.208l0.208-0.078h0.221l0.208,0.078
		l0.078,0.208v7.046l-0.078,0.208L53.882,228.06 M55.807,225.694c-0.139,0-0.208-0.069-0.208-0.208v-0.325
		c0-0.147,0.091-0.256,0.273-0.325l0.533-0.208c0.667-0.26,1.176-0.619,1.527-1.079c0.351-0.459,0.527-1.144,0.527-2.054
		c0-0.65-0.078-1.161-0.234-1.534c-0.156-0.372-0.414-0.641-0.774-0.806c-0.36-0.165-0.851-0.247-1.475-0.247h-2.314l-0.208-0.078
		l-0.078-0.208v-0.182l0.078-0.208l0.208-0.078h2.379c0.806,0,1.441,0.11,1.904,0.331c0.464,0.221,0.797,0.579,1.001,1.073
		c0.204,0.494,0.306,1.17,0.306,2.028c0,1.118-0.253,1.972-0.76,2.561c-0.507,0.59-1.185,1.036-2.034,1.339l-0.546,0.195
		L55.807,225.694 M64.958,225.577h-0.221l-0.208-0.078l-0.078-0.208v-4.914c0-0.338,0.033-0.637,0.098-0.897
		c0.065-0.26,0.149-0.451,0.253-0.572h-3.783l-0.208-0.078l-0.078-0.208v-0.182l0.078-0.208l0.208-0.078h5.486l0.208,0.078
		l0.078,0.208v0.182l-0.078,0.208l-0.208,0.078h-0.832c-0.139,0.122-0.245,0.319-0.318,0.592c-0.074,0.273-0.11,0.587-0.11,0.943
		v4.849l-0.078,0.208L64.958,225.577 M50.906,225.577h-0.221l-0.208-0.078l-0.078-0.208v-6.851l0.078-0.208l0.208-0.078h0.221
		l0.208,0.078l0.078,0.208v6.851l-0.078,0.208L50.906,225.577 M48.007,225.577h-0.221l-0.208-0.078l-0.078-0.208v-3.9
		c0-1.655-0.828-2.483-2.483-2.483h-0.988c-0.087,0.624-0.15,1.127-0.189,1.508c-0.039,0.382-0.054,0.815-0.045,1.3v3.575
		l-0.078,0.208l-0.208,0.078l-1.482-0.026l-0.208-0.078l-0.078-0.208v-0.182l0.078-0.208l0.208-0.078l0.975,0.013v-3.029v-0.403
		c0-0.476,0.017-0.895,0.052-1.254c0.035-0.36,0.1-0.765,0.195-1.216h-0.663l-0.208-0.078l-0.078-0.208v-0.182l0.078-0.208
		l0.208-0.078h2.496c1.083,0,1.889,0.271,2.418,0.813c0.529,0.542,0.793,1.328,0.793,2.36v3.965l-0.078,0.208L48.007,225.577"/>
	<path fill="#000000" d="M81.78,225.707c-1.092,0-1.879-0.329-2.36-0.988c-0.481-0.658-0.735-1.525-0.76-2.6l-0.013-1.079
		l0.013-1.105c0.026-1.075,0.279-1.941,0.76-2.6c0.481-0.659,1.268-0.988,2.36-0.988s1.879,0.329,2.36,0.988
		c0.481,0.659,0.735,1.525,0.76,2.6c0.009,0.243,0.013,0.611,0.013,1.105c0,0.485-0.004,0.845-0.013,1.079
		c-0.026,1.075-0.28,1.942-0.76,2.6C83.659,225.378,82.872,225.707,81.78,225.707 M81.78,217.127c-0.745,0-1.311,0.254-1.696,0.761
		c-0.386,0.507-0.587,1.211-0.604,2.112l-0.013,1.014l0.013,1.04c0.017,0.919,0.219,1.627,0.604,2.125
		c0.386,0.499,0.951,0.747,1.696,0.747c0.745,0,1.311-0.249,1.696-0.747c0.386-0.498,0.587-1.207,0.604-2.125
		c0.009-0.251,0.013-0.598,0.013-1.04s-0.005-0.78-0.013-1.014c-0.017-0.901-0.219-1.605-0.604-2.112
		C83.091,217.381,82.526,217.127,81.78,217.127 M76.788,225.577h-5.33l-0.208-0.078l-0.078-0.208v-0.195
		c0-0.173,0.108-0.355,0.325-0.546l3.367-3.367c0.476-0.442,0.797-0.815,0.962-1.118c0.165-0.303,0.247-0.663,0.247-1.079
		c0-0.581-0.167-1.036-0.501-1.365c-0.334-0.329-0.808-0.494-1.423-0.494c-0.581,0-1.044,0.169-1.391,0.507
		c-0.347,0.338-0.555,0.793-0.624,1.365c-0.009,0.096-0.045,0.169-0.11,0.221l-0.188,0.078h-0.26l-0.201-0.071l-0.071-0.176
		c0.017-0.425,0.13-0.845,0.338-1.261c0.208-0.416,0.524-0.76,0.949-1.033c0.424-0.273,0.945-0.41,1.56-0.41
		c0.927,0,1.616,0.251,2.067,0.754c0.451,0.503,0.676,1.131,0.676,1.885c0,0.52-0.113,0.988-0.338,1.404
		c-0.226,0.416-0.585,0.854-1.079,1.313l-3.042,3.094h4.355c0.095,0,0.169,0.026,0.221,0.078c0.052,0.052,0.078,0.126,0.078,0.221
		v0.195l-0.085,0.208L76.788,225.577"/>
	<path fill="#000000" d="M215.34,228.06h-0.221l-0.208-0.078l-0.078-0.208v-7.046l0.078-0.208l0.208-0.078h0.221l0.208,0.078
		l0.078,0.208v7.046l-0.078,0.208L215.34,228.06 M217.264,225.694c-0.139,0-0.208-0.069-0.208-0.208v-0.325
		c0-0.147,0.091-0.256,0.273-0.325l0.533-0.208c0.667-0.26,1.176-0.619,1.527-1.079c0.351-0.459,0.527-1.144,0.527-2.054
		c0-0.65-0.078-1.161-0.234-1.534c-0.156-0.372-0.414-0.641-0.773-0.806c-0.36-0.165-0.852-0.247-1.475-0.247h-2.314l-0.208-0.078
		l-0.078-0.208v-0.182l0.078-0.208l0.208-0.078h2.379c0.806,0,1.441,0.11,1.904,0.331c0.464,0.221,0.797,0.579,1.001,1.073
		c0.204,0.494,0.306,1.17,0.306,2.028c0,1.118-0.253,1.972-0.76,2.561c-0.507,0.59-1.185,1.036-2.034,1.339l-0.546,0.195
		L217.264,225.694 M191.096,225.694c-0.139,0-0.208-0.069-0.208-0.208v-0.325c0-0.147,0.091-0.256,0.273-0.325l0.533-0.208
		c0.667-0.26,1.176-0.619,1.527-1.079c0.351-0.459,0.527-1.144,0.527-2.054c0-0.65-0.078-1.161-0.234-1.534
		c-0.156-0.372-0.414-0.641-0.774-0.806c-0.36-0.165-0.851-0.247-1.475-0.247h-0.442h-0.039l-1.014-0.013l-0.208-0.071l-0.078-0.202
		v-1.989l0.078-0.208l0.208-0.078h0.221l0.208,0.078l0.078,0.208v1.521h1.053c0.806,0,1.441,0.11,1.904,0.331
		c0.464,0.221,0.797,0.579,1.001,1.073c0.204,0.494,0.306,1.17,0.306,2.028c0,1.118-0.253,1.972-0.76,2.561
		c-0.507,0.59-1.185,1.036-2.034,1.339l-0.546,0.195L191.096,225.694 M93.103,225.694c-0.139,0-0.208-0.069-0.208-0.208v-0.325
		c0-0.147,0.091-0.256,0.273-0.325l0.533-0.208c0.667-0.26,1.177-0.619,1.527-1.079c0.351-0.459,0.527-1.144,0.527-2.054
		c0-0.65-0.078-1.161-0.234-1.534c-0.156-0.372-0.414-0.641-0.773-0.806c-0.36-0.165-0.852-0.247-1.476-0.247H92.83h-0.039
		l-1.014-0.013l-0.208-0.071l-0.078-0.202v-1.989l0.078-0.208l0.208-0.078h0.221l0.208,0.078l0.078,0.208v1.521h1.053
		c0.806,0,1.441,0.11,1.905,0.331c0.464,0.221,0.797,0.579,1.001,1.073c0.203,0.494,0.306,1.17,0.306,2.028
		c0,1.118-0.253,1.972-0.761,2.561c-0.507,0.59-1.185,1.036-2.034,1.339l-0.546,0.195L93.103,225.694 M270.681,225.577h-3.289
		l-0.208-0.078l-0.078-0.208v-0.182l0.078-0.208l0.208-0.078h2.782v-3.432c0-0.476-0.085-0.905-0.254-1.287
		c-0.169-0.381-0.403-0.676-0.702-0.884c-0.299-0.208-0.635-0.312-1.008-0.312h-1.508l-0.962,6.37l-0.111,0.215l-0.214,0.084h-0.234
		L265,225.493l-0.052-0.215l0.949-6.37h-0.585l-0.208-0.078l-0.078-0.208v-0.182l0.078-0.208l0.208-0.078h2.964
		c0.52,0,0.983,0.13,1.391,0.39c0.407,0.26,0.726,0.631,0.956,1.112c0.229,0.481,0.344,1.038,0.344,1.671v3.965l-0.078,0.208
		L270.681,225.577 M260.229,225.577h-1.911l-0.208-0.078l-0.078-0.208v-0.182l0.078-0.208l0.208-0.078h1.846
		c0.849,0,1.467-0.21,1.852-0.631c0.386-0.42,0.596-1.038,0.631-1.852c0.008-0.13,0.013-0.29,0.013-0.481
		c0-0.182-0.005-0.338-0.013-0.468c-0.026-0.815-0.234-1.432-0.624-1.852c-0.39-0.42-1.01-0.631-1.859-0.631h-1.846l-0.208-0.078
		l-0.078-0.208v-0.182l0.078-0.208l0.208-0.078h1.911c1.074,0,1.87,0.269,2.385,0.806c0.516,0.537,0.791,1.326,0.825,2.366
		c0.009,0.13,0.013,0.308,0.013,0.533c0,0.234-0.004,0.416-0.013,0.546c-0.035,1.04-0.31,1.829-0.825,2.366
		C262.098,225.309,261.303,225.577,260.229,225.577 M253.17,225.577h-3.224l-0.208-0.078l-0.078-0.208v-0.182l0.078-0.208
		l0.208-0.078h2.691l-0.247-3.562l-0.013-0.273c-0.035-0.52-0.078-0.914-0.13-1.183c-0.052-0.268-0.165-0.485-0.338-0.65
		c-0.173-0.165-0.438-0.247-0.793-0.247h-0.481l-0.208-0.078l-0.078-0.208v-0.182l0.078-0.208l0.208-0.078h0.481
		c0.581,0,1.012,0.126,1.294,0.377c0.282,0.251,0.468,0.577,0.559,0.975c0.091,0.399,0.163,0.962,0.215,1.69l0.273,4.095v0.039
		l-0.084,0.176L253.17,225.577 M244.967,225.577h-5.226l-0.208-0.078l-0.078-0.208v-6.851l0.078-0.208l0.208-0.078h2.301
		c1.083,0,1.889,0.271,2.418,0.813c0.529,0.542,0.793,1.328,0.793,2.36v3.965l-0.078,0.208L244.967,225.577 M240.235,218.908v5.915
		h4.225v-3.432c0-1.655-0.828-2.483-2.483-2.483H240.235 M234.554,225.577h-5.2l-0.208-0.078l-0.078-0.208v-0.182l0.078-0.208
		l0.208-0.078h3.913v-3.432c0-1.655-0.828-2.483-2.483-2.483h-1.3l-0.208-0.078l-0.078-0.208v-0.182l0.078-0.208l0.208-0.078h1.365
		c1.083,0,1.889,0.273,2.418,0.819c0.529,0.546,0.793,1.331,0.793,2.353v3.497h0.494l0.208,0.078l0.078,0.208v0.182l-0.078,0.208
		L234.554,225.577 M227.157,225.577h-4.485l-0.208-0.078l-0.078-0.208v-0.182l0.078-0.208l0.208-0.078h3.705l-4.173-6.149
		c-0.07-0.104-0.104-0.19-0.104-0.26l0.085-0.182l0.188-0.078h0.234c0.13,0,0.238,0.069,0.325,0.208l2.496,3.627
		c0.849-0.321,1.274-1.083,1.274-2.288v-1.261l0.078-0.208l0.208-0.078h0.221l0.208,0.078l0.078,0.208v1.326
		c0,0.702-0.141,1.289-0.422,1.761c-0.282,0.472-0.696,0.821-1.242,1.046l1.469,2.145c0.095,0.139,0.143,0.269,0.143,0.39v0.182
		l-0.078,0.208L227.157,225.577 M209.088,225.577h-3.289l-0.208-0.078l-0.078-0.208v-0.182l0.078-0.208l0.208-0.078h2.782v-3.432
		c0-0.476-0.085-0.905-0.253-1.287c-0.169-0.381-0.403-0.676-0.702-0.884c-0.299-0.208-0.635-0.312-1.008-0.312h-1.508l-0.962,6.37
		l-0.11,0.215l-0.214,0.084h-0.234l-0.182-0.084l-0.052-0.215l0.949-6.37h-0.585l-0.208-0.078l-0.078-0.208v-0.182l0.078-0.208
		l0.208-0.078h2.964c0.52,0,0.983,0.13,1.391,0.39c0.407,0.26,0.726,0.631,0.956,1.112c0.23,0.481,0.345,1.038,0.345,1.671v3.965
		l-0.078,0.208L209.088,225.577 M198.636,225.577h-1.911l-0.208-0.078l-0.078-0.208v-0.182l0.078-0.208l0.208-0.078h1.846
		c0.849,0,1.467-0.21,1.852-0.631c0.386-0.42,0.596-1.038,0.631-1.852c0.009-0.13,0.013-0.29,0.013-0.481
		c0-0.182-0.004-0.338-0.013-0.468c-0.026-0.815-0.234-1.432-0.624-1.852c-0.39-0.42-1.01-0.631-1.859-0.631h-1.846l-0.208-0.078
		l-0.078-0.208v-0.182l0.078-0.208l0.208-0.078h1.911c1.075,0,1.87,0.269,2.385,0.806c0.516,0.537,0.791,1.326,0.825,2.366
		c0.009,0.13,0.013,0.308,0.013,0.533c0,0.234-0.004,0.416-0.013,0.546c-0.035,1.04-0.31,1.829-0.825,2.366
		C200.505,225.309,199.71,225.577,198.636,225.577 M184.219,225.577h-0.221l-0.208-0.078l-0.078-0.208v-3.9
		c0-1.655-0.828-2.483-2.483-2.483h-2.236l-0.208-0.078l-0.078-0.208v-0.182l0.078-0.208l0.208-0.078h2.301
		c1.083,0,1.889,0.271,2.418,0.813c0.529,0.542,0.793,1.328,0.793,2.36v3.965l-0.078,0.208L184.219,225.577 M179.214,225.577h-0.221
		l-0.208-0.078l-0.078-0.208v-4.563l0.078-0.208l0.208-0.078h0.221l0.208,0.078l0.078,0.208v4.563l-0.078,0.208L179.214,225.577
		 M176.315,225.577h-0.221l-0.208-0.078l-0.078-0.208v-3.9c0-1.655-0.828-2.483-2.483-2.483h-1.742v6.383l-0.078,0.208l-0.208,0.078
		h-0.221l-0.208-0.078l-0.078-0.208v-6.851l0.078-0.208l0.208-0.078h2.314c1.083,0,1.889,0.271,2.418,0.813
		c0.529,0.542,0.793,1.328,0.793,2.36v3.965l-0.078,0.208L176.315,225.577 M168.32,225.577h-0.221l-0.208-0.078l-0.078-0.208v-6.851
		l0.078-0.208l0.208-0.078h0.221l0.208,0.078l0.078,0.208v6.851l-0.078,0.208L168.32,225.577 M165.421,225.577h-3.289l-0.208-0.078
		l-0.078-0.208v-0.182l0.078-0.208l0.208-0.078h2.782v-3.432c0-0.476-0.085-0.905-0.253-1.287c-0.169-0.381-0.403-0.676-0.702-0.884
		s-0.635-0.312-1.008-0.312h-1.508l-0.962,6.37l-0.11,0.215l-0.215,0.084h-0.234l-0.182-0.084l-0.052-0.215l0.949-6.37h-0.585
		l-0.208-0.078l-0.078-0.208v-0.182l0.078-0.208l0.208-0.078h2.964c0.52,0,0.984,0.13,1.391,0.39
		c0.407,0.26,0.726,0.631,0.956,1.112c0.23,0.481,0.344,1.038,0.344,1.671v3.965l-0.078,0.208L165.421,225.577 M157.608,225.577
		h-0.221l-0.208-0.078l-0.078-0.208v-3.9c0-1.655-0.828-2.483-2.483-2.483h-1.586l-0.208-0.078l-0.078-0.208v-0.182l0.078-0.208
		l0.208-0.078h1.651c1.083,0,1.889,0.271,2.418,0.813c0.529,0.542,0.793,1.328,0.793,2.36v3.965l-0.078,0.208L157.608,225.577
		 M147.897,225.577h-5.226l-0.208-0.078l-0.078-0.208v-6.851l0.078-0.208l0.208-0.078h2.301c1.083,0,1.889,0.271,2.418,0.813
		c0.529,0.542,0.793,1.328,0.793,2.36v3.965l-0.078,0.208L147.897,225.577 M143.165,218.908v5.915h4.225v-3.432
		c0-1.655-0.828-2.483-2.483-2.483H143.165 M136.562,225.577h-0.221l-0.208-0.078l-0.078-0.208v-6.851l0.078-0.208l0.208-0.078
		h0.221l0.208,0.078l0.078,0.208v6.851l-0.078,0.208L136.562,225.577 M133.663,225.577h-3.289l-0.208-0.078l-0.078-0.208v-0.182
		l0.078-0.208l0.208-0.078h2.782v-3.432c0-0.476-0.085-0.905-0.253-1.287c-0.169-0.381-0.403-0.676-0.702-0.884
		c-0.299-0.208-0.635-0.312-1.007-0.312h-1.508l-0.962,6.37l-0.11,0.215l-0.215,0.084h-0.234l-0.182-0.084l-0.052-0.215l0.949-6.37
		h-0.585l-0.208-0.078l-0.078-0.208v-0.182l0.078-0.208l0.208-0.078h2.964c0.52,0,0.983,0.13,1.391,0.39
		c0.407,0.26,0.726,0.631,0.956,1.112c0.23,0.481,0.344,1.038,0.344,1.671v3.965l-0.078,0.208L133.663,225.577 M126.175,225.577
		h-3.224l-0.208-0.078l-0.078-0.208v-0.182l0.078-0.208l0.208-0.078h2.691l-0.247-3.562l-0.013-0.273
		c-0.035-0.52-0.078-0.914-0.13-1.183c-0.052-0.268-0.165-0.485-0.338-0.65c-0.174-0.165-0.438-0.247-0.793-0.247h-0.481
		l-0.208-0.078l-0.078-0.208v-0.182l0.078-0.208l0.208-0.078h0.481c0.581,0,1.012,0.126,1.294,0.377
		c0.281,0.251,0.468,0.577,0.559,0.975c0.091,0.399,0.163,0.962,0.215,1.69l0.273,4.095v0.039l-0.085,0.176L126.175,225.577
		 M117.972,225.577h-0.221l-0.208-0.078l-0.078-0.208v-3.9c0-1.655-0.828-2.483-2.483-2.483h-1.742v6.383l-0.078,0.208l-0.208,0.078
		h-0.221l-0.208-0.078l-0.078-0.208v-6.851l0.078-0.208l0.208-0.078h2.314c1.083,0,1.889,0.271,2.418,0.813
		c0.529,0.542,0.793,1.328,0.793,2.36v3.965l-0.078,0.208L117.972,225.577 M107.286,225.577h-5.226l-0.208-0.078l-0.078-0.208
		v-6.851l0.078-0.208l0.208-0.078h2.301c1.083,0,1.889,0.271,2.418,0.813c0.529,0.542,0.793,1.328,0.793,2.36v3.965l-0.078,0.208
		L107.286,225.577 M102.554,218.908v5.915h4.225v-3.432c0-1.655-0.828-2.483-2.483-2.483H102.554 M255.64,222.587h-0.221
		l-0.208-0.078l-0.078-0.208v-3.861l0.078-0.208l0.208-0.078h0.221l0.208,0.078l0.078,0.208v3.861l-0.078,0.208L255.64,222.587
		 M247.762,222.587h-0.221l-0.208-0.078l-0.078-0.208v-3.861l0.078-0.208l0.208-0.078h0.221l0.208,0.078l0.078,0.208v3.861
		l-0.078,0.208L247.762,222.587 M150.692,222.587h-0.221l-0.208-0.078l-0.078-0.208v-3.861l0.078-0.208l0.208-0.078h0.221
		l0.208,0.078l0.078,0.208v3.861l-0.078,0.208L150.692,222.587 M120.767,222.587h-0.221l-0.208-0.078l-0.078-0.208v-3.861
		l0.078-0.208l0.208-0.078h0.221l0.208,0.078l0.078,0.208v3.861l-0.078,0.208L120.767,222.587 M110.081,222.587h-0.221l-0.208-0.078
		l-0.078-0.208v-3.861l0.078-0.208l0.208-0.078h0.221l0.208,0.078l0.078,0.208v3.861l-0.078,0.208L110.081,222.587 M89.515,218.908
		H86.85l-0.208-0.078l-0.078-0.208v-0.182l0.078-0.208l0.208-0.078h2.665l0.208,0.078l0.078,0.208v0.182l-0.078,0.208
		L89.515,218.908"/>
	<path fill="#000000" d="M261.282,242.607c-1.101,0-1.9-0.268-2.398-0.806c-0.498-0.537-0.747-1.326-0.747-2.366v-4.095l0.078-0.208
		l0.208-0.078h0.221l0.208,0.078l0.078,0.208v4.03c0,0.797,0.193,1.41,0.579,1.839c0.386,0.429,0.977,0.644,1.774,0.644
		c0.797,0,1.385-0.193,1.762-0.579c0.377-0.386,0.574-0.977,0.592-1.774v-0.442v-1.027c-0.018-0.78-0.191-1.356-0.52-1.729
		c-0.329-0.373-0.776-0.559-1.339-0.559c-0.165,0-0.353,0.03-0.565,0.091c-0.212,0.061-0.392,0.143-0.539,0.247l-0.13,0.039
		l-0.15-0.058l-0.071-0.15v-0.169v-0.065l0.026-0.182l0.104-0.117c0.199-0.13,0.405-0.227,0.617-0.292
		c0.212-0.065,0.47-0.098,0.773-0.098c0.806,0,1.432,0.243,1.879,0.728c0.446,0.485,0.682,1.235,0.709,2.249
		c0.009,0.087,0.013,0.351,0.013,0.793c0,0.451-0.004,0.72-0.013,0.806c-0.026,1.04-0.28,1.807-0.761,2.301
		C263.186,242.36,262.391,242.607,261.282,242.607 M231.291,242.607c-1.101,0-1.9-0.268-2.399-0.806
		c-0.498-0.537-0.747-1.326-0.747-2.366v-4.095l0.078-0.208l0.208-0.078h0.221l0.208,0.078l0.078,0.208v4.03
		c0,0.797,0.193,1.41,0.578,1.839c0.386,0.429,0.977,0.644,1.775,0.644c0.797,0,1.385-0.193,1.761-0.579
		c0.377-0.386,0.574-0.977,0.592-1.774v-0.442v-1.027c-0.018-0.78-0.191-1.356-0.52-1.729c-0.329-0.373-0.776-0.559-1.339-0.559
		c-0.165,0-0.353,0.03-0.566,0.091c-0.212,0.061-0.392,0.143-0.539,0.247l-0.13,0.039l-0.149-0.058l-0.072-0.15v-0.169v-0.065
		l0.026-0.182l0.104-0.117c0.199-0.13,0.405-0.227,0.617-0.292c0.212-0.065,0.47-0.098,0.774-0.098c0.806,0,1.432,0.243,1.879,0.728
		c0.446,0.485,0.682,1.235,0.708,2.249c0.009,0.087,0.013,0.351,0.013,0.793c0,0.451-0.004,0.72-0.013,0.806
		c-0.026,1.04-0.279,1.807-0.76,2.301C233.195,242.36,232.4,242.607,231.291,242.607 M271.305,242.477h-5.2l-0.208-0.078
		l-0.078-0.208v-0.182l0.078-0.208l0.208-0.078h3.913v-3.432c0-1.655-0.828-2.483-2.483-2.483h-1.3l-0.208-0.078l-0.078-0.208
		v-0.182l0.078-0.208l0.208-0.078h1.365c1.083,0,1.889,0.273,2.418,0.819c0.528,0.546,0.793,1.331,0.793,2.353v3.497h0.494
		l0.208,0.078l0.078,0.208v0.182l-0.078,0.208L271.305,242.477 M255.809,242.477h-3.289l-0.208-0.078l-0.078-0.208v-0.182
		l0.078-0.208l0.208-0.078h2.782v-3.432c0-0.477-0.084-0.906-0.253-1.287c-0.169-0.381-0.403-0.676-0.702-0.884
		c-0.299-0.208-0.635-0.312-1.007-0.312h-1.508l-0.962,6.37l-0.11,0.215l-0.215,0.085h-0.234l-0.182-0.085l-0.052-0.215l0.949-6.37
		h-0.585l-0.208-0.078l-0.078-0.208v-0.182l0.078-0.208l0.208-0.078h2.964c0.52,0,0.983,0.13,1.391,0.39
		c0.407,0.26,0.726,0.631,0.956,1.112c0.23,0.481,0.345,1.038,0.345,1.67v3.965l-0.078,0.208L255.809,242.477 M245.76,242.477
		h-2.158l-0.208-0.078l-0.078-0.208v-0.182l0.078-0.208l0.208-0.078h2.093c0.659,0,1.159-0.215,1.502-0.644
		c0.342-0.429,0.531-1.042,0.565-1.839c0.009-0.087,0.013-0.247,0.013-0.481c0-0.225-0.004-0.381-0.013-0.468
		c-0.018-0.789-0.201-1.4-0.552-1.833c-0.351-0.433-0.856-0.65-1.515-0.65h-1.768v1.235c0,0.407,0.043,0.726,0.13,0.956
		c0.087,0.23,0.238,0.371,0.455,0.422l0.533,0.13c0.147,0.043,0.221,0.182,0.221,0.416v0.182l-0.085,0.156l-0.214,0.052
		l-0.104-0.013l-0.494-0.117c-0.416-0.095-0.724-0.321-0.923-0.676c-0.199-0.355-0.299-0.858-0.299-1.508v-1.703l0.078-0.208
		l0.208-0.078h2.327c0.893,0,1.575,0.275,2.047,0.825c0.472,0.55,0.722,1.332,0.747,2.347c0.009,0.087,0.013,0.264,0.013,0.533
		c0,0.277-0.004,0.459-0.013,0.546c-0.026,1.014-0.275,1.796-0.747,2.346C247.335,242.202,246.652,242.477,245.76,242.477
		 M240.729,242.477h-0.221l-0.208-0.078l-0.078-0.208v-3.9c0-1.655-0.828-2.483-2.483-2.483h-1.586l-0.208-0.078l-0.078-0.208
		v-0.182l0.078-0.208l0.208-0.078h1.651c1.083,0,1.889,0.271,2.418,0.813c0.529,0.542,0.793,1.328,0.793,2.36v3.965l-0.078,0.208
		L240.729,242.477 M225.74,242.477h-0.221l-0.208-0.078l-0.078-0.208v-6.851l0.078-0.208l0.208-0.078h0.221l0.208,0.078l0.078,0.208
		v6.851l-0.078,0.208L225.74,242.477 M222.841,242.477h-0.221l-0.208-0.078l-0.078-0.208v-3.9c0-1.655-0.828-2.483-2.483-2.483
		h-1.586l-0.208-0.078l-0.078-0.208v-0.182l0.078-0.208l0.208-0.078h1.651c1.083,0,1.889,0.271,2.418,0.813
		c0.529,0.542,0.793,1.328,0.793,2.36v3.965l-0.078,0.208L222.841,242.477 M216.224,242.477h-0.221l-0.208-0.078l-0.078-0.208v-3.9
		c0-1.655-0.828-2.483-2.483-2.483h-0.988c-0.087,0.624-0.15,1.127-0.188,1.508c-0.039,0.382-0.054,0.815-0.045,1.3v3.575
		l-0.078,0.208l-0.208,0.078l-1.482-0.026l-0.208-0.078l-0.078-0.208v-0.182l0.078-0.208l0.208-0.078l0.975,0.013v-3.029v-0.403
		c0-0.476,0.017-0.895,0.052-1.254c0.035-0.36,0.1-0.765,0.195-1.215h-0.663l-0.208-0.078l-0.078-0.208v-0.182l0.078-0.208
		l0.208-0.078h2.496c1.083,0,1.889,0.271,2.418,0.813c0.529,0.542,0.793,1.328,0.793,2.36v3.965l-0.078,0.208L216.224,242.477
		 M204.563,242.477h-0.221l-0.208-0.078l-0.078-0.208v-3.9c0-1.655-0.828-2.483-2.483-2.483h-2.236l-0.208-0.078l-0.078-0.208
		v-0.182l0.078-0.208l0.208-0.078h2.301c1.083,0,1.889,0.271,2.418,0.813c0.529,0.542,0.793,1.328,0.793,2.36v3.965l-0.078,0.208
		L204.563,242.477 M199.558,242.477h-0.221l-0.208-0.078l-0.078-0.208v-4.563l0.078-0.208l0.208-0.078h0.221l0.208,0.078
		l0.078,0.208v4.563l-0.078,0.208L199.558,242.477 M196.659,242.477h-0.221l-0.208-0.078l-0.078-0.208v-3.9
		c0-1.655-0.828-2.483-2.483-2.483h-1.742v6.383l-0.078,0.208l-0.208,0.078h-0.221l-0.208-0.078l-0.078-0.208v-6.851l0.078-0.208
		l0.208-0.078h2.314c1.083,0,1.889,0.271,2.418,0.813c0.529,0.542,0.793,1.328,0.793,2.36v3.965l-0.078,0.208L196.659,242.477
		 M187.559,242.477h-0.221l-0.208-0.078l-0.078-0.208v-4.914c0-0.338,0.033-0.637,0.098-0.897c0.065-0.26,0.15-0.451,0.253-0.572
		h-3.783l-0.208-0.078l-0.078-0.208v-0.182l0.078-0.208l0.208-0.078h5.486l0.208,0.078l0.078,0.208v0.182l-0.078,0.208l-0.208,0.078
		h-0.832c-0.139,0.121-0.245,0.318-0.319,0.591c-0.074,0.273-0.11,0.587-0.11,0.943v4.849l-0.078,0.208L187.559,242.477
		 M181.839,242.477h-0.221l-0.208-0.078l-0.078-0.208v-3.9c0-1.655-0.828-2.483-2.483-2.483h-1.586l-0.208-0.078l-0.078-0.208
		v-0.182l0.078-0.208l0.208-0.078h1.651c1.083,0,1.889,0.271,2.418,0.813c0.529,0.542,0.793,1.328,0.793,2.36v3.965l-0.078,0.208
		L181.839,242.477"/>
	<path fill="#000000" d="M288.053,265.046h-6.227l-0.221-0.091l-0.091-0.221v-0.676c0-0.243,0.108-0.446,0.325-0.611l2.028-2.015
		c0.615-0.485,1.09-0.882,1.423-1.189c0.334-0.308,0.583-0.592,0.747-0.852c0.165-0.26,0.247-0.515,0.247-0.767
		c0-0.407-0.108-0.728-0.325-0.962c-0.217-0.234-0.546-0.351-0.988-0.351c-0.433,0-0.773,0.128-1.021,0.384
		c-0.247,0.256-0.401,0.587-0.461,0.995c-0.026,0.104-0.076,0.18-0.149,0.227l-0.241,0.072h-1.17l-0.195-0.078l-0.078-0.195
		c0.017-0.511,0.158-0.99,0.422-1.437c0.264-0.446,0.644-0.806,1.138-1.079c0.494-0.273,1.074-0.409,1.742-0.409
		c0.693,0,1.283,0.119,1.768,0.357c0.485,0.238,0.849,0.566,1.092,0.982c0.243,0.416,0.364,0.888,0.364,1.417
		c0,0.581-0.163,1.107-0.488,1.579c-0.325,0.472-0.83,0.977-1.515,1.515l-1.807,1.833h3.679c0.095,0,0.173,0.03,0.234,0.091
		c0.06,0.061,0.091,0.139,0.091,0.234v0.936c0,0.095-0.031,0.171-0.091,0.227C288.226,265.018,288.148,265.046,288.053,265.046"/>
	<path fill="#000000" d="M192.864,267.529h-0.221l-0.208-0.078l-0.078-0.208v-7.046l0.078-0.208l0.208-0.078h0.221l0.208,0.078
		l0.078,0.208v7.046l-0.078,0.208L192.864,267.529 M165.46,266.021h-0.221l-0.156-0.078l-0.026-0.195l0.247-1.56
		c0.026-0.234,0.134-0.351,0.325-0.351h0.585l0.143,0.065l0.052,0.143l-0.052,0.234l-0.559,1.469
		c-0.043,0.095-0.089,0.165-0.136,0.208L165.46,266.021 M221.333,265.787l-0.176-0.065l-0.071-0.156v-0.169
		c0-0.199,0.06-0.321,0.182-0.364l1.781-0.65l-1.729-6.24c-0.043-0.147-0.065-0.234-0.065-0.26l0.078-0.182l0.182-0.078h0.234
		l0.195,0.058l0.104,0.136l1.781,6.279l0.13-0.052c0.711-0.26,1.209-0.633,1.495-1.118c0.286-0.485,0.429-1.075,0.429-1.768v-3.25
		l0.078-0.208l0.208-0.078h0.221l0.208,0.078l0.078,0.208v3.51c0,0.728-0.234,1.404-0.702,2.028
		c-0.468,0.624-1.088,1.075-1.859,1.352l-2.665,0.962L221.333,265.787 M187.326,265.176c-1.101,0-1.9-0.268-2.398-0.806
		c-0.499-0.537-0.748-1.326-0.748-2.366v-4.095l0.078-0.208l0.208-0.078h0.221l0.208,0.078l0.078,0.208v4.03
		c0,0.798,0.193,1.411,0.578,1.84c0.386,0.429,0.977,0.643,1.775,0.643c0.797,0,1.385-0.193,1.761-0.578
		c0.377-0.386,0.574-0.977,0.592-1.775v-0.442V260.6c-0.018-0.78-0.191-1.356-0.52-1.729c-0.329-0.373-0.776-0.559-1.339-0.559
		c-0.165,0-0.353,0.031-0.566,0.091c-0.212,0.061-0.392,0.143-0.539,0.247l-0.13,0.039l-0.149-0.059l-0.072-0.149v-0.169v-0.065
		l0.026-0.182l0.104-0.117c0.199-0.13,0.405-0.228,0.617-0.293c0.212-0.065,0.47-0.097,0.774-0.097c0.806,0,1.432,0.243,1.879,0.728
		c0.446,0.485,0.682,1.235,0.708,2.249c0.009,0.087,0.013,0.351,0.013,0.793c0,0.451-0.004,0.719-0.013,0.806
		c-0.026,1.04-0.279,1.807-0.76,2.301C189.23,264.929,188.435,265.176,187.326,265.176 M156.997,265.176
		c-1.101,0-1.9-0.268-2.398-0.806c-0.498-0.537-0.747-1.326-0.747-2.366v-4.095l0.078-0.208l0.208-0.078h0.221l0.208,0.078
		l0.078,0.208v4.03c0,0.798,0.193,1.411,0.579,1.84c0.386,0.429,0.977,0.643,1.774,0.643c0.797,0,1.384-0.193,1.762-0.578
		c0.377-0.386,0.574-0.977,0.591-1.775v-0.442V260.6c-0.017-0.78-0.191-1.356-0.52-1.729c-0.329-0.373-0.776-0.559-1.339-0.559
		c-0.165,0-0.353,0.031-0.565,0.091c-0.213,0.061-0.392,0.143-0.539,0.247l-0.13,0.039l-0.15-0.059l-0.071-0.149v-0.169v-0.065
		l0.026-0.182l0.104-0.117c0.199-0.13,0.405-0.228,0.617-0.293c0.212-0.065,0.47-0.097,0.773-0.097c0.806,0,1.432,0.243,1.879,0.728
		c0.446,0.485,0.682,1.235,0.709,2.249c0.008,0.087,0.013,0.351,0.013,0.793c0,0.451-0.005,0.719-0.013,0.806
		c-0.026,1.04-0.28,1.807-0.761,2.301C158.902,264.929,158.107,265.176,156.997,265.176 M194.788,265.163
		c-0.139,0-0.208-0.069-0.208-0.208v-0.325c0-0.147,0.091-0.255,0.273-0.325l0.533-0.208c0.667-0.26,1.176-0.62,1.528-1.079
		c0.351-0.459,0.527-1.144,0.527-2.054c0-0.65-0.078-1.161-0.234-1.534c-0.156-0.373-0.414-0.641-0.773-0.806
		c-0.36-0.165-0.852-0.247-1.475-0.247h-2.314l-0.208-0.078l-0.078-0.208v-0.182l0.078-0.208l0.208-0.078h2.379
		c0.806,0,1.441,0.111,1.904,0.331c0.464,0.221,0.797,0.578,1.001,1.072c0.204,0.494,0.306,1.17,0.306,2.028
		c0,1.118-0.253,1.972-0.76,2.561c-0.507,0.59-1.185,1.036-2.035,1.339l-0.546,0.195L194.788,265.163 M138.707,265.163
		c-0.139,0-0.208-0.069-0.208-0.208v-0.325c0-0.147,0.091-0.255,0.273-0.325l0.533-0.208c0.667-0.26,1.176-0.62,1.527-1.079
		c0.351-0.459,0.526-1.144,0.526-2.054c0-0.65-0.078-1.161-0.234-1.534c-0.156-0.373-0.414-0.641-0.773-0.806
		c-0.36-0.165-0.852-0.247-1.476-0.247h-0.442h-0.039l-1.014-0.013l-0.208-0.072l-0.078-0.201v-1.989l0.078-0.208l0.208-0.078h0.221
		l0.208,0.078l0.078,0.208v1.521h1.053c0.806,0,1.441,0.111,1.905,0.331c0.464,0.221,0.797,0.578,1.001,1.072
		c0.203,0.494,0.306,1.17,0.306,2.028c0,1.118-0.253,1.972-0.761,2.561c-0.507,0.59-1.185,1.036-2.034,1.339l-0.546,0.195
		L138.707,265.163 M80.678,265.113c-0.039,0-0.079-0.001-0.119-0.001h-0.871c-0.512,0-0.981-0.128-1.41-0.384
		c-0.429-0.255-0.769-0.622-1.021-1.099c-0.251-0.476-0.377-1.031-0.377-1.664v-4.056l0.078-0.208l0.208-0.078h0.221l0.208,0.078
		l0.078,0.208l0.052,3.887c0.884-0.06,1.504-0.279,1.859-0.656c0.355-0.377,0.533-0.865,0.533-1.462v-1.768l0.078-0.208l0.208-0.078
		h0.221l0.208,0.078l0.078,0.208v1.833c0,0.771-0.264,1.419-0.793,1.943c-0.529,0.525-1.309,0.813-2.34,0.865
		c0.095,0.572,0.346,1.014,0.754,1.326c0.407,0.312,0.914,0.468,1.521,0.468h0.455c0.029,0.001,0.057,0.001,0.086,0.001
		c0.834,0,1.477-0.25,1.929-0.748c0.468-0.516,0.702-1.211,0.702-2.087v-3.601l0.078-0.208l0.208-0.078h0.221l0.208,0.078
		l0.078,0.208v3.692c0,0.719-0.143,1.348-0.429,1.885c-0.286,0.537-0.689,0.947-1.209,1.229
		C81.889,264.98,81.322,265.113,80.678,265.113 M60.905,265.113c-0.039,0-0.079-0.001-0.119-0.001h-0.871
		c-0.511,0-0.981-0.128-1.41-0.384c-0.429-0.255-0.769-0.622-1.021-1.099c-0.251-0.476-0.377-1.031-0.377-1.664v-4.056l0.078-0.208
		l0.208-0.078h0.221l0.208,0.078l0.078,0.208l0.052,3.887c0.884-0.06,1.503-0.279,1.859-0.656c0.355-0.377,0.533-0.865,0.533-1.462
		v-1.768l0.078-0.208l0.208-0.078h0.221l0.208,0.078l0.078,0.208v1.833c0,0.771-0.264,1.419-0.793,1.943
		c-0.529,0.525-1.309,0.813-2.34,0.865c0.095,0.572,0.347,1.014,0.754,1.326c0.407,0.312,0.914,0.468,1.521,0.468h0.455
		c0.029,0.001,0.057,0.001,0.086,0.001c0.834,0,1.477-0.25,1.929-0.748c0.468-0.516,0.702-1.211,0.702-2.087v-3.601l0.078-0.208
		l0.208-0.078h0.221l0.208,0.078l0.078,0.208v3.692c0,0.719-0.143,1.348-0.429,1.885c-0.286,0.537-0.689,0.947-1.209,1.229
		C62.116,264.98,61.549,265.113,60.905,265.113 M270.681,265.046h-3.289l-0.208-0.078l-0.078-0.208v-0.182l0.078-0.208l0.208-0.078
		h2.782v-3.432c0-0.476-0.085-0.905-0.254-1.287c-0.169-0.381-0.403-0.676-0.702-0.884c-0.299-0.208-0.635-0.312-1.008-0.312h-1.508
		l-0.962,6.37l-0.111,0.214l-0.215,0.085h-0.234L265,264.962l-0.052-0.214l0.949-6.37h-0.585l-0.208-0.078l-0.078-0.208v-0.182
		l0.078-0.208l0.208-0.078h2.964c0.52,0,0.983,0.13,1.391,0.39c0.407,0.26,0.726,0.63,0.956,1.111
		c0.23,0.481,0.345,1.038,0.345,1.671v3.965l-0.078,0.208L270.681,265.046 M260.229,265.046h-1.911l-0.208-0.078l-0.078-0.208
		v-0.182l0.078-0.208l0.208-0.078h1.846c0.849,0,1.467-0.21,1.852-0.631c0.386-0.42,0.596-1.038,0.631-1.852
		c0.008-0.13,0.013-0.29,0.013-0.481c0-0.182-0.005-0.338-0.013-0.468c-0.026-0.815-0.234-1.432-0.624-1.853
		c-0.39-0.42-1.01-0.63-1.859-0.63h-1.846l-0.208-0.078l-0.078-0.208v-0.182l0.078-0.208l0.208-0.078h1.911
		c1.074,0,1.87,0.269,2.385,0.806c0.516,0.537,0.791,1.326,0.825,2.366c0.009,0.13,0.013,0.308,0.013,0.533
		c0,0.234-0.004,0.416-0.013,0.546c-0.035,1.04-0.31,1.829-0.825,2.366C262.098,264.778,261.303,265.046,260.229,265.046
		 M253.17,265.046h-3.224l-0.208-0.078l-0.078-0.208v-0.182l0.078-0.208l0.208-0.078h2.691l-0.247-3.562l-0.013-0.273
		c-0.035-0.52-0.078-0.914-0.13-1.183c-0.052-0.269-0.165-0.485-0.338-0.65c-0.173-0.165-0.438-0.247-0.793-0.247h-0.481
		l-0.208-0.078l-0.078-0.208v-0.182l0.078-0.208l0.208-0.078h0.481c0.581,0,1.012,0.126,1.294,0.377
		c0.282,0.251,0.468,0.576,0.559,0.975c0.091,0.399,0.163,0.962,0.215,1.69l0.273,4.095v0.039l-0.084,0.176L253.17,265.046
		 M244.967,265.046h-5.226l-0.208-0.078l-0.078-0.208v-6.851l0.078-0.208l0.208-0.078h2.301c1.083,0,1.889,0.271,2.418,0.812
		c0.529,0.542,0.793,1.328,0.793,2.36v3.965l-0.078,0.208L244.967,265.046 M240.235,258.377v5.915h4.225v-3.432
		c0-1.655-0.828-2.483-2.483-2.483H240.235 M231.005,265.046h-1.911l-0.208-0.078l-0.078-0.208v-0.182l0.078-0.208l0.208-0.078
		h1.846c0.849,0,1.467-0.21,1.853-0.631c0.386-0.42,0.596-1.038,0.63-1.852c0.009-0.13,0.013-0.29,0.013-0.481
		c0-0.182-0.005-0.338-0.013-0.468c-0.026-0.815-0.234-1.432-0.624-1.853c-0.39-0.42-1.01-0.63-1.859-0.63h-1.846l-0.208-0.078
		l-0.078-0.208v-0.182l0.078-0.208l0.208-0.078h1.911c1.075,0,1.87,0.269,2.385,0.806c0.516,0.537,0.791,1.326,0.826,2.366
		c0.008,0.13,0.013,0.308,0.013,0.533c0,0.234-0.005,0.416-0.013,0.546c-0.035,1.04-0.31,1.829-0.826,2.366
		C232.875,264.778,232.08,265.046,231.005,265.046 M216.536,265.046h-1.911l-0.208-0.078l-0.078-0.208v-0.182l0.078-0.208
		l0.208-0.078h1.846c0.849,0,1.467-0.21,1.853-0.631c0.386-0.42,0.596-1.038,0.63-1.852c0.009-0.13,0.013-0.29,0.013-0.481
		c0-0.182-0.005-0.338-0.013-0.468c-0.026-0.815-0.234-1.432-0.624-1.853c-0.39-0.42-1.01-0.63-1.859-0.63h-1.846l-0.208-0.078
		l-0.078-0.208v-0.182l0.078-0.208l0.208-0.078h1.911c1.075,0,1.87,0.269,2.385,0.806c0.516,0.537,0.791,1.326,0.826,2.366
		c0.008,0.13,0.013,0.308,0.013,0.533c0,0.234-0.005,0.416-0.013,0.546c-0.035,1.04-0.31,1.829-0.826,2.366
		C218.406,264.778,217.611,265.046,216.536,265.046 M209.153,265.046h-5.226l-0.208-0.078l-0.078-0.208v-6.851l0.078-0.208
		l0.208-0.078h2.301c1.083,0,1.889,0.271,2.418,0.812c0.529,0.542,0.793,1.328,0.793,2.36v3.965l-0.078,0.208L209.153,265.046
		 M204.421,258.377v5.915h4.225v-3.432c0-1.655-0.828-2.483-2.483-2.483H204.421 M182.178,265.046h-3.224l-0.208-0.078l-0.078-0.208
		v-0.182l0.078-0.208l0.208-0.078h2.691l-0.247-3.562l-0.013-0.273c-0.035-0.52-0.078-0.914-0.13-1.183
		c-0.052-0.269-0.165-0.485-0.338-0.65c-0.173-0.165-0.438-0.247-0.793-0.247h-0.481l-0.208-0.078l-0.078-0.208v-0.182l0.078-0.208
		l0.208-0.078h0.481c0.581,0,1.012,0.126,1.294,0.377c0.282,0.251,0.468,0.576,0.559,0.975s0.163,0.962,0.214,1.69l0.273,4.095
		v0.039l-0.084,0.176L182.178,265.046 M173.975,265.046h-5.226l-0.208-0.078l-0.078-0.208v-6.851l0.078-0.208l0.208-0.078h2.301
		c1.083,0,1.889,0.271,2.418,0.812c0.529,0.542,0.793,1.328,0.793,2.36v3.965l-0.078,0.208L173.975,265.046 M169.243,258.377v5.915
		h4.225v-3.432c0-1.655-0.828-2.483-2.483-2.483H169.243 M151.447,265.046h-0.221l-0.208-0.078l-0.078-0.208v-6.851l0.078-0.208
		l0.208-0.078h0.221l0.208,0.078l0.078,0.208v6.851l-0.078,0.208L151.447,265.046 M149.172,265.046h-5.2l-0.208-0.078l-0.078-0.208
		v-0.182l0.078-0.208l0.208-0.078h3.913v-3.432c0-1.655-0.828-2.483-2.483-2.483h-1.3l-0.208-0.078l-0.078-0.208v-0.182l0.078-0.208
		l0.208-0.078h1.365c1.083,0,1.889,0.273,2.418,0.819c0.529,0.546,0.793,1.33,0.793,2.353v3.497h0.494l0.208,0.078l0.078,0.208
		v0.182l-0.078,0.208L149.172,265.046 M132.116,265.046h-5.226l-0.208-0.078l-0.078-0.208v-6.851l0.078-0.208l0.208-0.078h2.301
		c1.083,0,1.889,0.271,2.418,0.812c0.529,0.542,0.793,1.328,0.793,2.36v3.965l-0.078,0.208L132.116,265.046 M127.384,258.377v5.915
		h4.225v-3.432c0-1.655-0.828-2.483-2.483-2.483H127.384 M121.703,265.046h-5.2l-0.208-0.078l-0.078-0.208v-0.182l0.078-0.208
		l0.208-0.078h3.913v-3.432c0-1.655-0.828-2.483-2.483-2.483h-1.3l-0.208-0.078l-0.078-0.208v-0.182l0.078-0.208l0.208-0.078h1.365
		c1.083,0,1.889,0.273,2.418,0.819c0.529,0.546,0.793,1.33,0.793,2.353v3.497h0.494l0.208,0.078l0.078,0.208v0.182l-0.078,0.208
		L121.703,265.046 M114.787,265.046h-5.2l-0.208-0.078l-0.078-0.208v-0.182l0.078-0.208l0.208-0.078h3.913v-3.432
		c0-1.655-0.828-2.483-2.483-2.483h-1.3l-0.208-0.078l-0.078-0.208v-0.182l0.078-0.208l0.208-0.078h1.365
		c1.083,0,1.889,0.273,2.418,0.819c0.529,0.546,0.793,1.33,0.793,2.353v3.497h0.494l0.208,0.078l0.078,0.208v0.182l-0.078,0.208
		L114.787,265.046 M104.621,265.046h-4.485l-0.208-0.078l-0.078-0.208v-0.182l0.078-0.208l0.208-0.078h3.705l-4.173-6.149
		c-0.069-0.104-0.104-0.19-0.104-0.26l0.084-0.182l0.188-0.078h0.234c0.13,0,0.238,0.069,0.325,0.208l2.496,3.627
		c0.849-0.321,1.274-1.083,1.274-2.288v-1.261l0.078-0.208l0.208-0.078h0.221l0.208,0.078l0.078,0.208v1.326
		c0,0.702-0.141,1.289-0.423,1.762c-0.282,0.472-0.695,0.821-1.242,1.046l1.469,2.145c0.095,0.139,0.143,0.269,0.143,0.39v0.182
		l-0.078,0.208L104.621,265.046 M97.835,265.046h-0.221l-0.208-0.078l-0.078-0.208v-3.9c0-1.655-0.828-2.483-2.483-2.483h-2.236
		l-0.208-0.078l-0.078-0.208v-0.182l0.078-0.208l0.208-0.078h2.301c1.083,0,1.889,0.271,2.418,0.812
		c0.529,0.542,0.793,1.328,0.793,2.36v3.965l-0.078,0.208L97.835,265.046 M92.83,265.046h-0.221l-0.208-0.078l-0.078-0.208v-4.563
		l0.078-0.208l0.208-0.078h0.221l0.208,0.078l0.078,0.208v4.563l-0.078,0.208L92.83,265.046 M86.5,265.046h-0.221l-0.208-0.078
		l-0.078-0.208v-6.851l0.078-0.208l0.208-0.078H86.5l0.208,0.078l0.078,0.208v6.851l-0.078,0.208L86.5,265.046 M74.54,265.046
		h-0.221l-0.208-0.078l-0.078-0.208v-6.851l0.078-0.208l0.208-0.078h0.221l0.208,0.078l0.078,0.208v6.851l-0.078,0.208
		L74.54,265.046 M71.641,265.046h-3.289l-0.208-0.078l-0.078-0.208v-0.182l0.078-0.208l0.208-0.078h2.782v-3.432
		c0-0.476-0.085-0.905-0.253-1.287c-0.169-0.381-0.403-0.676-0.702-0.884c-0.299-0.208-0.635-0.312-1.008-0.312h-1.508l-0.962,6.37
		l-0.11,0.214l-0.214,0.085h-0.234l-0.182-0.085l-0.052-0.214l0.949-6.37h-0.585l-0.208-0.078l-0.078-0.208v-0.182l0.078-0.208
		l0.208-0.078h2.964c0.52,0,0.983,0.13,1.391,0.39c0.407,0.26,0.726,0.63,0.956,1.111c0.229,0.481,0.344,1.038,0.344,1.671v3.965
		l-0.078,0.208L71.641,265.046 M54.767,265.046h-0.221l-0.208-0.078l-0.078-0.208v-6.851l0.078-0.208l0.208-0.078h0.221l0.208,0.078
		l0.078,0.208v6.851l-0.078,0.208L54.767,265.046 M51.868,265.046h-5.226l-0.208-0.078l-0.078-0.208v-6.851l0.078-0.208l0.208-0.078
		h2.301c1.083,0,1.889,0.271,2.418,0.812c0.529,0.542,0.793,1.328,0.793,2.36v3.965l-0.078,0.208L51.868,265.046 M47.136,258.377
		v5.915h4.225v-3.432c0-1.655-0.828-2.483-2.483-2.483H47.136 M40.532,265.046h-0.221l-0.208-0.078l-0.078-0.208v-6.851l0.078-0.208
		l0.208-0.078h0.221l0.208,0.078l0.078,0.208v6.851l-0.078,0.208L40.532,265.046 M37.945,265.046h-0.247l-0.176-0.045l-0.15-0.15
		l-3.211-4.472c-0.425,0.304-0.713,0.655-0.865,1.053c-0.152,0.399-0.227,0.841-0.227,1.326v2.002l-0.078,0.208l-0.208,0.078h-0.221
		l-0.208-0.078l-0.078-0.208v-2.067c0-0.615,0.098-1.164,0.293-1.645c0.195-0.481,0.579-0.908,1.151-1.28l-1.157-1.625
		c-0.069-0.104-0.104-0.19-0.104-0.26l0.078-0.182l0.182-0.078h0.247c0.121,0,0.23,0.065,0.325,0.195l2.938,4.095
		c0.364-0.199,0.628-0.405,0.793-0.617c0.165-0.212,0.267-0.427,0.306-0.644c0.039-0.216,0.058-0.507,0.058-0.871v-1.872
		l0.078-0.208l0.208-0.078h0.221l0.208,0.078l0.078,0.208v1.937c0,0.399-0.035,0.743-0.104,1.033
		c-0.069,0.29-0.214,0.572-0.436,0.845c-0.221,0.273-0.548,0.535-0.981,0.786l1.443,2.015c0.069,0.104,0.104,0.191,0.104,0.26
		l-0.078,0.182L37.945,265.046 M30.172,265.046h-0.221l-0.208-0.078l-0.078-0.208v-6.851l0.078-0.208l0.208-0.078h0.221l0.208,0.078
		l0.078,0.208v6.851l-0.078,0.208L30.172,265.046 M24.985,265.046h-2.158l-0.208-0.078l-0.078-0.208v-0.182l0.078-0.208l0.208-0.078
		h2.093c0.659,0,1.159-0.215,1.502-0.644c0.342-0.429,0.531-1.042,0.565-1.839c0.009-0.087,0.013-0.247,0.013-0.481
		c0-0.225-0.004-0.381-0.013-0.468c-0.017-0.788-0.201-1.399-0.552-1.833c-0.351-0.433-0.856-0.65-1.515-0.65h-1.768v1.235
		c0,0.407,0.043,0.726,0.13,0.956c0.087,0.23,0.238,0.37,0.455,0.422l0.533,0.13c0.147,0.043,0.221,0.182,0.221,0.416v0.182
		l-0.085,0.156l-0.214,0.052l-0.104-0.013l-0.494-0.117c-0.416-0.095-0.724-0.32-0.923-0.676c-0.199-0.355-0.299-0.858-0.299-1.508
		v-1.703l0.078-0.208l0.208-0.078h2.327c0.892,0,1.575,0.275,2.047,0.825c0.472,0.55,0.722,1.332,0.747,2.346
		c0.009,0.087,0.013,0.264,0.013,0.533c0,0.277-0.004,0.459-0.013,0.546c-0.026,1.014-0.275,1.796-0.747,2.347
		C26.56,264.771,25.877,265.046,24.985,265.046 M17.185,265.046h-5.226l-0.208-0.078l-0.078-0.208v-6.851l0.078-0.208l0.208-0.078
		h2.301c1.083,0,1.889,0.271,2.418,0.812c0.529,0.542,0.793,1.328,0.793,2.36v3.965l-0.078,0.208L17.185,265.046 M12.453,258.377
		v5.915h4.225v-3.432c0-1.655-0.828-2.483-2.483-2.483H12.453 M255.64,262.056h-0.221l-0.208-0.078l-0.078-0.208v-3.861l0.078-0.208
		l0.208-0.078h0.221l0.208,0.078l0.078,0.208v3.861l-0.078,0.208L255.64,262.056 M247.762,262.056h-0.221l-0.208-0.078l-0.078-0.208
		v-3.861l0.078-0.208l0.208-0.078h0.221l0.208,0.078l0.078,0.208v3.861l-0.078,0.208L247.762,262.056 M211.947,262.056h-0.221
		l-0.208-0.078l-0.078-0.208v-3.861l0.078-0.208l0.208-0.078h0.221l0.208,0.078l0.078,0.208v3.861l-0.078,0.208L211.947,262.056
		 M176.77,262.056h-0.221l-0.208-0.078l-0.078-0.208v-3.861l0.078-0.208l0.208-0.078h0.221l0.208,0.078l0.078,0.208v3.861
		l-0.078,0.208L176.77,262.056 M134.911,262.056h-0.221l-0.208-0.078l-0.078-0.208v-3.861l0.078-0.208l0.208-0.078h0.221
		l0.208,0.078l0.078,0.208v3.861l-0.078,0.208L134.911,262.056 M107.273,262.056h-0.221l-0.208-0.078l-0.078-0.208v-3.861
		l0.078-0.208l0.208-0.078h0.221l0.208,0.078l0.078,0.208v3.861l-0.078,0.208L107.273,262.056 M19.98,262.056h-0.221l-0.208-0.078
		l-0.078-0.208v-3.861l0.078-0.208l0.208-0.078h0.221l0.208,0.078l0.078,0.208v3.861l-0.078,0.208L19.98,262.056"/>
	<path fill="#000000" d="M228.535,284.429h-0.221l-0.208-0.078l-0.078-0.208v-7.046l0.078-0.208l0.208-0.078h0.221l0.208,0.078
		l0.078,0.208v7.046l-0.078,0.208L228.535,284.429 M230.459,282.063c-0.139,0-0.208-0.069-0.208-0.208v-0.325
		c0-0.147,0.091-0.255,0.273-0.325l0.533-0.208c0.667-0.26,1.176-0.62,1.527-1.079c0.351-0.459,0.527-1.144,0.527-2.054
		c0-0.65-0.078-1.161-0.234-1.534c-0.156-0.373-0.414-0.641-0.774-0.806c-0.36-0.165-0.851-0.247-1.475-0.247h-2.314l-0.208-0.078
		l-0.078-0.208v-0.182l0.078-0.208l0.208-0.078h2.379c0.806,0,1.441,0.11,1.904,0.331c0.464,0.221,0.797,0.578,1.001,1.072
		c0.204,0.494,0.306,1.17,0.306,2.028c0,1.118-0.253,1.972-0.76,2.561c-0.507,0.59-1.185,1.036-2.034,1.339l-0.546,0.195
		L230.459,282.063 M239.611,281.946h-0.221l-0.208-0.078l-0.078-0.208v-4.914c0-0.338,0.033-0.637,0.098-0.897
		c0.065-0.26,0.15-0.451,0.253-0.572h-3.783l-0.208-0.078l-0.078-0.208v-0.182l0.078-0.208l0.208-0.078h5.486l0.208,0.078
		l0.078,0.208v0.182l-0.078,0.208l-0.208,0.078h-0.832c-0.139,0.121-0.245,0.319-0.318,0.592c-0.074,0.273-0.111,0.587-0.111,0.943
		v4.849l-0.078,0.208L239.611,281.946 M225.558,281.946h-0.221l-0.208-0.078l-0.078-0.208v-6.851l0.078-0.208l0.208-0.078h0.221
		l0.208,0.078l0.078,0.208v6.851l-0.078,0.208L225.558,281.946 M222.66,281.946h-0.221l-0.208-0.078l-0.078-0.208v-3.9
		c0-1.655-0.828-2.483-2.483-2.483h-0.988c-0.087,0.624-0.15,1.127-0.189,1.508c-0.039,0.382-0.054,0.815-0.045,1.3v3.575
		l-0.078,0.208l-0.208,0.078l-1.482-0.026l-0.208-0.078l-0.078-0.208v-0.182l0.078-0.208l0.208-0.078l0.975,0.013v-3.029v-0.403
		c0-0.476,0.017-0.895,0.052-1.254c0.035-0.36,0.1-0.765,0.195-1.216h-0.663l-0.208-0.078l-0.078-0.208v-0.182l0.078-0.208
		l0.208-0.078h2.496c1.083,0,1.889,0.271,2.418,0.813c0.529,0.542,0.793,1.328,0.793,2.359v3.965l-0.078,0.208L222.66,281.946"/>
	<path fill="#000000" d="M256.069,282.076c-0.607,0-1.133-0.115-1.58-0.344c-0.447-0.23-0.789-0.527-1.027-0.891
		c-0.239-0.364-0.366-0.754-0.384-1.17v-0.026l0.071-0.163l0.188-0.058h0.247l0.208,0.058c0.052,0.039,0.091,0.119,0.117,0.241
		c0.13,0.529,0.394,0.923,0.793,1.183c0.398,0.26,0.853,0.39,1.365,0.39c0.667,0,1.22-0.199,1.658-0.598
		c0.438-0.399,0.657-0.953,0.657-1.664c0-0.433-0.102-0.81-0.306-1.131c-0.204-0.32-0.483-0.567-0.839-0.741
		c-0.355-0.173-0.745-0.26-1.17-0.26c-0.347,0-0.626,0.045-0.838,0.137c-0.213,0.091-0.427,0.214-0.644,0.37
		c-0.13,0.096-0.236,0.165-0.319,0.208c-0.082,0.043-0.171,0.065-0.266,0.065h-0.234l-0.208-0.085l-0.078-0.201l0.39-4.251
		c0.009-0.095,0.037-0.169,0.085-0.221l0.201-0.078h4.238l0.208,0.078l0.078,0.208v0.208l-0.078,0.208l-0.208,0.078h-3.731
		l-0.273,2.938c0.459-0.295,1.018-0.442,1.677-0.442c0.589,0,1.12,0.113,1.592,0.338c0.472,0.225,0.847,0.557,1.124,0.995
		c0.277,0.438,0.416,0.964,0.416,1.579c0,0.65-0.139,1.205-0.416,1.664c-0.277,0.459-0.652,0.804-1.124,1.034
		C257.189,281.961,256.658,282.076,256.069,282.076 M251.441,281.946h-5.33l-0.208-0.078l-0.078-0.208v-0.195
		c0-0.173,0.108-0.355,0.325-0.546l3.367-3.367c0.476-0.442,0.797-0.815,0.962-1.118c0.165-0.303,0.247-0.663,0.247-1.079
		c0-0.581-0.167-1.036-0.501-1.365c-0.334-0.329-0.808-0.494-1.423-0.494c-0.581,0-1.044,0.169-1.391,0.507
		c-0.347,0.338-0.555,0.793-0.624,1.365c-0.009,0.096-0.045,0.169-0.11,0.221l-0.188,0.078h-0.26l-0.201-0.072l-0.071-0.176
		c0.017-0.424,0.13-0.845,0.338-1.261c0.208-0.416,0.524-0.761,0.949-1.034c0.424-0.273,0.945-0.409,1.56-0.409
		c0.927,0,1.616,0.251,2.067,0.754c0.451,0.503,0.676,1.131,0.676,1.885c0,0.52-0.113,0.988-0.338,1.404
		c-0.226,0.416-0.585,0.854-1.079,1.313l-3.042,3.094h4.355c0.095,0,0.169,0.026,0.221,0.078c0.052,0.052,0.078,0.126,0.078,0.221
		v0.195l-0.085,0.208L251.441,281.946"/>
	<path fill="#000000" d="M267.977,281.946h-1.911l-0.208-0.078l-0.078-0.208v-0.182l0.078-0.208l0.208-0.078h1.846
		c0.849,0,1.467-0.21,1.852-0.631c0.386-0.42,0.596-1.038,0.631-1.852c0.008-0.13,0.013-0.29,0.013-0.481
		c0-0.182-0.005-0.338-0.013-0.468c-0.026-0.815-0.234-1.432-0.624-1.852c-0.39-0.42-1.01-0.631-1.859-0.631h-1.846l-0.208-0.078
		l-0.078-0.208v-0.182l0.078-0.208l0.208-0.078h1.911c1.074,0,1.87,0.269,2.385,0.806c0.516,0.537,0.791,1.326,0.826,2.366
		c0.009,0.13,0.013,0.308,0.013,0.533c0,0.234-0.004,0.416-0.013,0.546c-0.035,1.04-0.31,1.829-0.826,2.366
		C269.847,281.678,269.051,281.946,267.977,281.946 M263.596,275.277h-2.665l-0.208-0.078l-0.078-0.208v-0.182l0.078-0.208
		l0.208-0.078h2.665l0.208,0.078l0.078,0.208v0.182l-0.078,0.208L263.596,275.277"/>
</g>
</svg>
