<!-- Generator: Adobe InDesign 14.0 SVG Export Plug-in, SVG Library version: 6.0 build 234 -->
<!DOCTYPE svg PUBLIC "-//W3C//DTD SVG 1.1//EN" "http://www.w3.org/Graphics/SVG/1.1/DTD/svg11.dtd">
<svg version="1.1" xmlns="http://www.w3.org/2000/svg" xmlns:xlink="http://www.w3.org/1999/xlink" x="0%" y="0%" width="100%"
	 height="100%" viewBox="0 0 313.376 534.346" preserveAspectRatio="xMidYMid slice" overflow="visible" xml:space="preserve">
<clipPath id="clp_unq_id_1" fill="none">
	<path shape-rendering="crispEdges" stroke="#000000" d="M0,0h313.376v534.346H0V0"/>
</clipPath>
<g clip-path="url(#clp_unq_id_1)" fill="none">
	<path fill="#923A7F" d="M142.627,12.016h-4.392h-2.568v13.488h0.6h7.872h2.568v-9c0-1.552-0.36-2.688-1.08-3.408
		S143.907,12.016,142.627,12.016z M138.235,23.536v-9.552h3.744c0.704,0,1.24,0.188,1.608,0.564
		c0.368,0.376,0.552,0.988,0.552,1.836v7.152H138.235z M149.827,20.464l2.544-0.48l0.024-1.512v-3.648l-0.312-2.808h-2.544
		l0.288,2.808V20.464z M161.347,25.504h2.568v-9c0-1.552-0.36-2.688-1.08-3.408c-0.72-0.72-1.72-1.08-3-1.08h-5.088v1.968h4.44
		c0.704,0,1.24,0.188,1.608,0.564c0.368,0.376,0.552,0.988,0.552,1.836V25.504z M167.107,25.504h2.568v-10.68l-0.312-2.808h-2.544
		l0.288,2.808V25.504z M178.627,25.504h2.568v-9c0-1.552-0.36-2.688-1.08-3.408c-0.72-0.72-1.72-1.08-3-1.08h-5.088v1.968h4.44
		c0.704,0,1.24,0.188,1.608,0.564c0.368,0.376,0.552,0.988,0.552,1.836V25.504z M184.387,20.464l2.544-0.48l0.024-1.512v-3.648
		l-0.312-2.808h-2.544l0.288,2.808V20.464z M190.05,25.504h4.872c1.696,0,3.056-0.512,4.08-1.536
		c1.024-1.024,1.536-2.536,1.536-4.536V18.04c0-1.904-0.448-3.384-1.344-4.44c-0.896-1.056-2.144-1.584-3.744-1.584h-4.584
		l-0.936,4.128c-0.08,0.384-0.12,0.808-0.12,1.272c0,0.976,0.284,1.74,0.852,2.292c0.568,0.552,1.476,0.868,2.724,0.948L193.842,19
		c-0.624-0.128-1.072-0.324-1.344-0.588c-0.272-0.264-0.408-0.636-0.408-1.116c0-0.256,0.04-0.568,0.12-0.936l0.528-2.376h2.16
		c1.024,0,1.792,0.344,2.304,1.032c0.512,0.688,0.768,1.664,0.768,2.928v1.608c0,1.344-0.32,2.344-0.96,3
		c-0.64,0.656-1.512,0.984-2.616,0.984h-4.344V25.504z M207.138,25.888c1.648-0.16,2.84-0.6,3.576-1.32
		c0.736-0.72,1.104-1.872,1.104-3.456v-7.128h3.264c0.704,0,1.24,0.188,1.608,0.564c0.368,0.376,0.552,0.988,0.552,1.836v9.12h2.568
		v-9c0-1.552-0.36-2.688-1.08-3.408c-0.72-0.72-1.72-1.08-3-1.08h-6.48V21.4c0,0.896-0.16,1.544-0.48,1.944
		c-0.32,0.4-0.944,0.648-1.872,0.744L207.138,25.888z M222.93,25.504h2.568v-10.68l-0.312-2.808h-2.544l0.288,2.808V25.504z
		 M228.69,20.464l2.544-0.48l0.024-1.512v-3.648l-0.312-2.808h-2.544l0.288,2.808V20.464z M233.681,25.504h4.08
		c1.712,0,3.028-0.528,3.948-1.584c0.92-1.056,1.38-2.544,1.38-4.464v-1.392c0-1.92-0.46-3.408-1.38-4.464
		c-0.92-1.056-2.236-1.584-3.948-1.584h-4.08v1.968h3.456c1.136,0,1.984,0.344,2.544,1.032c0.56,0.688,0.84,1.664,0.84,2.928v1.632
		c0,1.264-0.28,2.24-0.84,2.928c-0.56,0.688-1.408,1.032-2.544,1.032h-3.456V25.504z M245.921,25.504h2.568v-10.68l-0.312-2.808
		h-2.544l0.288,2.808V25.504z M250.721,25.888c1.648-0.16,2.84-0.6,3.576-1.32c0.736-0.72,1.104-1.872,1.104-3.456v-7.128h3.264
		c0.704,0,1.24,0.188,1.608,0.564c0.368,0.376,0.552,0.988,0.552,1.836v9.12h2.568v-9c0-1.552-0.36-2.688-1.08-3.408
		c-0.72-0.72-1.72-1.08-3-1.08h-6.48V21.4c0,0.896-0.16,1.544-0.48,1.944c-0.32,0.4-0.944,0.648-1.872,0.744L250.721,25.888z
		 M266.513,20.464l2.544-0.48l0.024-1.512v-3.648l-0.312-2.808h-2.544l0.288,2.808V20.464z M278.921,12.016h-6.912v1.032v12.456
		h2.568v-11.52h3.696c1.44,0,2.16,0.88,2.16,2.64v8.88h2.568v-8.76c0-1.584-0.356-2.768-1.068-3.552
		C281.221,12.408,280.217,12.016,278.921,12.016z"/>
	<path fill="#923A7F" d="M126.667,46.912l-0.024-3.696h-2.568l0.048,3.816c0.016,2.432-0.548,4.288-1.692,5.568
		c-1.144,1.28-2.924,2-5.34,2.16l-0.384-3.264c1.632-0.656,2.784-1.516,3.456-2.58c0.672-1.064,1.024-2.476,1.056-4.236l0.024-1.44
		h-2.448v1.488c-0.032,1.408-0.208,2.464-0.528,3.168c-0.32,0.704-0.92,1.272-1.8,1.704l-0.768-6.384h-2.448l1.752,13.728
		c3.968,0.032,6.912-0.788,8.832-2.46C125.755,52.812,126.699,50.288,126.667,46.912z M141.643,49.912
		c0-2.368-0.448-4.108-1.344-5.22c-0.896-1.112-2.144-1.668-3.744-1.668c-0.88,0-1.664,0.252-2.352,0.756
		c-0.688,0.504-1.2,1.26-1.536,2.268l-1.08-2.832h-2.664l1.872,4.2l-1.728,9.288h2.568l1.608-9.192
		c0.16-0.736,0.484-1.324,0.972-1.764c0.488-0.44,1.116-0.66,1.884-0.66c0.992,0,1.756,0.38,2.292,1.14
		c0.536,0.76,0.804,2.012,0.804,3.756c0,1.632-0.28,2.872-0.84,3.72c-0.56,0.848-1.448,1.272-2.664,1.272
		c-0.432,0-0.952-0.064-1.56-0.192l-0.264,1.968c0.704,0.16,1.392,0.24,2.064,0.24c1.824,0,3.232-0.62,4.224-1.86
		C141.147,53.892,141.643,52.152,141.643,49.912z M157.219,46.912l-0.024-3.696h-2.568l0.048,3.816
		c0.016,2.432-0.548,4.288-1.692,5.568c-1.144,1.28-2.924,2-5.34,2.16l-0.384-3.264c1.632-0.656,2.784-1.516,3.456-2.58
		c0.672-1.064,1.024-2.476,1.056-4.236l0.024-1.44h-2.448v1.488c-0.032,1.408-0.208,2.464-0.528,3.168
		c-0.32,0.704-0.92,1.272-1.8,1.704l-0.768-6.384h-2.448l1.752,13.728c3.968,0.032,6.912-0.788,8.832-2.46
		C156.307,52.812,157.251,50.288,157.219,46.912z M172.195,49.912c0-2.368-0.448-4.108-1.344-5.22
		c-0.896-1.112-2.144-1.668-3.744-1.668c-0.88,0-1.664,0.252-2.352,0.756c-0.688,0.504-1.2,1.26-1.536,2.268l-1.08-2.832h-2.664
		l1.872,4.2l-1.728,9.288h2.568l1.608-9.192c0.16-0.736,0.484-1.324,0.972-1.764c0.488-0.44,1.116-0.66,1.884-0.66
		c0.992,0,1.756,0.38,2.292,1.14c0.536,0.76,0.804,2.012,0.804,3.756c0,1.632-0.28,2.872-0.84,3.72
		c-0.56,0.848-1.448,1.272-2.664,1.272c-0.432,0-0.952-0.064-1.56-0.192l-0.264,1.968c0.704,0.16,1.392,0.24,2.064,0.24
		c1.824,0,3.232-0.62,4.224-1.86C171.699,53.892,172.195,52.152,172.195,49.912z M178.794,57.088c1.648-0.16,2.84-0.6,3.576-1.32
		c0.736-0.72,1.104-1.872,1.104-3.456v-7.128h3.264c0.704,0,1.24,0.188,1.608,0.564c0.368,0.376,0.552,0.988,0.552,1.836v9.12h2.568
		v-9c0-1.552-0.36-2.688-1.08-3.408c-0.72-0.72-1.72-1.08-3-1.08h-6.48V52.6c0,0.896-0.16,1.544-0.48,1.944
		c-0.32,0.4-0.944,0.648-1.872,0.744L178.794,57.088z M203.226,54.736v-7.032c0-1.552-0.36-2.688-1.08-3.408
		c-0.72-0.72-1.72-1.08-3-1.08h-5.16v1.968h4.512c0.704,0,1.24,0.188,1.608,0.564c0.368,0.376,0.552,0.988,0.552,1.836v7.152h-6.672
		v1.968h6.672h4.224v-1.968H203.226z M207.402,51.664l2.544-0.48l0.024-1.512v-3.648l-0.312-2.808h-2.544l0.288,2.808V51.664z
		 M218.922,56.704h2.568v-9c0-1.552-0.36-2.688-1.08-3.408s-1.72-1.08-3-1.08h-5.088v1.968h4.44c0.704,0,1.24,0.188,1.608,0.564
		c0.368,0.376,0.552,0.988,0.552,1.836V56.704z M229.482,51.664l2.544-0.48l0.024-1.512v-3.648l-0.312-2.808h-2.544l0.288,2.808
		V51.664z M235.242,56.704h2.568v-10.68l-0.312-2.808h-2.544l0.288,2.808V56.704z M242.561,43.216v-3.72h-2.328v5.688h7.224
		l-4.488,11.52h2.568l4.488-11.352v-2.136H242.561z M252.665,51.664l2.544-0.48l0.024-1.512v-3.648l-0.312-2.808h-2.544l0.288,2.808
		V51.664z M270.569,49.912c0-2.368-0.448-4.108-1.344-5.22c-0.896-1.112-2.144-1.668-3.744-1.668c-0.88,0-1.664,0.252-2.352,0.756
		c-0.688,0.504-1.2,1.26-1.536,2.268l-1.08-2.832h-2.664l1.872,4.2l-1.728,9.288h2.568l1.608-9.192
		c0.16-0.736,0.484-1.324,0.972-1.764c0.488-0.44,1.116-0.66,1.884-0.66c0.992,0,1.756,0.38,2.292,1.14
		c0.536,0.76,0.804,2.012,0.804,3.756c0,1.632-0.28,2.872-0.84,3.72c-0.56,0.848-1.448,1.272-2.664,1.272
		c-0.432,0-0.952-0.064-1.56-0.192l-0.264,1.968c0.704,0.16,1.392,0.24,2.064,0.24c1.824,0,3.232-0.62,4.224-1.86
		C270.073,53.892,270.569,52.152,270.569,49.912z M281.969,54.736v-7.032c0-1.552-0.36-2.688-1.08-3.408
		c-0.72-0.72-1.72-1.08-3-1.08h-5.16v1.968h4.512c0.704,0,1.24,0.188,1.608,0.564c0.368,0.376,0.552,0.988,0.552,1.836v7.152h-6.672
		v1.968h6.672h4.224v-1.968H281.969z"/>
	<path fill="#000000" d="M280.331,87.907c-1.031,0-1.803-0.275-2.314-0.825c-0.511-0.55-0.767-1.354-0.767-2.412v-4.03l0.078-0.208
		l0.208-0.078h3.055c1.075,0,1.846,0.247,2.314,0.741c0.468,0.494,0.724,1.261,0.767,2.301c0.009,0.087,0.013,0.329,0.013,0.728
		c0,0.407-0.004,0.654-0.013,0.741c-0.026,1.031-0.304,1.796-0.832,2.295C282.311,87.658,281.475,87.907,280.331,87.907
		 M278.043,81.108v3.562c0,0.798,0.19,1.411,0.572,1.84c0.381,0.429,0.953,0.643,1.716,0.643c0.893,0,1.536-0.193,1.931-0.578
		c0.394-0.386,0.6-0.977,0.617-1.775c0.009-0.087,0.013-0.312,0.013-0.676c0-0.355-0.004-0.576-0.013-0.663
		c-0.018-0.762-0.238-1.345-0.663-1.748c-0.425-0.403-0.988-0.604-1.69-0.604H278.043 M275.56,87.777h-5.2l-0.208-0.078
		l-0.078-0.208v-0.182l0.078-0.208l0.208-0.078h3.913v-3.432c0-1.655-0.828-2.483-2.483-2.483h-1.3l-0.208-0.078l-0.078-0.208V80.64
		l0.078-0.208l0.208-0.078h1.365c1.083,0,1.889,0.273,2.418,0.819c0.529,0.546,0.793,1.33,0.793,2.353v3.497h0.494l0.208,0.078
		l0.078,0.208v0.182l-0.078,0.208L275.56,87.777 M268.02,87.777h-0.221l-0.208-0.078l-0.078-0.208v-3.9
		c0-1.655-0.828-2.483-2.483-2.483h-0.988c-0.087,0.624-0.15,1.127-0.189,1.508c-0.039,0.382-0.054,0.815-0.045,1.3v3.575
		l-0.078,0.208l-0.208,0.078l-1.482-0.026l-0.208-0.078l-0.078-0.208v-0.182l0.078-0.208l0.208-0.078l0.975,0.013v-3.029v-0.403
		c0-0.476,0.017-0.895,0.052-1.254c0.035-0.36,0.1-0.765,0.195-1.216h-0.663l-0.208-0.078l-0.078-0.208V80.64l0.078-0.208
		l0.208-0.078h2.496c1.083,0,1.889,0.271,2.418,0.813c0.529,0.542,0.793,1.328,0.793,2.359v3.965l-0.078,0.208L268.02,87.777
		 M260.025,87.777h-0.247l-0.176-0.045l-0.15-0.15l-3.211-4.472c-0.425,0.304-0.713,0.655-0.864,1.053
		c-0.152,0.399-0.228,0.841-0.228,1.326v2.002l-0.078,0.208l-0.208,0.078h-0.221l-0.208-0.078l-0.078-0.208v-2.067
		c0-0.615,0.098-1.164,0.292-1.645c0.195-0.481,0.579-0.908,1.151-1.28l-1.157-1.625c-0.07-0.104-0.104-0.19-0.104-0.26l0.078-0.182
		l0.182-0.078h0.247c0.121,0,0.23,0.065,0.325,0.195l2.938,4.095c0.364-0.199,0.628-0.405,0.793-0.617
		c0.165-0.212,0.267-0.427,0.306-0.644c0.039-0.217,0.059-0.507,0.059-0.871V80.64l0.078-0.208l0.208-0.078h0.221l0.208,0.078
		l0.078,0.208v1.937c0,0.399-0.035,0.743-0.104,1.033c-0.069,0.29-0.214,0.572-0.435,0.845s-0.548,0.535-0.982,0.786l1.443,2.015
		c0.069,0.104,0.104,0.191,0.104,0.26l-0.078,0.182L260.025,87.777 M246.128,87.777h-0.221l-0.208-0.078l-0.078-0.208V80.64
		l0.078-0.208l0.208-0.078h0.221l0.208,0.078l0.078,0.208v6.851l-0.078,0.208L246.128,87.777 M240.525,87.777h-1.911l-0.208-0.078
		l-0.078-0.208v-0.182l0.078-0.208l0.208-0.078h1.846c0.849,0,1.467-0.21,1.852-0.631c0.386-0.42,0.596-1.038,0.631-1.852
		c0.009-0.13,0.013-0.29,0.013-0.481c0-0.182-0.004-0.338-0.013-0.468c-0.026-0.815-0.234-1.432-0.624-1.852
		c-0.39-0.42-1.01-0.631-1.859-0.631h-1.846l-0.208-0.078l-0.078-0.208V80.64l0.078-0.208l0.208-0.078h1.911
		c1.074,0,1.87,0.269,2.385,0.806c0.516,0.537,0.791,1.326,0.825,2.366c0.009,0.13,0.013,0.308,0.013,0.533
		c0,0.234-0.004,0.416-0.013,0.546c-0.035,1.04-0.31,1.829-0.825,2.366C242.395,87.509,241.6,87.777,240.525,87.777 M236.534,87.777
		h-5.2l-0.208-0.078l-0.078-0.208v-0.182l0.078-0.208l0.208-0.078h3.913v-3.432c0-1.655-0.828-2.483-2.483-2.483h-1.3l-0.208-0.078
		l-0.078-0.208V80.64l0.078-0.208l0.208-0.078h1.365c1.083,0,1.889,0.273,2.418,0.819c0.529,0.546,0.793,1.33,0.793,2.353v3.497
		h0.494l0.208,0.078l0.078,0.208v0.182l-0.078,0.208L236.534,87.777 M227.811,87.777h-0.221l-0.208-0.078l-0.078-0.208v-4.914
		c0-0.338,0.033-0.637,0.098-0.897c0.065-0.26,0.149-0.451,0.253-0.572h-3.783l-0.208-0.078l-0.078-0.208V80.64l0.078-0.208
		l0.208-0.078h5.486l0.208,0.078l0.078,0.208v0.182l-0.078,0.208l-0.208,0.078h-0.832c-0.139,0.121-0.245,0.318-0.318,0.592
		c-0.074,0.273-0.11,0.587-0.11,0.943v4.849l-0.078,0.208L227.811,87.777 M218.737,87.777h-0.221l-0.208-0.078l-0.078-0.208v-3.9
		c0-1.655-0.828-2.483-2.483-2.483h-2.236l-0.208-0.078l-0.078-0.208V80.64l0.078-0.208l0.208-0.078h2.301
		c1.083,0,1.889,0.271,2.418,0.813c0.529,0.542,0.793,1.328,0.793,2.359v3.965l-0.078,0.208L218.737,87.777 M213.732,87.777h-0.221
		l-0.208-0.078l-0.078-0.208v-4.563l0.078-0.208l0.208-0.078h0.221l0.208,0.078l0.078,0.208v4.563l-0.078,0.208L213.732,87.777
		 M208.13,87.777h-1.911l-0.208-0.078l-0.078-0.208v-0.182l0.078-0.208l0.208-0.078h1.846c0.849,0,1.467-0.21,1.853-0.631
		c0.386-0.42,0.596-1.038,0.63-1.852c0.009-0.13,0.013-0.29,0.013-0.481c0-0.182-0.004-0.338-0.013-0.468
		c-0.026-0.815-0.234-1.432-0.624-1.852c-0.39-0.42-1.01-0.631-1.859-0.631h-1.846l-0.208-0.078l-0.078-0.208V80.64l0.078-0.208
		l0.208-0.078h1.911c1.075,0,1.87,0.269,2.385,0.806c0.516,0.537,0.791,1.326,0.825,2.366c0.009,0.13,0.013,0.308,0.013,0.533
		c0,0.234-0.004,0.416-0.013,0.546c-0.035,1.04-0.31,1.829-0.825,2.366C209.999,87.509,209.204,87.777,208.13,87.777
		 M201.071,87.777h-3.224l-0.208-0.078l-0.078-0.208v-0.182l0.078-0.208l0.208-0.078h2.691l-0.247-3.562l-0.013-0.273
		c-0.035-0.52-0.078-0.914-0.13-1.183c-0.052-0.269-0.165-0.485-0.338-0.65c-0.173-0.165-0.438-0.247-0.793-0.247h-0.481
		l-0.208-0.078l-0.078-0.208V80.64l0.078-0.208l0.208-0.078h0.481c0.58,0,1.012,0.126,1.293,0.377
		c0.282,0.251,0.468,0.576,0.559,0.975c0.091,0.399,0.163,0.962,0.215,1.69l0.273,4.095v0.039l-0.085,0.176L201.071,87.777
		 M195.637,87.777h-0.221l-0.208-0.078l-0.078-0.208v-3.9c0-1.655-0.828-2.483-2.483-2.483h-2.236l-0.208-0.078l-0.078-0.208V80.64
		l0.078-0.208l0.208-0.078h2.301c1.083,0,1.889,0.271,2.418,0.813c0.529,0.542,0.793,1.328,0.793,2.359v3.965l-0.078,0.208
		L195.637,87.777 M190.632,87.777h-0.221l-0.208-0.078l-0.078-0.208v-4.563l0.078-0.208l0.208-0.078h0.221l0.208,0.078l0.078,0.208
		v4.563l-0.078,0.208L190.632,87.777 M184.691,87.777h-0.247l-0.176-0.045l-0.15-0.15l-3.211-4.472
		c-0.425,0.304-0.713,0.655-0.865,1.053c-0.152,0.399-0.227,0.841-0.227,1.326v2.002l-0.078,0.208l-0.208,0.078h-0.221l-0.208-0.078
		l-0.078-0.208v-2.067c0-0.615,0.098-1.164,0.293-1.645c0.195-0.481,0.579-0.908,1.151-1.28l-1.157-1.625
		c-0.069-0.104-0.104-0.19-0.104-0.26l0.078-0.182l0.182-0.078h0.247c0.121,0,0.23,0.065,0.325,0.195l2.938,4.095
		c0.364-0.199,0.628-0.405,0.793-0.617c0.165-0.212,0.266-0.427,0.306-0.644c0.039-0.217,0.058-0.507,0.058-0.871V80.64l0.078-0.208
		l0.208-0.078h0.221l0.208,0.078l0.078,0.208v1.937c0,0.399-0.035,0.743-0.104,1.033c-0.069,0.29-0.214,0.572-0.436,0.845
		c-0.221,0.273-0.548,0.535-0.981,0.786l1.443,2.015c0.069,0.104,0.104,0.191,0.104,0.26l-0.078,0.182L184.691,87.777
		 M176.995,87.777h-0.221l-0.208-0.078l-0.078-0.208v-3.9c0-1.655-0.828-2.483-2.483-2.483h-0.988
		c-0.087,0.624-0.149,1.127-0.188,1.508c-0.039,0.382-0.054,0.815-0.045,1.3v3.575l-0.078,0.208l-0.208,0.078l-1.482-0.026
		l-0.208-0.078l-0.078-0.208v-0.182l0.078-0.208l0.208-0.078l0.975,0.013v-3.029v-0.403c0-0.476,0.017-0.895,0.052-1.254
		c0.035-0.36,0.1-0.765,0.195-1.216h-0.663l-0.208-0.078l-0.078-0.208V80.64l0.078-0.208l0.208-0.078h2.496
		c1.083,0,1.889,0.271,2.418,0.813c0.529,0.542,0.793,1.328,0.793,2.359v3.965l-0.078,0.208L176.995,87.777 M165.334,87.777h-0.221
		l-0.208-0.078l-0.078-0.208v-3.9c0-1.655-0.828-2.483-2.483-2.483h-2.236L159.9,81.03l-0.078-0.208V80.64l0.078-0.208l0.208-0.078
		h2.301c1.083,0,1.889,0.271,2.418,0.813c0.529,0.542,0.793,1.328,0.793,2.359v3.965l-0.078,0.208L165.334,87.777 M160.329,87.777
		h-0.221l-0.208-0.078l-0.078-0.208v-4.563l0.078-0.208l0.208-0.078h0.221l0.208,0.078l0.078,0.208v4.563l-0.078,0.208
		L160.329,87.777 M157.43,87.777h-0.221l-0.208-0.078l-0.078-0.208v-3.9c0-1.655-0.828-2.483-2.483-2.483h-1.586l-0.208-0.078
		l-0.078-0.208V80.64l0.078-0.208l0.208-0.078h1.651c1.083,0,1.889,0.271,2.418,0.813c0.529,0.542,0.793,1.328,0.793,2.359v3.965
		l-0.078,0.208L157.43,87.777 M148.343,87.777h-5.2l-0.208-0.078l-0.078-0.208v-0.182l0.078-0.208l0.208-0.078h3.913v-3.432
		c0-1.655-0.828-2.483-2.483-2.483h-1.3l-0.208-0.078l-0.078-0.208V80.64l0.078-0.208l0.208-0.078h1.365
		c1.083,0,1.889,0.273,2.418,0.819c0.529,0.546,0.793,1.33,0.793,2.353v3.497h0.494l0.208,0.078l0.078,0.208v0.182l-0.078,0.208
		L148.343,87.777 M140.804,87.777h-0.221l-0.208-0.078l-0.078-0.208v-3.9c0-1.655-0.828-2.483-2.483-2.483h-2.236l-0.208-0.078
		l-0.078-0.208V80.64l0.078-0.208l0.208-0.078h2.301c1.083,0,1.889,0.271,2.418,0.813c0.529,0.542,0.793,1.328,0.793,2.359v3.965
		l-0.078,0.208L140.804,87.777 M135.799,87.777h-0.221l-0.208-0.078l-0.078-0.208v-4.563l0.078-0.208l0.208-0.078h0.221l0.208,0.078
		l0.078,0.208v4.563l-0.078,0.208L135.799,87.777 M249.001,84.787h-0.221l-0.208-0.078l-0.078-0.208V80.64l0.078-0.208l0.208-0.078
		h0.221l0.208,0.078l0.078,0.208v3.861l-0.078,0.208L249.001,84.787 M203.541,84.787h-0.221l-0.208-0.078l-0.078-0.208V80.64
		l0.078-0.208l0.208-0.078h0.221l0.208,0.078l0.078,0.208v3.861l-0.078,0.208L203.541,84.787 M150.514,84.787h-0.221l-0.208-0.078
		l-0.078-0.208V80.64l0.078-0.208l0.208-0.078h0.221l0.208,0.078l0.078,0.208v3.861l-0.078,0.208L150.514,84.787"/>
	<path fill="#000000" d="M257.815,124.06h-0.533l-0.214-0.078c-0.057-0.052-0.085-0.126-0.085-0.221v-6.851l0.085-0.215l0.214-0.085
		h0.533l0.214,0.085l0.085,0.215v6.851l-0.085,0.215L257.815,124.06 M280.175,121.707l-0.163-0.065l-0.071-0.182v-0.572
		c0-0.156,0.095-0.273,0.286-0.351l0.507-0.195c0.598-0.225,1.057-0.55,1.378-0.975c0.32-0.424,0.481-1.048,0.481-1.872
		c0-0.581-0.069-1.038-0.208-1.372c-0.139-0.333-0.366-0.574-0.682-0.722c-0.316-0.147-0.752-0.221-1.307-0.221h-0.403h-0.039
		l-1.196-0.013l-0.215-0.078l-0.084-0.208v-2.236l0.084-0.214l0.215-0.085h0.52l0.208,0.085l0.078,0.214v1.508h1.001
		c0.789,0,1.415,0.113,1.878,0.338c0.464,0.226,0.8,0.585,1.008,1.079c0.208,0.494,0.312,1.153,0.312,1.976
		c0,1.109-0.273,1.974-0.819,2.593c-0.546,0.62-1.257,1.077-2.132,1.371l-0.546,0.182L280.175,121.707 M259.661,121.707
		l-0.163-0.065l-0.072-0.182v-0.572c0-0.156,0.095-0.273,0.286-0.351l0.507-0.195c0.598-0.225,1.057-0.55,1.378-0.975
		c0.321-0.424,0.481-1.048,0.481-1.872c0-0.581-0.07-1.038-0.208-1.372c-0.139-0.333-0.366-0.574-0.682-0.722
		c-0.316-0.147-0.752-0.221-1.307-0.221h-2.6l-0.214-0.085l-0.085-0.214v-0.442l0.085-0.208l0.214-0.078h2.756
		c0.797,0,1.428,0.113,1.891,0.338c0.464,0.226,0.8,0.585,1.008,1.079s0.312,1.153,0.312,1.976c0,1.109-0.273,1.974-0.819,2.593
		c-0.546,0.62-1.257,1.077-2.132,1.371l-0.546,0.182L259.661,121.707 M277.38,121.577h-5.408l-0.208-0.084l-0.078-0.215v-0.416
		l0.078-0.214l0.208-0.085h3.757v-3.172c0-1.482-0.745-2.223-2.236-2.223h-1.391l-0.208-0.085l-0.078-0.214v-0.416l0.078-0.215
		l0.208-0.084h1.456c2.219,0,3.328,1.062,3.328,3.185v3.224h0.494l0.208,0.085l0.078,0.214v0.416l-0.078,0.215L277.38,121.577
		 M269.788,121.577h-4.68l-0.215-0.084l-0.085-0.215v-0.429l0.085-0.208l0.215-0.078h3.536l-4.069-5.902
		c-0.069-0.113-0.104-0.195-0.104-0.247l0.084-0.182l0.202-0.078h0.572c0.138,0,0.255,0.069,0.351,0.208l2.327,3.354
		c0.737-0.347,1.105-1.057,1.105-2.132v-1.131c0-0.095,0.028-0.169,0.085-0.221l0.214-0.078h0.507l0.214,0.084l0.085,0.215v1.274
		c0,0.668-0.139,1.239-0.416,1.716c-0.277,0.477-0.685,0.841-1.222,1.092l1.352,1.95c0.104,0.13,0.156,0.26,0.156,0.39v0.403
		l-0.085,0.215L269.788,121.577 M254.747,121.577h-0.897l-0.208-0.084l-0.078-0.215v-0.871c0-0.095,0.026-0.171,0.078-0.228
		l0.208-0.085h0.897c0.095,0,0.171,0.028,0.228,0.085c0.056,0.056,0.085,0.132,0.085,0.228v0.871l-0.091,0.215L254.747,121.577
		 M254.747,117.027h-0.897l-0.208-0.084l-0.078-0.215v-0.871c0-0.095,0.026-0.171,0.078-0.228l0.208-0.085h0.897
		c0.095,0,0.171,0.028,0.228,0.085c0.056,0.056,0.085,0.132,0.085,0.228v0.871l-0.091,0.215L254.747,117.027"/>
	<path fill="#000000" d="M221.065,140.96h-0.533l-0.214-0.078c-0.056-0.052-0.085-0.126-0.085-0.221v-6.851l0.085-0.215l0.214-0.085
		h0.533l0.214,0.085l0.085,0.215v6.851l-0.085,0.215L221.065,140.96 M246.401,138.607c-1.066,0-1.866-0.279-2.398-0.838
		c-0.533-0.559-0.8-1.363-0.8-2.412v-4.004c0-0.095,0.028-0.169,0.085-0.221l0.214-0.078h3.12c1.118,0,1.92,0.251,2.405,0.754
		c0.485,0.503,0.75,1.274,0.793,2.314c0.009,0.087,0.013,0.321,0.013,0.702c0,0.382-0.005,0.615-0.013,0.702
		c-0.026,1.031-0.308,1.803-0.845,2.314C248.438,138.352,247.58,138.607,246.401,138.607 M244.295,132.055v3.302
		c0,0.72,0.175,1.27,0.527,1.651c0.351,0.381,0.873,0.572,1.566,0.572c0.815,0,1.399-0.171,1.755-0.514
		c0.355-0.342,0.541-0.878,0.559-1.605c0.008-0.087,0.013-0.299,0.013-0.637s-0.005-0.55-0.013-0.637
		c-0.018-0.693-0.215-1.222-0.592-1.586c-0.377-0.364-0.895-0.546-1.554-0.546H244.295 M222.911,138.607l-0.163-0.065l-0.072-0.182
		v-0.572c0-0.156,0.095-0.273,0.286-0.351l0.507-0.195c0.598-0.225,1.057-0.55,1.378-0.975c0.321-0.424,0.481-1.048,0.481-1.872
		c0-0.581-0.07-1.038-0.208-1.372c-0.139-0.333-0.366-0.574-0.682-0.722c-0.316-0.147-0.752-0.221-1.307-0.221h-2.6l-0.214-0.084
		l-0.085-0.215v-0.442l0.085-0.208l0.214-0.078h2.756c0.797,0,1.428,0.113,1.891,0.338c0.464,0.226,0.8,0.585,1.008,1.079
		s0.312,1.153,0.312,1.976c0,1.109-0.273,1.974-0.819,2.593c-0.546,0.62-1.257,1.077-2.132,1.371l-0.546,0.182L222.911,138.607
		 M256.97,138.477h-1.924l-0.215-0.084l-0.084-0.215v-0.429c0-0.095,0.028-0.169,0.084-0.221l0.215-0.078h1.859
		c0.754,0,1.309-0.19,1.664-0.572c0.355-0.381,0.55-0.936,0.585-1.664c0.009-0.121,0.013-0.273,0.013-0.455
		c0-0.173-0.004-0.32-0.013-0.442c-0.026-0.737-0.219-1.294-0.579-1.671c-0.36-0.377-0.916-0.566-1.67-0.566h-1.859l-0.215-0.084
		l-0.084-0.215v-0.429c0-0.095,0.028-0.169,0.084-0.221l0.215-0.078h1.924c1.1,0,1.918,0.275,2.451,0.825
		c0.533,0.55,0.817,1.345,0.852,2.385c0.008,0.121,0.013,0.286,0.013,0.494c0,0.208-0.005,0.377-0.013,0.507
		c-0.035,1.04-0.319,1.835-0.852,2.385C258.888,138.202,258.071,138.477,256.97,138.477 M252.433,138.477h-0.572l-0.215-0.084
		l-0.085-0.215v-6.825c0-0.095,0.028-0.169,0.085-0.221l0.215-0.078h0.572l0.214,0.084l0.085,0.215v6.825l-0.085,0.215
		L252.433,138.477 M240.967,138.477h-0.572l-0.214-0.084l-0.085-0.215v-6.825c0-0.095,0.028-0.169,0.085-0.221l0.214-0.078h0.572
		l0.215,0.084l0.084,0.215v6.825l-0.084,0.215L240.967,138.477 M237.847,138.477h-0.546l-0.214-0.084l-0.085-0.215v-3.887
		c0-1.49-0.745-2.236-2.236-2.236h-0.936c-0.087,0.546-0.15,0.999-0.189,1.358c-0.039,0.36-0.054,0.769-0.045,1.229l0.026,3.536
		l-0.085,0.215l-0.215,0.084l-1.807-0.026l-0.215-0.085l-0.084-0.214v-0.39l0.084-0.214l0.215-0.085l1.001,0.013v-2.782
		c-0.009-0.546,0.002-1.008,0.033-1.385c0.03-0.377,0.102-0.795,0.215-1.254h-0.702l-0.215-0.078l-0.085-0.208v-0.416
		c0-0.095,0.028-0.169,0.085-0.221l0.215-0.078h2.782c2.201,0,3.302,1.057,3.302,3.172v3.952l-0.084,0.215L237.847,138.477
		 M217.984,138.477h-3.354l-0.208-0.084l-0.078-0.215v-0.416l0.078-0.214l0.208-0.085h2.509v-3.159c0-0.659-0.167-1.194-0.501-1.606
		c-0.334-0.411-0.756-0.617-1.267-0.617h-1.378l-1.001,6.084l-0.11,0.221l-0.214,0.091h-0.546l-0.201-0.091l-0.059-0.221l1.04-6.084
		h-0.663l-0.215-0.084l-0.085-0.215v-0.429l0.085-0.215l0.215-0.084h3.263c0.537,0,1.016,0.128,1.436,0.384
		c0.42,0.256,0.75,0.622,0.988,1.099c0.238,0.477,0.358,1.04,0.358,1.69v3.952l-0.085,0.215L217.984,138.477 M209.911,138.477
		h-0.546l-0.215-0.084l-0.085-0.215v-3.887c0-1.49-0.745-2.236-2.236-2.236h-1.586v6.123l-0.085,0.215l-0.215,0.084h-0.546
		l-0.215-0.084l-0.084-0.215v-6.825c0-0.095,0.028-0.169,0.084-0.221l0.215-0.078h2.496c1.118,0,1.95,0.266,2.496,0.799
		c0.546,0.533,0.819,1.333,0.819,2.399v3.926l-0.084,0.215L209.911,138.477"/>
	<path fill="#000000" d="M270.828,138.477h-5.694l-0.215-0.084l-0.085-0.215v-0.39c0-0.199,0.108-0.39,0.325-0.572l2.834-2.821
		c0.641-0.546,1.083-0.992,1.326-1.339c0.243-0.347,0.364-0.715,0.364-1.105c0-0.511-0.143-0.912-0.429-1.202
		c-0.286-0.29-0.702-0.436-1.248-0.436c-0.52,0-0.932,0.152-1.235,0.455c-0.304,0.303-0.49,0.711-0.559,1.222
		c-0.018,0.096-0.061,0.169-0.13,0.221l-0.208,0.078h-0.624l-0.195-0.078l-0.078-0.182c0.017-0.459,0.141-0.904,0.37-1.333
		c0.23-0.429,0.57-0.78,1.021-1.053c0.451-0.273,0.997-0.409,1.638-0.409c0.971,0,1.701,0.253,2.191,0.76
		c0.489,0.507,0.734,1.151,0.734,1.931c0,0.546-0.132,1.038-0.396,1.475c-0.264,0.438-0.678,0.899-1.242,1.384l-2.561,2.6h4.095
		c0.095,0,0.169,0.026,0.221,0.078s0.078,0.126,0.078,0.221v0.494l-0.084,0.215L270.828,138.477"/>
	<path fill="#000000" d="M282.736,138.503h-0.338l-0.208-0.078l-0.078-0.208v-0.624h-1.911l-0.208-0.078l-0.078-0.208v-0.286
		c0-0.121,0.052-0.251,0.156-0.39l1.755-2.444c0.113-0.156,0.243-0.234,0.39-0.234h0.52l0.208,0.078l0.078,0.208v2.509h0.455
		l0.208,0.078l0.078,0.208v0.273l-0.078,0.208l-0.208,0.078h-0.455v0.624l-0.078,0.208L282.736,138.503 M282.125,135.136
		l-1.131,1.625h1.131V135.136 M276.028,138.477h-0.351l-0.188-0.071l-0.072-0.188l0.052-0.143l6.409-8.45
		c0.069-0.095,0.132-0.16,0.189-0.195c0.056-0.035,0.136-0.052,0.241-0.052h0.351l0.195,0.072l0.078,0.188l-0.052,0.143l-6.422,8.45
		l-0.188,0.188C276.212,138.458,276.132,138.477,276.028,138.477 M277.237,133.927h-0.351l-0.208-0.078l-0.078-0.208v-3.12
		l-0.78,0.585l-0.169,0.052l-0.234-0.117l-0.156-0.208l-0.065-0.182l0.117-0.221l1.287-0.962c0.087-0.06,0.186-0.091,0.299-0.091
		h0.338l0.208,0.078l0.078,0.208v3.978l-0.078,0.208L277.237,133.927"/>
	<path fill="#000000" d="M257.1,155.507c-1.066,0-1.865-0.279-2.398-0.838c-0.533-0.559-0.8-1.363-0.8-2.411v-4.004
		c0-0.095,0.028-0.169,0.085-0.221l0.214-0.078h3.12c1.118,0,1.92,0.251,2.405,0.754c0.485,0.503,0.75,1.274,0.793,2.314
		c0.009,0.087,0.013,0.321,0.013,0.702c0,0.382-0.005,0.615-0.013,0.702c-0.026,1.031-0.308,1.803-0.845,2.314
		C259.137,155.252,258.279,155.507,257.1,155.507 M254.994,148.955v3.302c0,0.719,0.176,1.27,0.527,1.651
		c0.351,0.382,0.873,0.572,1.566,0.572c0.815,0,1.399-0.171,1.755-0.514c0.355-0.342,0.542-0.878,0.559-1.605
		c0.008-0.087,0.013-0.299,0.013-0.637c0-0.338-0.005-0.55-0.013-0.637c-0.018-0.693-0.215-1.222-0.592-1.586
		s-0.895-0.546-1.554-0.546H254.994 M245.621,155.507c-1.066,0-1.865-0.279-2.398-0.838c-0.533-0.559-0.8-1.363-0.8-2.411v-4.004
		c0-0.095,0.028-0.169,0.085-0.221l0.215-0.078h3.12c1.118,0,1.919,0.251,2.405,0.754c0.485,0.503,0.75,1.274,0.793,2.314
		c0.008,0.087,0.013,0.321,0.013,0.702c0,0.382-0.005,0.615-0.013,0.702c-0.026,1.031-0.308,1.803-0.845,2.314
		C247.658,155.252,246.8,155.507,245.621,155.507 M243.515,148.955v3.302c0,0.719,0.176,1.27,0.527,1.651
		c0.351,0.382,0.873,0.572,1.566,0.572c0.815,0,1.4-0.171,1.755-0.514c0.355-0.342,0.542-0.878,0.559-1.605
		c0.009-0.087,0.013-0.299,0.013-0.637c0-0.338-0.004-0.55-0.013-0.637c-0.018-0.693-0.215-1.222-0.592-1.586
		s-0.895-0.546-1.553-0.546H243.515 M283.399,155.377h-3.081l-0.208-0.078l-0.078-0.208v-0.273l0.065-0.202
		c0.043-0.065,0.125-0.145,0.247-0.241l0.598-0.429c0.459-0.32,0.793-0.565,1.001-0.735c0.208-0.169,0.366-0.331,0.474-0.487
		c0.108-0.156,0.163-0.325,0.163-0.507c0-0.199-0.071-0.357-0.215-0.474c-0.143-0.117-0.319-0.176-0.527-0.176
		c-0.191,0-0.34,0.031-0.448,0.091c-0.108,0.061-0.178,0.115-0.208,0.163c-0.03,0.048-0.076,0.132-0.137,0.253
		c-0.052,0.096-0.1,0.158-0.143,0.188l-0.169,0.045h-0.351c-0.156,0-0.234-0.073-0.234-0.221c0-0.225,0.078-0.44,0.234-0.643
		c0.156-0.204,0.362-0.368,0.617-0.494c0.256-0.126,0.535-0.189,0.838-0.189c0.494,0,0.893,0.141,1.196,0.423
		c0.303,0.282,0.455,0.622,0.455,1.021c0,0.303-0.067,0.57-0.201,0.8c-0.135,0.23-0.334,0.455-0.598,0.676
		c-0.264,0.221-0.652,0.509-1.164,0.865h1.872l0.208,0.078l0.078,0.208v0.26l-0.078,0.208L283.399,155.377 M275.937,155.377h-0.351
		l-0.188-0.072l-0.071-0.188l0.052-0.143l6.409-8.45c0.069-0.095,0.132-0.16,0.189-0.195c0.056-0.035,0.136-0.052,0.241-0.052h0.351
		l0.195,0.072l0.078,0.188l-0.052,0.143l-6.422,8.45l-0.188,0.188C276.121,155.358,276.041,155.377,275.937,155.377
		 M267.669,155.377h-1.924l-0.215-0.085l-0.084-0.215v-0.429c0-0.095,0.028-0.169,0.084-0.221l0.215-0.078h1.859
		c0.754,0,1.309-0.19,1.664-0.572c0.355-0.381,0.55-0.936,0.585-1.664c0.009-0.121,0.013-0.273,0.013-0.455
		c0-0.173-0.004-0.321-0.013-0.442c-0.026-0.737-0.219-1.294-0.579-1.67c-0.36-0.377-0.916-0.566-1.671-0.566h-1.859l-0.215-0.084
		l-0.084-0.215v-0.429c0-0.095,0.028-0.169,0.084-0.221l0.215-0.078h1.924c1.101,0,1.918,0.275,2.451,0.825
		c0.533,0.55,0.817,1.346,0.852,2.385c0.008,0.121,0.013,0.286,0.013,0.494s-0.005,0.377-0.013,0.507
		c-0.035,1.04-0.318,1.835-0.852,2.385C269.586,155.102,268.769,155.377,267.669,155.377 M263.132,155.377h-0.572l-0.215-0.085
		l-0.085-0.215v-6.825c0-0.095,0.028-0.169,0.085-0.221l0.215-0.078h0.572l0.214,0.085l0.085,0.214v6.825l-0.085,0.215
		L263.132,155.377 M240.187,155.377h-0.572l-0.214-0.085l-0.085-0.215v-6.825c0-0.095,0.028-0.169,0.085-0.221l0.214-0.078h0.572
		l0.215,0.085l0.085,0.214v6.825l-0.085,0.215L240.187,155.377 M234.273,155.377h-1.924l-0.215-0.085l-0.084-0.215v-0.429
		c0-0.095,0.028-0.169,0.084-0.221l0.215-0.078h1.859c0.754,0,1.309-0.19,1.664-0.572c0.355-0.381,0.55-0.936,0.585-1.664
		c0.009-0.121,0.013-0.273,0.013-0.455c0-0.173-0.004-0.321-0.013-0.442c-0.026-0.737-0.219-1.294-0.579-1.67
		c-0.36-0.377-0.916-0.566-1.67-0.566h-1.859l-0.215-0.084l-0.084-0.215v-0.429c0-0.095,0.028-0.169,0.084-0.221l0.215-0.078h1.924
		c1.101,0,1.917,0.275,2.451,0.825c0.533,0.55,0.817,1.346,0.852,2.385c0.008,0.121,0.013,0.286,0.013,0.494
		s-0.005,0.377-0.013,0.507c-0.035,1.04-0.318,1.835-0.852,2.385C236.19,155.102,235.373,155.377,234.273,155.377 M229.801,155.377
		h-0.546l-0.215-0.085l-0.085-0.215v-3.887c0-1.49-0.745-2.236-2.236-2.236h-1.677l-0.214-0.078l-0.085-0.208v-0.416l0.085-0.214
		l0.214-0.085h1.755c2.201,0,3.302,1.057,3.302,3.172v3.952l-0.085,0.215L229.801,155.377 M277.146,150.827h-0.351l-0.208-0.078
		l-0.078-0.208v-3.12l-0.78,0.585l-0.169,0.052l-0.234-0.117l-0.156-0.208l-0.065-0.182l0.117-0.221l1.287-0.962
		c0.087-0.061,0.186-0.091,0.299-0.091h0.338l0.208,0.078l0.078,0.208v3.978l-0.078,0.208L277.146,150.827"/>
	<path fill="#000000" d="M261.325,172.407l-0.163-0.065l-0.071-0.182v-0.572c0-0.156,0.095-0.273,0.286-0.351l0.507-0.195
		c0.598-0.225,1.057-0.55,1.378-0.975c0.32-0.424,0.481-1.048,0.481-1.872c0-0.581-0.069-1.038-0.208-1.372
		c-0.139-0.333-0.366-0.574-0.682-0.721c-0.316-0.147-0.752-0.221-1.306-0.221h-0.403h-0.039l-1.196-0.013l-0.215-0.078
		l-0.084-0.208v-2.236l0.084-0.215l0.215-0.084h0.52l0.208,0.084l0.078,0.215v1.508h1.001c0.788,0,1.415,0.113,1.879,0.338
		c0.464,0.225,0.799,0.585,1.007,1.079s0.312,1.153,0.312,1.976c0,1.109-0.273,1.974-0.819,2.593
		c-0.546,0.62-1.257,1.077-2.132,1.372l-0.546,0.182L261.325,172.407 M272.44,172.277h-0.546l-0.214-0.085l-0.085-0.215v-3.887
		c0-1.491-0.746-2.236-2.236-2.236h-1.586v6.123l-0.084,0.215l-0.215,0.085h-0.546l-0.214-0.085l-0.085-0.215v-6.825
		c0-0.095,0.028-0.169,0.085-0.221l0.214-0.078h2.496c1.118,0,1.95,0.266,2.496,0.8c0.546,0.533,0.819,1.332,0.819,2.398v3.926
		l-0.084,0.215L272.44,172.277 M257.828,172.277h-3.354l-0.208-0.085l-0.078-0.215v-0.416l0.078-0.215l0.208-0.085h2.509v-3.159
		c0-0.659-0.167-1.194-0.501-1.605c-0.334-0.412-0.756-0.618-1.267-0.618h-1.378l-1.001,6.084l-0.111,0.221l-0.214,0.091h-0.546
		l-0.201-0.091l-0.059-0.221l1.04-6.084h-0.663l-0.215-0.084l-0.084-0.215v-0.429l0.084-0.214l0.215-0.085h3.263
		c0.537,0,1.016,0.128,1.436,0.384c0.42,0.256,0.75,0.622,0.988,1.099c0.238,0.477,0.358,1.04,0.358,1.69v3.952l-0.085,0.215
		L257.828,172.277 M249.69,172.277h-0.572l-0.215-0.085l-0.085-0.215v-6.825c0-0.095,0.028-0.169,0.085-0.221l0.215-0.078h0.572
		l0.214,0.085l0.085,0.214v6.825l-0.085,0.215L249.69,172.277 M246.882,172.277h-3.471l-0.215-0.085l-0.084-0.215v-0.416
		l0.084-0.215l0.215-0.085h2.561l-0.208-3.302c-0.043-0.563-0.089-0.977-0.136-1.242c-0.048-0.264-0.154-0.479-0.318-0.644
		c-0.165-0.165-0.421-0.247-0.767-0.247h-0.533l-0.214-0.078l-0.085-0.208v-0.416l0.085-0.215l0.214-0.084h0.533
		c0.624,0,1.103,0.123,1.437,0.37c0.333,0.247,0.563,0.587,0.689,1.021c0.126,0.434,0.21,1.001,0.253,1.703l0.247,4.056v0.039
		l-0.085,0.188L246.882,172.277 M238.289,172.277h-5.447l-0.214-0.085l-0.085-0.215v-6.825c0-0.095,0.028-0.169,0.085-0.221
		l0.214-0.078h2.457c1.109,0,1.935,0.264,2.476,0.793c0.542,0.529,0.813,1.322,0.813,2.379v3.952l-0.084,0.215L238.289,172.277
		 M233.622,165.855v5.408h3.848v-3.172c0-1.491-0.745-2.236-2.236-2.236H233.622 M241.318,169.261h-0.572l-0.215-0.085l-0.084-0.214
		v-3.809c0-0.095,0.028-0.169,0.084-0.221l0.215-0.078h0.572l0.214,0.085l0.085,0.214v3.809l-0.085,0.214L241.318,169.261"/>
	<path fill="#000000" d="M283.503,172.277h-5.694l-0.215-0.085l-0.084-0.215v-0.39c0-0.199,0.108-0.39,0.325-0.572l2.834-2.821
		c0.641-0.546,1.083-0.992,1.326-1.339c0.243-0.346,0.364-0.715,0.364-1.105c0-0.511-0.143-0.912-0.429-1.203
		c-0.286-0.29-0.702-0.435-1.248-0.435c-0.52,0-0.932,0.152-1.235,0.455c-0.304,0.304-0.49,0.711-0.559,1.222
		c-0.017,0.096-0.061,0.169-0.13,0.221l-0.208,0.078h-0.624l-0.195-0.078l-0.078-0.182c0.017-0.459,0.141-0.904,0.371-1.333
		c0.229-0.429,0.57-0.78,1.02-1.053c0.451-0.273,0.997-0.41,1.638-0.41c0.971,0,1.701,0.253,2.191,0.761
		c0.489,0.507,0.734,1.15,0.734,1.93c0,0.546-0.132,1.038-0.397,1.475c-0.264,0.438-0.678,0.899-1.241,1.385l-2.561,2.6h4.095
		c0.095,0,0.169,0.026,0.221,0.078c0.052,0.052,0.078,0.126,0.078,0.221v0.494l-0.084,0.215L283.503,172.277"/>
	<path fill="#000000" d="M267.253,190.789h-0.533l-0.214-0.084l-0.085-0.215v-5.473c0-1.491-0.745-2.236-2.236-2.236h-1.209v1.313
		c0,0.356,0.039,0.637,0.117,0.845c0.078,0.208,0.212,0.338,0.403,0.39l0.494,0.13l0.163,0.137c0.039,0.074,0.058,0.163,0.058,0.266
		v0.325l-0.13,0.195c-0.062,0.031-0.128,0.047-0.199,0.047c-0.028,0-0.057-0.003-0.087-0.008l-0.546-0.117
		c-0.867-0.19-1.3-0.94-1.3-2.249v-2.002c0-0.095,0.028-0.169,0.085-0.221l0.214-0.078h2.041c1.092,0,1.904,0.277,2.438,0.832
		c0.533,0.555,0.804,1.348,0.813,2.379l0.013,5.525l-0.085,0.215L267.253,190.789 M204.01,189.307l-0.163-0.065l-0.072-0.182v-0.572
		c0-0.156,0.095-0.273,0.286-0.351l0.507-0.195c0.598-0.225,1.057-0.55,1.378-0.975c0.321-0.425,0.481-1.049,0.481-1.872
		c0-0.581-0.07-1.038-0.208-1.372c-0.139-0.333-0.366-0.574-0.682-0.721c-0.316-0.147-0.752-0.221-1.307-0.221h-0.403h-0.039
		l-1.196-0.013l-0.215-0.078l-0.084-0.208v-2.236l0.084-0.215l0.215-0.084h0.52l0.208,0.084l0.078,0.215v1.508h1.001
		c0.789,0,1.415,0.113,1.879,0.338c0.464,0.225,0.8,0.585,1.008,1.079s0.312,1.153,0.312,1.976c0,1.109-0.273,1.974-0.819,2.594
		c-0.546,0.62-1.257,1.077-2.132,1.372l-0.546,0.182L204.01,189.307 M271.712,189.177h-1.924l-0.214-0.085l-0.085-0.214v-0.429
		c0-0.095,0.028-0.169,0.085-0.221l0.214-0.078h1.859c0.754,0,1.309-0.19,1.664-0.572c0.355-0.381,0.55-0.936,0.585-1.664
		c0.009-0.121,0.013-0.273,0.013-0.455c0-0.173-0.004-0.321-0.013-0.442c-0.026-0.737-0.219-1.294-0.578-1.67
		c-0.36-0.377-0.917-0.565-1.671-0.565h-1.859l-0.214-0.085l-0.085-0.215v-0.429c0-0.095,0.028-0.169,0.085-0.221l0.214-0.078h1.924
		c1.101,0,1.918,0.275,2.451,0.825c0.533,0.55,0.817,1.346,0.852,2.385c0.009,0.121,0.013,0.286,0.013,0.494
		s-0.004,0.377-0.013,0.507c-0.035,1.04-0.318,1.835-0.852,2.386C273.629,188.902,272.813,189.177,271.712,189.177 M256.814,189.177
		h-0.546l-0.214-0.085l-0.085-0.214v-3.887c0-1.491-0.745-2.236-2.236-2.236h-0.936c-0.087,0.546-0.149,0.999-0.188,1.359
		c-0.039,0.36-0.054,0.769-0.045,1.229l0.026,3.536l-0.084,0.214l-0.215,0.085l-1.807-0.026l-0.215-0.084l-0.085-0.215v-0.39
		l0.085-0.215l0.215-0.085l1.001,0.013v-2.782c-0.009-0.546,0.002-1.007,0.033-1.385c0.03-0.377,0.102-0.795,0.214-1.254h-0.702
		l-0.214-0.078l-0.085-0.208v-0.416c0-0.095,0.028-0.169,0.085-0.221l0.214-0.078h2.782c2.201,0,3.302,1.057,3.302,3.172v3.952
		l-0.085,0.214L256.814,189.177 M248.261,189.177h-3.354l-0.208-0.085l-0.078-0.214v-0.416l0.078-0.215l0.208-0.085h2.509v-3.159
		c0-0.659-0.167-1.194-0.501-1.605c-0.334-0.412-0.756-0.617-1.267-0.617h-1.378l-1.001,6.084l-0.111,0.221l-0.214,0.091h-0.546
		l-0.201-0.091l-0.059-0.221l1.04-6.084h-0.663l-0.215-0.085l-0.085-0.215v-0.429l0.085-0.214l0.215-0.085h3.263
		c0.537,0,1.016,0.128,1.436,0.384c0.42,0.256,0.75,0.622,0.988,1.098c0.238,0.477,0.358,1.04,0.358,1.69v3.952l-0.085,0.214
		L248.261,189.177 M240.227,189.177h-4.68l-0.215-0.085l-0.085-0.214v-0.429l0.085-0.208l0.215-0.078h3.536l-4.069-5.902
		c-0.069-0.113-0.104-0.195-0.104-0.247l0.085-0.182l0.201-0.078h0.572c0.138,0,0.255,0.069,0.351,0.208l2.327,3.354
		c0.737-0.346,1.105-1.057,1.105-2.132v-1.131c0-0.095,0.028-0.169,0.085-0.221l0.214-0.078h0.507l0.215,0.085l0.084,0.214v1.274
		c0,0.667-0.139,1.239-0.416,1.716c-0.278,0.477-0.685,0.841-1.222,1.092l1.352,1.95c0.104,0.13,0.156,0.26,0.156,0.39v0.403
		l-0.085,0.214L240.227,189.177 M230.282,189.177h-0.546l-0.215-0.085l-0.084-0.214v-3.887c0-1.491-0.745-2.236-2.236-2.236h-0.936
		c-0.087,0.546-0.15,0.999-0.188,1.359c-0.039,0.36-0.054,0.769-0.045,1.229l0.026,3.536l-0.085,0.214l-0.214,0.085l-1.807-0.026
		l-0.214-0.084l-0.085-0.215v-0.39l0.085-0.215l0.214-0.085l1.001,0.013v-2.782c-0.009-0.546,0.002-1.007,0.033-1.385
		c0.03-0.377,0.102-0.795,0.215-1.254h-0.702l-0.214-0.078l-0.085-0.208v-0.416c0-0.095,0.028-0.169,0.085-0.221l0.214-0.078h2.782
		c2.201,0,3.302,1.057,3.302,3.172v3.952l-0.085,0.214L230.282,189.177 M218.465,189.177h-0.572l-0.215-0.085l-0.085-0.214v-6.825
		c0-0.095,0.028-0.169,0.085-0.221l0.215-0.078h0.572l0.214,0.085l0.085,0.214v6.825l-0.085,0.214L218.465,189.177 M215.657,189.177
		h-3.471l-0.214-0.085l-0.085-0.214v-0.416l0.085-0.215l0.214-0.085h2.561l-0.208-3.302c-0.043-0.563-0.089-0.977-0.136-1.242
		c-0.048-0.264-0.154-0.479-0.319-0.644c-0.165-0.165-0.42-0.247-0.767-0.247h-0.533l-0.215-0.078l-0.085-0.208v-0.416l0.085-0.215
		l0.215-0.084h0.533c0.624,0,1.103,0.123,1.437,0.37c0.333,0.247,0.563,0.587,0.689,1.021c0.125,0.434,0.21,1.001,0.253,1.703
		l0.247,4.056v0.039l-0.085,0.188L215.657,189.177 M233.311,186.161h-0.572l-0.214-0.084l-0.085-0.215v-3.809
		c0-0.095,0.028-0.169,0.085-0.221l0.214-0.078h0.572l0.215,0.085l0.084,0.214v3.809l-0.084,0.215L233.311,186.161 M210.093,186.161
		h-0.572l-0.215-0.084l-0.084-0.215v-3.809c0-0.095,0.028-0.169,0.084-0.221l0.215-0.078h0.572l0.214,0.085l0.085,0.214v3.809
		l-0.085,0.215L210.093,186.161"/>
	<path fill="#000000" d="M283.165,189.177h-0.637l-0.208-0.085l-0.078-0.214v-7.332l-2.184,1.677l-0.195,0.078l-0.221-0.13
		l-0.312-0.403l-0.065-0.182c0-0.095,0.043-0.173,0.13-0.234l2.821-2.184c0.095-0.061,0.208-0.091,0.338-0.091h0.611l0.214,0.085
		l0.085,0.215v8.502l-0.085,0.214L283.165,189.177"/>
	<path fill="#000000" d="M267.253,207.689h-0.533l-0.214-0.084l-0.085-0.215v-5.473c0-1.49-0.745-2.236-2.236-2.236h-1.209v1.313
		c0,0.356,0.039,0.637,0.117,0.845c0.078,0.208,0.212,0.338,0.403,0.39l0.494,0.13l0.163,0.137c0.039,0.074,0.058,0.163,0.058,0.266
		v0.325l-0.13,0.195c-0.062,0.031-0.128,0.047-0.199,0.047c-0.028,0-0.057-0.003-0.087-0.008l-0.546-0.117
		c-0.867-0.19-1.3-0.94-1.3-2.249v-2.002c0-0.095,0.028-0.169,0.085-0.221l0.214-0.078h2.041c1.092,0,1.904,0.277,2.438,0.832
		c0.533,0.555,0.804,1.348,0.813,2.379l0.013,5.525l-0.085,0.215L267.253,207.689 M201.474,207.689h-0.546l-0.215-0.078
		c-0.056-0.052-0.084-0.126-0.084-0.221v-8.437c0-0.095,0.028-0.169,0.084-0.221l0.215-0.078h0.546l0.214,0.085l0.085,0.214v8.437
		l-0.085,0.215L201.474,207.689 M219.557,206.207l-0.163-0.065l-0.071-0.182v-0.572c0-0.156,0.095-0.273,0.286-0.351l0.507-0.195
		c0.598-0.225,1.057-0.55,1.378-0.975c0.321-0.425,0.481-1.049,0.481-1.872c0-0.581-0.069-1.038-0.208-1.372
		c-0.139-0.333-0.366-0.574-0.682-0.721c-0.316-0.147-0.752-0.221-1.307-0.221h-0.403h-0.039l-1.196-0.013l-0.214-0.078
		l-0.085-0.208v-2.236l0.085-0.215l0.214-0.084h0.52l0.208,0.084l0.078,0.215v1.508h1.001c0.788,0,1.415,0.113,1.879,0.338
		c0.464,0.226,0.799,0.585,1.007,1.079c0.208,0.494,0.312,1.153,0.312,1.976c0,1.109-0.273,1.974-0.819,2.593
		c-0.546,0.62-1.257,1.077-2.132,1.372l-0.546,0.182L219.557,206.207 M253.421,206.194c-0.147,0-0.221-0.069-0.221-0.208v-0.611
		c0-0.147,0.091-0.255,0.273-0.325c0.026-0.009,0.197-0.067,0.514-0.176c0.316-0.108,0.6-0.245,0.851-0.409
		c0.26-0.165,0.516-0.392,0.767-0.682c0.251-0.29,0.429-0.566,0.533-0.825l-0.234-1.17c-0.104-0.511-0.214-0.916-0.331-1.215
		c-0.117-0.299-0.275-0.527-0.474-0.682c-0.199-0.156-0.46-0.234-0.78-0.234h-0.481l-0.214-0.078l-0.085-0.208v-0.442l0.085-0.214
		l0.214-0.085h0.481c0.555,0,1.01,0.113,1.365,0.338c0.355,0.225,0.639,0.561,0.852,1.007c0.212,0.447,0.392,1.029,0.539,1.748
		l0.78,4.056v0.052l-0.085,0.176l-0.201,0.072h-0.572c-0.165,0-0.264-0.1-0.299-0.299l-0.299-1.521
		c-0.321,0.494-0.689,0.88-1.105,1.157c-0.321,0.217-0.62,0.384-0.897,0.501c-0.277,0.117-0.572,0.206-0.884,0.266L253.421,206.194
		 M271.712,206.077h-1.924l-0.214-0.085l-0.085-0.214v-0.429c0-0.095,0.028-0.169,0.085-0.221l0.214-0.078h1.859
		c0.754,0,1.309-0.19,1.664-0.572c0.355-0.381,0.55-0.936,0.585-1.664c0.009-0.121,0.013-0.273,0.013-0.455
		c0-0.173-0.004-0.321-0.013-0.442c-0.026-0.737-0.219-1.294-0.578-1.671c-0.36-0.377-0.917-0.565-1.671-0.565h-1.859l-0.214-0.085
		l-0.085-0.215v-0.429c0-0.095,0.028-0.169,0.085-0.221l0.214-0.078h1.924c1.101,0,1.918,0.275,2.451,0.825
		c0.533,0.55,0.817,1.346,0.852,2.385c0.009,0.121,0.013,0.286,0.013,0.494s-0.004,0.377-0.013,0.507
		c-0.035,1.04-0.318,1.835-0.852,2.385C273.629,205.802,272.813,206.077,271.712,206.077 M251.328,206.077h-0.546l-0.215-0.085
		l-0.085-0.214v-3.887c0-1.491-0.745-2.236-2.236-2.236h-1.677l-0.214-0.078l-0.085-0.208v-0.416l0.085-0.214l0.214-0.085h1.755
		c2.201,0,3.302,1.057,3.302,3.172v3.952l-0.084,0.214L251.328,206.077 M240.175,206.077h-0.546l-0.208-0.078l-0.078-0.208v-4.667
		c0-0.355,0.03-0.659,0.091-0.91c0.06-0.251,0.143-0.438,0.247-0.559h-3.588l-0.215-0.078l-0.085-0.208v-0.416l0.085-0.214
		l0.215-0.085h5.564c0.095,0,0.169,0.026,0.221,0.078c0.052,0.052,0.078,0.126,0.078,0.221v0.416l-0.084,0.208l-0.215,0.078h-0.767
		c-0.121,0.13-0.219,0.334-0.292,0.611c-0.074,0.277-0.111,0.59-0.111,0.936v4.589l-0.091,0.208L240.175,206.077 M234.364,206.077
		h-0.546l-0.214-0.085l-0.085-0.214v-3.887c0-1.491-0.745-2.236-2.236-2.236h-0.936c-0.087,0.546-0.15,0.999-0.189,1.359
		c-0.039,0.36-0.054,0.769-0.045,1.229l0.026,3.536l-0.085,0.214l-0.215,0.085l-1.807-0.026l-0.215-0.084l-0.084-0.215v-0.39
		l0.084-0.215l0.215-0.085l1.001,0.013v-2.782c-0.009-0.546,0.002-1.007,0.033-1.384c0.03-0.377,0.102-0.795,0.215-1.255h-0.702
		l-0.215-0.078l-0.085-0.208v-0.416c0-0.095,0.028-0.169,0.085-0.221l0.215-0.078h2.782c2.201,0,3.302,1.057,3.302,3.172v3.952
		l-0.084,0.214L234.364,206.077 M212.81,206.077h-3.354l-0.208-0.085l-0.078-0.214v-0.416l0.078-0.215l0.208-0.085h2.509v-3.159
		c0-0.659-0.167-1.194-0.501-1.605c-0.334-0.412-0.756-0.617-1.267-0.617h-1.378l-1.001,6.084l-0.111,0.221l-0.214,0.091h-0.546
		l-0.201-0.091l-0.059-0.221l1.04-6.084h-0.663l-0.215-0.085l-0.085-0.215v-0.429l0.085-0.214l0.215-0.085h3.263
		c0.537,0,1.016,0.128,1.436,0.383c0.42,0.256,0.75,0.622,0.988,1.099c0.238,0.477,0.358,1.04,0.358,1.69v3.952l-0.085,0.214
		L212.81,206.077 M204.672,206.077H204.1l-0.214-0.085l-0.085-0.214v-6.825c0-0.095,0.028-0.169,0.085-0.221l0.214-0.078h0.572
		l0.215,0.085l0.085,0.214v6.825l-0.085,0.214L204.672,206.077 M244.348,203.061h-0.572l-0.215-0.084l-0.084-0.215v-3.809
		c0-0.095,0.028-0.169,0.084-0.221l0.215-0.078h0.572l0.215,0.085l0.084,0.214v3.809l-0.084,0.215L244.348,203.061 M215.839,203.061
		h-0.572l-0.215-0.084l-0.084-0.215v-3.809c0-0.095,0.028-0.169,0.084-0.221l0.215-0.078h0.572l0.215,0.085l0.084,0.214v3.809
		l-0.084,0.215L215.839,203.061"/>
	<path fill="#000000" d="M283.165,206.077h-0.637l-0.208-0.085l-0.078-0.214v-7.332l-2.184,1.677l-0.195,0.078l-0.221-0.13
		l-0.312-0.403l-0.065-0.182c0-0.095,0.043-0.173,0.13-0.234l2.821-2.184c0.095-0.061,0.208-0.091,0.338-0.091h0.611l0.214,0.084
		l0.085,0.215v8.502l-0.085,0.214L283.165,206.077"/>
	<path fill="#000000" d="M278.199,225.46h-0.533l-0.215-0.078c-0.056-0.052-0.084-0.126-0.084-0.221v-6.851l0.084-0.214l0.215-0.085
		h0.533l0.215,0.085l0.084,0.214v6.851l-0.084,0.214L278.199,225.46 M280.045,223.107l-0.163-0.065l-0.071-0.182v-0.572
		c0-0.156,0.095-0.273,0.286-0.351l0.507-0.195c0.598-0.225,1.057-0.55,1.378-0.975c0.321-0.425,0.481-1.049,0.481-1.872
		c0-0.581-0.069-1.038-0.208-1.372c-0.139-0.333-0.366-0.574-0.682-0.721c-0.316-0.147-0.752-0.221-1.307-0.221h-2.6l-0.215-0.085
		l-0.084-0.215v-0.442l0.084-0.208l0.215-0.078h2.756c0.797,0,1.428,0.113,1.891,0.338c0.464,0.226,0.799,0.585,1.007,1.079
		s0.312,1.153,0.312,1.976c0,1.109-0.273,1.974-0.819,2.593c-0.546,0.62-1.257,1.077-2.132,1.372l-0.546,0.182L280.045,223.107
		 M262.313,223.107c-1.136,0-1.963-0.271-2.483-0.813c-0.52-0.542-0.78-1.333-0.78-2.373v-4.069c0-0.095,0.028-0.169,0.084-0.221
		l0.215-0.078h0.494c0.095,0,0.169,0.026,0.221,0.078c0.052,0.052,0.078,0.126,0.078,0.221v4.004c0,0.719,0.18,1.27,0.539,1.651
		c0.36,0.382,0.903,0.572,1.632,0.572c0.719,0,1.25-0.176,1.592-0.527c0.342-0.351,0.522-0.882,0.539-1.592v-0.403v-0.936
		c-0.018-0.71-0.169-1.239-0.455-1.586c-0.286-0.346-0.676-0.52-1.17-0.52c-0.156,0-0.329,0.028-0.52,0.085
		c-0.191,0.056-0.355,0.128-0.494,0.214l-0.13,0.039l-0.163-0.072l-0.072-0.163v-0.377c0-0.104,0.009-0.186,0.026-0.247l0.143-0.156
		c0.182-0.121,0.375-0.21,0.579-0.266c0.203-0.056,0.461-0.085,0.773-0.085c0.84,0,1.48,0.245,1.917,0.735
		c0.438,0.49,0.669,1.246,0.696,2.269c0.008,0.087,0.013,0.342,0.013,0.767c0,0.425-0.005,0.68-0.013,0.767
		c-0.035,1.04-0.306,1.813-0.813,2.32C264.257,222.854,263.439,223.107,262.313,223.107 M242.54,223.107l-0.163-0.065l-0.071-0.182
		v-0.572c0-0.156,0.095-0.273,0.286-0.351l0.507-0.195c0.598-0.225,1.057-0.55,1.378-0.975c0.321-0.425,0.481-1.049,0.481-1.872
		c0-0.581-0.069-1.038-0.208-1.372c-0.139-0.333-0.366-0.574-0.682-0.721c-0.316-0.147-0.752-0.221-1.307-0.221h-0.403h-0.039
		l-1.196-0.013l-0.214-0.078l-0.085-0.208v-2.236l0.085-0.214l0.214-0.085h0.52l0.208,0.085l0.078,0.214v1.508h1.001
		c0.788,0,1.415,0.113,1.879,0.338c0.464,0.226,0.799,0.585,1.007,1.079c0.208,0.494,0.312,1.153,0.312,1.976
		c0,1.109-0.273,1.974-0.819,2.593c-0.546,0.62-1.257,1.077-2.132,1.372l-0.546,0.182L242.54,223.107 M275.053,222.977h-0.572
		l-0.214-0.085l-0.085-0.214v-6.825c0-0.095,0.028-0.169,0.085-0.221l0.214-0.078h0.572l0.215,0.085l0.084,0.215v6.825l-0.084,0.214
		L275.053,222.977 M271.933,222.977h-0.546l-0.215-0.085l-0.084-0.214v-3.887c0-1.491-0.745-2.236-2.236-2.236h-1.677l-0.215-0.078
		l-0.084-0.208v-0.416l0.084-0.215l0.215-0.085h1.755c2.201,0,3.302,1.058,3.302,3.172v3.952l-0.085,0.214L271.933,222.977
		 M253.668,222.977h-3.354l-0.208-0.085l-0.078-0.214v-0.416l0.078-0.215l0.208-0.085h2.509v-3.159c0-0.659-0.167-1.194-0.5-1.605
		c-0.334-0.412-0.756-0.617-1.267-0.617h-1.378l-1.001,6.084l-0.11,0.221l-0.215,0.091h-0.546l-0.202-0.091l-0.058-0.221l1.04-6.084
		h-0.663l-0.214-0.085l-0.085-0.215v-0.429l0.085-0.215l0.214-0.085h3.263c0.537,0,1.016,0.128,1.437,0.384
		c0.42,0.256,0.75,0.622,0.988,1.099c0.238,0.477,0.358,1.04,0.358,1.69v3.952l-0.085,0.214L253.668,222.977 M239.043,222.977
		h-0.546l-0.214-0.085l-0.085-0.214v-3.887c0-1.491-0.745-2.236-2.236-2.236h-1.586v6.123l-0.084,0.214l-0.215,0.085h-0.546
		l-0.214-0.085l-0.085-0.214v-6.825c0-0.095,0.028-0.169,0.085-0.221l0.214-0.078h2.496c1.118,0,1.95,0.267,2.496,0.8
		c0.546,0.533,0.819,1.332,0.819,2.398v3.926l-0.084,0.214L239.043,222.977"/>
	<path fill="#000000" d="M197.457,242.36h-0.533l-0.214-0.078c-0.057-0.052-0.085-0.126-0.085-0.221v-6.851l0.085-0.214l0.214-0.085
		h0.533l0.214,0.085l0.085,0.214v6.851l-0.085,0.214L197.457,242.36 M199.303,240.007l-0.163-0.065l-0.072-0.182v-0.572
		c0-0.156,0.095-0.273,0.286-0.351l0.507-0.195c0.598-0.225,1.057-0.55,1.378-0.975c0.321-0.425,0.481-1.049,0.481-1.872
		c0-0.58-0.07-1.038-0.208-1.371c-0.139-0.334-0.366-0.574-0.682-0.722c-0.316-0.147-0.752-0.221-1.307-0.221h-2.6l-0.214-0.085
		l-0.085-0.214v-0.442l0.085-0.208l0.214-0.078h2.756c0.797,0,1.428,0.113,1.891,0.338c0.464,0.226,0.8,0.585,1.008,1.079
		c0.208,0.494,0.312,1.153,0.312,1.976c0,1.109-0.273,1.974-0.819,2.593c-0.546,0.62-1.257,1.077-2.132,1.372l-0.546,0.182
		L199.303,240.007 M252.589,239.994c-0.147,0-0.221-0.07-0.221-0.208v-0.611c0-0.147,0.091-0.255,0.273-0.325
		c0.026-0.009,0.197-0.067,0.514-0.176c0.316-0.108,0.6-0.245,0.851-0.41c0.26-0.165,0.516-0.392,0.767-0.682
		c0.251-0.29,0.429-0.565,0.533-0.825l-0.234-1.17c-0.104-0.511-0.214-0.917-0.331-1.216c-0.117-0.299-0.275-0.527-0.474-0.682
		c-0.199-0.156-0.459-0.234-0.78-0.234h-0.481l-0.214-0.078l-0.085-0.208v-0.442l0.085-0.214l0.214-0.085h0.481
		c0.554,0,1.01,0.113,1.365,0.338c0.355,0.225,0.639,0.561,0.851,1.007c0.212,0.447,0.392,1.029,0.54,1.749l0.78,4.056v0.052
		l-0.084,0.175l-0.201,0.072h-0.572c-0.165,0-0.265-0.1-0.299-0.299l-0.299-1.521c-0.321,0.494-0.689,0.88-1.105,1.157
		c-0.321,0.217-0.62,0.384-0.897,0.5c-0.277,0.117-0.572,0.206-0.884,0.266L252.589,239.994 M250.496,239.877h-0.546l-0.214-0.085
		l-0.085-0.214v-3.887c0-1.491-0.745-2.236-2.236-2.236h-1.677l-0.215-0.078l-0.084-0.208v-0.416l0.084-0.215l0.215-0.085h1.755
		c2.201,0,3.302,1.058,3.302,3.172v3.952l-0.085,0.214L250.496,239.877 M237.47,239.877h-0.546l-0.215-0.085l-0.084-0.214v-3.887
		c0-1.491-0.745-2.236-2.236-2.236h-1.586v6.123l-0.085,0.214l-0.214,0.085h-0.546l-0.215-0.085l-0.084-0.214v-6.825
		c0-0.095,0.028-0.169,0.084-0.221l0.215-0.078h2.496c1.118,0,1.95,0.267,2.496,0.8c0.546,0.533,0.819,1.332,0.819,2.398v3.926
		l-0.085,0.214L237.47,239.877 M229.41,239.877h-3.354l-0.208-0.085l-0.078-0.214v-0.416l0.078-0.215l0.208-0.084h2.509v-3.159
		c0-0.659-0.167-1.194-0.5-1.605c-0.334-0.411-0.756-0.617-1.267-0.617h-1.378l-1.001,6.084l-0.11,0.221l-0.215,0.091h-0.546
		l-0.202-0.091l-0.058-0.221l1.04-6.084h-0.663l-0.214-0.085l-0.085-0.214v-0.429l0.085-0.215l0.214-0.085h3.263
		c0.537,0,1.016,0.128,1.437,0.384c0.42,0.256,0.75,0.622,0.988,1.098c0.238,0.477,0.358,1.04,0.358,1.69v3.952l-0.085,0.214
		L229.41,239.877 M221.611,239.877h-0.585c-0.113,0-0.199-0.033-0.26-0.098l-0.104-0.11l-2.964-4.173
		c-0.373,0.269-0.626,0.587-0.76,0.956c-0.134,0.369-0.201,0.774-0.201,1.216v1.911l-0.085,0.214l-0.214,0.085h-0.481l-0.215-0.085
		l-0.084-0.214v-1.963c0-0.641,0.098-1.2,0.292-1.677c0.195-0.477,0.579-0.906,1.151-1.287l-1.209-1.69
		c-0.061-0.095-0.091-0.178-0.091-0.247l0.078-0.182l0.182-0.078h0.572c0.138,0,0.26,0.074,0.364,0.221l2.73,3.809
		c0.312-0.182,0.539-0.373,0.682-0.572c0.143-0.199,0.232-0.396,0.266-0.592c0.035-0.195,0.052-0.449,0.052-0.76v-1.807l0.085-0.215
		l0.214-0.085h0.507l0.214,0.085l0.085,0.215v1.859c0,0.589-0.102,1.094-0.306,1.515c-0.204,0.42-0.613,0.813-1.229,1.176
		l1.482,2.067l0.091,0.247l-0.078,0.182L221.611,239.877 M213.72,239.877h-0.546l-0.214-0.085l-0.085-0.214v-3.887
		c0-1.491-0.741-2.236-2.223-2.236h-2.418l-0.215-0.078l-0.085-0.208v-0.416c0-0.095,0.028-0.169,0.085-0.221l0.215-0.078h2.483
		c2.201,0,3.302,1.066,3.302,3.198v3.926l-0.085,0.214L213.72,239.877 M208.78,239.877h-0.546l-0.215-0.085l-0.085-0.214v-4.368
		l0.085-0.214l0.215-0.085h0.546l0.215,0.085l0.084,0.214v4.368l-0.084,0.214L208.78,239.877 M194.376,239.877h-0.546l-0.215-0.085
		l-0.084-0.214v-3.887c0-1.491-0.745-2.236-2.236-2.236h-1.677l-0.215-0.078l-0.085-0.208v-0.416l0.085-0.215l0.215-0.085h1.755
		c2.201,0,3.302,1.058,3.302,3.172v3.952l-0.085,0.214L194.376,239.877 M187.655,239.877h-0.546l-0.214-0.085l-0.085-0.214v-3.887
		c0-1.491-0.741-2.236-2.223-2.236h-2.418l-0.215-0.078l-0.084-0.208v-0.416c0-0.095,0.028-0.169,0.084-0.221l0.215-0.078h2.483
		c2.201,0,3.302,1.066,3.302,3.198v3.926l-0.084,0.214L187.655,239.877 M182.715,239.877h-0.546l-0.215-0.085l-0.084-0.214v-4.368
		l0.084-0.214l0.215-0.085h0.546l0.215,0.085l0.085,0.214v4.368l-0.085,0.214L182.715,239.877 M243.502,233.494h-0.377
		c-0.156,0-0.243-0.095-0.26-0.286l-0.221-2.262v-0.052l0.071-0.182l0.189-0.065h0.819l0.201,0.085l0.059,0.214l-0.221,2.262
		C243.745,233.399,243.658,233.494,243.502,233.494"/>
	<path fill="#000000" d="M280.344,240.007c-1.118,0-1.935-0.327-2.451-0.982c-0.516-0.654-0.791-1.51-0.825-2.567l-0.013-1.118
		l0.013-1.157c0.026-1.049,0.301-1.9,0.825-2.555c0.524-0.654,1.341-0.981,2.451-0.981c1.118,0,1.939,0.327,2.463,0.981
		c0.524,0.655,0.8,1.506,0.826,2.555c0.009,0.243,0.013,0.628,0.013,1.157c0,0.512-0.004,0.884-0.013,1.118
		c-0.035,1.057-0.31,1.913-0.826,2.567C282.291,239.68,281.47,240.007,280.344,240.007 M280.344,231.713
		c-0.659,0-1.157,0.223-1.495,0.67c-0.338,0.447-0.516,1.068-0.533,1.866l-0.013,1.066l0.013,1.079
		c0.017,0.806,0.195,1.43,0.533,1.872c0.338,0.442,0.836,0.663,1.495,0.663c0.667,0,1.17-0.221,1.508-0.663
		c0.338-0.442,0.516-1.066,0.533-1.872c0.009-0.251,0.013-0.611,0.013-1.079c0-0.477-0.004-0.832-0.013-1.066
		c-0.018-0.797-0.197-1.419-0.539-1.866C281.503,231.936,281.002,231.713,280.344,231.713 M272.115,240.007
		c-1.118,0-1.935-0.327-2.451-0.982c-0.516-0.654-0.791-1.51-0.825-2.567l-0.013-1.118l0.013-1.157
		c0.026-1.049,0.301-1.9,0.825-2.555c0.524-0.654,1.341-0.981,2.451-0.981c1.118,0,1.939,0.327,2.464,0.981
		c0.524,0.655,0.799,1.506,0.825,2.555c0.009,0.243,0.013,0.628,0.013,1.157c0,0.512-0.004,0.884-0.013,1.118
		c-0.035,1.057-0.31,1.913-0.825,2.567C274.062,239.68,273.241,240.007,272.115,240.007 M272.115,231.713
		c-0.659,0-1.157,0.223-1.495,0.67c-0.338,0.447-0.516,1.068-0.533,1.866l-0.013,1.066l0.013,1.079
		c0.017,0.806,0.195,1.43,0.533,1.872c0.338,0.442,0.836,0.663,1.495,0.663c0.667,0,1.17-0.221,1.508-0.663
		c0.338-0.442,0.516-1.066,0.533-1.872c0.009-0.251,0.013-0.611,0.013-1.079c0-0.477-0.004-0.832-0.013-1.066
		c-0.017-0.797-0.197-1.419-0.539-1.866C273.274,231.936,272.773,231.713,272.115,231.713 M267.045,239.877h-5.694l-0.215-0.085
		l-0.084-0.214v-0.39c0-0.199,0.108-0.39,0.325-0.572l2.834-2.821c0.641-0.546,1.083-0.992,1.326-1.339
		c0.243-0.347,0.364-0.715,0.364-1.105c0-0.511-0.143-0.912-0.429-1.202c-0.286-0.29-0.702-0.436-1.248-0.436
		c-0.52,0-0.932,0.152-1.235,0.455c-0.304,0.304-0.49,0.711-0.559,1.222c-0.018,0.095-0.061,0.169-0.13,0.221l-0.208,0.078h-0.624
		l-0.195-0.078l-0.078-0.182c0.017-0.459,0.141-0.903,0.371-1.332c0.229-0.429,0.57-0.78,1.02-1.053
		c0.451-0.273,0.997-0.409,1.638-0.409c0.971,0,1.701,0.253,2.191,0.76c0.489,0.507,0.735,1.151,0.735,1.931
		c0,0.546-0.132,1.038-0.397,1.475c-0.264,0.438-0.678,0.899-1.241,1.384l-2.561,2.6h4.095c0.095,0,0.169,0.026,0.221,0.078
		c0.052,0.052,0.078,0.126,0.078,0.221v0.494l-0.084,0.214L267.045,239.877"/>
	<path fill="#000000" d="M173.395,258.844l-0.201-0.084l-0.085-0.215v-0.429l0.078-0.201l0.182-0.085
		c0.485-0.009,0.869-0.176,1.151-0.501c0.282-0.325,0.483-0.851,0.605-1.579c0.121-0.728,0.182-1.725,0.182-2.99
		c0-1.265-0.061-2.26-0.182-2.983c-0.121-0.724-0.323-1.248-0.605-1.573c-0.282-0.325-0.665-0.492-1.151-0.501l-0.182-0.084
		l-0.078-0.202v-0.429l0.085-0.214l0.201-0.085c0.745,0,1.337,0.21,1.774,0.63c0.438,0.421,0.752,1.071,0.943,1.95
		c0.19,0.88,0.286,2.043,0.286,3.49c0,1.448-0.096,2.613-0.286,3.497c-0.191,0.884-0.505,1.536-0.943,1.956
		C174.731,258.634,174.14,258.844,173.395,258.844 M58.841,258.844c-0.745,0-1.337-0.21-1.774-0.63
		c-0.438-0.421-0.752-1.073-0.943-1.956c-0.191-0.884-0.286-2.05-0.286-3.497c0-1.447,0.095-2.611,0.286-3.49
		c0.19-0.88,0.505-1.53,0.943-1.95c0.438-0.42,1.029-0.63,1.774-0.63l0.215,0.085l0.084,0.214v0.429l-0.078,0.202l-0.182,0.084
		c-0.494,0.009-0.88,0.175-1.157,0.501c-0.277,0.325-0.477,0.849-0.598,1.573c-0.121,0.724-0.182,1.718-0.182,2.983
		c0,1.274,0.061,2.273,0.182,2.997c0.121,0.724,0.321,1.248,0.598,1.573c0.277,0.325,0.663,0.492,1.157,0.501l0.182,0.085
		l0.078,0.201v0.429l-0.084,0.215L58.841,258.844 M257.1,256.907c-1.066,0-1.866-0.28-2.398-0.838c-0.533-0.559-0.8-1.363-0.8-2.412
		v-4.004c0-0.095,0.028-0.169,0.085-0.221l0.214-0.078h3.12c1.118,0,1.92,0.251,2.405,0.754c0.485,0.503,0.75,1.274,0.793,2.314
		c0.009,0.087,0.013,0.321,0.013,0.702c0,0.381-0.005,0.615-0.013,0.702c-0.026,1.031-0.308,1.803-0.845,2.314
		C259.137,256.652,258.279,256.907,257.1,256.907 M254.994,250.355v3.302c0,0.72,0.176,1.27,0.527,1.651
		c0.351,0.382,0.873,0.572,1.566,0.572c0.815,0,1.399-0.171,1.755-0.513c0.355-0.342,0.542-0.878,0.559-1.606
		c0.008-0.086,0.013-0.299,0.013-0.637c0-0.338-0.005-0.55-0.013-0.637c-0.018-0.693-0.215-1.222-0.592-1.586
		s-0.895-0.546-1.554-0.546H254.994 M145.342,256.907c-1.066,0-1.866-0.28-2.399-0.838c-0.533-0.559-0.8-1.363-0.8-2.412v-4.004
		c0-0.095,0.028-0.169,0.085-0.221l0.215-0.078h3.12c1.118,0,1.919,0.251,2.405,0.754c0.485,0.503,0.75,1.274,0.793,2.314
		c0.008,0.087,0.013,0.321,0.013,0.702c0,0.381-0.005,0.615-0.013,0.702c-0.026,1.031-0.308,1.803-0.845,2.314
		C147.378,256.652,146.52,256.907,145.342,256.907 M143.235,250.355v3.302c0,0.72,0.176,1.27,0.527,1.651
		c0.351,0.382,0.873,0.572,1.566,0.572c0.815,0,1.4-0.171,1.755-0.513c0.355-0.342,0.541-0.878,0.559-1.606
		c0.009-0.086,0.013-0.299,0.013-0.637c0-0.338-0.004-0.55-0.013-0.637c-0.018-0.693-0.215-1.222-0.592-1.586
		c-0.377-0.364-0.895-0.546-1.553-0.546H143.235 M104.158,256.907l-0.163-0.065l-0.071-0.182v-0.572
		c0-0.156,0.095-0.273,0.286-0.351l0.507-0.195c0.598-0.225,1.057-0.55,1.378-0.975c0.321-0.425,0.481-1.049,0.481-1.872
		c0-0.581-0.069-1.038-0.208-1.372c-0.139-0.334-0.366-0.574-0.682-0.722c-0.316-0.147-0.752-0.221-1.307-0.221h-0.403h-0.039
		l-1.196-0.013l-0.214-0.078l-0.085-0.208v-2.236l0.085-0.214l0.214-0.085h0.52l0.208,0.085l0.078,0.214v1.508h1.001
		c0.789,0,1.415,0.113,1.879,0.338c0.464,0.226,0.799,0.585,1.007,1.079c0.208,0.494,0.312,1.153,0.312,1.976
		c0,1.109-0.273,1.974-0.819,2.593c-0.546,0.62-1.257,1.077-2.132,1.372l-0.546,0.182L104.158,256.907 M79.55,256.907l-0.163-0.065
		l-0.071-0.182v-0.572c0-0.156,0.095-0.273,0.286-0.351l0.507-0.195c0.598-0.225,1.057-0.55,1.378-0.975
		c0.321-0.425,0.481-1.049,0.481-1.872c0-0.581-0.069-1.038-0.208-1.372c-0.139-0.334-0.366-0.574-0.682-0.722
		c-0.316-0.147-0.752-0.221-1.307-0.221h-0.403h-0.039l-1.196-0.013l-0.214-0.078l-0.085-0.208v-2.236l0.085-0.214l0.214-0.085h0.52
		l0.208,0.085l0.078,0.214v1.508h1.001c0.789,0,1.415,0.113,1.879,0.338c0.464,0.226,0.8,0.585,1.008,1.079s0.312,1.153,0.312,1.976
		c0,1.109-0.273,1.974-0.819,2.593c-0.546,0.62-1.257,1.077-2.132,1.372l-0.546,0.182L79.55,256.907 M69.748,256.907l-0.163-0.065
		l-0.072-0.182v-0.572c0-0.156,0.095-0.273,0.286-0.351l0.507-0.195c0.598-0.225,1.057-0.55,1.378-0.975
		c0.321-0.425,0.481-1.049,0.481-1.872c0-0.581-0.07-1.038-0.208-1.372c-0.139-0.334-0.366-0.574-0.682-0.722
		c-0.316-0.147-0.752-0.221-1.307-0.221h-0.403h-0.039l-1.196-0.013l-0.215-0.078l-0.085-0.208v-2.236l0.085-0.214l0.215-0.085h0.52
		l0.208,0.085l0.078,0.214v1.508h1.001c0.789,0,1.415,0.113,1.879,0.338c0.464,0.226,0.8,0.585,1.008,1.079s0.312,1.153,0.312,1.976
		c0,1.109-0.273,1.974-0.819,2.593c-0.546,0.62-1.257,1.077-2.132,1.372l-0.546,0.182L69.748,256.907 M283.399,256.777h-3.081
		l-0.208-0.078l-0.078-0.208v-0.273l0.065-0.201c0.043-0.065,0.125-0.145,0.247-0.241l0.598-0.429
		c0.459-0.32,0.793-0.566,1.001-0.735s0.366-0.331,0.474-0.487c0.108-0.156,0.163-0.325,0.163-0.507
		c0-0.199-0.072-0.358-0.215-0.475c-0.143-0.117-0.319-0.176-0.527-0.176c-0.191,0-0.34,0.031-0.448,0.091
		c-0.108,0.061-0.178,0.115-0.208,0.162c-0.03,0.048-0.076,0.132-0.137,0.254c-0.052,0.095-0.1,0.158-0.143,0.188l-0.169,0.045
		h-0.351c-0.156,0-0.234-0.074-0.234-0.221c0-0.225,0.078-0.44,0.234-0.644c0.156-0.203,0.362-0.368,0.617-0.494
		c0.255-0.125,0.535-0.188,0.838-0.188c0.494,0,0.893,0.141,1.196,0.422c0.303,0.282,0.455,0.622,0.455,1.021
		c0,0.304-0.067,0.57-0.202,0.8c-0.134,0.23-0.334,0.455-0.598,0.676c-0.264,0.221-0.652,0.509-1.164,0.864h1.872l0.208,0.078
		l0.078,0.208v0.26l-0.078,0.208L283.399,256.777 M275.937,256.777h-0.351l-0.188-0.071l-0.071-0.189l0.052-0.143l6.409-8.45
		c0.069-0.095,0.132-0.16,0.189-0.195c0.056-0.035,0.136-0.052,0.241-0.052h0.351l0.195,0.071l0.078,0.189l-0.052,0.143l-6.422,8.45
		l-0.188,0.189C276.121,256.758,276.041,256.777,275.937,256.777 M267.669,256.777h-1.924l-0.215-0.085l-0.084-0.214v-0.429
		c0-0.095,0.028-0.169,0.084-0.221l0.215-0.078h1.859c0.754,0,1.309-0.191,1.664-0.572c0.355-0.381,0.55-0.936,0.585-1.664
		c0.009-0.121,0.013-0.273,0.013-0.455c0-0.173-0.004-0.321-0.013-0.442c-0.026-0.737-0.219-1.293-0.579-1.67
		c-0.36-0.377-0.916-0.565-1.671-0.565h-1.859l-0.215-0.085l-0.084-0.214v-0.429c0-0.095,0.028-0.169,0.084-0.221l0.215-0.078h1.924
		c1.101,0,1.918,0.275,2.451,0.826c0.533,0.55,0.817,1.345,0.851,2.385c0.009,0.121,0.013,0.286,0.013,0.494
		s-0.005,0.377-0.013,0.507c-0.035,1.04-0.318,1.835-0.851,2.385C269.586,256.502,268.769,256.777,267.669,256.777 M263.132,256.777
		h-0.572l-0.215-0.085l-0.085-0.214v-6.825c0-0.095,0.028-0.169,0.085-0.221l0.215-0.078h0.572l0.214,0.085l0.085,0.215v6.825
		l-0.085,0.214L263.132,256.777 M248.533,256.777h-0.546l-0.214-0.085l-0.085-0.214v-3.887c0-1.491-0.745-2.236-2.236-2.236h-1.677
		l-0.214-0.078l-0.085-0.208v-0.416l0.085-0.215l0.214-0.085h1.755c2.201,0,3.302,1.058,3.302,3.172v3.952l-0.084,0.214
		L248.533,256.777 M239.122,256.777h-5.408l-0.208-0.085l-0.078-0.214v-0.416l0.078-0.215l0.208-0.084h3.757v-3.172
		c0-1.482-0.745-2.223-2.236-2.223h-1.391l-0.208-0.085l-0.078-0.215v-0.416l0.078-0.215l0.208-0.085h1.456
		c2.219,0,3.328,1.062,3.328,3.185v3.224h0.494l0.208,0.084l0.078,0.215v0.416l-0.078,0.214L239.122,256.777 M231.491,256.777
		h-0.546l-0.215-0.085l-0.084-0.214v-3.887c0-1.491-0.741-2.236-2.223-2.236h-2.418l-0.214-0.078l-0.085-0.208v-0.416
		c0-0.095,0.028-0.169,0.085-0.221l0.214-0.078h2.483c2.201,0,3.302,1.066,3.302,3.198v3.926l-0.085,0.214L231.491,256.777
		 M226.551,256.777h-0.546l-0.214-0.085l-0.085-0.214v-4.368l0.085-0.214l0.214-0.085h0.546l0.215,0.085l0.084,0.214v4.368
		l-0.084,0.214L226.551,256.777 M220.532,256.777h-0.585c-0.113,0-0.199-0.033-0.26-0.098l-0.104-0.11l-2.964-4.173
		c-0.373,0.269-0.626,0.587-0.76,0.956c-0.134,0.369-0.201,0.774-0.201,1.216v1.911l-0.085,0.214l-0.214,0.085h-0.481l-0.215-0.085
		l-0.084-0.214v-1.963c0-0.641,0.098-1.2,0.292-1.677c0.195-0.477,0.579-0.906,1.151-1.287l-1.209-1.69
		c-0.061-0.095-0.091-0.178-0.091-0.247l0.078-0.182l0.182-0.078h0.572c0.138,0,0.26,0.074,0.364,0.221l2.73,3.809
		c0.312-0.182,0.539-0.373,0.682-0.572c0.143-0.199,0.232-0.396,0.266-0.592c0.035-0.195,0.052-0.449,0.052-0.76v-1.807l0.085-0.215
		l0.214-0.085h0.507l0.214,0.085l0.085,0.215v1.859c0,0.589-0.102,1.094-0.306,1.515c-0.204,0.42-0.613,0.813-1.229,1.176
		l1.482,2.067l0.091,0.247l-0.078,0.182L220.532,256.777 M206.843,256.777h-1.924l-0.215-0.085l-0.084-0.214v-0.429
		c0-0.095,0.028-0.169,0.084-0.221l0.215-0.078h1.859c0.754,0,1.309-0.191,1.664-0.572c0.355-0.381,0.55-0.936,0.585-1.664
		c0.008-0.121,0.013-0.273,0.013-0.455c0-0.173-0.005-0.321-0.013-0.442c-0.026-0.737-0.219-1.293-0.579-1.67
		c-0.36-0.377-0.916-0.565-1.671-0.565h-1.859l-0.215-0.085l-0.084-0.214v-0.429c0-0.095,0.028-0.169,0.084-0.221l0.215-0.078h1.924
		c1.101,0,1.917,0.275,2.45,0.826c0.533,0.55,0.817,1.345,0.851,2.385c0.009,0.121,0.013,0.286,0.013,0.494
		s-0.005,0.377-0.013,0.507c-0.035,1.04-0.318,1.835-0.851,2.385C208.761,256.502,207.944,256.777,206.843,256.777 M202.306,256.777
		h-0.572l-0.214-0.085l-0.085-0.214v-6.825c0-0.095,0.028-0.169,0.085-0.221l0.214-0.078h0.572l0.215,0.085l0.085,0.215v6.825
		l-0.085,0.214L202.306,256.777 M199.186,256.777h-0.546l-0.215-0.085l-0.084-0.214v-3.887c0-1.491-0.745-2.236-2.236-2.236h-0.936
		c-0.087,0.546-0.15,0.999-0.188,1.358c-0.039,0.36-0.054,0.769-0.045,1.229l0.026,3.536l-0.085,0.214l-0.214,0.085l-1.807-0.026
		l-0.214-0.085l-0.085-0.215v-0.39l0.085-0.215l0.214-0.084l1.001,0.013v-2.782c-0.009-0.546,0.002-1.008,0.033-1.385
		c0.03-0.377,0.102-0.795,0.215-1.254h-0.702l-0.214-0.078l-0.085-0.208v-0.416c0-0.095,0.028-0.169,0.085-0.221l0.214-0.078h2.782
		c2.201,0,3.302,1.058,3.302,3.172v3.952l-0.085,0.214L199.186,256.777 M187.669,256.777h-0.546l-0.215-0.085l-0.084-0.214v-3.887
		c0-1.491-0.745-2.236-2.236-2.236h-0.936c-0.087,0.546-0.15,0.999-0.188,1.358c-0.039,0.36-0.054,0.769-0.045,1.229l0.026,3.536
		l-0.085,0.214l-0.214,0.085l-1.807-0.026l-0.214-0.085l-0.085-0.215v-0.39l0.085-0.215l0.214-0.084l1.001,0.013v-2.782
		c-0.009-0.546,0.002-1.008,0.033-1.385c0.03-0.377,0.102-0.795,0.215-1.254h-0.702l-0.214-0.078l-0.085-0.208v-0.416
		c0-0.095,0.028-0.169,0.085-0.221l0.214-0.078h2.782c2.201,0,3.302,1.058,3.302,3.172v3.952l-0.085,0.214L187.669,256.777
		 M171.549,256.777h-0.546l-0.215-0.085l-0.085-0.214v-3.887c0-1.491-0.745-2.236-2.236-2.236h-1.677l-0.214-0.078l-0.085-0.208
		v-0.416l0.085-0.215l0.214-0.085h1.755c2.201,0,3.302,1.058,3.302,3.172v3.952l-0.084,0.214L171.549,256.777 M164.581,256.777
		h-4.68l-0.214-0.085l-0.085-0.214v-0.429l0.085-0.208l0.214-0.078h3.536l-4.069-5.902c-0.07-0.113-0.104-0.195-0.104-0.247
		l0.085-0.182l0.201-0.078h0.572c0.139,0,0.256,0.07,0.351,0.208l2.327,3.354c0.737-0.347,1.105-1.057,1.105-2.132v-1.131
		c0-0.095,0.028-0.169,0.085-0.221l0.215-0.078h0.507l0.214,0.085l0.085,0.215v1.274c0,0.667-0.139,1.239-0.416,1.716
		c-0.277,0.477-0.685,0.841-1.222,1.092l1.352,1.95c0.104,0.13,0.156,0.26,0.156,0.39v0.403l-0.085,0.214L164.581,256.777
		 M157.574,256.777h-0.572l-0.215-0.085l-0.085-0.214v-6.825c0-0.095,0.028-0.169,0.085-0.221l0.215-0.078h0.572l0.214,0.085
		l0.085,0.215v6.825l-0.085,0.214L157.574,256.777 M139.973,256.777h-3.354l-0.208-0.085l-0.078-0.214v-0.416l0.078-0.215
		l0.208-0.084h2.509v-3.159c0-0.659-0.167-1.194-0.5-1.605c-0.334-0.411-0.756-0.617-1.268-0.617h-1.378l-1.001,6.084l-0.11,0.221
		l-0.215,0.091h-0.546l-0.201-0.091l-0.058-0.221l1.04-6.084h-0.663l-0.214-0.085l-0.085-0.214v-0.429l0.085-0.215l0.214-0.085
		h3.263c0.537,0,1.016,0.128,1.437,0.384c0.42,0.256,0.749,0.622,0.988,1.099c0.238,0.477,0.357,1.04,0.357,1.69v3.952l-0.084,0.214
		L139.973,256.777 M126.102,256.777h-1.924l-0.215-0.085l-0.085-0.214v-0.429c0-0.095,0.028-0.169,0.085-0.221l0.215-0.078h1.859
		c0.754,0,1.309-0.191,1.664-0.572c0.355-0.381,0.55-0.936,0.585-1.664c0.008-0.121,0.013-0.273,0.013-0.455
		c0-0.173-0.005-0.321-0.013-0.442c-0.026-0.737-0.219-1.293-0.579-1.67c-0.36-0.377-0.916-0.565-1.67-0.565h-1.859l-0.215-0.085
		l-0.085-0.214v-0.429c0-0.095,0.028-0.169,0.085-0.221l0.215-0.078h1.924c1.101,0,1.917,0.275,2.451,0.826
		c0.533,0.55,0.817,1.345,0.851,2.385c0.009,0.121,0.013,0.286,0.013,0.494s-0.005,0.377-0.013,0.507
		c-0.035,1.04-0.319,1.835-0.851,2.385C128.019,256.502,127.202,256.777,126.102,256.777 M121.63,256.777h-0.546l-0.214-0.085
		l-0.085-0.214v-3.887c0-1.491-0.741-2.236-2.223-2.236h-2.418l-0.215-0.078l-0.084-0.208v-0.416c0-0.095,0.028-0.169,0.084-0.221
		l0.215-0.078h2.483c2.201,0,3.302,1.066,3.302,3.198v3.926l-0.084,0.214L121.63,256.777 M116.69,256.777h-0.546l-0.215-0.085
		l-0.084-0.214v-4.368l0.084-0.214l0.215-0.085h0.546l0.214,0.085l0.085,0.214v4.368l-0.085,0.214L116.69,256.777 M110.333,256.777
		h-0.572l-0.215-0.085l-0.085-0.214v-6.825c0-0.095,0.028-0.169,0.085-0.221l0.215-0.078h0.572l0.214,0.085l0.085,0.215v6.825
		l-0.085,0.214L110.333,256.777 M100.687,256.777h-0.585c-0.113,0-0.199-0.033-0.26-0.098l-0.104-0.11l-2.964-4.173
		c-0.373,0.269-0.626,0.587-0.76,0.956c-0.134,0.369-0.201,0.774-0.201,1.216v1.911l-0.085,0.214l-0.214,0.085h-0.481l-0.215-0.085
		l-0.084-0.214v-1.963c0-0.641,0.098-1.2,0.292-1.677c0.195-0.477,0.579-0.906,1.151-1.287l-1.209-1.69
		c-0.061-0.095-0.091-0.178-0.091-0.247l0.078-0.182l0.182-0.078h0.572c0.139,0,0.26,0.074,0.364,0.221l2.73,3.809
		c0.312-0.182,0.539-0.373,0.682-0.572c0.143-0.199,0.232-0.396,0.266-0.592c0.035-0.195,0.052-0.449,0.052-0.76v-1.807l0.085-0.215
		l0.214-0.085h0.507l0.215,0.085l0.085,0.215v1.859c0,0.589-0.102,1.094-0.306,1.515c-0.204,0.42-0.613,0.813-1.229,1.176
		l1.482,2.067l0.091,0.247l-0.078,0.182L100.687,256.777 M88.701,256.777h-0.546l-0.208-0.078l-0.078-0.208v-4.667
		c0-0.355,0.03-0.659,0.091-0.91c0.061-0.251,0.143-0.437,0.247-0.559H84.62l-0.215-0.078l-0.084-0.208v-0.416l0.084-0.215
		l0.215-0.085h5.564c0.095,0,0.169,0.026,0.221,0.078c0.052,0.052,0.078,0.126,0.078,0.221v0.416l-0.085,0.208l-0.215,0.078h-0.767
		c-0.122,0.13-0.219,0.334-0.293,0.611c-0.074,0.277-0.11,0.59-0.11,0.936v4.589l-0.091,0.208L88.701,256.777 M66.251,256.777
		h-0.546l-0.215-0.085l-0.084-0.214v-3.887c0-1.491-0.741-2.236-2.223-2.236h-2.418l-0.214-0.078l-0.085-0.208v-0.416
		c0-0.095,0.028-0.169,0.085-0.221l0.214-0.078h2.483c2.201,0,3.302,1.066,3.302,3.198v3.926l-0.085,0.214L66.251,256.777
		 M61.311,256.777h-0.546l-0.214-0.085l-0.085-0.214v-4.368l0.085-0.214l0.214-0.085h0.546l0.214,0.085l0.085,0.214v4.368
		l-0.085,0.214L61.311,256.777 M241.553,253.761h-0.572l-0.214-0.084l-0.085-0.215v-3.809c0-0.095,0.028-0.169,0.085-0.221
		l0.214-0.078h0.572l0.215,0.085l0.084,0.215v3.809l-0.084,0.215L241.553,253.761 M212.667,253.761h-0.572l-0.214-0.084
		l-0.085-0.215v-3.809c0-0.095,0.028-0.169,0.085-0.221l0.214-0.078h0.572l0.215,0.085l0.084,0.215v3.809l-0.084,0.215
		L212.667,253.761 M190.697,253.761h-0.572l-0.214-0.084l-0.085-0.215v-3.809c0-0.095,0.028-0.169,0.085-0.221l0.214-0.078h0.572
		l0.215,0.085l0.084,0.215v3.809l-0.084,0.215L190.697,253.761 M154.48,253.761h-0.572l-0.214-0.084l-0.085-0.215v-3.809
		c0-0.095,0.028-0.169,0.085-0.221l0.214-0.078h0.572l0.215,0.085l0.085,0.215v3.809l-0.085,0.215L154.48,253.761 M131.926,253.761
		h-0.572l-0.215-0.084l-0.084-0.215v-3.809c0-0.095,0.028-0.169,0.084-0.221l0.215-0.078h0.572l0.215,0.085l0.084,0.215v3.809
		l-0.084,0.215L131.926,253.761 M75.832,253.761H75.26l-0.215-0.084l-0.084-0.215v-3.809c0-0.095,0.028-0.169,0.084-0.221
		l0.215-0.078h0.572l0.214,0.085l0.085,0.215v3.809l-0.085,0.215L75.832,253.761 M277.146,252.227h-0.351l-0.208-0.078l-0.078-0.208
		v-3.12l-0.78,0.585l-0.169,0.052l-0.234-0.117l-0.156-0.208l-0.065-0.182l0.117-0.221l1.287-0.962
		c0.087-0.06,0.186-0.091,0.299-0.091h0.338l0.208,0.078l0.078,0.208v3.978l-0.078,0.208L277.146,252.227"/>
	<path fill="#000000" d="M280.175,290.707l-0.163-0.065l-0.071-0.182v-0.572c0-0.156,0.095-0.273,0.286-0.351l0.507-0.195
		c0.598-0.225,1.057-0.55,1.378-0.975c0.32-0.424,0.481-1.048,0.481-1.872c0-0.581-0.069-1.038-0.208-1.372
		c-0.139-0.333-0.366-0.574-0.682-0.722c-0.316-0.147-0.752-0.221-1.307-0.221h-0.403h-0.039l-1.196-0.013l-0.215-0.078
		l-0.084-0.208v-2.236l0.084-0.215l0.215-0.085h0.52l0.208,0.085l0.078,0.215v1.508h1.001c0.789,0,1.415,0.113,1.878,0.338
		c0.464,0.225,0.8,0.585,1.008,1.079c0.208,0.494,0.312,1.153,0.312,1.976c0,1.109-0.273,1.974-0.819,2.593
		c-0.546,0.62-1.257,1.077-2.132,1.371l-0.546,0.182L280.175,290.707 M274.104,290.577h-2.236l-0.215-0.084l-0.085-0.215v-0.429
		l0.085-0.214l0.215-0.085h2.171c0.607,0,1.075-0.195,1.404-0.585c0.329-0.39,0.507-0.94,0.533-1.651
		c0.008-0.086,0.013-0.238,0.013-0.455c0-0.208-0.005-0.355-0.013-0.442c-0.018-0.711-0.193-1.261-0.526-1.651
		c-0.334-0.39-0.804-0.585-1.411-0.585h-1.599v1.04c0,0.347,0.039,0.62,0.117,0.819c0.078,0.199,0.212,0.325,0.403,0.377l0.494,0.13
		l0.163,0.136c0.039,0.074,0.058,0.163,0.058,0.266v0.299c0,0.096-0.048,0.165-0.143,0.208c-0.068,0.031-0.141,0.047-0.217,0.047
		c-0.031,0-0.062-0.003-0.094-0.007l-0.507-0.104c-0.867-0.191-1.3-0.927-1.3-2.21v-1.729c0-0.095,0.028-0.169,0.085-0.221
		l0.215-0.078h2.392c0.953,0,1.677,0.277,2.171,0.832c0.494,0.555,0.758,1.348,0.793,2.379c0.009,0.087,0.013,0.251,0.013,0.494
		c0,0.251-0.004,0.42-0.013,0.507c-0.035,1.031-0.299,1.824-0.793,2.379C275.781,290.3,275.057,290.577,274.104,290.577
		 M266.161,290.577h-0.546l-0.214-0.084l-0.085-0.215v-3.887c0-1.49-0.745-2.236-2.236-2.236h-1.677l-0.215-0.078l-0.084-0.208
		v-0.416l0.084-0.215l0.215-0.084h1.755c2.201,0,3.302,1.057,3.302,3.172v3.952l-0.085,0.215L266.161,290.577 M259.089,290.577
		h-0.572l-0.215-0.084l-0.085-0.215v-6.825c0-0.095,0.028-0.169,0.085-0.221l0.215-0.078h0.572l0.214,0.084l0.085,0.215v6.825
		l-0.085,0.215L259.089,290.577 M255.969,290.577h-0.546l-0.214-0.084l-0.085-0.215v-3.887c0-1.49-0.745-2.236-2.236-2.236h-1.677
		l-0.214-0.078l-0.085-0.208v-0.416l0.085-0.215l0.214-0.084h1.755c2.201,0,3.302,1.057,3.302,3.172v3.952l-0.084,0.215
		L255.969,290.577 M245.96,290.577h-5.447l-0.215-0.084l-0.085-0.215v-6.825c0-0.095,0.028-0.169,0.085-0.221l0.215-0.078h2.457
		c1.109,0,1.935,0.264,2.477,0.793c0.541,0.529,0.812,1.322,0.812,2.379v3.952l-0.084,0.215L245.96,290.577 M241.293,284.155v5.408
		h3.848v-3.172c0-1.49-0.745-2.236-2.236-2.236H241.293 M237.978,290.577h-0.897l-0.208-0.084l-0.078-0.215v-0.871
		c0-0.095,0.026-0.171,0.078-0.228l0.208-0.084h0.897c0.095,0,0.171,0.028,0.227,0.084c0.056,0.056,0.085,0.132,0.085,0.228v0.871
		l-0.091,0.215L237.978,290.577 M269.19,287.561h-0.572l-0.214-0.085l-0.085-0.214v-3.809c0-0.095,0.028-0.169,0.085-0.221
		l0.214-0.078h0.572l0.215,0.084l0.084,0.215v3.809l-0.084,0.214L269.19,287.561 M248.988,287.561h-0.572l-0.215-0.085l-0.084-0.214
		v-3.809c0-0.095,0.028-0.169,0.084-0.221l0.215-0.078h0.572l0.214,0.084l0.085,0.215v3.809l-0.085,0.214L248.988,287.561
		 M237.978,286.027h-0.897l-0.208-0.084l-0.078-0.215v-0.871c0-0.095,0.026-0.171,0.078-0.228l0.208-0.085h0.897
		c0.095,0,0.171,0.028,0.227,0.085c0.056,0.056,0.085,0.132,0.085,0.228v0.871l-0.091,0.215L237.978,286.027"/>
	<path fill="#000000" d="M240.07,307.607c-1.066,0-1.866-0.279-2.398-0.838c-0.533-0.559-0.8-1.363-0.8-2.412v-4.004
		c0-0.095,0.028-0.169,0.085-0.221l0.214-0.078h3.12c1.118,0,1.92,0.251,2.405,0.754c0.485,0.503,0.749,1.274,0.793,2.314
		c0.009,0.087,0.013,0.321,0.013,0.702c0,0.382-0.004,0.615-0.013,0.702c-0.026,1.031-0.308,1.803-0.845,2.314
		C242.107,307.352,241.249,307.607,240.07,307.607 M237.964,301.055v3.302c0,0.72,0.176,1.27,0.527,1.651
		c0.351,0.381,0.873,0.572,1.567,0.572c0.815,0,1.399-0.171,1.755-0.514c0.355-0.342,0.541-0.878,0.559-1.605
		c0.009-0.087,0.013-0.299,0.013-0.637c0-0.338-0.005-0.55-0.013-0.637c-0.017-0.693-0.214-1.222-0.591-1.586
		c-0.377-0.364-0.895-0.546-1.554-0.546H237.964 M269.645,307.477h-1.924l-0.214-0.084l-0.085-0.215v-0.429
		c0-0.095,0.028-0.169,0.085-0.221l0.214-0.078h1.859c0.754,0,1.309-0.19,1.664-0.572c0.355-0.381,0.55-0.936,0.585-1.664
		c0.009-0.121,0.013-0.273,0.013-0.455c0-0.173-0.004-0.32-0.013-0.442c-0.026-0.737-0.219-1.294-0.579-1.671
		c-0.36-0.377-0.916-0.566-1.671-0.566h-1.859l-0.214-0.084l-0.085-0.215v-0.429c0-0.095,0.028-0.169,0.085-0.221l0.214-0.078h1.924
		c1.101,0,1.918,0.275,2.451,0.825c0.533,0.55,0.817,1.345,0.852,2.385c0.009,0.121,0.013,0.286,0.013,0.494
		s-0.004,0.377-0.013,0.507c-0.035,1.04-0.319,1.835-0.852,2.385C271.562,307.202,270.745,307.477,269.645,307.477 M262.859,307.477
		h-2.236l-0.214-0.084l-0.085-0.215v-0.429l0.085-0.214l0.214-0.085h2.171c0.607,0,1.075-0.195,1.404-0.585
		c0.329-0.39,0.507-0.94,0.533-1.651c0.009-0.086,0.013-0.238,0.013-0.455c0-0.208-0.004-0.355-0.013-0.442
		c-0.018-0.711-0.193-1.261-0.527-1.651c-0.334-0.39-0.804-0.585-1.41-0.585h-1.599v1.04c0,0.347,0.039,0.62,0.117,0.819
		c0.078,0.199,0.212,0.325,0.403,0.377l0.494,0.13l0.162,0.136c0.039,0.074,0.059,0.163,0.059,0.266v0.299
		c0,0.095-0.048,0.165-0.143,0.208c-0.068,0.031-0.141,0.047-0.217,0.047c-0.031,0-0.062-0.003-0.095-0.008l-0.507-0.104
		c-0.867-0.191-1.3-0.927-1.3-2.21v-1.729c0-0.095,0.028-0.169,0.084-0.221l0.215-0.078h2.392c0.953,0,1.677,0.277,2.171,0.832
		c0.494,0.555,0.758,1.348,0.793,2.379c0.009,0.087,0.013,0.251,0.013,0.494c0,0.251-0.005,0.42-0.013,0.507
		c-0.035,1.031-0.299,1.824-0.793,2.379C264.536,307.2,263.812,307.477,262.859,307.477 M257.854,307.477h-0.572l-0.215-0.084
		l-0.085-0.215v-6.825c0-0.095,0.028-0.169,0.085-0.221l0.215-0.078h0.572l0.214,0.085l0.085,0.214v6.825l-0.085,0.215
		L257.854,307.477 M254.734,307.477h-0.546l-0.214-0.084l-0.085-0.215v-3.887c0-1.49-0.745-2.236-2.236-2.236h-0.936
		c-0.087,0.546-0.149,0.999-0.188,1.359c-0.039,0.36-0.054,0.769-0.045,1.228l0.026,3.536l-0.084,0.215l-0.215,0.084l-1.807-0.026
		l-0.215-0.085l-0.085-0.214v-0.39l0.085-0.214l0.215-0.085l1.001,0.013v-2.782c-0.009-0.546,0.002-1.008,0.033-1.384
		c0.03-0.377,0.102-0.795,0.214-1.254h-0.702l-0.214-0.078l-0.085-0.208v-0.416c0-0.095,0.028-0.169,0.085-0.221l0.214-0.078h2.782
		c2.201,0,3.302,1.057,3.302,3.172v3.952l-0.085,0.215L254.734,307.477 M234.636,307.477h-0.572l-0.215-0.084l-0.084-0.215v-6.825
		c0-0.095,0.028-0.169,0.084-0.221l0.215-0.078h0.572l0.215,0.085l0.084,0.214v6.825l-0.084,0.215L234.636,307.477 M228.722,307.477
		h-1.924l-0.215-0.084l-0.085-0.215v-0.429c0-0.095,0.028-0.169,0.085-0.221l0.215-0.078h1.859c0.754,0,1.309-0.19,1.664-0.572
		c0.355-0.381,0.55-0.936,0.585-1.664c0.009-0.121,0.013-0.273,0.013-0.455c0-0.173-0.005-0.32-0.013-0.442
		c-0.026-0.737-0.219-1.294-0.578-1.671c-0.36-0.377-0.917-0.566-1.671-0.566h-1.859l-0.215-0.084l-0.085-0.215v-0.429
		c0-0.095,0.028-0.169,0.085-0.221l0.215-0.078h1.924c1.101,0,1.917,0.275,2.45,0.825c0.533,0.55,0.817,1.345,0.851,2.385
		c0.009,0.121,0.013,0.286,0.013,0.494s-0.004,0.377-0.013,0.507c-0.035,1.04-0.318,1.835-0.851,2.385
		C230.639,307.202,229.822,307.477,228.722,307.477 M224.25,307.477h-0.546l-0.214-0.084l-0.085-0.215v-3.887
		c0-1.49-0.745-2.236-2.236-2.236h-1.677l-0.215-0.078l-0.084-0.208v-0.416l0.084-0.214l0.215-0.085h1.755
		c2.201,0,3.302,1.057,3.302,3.172v3.952l-0.085,0.215L224.25,307.477"/>
	<path fill="#000000" d="M283.503,307.477h-5.694l-0.215-0.084l-0.084-0.215v-0.39c0-0.199,0.108-0.39,0.325-0.572l2.834-2.821
		c0.641-0.546,1.083-0.992,1.326-1.339c0.243-0.346,0.364-0.715,0.364-1.105c0-0.511-0.143-0.912-0.429-1.202
		c-0.286-0.29-0.702-0.436-1.248-0.436c-0.52,0-0.932,0.152-1.235,0.455c-0.304,0.304-0.49,0.711-0.559,1.222
		c-0.017,0.096-0.061,0.169-0.13,0.221l-0.208,0.078h-0.624l-0.195-0.078l-0.078-0.182c0.017-0.459,0.141-0.904,0.371-1.333
		c0.229-0.429,0.57-0.78,1.02-1.053c0.451-0.273,0.997-0.409,1.638-0.409c0.971,0,1.701,0.253,2.191,0.76
		c0.489,0.507,0.734,1.151,0.734,1.931c0,0.546-0.132,1.038-0.397,1.475c-0.264,0.438-0.678,0.899-1.241,1.385l-2.561,2.6h4.095
		c0.095,0,0.169,0.026,0.221,0.078c0.052,0.052,0.078,0.126,0.078,0.221v0.494l-0.084,0.215L283.503,307.477"/>
	<path fill="#000000" d="M243.593,326.86h-0.533l-0.215-0.078c-0.056-0.052-0.084-0.126-0.084-0.221v-6.851l0.084-0.215l0.215-0.085
		h0.533l0.215,0.085l0.085,0.215v6.851l-0.085,0.215L243.593,326.86 M257.191,324.507c-1.066,0-1.866-0.279-2.398-0.838
		c-0.533-0.559-0.8-1.363-0.8-2.411v-4.004c0-0.095,0.028-0.169,0.085-0.221l0.214-0.078h3.12c1.118,0,1.92,0.251,2.405,0.754
		c0.485,0.503,0.75,1.274,0.793,2.314c0.009,0.087,0.013,0.321,0.013,0.702c0,0.382-0.004,0.615-0.013,0.702
		c-0.026,1.031-0.308,1.803-0.845,2.314C259.228,324.252,258.37,324.507,257.191,324.507 M255.085,317.955v3.302
		c0,0.719,0.175,1.27,0.527,1.651c0.351,0.382,0.873,0.572,1.567,0.572c0.815,0,1.399-0.171,1.755-0.514
		c0.355-0.342,0.542-0.878,0.559-1.605c0.009-0.087,0.013-0.299,0.013-0.637c0-0.338-0.005-0.55-0.013-0.637
		c-0.017-0.693-0.214-1.222-0.591-1.586c-0.377-0.364-0.895-0.546-1.554-0.546H255.085 M245.439,324.507l-0.163-0.065l-0.071-0.182
		v-0.572c0-0.156,0.095-0.273,0.286-0.351l0.507-0.195c0.598-0.225,1.057-0.55,1.378-0.975c0.32-0.424,0.481-1.048,0.481-1.872
		c0-0.581-0.069-1.038-0.208-1.372c-0.139-0.333-0.366-0.574-0.682-0.721c-0.316-0.147-0.752-0.221-1.307-0.221h-2.6l-0.215-0.084
		l-0.084-0.215v-0.442l0.084-0.208l0.215-0.078h2.756c0.797,0,1.428,0.113,1.891,0.338c0.464,0.225,0.8,0.585,1.007,1.079
		c0.208,0.494,0.312,1.153,0.312,1.976c0,1.109-0.273,1.974-0.819,2.594c-0.546,0.62-1.257,1.077-2.132,1.372l-0.546,0.182
		L245.439,324.507 M282.736,324.403h-0.338l-0.208-0.078l-0.078-0.208v-0.624h-1.911l-0.208-0.078l-0.078-0.208v-0.286
		c0-0.121,0.052-0.251,0.156-0.39l1.755-2.444c0.113-0.156,0.243-0.234,0.39-0.234h0.52l0.208,0.078l0.078,0.208v2.509h0.455
		l0.208,0.078l0.078,0.208v0.273l-0.078,0.208l-0.208,0.078h-0.455v0.624l-0.078,0.208L282.736,324.403 M282.125,321.036
		l-1.131,1.625h1.131V321.036 M276.028,324.377h-0.351l-0.188-0.071l-0.072-0.188l0.052-0.143l6.409-8.45
		c0.069-0.095,0.132-0.16,0.189-0.195c0.056-0.035,0.136-0.052,0.241-0.052h0.351l0.195,0.072l0.078,0.188l-0.052,0.143l-6.422,8.45
		l-0.188,0.188C276.212,324.358,276.132,324.377,276.028,324.377 M267.76,324.377h-1.924l-0.215-0.084l-0.085-0.215v-0.429
		c0-0.095,0.028-0.169,0.085-0.221l0.215-0.078h1.859c0.754,0,1.309-0.19,1.664-0.572c0.355-0.381,0.55-0.936,0.585-1.664
		c0.009-0.121,0.013-0.273,0.013-0.455c0-0.173-0.005-0.32-0.013-0.442c-0.026-0.737-0.219-1.294-0.578-1.671
		c-0.36-0.377-0.917-0.566-1.671-0.566h-1.859l-0.215-0.084l-0.085-0.215v-0.429c0-0.095,0.028-0.169,0.085-0.221l0.215-0.078h1.924
		c1.101,0,1.917,0.275,2.451,0.825c0.533,0.55,0.817,1.345,0.851,2.385c0.009,0.121,0.013,0.286,0.013,0.494
		s-0.004,0.377-0.013,0.507c-0.035,1.04-0.319,1.835-0.851,2.385C269.677,324.102,268.861,324.377,267.76,324.377 M263.223,324.377
		h-0.572l-0.214-0.084l-0.085-0.215v-6.825c0-0.095,0.028-0.169,0.085-0.221l0.214-0.078h0.572l0.215,0.085l0.084,0.214v6.825
		l-0.084,0.215L263.223,324.377 M240.513,324.377h-3.354l-0.208-0.084l-0.078-0.215v-0.416l0.078-0.214l0.208-0.085h2.509v-3.159
		c0-0.659-0.167-1.194-0.5-1.605c-0.334-0.412-0.756-0.618-1.268-0.618h-1.378l-1.001,6.084l-0.11,0.221l-0.215,0.091h-0.546
		l-0.202-0.091l-0.058-0.221l1.04-6.084h-0.663l-0.214-0.084l-0.085-0.215v-0.429l0.085-0.214l0.214-0.085h3.263
		c0.537,0,1.016,0.128,1.437,0.384c0.42,0.256,0.75,0.622,0.988,1.098c0.238,0.477,0.357,1.04,0.357,1.69v3.952l-0.084,0.215
		L240.513,324.377 M232.44,324.377h-0.546l-0.214-0.084l-0.085-0.215v-3.887c0-1.49-0.745-2.236-2.236-2.236h-1.586v6.123
		l-0.085,0.215l-0.214,0.084h-0.546l-0.214-0.084l-0.085-0.215v-6.825c0-0.095,0.028-0.169,0.085-0.221l0.214-0.078h2.496
		c1.118,0,1.95,0.266,2.496,0.8c0.546,0.533,0.819,1.332,0.819,2.398v3.926l-0.085,0.215L232.44,324.377 M277.237,319.827h-0.351
		l-0.208-0.078l-0.078-0.208v-3.12l-0.78,0.585l-0.169,0.052l-0.234-0.117l-0.156-0.208l-0.065-0.182l0.117-0.221l1.287-0.962
		c0.087-0.061,0.186-0.091,0.299-0.091h0.338l0.208,0.078l0.078,0.208v3.978l-0.078,0.208L277.237,319.827"/>
</g>
</svg>
