<!-- Generator: Adobe InDesign 14.0 SVG Export Plug-in, SVG Library version: 6.0 build 234 -->
<!DOCTYPE svg PUBLIC "-//W3C//DTD SVG 1.1//EN" "http://www.w3.org/Graphics/SVG/1.1/DTD/svg11.dtd">
<svg version="1.1" xmlns="http://www.w3.org/2000/svg" xmlns:xlink="http://www.w3.org/1999/xlink" x="0%" y="0%" width="100%"
	 height="100%" viewBox="0 0 302.823 509.697" preserveAspectRatio="xMidYMid slice" overflow="visible" xml:space="preserve">
<clipPath id="clp_unq_id_1" fill="none">
	<path shape-rendering="crispEdges" stroke="#000000" d="M0,0h302.823v509.697H0V0"/>
</clipPath>
<g clip-path="url(#clp_unq_id_1)" fill="none">
	<path fill="#D05559" d="M279.383,11.098h-6.336v0.946v11.418h2.354v-10.56h3.388c1.32,0,1.98,0.807,1.98,2.42v8.14h2.354v-8.03
		c0-1.452-0.327-2.537-0.979-3.256C281.491,11.457,280.571,11.098,279.383,11.098z"/>
	<path fill="#000000" d="M212.45,54.575c-0.653,0-1.22-0.124-1.701-0.371c-0.481-0.247-0.849-0.567-1.106-0.959
		c-0.257-0.392-0.394-0.812-0.413-1.26v-0.028l0.077-0.175l0.203-0.063h0.266c0.093,0,0.168,0.021,0.224,0.063
		c0.056,0.042,0.098,0.128,0.126,0.259c0.14,0.569,0.425,0.994,0.854,1.274c0.429,0.28,0.919,0.42,1.47,0.42
		c0.719,0,1.314-0.214,1.785-0.644c0.471-0.429,0.707-1.027,0.707-1.792c0-0.467-0.11-0.873-0.329-1.218
		c-0.219-0.345-0.52-0.611-0.903-0.798c-0.383-0.187-0.803-0.28-1.26-0.28c-0.373,0-0.674,0.049-0.903,0.147
		c-0.229,0.098-0.46,0.231-0.693,0.399c-0.14,0.103-0.254,0.177-0.343,0.224c-0.089,0.047-0.185,0.07-0.287,0.07h-0.252
		l-0.224-0.091l-0.084-0.217l0.42-4.578c0.009-0.103,0.04-0.182,0.091-0.238c0.051-0.056,0.124-0.084,0.217-0.084h4.564
		c0.093,0,0.168,0.028,0.224,0.084c0.056,0.056,0.084,0.131,0.084,0.224v0.224c0,0.093-0.028,0.168-0.084,0.224
		s-0.131,0.084-0.224,0.084h-4.018l-0.294,3.164c0.495-0.317,1.097-0.476,1.806-0.476c0.635,0,1.206,0.121,1.715,0.364
		c0.509,0.243,0.912,0.6,1.211,1.071c0.299,0.471,0.448,1.038,0.448,1.701c0,0.7-0.149,1.297-0.448,1.792
		c-0.299,0.495-0.702,0.866-1.211,1.113C213.656,54.451,213.084,54.575,212.45,54.575 M223.314,54.435h-5.74
		c-0.093,0-0.168-0.028-0.224-0.084s-0.084-0.131-0.084-0.224v-0.21c0-0.187,0.116-0.383,0.35-0.588l3.626-3.626
		c0.513-0.476,0.859-0.877,1.036-1.204c0.177-0.327,0.266-0.714,0.266-1.162c0-0.625-0.18-1.115-0.539-1.47
		c-0.359-0.355-0.87-0.532-1.533-0.532c-0.625,0-1.125,0.182-1.498,0.546c-0.373,0.364-0.597,0.854-0.672,1.47
		c-0.009,0.103-0.049,0.182-0.119,0.238l-0.203,0.084h-0.28c-0.093,0-0.166-0.026-0.217-0.077l-0.077-0.189
		c0.019-0.457,0.14-0.91,0.364-1.358c0.224-0.448,0.565-0.819,1.022-1.113c0.457-0.294,1.017-0.441,1.68-0.441
		c0.999,0,1.741,0.271,2.226,0.812c0.485,0.541,0.728,1.218,0.728,2.03c0,0.56-0.121,1.064-0.364,1.512
		c-0.243,0.448-0.63,0.919-1.162,1.414l-3.276,3.332h4.69c0.103,0,0.182,0.028,0.238,0.084c0.056,0.056,0.084,0.136,0.084,0.238
		v0.21c0,0.094-0.03,0.168-0.091,0.224C223.484,54.407,223.407,54.435,223.314,54.435"/>
	<path fill="#000000" d="M229.249,55.485h-0.238l-0.168-0.084l-0.028-0.21l0.266-1.68c0.028-0.252,0.145-0.378,0.35-0.378h0.63
		l0.154,0.07l0.056,0.154l-0.056,0.252l-0.602,1.582c-0.047,0.103-0.096,0.177-0.147,0.224
		C229.415,55.462,229.343,55.485,229.249,55.485"/>
	<path fill="#000000" d="M241.051,54.575c-0.719,0-1.335-0.154-1.848-0.462c-0.513-0.308-0.901-0.714-1.162-1.218
		c-0.261-0.504-0.392-1.045-0.392-1.624c0-0.812,0.294-1.638,0.882-2.478l2.758-3.878l0.077-0.105l0.154-0.126l0.203-0.049h0.266
		l0.203,0.091l0.077,0.217l-0.07,0.182l-2.1,2.968c0.28-0.075,0.597-0.112,0.952-0.112c0.719,0,1.335,0.152,1.848,0.455
		c0.513,0.303,0.901,0.707,1.162,1.211c0.261,0.504,0.392,1.045,0.392,1.624c0,0.579-0.131,1.12-0.392,1.624
		c-0.261,0.504-0.649,0.91-1.162,1.218C242.386,54.421,241.77,54.575,241.051,54.575 M241.051,48.821
		c-0.448,0-0.863,0.096-1.246,0.287c-0.383,0.191-0.691,0.471-0.924,0.84c-0.233,0.369-0.35,0.81-0.35,1.323
		c0,0.513,0.117,0.957,0.35,1.33c0.233,0.373,0.541,0.656,0.924,0.847c0.383,0.191,0.798,0.287,1.246,0.287s0.863-0.096,1.246-0.287
		c0.383-0.191,0.691-0.474,0.924-0.847c0.233-0.373,0.35-0.817,0.35-1.33c0-0.513-0.117-0.954-0.35-1.323
		c-0.233-0.369-0.541-0.649-0.924-0.84C241.915,48.917,241.499,48.821,241.051,48.821 M235.438,54.435h-0.266
		c-0.093,0-0.168-0.028-0.224-0.084s-0.084-0.131-0.084-0.224v-8.344l-2.506,1.932l-0.196,0.07c-0.093,0-0.173-0.042-0.238-0.126
		l-0.154-0.196l-0.07-0.196c0-0.093,0.042-0.173,0.126-0.238l2.982-2.296c0.093-0.065,0.215-0.098,0.364-0.098h0.266
		c0.093,0,0.168,0.028,0.224,0.084c0.056,0.056,0.084,0.131,0.084,0.224v9.184c0,0.094-0.028,0.168-0.084,0.224
		S235.531,54.435,235.438,54.435"/>
	<path fill="#000000" d="M256.661,54.575c-1.111,0-1.941-0.296-2.492-0.889c-0.551-0.593-0.826-1.458-0.826-2.597v-4.34
		c0-0.093,0.028-0.168,0.084-0.224c0.056-0.056,0.131-0.084,0.224-0.084h3.29c1.157,0,1.988,0.266,2.492,0.798
		c0.504,0.532,0.779,1.358,0.826,2.478c0.009,0.093,0.014,0.355,0.014,0.784c0,0.439-0.005,0.705-0.014,0.798
		c-0.028,1.111-0.327,1.934-0.896,2.471C258.794,54.307,257.893,54.575,256.661,54.575 M254.197,47.253v3.836
		c0,0.859,0.205,1.519,0.616,1.981c0.411,0.462,1.027,0.693,1.848,0.693c0.961,0,1.654-0.208,2.079-0.623
		c0.424-0.415,0.646-1.052,0.665-1.911c0.009-0.093,0.014-0.336,0.014-0.728c0-0.383-0.005-0.621-0.014-0.714
		c-0.019-0.821-0.257-1.449-0.714-1.883c-0.457-0.434-1.064-0.651-1.82-0.651H254.197 M283.065,54.435h-0.238
		c-0.093,0-0.168-0.028-0.224-0.084c-0.056-0.056-0.084-0.131-0.084-0.224v-4.2c0-1.783-0.891-2.674-2.674-2.674h-1.876v6.874
		c0,0.094-0.028,0.168-0.084,0.224c-0.056,0.056-0.131,0.084-0.224,0.084h-0.238c-0.093,0-0.168-0.028-0.224-0.084
		c-0.056-0.056-0.084-0.131-0.084-0.224v-7.378c0-0.093,0.028-0.168,0.084-0.224c0.056-0.056,0.131-0.084,0.224-0.084h2.492
		c1.167,0,2.035,0.292,2.604,0.875c0.569,0.583,0.854,1.43,0.854,2.541v4.27c0,0.094-0.028,0.168-0.084,0.224
		C283.233,54.407,283.158,54.435,283.065,54.435 M274.455,54.435h-0.238c-0.093,0-0.168-0.028-0.224-0.084
		c-0.056-0.056-0.084-0.131-0.084-0.224v-7.378c0-0.093,0.028-0.168,0.084-0.224c0.056-0.056,0.131-0.084,0.224-0.084h0.238
		c0.093,0,0.168,0.028,0.224,0.084c0.056,0.056,0.084,0.131,0.084,0.224v7.378c0,0.094-0.028,0.168-0.084,0.224
		C274.623,54.407,274.548,54.435,274.455,54.435 M271.333,54.435h-3.542c-0.093,0-0.168-0.028-0.224-0.084
		c-0.056-0.056-0.084-0.131-0.084-0.224v-0.196c0-0.093,0.028-0.168,0.084-0.224c0.056-0.056,0.131-0.084,0.224-0.084h2.996v-3.696
		c0-0.513-0.091-0.975-0.273-1.386c-0.182-0.411-0.434-0.728-0.756-0.952c-0.322-0.224-0.684-0.336-1.085-0.336h-1.624l-1.036,6.86
		c-0.009,0.093-0.049,0.17-0.119,0.231l-0.231,0.091h-0.252l-0.196-0.091c-0.047-0.061-0.065-0.138-0.056-0.231l1.022-6.86h-0.63
		c-0.093,0-0.168-0.028-0.224-0.084c-0.056-0.056-0.084-0.131-0.084-0.224v-0.196c0-0.093,0.028-0.168,0.084-0.224
		c0.056-0.056,0.131-0.084,0.224-0.084h3.192c0.56,0,1.059,0.14,1.498,0.42c0.439,0.28,0.782,0.679,1.029,1.197
		c0.247,0.518,0.371,1.118,0.371,1.799v4.27c0,0.094-0.028,0.168-0.084,0.224C271.501,54.407,271.426,54.435,271.333,54.435
		 M262.835,54.435h-0.238c-0.093,0-0.168-0.028-0.224-0.084c-0.056-0.056-0.084-0.131-0.084-0.224v-7.378
		c0-0.093,0.028-0.168,0.084-0.224c0.056-0.056,0.131-0.084,0.224-0.084h0.238c0.093,0,0.168,0.028,0.224,0.084
		c0.056,0.056,0.084,0.131,0.084,0.224v7.378c0,0.094-0.028,0.168-0.084,0.224C263.003,54.407,262.928,54.435,262.835,54.435"/>
	<path fill="#000000" d="M246.469,71.375c-0.653,0-1.244-0.112-1.771-0.336c-0.527-0.224-0.945-0.555-1.253-0.994
		c-0.308-0.439-0.462-0.961-0.462-1.568c0-0.579,0.14-1.078,0.42-1.498c0.28-0.42,0.667-0.747,1.162-0.98
		c-0.392-0.215-0.695-0.502-0.91-0.861c-0.215-0.359-0.322-0.782-0.322-1.267c0-0.812,0.296-1.444,0.889-1.897
		c0.593-0.453,1.342-0.679,2.247-0.679c0.905,0,1.654,0.226,2.247,0.679c0.593,0.453,0.889,1.085,0.889,1.897
		c0,0.485-0.11,0.908-0.329,1.267c-0.219,0.359-0.52,0.646-0.903,0.861c0.495,0.233,0.882,0.56,1.162,0.98
		c0.28,0.42,0.42,0.919,0.42,1.498c0,0.607-0.154,1.129-0.462,1.568c-0.308,0.439-0.726,0.77-1.253,0.994
		C247.713,71.263,247.122,71.375,246.469,71.375 M246.469,66.433c-0.747,0-1.367,0.187-1.862,0.56
		c-0.495,0.373-0.742,0.868-0.742,1.484c0,0.625,0.25,1.125,0.749,1.498c0.499,0.373,1.118,0.56,1.855,0.56
		c0.737,0,1.356-0.187,1.855-0.56c0.499-0.373,0.749-0.873,0.749-1.498c0-0.616-0.247-1.111-0.742-1.484
		C247.836,66.62,247.216,66.433,246.469,66.433 M246.469,62.135c-0.644,0-1.181,0.156-1.61,0.469
		c-0.429,0.313-0.644,0.735-0.644,1.267c0,0.532,0.215,0.952,0.644,1.26c0.429,0.308,0.966,0.462,1.61,0.462
		c0.635-0.019,1.169-0.182,1.603-0.49c0.434-0.308,0.651-0.719,0.651-1.232c0-0.532-0.215-0.954-0.644-1.267
		C247.65,62.292,247.113,62.135,246.469,62.135"/>
	<path fill="#000000" d="M262.359,72.971h-0.294c-0.14,0-0.247-0.07-0.322-0.21l-3.542-8.96c-0.056-0.14-0.084-0.233-0.084-0.28
		l0.084-0.196l0.196-0.084h0.252c0.093,0,0.168,0.026,0.224,0.077c0.056,0.051,0.107,0.138,0.154,0.259l1.582,3.99
		c1.512-0.131,2.268-1.017,2.268-2.66v-1.358c0-0.093,0.028-0.168,0.084-0.224c0.056-0.056,0.131-0.084,0.224-0.084h0.238
		c0.093,0,0.168,0.028,0.224,0.084c0.056,0.056,0.084,0.131,0.084,0.224v1.428c0,0.971-0.238,1.745-0.714,2.324
		c-0.476,0.579-1.171,0.929-2.086,1.05l1.624,4.06c0.056,0.14,0.084,0.233,0.084,0.28l-0.084,0.196L262.359,72.971 M283.065,71.235
		h-0.238c-0.093,0-0.168-0.028-0.224-0.084c-0.056-0.056-0.084-0.131-0.084-0.224v-4.2c0-1.783-0.891-2.674-2.674-2.674h-1.876
		v6.874c0,0.093-0.028,0.168-0.084,0.224c-0.056,0.056-0.131,0.084-0.224,0.084h-0.238c-0.093,0-0.168-0.028-0.224-0.084
		c-0.056-0.056-0.084-0.131-0.084-0.224v-7.378c0-0.093,0.028-0.168,0.084-0.224c0.056-0.056,0.131-0.084,0.224-0.084h2.492
		c1.167,0,2.035,0.292,2.604,0.875c0.569,0.583,0.854,1.43,0.854,2.541v4.27c0,0.093-0.028,0.168-0.084,0.224
		C283.233,71.207,283.158,71.235,283.065,71.235 M274.455,71.235h-0.238c-0.093,0-0.168-0.028-0.224-0.084
		c-0.056-0.056-0.084-0.131-0.084-0.224v-7.378c0-0.093,0.028-0.168,0.084-0.224c0.056-0.056,0.131-0.084,0.224-0.084h0.238
		c0.093,0,0.168,0.028,0.224,0.084c0.056,0.056,0.084,0.131,0.084,0.224v7.378c0,0.093-0.028,0.168-0.084,0.224
		C274.623,71.207,274.548,71.235,274.455,71.235 M271.333,71.235h-3.542c-0.093,0-0.168-0.028-0.224-0.084
		c-0.056-0.056-0.084-0.131-0.084-0.224v-0.196c0-0.093,0.028-0.168,0.084-0.224c0.056-0.056,0.131-0.084,0.224-0.084h2.996v-3.696
		c0-0.513-0.091-0.975-0.273-1.386c-0.182-0.411-0.434-0.728-0.756-0.952c-0.322-0.224-0.684-0.336-1.085-0.336h-1.624l-1.036,6.86
		c-0.009,0.093-0.049,0.17-0.119,0.231l-0.231,0.091h-0.252l-0.196-0.091c-0.047-0.061-0.065-0.138-0.056-0.231l1.022-6.86h-0.63
		c-0.093,0-0.168-0.028-0.224-0.084c-0.056-0.056-0.084-0.131-0.084-0.224v-0.196c0-0.093,0.028-0.168,0.084-0.224
		c0.056-0.056,0.131-0.084,0.224-0.084h3.192c0.56,0,1.059,0.14,1.498,0.42c0.439,0.28,0.782,0.679,1.029,1.197
		c0.247,0.518,0.371,1.118,0.371,1.799v4.27c0,0.093-0.028,0.168-0.084,0.224C271.501,71.207,271.426,71.235,271.333,71.235"/>
	<path fill="#000000" d="M213.486,88.175c-0.672,0-1.258-0.112-1.757-0.336c-0.499-0.224-0.885-0.518-1.155-0.882
		c-0.271-0.364-0.415-0.756-0.434-1.176l0.084-0.196l0.21-0.07h0.196c0.093,0,0.173,0.021,0.238,0.063
		c0.065,0.042,0.112,0.128,0.14,0.259c0.131,0.551,0.427,0.938,0.889,1.162c0.462,0.224,0.992,0.336,1.589,0.336
		c0.747,0,1.344-0.177,1.792-0.532c0.448-0.355,0.672-0.868,0.672-1.54c0-1.288-0.775-1.932-2.324-1.932h-1.232
		c-0.093,0-0.168-0.028-0.224-0.084s-0.084-0.131-0.084-0.224v-0.21c0-0.103,0.042-0.215,0.126-0.336l2.884-3.402h-4.228
		c-0.093,0-0.168-0.028-0.224-0.084s-0.084-0.131-0.084-0.224v-0.21c0-0.093,0.028-0.17,0.084-0.231
		c0.056-0.061,0.131-0.091,0.224-0.091h5.222c0.103,0,0.182,0.028,0.238,0.084s0.084,0.135,0.084,0.238v0.21
		c0,0.084-0.037,0.173-0.112,0.266l-2.954,3.458h0.28c0.989,0,1.771,0.234,2.345,0.7c0.574,0.467,0.861,1.157,0.861,2.072
		c0,0.597-0.145,1.118-0.434,1.561c-0.289,0.443-0.686,0.779-1.19,1.008C214.704,88.061,214.13,88.175,213.486,88.175
		 M224.322,88.035h-5.74c-0.093,0-0.168-0.028-0.224-0.084s-0.084-0.131-0.084-0.224v-0.21c0-0.187,0.117-0.383,0.35-0.588
		l3.626-3.626c0.513-0.476,0.859-0.877,1.036-1.204c0.177-0.327,0.266-0.714,0.266-1.162c0-0.625-0.18-1.115-0.539-1.47
		c-0.359-0.355-0.87-0.532-1.533-0.532c-0.625,0-1.125,0.182-1.498,0.546c-0.373,0.364-0.597,0.854-0.672,1.47
		c-0.009,0.103-0.049,0.182-0.119,0.238l-0.203,0.084h-0.28c-0.093,0-0.166-0.026-0.217-0.077l-0.077-0.189
		c0.019-0.457,0.14-0.91,0.364-1.358c0.224-0.448,0.565-0.819,1.022-1.113c0.457-0.294,1.017-0.441,1.68-0.441
		c0.999,0,1.741,0.271,2.226,0.812c0.485,0.541,0.728,1.218,0.728,2.03c0,0.56-0.121,1.064-0.364,1.512
		c-0.243,0.448-0.63,0.919-1.162,1.414l-3.276,3.332h4.69c0.103,0,0.182,0.028,0.238,0.084s0.084,0.135,0.084,0.238v0.21
		c0,0.093-0.03,0.168-0.091,0.224C224.492,88.007,224.415,88.035,224.322,88.035"/>
	<path fill="#000000" d="M230.257,89.085h-0.238l-0.168-0.084l-0.028-0.21l0.266-1.68c0.028-0.252,0.145-0.378,0.35-0.378h0.63
		l0.154,0.07l0.056,0.154l-0.056,0.252l-0.602,1.582c-0.047,0.103-0.096,0.177-0.147,0.224
		C230.423,89.062,230.35,89.085,230.257,89.085"/>
	<path fill="#000000" d="M246.105,88.035h-0.266c-0.093,0-0.168-0.028-0.224-0.084s-0.084-0.131-0.084-0.224v-2.212h-4.62
		c-0.093,0-0.168-0.028-0.224-0.084c-0.056-0.056-0.084-0.131-0.084-0.224v-0.224c0-0.14,0.051-0.28,0.154-0.42l4.256-6.09
		c0.047-0.075,0.117-0.133,0.21-0.175c0.093-0.042,0.196-0.063,0.308-0.063h0.574c0.093,0,0.168,0.028,0.224,0.084
		c0.056,0.056,0.084,0.131,0.084,0.224v6.132h1.274c0.093,0,0.168,0.028,0.224,0.084s0.084,0.131,0.084,0.224v0.224
		c0,0.093-0.028,0.168-0.084,0.224c-0.056,0.056-0.131,0.084-0.224,0.084h-1.274v2.212c0,0.093-0.028,0.168-0.084,0.224
		C246.273,88.007,246.198,88.035,246.105,88.035 M245.531,79.229l-3.822,5.446h3.822V79.229 M239.091,88.035h-5.74
		c-0.093,0-0.168-0.028-0.224-0.084s-0.084-0.131-0.084-0.224v-0.21c0-0.187,0.117-0.383,0.35-0.588l3.626-3.626
		c0.513-0.476,0.859-0.877,1.036-1.204c0.177-0.327,0.266-0.714,0.266-1.162c0-0.625-0.18-1.115-0.539-1.47
		c-0.359-0.355-0.87-0.532-1.533-0.532c-0.625,0-1.125,0.182-1.498,0.546c-0.373,0.364-0.597,0.854-0.672,1.47
		c-0.009,0.103-0.049,0.182-0.119,0.238l-0.203,0.084h-0.28c-0.093,0-0.166-0.026-0.217-0.077l-0.077-0.189
		c0.019-0.457,0.14-0.91,0.364-1.358c0.224-0.448,0.565-0.819,1.022-1.113c0.457-0.294,1.017-0.441,1.68-0.441
		c0.999,0,1.741,0.271,2.226,0.812c0.485,0.541,0.728,1.218,0.728,2.03c0,0.56-0.121,1.064-0.364,1.512
		c-0.243,0.448-0.63,0.919-1.162,1.414l-3.276,3.332h4.69c0.103,0,0.182,0.028,0.238,0.084s0.084,0.135,0.084,0.238v0.21
		c0,0.093-0.03,0.168-0.091,0.224C239.262,88.007,239.185,88.035,239.091,88.035"/>
	<path fill="#000000" d="M268.715,88.175c-1.185,0-2.046-0.289-2.583-0.868c-0.537-0.579-0.805-1.428-0.805-2.548v-4.41
		c0-0.093,0.028-0.168,0.084-0.224c0.056-0.056,0.131-0.084,0.224-0.084h0.238c0.093,0,0.168,0.028,0.224,0.084
		c0.056,0.056,0.084,0.131,0.084,0.224v4.34c0,0.859,0.208,1.519,0.623,1.981c0.415,0.462,1.052,0.693,1.911,0.693
		c0.859,0,1.491-0.208,1.897-0.623c0.406-0.415,0.618-1.052,0.637-1.911v-0.476v-1.106c-0.019-0.84-0.205-1.461-0.56-1.862
		c-0.355-0.401-0.835-0.602-1.442-0.602c-0.177,0-0.38,0.033-0.609,0.098c-0.229,0.065-0.422,0.154-0.581,0.266l-0.14,0.042
		l-0.161-0.063l-0.077-0.161v-0.182v-0.07l0.028-0.196l0.112-0.126c0.215-0.14,0.436-0.245,0.665-0.315
		c0.229-0.07,0.506-0.105,0.833-0.105c0.868,0,1.542,0.261,2.023,0.784c0.481,0.523,0.735,1.33,0.763,2.422
		c0.009,0.093,0.014,0.378,0.014,0.854c0,0.485-0.005,0.775-0.014,0.868c-0.028,1.12-0.301,1.946-0.819,2.478
		C270.766,87.909,269.909,88.175,268.715,88.175 M283.065,88.035h-0.238c-0.093,0-0.168-0.028-0.224-0.084
		c-0.056-0.056-0.084-0.131-0.084-0.224v-4.2c0-1.783-0.891-2.674-2.674-2.674h-1.876v6.874c0,0.093-0.028,0.168-0.084,0.224
		c-0.056,0.056-0.131,0.084-0.224,0.084h-0.238c-0.093,0-0.168-0.028-0.224-0.084c-0.056-0.056-0.084-0.131-0.084-0.224v-7.378
		c0-0.093,0.028-0.168,0.084-0.224c0.056-0.056,0.131-0.084,0.224-0.084h2.492c1.167,0,2.035,0.292,2.604,0.875
		c0.569,0.583,0.854,1.43,0.854,2.541v4.27c0,0.093-0.028,0.168-0.084,0.224C283.233,88.007,283.158,88.035,283.065,88.035
		 M262.821,88.035h-0.238c-0.093,0-0.168-0.028-0.224-0.084c-0.056-0.056-0.084-0.131-0.084-0.224v-4.2
		c0-1.783-0.891-2.674-2.674-2.674h-2.408c-0.093,0-0.168-0.028-0.224-0.084c-0.056-0.056-0.084-0.131-0.084-0.224v-0.196
		c0-0.093,0.028-0.168,0.084-0.224c0.056-0.056,0.131-0.084,0.224-0.084h2.478c1.167,0,2.035,0.292,2.604,0.875
		c0.569,0.583,0.854,1.43,0.854,2.541v4.27c0,0.093-0.028,0.168-0.084,0.224C262.989,88.007,262.914,88.035,262.821,88.035
		 M257.431,88.035h-0.238c-0.093,0-0.168-0.028-0.224-0.084c-0.056-0.056-0.084-0.131-0.084-0.224v-4.914
		c0-0.093,0.028-0.168,0.084-0.224c0.056-0.056,0.131-0.084,0.224-0.084h0.238c0.093,0,0.168,0.028,0.224,0.084
		c0.056,0.056,0.084,0.131,0.084,0.224v4.914c0,0.093-0.028,0.168-0.084,0.224C257.599,88.007,257.524,88.035,257.431,88.035
		 M274.567,84.815h-0.238c-0.093,0-0.168-0.028-0.224-0.084c-0.056-0.056-0.084-0.131-0.084-0.224v-4.158
		c0-0.093,0.028-0.168,0.084-0.224c0.056-0.056,0.131-0.084,0.224-0.084h0.238c0.093,0,0.168,0.028,0.224,0.084
		c0.056,0.056,0.084,0.131,0.084,0.224v4.158c0,0.093-0.028,0.168-0.084,0.224C274.735,84.787,274.66,84.815,274.567,84.815"/>
	<path fill="#000000" d="M248.961,104.835h-0.266c-0.093,0-0.168-0.028-0.224-0.084s-0.084-0.131-0.084-0.224v-2.212h-4.62
		c-0.093,0-0.168-0.028-0.224-0.084c-0.056-0.056-0.084-0.131-0.084-0.224v-0.224c0-0.14,0.051-0.28,0.154-0.42l4.256-6.09
		c0.047-0.075,0.117-0.133,0.21-0.175c0.093-0.042,0.196-0.063,0.308-0.063h0.574c0.093,0,0.168,0.028,0.224,0.084
		s0.084,0.131,0.084,0.224v6.132h1.274c0.093,0,0.168,0.028,0.224,0.084s0.084,0.131,0.084,0.224v0.224
		c0,0.093-0.028,0.168-0.084,0.224c-0.056,0.056-0.131,0.084-0.224,0.084h-1.274v2.212c0,0.093-0.028,0.168-0.084,0.224
		S249.054,104.835,248.961,104.835 M248.387,96.029l-3.822,5.446h3.822V96.029 M241.569,104.835h-0.266
		c-0.093,0-0.168-0.028-0.224-0.084s-0.084-0.131-0.084-0.224v-8.344l-2.506,1.932l-0.196,0.07c-0.093,0-0.173-0.042-0.238-0.126
		l-0.154-0.196l-0.07-0.196c0-0.093,0.042-0.173,0.126-0.238l2.982-2.296c0.093-0.065,0.215-0.098,0.364-0.098h0.266
		c0.093,0,0.168,0.028,0.224,0.084s0.084,0.131,0.084,0.224v9.184c0,0.093-0.028,0.168-0.084,0.224S241.663,104.835,241.569,104.835
		"/>
	<path fill="#000000" d="M271.487,104.975c-1.111,0-1.941-0.296-2.492-0.889c-0.551-0.593-0.826-1.458-0.826-2.597v-4.34
		c0-0.093,0.028-0.168,0.084-0.224c0.056-0.056,0.131-0.084,0.224-0.084h3.29c1.157,0,1.988,0.266,2.492,0.798
		c0.504,0.532,0.779,1.358,0.826,2.478c0.009,0.093,0.014,0.355,0.014,0.784c0,0.439-0.005,0.705-0.014,0.798
		c-0.028,1.111-0.327,1.935-0.896,2.471C273.619,104.707,272.719,104.975,271.487,104.975 M269.023,97.653v3.836
		c0,0.859,0.205,1.519,0.616,1.981c0.411,0.462,1.027,0.693,1.848,0.693c0.961,0,1.654-0.208,2.079-0.623
		c0.425-0.415,0.646-1.052,0.665-1.911c0.009-0.093,0.014-0.336,0.014-0.728c0-0.383-0.005-0.621-0.014-0.714
		c-0.019-0.821-0.257-1.449-0.714-1.883c-0.457-0.434-1.064-0.651-1.82-0.651H269.023 M283.065,104.835h-0.238
		c-0.093,0-0.168-0.028-0.224-0.084c-0.056-0.056-0.084-0.131-0.084-0.224v-4.2c0-1.783-0.891-2.674-2.674-2.674h-1.876v6.874
		c0,0.093-0.028,0.168-0.084,0.224c-0.056,0.056-0.131,0.084-0.224,0.084h-0.238c-0.093,0-0.168-0.028-0.224-0.084
		c-0.056-0.056-0.084-0.131-0.084-0.224v-7.378c0-0.093,0.028-0.168,0.084-0.224c0.056-0.056,0.131-0.084,0.224-0.084h2.492
		c1.167,0,2.035,0.292,2.604,0.875c0.569,0.583,0.854,1.43,0.854,2.541v4.27c0,0.093-0.028,0.168-0.084,0.224
		C283.233,104.807,283.158,104.835,283.065,104.835 M265.677,104.835h-0.238c-0.093,0-0.168-0.028-0.224-0.084
		c-0.056-0.056-0.084-0.131-0.084-0.224v-4.2c0-1.783-0.892-2.674-2.674-2.674h-2.408c-0.093,0-0.168-0.028-0.224-0.084
		c-0.056-0.056-0.084-0.131-0.084-0.224v-0.196c0-0.093,0.028-0.168,0.084-0.224c0.056-0.056,0.131-0.084,0.224-0.084h2.478
		c1.167,0,2.035,0.292,2.604,0.875c0.569,0.583,0.854,1.43,0.854,2.541v4.27c0,0.093-0.028,0.168-0.084,0.224
		C265.845,104.807,265.77,104.835,265.677,104.835 M260.287,104.835h-0.238c-0.093,0-0.168-0.028-0.224-0.084
		c-0.056-0.056-0.084-0.131-0.084-0.224v-4.914c0-0.093,0.028-0.168,0.084-0.224c0.056-0.056,0.131-0.084,0.224-0.084h0.238
		c0.093,0,0.168,0.028,0.224,0.084c0.056,0.056,0.084,0.131,0.084,0.224v4.914c0,0.093-0.028,0.168-0.084,0.224
		C260.455,104.807,260.38,104.835,260.287,104.835"/>
	<path fill="#000000" d="M231.139,121.635h-0.28l-0.203-0.091l-0.077-0.217l0.07-0.182l2.212-3.108
		c-0.28,0.075-0.583,0.112-0.91,0.112c-0.709,0-1.314-0.154-1.813-0.462c-0.499-0.308-0.875-0.709-1.127-1.204
		c-0.252-0.495-0.378-1.013-0.378-1.554c0-0.541,0.126-1.059,0.378-1.554c0.252-0.495,0.628-0.898,1.127-1.211
		c0.499-0.313,1.104-0.469,1.813-0.469c0.709,0,1.316,0.156,1.82,0.469c0.504,0.313,0.882,0.716,1.134,1.211
		c0.252,0.495,0.378,1.013,0.378,1.554c0,0.485-0.079,0.915-0.238,1.288c-0.159,0.373-0.355,0.728-0.588,1.064l-2.884,4.074
		l-0.077,0.105l-0.154,0.126L231.139,121.635 M231.951,112.535c-0.439,0-0.845,0.098-1.218,0.294
		c-0.373,0.196-0.67,0.476-0.889,0.84c-0.219,0.364-0.329,0.784-0.329,1.26c0,0.476,0.11,0.894,0.329,1.253
		c0.219,0.359,0.516,0.637,0.889,0.833c0.373,0.196,0.779,0.294,1.218,0.294c0.439,0,0.845-0.098,1.218-0.294
		c0.373-0.196,0.672-0.476,0.896-0.84c0.224-0.364,0.336-0.779,0.336-1.246c0-0.476-0.112-0.896-0.336-1.26
		c-0.224-0.364-0.523-0.644-0.896-0.84C232.796,112.633,232.39,112.535,231.951,112.535"/>
	<path fill="#000000" d="M240.925,122.685h-0.238l-0.168-0.084l-0.028-0.21l0.266-1.68c0.028-0.252,0.145-0.378,0.35-0.378h0.63
		l0.154,0.07l0.056,0.154l-0.056,0.252l-0.602,1.582c-0.047,0.103-0.096,0.177-0.147,0.224
		C241.091,122.662,241.018,122.685,240.925,122.685"/>
	<path fill="#000000" d="M247.309,121.775c-0.653,0-1.244-0.112-1.771-0.336c-0.527-0.224-0.945-0.555-1.253-0.994
		c-0.308-0.439-0.462-0.961-0.462-1.568c0-0.579,0.14-1.078,0.42-1.498c0.28-0.42,0.667-0.747,1.162-0.98
		c-0.392-0.214-0.695-0.502-0.91-0.861c-0.215-0.359-0.322-0.782-0.322-1.267c0-0.812,0.296-1.444,0.889-1.897
		c0.593-0.453,1.342-0.679,2.247-0.679c0.905,0,1.654,0.226,2.247,0.679c0.593,0.453,0.889,1.085,0.889,1.897
		c0,0.485-0.11,0.908-0.329,1.267c-0.219,0.359-0.52,0.646-0.903,0.861c0.495,0.234,0.882,0.56,1.162,0.98
		c0.28,0.42,0.42,0.919,0.42,1.498c0,0.607-0.154,1.129-0.462,1.568c-0.308,0.439-0.726,0.77-1.253,0.994
		C248.553,121.663,247.962,121.775,247.309,121.775 M247.309,116.833c-0.747,0-1.367,0.187-1.862,0.56
		c-0.495,0.373-0.742,0.868-0.742,1.484c0,0.625,0.25,1.125,0.749,1.498c0.499,0.373,1.118,0.56,1.855,0.56
		c0.737,0,1.356-0.187,1.855-0.56c0.499-0.373,0.749-0.873,0.749-1.498c0-0.616-0.247-1.111-0.742-1.484
		C248.676,117.02,248.056,116.833,247.309,116.833 M247.309,112.535c-0.644,0-1.181,0.156-1.61,0.469
		c-0.429,0.313-0.644,0.735-0.644,1.267s0.215,0.952,0.644,1.26c0.429,0.308,0.966,0.462,1.61,0.462
		c0.635-0.019,1.169-0.182,1.603-0.49c0.434-0.308,0.651-0.718,0.651-1.232c0-0.532-0.215-0.954-0.644-1.267
		C248.49,112.691,247.953,112.535,247.309,112.535"/>
	<path fill="#000000" d="M261.253,121.761c-0.149,0-0.224-0.075-0.224-0.224v-0.35c0-0.159,0.098-0.275,0.294-0.35l0.574-0.224
		c0.719-0.28,1.267-0.667,1.645-1.162c0.378-0.495,0.567-1.232,0.567-2.212c0-0.7-0.084-1.251-0.252-1.652
		c-0.168-0.401-0.446-0.691-0.833-0.868c-0.387-0.177-0.917-0.266-1.589-0.266h-0.476h-0.042l-1.092-0.014
		c-0.094,0-0.168-0.026-0.224-0.077c-0.056-0.051-0.084-0.124-0.084-0.217v-2.142c0-0.093,0.028-0.168,0.084-0.224
		c0.056-0.056,0.131-0.084,0.224-0.084h0.238c0.093,0,0.168,0.028,0.224,0.084c0.056,0.056,0.084,0.131,0.084,0.224v1.638h1.134
		c0.868,0,1.552,0.119,2.051,0.357c0.499,0.238,0.859,0.623,1.078,1.155c0.219,0.532,0.329,1.26,0.329,2.184
		c0,1.204-0.273,2.123-0.819,2.758c-0.546,0.635-1.276,1.115-2.191,1.442l-0.588,0.21L261.253,121.761 M283.065,121.635h-0.238
		c-0.093,0-0.168-0.028-0.224-0.084c-0.056-0.056-0.084-0.131-0.084-0.224v-4.2c0-1.783-0.891-2.674-2.674-2.674h-1.876v6.874
		c0,0.093-0.028,0.168-0.084,0.224c-0.056,0.056-0.131,0.084-0.224,0.084h-0.238c-0.093,0-0.168-0.028-0.224-0.084
		c-0.056-0.056-0.084-0.131-0.084-0.224v-7.378c0-0.093,0.028-0.168,0.084-0.224c0.056-0.056,0.131-0.084,0.224-0.084h2.492
		c1.167,0,2.035,0.292,2.604,0.875c0.569,0.583,0.854,1.43,0.854,2.541v4.27c0,0.093-0.028,0.168-0.084,0.224
		C283.233,121.607,283.158,121.635,283.065,121.635 M274.693,121.635h-4.83c-0.093,0-0.168-0.028-0.224-0.084
		c-0.056-0.056-0.084-0.131-0.084-0.224v-0.196c0-0.093,0.028-0.168,0.084-0.224c0.056-0.056,0.131-0.084,0.224-0.084h3.99
		l-4.494-6.622c-0.075-0.112-0.112-0.205-0.112-0.28l0.091-0.196l0.203-0.084h0.252c0.14,0,0.257,0.075,0.35,0.224l2.688,3.906
		c0.915-0.345,1.372-1.167,1.372-2.464v-1.358c0-0.093,0.028-0.168,0.084-0.224c0.056-0.056,0.131-0.084,0.224-0.084h0.238
		c0.093,0,0.168,0.028,0.224,0.084c0.056,0.056,0.084,0.131,0.084,0.224v1.428c0,0.756-0.152,1.388-0.455,1.897
		c-0.303,0.509-0.749,0.884-1.337,1.127l1.582,2.31c0.103,0.149,0.154,0.289,0.154,0.42v0.196c0,0.093-0.028,0.168-0.084,0.224
		C274.861,121.607,274.786,121.635,274.693,121.635 M267.413,118.415h-0.238c-0.093,0-0.168-0.028-0.224-0.084
		c-0.056-0.056-0.084-0.131-0.084-0.224v-4.158c0-0.093,0.028-0.168,0.084-0.224c0.056-0.056,0.131-0.084,0.224-0.084h0.238
		c0.093,0,0.168,0.028,0.224,0.084c0.056,0.056,0.084,0.131,0.084,0.224v4.158c0,0.093-0.028,0.168-0.084,0.224
		C267.581,118.387,267.506,118.415,267.413,118.415"/>
	<path fill="#D05559" d="M274.389,150.455c2.962-0.132,5.276-0.817,6.941-2.057c1.664-1.239,2.453-3.135,2.365-5.687l-0.022-0.616
		c-0.059-1.378-0.484-2.431-1.276-3.157c-0.792-0.726-1.848-1.133-3.168-1.221l-1.298-0.066l-0.176,1.848l1.1,0.066
		c0.836,0.059,1.466,0.345,1.892,0.858c0.425,0.514,0.638,1.166,0.638,1.958v0.616c0.102,3.212-1.54,4.987-4.928,5.324l-1.188-10.45
		h-2.354L274.389,150.455z"/>
	<path fill="#000000" d="M249.843,181.208h-0.266c-0.093,0-0.168-0.028-0.224-0.084s-0.084-0.131-0.084-0.224v-8.344l-2.506,1.932
		l-0.196,0.07c-0.093,0-0.173-0.042-0.238-0.126l-0.154-0.196l-0.07-0.196c0-0.093,0.042-0.173,0.126-0.238l2.982-2.296
		c0.093-0.065,0.215-0.098,0.364-0.098h0.266c0.093,0,0.168,0.028,0.224,0.084s0.084,0.131,0.084,0.224v9.184
		c0,0.093-0.028,0.168-0.084,0.224S249.937,181.208,249.843,181.208 M244.271,181.208h-0.266c-0.093,0-0.168-0.028-0.224-0.084
		s-0.084-0.131-0.084-0.224v-8.344l-2.506,1.932l-0.196,0.07c-0.093,0-0.173-0.042-0.238-0.126l-0.154-0.196l-0.07-0.196
		c0-0.093,0.042-0.173,0.126-0.238l2.982-2.296c0.093-0.065,0.215-0.098,0.364-0.098h0.266c0.093,0,0.168,0.028,0.224,0.084
		s0.084,0.131,0.084,0.224v9.184c0,0.093-0.028,0.168-0.084,0.224S244.365,181.208,244.271,181.208"/>
	<path fill="#000000" d="M280.223,181.348c-1.185,0-2.046-0.289-2.583-0.868c-0.537-0.579-0.805-1.428-0.805-2.548v-4.41
		c0-0.093,0.028-0.168,0.084-0.224c0.056-0.056,0.131-0.084,0.224-0.084h0.238c0.093,0,0.168,0.028,0.224,0.084
		c0.056,0.056,0.084,0.131,0.084,0.224v4.34c0,0.859,0.208,1.519,0.623,1.981c0.415,0.462,1.052,0.693,1.911,0.693
		c0.859,0,1.491-0.207,1.897-0.623c0.406-0.415,0.618-1.052,0.637-1.911v-0.476v-1.106c-0.019-0.84-0.205-1.461-0.56-1.862
		c-0.355-0.401-0.835-0.602-1.442-0.602c-0.177,0-0.38,0.033-0.609,0.098c-0.229,0.065-0.422,0.154-0.581,0.266l-0.14,0.042
		l-0.161-0.063l-0.077-0.161v-0.182v-0.07l0.028-0.196l0.112-0.126c0.214-0.14,0.436-0.245,0.665-0.315
		c0.229-0.07,0.506-0.105,0.833-0.105c0.868,0,1.542,0.261,2.023,0.784c0.481,0.523,0.735,1.33,0.763,2.422
		c0.009,0.093,0.014,0.378,0.014,0.854c0,0.485-0.005,0.775-0.014,0.868c-0.028,1.12-0.301,1.946-0.819,2.478
		C282.274,181.082,281.417,181.348,280.223,181.348 M274.245,181.208h-0.238c-0.093,0-0.168-0.028-0.224-0.084
		c-0.056-0.056-0.084-0.131-0.084-0.224v-7.378c0-0.093,0.028-0.168,0.084-0.224c0.056-0.056,0.131-0.084,0.224-0.084h0.238
		c0.093,0,0.168,0.028,0.224,0.084c0.056,0.056,0.084,0.131,0.084,0.224v7.378c0,0.093-0.028,0.168-0.084,0.224
		C274.413,181.18,274.338,181.208,274.245,181.208 M271.473,181.208h-3.472c-0.094,0-0.168-0.028-0.224-0.084
		c-0.056-0.056-0.084-0.131-0.084-0.224v-0.196c0-0.093,0.028-0.168,0.084-0.224c0.056-0.056,0.131-0.084,0.224-0.084h2.898
		l-0.266-3.836l-0.014-0.294c-0.037-0.56-0.084-0.985-0.14-1.274c-0.056-0.289-0.177-0.523-0.364-0.7
		c-0.187-0.177-0.471-0.266-0.854-0.266h-0.518c-0.093,0-0.168-0.028-0.224-0.084c-0.056-0.056-0.084-0.131-0.084-0.224v-0.196
		c0-0.093,0.028-0.168,0.084-0.224c0.056-0.056,0.131-0.084,0.224-0.084h0.518c0.625,0,1.09,0.135,1.393,0.406
		c0.303,0.271,0.504,0.621,0.602,1.05c0.098,0.429,0.175,1.036,0.231,1.82l0.294,4.41v0.042l-0.091,0.189L271.473,181.208
		 M265.621,181.208h-0.238c-0.093,0-0.168-0.028-0.224-0.084c-0.056-0.056-0.084-0.131-0.084-0.224v-4.2
		c0-1.783-0.892-2.674-2.674-2.674h-2.408c-0.093,0-0.168-0.028-0.224-0.084c-0.056-0.056-0.084-0.131-0.084-0.224v-0.196
		c0-0.093,0.028-0.168,0.084-0.224c0.056-0.056,0.131-0.084,0.224-0.084h2.478c1.166,0,2.035,0.292,2.604,0.875
		c0.569,0.584,0.854,1.43,0.854,2.541v4.27c0,0.093-0.028,0.168-0.084,0.224C265.789,181.18,265.714,181.208,265.621,181.208
		 M260.231,181.208h-0.238c-0.093,0-0.168-0.028-0.224-0.084c-0.056-0.056-0.084-0.131-0.084-0.224v-4.914
		c0-0.093,0.028-0.168,0.084-0.224c0.056-0.056,0.131-0.084,0.224-0.084h0.238c0.093,0,0.168,0.028,0.224,0.084
		c0.056,0.056,0.084,0.131,0.084,0.224v4.914c0,0.093-0.028,0.168-0.084,0.224C260.399,181.18,260.324,181.208,260.231,181.208"/>
	<path fill="#000000" d="M202.44,198.148c-1.176,0-2.023-0.355-2.541-1.064c-0.518-0.709-0.791-1.643-0.819-2.8l-0.014-1.162
		l0.014-1.19c0.028-1.157,0.301-2.091,0.819-2.8c0.518-0.709,1.365-1.064,2.541-1.064c1.176,0,2.023,0.355,2.541,1.064
		c0.518,0.709,0.791,1.643,0.819,2.8c0.009,0.261,0.014,0.658,0.014,1.19c0,0.523-0.005,0.91-0.014,1.162
		c-0.028,1.157-0.301,2.091-0.819,2.8C204.463,197.794,203.616,198.148,202.44,198.148 M202.44,188.908
		c-0.803,0-1.412,0.273-1.827,0.819c-0.415,0.546-0.632,1.304-0.651,2.275l-0.014,1.092l0.014,1.12
		c0.019,0.989,0.236,1.752,0.651,2.289c0.415,0.537,1.024,0.805,1.827,0.805c0.803,0,1.412-0.268,1.827-0.805
		c0.415-0.537,0.632-1.3,0.651-2.289c0.009-0.271,0.014-0.644,0.014-1.12c0-0.476-0.005-0.84-0.014-1.092
		c-0.019-0.971-0.236-1.729-0.651-2.275C203.851,189.181,203.242,188.908,202.44,188.908 M193.214,198.008h-0.28l-0.203-0.091
		l-0.077-0.217l0.07-0.182l2.212-3.108c-0.28,0.075-0.583,0.112-0.91,0.112c-0.709,0-1.314-0.154-1.813-0.462
		c-0.499-0.308-0.875-0.709-1.127-1.204c-0.252-0.495-0.378-1.013-0.378-1.554c0-0.541,0.126-1.059,0.378-1.554
		c0.252-0.495,0.628-0.898,1.127-1.211c0.499-0.313,1.104-0.469,1.813-0.469c0.709,0,1.316,0.156,1.82,0.469
		c0.504,0.313,0.882,0.716,1.134,1.211c0.252,0.495,0.378,1.013,0.378,1.554c0,0.485-0.079,0.915-0.238,1.288
		c-0.159,0.373-0.355,0.728-0.588,1.064l-2.884,4.074l-0.077,0.105l-0.154,0.126L193.214,198.008 M194.026,188.908
		c-0.439,0-0.845,0.098-1.218,0.294c-0.373,0.196-0.67,0.476-0.889,0.84c-0.219,0.364-0.329,0.784-0.329,1.26
		c0,0.476,0.11,0.894,0.329,1.253c0.219,0.359,0.516,0.637,0.889,0.833c0.373,0.196,0.779,0.294,1.218,0.294
		c0.439,0,0.845-0.098,1.218-0.294c0.373-0.196,0.672-0.476,0.896-0.84c0.224-0.364,0.336-0.779,0.336-1.246
		c0-0.476-0.112-0.896-0.336-1.26c-0.224-0.364-0.523-0.644-0.896-0.84C194.87,189.006,194.464,188.908,194.026,188.908"/>
	<path fill="#000000" d="M211.624,199.058h-0.238l-0.168-0.084l-0.028-0.21l0.266-1.68c0.028-0.252,0.145-0.378,0.35-0.378h0.63
		l0.154,0.07l0.056,0.154l-0.056,0.252l-0.602,1.582c-0.047,0.103-0.096,0.177-0.147,0.224
		C211.789,199.035,211.717,199.058,211.624,199.058"/>
	<path fill="#000000" d="M223.426,198.148c-0.719,0-1.335-0.154-1.848-0.462c-0.513-0.308-0.901-0.714-1.162-1.218
		c-0.261-0.504-0.392-1.045-0.392-1.624c0-0.812,0.294-1.638,0.882-2.478l2.758-3.878l0.077-0.105l0.154-0.126l0.203-0.049h0.266
		l0.203,0.091l0.077,0.217l-0.07,0.182l-2.1,2.968c0.28-0.075,0.597-0.112,0.952-0.112c0.719,0,1.335,0.152,1.848,0.455
		c0.513,0.303,0.901,0.707,1.162,1.211c0.261,0.504,0.392,1.045,0.392,1.624c0,0.579-0.131,1.12-0.392,1.624
		c-0.261,0.504-0.649,0.91-1.162,1.218C224.76,197.994,224.144,198.148,223.426,198.148 M223.426,192.394
		c-0.448,0-0.863,0.096-1.246,0.287c-0.383,0.191-0.691,0.471-0.924,0.84c-0.233,0.369-0.35,0.81-0.35,1.323
		c0,0.513,0.117,0.957,0.35,1.33c0.233,0.373,0.541,0.656,0.924,0.847c0.383,0.191,0.798,0.287,1.246,0.287s0.863-0.096,1.246-0.287
		c0.383-0.191,0.691-0.474,0.924-0.847c0.233-0.373,0.35-0.817,0.35-1.33c0-0.513-0.117-0.954-0.35-1.323
		c-0.233-0.369-0.541-0.649-0.924-0.84C224.289,192.49,223.874,192.394,223.426,192.394 M217.812,198.008h-0.266
		c-0.093,0-0.168-0.028-0.224-0.084c-0.056-0.056-0.084-0.131-0.084-0.224v-8.344l-2.506,1.932l-0.196,0.07
		c-0.093,0-0.173-0.042-0.238-0.126l-0.154-0.196l-0.07-0.196c0-0.093,0.042-0.173,0.126-0.238l2.982-2.296
		c0.093-0.065,0.215-0.098,0.364-0.098h0.266c0.093,0,0.168,0.028,0.224,0.084s0.084,0.131,0.084,0.224v9.184
		c0,0.093-0.028,0.168-0.084,0.224C217.98,197.98,217.905,198.008,217.812,198.008"/>
	<path fill="#000000" d="M232.273,199.058h-0.238l-0.168-0.084l-0.028-0.21l0.266-1.68c0.028-0.252,0.145-0.378,0.35-0.378h0.63
		l0.154,0.07l0.056,0.154l-0.056,0.252l-0.602,1.582c-0.047,0.103-0.096,0.177-0.147,0.224
		C232.439,199.035,232.367,199.058,232.273,199.058"/>
	<path fill="#000000" d="M238.657,198.148c-0.653,0-1.244-0.112-1.771-0.336c-0.527-0.224-0.945-0.555-1.253-0.994
		c-0.308-0.439-0.462-0.961-0.462-1.568c0-0.579,0.14-1.078,0.42-1.498c0.28-0.42,0.667-0.747,1.162-0.98
		c-0.392-0.215-0.695-0.502-0.91-0.861c-0.215-0.359-0.322-0.782-0.322-1.267c0-0.812,0.296-1.444,0.889-1.897
		c0.593-0.453,1.342-0.679,2.247-0.679c0.905,0,1.654,0.226,2.247,0.679c0.593,0.453,0.889,1.085,0.889,1.897
		c0,0.486-0.11,0.908-0.329,1.267c-0.219,0.359-0.52,0.646-0.903,0.861c0.495,0.233,0.882,0.56,1.162,0.98
		c0.28,0.42,0.42,0.919,0.42,1.498c0,0.607-0.154,1.13-0.462,1.568c-0.308,0.439-0.726,0.77-1.253,0.994
		C239.901,198.036,239.311,198.148,238.657,198.148 M238.657,193.206c-0.747,0-1.367,0.187-1.862,0.56
		c-0.495,0.373-0.742,0.868-0.742,1.484c0,0.625,0.25,1.125,0.749,1.498c0.499,0.373,1.118,0.56,1.855,0.56
		c0.737,0,1.356-0.187,1.855-0.56c0.499-0.373,0.749-0.873,0.749-1.498c0-0.616-0.247-1.111-0.742-1.484
		C240.025,193.393,239.404,193.206,238.657,193.206 M238.657,188.908c-0.644,0-1.181,0.156-1.61,0.469
		c-0.429,0.313-0.644,0.735-0.644,1.267c0,0.532,0.215,0.952,0.644,1.26c0.429,0.308,0.966,0.462,1.61,0.462
		c0.635-0.019,1.169-0.182,1.603-0.49c0.434-0.308,0.651-0.719,0.651-1.232c0-0.532-0.215-0.954-0.644-1.267
		C239.838,189.065,239.301,188.908,238.657,188.908"/>
	<path fill="#000000" d="M280.223,198.148c-1.185,0-2.046-0.289-2.583-0.868c-0.537-0.579-0.805-1.428-0.805-2.548v-4.41
		c0-0.093,0.028-0.168,0.084-0.224c0.056-0.056,0.131-0.084,0.224-0.084h0.238c0.093,0,0.168,0.028,0.224,0.084
		c0.056,0.056,0.084,0.131,0.084,0.224v4.34c0,0.859,0.208,1.519,0.623,1.981c0.415,0.462,1.052,0.693,1.911,0.693
		c0.859,0,1.491-0.208,1.897-0.623c0.406-0.415,0.618-1.052,0.637-1.911v-0.476v-1.106c-0.019-0.84-0.205-1.461-0.56-1.862
		c-0.355-0.401-0.835-0.602-1.442-0.602c-0.177,0-0.38,0.033-0.609,0.098c-0.229,0.065-0.422,0.154-0.581,0.266l-0.14,0.042
		l-0.161-0.063l-0.077-0.161v-0.182v-0.07l0.028-0.196l0.112-0.126c0.214-0.14,0.436-0.245,0.665-0.315
		c0.229-0.07,0.506-0.105,0.833-0.105c0.868,0,1.542,0.261,2.023,0.784c0.481,0.523,0.735,1.33,0.763,2.422
		c0.009,0.093,0.014,0.378,0.014,0.854c0,0.485-0.005,0.775-0.014,0.868c-0.028,1.12-0.301,1.946-0.819,2.478
		C282.274,197.882,281.417,198.148,280.223,198.148 M274.329,198.008h-0.238c-0.093,0-0.168-0.028-0.224-0.084
		c-0.056-0.056-0.084-0.131-0.084-0.224v-4.2c0-1.783-0.891-2.674-2.674-2.674h-1.876v6.874c0,0.093-0.028,0.168-0.084,0.224
		c-0.056,0.056-0.131,0.084-0.224,0.084h-0.238c-0.093,0-0.168-0.028-0.224-0.084c-0.056-0.056-0.084-0.131-0.084-0.224v-7.378
		c0-0.093,0.028-0.168,0.084-0.224c0.056-0.056,0.131-0.084,0.224-0.084h2.492c1.167,0,2.035,0.292,2.604,0.875
		c0.569,0.584,0.854,1.43,0.854,2.541v4.27c0,0.093-0.028,0.168-0.084,0.224C274.497,197.98,274.422,198.008,274.329,198.008
		 M263.171,198.008h-3.472c-0.093,0-0.168-0.028-0.224-0.084c-0.056-0.056-0.084-0.131-0.084-0.224v-0.196
		c0-0.093,0.028-0.168,0.084-0.224c0.056-0.056,0.131-0.084,0.224-0.084h2.898l-0.266-3.836l-0.014-0.294
		c-0.037-0.56-0.084-0.985-0.14-1.274c-0.056-0.289-0.177-0.523-0.364-0.7c-0.187-0.177-0.471-0.266-0.854-0.266h-0.518
		c-0.093,0-0.168-0.028-0.224-0.084c-0.056-0.056-0.084-0.131-0.084-0.224v-0.196c0-0.093,0.028-0.168,0.084-0.224
		c0.056-0.056,0.131-0.084,0.224-0.084h0.518c0.625,0,1.09,0.135,1.393,0.406c0.303,0.271,0.504,0.621,0.602,1.05
		c0.098,0.429,0.175,1.036,0.231,1.82l0.294,4.41v0.042l-0.091,0.189L263.171,198.008 M257.319,198.008h-0.238
		c-0.093,0-0.168-0.028-0.224-0.084c-0.056-0.056-0.084-0.131-0.084-0.224v-4.2c0-1.783-0.891-2.674-2.674-2.674h-2.408
		c-0.093,0-0.168-0.028-0.224-0.084s-0.084-0.131-0.084-0.224v-0.196c0-0.093,0.028-0.168,0.084-0.224s0.131-0.084,0.224-0.084
		h2.478c1.167,0,2.035,0.292,2.604,0.875c0.569,0.584,0.854,1.43,0.854,2.541v4.27c0,0.093-0.028,0.168-0.084,0.224
		C257.487,197.98,257.412,198.008,257.319,198.008 M251.929,198.008h-0.238c-0.093,0-0.168-0.028-0.224-0.084
		c-0.056-0.056-0.084-0.131-0.084-0.224v-4.914c0-0.093,0.028-0.168,0.084-0.224s0.131-0.084,0.224-0.084h0.238
		c0.093,0,0.168,0.028,0.224,0.084c0.056,0.056,0.084,0.131,0.084,0.224v4.914c0,0.093-0.028,0.168-0.084,0.224
		C252.097,197.98,252.022,198.008,251.929,198.008 M265.831,194.788h-0.238c-0.093,0-0.168-0.028-0.224-0.084
		c-0.056-0.056-0.084-0.131-0.084-0.224v-4.158c0-0.093,0.028-0.168,0.084-0.224c0.056-0.056,0.131-0.084,0.224-0.084h0.238
		c0.093,0,0.168,0.028,0.224,0.084c0.056,0.056,0.084,0.131,0.084,0.224v4.158c0,0.093-0.028,0.168-0.084,0.224
		C265.999,194.76,265.924,194.788,265.831,194.788"/>
	<path fill="#D05559" d="M274.785,226.608h3.74c1.569,0,2.775-0.484,3.619-1.452c0.843-0.968,1.265-2.332,1.265-4.092v-1.276
		c0-1.76-0.422-3.124-1.265-4.092c-0.844-0.968-2.05-1.452-3.619-1.452h-3.74v1.804h3.168c1.041,0,1.818,0.316,2.332,0.946
		c0.513,0.631,0.77,1.526,0.77,2.684v1.496c0,1.159-0.257,2.054-0.77,2.684c-0.514,0.631-1.291,0.946-2.332,0.946h-3.168V226.608z"
		/>
	<path fill="#000000" d="M179.998,257.722c-0.719,0-1.335-0.154-1.848-0.462c-0.513-0.308-0.901-0.714-1.162-1.218
		c-0.261-0.504-0.392-1.045-0.392-1.624c0-0.812,0.294-1.638,0.882-2.478l2.758-3.878l0.077-0.105l0.154-0.126l0.203-0.049h0.266
		l0.203,0.091l0.077,0.217l-0.07,0.182l-2.1,2.968c0.28-0.075,0.597-0.112,0.952-0.112c0.719,0,1.335,0.152,1.848,0.455
		c0.513,0.303,0.901,0.707,1.162,1.211c0.261,0.504,0.392,1.045,0.392,1.624c0,0.579-0.131,1.12-0.392,1.624
		c-0.261,0.504-0.649,0.91-1.162,1.218C181.333,257.568,180.717,257.722,179.998,257.722 M179.998,251.968
		c-0.448,0-0.863,0.096-1.246,0.287c-0.383,0.191-0.691,0.471-0.924,0.84c-0.234,0.369-0.35,0.81-0.35,1.323
		c0,0.513,0.116,0.957,0.35,1.33c0.233,0.373,0.541,0.656,0.924,0.847c0.383,0.191,0.798,0.287,1.246,0.287s0.863-0.096,1.246-0.287
		c0.383-0.191,0.691-0.474,0.924-0.847c0.233-0.373,0.35-0.817,0.35-1.33c0-0.513-0.117-0.954-0.35-1.323
		c-0.233-0.369-0.541-0.649-0.924-0.84C180.861,252.063,180.446,251.968,179.998,251.968 M173.446,257.582h-0.266
		c-0.093,0-0.168-0.028-0.224-0.084c-0.056-0.056-0.084-0.131-0.084-0.224v-2.212h-4.62c-0.093,0-0.168-0.028-0.224-0.084
		c-0.056-0.056-0.084-0.131-0.084-0.224v-0.224c0-0.14,0.051-0.28,0.154-0.42l4.256-6.09c0.047-0.075,0.117-0.133,0.21-0.175
		c0.093-0.042,0.196-0.063,0.308-0.063h0.574c0.093,0,0.168,0.028,0.224,0.084s0.084,0.131,0.084,0.224v6.132h1.274
		c0.093,0,0.168,0.028,0.224,0.084s0.084,0.131,0.084,0.224v0.224c0,0.093-0.028,0.168-0.084,0.224
		c-0.056,0.056-0.131,0.084-0.224,0.084h-1.274v2.212c0,0.094-0.028,0.168-0.084,0.224
		C173.614,257.554,173.54,257.582,173.446,257.582 M172.872,248.776l-3.822,5.446h3.822V248.776"/>
	<path fill="#000000" d="M188.846,258.632h-0.238l-0.168-0.084l-0.028-0.21l0.266-1.68c0.028-0.252,0.145-0.378,0.35-0.378h0.63
		l0.154,0.07l0.056,0.154l-0.056,0.252l-0.602,1.582c-0.047,0.103-0.096,0.177-0.147,0.224
		C189.011,258.608,188.939,258.632,188.846,258.632"/>
	<path fill="#000000" d="M202.888,257.722c-0.653,0-1.22-0.124-1.701-0.371c-0.481-0.247-0.849-0.567-1.106-0.959
		c-0.257-0.392-0.394-0.812-0.413-1.26v-0.028l0.077-0.175l0.203-0.063h0.266c0.093,0,0.168,0.021,0.224,0.063
		c0.056,0.042,0.098,0.128,0.126,0.259c0.14,0.569,0.425,0.994,0.854,1.274c0.429,0.28,0.919,0.42,1.47,0.42
		c0.719,0,1.314-0.215,1.785-0.644c0.471-0.429,0.707-1.027,0.707-1.792c0-0.467-0.11-0.873-0.329-1.218
		c-0.219-0.345-0.52-0.611-0.903-0.798c-0.383-0.187-0.803-0.28-1.26-0.28c-0.373,0-0.674,0.049-0.903,0.147
		c-0.229,0.098-0.46,0.231-0.693,0.399c-0.14,0.103-0.254,0.177-0.343,0.224c-0.089,0.047-0.184,0.07-0.287,0.07h-0.252
		l-0.224-0.091l-0.084-0.217l0.42-4.578c0.009-0.103,0.04-0.182,0.091-0.238c0.051-0.056,0.124-0.084,0.217-0.084h4.564
		c0.093,0,0.168,0.028,0.224,0.084c0.056,0.056,0.084,0.131,0.084,0.224v0.224c0,0.093-0.028,0.168-0.084,0.224
		c-0.056,0.056-0.131,0.084-0.224,0.084h-4.018l-0.294,3.164c0.495-0.317,1.097-0.476,1.806-0.476c0.635,0,1.206,0.121,1.715,0.364
		c0.509,0.243,0.912,0.6,1.211,1.071c0.299,0.471,0.448,1.038,0.448,1.701c0,0.7-0.149,1.297-0.448,1.792
		c-0.299,0.495-0.702,0.866-1.211,1.113C204.094,257.598,203.522,257.722,202.888,257.722 M194.908,257.722
		c-0.672,0-1.258-0.112-1.757-0.336c-0.499-0.224-0.884-0.518-1.155-0.882c-0.271-0.364-0.415-0.756-0.434-1.176l0.084-0.196
		l0.21-0.07h0.196c0.093,0,0.173,0.021,0.238,0.063c0.065,0.042,0.112,0.128,0.14,0.259c0.131,0.551,0.427,0.938,0.889,1.162
		c0.462,0.224,0.992,0.336,1.589,0.336c0.747,0,1.344-0.177,1.792-0.532c0.448-0.355,0.672-0.868,0.672-1.54
		c0-1.288-0.775-1.932-2.324-1.932h-1.232c-0.093,0-0.168-0.028-0.224-0.084s-0.084-0.131-0.084-0.224v-0.21
		c0-0.103,0.042-0.215,0.126-0.336l2.884-3.402h-4.228c-0.093,0-0.168-0.028-0.224-0.084s-0.084-0.131-0.084-0.224v-0.21
		c0-0.093,0.028-0.17,0.084-0.231c0.056-0.061,0.131-0.091,0.224-0.091h5.222c0.103,0,0.182,0.028,0.238,0.084
		s0.084,0.135,0.084,0.238v0.21c0,0.084-0.037,0.173-0.112,0.266l-2.954,3.458h0.28c0.989,0,1.771,0.233,2.345,0.7
		c0.574,0.467,0.861,1.157,0.861,2.072c0,0.597-0.145,1.118-0.434,1.561c-0.289,0.443-0.686,0.779-1.19,1.008
		C196.126,257.607,195.552,257.722,194.908,257.722"/>
	<path fill="#000000" d="M211.848,258.632h-0.238l-0.168-0.084l-0.028-0.21l0.266-1.68c0.028-0.252,0.145-0.378,0.35-0.378h0.63
		l0.154,0.07l0.056,0.154l-0.056,0.252l-0.602,1.582c-0.047,0.103-0.096,0.177-0.147,0.224
		C212.013,258.608,211.941,258.632,211.848,258.632"/>
	<path fill="#000000" d="M227.695,257.582h-0.266c-0.093,0-0.168-0.028-0.224-0.084c-0.056-0.056-0.084-0.131-0.084-0.224v-2.212
		h-4.62c-0.093,0-0.168-0.028-0.224-0.084c-0.056-0.056-0.084-0.131-0.084-0.224v-0.224c0-0.14,0.051-0.28,0.154-0.42l4.256-6.09
		c0.047-0.075,0.117-0.133,0.21-0.175c0.093-0.042,0.196-0.063,0.308-0.063h0.574c0.093,0,0.168,0.028,0.224,0.084
		s0.084,0.131,0.084,0.224v6.132h1.274c0.093,0,0.168,0.028,0.224,0.084s0.084,0.131,0.084,0.224v0.224
		c0,0.093-0.028,0.168-0.084,0.224c-0.056,0.056-0.131,0.084-0.224,0.084h-1.274v2.212c0,0.094-0.028,0.168-0.084,0.224
		C227.863,257.554,227.789,257.582,227.695,257.582 M227.121,248.776l-3.822,5.446h3.822V248.776 M220.682,257.582h-5.74
		c-0.093,0-0.168-0.028-0.224-0.084c-0.056-0.056-0.084-0.131-0.084-0.224v-0.21c0-0.187,0.117-0.383,0.35-0.588l3.626-3.626
		c0.513-0.476,0.859-0.877,1.036-1.204c0.177-0.327,0.266-0.714,0.266-1.162c0-0.625-0.18-1.115-0.539-1.47
		c-0.359-0.355-0.87-0.532-1.533-0.532c-0.625,0-1.125,0.182-1.498,0.546c-0.373,0.364-0.597,0.854-0.672,1.47
		c-0.009,0.103-0.049,0.182-0.119,0.238l-0.203,0.084h-0.28c-0.093,0-0.166-0.026-0.217-0.077l-0.077-0.189
		c0.019-0.457,0.14-0.91,0.364-1.358c0.224-0.448,0.565-0.819,1.022-1.113c0.457-0.294,1.017-0.441,1.68-0.441
		c0.999,0,1.741,0.271,2.226,0.812c0.485,0.541,0.728,1.218,0.728,2.03c0,0.56-0.121,1.064-0.364,1.512
		c-0.243,0.448-0.63,0.919-1.162,1.414l-3.276,3.332h4.69c0.103,0,0.182,0.028,0.238,0.084c0.056,0.056,0.084,0.136,0.084,0.238
		v0.21c0,0.094-0.031,0.168-0.091,0.224C220.852,257.554,220.775,257.582,220.682,257.582"/>
	<path fill="#000000" d="M234.947,258.632h-0.238l-0.168-0.084l-0.028-0.21l0.266-1.68c0.028-0.252,0.145-0.378,0.35-0.378h0.63
		l0.154,0.07l0.056,0.154l-0.056,0.252l-0.602,1.582c-0.047,0.103-0.096,0.177-0.147,0.224
		C235.113,258.608,235.04,258.632,234.947,258.632"/>
	<path fill="#000000" d="M246.903,257.722c-0.653,0-1.244-0.112-1.771-0.336c-0.527-0.224-0.945-0.555-1.253-0.994
		c-0.308-0.439-0.462-0.961-0.462-1.568c0-0.579,0.14-1.078,0.42-1.498c0.28-0.42,0.667-0.747,1.162-0.98
		c-0.392-0.215-0.695-0.502-0.91-0.861c-0.215-0.359-0.322-0.782-0.322-1.267c0-0.812,0.296-1.444,0.889-1.897
		c0.593-0.453,1.342-0.679,2.247-0.679c0.905,0,1.654,0.226,2.247,0.679c0.593,0.453,0.889,1.085,0.889,1.897
		c0,0.485-0.11,0.908-0.329,1.267c-0.219,0.359-0.52,0.646-0.903,0.861c0.495,0.233,0.882,0.56,1.162,0.98
		c0.28,0.42,0.42,0.919,0.42,1.498c0,0.607-0.154,1.129-0.462,1.568c-0.308,0.439-0.726,0.77-1.253,0.994
		C248.147,257.61,247.556,257.722,246.903,257.722 M246.903,252.78c-0.747,0-1.367,0.187-1.862,0.56
		c-0.495,0.373-0.742,0.868-0.742,1.484c0,0.625,0.25,1.125,0.749,1.498c0.499,0.373,1.118,0.56,1.855,0.56
		c0.737,0,1.356-0.187,1.855-0.56c0.499-0.373,0.749-0.873,0.749-1.498c0-0.616-0.247-1.111-0.742-1.484
		C248.27,252.966,247.65,252.78,246.903,252.78 M246.903,248.482c-0.644,0-1.181,0.156-1.61,0.469
		c-0.429,0.313-0.644,0.735-0.644,1.267c0,0.532,0.215,0.952,0.644,1.26c0.429,0.308,0.966,0.462,1.61,0.462
		c0.635-0.019,1.169-0.182,1.603-0.49c0.434-0.308,0.651-0.719,0.651-1.232c0-0.532-0.215-0.954-0.644-1.267
		C248.084,248.638,247.547,248.482,246.903,248.482 M241.135,257.582h-0.266c-0.093,0-0.168-0.028-0.224-0.084
		c-0.056-0.056-0.084-0.131-0.084-0.224v-8.344l-2.506,1.932l-0.196,0.07c-0.093,0-0.173-0.042-0.238-0.126l-0.154-0.196
		l-0.07-0.196c0-0.093,0.042-0.173,0.126-0.238l2.982-2.296c0.093-0.065,0.215-0.098,0.364-0.098h0.266
		c0.093,0,0.168,0.028,0.224,0.084s0.084,0.131,0.084,0.224v9.184c0,0.094-0.028,0.168-0.084,0.224
		C241.303,257.554,241.228,257.582,241.135,257.582"/>
	<path fill="#000000" d="M280.153,257.582h-2.058c-0.093,0-0.168-0.028-0.224-0.084c-0.056-0.056-0.084-0.131-0.084-0.224v-0.196
		c0-0.093,0.028-0.168,0.084-0.224c0.056-0.056,0.131-0.084,0.224-0.084h1.988c0.915,0,1.58-0.226,1.995-0.679
		c0.415-0.453,0.642-1.118,0.679-1.995c0.009-0.14,0.014-0.313,0.014-0.518c0-0.196-0.005-0.364-0.014-0.504
		c-0.028-0.877-0.252-1.542-0.672-1.995c-0.42-0.453-1.087-0.679-2.002-0.679h-1.988c-0.093,0-0.168-0.028-0.224-0.084
		c-0.056-0.056-0.084-0.131-0.084-0.224v-0.196c0-0.093,0.028-0.168,0.084-0.224c0.056-0.056,0.131-0.084,0.224-0.084h2.058
		c1.157,0,2.013,0.289,2.569,0.868c0.555,0.579,0.852,1.428,0.889,2.548c0.009,0.14,0.014,0.331,0.014,0.574
		c0,0.252-0.005,0.448-0.014,0.588c-0.037,1.12-0.334,1.969-0.889,2.548C282.166,257.292,281.31,257.582,280.153,257.582
		 M275.183,257.582h-0.238c-0.093,0-0.168-0.028-0.224-0.084c-0.056-0.056-0.084-0.131-0.084-0.224v-4.2
		c0-1.783-0.891-2.674-2.674-2.674h-1.708c-0.093,0-0.168-0.028-0.224-0.084c-0.056-0.056-0.084-0.131-0.084-0.224v-0.196
		c0-0.093,0.028-0.168,0.084-0.224c0.056-0.056,0.131-0.084,0.224-0.084h1.778c1.167,0,2.035,0.292,2.604,0.875
		c0.569,0.583,0.854,1.43,0.854,2.541v4.27c0,0.094-0.028,0.168-0.084,0.224C275.351,257.554,275.276,257.582,275.183,257.582
		 M267.623,257.582h-0.238c-0.093,0-0.168-0.028-0.224-0.084c-0.056-0.056-0.084-0.131-0.084-0.224v-7.378
		c0-0.093,0.028-0.168,0.084-0.224c0.056-0.056,0.131-0.084,0.224-0.084h0.238c0.093,0,0.168,0.028,0.224,0.084
		c0.056,0.056,0.084,0.131,0.084,0.224v7.378c0,0.094-0.028,0.168-0.084,0.224C267.791,257.554,267.716,257.582,267.623,257.582
		 M265.173,257.582h-5.6c-0.093,0-0.168-0.028-0.224-0.084c-0.056-0.056-0.084-0.131-0.084-0.224v-0.196
		c0-0.093,0.028-0.168,0.084-0.224c0.056-0.056,0.131-0.084,0.224-0.084h4.214v-3.696c0-1.783-0.891-2.674-2.674-2.674h-1.4
		c-0.093,0-0.168-0.028-0.224-0.084c-0.056-0.056-0.084-0.131-0.084-0.224v-0.196c0-0.093,0.028-0.168,0.084-0.224
		c0.056-0.056,0.131-0.084,0.224-0.084h1.47c1.167,0,2.035,0.294,2.604,0.882c0.569,0.588,0.854,1.433,0.854,2.534v3.766h0.532
		c0.093,0,0.168,0.028,0.224,0.084c0.056,0.056,0.084,0.131,0.084,0.224v0.196c0,0.094-0.028,0.168-0.084,0.224
		C265.341,257.554,265.266,257.582,265.173,257.582"/>
	<path fill="#000000" d="M227.205,274.522c-0.653,0-1.22-0.124-1.701-0.371c-0.481-0.247-0.849-0.567-1.106-0.959
		c-0.257-0.392-0.394-0.812-0.413-1.26v-0.028l0.077-0.175l0.203-0.063h0.266c0.093,0,0.168,0.021,0.224,0.063
		c0.056,0.042,0.098,0.128,0.126,0.259c0.14,0.569,0.425,0.994,0.854,1.274c0.429,0.28,0.919,0.42,1.47,0.42
		c0.719,0,1.314-0.215,1.785-0.644c0.471-0.429,0.707-1.027,0.707-1.792c0-0.467-0.11-0.873-0.329-1.218
		c-0.219-0.345-0.52-0.611-0.903-0.798c-0.383-0.187-0.803-0.28-1.26-0.28c-0.373,0-0.674,0.049-0.903,0.147
		c-0.229,0.098-0.46,0.231-0.693,0.399c-0.14,0.103-0.254,0.177-0.343,0.224c-0.089,0.047-0.184,0.07-0.287,0.07h-0.252
		l-0.224-0.091l-0.084-0.217l0.42-4.578c0.009-0.103,0.04-0.182,0.091-0.238c0.051-0.056,0.124-0.084,0.217-0.084h4.564
		c0.093,0,0.168,0.028,0.224,0.084c0.056,0.056,0.084,0.131,0.084,0.224v0.224c0,0.093-0.028,0.168-0.084,0.224
		c-0.056,0.056-0.131,0.084-0.224,0.084h-4.018l-0.294,3.164c0.495-0.317,1.097-0.476,1.806-0.476c0.635,0,1.206,0.121,1.715,0.364
		c0.509,0.243,0.912,0.6,1.211,1.071c0.299,0.471,0.448,1.038,0.448,1.701c0,0.7-0.149,1.297-0.448,1.792
		c-0.299,0.495-0.702,0.866-1.211,1.113C228.412,274.398,227.84,274.522,227.205,274.522 M234.387,274.382h-0.28l-0.203-0.091
		l-0.077-0.217l0.07-0.182l2.212-3.108c-0.28,0.075-0.583,0.112-0.91,0.112c-0.709,0-1.314-0.154-1.813-0.462
		c-0.499-0.308-0.875-0.709-1.127-1.204c-0.252-0.495-0.378-1.013-0.378-1.554c0-0.541,0.126-1.059,0.378-1.554
		c0.252-0.495,0.628-0.898,1.127-1.211c0.499-0.313,1.104-0.469,1.813-0.469c0.709,0,1.316,0.156,1.82,0.469
		c0.504,0.313,0.882,0.716,1.134,1.211c0.252,0.495,0.378,1.013,0.378,1.554c0,0.485-0.079,0.915-0.238,1.288
		c-0.159,0.373-0.355,0.728-0.588,1.064l-2.884,4.074l-0.077,0.105l-0.154,0.126L234.387,274.382 M235.199,265.282
		c-0.439,0-0.845,0.098-1.218,0.294c-0.373,0.196-0.67,0.476-0.889,0.84c-0.219,0.364-0.329,0.784-0.329,1.26
		c0,0.476,0.11,0.894,0.329,1.253c0.219,0.359,0.515,0.637,0.889,0.833c0.373,0.196,0.779,0.294,1.218,0.294
		c0.439,0,0.845-0.098,1.218-0.294c0.373-0.196,0.672-0.476,0.896-0.84c0.224-0.364,0.336-0.779,0.336-1.246
		c0-0.476-0.112-0.896-0.336-1.26c-0.224-0.364-0.523-0.644-0.896-0.84C236.044,265.38,235.638,265.282,235.199,265.282"/>
	<path fill="#000000" d="M280.153,274.382h-2.058c-0.093,0-0.168-0.028-0.224-0.084c-0.056-0.056-0.084-0.131-0.084-0.224v-0.196
		c0-0.093,0.028-0.168,0.084-0.224c0.056-0.056,0.131-0.084,0.224-0.084h1.988c0.915,0,1.58-0.226,1.995-0.679
		c0.415-0.453,0.642-1.117,0.679-1.995c0.009-0.14,0.014-0.313,0.014-0.518c0-0.196-0.005-0.364-0.014-0.504
		c-0.028-0.877-0.252-1.542-0.672-1.995c-0.42-0.453-1.087-0.679-2.002-0.679h-1.988c-0.093,0-0.168-0.028-0.224-0.084
		c-0.056-0.056-0.084-0.131-0.084-0.224v-0.196c0-0.093,0.028-0.168,0.084-0.224c0.056-0.056,0.131-0.084,0.224-0.084h2.058
		c1.157,0,2.013,0.289,2.569,0.868c0.555,0.579,0.852,1.428,0.889,2.548c0.009,0.14,0.014,0.331,0.014,0.574
		c0,0.252-0.005,0.448-0.014,0.588c-0.037,1.12-0.334,1.969-0.889,2.548C282.166,274.092,281.31,274.382,280.153,274.382
		 M275.183,274.382h-0.238c-0.093,0-0.168-0.028-0.224-0.084c-0.056-0.056-0.084-0.131-0.084-0.224v-4.2
		c0-1.783-0.891-2.674-2.674-2.674h-1.708c-0.093,0-0.168-0.028-0.224-0.084c-0.056-0.056-0.084-0.131-0.084-0.224v-0.196
		c0-0.093,0.028-0.168,0.084-0.224c0.056-0.056,0.131-0.084,0.224-0.084h1.778c1.167,0,2.035,0.292,2.604,0.875
		c0.569,0.583,0.854,1.43,0.854,2.541v4.27c0,0.094-0.028,0.168-0.084,0.224C275.351,274.354,275.276,274.382,275.183,274.382
		 M267.623,274.382h-0.238c-0.093,0-0.168-0.028-0.224-0.084c-0.056-0.056-0.084-0.131-0.084-0.224v-7.378
		c0-0.093,0.028-0.168,0.084-0.224c0.056-0.056,0.131-0.084,0.224-0.084h0.238c0.093,0,0.168,0.028,0.224,0.084
		c0.056,0.056,0.084,0.131,0.084,0.224v7.378c0,0.094-0.028,0.168-0.084,0.224C267.791,274.354,267.716,274.382,267.623,274.382
		 M265.173,274.382h-5.6c-0.093,0-0.168-0.028-0.224-0.084c-0.056-0.056-0.084-0.131-0.084-0.224v-0.196
		c0-0.093,0.028-0.168,0.084-0.224c0.056-0.056,0.131-0.084,0.224-0.084h4.214v-3.696c0-1.783-0.891-2.674-2.674-2.674h-1.4
		c-0.093,0-0.168-0.028-0.224-0.084c-0.056-0.056-0.084-0.131-0.084-0.224v-0.196c0-0.093,0.028-0.168,0.084-0.224
		c0.056-0.056,0.131-0.084,0.224-0.084h1.47c1.167,0,2.035,0.294,2.604,0.882c0.569,0.588,0.854,1.433,0.854,2.534v3.766h0.532
		c0.093,0,0.168,0.028,0.224,0.084c0.056,0.056,0.084,0.131,0.084,0.224v0.196c0,0.094-0.028,0.168-0.084,0.224
		C265.341,274.354,265.266,274.382,265.173,274.382 M254.071,274.382h-0.238c-0.093,0-0.168-0.028-0.224-0.084
		c-0.056-0.056-0.084-0.131-0.084-0.224v-4.2c0-1.783-0.891-2.674-2.674-2.674h-1.064c-0.093,0.672-0.161,1.213-0.203,1.624
		c-0.042,0.411-0.058,0.878-0.049,1.4v3.85c0,0.094-0.028,0.168-0.084,0.224c-0.056,0.056-0.131,0.084-0.224,0.084l-1.596-0.028
		c-0.093,0-0.168-0.028-0.224-0.084c-0.056-0.056-0.084-0.131-0.084-0.224v-0.196c0-0.093,0.028-0.168,0.084-0.224
		c0.056-0.056,0.131-0.084,0.224-0.084l1.05,0.014v-3.262v-0.434c0-0.513,0.019-0.964,0.056-1.351
		c0.037-0.387,0.107-0.824,0.21-1.309h-0.714c-0.093,0-0.168-0.028-0.224-0.084c-0.056-0.056-0.084-0.131-0.084-0.224v-0.196
		c0-0.093,0.028-0.168,0.084-0.224c0.056-0.056,0.131-0.084,0.224-0.084h2.688c1.167,0,2.035,0.292,2.604,0.875
		c0.569,0.583,0.854,1.43,0.854,2.541v4.27c0,0.094-0.028,0.168-0.084,0.224C254.239,274.354,254.164,274.382,254.071,274.382
		 M257.081,271.162h-0.238c-0.093,0-0.168-0.028-0.224-0.084c-0.056-0.056-0.084-0.131-0.084-0.224v-4.158
		c0-0.093,0.028-0.168,0.084-0.224c0.056-0.056,0.131-0.084,0.224-0.084h0.238c0.093,0,0.168,0.028,0.224,0.084
		c0.056,0.056,0.084,0.131,0.084,0.224v4.158c0,0.093-0.028,0.168-0.084,0.224C257.249,271.134,257.174,271.162,257.081,271.162"/>
	<path fill="#D05559" d="M276.743,290.618v-3.41h-2.134v5.214h6.622l-4.114,10.56h2.354l4.114-10.406v-1.958H276.743z"/>
	<path fill="#000000" d="M242.437,334.095c-0.719,0-1.335-0.154-1.848-0.462c-0.513-0.308-0.901-0.714-1.162-1.218
		c-0.261-0.504-0.392-1.045-0.392-1.624c0-0.812,0.294-1.638,0.882-2.478l2.758-3.878l0.077-0.105l0.154-0.126l0.203-0.049h0.266
		l0.203,0.091l0.077,0.217l-0.07,0.182l-2.1,2.968c0.28-0.075,0.597-0.112,0.952-0.112c0.719,0,1.335,0.152,1.848,0.455
		c0.513,0.303,0.901,0.707,1.162,1.211c0.261,0.504,0.392,1.045,0.392,1.624c0,0.579-0.131,1.12-0.392,1.624
		c-0.261,0.504-0.649,0.91-1.162,1.218C243.772,333.941,243.156,334.095,242.437,334.095 M242.437,328.341
		c-0.448,0-0.863,0.096-1.246,0.287c-0.383,0.191-0.691,0.471-0.924,0.84c-0.234,0.369-0.35,0.81-0.35,1.323
		c0,0.513,0.117,0.957,0.35,1.33c0.233,0.373,0.541,0.656,0.924,0.847c0.383,0.191,0.798,0.287,1.246,0.287
		c0.448,0,0.863-0.096,1.246-0.287c0.383-0.191,0.691-0.474,0.924-0.847c0.233-0.373,0.35-0.816,0.35-1.33
		c0-0.513-0.117-0.954-0.35-1.323c-0.233-0.368-0.541-0.649-0.924-0.84C243.3,328.437,242.885,328.341,242.437,328.341
		 M248.849,333.955h-0.294l-0.203-0.091l-0.077-0.217l0.028-0.126l3.598-8.526h-4.774c-0.093,0-0.168-0.028-0.224-0.084
		c-0.056-0.056-0.084-0.131-0.084-0.224v-0.21c0-0.093,0.028-0.17,0.084-0.231c0.056-0.061,0.131-0.091,0.224-0.091h5.404
		c0.103,0,0.182,0.028,0.238,0.084c0.056,0.056,0.084,0.135,0.084,0.238v0.21c0,0.177-0.033,0.35-0.098,0.518l-3.542,8.4
		c-0.047,0.112-0.096,0.198-0.147,0.259C249.015,333.925,248.942,333.955,248.849,333.955"/>
	<path fill="#000000" d="M279.915,334.081c-0.149,0-0.224-0.075-0.224-0.224v-0.35c0-0.159,0.098-0.275,0.294-0.35l0.574-0.224
		c0.719-0.28,1.267-0.667,1.645-1.162c0.378-0.495,0.567-1.232,0.567-2.212c0-0.7-0.084-1.251-0.252-1.652
		c-0.168-0.401-0.446-0.691-0.833-0.868c-0.387-0.177-0.917-0.266-1.589-0.266h-0.476h-0.042l-1.092-0.014
		c-0.093,0-0.168-0.026-0.224-0.077c-0.056-0.051-0.084-0.124-0.084-0.217v-2.142c0-0.093,0.028-0.168,0.084-0.224
		c0.056-0.056,0.131-0.084,0.224-0.084h0.238c0.093,0,0.168,0.028,0.224,0.084c0.056,0.056,0.084,0.131,0.084,0.224v1.638h1.134
		c0.868,0,1.552,0.119,2.051,0.357c0.499,0.238,0.858,0.623,1.078,1.155c0.219,0.532,0.329,1.26,0.329,2.184
		c0,1.204-0.273,2.123-0.819,2.758c-0.546,0.635-1.276,1.115-2.191,1.442l-0.588,0.21L279.915,334.081 M276.093,333.955h-0.238
		c-0.093,0-0.168-0.028-0.224-0.084c-0.056-0.056-0.084-0.131-0.084-0.224v-4.2c0-1.783-0.891-2.674-2.674-2.674h-1.876v6.874
		c0,0.093-0.028,0.168-0.084,0.224c-0.056,0.056-0.131,0.084-0.224,0.084h-0.238c-0.093,0-0.168-0.028-0.224-0.084
		c-0.056-0.056-0.084-0.131-0.084-0.224v-7.378c0-0.093,0.028-0.168,0.084-0.224c0.056-0.056,0.131-0.084,0.224-0.084h2.492
		c1.167,0,2.035,0.292,2.604,0.875c0.569,0.583,0.854,1.43,0.854,2.541v4.27c0,0.093-0.028,0.168-0.084,0.224
		C276.261,333.927,276.186,333.955,276.093,333.955 M267.567,333.955h-5.628c-0.093,0-0.168-0.028-0.224-0.084
		c-0.056-0.056-0.084-0.131-0.084-0.224v-7.378c0-0.093,0.028-0.168,0.084-0.224c0.056-0.056,0.131-0.084,0.224-0.084h2.478
		c1.167,0,2.035,0.292,2.604,0.875c0.569,0.583,0.854,1.43,0.854,2.541v4.27c0,0.093-0.028,0.168-0.084,0.224
		C267.735,333.927,267.66,333.955,267.567,333.955 M262.471,326.773v6.37h4.55v-3.696c0-1.783-0.891-2.674-2.674-2.674H262.471"/>
	<path fill="#000000" d="M247.855,350.895c-1.176,0-2.023-0.355-2.541-1.064c-0.518-0.709-0.791-1.643-0.819-2.8l-0.014-1.162
		l0.014-1.19c0.028-1.157,0.301-2.091,0.819-2.8c0.518-0.709,1.365-1.064,2.541-1.064c1.176,0,2.023,0.355,2.541,1.064
		c0.518,0.709,0.791,1.643,0.819,2.8c0.009,0.261,0.014,0.658,0.014,1.19c0,0.523-0.005,0.91-0.014,1.162
		c-0.028,1.157-0.301,2.091-0.819,2.8C249.878,350.54,249.031,350.895,247.855,350.895 M247.855,341.655
		c-0.803,0-1.412,0.273-1.827,0.819c-0.415,0.546-0.632,1.304-0.651,2.275l-0.014,1.092l0.014,1.12
		c0.019,0.989,0.236,1.752,0.651,2.289c0.415,0.537,1.024,0.805,1.827,0.805c0.803,0,1.412-0.268,1.827-0.805
		c0.415-0.537,0.632-1.3,0.651-2.289c0.009-0.271,0.014-0.644,0.014-1.12s-0.005-0.84-0.014-1.092
		c-0.019-0.971-0.236-1.729-0.651-2.275C249.267,341.928,248.658,341.655,247.855,341.655 M242.479,350.755h-5.74
		c-0.093,0-0.168-0.028-0.224-0.084c-0.056-0.056-0.084-0.131-0.084-0.224v-0.21c0-0.187,0.117-0.383,0.35-0.588l3.626-3.626
		c0.513-0.476,0.859-0.877,1.036-1.204c0.177-0.327,0.266-0.714,0.266-1.162c0-0.625-0.18-1.115-0.539-1.47
		c-0.359-0.355-0.87-0.532-1.533-0.532c-0.625,0-1.125,0.182-1.498,0.546c-0.373,0.364-0.597,0.854-0.672,1.47
		c-0.009,0.103-0.049,0.182-0.119,0.238l-0.203,0.084h-0.28c-0.093,0-0.166-0.026-0.217-0.077l-0.077-0.189
		c0.019-0.457,0.14-0.91,0.364-1.358c0.224-0.448,0.565-0.819,1.022-1.113c0.457-0.294,1.017-0.441,1.68-0.441
		c0.999,0,1.741,0.271,2.226,0.812c0.485,0.541,0.728,1.218,0.728,2.03c0,0.56-0.121,1.064-0.364,1.512
		c-0.243,0.448-0.63,0.919-1.162,1.414l-3.276,3.332h4.69c0.103,0,0.182,0.028,0.238,0.084c0.056,0.056,0.084,0.135,0.084,0.238
		v0.21c0,0.093-0.03,0.168-0.091,0.224C242.649,350.727,242.572,350.755,242.479,350.755"/>
	<path fill="#000000" d="M261.113,352.491h-0.238c-0.093,0-0.168-0.028-0.224-0.084c-0.056-0.056-0.084-0.131-0.084-0.224v-9.114
		c0-0.093,0.028-0.168,0.084-0.224c0.056-0.056,0.131-0.084,0.224-0.084h0.238c0.093,0,0.168,0.028,0.224,0.084
		c0.056,0.056,0.084,0.131,0.084,0.224v9.114c0,0.093-0.028,0.168-0.084,0.224C261.281,352.463,261.206,352.491,261.113,352.491
		 M279.915,350.881c-0.149,0-0.224-0.075-0.224-0.224v-0.35c0-0.159,0.098-0.275,0.294-0.35l0.574-0.224
		c0.719-0.28,1.267-0.667,1.645-1.162c0.378-0.495,0.567-1.232,0.567-2.212c0-0.7-0.084-1.251-0.252-1.652
		c-0.168-0.401-0.446-0.691-0.833-0.868c-0.387-0.177-0.917-0.266-1.589-0.266h-0.476h-0.042l-1.092-0.014
		c-0.093,0-0.168-0.026-0.224-0.077c-0.056-0.051-0.084-0.124-0.084-0.217v-2.142c0-0.093,0.028-0.168,0.084-0.224
		c0.056-0.056,0.131-0.084,0.224-0.084h0.238c0.093,0,0.168,0.028,0.224,0.084c0.056,0.056,0.084,0.131,0.084,0.224v1.638h1.134
		c0.868,0,1.552,0.119,2.051,0.357c0.499,0.238,0.858,0.623,1.078,1.155c0.219,0.532,0.329,1.26,0.329,2.184
		c0,1.204-0.273,2.123-0.819,2.758c-0.546,0.635-1.276,1.115-2.191,1.442l-0.588,0.21L279.915,350.881 M272.817,350.755h-3.542
		c-0.093,0-0.168-0.028-0.224-0.084c-0.056-0.056-0.084-0.131-0.084-0.224v-0.196c0-0.093,0.028-0.168,0.084-0.224
		c0.056-0.056,0.131-0.084,0.224-0.084h2.996v-3.696c0-0.513-0.091-0.975-0.273-1.386c-0.182-0.411-0.434-0.728-0.756-0.952
		c-0.322-0.224-0.684-0.336-1.085-0.336h-1.624l-1.036,6.86c-0.009,0.093-0.049,0.17-0.119,0.231l-0.231,0.091h-0.252l-0.196-0.091
		c-0.047-0.061-0.065-0.138-0.056-0.231l1.022-6.86h-0.63c-0.093,0-0.168-0.028-0.224-0.084c-0.056-0.056-0.084-0.131-0.084-0.224
		v-0.196c0-0.093,0.028-0.168,0.084-0.224c0.056-0.056,0.131-0.084,0.224-0.084h3.192c0.56,0,1.059,0.14,1.498,0.42
		c0.439,0.28,0.782,0.679,1.029,1.197c0.247,0.518,0.371,1.118,0.371,1.799v4.27c0,0.093-0.028,0.168-0.084,0.224
		C272.985,350.727,272.91,350.755,272.817,350.755 M264.319,350.755h-0.238c-0.093,0-0.168-0.028-0.224-0.084
		c-0.056-0.056-0.084-0.131-0.084-0.224v-7.378c0-0.093,0.028-0.168,0.084-0.224c0.056-0.056,0.131-0.084,0.224-0.084h0.238
		c0.093,0,0.168,0.028,0.224,0.084c0.056,0.056,0.084,0.131,0.084,0.224v7.378c0,0.093-0.028,0.168-0.084,0.224
		C264.487,350.727,264.412,350.755,264.319,350.755 M275.827,347.535h-0.238c-0.093,0-0.168-0.028-0.224-0.084
		c-0.056-0.056-0.084-0.131-0.084-0.224v-4.158c0-0.093,0.028-0.168,0.084-0.224c0.056-0.056,0.131-0.084,0.224-0.084h0.238
		c0.093,0,0.168,0.028,0.224,0.084c0.056,0.056,0.084,0.131,0.084,0.224v4.158c0,0.093-0.028,0.168-0.084,0.224
		C275.995,347.507,275.92,347.535,275.827,347.535"/>
	<path fill="#D05559" d="M283.475,373.129c0-2.17-0.411-3.765-1.232-4.785c-0.822-1.019-1.966-1.529-3.432-1.529
		c-0.807,0-1.526,0.231-2.156,0.693c-0.631,0.462-1.1,1.155-1.408,2.079l-0.99-2.596h-2.442l1.716,3.85l-1.584,8.514h2.354
		l1.474-8.426c0.146-0.674,0.443-1.213,0.891-1.617c0.447-0.403,1.023-0.605,1.727-0.605c0.909,0,1.609,0.349,2.101,1.045
		c0.491,0.697,0.737,1.845,0.737,3.443c0,1.496-0.257,2.633-0.77,3.41c-0.514,0.778-1.328,1.166-2.442,1.166
		c-0.396,0-0.873-0.058-1.43-0.176l-0.242,1.804c0.645,0.146,1.276,0.22,1.892,0.22c1.672,0,2.962-0.568,3.872-1.705
		C283.02,376.777,283.475,375.182,283.475,373.129z"/>
	<path fill="#000000" d="M228.578,410.328h-0.266c-0.094,0-0.168-0.028-0.224-0.084c-0.056-0.056-0.084-0.131-0.084-0.224v-2.212
		h-4.62c-0.093,0-0.168-0.028-0.224-0.084c-0.056-0.056-0.084-0.131-0.084-0.224v-0.224c0-0.14,0.051-0.28,0.154-0.42l4.256-6.09
		c0.047-0.075,0.117-0.133,0.21-0.175c0.093-0.042,0.196-0.063,0.308-0.063h0.574c0.093,0,0.168,0.028,0.224,0.084
		c0.056,0.056,0.084,0.131,0.084,0.224v6.132h1.274c0.093,0,0.168,0.028,0.224,0.084c0.056,0.056,0.084,0.131,0.084,0.224v0.224
		c0,0.093-0.028,0.168-0.084,0.224c-0.056,0.056-0.131,0.084-0.224,0.084h-1.274v2.212c0,0.093-0.028,0.168-0.084,0.224
		C228.746,410.3,228.671,410.328,228.578,410.328 M228.004,401.522l-3.822,5.446h3.822V401.522 M221.186,410.328h-0.266
		c-0.093,0-0.168-0.028-0.224-0.084c-0.056-0.056-0.084-0.131-0.084-0.224v-8.344l-2.506,1.932l-0.196,0.07
		c-0.093,0-0.173-0.042-0.238-0.126l-0.154-0.196l-0.07-0.196c0-0.093,0.042-0.173,0.126-0.238l2.982-2.296
		c0.093-0.065,0.215-0.098,0.364-0.098h0.266c0.093,0,0.168,0.028,0.224,0.084c0.056,0.056,0.084,0.131,0.084,0.224v9.184
		c0,0.093-0.028,0.168-0.084,0.224C221.354,410.3,221.279,410.328,221.186,410.328"/>
	<path fill="#000000" d="M235.829,411.378h-0.238l-0.168-0.084l-0.028-0.21l0.266-1.68c0.028-0.252,0.145-0.378,0.35-0.378h0.63
		l0.154,0.07l0.056,0.154l-0.056,0.252l-0.602,1.582c-0.047,0.103-0.096,0.177-0.147,0.224
		C235.995,411.355,235.922,411.378,235.829,411.378"/>
	<path fill="#000000" d="M247.771,410.468c-1.176,0-2.023-0.355-2.541-1.064c-0.518-0.709-0.791-1.643-0.819-2.8l-0.014-1.162
		l0.014-1.19c0.028-1.157,0.301-2.091,0.819-2.8c0.518-0.709,1.365-1.064,2.541-1.064c1.176,0,2.023,0.355,2.541,1.064
		c0.518,0.709,0.791,1.643,0.819,2.8c0.009,0.261,0.014,0.658,0.014,1.19c0,0.523-0.005,0.91-0.014,1.162
		c-0.028,1.157-0.301,2.091-0.819,2.8C249.794,410.113,248.947,410.468,247.771,410.468 M247.771,401.228
		c-0.803,0-1.412,0.273-1.827,0.819c-0.415,0.546-0.632,1.304-0.651,2.275l-0.014,1.092l0.014,1.12
		c0.019,0.989,0.236,1.752,0.651,2.289c0.415,0.537,1.024,0.805,1.827,0.805c0.803,0,1.412-0.268,1.827-0.805
		c0.415-0.537,0.632-1.3,0.651-2.289c0.009-0.271,0.014-0.644,0.014-1.12c0-0.476-0.005-0.84-0.014-1.092
		c-0.019-0.97-0.236-1.729-0.651-2.275C249.183,401.501,248.574,401.228,247.771,401.228 M242.017,410.328h-0.266
		c-0.093,0-0.168-0.028-0.224-0.084c-0.056-0.056-0.084-0.131-0.084-0.224v-8.344l-2.506,1.932l-0.196,0.07
		c-0.093,0-0.173-0.042-0.238-0.126l-0.154-0.196l-0.07-0.196c0-0.093,0.042-0.173,0.126-0.238l2.982-2.296
		c0.093-0.065,0.215-0.098,0.364-0.098h0.266c0.093,0,0.168,0.028,0.224,0.084c0.056,0.056,0.084,0.131,0.084,0.224v9.184
		c0,0.093-0.028,0.168-0.084,0.224C242.185,410.3,242.11,410.328,242.017,410.328"/>
	<path fill="#000000" d="M283.065,410.328h-3.542c-0.093,0-0.168-0.028-0.224-0.084c-0.056-0.056-0.084-0.131-0.084-0.224v-0.196
		c0-0.093,0.028-0.168,0.084-0.224c0.056-0.056,0.131-0.084,0.224-0.084h2.996v-3.696c0-0.513-0.091-0.975-0.273-1.386
		c-0.182-0.411-0.434-0.728-0.756-0.952c-0.322-0.224-0.684-0.336-1.085-0.336h-1.624l-1.036,6.86
		c-0.009,0.093-0.049,0.17-0.119,0.231l-0.231,0.091h-0.252l-0.196-0.091c-0.047-0.061-0.065-0.138-0.056-0.231l1.022-6.86h-0.63
		c-0.093,0-0.168-0.028-0.224-0.084c-0.056-0.056-0.084-0.131-0.084-0.224v-0.196c0-0.093,0.028-0.168,0.084-0.224
		c0.056-0.056,0.131-0.084,0.224-0.084h3.192c0.56,0,1.059,0.14,1.498,0.42c0.439,0.28,0.782,0.679,1.029,1.197
		c0.247,0.518,0.371,1.118,0.371,1.799v4.27c0,0.093-0.028,0.168-0.084,0.224C283.233,410.3,283.158,410.328,283.065,410.328
		 M271.585,410.328h-0.238c-0.093,0-0.168-0.028-0.224-0.084c-0.056-0.056-0.084-0.131-0.084-0.224v-7.378
		c0-0.093,0.028-0.168,0.084-0.224c0.056-0.056,0.131-0.084,0.224-0.084h0.238c0.093,0,0.168,0.028,0.224,0.084
		c0.056,0.056,0.084,0.131,0.084,0.224v7.378c0,0.093-0.028,0.168-0.084,0.224C271.753,410.3,271.678,410.328,271.585,410.328
		 M268.813,410.328h-3.472c-0.093,0-0.168-0.028-0.224-0.084c-0.056-0.056-0.084-0.131-0.084-0.224v-0.196
		c0-0.093,0.028-0.168,0.084-0.224c0.056-0.056,0.131-0.084,0.224-0.084h2.898l-0.266-3.836l-0.014-0.294
		c-0.037-0.56-0.084-0.985-0.14-1.274c-0.056-0.289-0.177-0.522-0.364-0.7c-0.187-0.177-0.471-0.266-0.854-0.266h-0.518
		c-0.093,0-0.168-0.028-0.224-0.084c-0.056-0.056-0.084-0.131-0.084-0.224v-0.196c0-0.093,0.028-0.168,0.084-0.224
		c0.056-0.056,0.131-0.084,0.224-0.084h0.518c0.625,0,1.09,0.135,1.393,0.406c0.303,0.271,0.504,0.621,0.602,1.05
		c0.098,0.429,0.175,1.036,0.231,1.82l0.294,4.41v0.042l-0.091,0.189L268.813,410.328 M261.547,410.328h-0.238
		c-0.093,0-0.168-0.028-0.224-0.084c-0.056-0.056-0.084-0.131-0.084-0.224v-5.292c0-0.364,0.035-0.686,0.105-0.966
		c0.07-0.28,0.161-0.485,0.273-0.616h-1.274c-0.093,0-0.168-0.028-0.224-0.084c-0.056-0.056-0.084-0.131-0.084-0.224v-0.196
		c0-0.093,0.028-0.168,0.084-0.224c0.056-0.056,0.131-0.084,0.224-0.084h3.108c0.093,0,0.168,0.028,0.224,0.084
		c0.056,0.056,0.084,0.131,0.084,0.224v0.196c0,0.093-0.028,0.168-0.084,0.224c-0.056,0.056-0.131,0.084-0.224,0.084h-0.896
		c-0.149,0.131-0.264,0.343-0.343,0.637c-0.079,0.294-0.119,0.632-0.119,1.015v5.222c0,0.093-0.028,0.168-0.084,0.224
		C261.715,410.3,261.64,410.328,261.547,410.328 M274.679,407.108h-0.238c-0.093,0-0.168-0.028-0.224-0.084
		c-0.056-0.056-0.084-0.131-0.084-0.224v-4.158c0-0.093,0.028-0.168,0.084-0.224c0.056-0.056,0.131-0.084,0.224-0.084h0.238
		c0.093,0,0.168,0.028,0.224,0.084c0.056,0.056,0.084,0.131,0.084,0.224v4.158c0,0.093-0.028,0.168-0.084,0.224
		C274.847,407.08,274.772,407.108,274.679,407.108"/>
	<path fill="#000000" d="M214.396,427.268c-1.176,0-2.023-0.355-2.541-1.064c-0.518-0.709-0.791-1.643-0.819-2.8l-0.014-1.162
		l0.014-1.19c0.028-1.157,0.301-2.091,0.819-2.8c0.518-0.709,1.365-1.064,2.541-1.064c1.176,0,2.023,0.355,2.541,1.064
		c0.518,0.709,0.791,1.643,0.819,2.8c0.009,0.261,0.014,0.658,0.014,1.19c0,0.523-0.005,0.91-0.014,1.162
		c-0.028,1.157-0.301,2.091-0.819,2.8C216.419,426.913,215.572,427.268,214.396,427.268 M214.396,418.028
		c-0.803,0-1.412,0.273-1.827,0.819c-0.415,0.546-0.633,1.304-0.651,2.275l-0.014,1.092l0.014,1.12
		c0.018,0.989,0.236,1.752,0.651,2.289c0.415,0.537,1.024,0.805,1.827,0.805c0.803,0,1.412-0.268,1.827-0.805
		c0.415-0.537,0.632-1.3,0.651-2.289c0.009-0.271,0.014-0.644,0.014-1.12c0-0.476-0.005-0.84-0.014-1.092
		c-0.019-0.97-0.236-1.729-0.651-2.275C215.807,418.301,215.198,418.028,214.396,418.028 M209.02,427.128h-5.74
		c-0.093,0-0.168-0.028-0.224-0.084c-0.056-0.056-0.084-0.131-0.084-0.224v-0.21c0-0.187,0.117-0.383,0.35-0.588l3.626-3.626
		c0.513-0.476,0.859-0.877,1.036-1.204c0.177-0.327,0.266-0.714,0.266-1.162c0-0.625-0.18-1.115-0.539-1.47
		c-0.359-0.355-0.87-0.532-1.533-0.532c-0.625,0-1.125,0.182-1.498,0.546c-0.373,0.364-0.597,0.854-0.672,1.47
		c-0.009,0.103-0.049,0.182-0.119,0.238l-0.203,0.084h-0.28c-0.093,0-0.166-0.026-0.217-0.077l-0.077-0.189
		c0.019-0.457,0.14-0.91,0.364-1.358c0.224-0.448,0.565-0.819,1.022-1.113c0.457-0.294,1.017-0.441,1.68-0.441
		c0.999,0,1.741,0.271,2.226,0.812c0.485,0.541,0.728,1.218,0.728,2.03c0,0.56-0.121,1.064-0.364,1.512
		c-0.243,0.448-0.63,0.919-1.162,1.414l-3.276,3.332h4.69c0.103,0,0.182,0.028,0.238,0.084c0.056,0.056,0.084,0.135,0.084,0.238
		v0.21c0,0.093-0.031,0.168-0.091,0.224C209.19,427.1,209.113,427.128,209.02,427.128"/>
	<path fill="#000000" d="M223.58,428.178h-0.238l-0.168-0.084l-0.028-0.21l0.266-1.68c0.028-0.252,0.145-0.378,0.35-0.378h0.63
		l0.154,0.07l0.056,0.154l-0.056,0.252l-0.602,1.582c-0.047,0.103-0.096,0.177-0.147,0.224
		C223.745,428.155,223.673,428.178,223.58,428.178"/>
	<path fill="#000000" d="M237.159,427.128h-0.266c-0.093,0-0.168-0.028-0.224-0.084c-0.056-0.056-0.084-0.131-0.084-0.224v-2.212
		h-4.62c-0.093,0-0.168-0.028-0.224-0.084c-0.056-0.056-0.084-0.131-0.084-0.224v-0.224c0-0.14,0.051-0.28,0.154-0.42l4.256-6.09
		c0.047-0.075,0.117-0.133,0.21-0.175c0.093-0.042,0.196-0.063,0.308-0.063h0.574c0.093,0,0.168,0.028,0.224,0.084
		c0.056,0.056,0.084,0.131,0.084,0.224v6.132h1.274c0.093,0,0.168,0.028,0.224,0.084c0.056,0.056,0.084,0.131,0.084,0.224v0.224
		c0,0.093-0.028,0.168-0.084,0.224c-0.056,0.056-0.131,0.084-0.224,0.084h-1.274v2.212c0,0.093-0.028,0.168-0.084,0.224
		C237.327,427.1,237.253,427.128,237.159,427.128 M236.585,418.322l-3.822,5.446h3.822V418.322 M229.767,427.128h-0.266
		c-0.093,0-0.168-0.028-0.224-0.084c-0.056-0.056-0.084-0.131-0.084-0.224v-8.344l-2.506,1.932l-0.196,0.07
		c-0.094,0-0.173-0.042-0.238-0.126l-0.154-0.196l-0.07-0.196c0-0.093,0.042-0.173,0.126-0.238l2.982-2.296
		c0.093-0.065,0.214-0.098,0.364-0.098h0.266c0.093,0,0.168,0.028,0.224,0.084c0.056,0.056,0.084,0.131,0.084,0.224v9.184
		c0,0.093-0.028,0.168-0.084,0.224C229.936,427.1,229.861,427.128,229.767,427.128"/>
	<path fill="#000000" d="M248.485,428.864h-0.238c-0.093,0-0.168-0.028-0.224-0.084c-0.056-0.056-0.084-0.131-0.084-0.224v-9.114
		c0-0.093,0.028-0.168,0.084-0.224c0.056-0.056,0.131-0.084,0.224-0.084h0.238c0.093,0,0.168,0.028,0.224,0.084
		c0.056,0.056,0.084,0.131,0.084,0.224v9.114c0,0.093-0.028,0.168-0.084,0.224C248.653,428.836,248.578,428.864,248.485,428.864
		 M271.501,427.254c-0.149,0-0.224-0.075-0.224-0.224v-0.35c0-0.159,0.098-0.275,0.294-0.35l0.574-0.224
		c0.719-0.28,1.267-0.667,1.645-1.162c0.378-0.495,0.567-1.232,0.567-2.212c0-0.7-0.084-1.251-0.252-1.652
		c-0.168-0.401-0.446-0.691-0.833-0.868c-0.388-0.177-0.917-0.266-1.589-0.266h-0.476h-0.042l-1.092-0.014
		c-0.093,0-0.168-0.026-0.224-0.077c-0.056-0.051-0.084-0.124-0.084-0.217v-2.142c0-0.093,0.028-0.168,0.084-0.224
		c0.056-0.056,0.131-0.084,0.224-0.084h0.238c0.093,0,0.168,0.028,0.224,0.084c0.056,0.056,0.084,0.131,0.084,0.224v1.638h1.134
		c0.868,0,1.552,0.119,2.051,0.357c0.499,0.238,0.859,0.623,1.078,1.155c0.219,0.532,0.329,1.26,0.329,2.184
		c0,1.204-0.273,2.123-0.819,2.758c-0.546,0.635-1.276,1.115-2.191,1.442l-0.588,0.21L271.501,427.254 M283.065,427.128h-3.542
		c-0.093,0-0.168-0.028-0.224-0.084c-0.056-0.056-0.084-0.131-0.084-0.224v-0.196c0-0.093,0.028-0.168,0.084-0.224
		c0.056-0.056,0.131-0.084,0.224-0.084h2.996v-3.696c0-0.513-0.091-0.975-0.273-1.386c-0.182-0.411-0.434-0.728-0.756-0.952
		c-0.322-0.224-0.684-0.336-1.085-0.336h-1.624l-1.036,6.86c-0.009,0.093-0.049,0.17-0.119,0.231l-0.231,0.091h-0.252l-0.196-0.091
		c-0.047-0.061-0.065-0.138-0.056-0.231l1.022-6.86h-0.63c-0.093,0-0.168-0.028-0.224-0.084c-0.056-0.056-0.084-0.131-0.084-0.224
		v-0.196c0-0.093,0.028-0.168,0.084-0.224c0.056-0.056,0.131-0.084,0.224-0.084h3.192c0.56,0,1.059,0.14,1.498,0.42
		c0.439,0.28,0.782,0.679,1.029,1.197c0.247,0.518,0.371,1.118,0.371,1.799v4.27c0,0.093-0.028,0.168-0.084,0.224
		C283.233,427.1,283.158,427.128,283.065,427.128 M265.075,427.128h-2.324c-0.093,0-0.168-0.028-0.224-0.084
		c-0.056-0.056-0.084-0.131-0.084-0.224v-0.196c0-0.093,0.028-0.168,0.084-0.224c0.056-0.056,0.131-0.084,0.224-0.084h2.254
		c0.709,0,1.248-0.231,1.617-0.693c0.369-0.462,0.572-1.122,0.609-1.981c0.009-0.093,0.014-0.266,0.014-0.518
		c0-0.243-0.005-0.411-0.014-0.504c-0.019-0.849-0.217-1.507-0.595-1.974c-0.378-0.467-0.922-0.7-1.631-0.7h-1.904v1.33
		c0,0.439,0.047,0.782,0.14,1.029c0.093,0.247,0.257,0.399,0.49,0.455l0.574,0.14c0.158,0.047,0.238,0.196,0.238,0.448v0.196
		l-0.091,0.168c-0.061,0.037-0.138,0.056-0.231,0.056l-0.112-0.014l-0.532-0.126c-0.448-0.103-0.779-0.345-0.994-0.728
		c-0.215-0.383-0.322-0.924-0.322-1.624v-1.834c0-0.093,0.028-0.168,0.084-0.224c0.056-0.056,0.131-0.084,0.224-0.084h2.506
		c0.961,0,1.696,0.296,2.205,0.889c0.509,0.593,0.777,1.435,0.805,2.527c0.009,0.093,0.014,0.285,0.014,0.574
		c0,0.299-0.005,0.495-0.014,0.588c-0.028,1.092-0.296,1.934-0.805,2.527C266.771,426.832,266.036,427.128,265.075,427.128
		 M257.193,427.128h-2.324c-0.094,0-0.168-0.028-0.224-0.084c-0.056-0.056-0.084-0.131-0.084-0.224v-0.196
		c0-0.093,0.028-0.168,0.084-0.224c0.056-0.056,0.131-0.084,0.224-0.084h2.254c0.709,0,1.248-0.231,1.617-0.693
		c0.369-0.462,0.572-1.122,0.609-1.981c0.009-0.093,0.014-0.266,0.014-0.518c0-0.243-0.005-0.411-0.014-0.504
		c-0.019-0.849-0.217-1.507-0.595-1.974c-0.378-0.467-0.922-0.7-1.631-0.7h-1.904v1.33c0,0.439,0.047,0.782,0.14,1.029
		c0.093,0.247,0.257,0.399,0.49,0.455l0.574,0.14c0.158,0.047,0.238,0.196,0.238,0.448v0.196l-0.091,0.168
		c-0.061,0.037-0.138,0.056-0.231,0.056l-0.112-0.014l-0.532-0.126c-0.448-0.103-0.779-0.345-0.994-0.728
		c-0.215-0.383-0.322-0.924-0.322-1.624v-1.834c0-0.093,0.028-0.168,0.084-0.224c0.056-0.056,0.131-0.084,0.224-0.084h2.506
		c0.961,0,1.696,0.296,2.205,0.889c0.509,0.593,0.777,1.435,0.805,2.527c0.009,0.093,0.014,0.285,0.014,0.574
		c0,0.299-0.005,0.495-0.014,0.588c-0.028,1.092-0.296,1.934-0.805,2.527C258.889,426.832,258.154,427.128,257.193,427.128
		 M251.691,427.128h-0.238c-0.093,0-0.168-0.028-0.224-0.084c-0.056-0.056-0.084-0.131-0.084-0.224v-7.378
		c0-0.093,0.028-0.168,0.084-0.224c0.056-0.056,0.131-0.084,0.224-0.084h0.238c0.093,0,0.168,0.028,0.224,0.084
		c0.056,0.056,0.084,0.131,0.084,0.224v7.378c0,0.093-0.028,0.168-0.084,0.224C251.859,427.1,251.784,427.128,251.691,427.128"/>
	<path fill="#000000" d="M245.867,444.068c-1.176,0-2.023-0.355-2.541-1.064c-0.518-0.709-0.791-1.643-0.819-2.8l-0.014-1.162
		l0.014-1.19c0.028-1.157,0.301-2.091,0.819-2.8c0.518-0.709,1.365-1.064,2.541-1.064c1.176,0,2.023,0.355,2.541,1.064
		c0.518,0.709,0.791,1.643,0.819,2.8c0.009,0.261,0.014,0.658,0.014,1.19c0,0.523-0.005,0.91-0.014,1.162
		c-0.028,1.157-0.301,2.091-0.819,2.8C247.89,443.714,247.043,444.068,245.867,444.068 M245.867,434.828
		c-0.803,0-1.412,0.273-1.827,0.819c-0.415,0.546-0.633,1.304-0.651,2.275l-0.014,1.092l0.014,1.12
		c0.018,0.989,0.236,1.752,0.651,2.289c0.415,0.537,1.024,0.805,1.827,0.805c0.803,0,1.412-0.268,1.827-0.805
		c0.415-0.537,0.632-1.3,0.651-2.289c0.009-0.271,0.014-0.644,0.014-1.12c0-0.476-0.005-0.84-0.014-1.092
		c-0.019-0.97-0.236-1.729-0.651-2.275C247.279,435.101,246.67,434.828,245.867,434.828 M237.229,444.068
		c-0.653,0-1.244-0.112-1.771-0.336c-0.527-0.224-0.945-0.555-1.253-0.994c-0.308-0.439-0.462-0.961-0.462-1.568
		c0-0.579,0.14-1.078,0.42-1.498c0.28-0.42,0.667-0.747,1.162-0.98c-0.392-0.215-0.695-0.502-0.91-0.861
		c-0.215-0.359-0.322-0.782-0.322-1.267c0-0.812,0.296-1.444,0.889-1.897c0.593-0.453,1.342-0.679,2.247-0.679
		c0.905,0,1.654,0.226,2.247,0.679c0.593,0.453,0.889,1.085,0.889,1.897c0,0.485-0.11,0.908-0.329,1.267
		c-0.219,0.359-0.52,0.646-0.903,0.861c0.495,0.233,0.882,0.56,1.162,0.98c0.28,0.42,0.42,0.919,0.42,1.498
		c0,0.607-0.154,1.129-0.462,1.568c-0.308,0.439-0.726,0.77-1.253,0.994C238.473,443.956,237.882,444.068,237.229,444.068
		 M237.229,439.126c-0.747,0-1.367,0.187-1.862,0.56c-0.495,0.373-0.742,0.868-0.742,1.484c0,0.625,0.25,1.125,0.749,1.498
		c0.499,0.373,1.118,0.56,1.855,0.56c0.737,0,1.356-0.187,1.855-0.56c0.499-0.373,0.749-0.873,0.749-1.498
		c0-0.616-0.247-1.111-0.742-1.484C238.596,439.313,237.976,439.126,237.229,439.126 M237.229,434.828
		c-0.644,0-1.181,0.156-1.61,0.469c-0.429,0.313-0.644,0.735-0.644,1.267c0,0.532,0.215,0.952,0.644,1.26
		c0.429,0.308,0.966,0.462,1.61,0.462c0.635-0.018,1.169-0.182,1.603-0.49c0.434-0.308,0.651-0.719,0.651-1.232
		c0-0.532-0.215-0.954-0.644-1.267C238.41,434.984,237.873,434.828,237.229,434.828"/>
	<path fill="#000000" d="M258.341,444.054c-0.159,0-0.238-0.075-0.238-0.224v-0.378c0-0.159,0.098-0.275,0.294-0.35
		c0.681-0.243,1.167-0.462,1.456-0.658c0.355-0.243,0.695-0.581,1.022-1.015c0.327-0.434,0.49-0.786,0.49-1.057l-0.21-1.092
		c-0.121-0.607-0.252-1.087-0.392-1.442c-0.14-0.355-0.324-0.625-0.553-0.812c-0.229-0.187-0.53-0.28-0.903-0.28h-0.518
		c-0.093,0-0.168-0.028-0.224-0.084c-0.056-0.056-0.084-0.131-0.084-0.224v-0.196c0-0.093,0.028-0.168,0.084-0.224
		c0.056-0.056,0.131-0.084,0.224-0.084h0.518c0.541,0,0.985,0.121,1.33,0.364c0.345,0.243,0.621,0.6,0.826,1.071
		c0.205,0.471,0.387,1.085,0.546,1.841l0.854,4.41v0.042l-0.091,0.189l-0.217,0.077h-0.238c-0.159,0-0.261-0.103-0.308-0.308
		l-0.364-1.862c-0.177,0.299-0.38,0.576-0.609,0.833c-0.229,0.257-0.46,0.464-0.693,0.623c-0.336,0.233-0.653,0.413-0.952,0.539
		c-0.299,0.126-0.616,0.222-0.952,0.287L258.341,444.054 M283.065,443.928h-3.542c-0.093,0-0.168-0.028-0.224-0.084
		c-0.056-0.056-0.084-0.131-0.084-0.224v-0.196c0-0.093,0.028-0.168,0.084-0.224c0.056-0.056,0.131-0.084,0.224-0.084h2.996v-3.696
		c0-0.513-0.091-0.975-0.273-1.386c-0.182-0.411-0.434-0.728-0.756-0.952c-0.322-0.224-0.684-0.336-1.085-0.336h-1.624l-1.036,6.86
		c-0.009,0.093-0.049,0.17-0.119,0.231l-0.231,0.091h-0.252l-0.196-0.091c-0.047-0.061-0.065-0.138-0.056-0.231l1.022-6.86h-0.63
		c-0.093,0-0.168-0.028-0.224-0.084c-0.056-0.056-0.084-0.131-0.084-0.224v-0.196c0-0.093,0.028-0.168,0.084-0.224
		c0.056-0.056,0.131-0.084,0.224-0.084h3.192c0.56,0,1.059,0.14,1.498,0.42c0.439,0.28,0.782,0.679,1.029,1.197
		c0.247,0.518,0.371,1.118,0.371,1.799v4.27c0,0.094-0.028,0.168-0.084,0.224C283.233,443.9,283.158,443.928,283.065,443.928
		 M274.651,443.928h-0.238c-0.093,0-0.168-0.028-0.224-0.084c-0.056-0.056-0.084-0.131-0.084-0.224v-4.2
		c0-1.783-0.891-2.674-2.674-2.674h-1.708c-0.093,0-0.168-0.028-0.224-0.084c-0.056-0.056-0.084-0.131-0.084-0.224v-0.196
		c0-0.093,0.028-0.168,0.084-0.224c0.056-0.056,0.131-0.084,0.224-0.084h1.778c1.167,0,2.035,0.292,2.604,0.875
		c0.569,0.583,0.854,1.43,0.854,2.541v4.27c0,0.094-0.028,0.168-0.084,0.224C274.819,443.9,274.744,443.928,274.651,443.928
		 M267.875,443.928h-3.472c-0.093,0-0.168-0.028-0.224-0.084c-0.056-0.056-0.084-0.131-0.084-0.224v-0.196
		c0-0.093,0.028-0.168,0.084-0.224c0.056-0.056,0.131-0.084,0.224-0.084h2.898l-0.266-3.836l-0.014-0.294
		c-0.037-0.56-0.084-0.985-0.14-1.274c-0.056-0.289-0.177-0.523-0.364-0.7c-0.187-0.177-0.471-0.266-0.854-0.266h-0.518
		c-0.093,0-0.168-0.028-0.224-0.084c-0.056-0.056-0.084-0.131-0.084-0.224v-0.196c0-0.093,0.028-0.168,0.084-0.224
		c0.056-0.056,0.131-0.084,0.224-0.084h0.518c0.625,0,1.09,0.135,1.393,0.406c0.303,0.271,0.504,0.621,0.602,1.05
		c0.098,0.43,0.175,1.036,0.231,1.82l0.294,4.41v0.042l-0.091,0.189L267.875,443.928"/>
	<path fill="#D05559" d="M277.205,472.528h5.918v-8.756c0-1.012-0.239-1.822-0.715-2.431c-0.477-0.608-1.155-0.979-2.035-1.111
		l-2.288-0.33l-0.308,1.782l1.496,0.22c0.498,0.074,0.872,0.253,1.122,0.539c0.249,0.286,0.374,0.745,0.374,1.375v6.908h-3.564
		V472.528z"/>
	<path fill="#000000" d="M240.799,503.641c-0.719,0-1.335-0.154-1.848-0.462c-0.513-0.308-0.901-0.714-1.162-1.218
		c-0.261-0.504-0.392-1.045-0.392-1.624c0-0.812,0.294-1.638,0.882-2.478l2.758-3.878l0.077-0.105l0.154-0.126l0.203-0.049h0.266
		l0.203,0.091l0.077,0.217l-0.07,0.182l-2.1,2.968c0.28-0.075,0.597-0.112,0.952-0.112c0.719,0,1.335,0.152,1.848,0.455
		c0.513,0.303,0.901,0.707,1.162,1.211c0.261,0.504,0.392,1.045,0.392,1.624c0,0.579-0.131,1.12-0.392,1.624
		c-0.261,0.504-0.649,0.91-1.162,1.218C242.134,503.487,241.518,503.641,240.799,503.641 M240.799,497.887
		c-0.448,0-0.863,0.096-1.246,0.287c-0.383,0.191-0.691,0.471-0.924,0.84c-0.233,0.369-0.35,0.81-0.35,1.323
		c0,0.513,0.117,0.957,0.35,1.33c0.233,0.373,0.541,0.656,0.924,0.847c0.383,0.191,0.798,0.287,1.246,0.287
		c0.448,0,0.863-0.096,1.246-0.287c0.383-0.191,0.691-0.474,0.924-0.847c0.233-0.373,0.35-0.817,0.35-1.33
		c0-0.513-0.117-0.954-0.35-1.323c-0.233-0.368-0.541-0.649-0.924-0.84C241.662,497.983,241.247,497.887,240.799,497.887
		 M232.567,503.641c-0.672,0-1.258-0.112-1.757-0.336c-0.499-0.224-0.884-0.518-1.155-0.882c-0.271-0.364-0.415-0.756-0.434-1.176
		l0.084-0.196l0.21-0.07h0.196c0.093,0,0.173,0.021,0.238,0.063c0.065,0.042,0.112,0.128,0.14,0.259
		c0.131,0.551,0.427,0.938,0.889,1.162c0.462,0.224,0.992,0.336,1.589,0.336c0.747,0,1.344-0.177,1.792-0.532
		c0.448-0.355,0.672-0.868,0.672-1.54c0-1.288-0.775-1.932-2.324-1.932h-1.232c-0.093,0-0.168-0.028-0.224-0.084
		c-0.056-0.056-0.084-0.131-0.084-0.224v-0.21c0-0.103,0.042-0.215,0.126-0.336l2.884-3.402h-4.228
		c-0.093,0-0.168-0.028-0.224-0.084c-0.056-0.056-0.084-0.131-0.084-0.224v-0.21c0-0.093,0.028-0.17,0.084-0.231
		c0.056-0.061,0.131-0.091,0.224-0.091h5.222c0.103,0,0.182,0.028,0.238,0.084c0.056,0.056,0.084,0.135,0.084,0.238v0.21
		c0,0.084-0.037,0.173-0.112,0.266l-2.954,3.458h0.28c0.989,0,1.771,0.233,2.345,0.7c0.574,0.467,0.861,1.157,0.861,2.072
		c0,0.597-0.145,1.118-0.434,1.561c-0.289,0.443-0.686,0.779-1.19,1.008C233.785,503.527,233.211,503.641,232.567,503.641"/>
	<path fill="#000000" d="M256.409,503.641c-1.111,0-1.941-0.296-2.492-0.889c-0.551-0.593-0.826-1.458-0.826-2.597v-4.34
		c0-0.093,0.028-0.168,0.084-0.224c0.056-0.056,0.131-0.084,0.224-0.084h3.29c1.157,0,1.988,0.266,2.492,0.798
		c0.504,0.532,0.779,1.358,0.826,2.478c0.009,0.093,0.014,0.355,0.014,0.784c0,0.439-0.005,0.705-0.014,0.798
		c-0.028,1.111-0.327,1.934-0.896,2.471C258.541,503.373,257.641,503.641,256.409,503.641 M253.945,496.319v3.836
		c0,0.859,0.205,1.519,0.616,1.981c0.411,0.462,1.027,0.693,1.848,0.693c0.961,0,1.654-0.208,2.079-0.623
		c0.425-0.415,0.646-1.052,0.665-1.911c0.009-0.093,0.014-0.336,0.014-0.728c0-0.383-0.005-0.621-0.014-0.714
		c-0.019-0.821-0.257-1.449-0.714-1.883c-0.457-0.434-1.064-0.651-1.82-0.651H253.945 M263.423,503.627
		c-0.149,0-0.224-0.075-0.224-0.224v-0.35c0-0.159,0.098-0.275,0.294-0.35l0.574-0.224c0.719-0.28,1.267-0.667,1.645-1.162
		c0.378-0.495,0.567-1.232,0.567-2.212c0-0.7-0.084-1.251-0.252-1.652c-0.168-0.401-0.446-0.691-0.833-0.868
		c-0.387-0.177-0.917-0.266-1.589-0.266h-0.476h-0.042l-1.092-0.014c-0.093,0-0.168-0.026-0.224-0.077
		c-0.056-0.051-0.084-0.124-0.084-0.217v-2.142c0-0.093,0.028-0.168,0.084-0.224c0.056-0.056,0.131-0.084,0.224-0.084h0.238
		c0.093,0,0.168,0.028,0.224,0.084c0.056,0.056,0.084,0.131,0.084,0.224v1.638h1.134c0.868,0,1.552,0.119,2.051,0.357
		c0.499,0.238,0.858,0.623,1.078,1.155c0.219,0.532,0.329,1.26,0.329,2.184c0,1.204-0.273,2.123-0.819,2.758
		c-0.546,0.635-1.276,1.115-2.191,1.442l-0.588,0.21L263.423,503.627 M283.415,503.501h-3.472c-0.093,0-0.168-0.028-0.224-0.084
		c-0.056-0.056-0.084-0.131-0.084-0.224v-0.196c0-0.093,0.028-0.168,0.084-0.224c0.056-0.056,0.131-0.084,0.224-0.084h2.898
		l-0.266-3.836l-0.014-0.294c-0.037-0.56-0.084-0.985-0.14-1.274c-0.056-0.289-0.177-0.523-0.364-0.7
		c-0.187-0.177-0.471-0.266-0.854-0.266h-0.518c-0.093,0-0.168-0.028-0.224-0.084c-0.056-0.056-0.084-0.131-0.084-0.224v-0.196
		c0-0.093,0.028-0.168,0.084-0.224c0.056-0.056,0.131-0.084,0.224-0.084h0.518c0.625,0,1.09,0.135,1.393,0.406
		c0.303,0.271,0.504,0.621,0.602,1.05c0.098,0.429,0.175,1.036,0.231,1.82l0.294,4.41v0.042l-0.091,0.189L283.415,503.501
		 M277.479,503.501h-0.238c-0.093,0-0.168-0.028-0.224-0.084c-0.056-0.056-0.084-0.131-0.084-0.224v-7.378
		c0-0.093,0.028-0.168,0.084-0.224c0.056-0.056,0.131-0.084,0.224-0.084h0.238c0.093,0,0.168,0.028,0.224,0.084
		c0.056,0.056,0.084,0.131,0.084,0.224v7.378c0,0.093-0.028,0.168-0.084,0.224C277.647,503.473,277.572,503.501,277.479,503.501
		 M273.083,503.501h-0.238c-0.093,0-0.168-0.028-0.224-0.084c-0.056-0.056-0.084-0.131-0.084-0.224v-5.292
		c0-0.364,0.035-0.686,0.105-0.966c0.07-0.28,0.161-0.485,0.273-0.616h-4.074c-0.093,0-0.168-0.028-0.224-0.084
		c-0.056-0.056-0.084-0.131-0.084-0.224v-0.196c0-0.093,0.028-0.168,0.084-0.224c0.056-0.056,0.131-0.084,0.224-0.084h5.908
		c0.093,0,0.168,0.028,0.224,0.084c0.056,0.056,0.084,0.131,0.084,0.224v0.196c0,0.093-0.028,0.168-0.084,0.224
		c-0.056,0.056-0.131,0.084-0.224,0.084h-0.896c-0.149,0.131-0.264,0.343-0.343,0.637c-0.079,0.294-0.119,0.633-0.119,1.015v5.222
		c0,0.093-0.028,0.168-0.084,0.224C273.251,503.473,273.176,503.501,273.083,503.501"/>
</g>
</svg>
