<!-- Generator: Adobe InDesign 14.0 SVG Export Plug-in, SVG Library version: 6.0 build 234 -->
<!DOCTYPE svg PUBLIC "-//W3C//DTD SVG 1.1//EN" "http://www.w3.org/Graphics/SVG/1.1/DTD/svg11.dtd">
<svg version="1.1" xmlns="http://www.w3.org/2000/svg" xmlns:xlink="http://www.w3.org/1999/xlink" x="0%" y="0%" width="100%"
	 height="100%" viewBox="0 0 299.385 534.346" preserveAspectRatio="xMidYMid slice" overflow="visible" xml:space="preserve">
<clipPath id="clp_unq_id_1" fill="none">
	<path shape-rendering="crispEdges" stroke="#000000" d="M0,0h299.385v534.346H0V0"/>
</clipPath>
<g clip-path="url(#clp_unq_id_1)" fill="none">
	<path fill="#71A850" d="M61.82,29.752l1.512-0.672c-0.896-1.504-1.568-3.132-2.016-4.884c-0.448-1.752-0.672-3.54-0.672-5.364
		c0-1.824,0.224-3.612,0.672-5.364c0.448-1.752,1.12-3.38,2.016-4.884L61.82,7.912c-1.04,1.696-1.828,3.432-2.364,5.208
		c-0.536,1.776-0.804,3.68-0.804,5.712c0,2.032,0.268,3.936,0.804,5.712C59.992,26.32,60.78,28.056,61.82,29.752z M72.836,12.016
		h-4.392h-2.568v13.488h0.6h7.872h2.568v-9c0-1.552-0.36-2.688-1.08-3.408S74.116,12.016,72.836,12.016z M68.444,23.536v-9.552
		h3.744c0.704,0,1.24,0.188,1.608,0.564c0.368,0.376,0.552,0.988,0.552,1.836v7.152H68.444z M80.036,20.464l2.544-0.48l0.024-1.512
		v-3.648l-0.312-2.808h-2.544l0.288,2.808V20.464z M94.436,23.536v-7.032c0-1.552-0.36-2.688-1.08-3.408
		c-0.72-0.72-1.72-1.08-3-1.08h-5.16v1.968h4.512c0.704,0,1.24,0.188,1.608,0.564c0.368,0.376,0.552,0.988,0.552,1.836v7.152h-6.672
		v1.968h6.672h4.224v-1.968H94.436z M106.388,25.504h2.568v-9c0-1.552-0.36-2.688-1.08-3.408s-1.72-1.08-3-1.08h-6.552v1.968h5.904
		c0.704,0,1.24,0.188,1.608,0.564c0.368,0.376,0.552,0.988,0.552,1.836V25.504z M98.252,25.504h2.568v-8.136h-2.208l-0.36,1.608
		V25.504z M112.004,25.504h2.568v-10.68l-0.312-2.808h-2.544l0.288,2.808V25.504z M129.355,25.504l-3.336-4.992l2.784-8.496h-2.472
		l-1.224,4.176l-0.6,2.088l-2.016-3.024l-2.016-3.24h-2.616l2.208,3.528l-0.672,1.704l-2.64,8.256h2.448l2.376-7.656l5.04,7.656
		H129.355z M136.627,20.464l2.544-0.48l0.024-1.512v-3.648l-0.312-2.808h-2.544l0.288,2.808V20.464z M147.595,25.504h2.568v-8.712
		c0-1.2,0.176-2.136,0.528-2.808h1.8v-1.968h-10.704v1.968h6.48c-0.448,0.624-0.672,1.56-0.672,2.808V25.504z M156.883,12.016v-3.72
		h-2.328v5.688h7.224l-4.488,11.52h2.568l4.488-11.352v-2.136H156.883z M166.986,20.464l2.544-0.48l0.024-1.512v-3.648l-0.312-2.808
		h-2.544l0.288,2.808V20.464z M185.562,15.712l-0.024-3.696h-2.568l0.048,3.816c0.016,2.432-0.548,4.288-1.692,5.568
		c-1.144,1.28-2.924,2-5.34,2.16l-0.384-3.264c1.632-0.656,2.784-1.516,3.456-2.58c0.672-1.064,1.024-2.476,1.056-4.236l0.024-1.44
		h-2.448v1.488c-0.032,1.408-0.208,2.464-0.528,3.168c-0.32,0.704-0.92,1.272-1.8,1.704l-0.768-6.384h-2.448l1.752,13.728
		c3.968,0.032,6.912-0.788,8.832-2.46C184.65,21.612,185.594,19.088,185.562,15.712z M189.21,29.752
		c1.04-1.696,1.828-3.432,2.364-5.208c0.536-1.776,0.804-3.68,0.804-5.712c0-2.032-0.268-3.936-0.804-5.712
		c-0.536-1.776-1.324-3.512-2.364-5.208l-1.512,0.672c0.896,1.504,1.568,3.132,2.016,4.884c0.448,1.752,0.672,3.54,0.672,5.364
		c0,1.824-0.224,3.612-0.672,5.364c-0.448,1.752-1.12,3.38-2.016,4.884L189.21,29.752z M208.53,25.504h2.568v-9
		c0-1.552-0.36-2.688-1.08-3.408s-1.72-1.08-3-1.08h-6.552v1.968h5.904c0.704,0,1.24,0.188,1.608,0.564
		c0.368,0.376,0.552,0.988,0.552,1.836V25.504z M200.394,25.504h2.568v-8.136h-2.208l-0.36,1.608V25.504z M225.258,17.704
		l-0.024-0.768c-0.048-1.52-0.484-2.72-1.308-3.6c-0.824-0.88-1.98-1.32-3.468-1.32h-6.912l0.24,1.968l1.392,11.76
		c3.232-0.112,5.744-0.788,7.536-2.028C224.505,22.476,225.354,20.472,225.258,17.704z M217.434,23.416l-1.08-9.432h3.912
		c0.768,0,1.368,0.28,1.8,0.84c0.432,0.56,0.648,1.288,0.648,2.184v0.648c0.064,1.936-0.352,3.34-1.248,4.212
		C220.569,22.74,219.225,23.256,217.434,23.416z M234.785,12.016h-6.912v1.032v12.456h2.568v-11.52h3.696
		c1.44,0,2.16,0.88,2.16,2.64v8.88h2.568v-8.76c0-1.584-0.356-2.768-1.068-3.552C237.085,12.408,236.081,12.016,234.785,12.016z"/>
	<path fill="#71A850" d="M247.817,25.744c3.232-0.144,5.756-0.892,7.572-2.244c1.816-1.352,2.676-3.42,2.58-6.204l-0.024-0.672
		c-0.064-1.504-0.528-2.652-1.392-3.444c-0.864-0.792-2.016-1.236-3.456-1.332l-1.416-0.072l-0.192,2.016l1.2,0.072
		c0.912,0.064,1.6,0.376,2.064,0.936c0.464,0.56,0.696,1.272,0.696,2.136v0.672c0.112,3.504-1.68,5.44-5.376,5.808l-1.296-11.4
		h-2.568L247.817,25.744z M262.049,12.016v-3.72h-2.328v5.688h7.224l-4.488,11.52h2.568l4.488-11.352v-2.136H262.049z
		 M283.265,17.704l-0.024-0.768c-0.048-1.52-0.484-2.72-1.308-3.6c-0.824-0.88-1.98-1.32-3.468-1.32h-6.912l0.24,1.968l1.392,11.76
		c3.232-0.112,5.744-0.788,7.536-2.028C282.512,22.476,283.361,20.472,283.265,17.704z M275.441,23.416l-1.08-9.432h3.912
		c0.768,0,1.368,0.28,1.8,0.84c0.432,0.56,0.648,1.288,0.648,2.184v0.648c0.064,1.936-0.352,3.34-1.248,4.212
		C278.576,22.74,277.232,23.256,275.441,23.416z"/>
	<path fill="#000000" d="M283.23,56.577h-0.546l-0.214-0.085l-0.085-0.215v-3.887c0-1.491-0.745-2.236-2.236-2.236h-1.586v6.123
		l-0.085,0.215l-0.214,0.085h-0.546l-0.214-0.085l-0.085-0.215v-6.825c0-0.095,0.028-0.169,0.085-0.221l0.214-0.078h2.496
		c1.118,0,1.95,0.266,2.496,0.8c0.546,0.533,0.819,1.332,0.819,2.398v3.926l-0.085,0.215L283.23,56.577 M275.105,56.577h-0.572
		l-0.215-0.085l-0.084-0.215v-6.825c0-0.095,0.028-0.169,0.084-0.221l0.215-0.078h0.572l0.214,0.085l0.085,0.214v6.825l-0.085,0.215
		L275.105,56.577 M271.985,56.577h-3.354l-0.208-0.085l-0.078-0.215v-0.416l0.078-0.214l0.208-0.085h2.509v-3.159
		c0-0.659-0.167-1.194-0.5-1.605c-0.334-0.412-0.756-0.618-1.268-0.618h-1.378l-1.001,6.084l-0.111,0.221l-0.215,0.091h-0.546
		l-0.201-0.091l-0.058-0.221l1.04-6.084h-0.663l-0.214-0.084l-0.085-0.215v-0.429l0.085-0.214l0.214-0.085h3.263
		c0.537,0,1.016,0.128,1.437,0.384c0.42,0.256,0.749,0.622,0.988,1.099c0.238,0.477,0.357,1.04,0.357,1.69v3.952l-0.084,0.215
		L271.985,56.577 M263.912,56.577h-0.546l-0.214-0.085l-0.085-0.215v-3.887c0-1.491-0.746-2.236-2.236-2.236h-1.677l-0.215-0.078
		l-0.085-0.208v-0.416l0.085-0.214l0.215-0.085h1.755c2.201,0,3.302,1.057,3.302,3.172v3.952l-0.085,0.215L263.912,56.577
		 M253.902,56.577h-5.447l-0.214-0.085l-0.085-0.215v-6.825c0-0.095,0.028-0.169,0.085-0.221l0.214-0.078h2.457
		c1.109,0,1.935,0.264,2.476,0.793c0.541,0.529,0.813,1.322,0.813,2.379v3.952l-0.085,0.215L253.902,56.577 M249.235,50.155v5.408
		h3.848v-3.172c0-1.491-0.745-2.236-2.236-2.236H249.235 M245.92,56.577h-0.897l-0.208-0.085l-0.078-0.215v-0.871
		c0-0.095,0.026-0.171,0.078-0.228l0.208-0.084h0.897c0.095,0,0.171,0.028,0.228,0.084c0.056,0.057,0.085,0.132,0.085,0.228v0.871
		l-0.091,0.215L245.92,56.577 M256.931,53.561h-0.572l-0.215-0.085l-0.085-0.214v-3.809c0-0.095,0.028-0.169,0.085-0.221
		l0.215-0.078h0.572l0.214,0.085l0.085,0.214v3.809l-0.085,0.214L256.931,53.561 M245.92,52.027h-0.897l-0.208-0.084l-0.078-0.215
		v-0.871c0-0.095,0.026-0.171,0.078-0.228l0.208-0.084h0.897c0.095,0,0.171,0.028,0.228,0.084c0.056,0.056,0.085,0.132,0.085,0.228
		v0.871l-0.091,0.215L245.92,52.027"/>
	<path fill="#000000" d="M272.258,73.607c-1.066,0-1.866-0.279-2.398-0.838c-0.533-0.559-0.8-1.363-0.8-2.411v-4.004
		c0-0.095,0.028-0.169,0.085-0.221l0.214-0.078h3.12c1.118,0,1.92,0.251,2.405,0.754c0.485,0.503,0.75,1.274,0.793,2.314
		c0.009,0.087,0.013,0.321,0.013,0.702c0,0.382-0.004,0.615-0.013,0.702c-0.026,1.031-0.308,1.803-0.845,2.314
		C274.294,73.352,273.436,73.607,272.258,73.607 M270.152,67.055v3.302c0,0.719,0.176,1.27,0.527,1.651
		c0.351,0.382,0.873,0.572,1.567,0.572c0.815,0,1.399-0.171,1.755-0.514c0.355-0.342,0.542-0.878,0.559-1.605
		c0.009-0.087,0.013-0.299,0.013-0.637c0-0.338-0.004-0.55-0.013-0.637c-0.017-0.693-0.214-1.222-0.591-1.586
		c-0.377-0.364-0.895-0.546-1.554-0.546H270.152 M283.23,73.477h-0.546l-0.214-0.085l-0.085-0.215v-3.887
		c0-1.491-0.745-2.236-2.236-2.236h-1.586v6.123l-0.085,0.215l-0.214,0.085h-0.546l-0.214-0.085l-0.085-0.215v-6.825
		c0-0.095,0.028-0.169,0.085-0.221l0.214-0.078h2.496c1.118,0,1.95,0.266,2.496,0.8c0.546,0.533,0.819,1.332,0.819,2.398v3.926
		l-0.085,0.215L283.23,73.477 M266.889,73.477h-0.546l-0.215-0.085l-0.084-0.215v-3.887c0-1.491-0.741-2.236-2.223-2.236h-2.418
		l-0.214-0.078l-0.085-0.208v-0.416c0-0.095,0.028-0.169,0.085-0.221l0.214-0.078h2.483c2.201,0,3.302,1.066,3.302,3.198v3.926
		l-0.085,0.215L266.889,73.477 M261.949,73.477h-0.546l-0.214-0.085l-0.085-0.215V68.81l0.085-0.215l0.214-0.084h0.546l0.215,0.084
		l0.084,0.215v4.368l-0.084,0.215L261.949,73.477"/>
	<path fill="#000000" d="M272.102,90.507l-0.162-0.065l-0.072-0.182v-0.572c0-0.156,0.095-0.273,0.286-0.351l0.507-0.195
		c0.598-0.225,1.057-0.55,1.378-0.975c0.321-0.425,0.481-1.049,0.481-1.872c0-0.581-0.069-1.038-0.208-1.372
		c-0.139-0.333-0.366-0.574-0.682-0.721c-0.316-0.147-0.752-0.221-1.306-0.221h-0.403h-0.039l-1.196-0.013l-0.214-0.078
		l-0.085-0.208v-2.236l0.085-0.215l0.214-0.084h0.52l0.208,0.084l0.078,0.215v1.508h1.001c0.789,0,1.415,0.113,1.879,0.338
		c0.464,0.225,0.8,0.585,1.008,1.079s0.312,1.153,0.312,1.976c0,1.109-0.273,1.974-0.819,2.593c-0.546,0.62-1.257,1.077-2.132,1.372
		l-0.546,0.182L272.102,90.507 M283.23,90.377h-3.354l-0.208-0.085l-0.078-0.214v-0.416l0.078-0.215l0.208-0.085h2.509v-3.159
		c0-0.659-0.167-1.194-0.501-1.605c-0.334-0.412-0.756-0.617-1.267-0.617h-1.378l-1.001,6.084l-0.111,0.221l-0.214,0.091h-0.546
		l-0.201-0.091l-0.059-0.221l1.04-6.084h-0.663l-0.215-0.085l-0.085-0.215v-0.429l0.085-0.214l0.215-0.085h3.263
		c0.537,0,1.016,0.128,1.436,0.384c0.42,0.256,0.75,0.622,0.988,1.099c0.238,0.477,0.358,1.04,0.358,1.69v3.952l-0.085,0.214
		L283.23,90.377 M266.031,90.377h-2.236l-0.214-0.085l-0.085-0.214v-0.429l0.085-0.215l0.214-0.085h2.171
		c0.607,0,1.075-0.195,1.404-0.585c0.329-0.39,0.507-0.94,0.533-1.651c0.009-0.087,0.013-0.238,0.013-0.455
		c0-0.208-0.004-0.355-0.013-0.442c-0.017-0.711-0.193-1.261-0.527-1.651c-0.334-0.39-0.804-0.585-1.41-0.585h-1.599v1.04
		c0,0.347,0.039,0.62,0.117,0.819c0.078,0.199,0.212,0.325,0.403,0.377l0.494,0.13l0.162,0.136c0.039,0.074,0.059,0.163,0.059,0.267
		v0.299c0,0.096-0.048,0.165-0.143,0.208c-0.068,0.031-0.14,0.046-0.217,0.046c-0.031,0-0.063-0.003-0.095-0.008l-0.507-0.104
		c-0.867-0.19-1.3-0.927-1.3-2.21v-1.729c0-0.095,0.028-0.169,0.085-0.221l0.214-0.078h2.392c0.953,0,1.677,0.277,2.171,0.832
		c0.494,0.555,0.758,1.348,0.793,2.379c0.008,0.087,0.013,0.251,0.013,0.494c0,0.251-0.005,0.421-0.013,0.507
		c-0.035,1.031-0.299,1.824-0.793,2.379C267.708,90.1,266.984,90.377,266.031,90.377 M258.634,90.377h-2.236l-0.215-0.085
		l-0.085-0.214v-0.429l0.085-0.215l0.215-0.085h2.171c0.607,0,1.075-0.195,1.404-0.585c0.329-0.39,0.507-0.94,0.533-1.651
		c0.009-0.087,0.013-0.238,0.013-0.455c0-0.208-0.005-0.355-0.013-0.442c-0.017-0.711-0.193-1.261-0.527-1.651
		c-0.334-0.39-0.804-0.585-1.41-0.585h-1.599v1.04c0,0.347,0.039,0.62,0.117,0.819c0.078,0.199,0.212,0.325,0.403,0.377l0.494,0.13
		l0.163,0.136c0.039,0.074,0.058,0.163,0.058,0.267v0.299c0,0.096-0.048,0.165-0.143,0.208c-0.068,0.031-0.14,0.046-0.217,0.046
		c-0.031,0-0.063-0.003-0.095-0.008l-0.507-0.104c-0.867-0.19-1.3-0.927-1.3-2.21v-1.729c0-0.095,0.028-0.169,0.085-0.221
		l0.214-0.078h2.392c0.953,0,1.677,0.277,2.171,0.832c0.494,0.555,0.758,1.348,0.793,2.379c0.009,0.087,0.013,0.251,0.013,0.494
		c0,0.251-0.004,0.421-0.013,0.507c-0.035,1.031-0.299,1.824-0.793,2.379C260.311,90.1,259.587,90.377,258.634,90.377
		 M253.629,90.377h-0.572l-0.215-0.085l-0.084-0.214v-6.825c0-0.095,0.028-0.169,0.084-0.221l0.215-0.078h0.572l0.214,0.085
		l0.085,0.214v6.825l-0.085,0.214L253.629,90.377 M250.821,90.377h-3.471l-0.214-0.085l-0.085-0.214v-0.416l0.085-0.215l0.214-0.085
		h2.561l-0.208-3.302c-0.043-0.563-0.089-0.977-0.137-1.242c-0.048-0.264-0.154-0.479-0.318-0.644
		c-0.165-0.165-0.42-0.247-0.767-0.247h-0.533l-0.215-0.078l-0.084-0.208v-0.416l0.084-0.215l0.215-0.084h0.533
		c0.624,0,1.103,0.123,1.437,0.371c0.333,0.247,0.563,0.587,0.689,1.02c0.125,0.434,0.21,1.001,0.253,1.703l0.247,4.056v0.039
		l-0.084,0.188L250.821,90.377 M242.229,90.377h-5.447l-0.215-0.085l-0.084-0.214v-6.825c0-0.095,0.028-0.169,0.084-0.221
		l0.215-0.078h2.457c1.109,0,1.935,0.264,2.477,0.793c0.541,0.529,0.813,1.322,0.813,2.379v3.952l-0.085,0.214L242.229,90.377
		 M237.562,83.955v5.408h3.848v-3.172c0-1.491-0.745-2.236-2.236-2.236H237.562 M245.257,87.361h-0.572l-0.214-0.084l-0.085-0.215
		v-3.809c0-0.095,0.028-0.169,0.085-0.221l0.214-0.078h0.572l0.215,0.085l0.084,0.214v3.809l-0.084,0.215L245.257,87.361"/>
	<path fill="#000000" d="M279.551,107.394c-0.147,0-0.221-0.069-0.221-0.208v-0.611c0-0.147,0.091-0.256,0.273-0.325
		c0.026-0.008,0.197-0.067,0.513-0.175c0.316-0.108,0.6-0.245,0.852-0.409c0.26-0.165,0.516-0.392,0.767-0.682
		c0.251-0.29,0.429-0.565,0.533-0.825l-0.234-1.17c-0.104-0.511-0.215-0.916-0.331-1.215c-0.117-0.299-0.275-0.527-0.474-0.682
		c-0.2-0.156-0.46-0.234-0.78-0.234h-0.481l-0.215-0.078l-0.084-0.208v-0.442l0.084-0.214l0.215-0.085h0.481
		c0.554,0,1.009,0.113,1.365,0.338c0.355,0.225,0.639,0.561,0.851,1.007c0.212,0.447,0.392,1.029,0.539,1.748l0.78,4.056v0.052
		l-0.084,0.175l-0.202,0.072h-0.572c-0.165,0-0.264-0.1-0.299-0.299l-0.299-1.521c-0.321,0.494-0.689,0.88-1.105,1.157
		c-0.321,0.217-0.62,0.383-0.897,0.5c-0.278,0.117-0.572,0.206-0.884,0.266L279.551,107.394 M276.223,107.277h-0.546l-0.208-0.078
		l-0.078-0.208v-4.667c0-0.355,0.03-0.659,0.091-0.91c0.061-0.251,0.143-0.438,0.247-0.559h-1.144l-0.214-0.078l-0.085-0.208v-0.416
		l0.085-0.214l0.214-0.085h3.12l0.215,0.085l0.085,0.214v0.416l-0.085,0.208l-0.215,0.078h-0.78
		c-0.121,0.13-0.219,0.334-0.292,0.611c-0.074,0.277-0.11,0.59-0.11,0.936v4.589l-0.085,0.208L276.223,107.277 M272.622,107.277
		h-0.546l-0.215-0.085l-0.084-0.214v-3.887c0-1.491-0.745-2.236-2.236-2.236h-1.677l-0.215-0.078l-0.084-0.208v-0.416l0.084-0.214
		l0.215-0.085h1.755c2.201,0,3.302,1.058,3.302,3.172v3.952l-0.085,0.214L272.622,107.277"/>
	<path fill="#000000" d="M280.318,124.307c-1.066,0-1.866-0.28-2.398-0.839c-0.533-0.559-0.8-1.363-0.8-2.411v-4.004
		c0-0.095,0.028-0.169,0.085-0.221l0.214-0.078h3.12c1.118,0,1.92,0.251,2.405,0.754c0.485,0.503,0.749,1.274,0.793,2.314
		c0.009,0.087,0.013,0.321,0.013,0.702c0,0.382-0.004,0.615-0.013,0.702c-0.026,1.031-0.308,1.803-0.845,2.314
		C282.354,124.052,281.496,124.307,280.318,124.307 M278.212,117.755v3.302c0,0.719,0.176,1.27,0.527,1.651
		c0.351,0.382,0.873,0.572,1.567,0.572c0.815,0,1.399-0.171,1.755-0.513c0.355-0.342,0.541-0.878,0.559-1.606
		c0.009-0.086,0.013-0.299,0.013-0.637c0-0.338-0.005-0.55-0.013-0.637c-0.017-0.693-0.214-1.222-0.591-1.586
		c-0.377-0.364-0.895-0.546-1.554-0.546H278.212 M271.894,124.307l-0.163-0.065l-0.071-0.182v-0.572
		c0-0.156,0.095-0.273,0.286-0.351l0.507-0.195c0.598-0.225,1.057-0.55,1.378-0.975c0.32-0.425,0.481-1.049,0.481-1.872
		c0-0.58-0.069-1.038-0.208-1.371c-0.139-0.334-0.366-0.574-0.682-0.722c-0.316-0.147-0.752-0.221-1.306-0.221h-0.403h-0.039
		l-1.196-0.013l-0.215-0.078l-0.085-0.208v-2.236l0.085-0.214l0.215-0.085h0.52l0.208,0.085l0.078,0.214v1.508h1.001
		c0.789,0,1.415,0.113,1.879,0.338c0.464,0.226,0.8,0.585,1.008,1.079c0.208,0.494,0.312,1.153,0.312,1.976
		c0,1.109-0.273,1.974-0.819,2.593c-0.546,0.62-1.257,1.077-2.132,1.372l-0.546,0.182L271.894,124.307 M268.397,124.177h-0.546
		l-0.215-0.085l-0.084-0.214v-3.887c0-1.491-0.745-2.236-2.236-2.236h-1.677l-0.215-0.078l-0.085-0.208v-0.416l0.085-0.215
		l0.215-0.085h1.755c2.201,0,3.302,1.058,3.302,3.172v3.952l-0.085,0.214L268.397,124.177 M255.943,124.177h-5.408l-0.208-0.085
		l-0.078-0.214v-0.416l0.078-0.215l0.208-0.084h3.757v-3.172c0-1.482-0.745-2.223-2.236-2.223h-1.391l-0.208-0.085l-0.078-0.215
		v-0.416l0.078-0.215l0.208-0.085h1.456c2.219,0,3.328,1.062,3.328,3.185v3.224h0.494l0.208,0.084l0.078,0.215v0.416l-0.078,0.214
		L255.943,124.177 M248.312,124.177h-0.546l-0.214-0.085l-0.085-0.214v-3.887c0-1.491-0.741-2.236-2.223-2.236h-2.418l-0.215-0.078
		l-0.085-0.208v-0.416c0-0.095,0.028-0.169,0.085-0.221l0.215-0.078h2.483c2.201,0,3.302,1.066,3.302,3.198v3.926l-0.085,0.214
		L248.312,124.177 M243.372,124.177h-0.546l-0.215-0.085l-0.085-0.214v-4.368l0.085-0.214l0.215-0.085h0.546l0.215,0.085
		l0.084,0.214v4.368l-0.084,0.214L243.372,124.177 M237.275,124.177h-0.546l-0.214-0.085l-0.085-0.214v-3.887
		c0-1.491-0.745-2.236-2.236-2.236h-1.677l-0.215-0.078l-0.084-0.208v-0.416l0.084-0.215l0.215-0.085h1.755
		c2.201,0,3.302,1.058,3.302,3.172v3.952l-0.085,0.214L237.275,124.177 M261.416,121.161h-0.572l-0.214-0.084l-0.085-0.215v-3.809
		c0-0.095,0.028-0.169,0.085-0.221l0.214-0.078h0.572l0.215,0.085l0.085,0.215v3.809l-0.085,0.215L261.416,121.161 M240.304,121.161
		h-0.572l-0.214-0.084l-0.085-0.215v-3.809c0-0.095,0.028-0.169,0.085-0.221l0.214-0.078h0.572l0.215,0.085l0.084,0.215v3.809
		l-0.084,0.215L240.304,121.161"/>
	<path fill="#000000" d="M251.978,143.144l-0.202-0.085l-0.085-0.214v-0.429l0.078-0.201l0.182-0.085
		c0.485-0.009,0.869-0.176,1.151-0.501c0.281-0.325,0.483-0.851,0.604-1.579c0.121-0.728,0.182-1.725,0.182-2.99
		c0-1.265-0.061-2.26-0.182-2.983c-0.121-0.724-0.323-1.248-0.604-1.573c-0.282-0.325-0.665-0.492-1.151-0.501l-0.182-0.084
		l-0.078-0.202v-0.429l0.085-0.214l0.202-0.085c0.745,0,1.337,0.21,1.774,0.63c0.438,0.421,0.752,1.071,0.943,1.95
		c0.19,0.88,0.286,2.043,0.286,3.49c0,1.448-0.096,2.613-0.286,3.497c-0.191,0.884-0.505,1.536-0.943,1.956
		C253.315,142.934,252.724,143.144,251.978,143.144 M206.804,143.144c-0.745,0-1.337-0.21-1.775-0.63
		c-0.438-0.42-0.752-1.073-0.943-1.956c-0.191-0.884-0.286-2.05-0.286-3.497c0-1.447,0.095-2.611,0.286-3.49
		c0.191-0.88,0.505-1.53,0.943-1.95c0.438-0.42,1.029-0.63,1.775-0.63l0.214,0.085l0.085,0.214v0.429l-0.078,0.202l-0.182,0.084
		c-0.494,0.009-0.88,0.176-1.157,0.501c-0.278,0.325-0.477,0.849-0.598,1.573c-0.121,0.724-0.182,1.718-0.182,2.983
		c0,1.274,0.06,2.273,0.182,2.997c0.121,0.724,0.321,1.248,0.598,1.573c0.277,0.325,0.663,0.492,1.157,0.501l0.182,0.085
		l0.078,0.201v0.429l-0.085,0.214L206.804,143.144 M272.544,141.805l-0.182-0.065l-0.078-0.169v-0.403
		c0-0.199,0.069-0.321,0.208-0.364l1.703-0.572l-1.69-6.058c-0.043-0.147-0.065-0.234-0.065-0.26l0.078-0.182l0.182-0.078h0.598
		l0.195,0.059l0.104,0.136l1.664,6.032c0.684-0.243,1.164-0.585,1.437-1.027s0.409-0.997,0.409-1.664v-3.237l0.085-0.215
		l0.214-0.085h0.546c0.095,0,0.169,0.026,0.221,0.078c0.052,0.052,0.078,0.126,0.078,0.221v3.588c0,0.763-0.251,1.45-0.754,2.061
		c-0.503,0.611-1.174,1.042-2.015,1.293l-2.834,0.897L272.544,141.805 M259.778,141.805l-0.182-0.065l-0.078-0.169v-0.403
		c0-0.199,0.069-0.321,0.208-0.364l1.703-0.572l-1.69-6.058c-0.043-0.147-0.065-0.234-0.065-0.26l0.078-0.182l0.182-0.078h0.598
		l0.195,0.059l0.104,0.136l1.664,6.032c0.685-0.243,1.164-0.585,1.437-1.027s0.409-0.997,0.409-1.664v-3.237l0.085-0.215
		l0.214-0.085h0.546c0.095,0,0.169,0.026,0.221,0.078c0.052,0.052,0.078,0.126,0.078,0.221v3.588c0,0.763-0.251,1.45-0.754,2.061
		c-0.503,0.611-1.174,1.042-2.015,1.293l-2.834,0.897L259.778,141.805 M247.077,141.207l-0.163-0.065l-0.071-0.182v-0.572
		c0-0.156,0.095-0.273,0.286-0.351l0.507-0.195c0.598-0.225,1.057-0.55,1.378-0.975c0.321-0.425,0.481-1.049,0.481-1.872
		c0-0.581-0.069-1.038-0.208-1.372c-0.139-0.334-0.366-0.574-0.682-0.722c-0.316-0.147-0.752-0.221-1.307-0.221h-0.403h-0.039
		l-1.196-0.013l-0.215-0.078l-0.084-0.208v-2.236l0.084-0.214l0.215-0.085h0.52l0.208,0.085l0.078,0.214v1.508h1.001
		c0.789,0,1.415,0.113,1.879,0.338c0.464,0.226,0.8,0.585,1.008,1.079s0.312,1.153,0.312,1.976c0,1.109-0.273,1.974-0.819,2.593
		c-0.546,0.62-1.257,1.077-2.132,1.372l-0.546,0.182L247.077,141.207 M283.542,141.077h-3.471l-0.215-0.085l-0.084-0.214v-0.416
		l0.084-0.215l0.215-0.084h2.561l-0.208-3.302c-0.043-0.563-0.089-0.977-0.136-1.242c-0.048-0.264-0.154-0.479-0.319-0.643
		c-0.165-0.165-0.421-0.247-0.767-0.247h-0.533l-0.214-0.078l-0.085-0.208v-0.416l0.085-0.214l0.214-0.085h0.533
		c0.624,0,1.103,0.123,1.436,0.371c0.334,0.247,0.563,0.587,0.689,1.021c0.126,0.433,0.21,1.001,0.253,1.703l0.247,4.056v0.039
		l-0.085,0.188L283.542,141.077 M270.776,141.077h-3.471l-0.215-0.085l-0.084-0.214v-0.416l0.084-0.215l0.215-0.084h2.561
		l-0.208-3.302c-0.043-0.563-0.089-0.977-0.136-1.242c-0.048-0.264-0.154-0.479-0.319-0.643c-0.165-0.165-0.421-0.247-0.767-0.247
		h-0.533l-0.214-0.078l-0.085-0.208v-0.416l0.085-0.214l0.214-0.085h0.533c0.624,0,1.103,0.123,1.437,0.371
		c0.333,0.247,0.563,0.587,0.689,1.021c0.126,0.433,0.21,1.001,0.253,1.703l0.247,4.056v0.039l-0.085,0.188L270.776,141.077
		 M243.606,141.077h-0.585c-0.113,0-0.199-0.033-0.26-0.098l-0.104-0.11l-2.964-4.173c-0.373,0.269-0.626,0.587-0.76,0.956
		c-0.134,0.369-0.201,0.774-0.201,1.216v1.911l-0.085,0.214l-0.215,0.085h-0.481l-0.215-0.085l-0.085-0.214v-1.963
		c0-0.641,0.098-1.2,0.293-1.677c0.195-0.477,0.579-0.906,1.151-1.287l-1.209-1.69c-0.061-0.095-0.091-0.178-0.091-0.247
		l0.078-0.182l0.182-0.078h0.572c0.139,0,0.26,0.074,0.364,0.221l2.73,3.809c0.312-0.182,0.539-0.373,0.682-0.572
		c0.143-0.199,0.232-0.396,0.266-0.592c0.035-0.195,0.052-0.449,0.052-0.76v-1.807l0.084-0.215l0.215-0.085h0.507l0.215,0.085
		l0.084,0.215v1.859c0,0.589-0.102,1.094-0.305,1.515c-0.204,0.42-0.613,0.813-1.229,1.176l1.482,2.067l0.091,0.247l-0.078,0.182
		L243.606,141.077 M232.518,141.077h-0.546l-0.215-0.085l-0.084-0.214v-3.887c0-1.491-0.745-2.236-2.236-2.236h-1.586v6.123
		l-0.085,0.214l-0.214,0.085h-0.546l-0.215-0.085l-0.084-0.214v-6.825c0-0.095,0.028-0.169,0.084-0.221l0.215-0.078h2.496
		c1.118,0,1.95,0.267,2.496,0.8c0.546,0.533,0.819,1.332,0.819,2.398v3.926l-0.085,0.214L232.518,141.077 M224.393,141.077h-0.572
		l-0.215-0.085l-0.085-0.214v-6.825c0-0.095,0.028-0.169,0.085-0.221l0.215-0.078h0.572l0.214,0.085l0.085,0.215v6.825l-0.085,0.214
		L224.393,141.077 M221.845,141.077h-5.408l-0.208-0.085l-0.078-0.214v-0.416l0.078-0.215l0.208-0.084h3.757v-3.172
		c0-1.482-0.745-2.223-2.236-2.223h-1.391l-0.208-0.085l-0.078-0.214v-0.416l0.078-0.215l0.208-0.085h1.456
		c2.219,0,3.328,1.062,3.328,3.185v3.224h0.494l0.208,0.084l0.078,0.215v0.416l-0.078,0.214L221.845,141.077 M214.214,141.077
		h-0.546l-0.214-0.085l-0.085-0.214v-3.887c0-1.491-0.741-2.236-2.223-2.236h-2.418l-0.214-0.078l-0.085-0.208v-0.416
		c0-0.095,0.028-0.169,0.085-0.221l0.214-0.078h2.483c2.201,0,3.302,1.066,3.302,3.198v3.926l-0.085,0.214L214.214,141.077
		 M209.274,141.077h-0.546l-0.214-0.085l-0.085-0.214v-4.368l0.085-0.214l0.214-0.085h0.546l0.215,0.085l0.084,0.214v4.368
		l-0.084,0.214L209.274,141.077"/>
	<path fill="#000000" d="M264.133,175.007c-1.101,0-1.9-0.268-2.398-0.806c-0.498-0.537-0.747-1.326-0.747-2.366v-4.095l0.078-0.208
		l0.208-0.078h0.221l0.208,0.078l0.078,0.208v4.03c0,0.797,0.193,1.41,0.579,1.839c0.385,0.429,0.977,0.643,1.774,0.643
		c0.797,0,1.385-0.193,1.762-0.578c0.377-0.386,0.574-0.977,0.591-1.775v-0.442v-1.027c-0.017-0.78-0.191-1.356-0.52-1.729
		c-0.329-0.373-0.776-0.559-1.339-0.559c-0.165,0-0.353,0.031-0.565,0.091c-0.212,0.061-0.392,0.143-0.539,0.247l-0.13,0.039
		l-0.15-0.059l-0.071-0.149v-0.169v-0.065l0.026-0.182l0.104-0.117c0.199-0.13,0.405-0.227,0.617-0.292
		c0.212-0.065,0.47-0.098,0.773-0.098c0.806,0,1.432,0.243,1.879,0.728c0.446,0.485,0.682,1.235,0.709,2.249
		c0.009,0.087,0.013,0.351,0.013,0.793c0,0.451-0.004,0.719-0.013,0.806c-0.026,1.04-0.28,1.807-0.761,2.301
		C266.037,174.76,265.242,175.007,264.133,175.007 M280.24,174.994c-0.139,0-0.208-0.069-0.208-0.208v-0.325
		c0-0.147,0.091-0.255,0.273-0.325l0.533-0.208c0.667-0.26,1.176-0.619,1.527-1.079c0.351-0.459,0.527-1.144,0.527-2.054
		c0-0.65-0.078-1.161-0.234-1.534c-0.156-0.373-0.414-0.641-0.773-0.806c-0.36-0.165-0.851-0.247-1.475-0.247h-0.442h-0.039
		l-1.014-0.013l-0.208-0.071l-0.078-0.202v-1.989l0.078-0.208l0.208-0.078h0.221l0.208,0.078l0.078,0.208v1.521h1.053
		c0.806,0,1.441,0.111,1.904,0.331c0.464,0.221,0.797,0.578,1.001,1.072c0.204,0.494,0.306,1.17,0.306,2.028
		c0,1.118-0.253,1.972-0.76,2.561c-0.507,0.59-1.185,1.036-2.034,1.339l-0.546,0.195L280.24,174.994 M276.691,174.877h-0.221
		l-0.208-0.078l-0.078-0.208v-3.9c0-1.655-0.828-2.483-2.483-2.483h-1.586l-0.208-0.078l-0.078-0.208v-0.182l0.078-0.208
		l0.208-0.078h1.651c1.083,0,1.889,0.271,2.418,0.813c0.529,0.542,0.793,1.328,0.793,2.359v3.965l-0.078,0.208L276.691,174.877
		 M269.671,174.877h-0.221l-0.208-0.078l-0.078-0.208v-6.851l0.078-0.208l0.208-0.078h0.221l0.208,0.078l0.078,0.208v6.851
		l-0.078,0.208L269.671,174.877 M259.284,174.877h-5.2l-0.208-0.078l-0.078-0.208v-0.182l0.078-0.208l0.208-0.078h3.913v-3.432
		c0-1.655-0.828-2.483-2.483-2.483h-1.3l-0.208-0.078l-0.078-0.208v-0.182l0.078-0.208l0.208-0.078h1.365
		c1.083,0,1.889,0.273,2.418,0.819c0.529,0.546,0.793,1.33,0.793,2.353v3.497h0.494l0.208,0.078l0.078,0.208v0.182l-0.078,0.208
		L259.284,174.877 M251.783,174.877h-0.624l-0.208-0.078l-0.078-0.208v-0.624l0.078-0.214l0.208-0.085h0.624l0.214,0.085
		l0.085,0.214v0.624l-0.085,0.208L251.783,174.877 M251.783,170.327h-0.624l-0.208-0.078l-0.078-0.208v-0.624l0.078-0.214
		l0.208-0.085h0.624l0.214,0.085l0.085,0.214v0.624l-0.085,0.208L251.783,170.327"/>
	<path fill="#000000" d="M274.104,193.389h-0.221l-0.208-0.078l-0.078-0.208v-8.463l0.078-0.208l0.208-0.078h0.221l0.208,0.078
		l0.078,0.208v8.463l-0.078,0.208L274.104,193.389 M280.242,191.844c-0.039,0-0.079-0.001-0.119-0.001h-0.871
		c-0.512,0-0.981-0.128-1.41-0.384c-0.429-0.255-0.769-0.622-1.021-1.098c-0.251-0.476-0.377-1.031-0.377-1.664v-4.056l0.078-0.208
		l0.208-0.078h0.221l0.208,0.078l0.078,0.208l0.052,3.887c0.884-0.06,1.504-0.279,1.859-0.656c0.355-0.377,0.533-0.865,0.533-1.462
		v-1.768l0.078-0.208l0.208-0.078h0.221l0.208,0.078l0.078,0.208v1.833c0,0.771-0.264,1.419-0.793,1.943
		c-0.529,0.525-1.309,0.813-2.34,0.865c0.095,0.572,0.346,1.014,0.754,1.326c0.407,0.312,0.914,0.468,1.521,0.468h0.455
		c0.029,0.001,0.057,0.001,0.086,0.001c0.833,0,1.477-0.25,1.929-0.748c0.468-0.516,0.702-1.211,0.702-2.087v-3.601l0.078-0.208
		l0.208-0.078h0.221l0.208,0.078l0.078,0.208v3.692c0,0.719-0.143,1.348-0.429,1.885c-0.286,0.537-0.689,0.947-1.209,1.229
		C281.453,191.711,280.886,191.844,280.242,191.844 M264.928,191.844c-0.039,0-0.079-0.001-0.119-0.001h-0.871
		c-0.511,0-0.981-0.128-1.41-0.384c-0.429-0.255-0.769-0.622-1.021-1.098c-0.251-0.476-0.377-1.031-0.377-1.664v-4.056l0.078-0.208
		l0.208-0.078h0.221l0.208,0.078l0.078,0.208l0.052,3.887c0.884-0.06,1.503-0.279,1.859-0.656c0.355-0.377,0.533-0.865,0.533-1.462
		v-1.768l0.078-0.208l0.208-0.078h0.221l0.208,0.078l0.078,0.208v1.833c0,0.771-0.264,1.419-0.793,1.943
		c-0.529,0.525-1.309,0.813-2.34,0.865c0.095,0.572,0.347,1.014,0.754,1.326c0.407,0.312,0.914,0.468,1.521,0.468h0.455
		c0.029,0.001,0.057,0.001,0.086,0.001c0.833,0,1.477-0.25,1.929-0.748c0.468-0.516,0.702-1.211,0.702-2.087v-3.601l0.078-0.208
		l0.208-0.078h0.221l0.208,0.078l0.078,0.208v3.692c0,0.719-0.143,1.348-0.429,1.885c-0.286,0.537-0.689,0.947-1.209,1.229
		C266.139,191.711,265.572,191.844,264.928,191.844 M258.79,191.777h-0.221l-0.208-0.078l-0.078-0.208v-6.851l0.078-0.208
		l0.208-0.078h0.221l0.208,0.078l0.078,0.208v6.851l-0.078,0.208L258.79,191.777 M255.891,191.777h-5.226l-0.208-0.078l-0.078-0.208
		v-6.851l0.078-0.208l0.208-0.078h2.301c1.083,0,1.889,0.271,2.418,0.813c0.529,0.542,0.793,1.328,0.793,2.359v3.965l-0.078,0.208
		L255.891,191.777 M251.159,185.108v5.915h4.225v-3.432c0-1.655-0.828-2.483-2.483-2.483H251.159"/>
	<path fill="#000000" d="M255.046,209.418l-0.176-0.065l-0.072-0.156v-0.169c0-0.199,0.061-0.321,0.182-0.364l1.781-0.65
		l-1.729-6.24c-0.043-0.147-0.065-0.234-0.065-0.26l0.078-0.182l0.182-0.078h0.234l0.195,0.058l0.104,0.137l1.781,6.279l0.13-0.052
		c0.71-0.26,1.209-0.632,1.495-1.118c0.286-0.485,0.429-1.075,0.429-1.768v-3.25l0.078-0.208l0.208-0.078h0.221l0.208,0.078
		l0.078,0.208v3.51c0,0.728-0.234,1.404-0.702,2.028c-0.468,0.624-1.088,1.075-1.859,1.352l-2.665,0.962L255.046,209.418
		 M269.19,208.794c-0.148,0-0.221-0.069-0.221-0.208v-0.351c0-0.147,0.091-0.255,0.273-0.325c0.633-0.225,1.083-0.429,1.352-0.611
		c0.329-0.225,0.646-0.539,0.949-0.943c0.303-0.403,0.455-0.73,0.455-0.981l-0.195-1.014c-0.113-0.563-0.234-1.01-0.364-1.339
		c-0.13-0.329-0.301-0.581-0.513-0.754c-0.213-0.173-0.492-0.26-0.839-0.26h-0.481l-0.208-0.078l-0.078-0.208v-0.182l0.078-0.208
		l0.208-0.078h0.481c0.503,0,0.914,0.113,1.235,0.338c0.321,0.225,0.576,0.557,0.767,0.994c0.19,0.438,0.359,1.008,0.507,1.71
		l0.793,4.095v0.039l-0.085,0.176l-0.201,0.071h-0.221c-0.148,0-0.243-0.095-0.286-0.286l-0.338-1.729
		c-0.165,0.277-0.353,0.535-0.566,0.773c-0.212,0.239-0.427,0.431-0.643,0.579c-0.312,0.217-0.607,0.384-0.884,0.501
		c-0.277,0.117-0.572,0.206-0.884,0.266L269.19,208.794 M246.973,208.794c-0.139,0-0.208-0.069-0.208-0.208v-0.325
		c0-0.147,0.091-0.256,0.273-0.325l0.533-0.208c0.667-0.26,1.176-0.619,1.527-1.079c0.351-0.459,0.527-1.144,0.527-2.054
		c0-0.65-0.078-1.161-0.234-1.534c-0.156-0.373-0.414-0.641-0.773-0.806c-0.36-0.165-0.852-0.247-1.475-0.247H246.7h-0.039
		l-1.014-0.013l-0.208-0.071l-0.078-0.202v-1.989l0.078-0.208l0.208-0.078h0.221l0.208,0.078l0.078,0.208v1.521h1.053
		c0.806,0,1.441,0.111,1.904,0.331c0.464,0.221,0.797,0.579,1.001,1.073c0.204,0.494,0.306,1.17,0.306,2.028
		c0,1.118-0.253,1.972-0.76,2.561c-0.507,0.59-1.185,1.036-2.035,1.339l-0.546,0.195L246.973,208.794 M234.105,208.744
		c-0.039,0-0.079-0.001-0.119-0.001h-0.871c-0.511,0-0.981-0.128-1.41-0.384c-0.429-0.255-0.769-0.622-1.021-1.099
		c-0.251-0.476-0.377-1.031-0.377-1.664v-4.056l0.078-0.208l0.208-0.078h0.221l0.208,0.078l0.078,0.208l0.052,3.887
		c0.884-0.061,1.503-0.28,1.859-0.657c0.355-0.377,0.533-0.865,0.533-1.462v-1.768l0.078-0.208l0.208-0.078h0.221l0.208,0.078
		l0.078,0.208v1.833c0,0.771-0.264,1.419-0.793,1.944c-0.529,0.524-1.309,0.813-2.34,0.864c0.095,0.572,0.347,1.014,0.754,1.326
		c0.407,0.312,0.914,0.468,1.521,0.468h0.455c0.029,0.001,0.057,0.001,0.085,0.001c0.834,0,1.477-0.249,1.93-0.748
		c0.468-0.516,0.702-1.211,0.702-2.087v-3.601l0.078-0.208l0.208-0.078h0.221l0.208,0.078l0.078,0.208v3.692
		c0,0.719-0.143,1.348-0.429,1.885c-0.286,0.537-0.689,0.947-1.209,1.229C235.316,208.611,234.749,208.744,234.105,208.744
		 M267.643,208.677h-5.2l-0.208-0.078l-0.078-0.208v-0.182l0.078-0.208l0.208-0.078h3.913v-3.432c0-1.655-0.828-2.483-2.483-2.483
		h-1.3l-0.208-0.078l-0.078-0.208v-0.182l0.078-0.208l0.208-0.078h1.365c1.083,0,1.889,0.273,2.418,0.819
		c0.529,0.546,0.793,1.331,0.793,2.353v3.497h0.494l0.208,0.078l0.078,0.208v0.182l-0.078,0.208L267.643,208.677 M252.797,208.677
		h-0.221l-0.208-0.078l-0.078-0.208v-6.851l0.078-0.208l0.208-0.078h0.221l0.208,0.078l0.078,0.208v6.851l-0.078,0.208
		L252.797,208.677 M228.045,208.677h-3.289l-0.208-0.078l-0.078-0.208v-0.182l0.078-0.208l0.208-0.078h2.782v-3.432
		c0-0.476-0.085-0.905-0.253-1.287c-0.169-0.381-0.403-0.676-0.702-0.884c-0.299-0.208-0.635-0.312-1.008-0.312h-1.508l-0.962,6.37
		l-0.11,0.215l-0.214,0.084h-0.234l-0.182-0.084l-0.052-0.215l0.949-6.37h-0.585l-0.208-0.078l-0.078-0.208v-0.182l0.078-0.208
		l0.208-0.078h2.964c0.52,0,0.984,0.13,1.391,0.39c0.407,0.26,0.726,0.631,0.956,1.112c0.23,0.481,0.344,1.038,0.344,1.67v3.965
		l-0.078,0.208L228.045,208.677 M217.463,208.677h-0.221l-0.208-0.078l-0.078-0.208v-3.9c0-1.655-0.828-2.483-2.483-2.483h-1.586
		l-0.208-0.078l-0.078-0.208v-0.182l0.078-0.208l0.208-0.078h1.651c1.083,0,1.889,0.271,2.418,0.813
		c0.529,0.542,0.793,1.328,0.793,2.36v3.965l-0.078,0.208L217.463,208.677 M243.177,205.687h-0.221l-0.208-0.078l-0.078-0.208
		v-3.861l0.078-0.208l0.208-0.078h0.221l0.208,0.078l0.078,0.208v3.861l-0.078,0.208L243.177,205.687 M220.258,205.687h-0.221
		l-0.208-0.078l-0.078-0.208v-3.861l0.078-0.208l0.208-0.078h0.221l0.208,0.078l0.078,0.208v3.861l-0.078,0.208L220.258,205.687"/>
	<path fill="#000000" d="M280.695,208.807c-0.624,0-1.168-0.104-1.632-0.312c-0.464-0.208-0.821-0.481-1.072-0.819
		c-0.251-0.338-0.386-0.702-0.403-1.092l0.078-0.182l0.195-0.065h0.182l0.221,0.058c0.061,0.039,0.104,0.119,0.13,0.241
		c0.121,0.511,0.396,0.871,0.825,1.079c0.429,0.208,0.921,0.312,1.476,0.312c0.693,0,1.248-0.165,1.664-0.494
		c0.416-0.329,0.624-0.806,0.624-1.43c0-1.196-0.72-1.794-2.158-1.794h-1.144l-0.208-0.078l-0.078-0.208v-0.195
		c0-0.095,0.039-0.199,0.117-0.312l2.678-3.159h-3.926l-0.208-0.078l-0.078-0.208v-0.195l0.078-0.214l0.208-0.085h4.849
		c0.095,0,0.169,0.026,0.221,0.078c0.052,0.052,0.078,0.126,0.078,0.221v0.195l-0.104,0.247l-2.743,3.211h0.26
		c0.918,0,1.644,0.217,2.177,0.65c0.533,0.434,0.8,1.075,0.8,1.924c0,0.555-0.135,1.038-0.403,1.45
		c-0.269,0.412-0.637,0.724-1.105,0.936C281.826,208.701,281.293,208.807,280.695,208.807"/>
	<path fill="#000000" d="M283.165,225.577h-3.289l-0.208-0.078l-0.078-0.208v-0.182l0.078-0.208l0.208-0.078h2.782v-3.432
		c0-0.476-0.084-0.905-0.254-1.287c-0.169-0.381-0.403-0.676-0.702-0.884c-0.299-0.208-0.635-0.312-1.007-0.312h-1.508l-0.962,6.37
		l-0.11,0.215l-0.215,0.084h-0.234l-0.182-0.084l-0.052-0.215l0.949-6.37h-0.585l-0.208-0.078l-0.078-0.208v-0.182l0.078-0.208
		l0.208-0.078h2.964c0.52,0,0.983,0.13,1.391,0.39c0.407,0.26,0.726,0.631,0.956,1.112c0.23,0.481,0.345,1.038,0.345,1.671v3.965
		l-0.078,0.208L283.165,225.577 M272.505,225.577h-0.221l-0.208-0.078l-0.078-0.208v-6.851l0.078-0.208l0.208-0.078h0.221
		l0.208,0.078l0.078,0.208v6.851l-0.078,0.208L272.505,225.577 M269.931,225.577h-3.224l-0.208-0.078l-0.078-0.208v-0.182
		l0.078-0.208l0.208-0.078h2.691l-0.247-3.562l-0.013-0.273c-0.035-0.52-0.078-0.914-0.13-1.183
		c-0.052-0.268-0.165-0.485-0.338-0.65c-0.174-0.165-0.438-0.247-0.793-0.247h-0.481l-0.208-0.078l-0.078-0.208v-0.182l0.078-0.208
		l0.208-0.078h0.481c0.581,0,1.012,0.126,1.294,0.377c0.282,0.251,0.468,0.577,0.559,0.975c0.091,0.399,0.163,0.962,0.215,1.69
		l0.273,4.095v0.039l-0.085,0.176L269.931,225.577 M263.184,225.577h-0.221l-0.208-0.078l-0.078-0.208v-4.914
		c0-0.338,0.033-0.637,0.098-0.897c0.065-0.26,0.149-0.451,0.253-0.572h-1.183l-0.208-0.078l-0.078-0.208v-0.182l0.078-0.208
		l0.208-0.078h2.886l0.208,0.078l0.078,0.208v0.182l-0.078,0.208l-0.208,0.078h-0.832c-0.139,0.122-0.245,0.319-0.319,0.592
		c-0.074,0.273-0.111,0.587-0.111,0.943v4.849l-0.078,0.208L263.184,225.577 M275.378,222.587h-0.221l-0.208-0.078l-0.078-0.208
		v-3.861l0.078-0.208l0.208-0.078h0.221l0.208,0.078l0.078,0.208v3.861l-0.078,0.208L275.378,222.587"/>
	<path fill="#000000" d="M263.938,244.089h-0.273c-0.13,0-0.23-0.065-0.299-0.195l-3.289-8.32c-0.052-0.13-0.078-0.216-0.078-0.26
		l0.078-0.182l0.182-0.078h0.234l0.208,0.071c0.052,0.048,0.1,0.128,0.143,0.241l1.469,3.705c1.404-0.121,2.106-0.945,2.106-2.47
		v-1.261l0.078-0.208l0.208-0.078h0.221l0.208,0.078l0.078,0.208v1.326c0,0.901-0.221,1.621-0.663,2.158
		c-0.442,0.537-1.088,0.863-1.937,0.975l1.508,3.77c0.052,0.13,0.078,0.217,0.078,0.26l-0.078,0.182L263.938,244.089
		 M283.165,242.477h-0.221l-0.208-0.078l-0.078-0.208v-3.9c0-1.655-0.828-2.483-2.483-2.483h-1.742v6.383l-0.078,0.208l-0.208,0.078
		h-0.221l-0.208-0.078l-0.078-0.208v-6.851l0.078-0.208l0.208-0.078h2.314c1.083,0,1.889,0.271,2.418,0.813
		c0.529,0.542,0.793,1.328,0.793,2.36v3.965l-0.078,0.208L283.165,242.477 M275.17,242.477h-0.221l-0.208-0.078l-0.078-0.208v-6.851
		l0.078-0.208l0.208-0.078h0.221l0.208,0.078l0.078,0.208v6.851l-0.078,0.208L275.17,242.477 M272.271,242.477h-3.289l-0.208-0.078
		l-0.078-0.208v-0.182l0.078-0.208l0.208-0.078h2.782v-3.432c0-0.477-0.085-0.906-0.253-1.287c-0.169-0.381-0.403-0.676-0.702-0.884
		s-0.635-0.312-1.008-0.312h-1.508l-0.962,6.37l-0.11,0.215l-0.214,0.085h-0.234l-0.182-0.085l-0.052-0.215l0.949-6.37h-0.585
		l-0.208-0.078l-0.078-0.208v-0.182l0.078-0.208l0.208-0.078h2.964c0.52,0,0.984,0.13,1.391,0.39
		c0.407,0.26,0.726,0.631,0.956,1.112c0.23,0.481,0.344,1.038,0.344,1.67v3.965l-0.078,0.208L272.271,242.477"/>
	<path fill="#000000" d="M280.331,259.507c-1.031,0-1.803-0.275-2.314-0.826c-0.511-0.55-0.767-1.354-0.767-2.411v-4.03l0.078-0.208
		l0.208-0.078h3.055c1.074,0,1.846,0.247,2.314,0.741c0.468,0.494,0.724,1.261,0.767,2.301c0.009,0.087,0.013,0.329,0.013,0.728
		c0,0.407-0.004,0.655-0.013,0.741c-0.026,1.031-0.304,1.796-0.832,2.295C282.311,259.258,281.475,259.507,280.331,259.507
		 M278.043,252.708v3.562c0,0.797,0.19,1.41,0.572,1.839c0.381,0.429,0.953,0.644,1.716,0.644c0.893,0,1.536-0.193,1.931-0.579
		c0.394-0.385,0.6-0.977,0.617-1.774c0.009-0.087,0.013-0.312,0.013-0.676c0-0.355-0.004-0.576-0.013-0.663
		c-0.018-0.763-0.238-1.346-0.663-1.748c-0.425-0.403-0.988-0.604-1.69-0.604H278.043 M274.858,259.377h-0.221l-0.208-0.078
		l-0.078-0.208v-6.851l0.078-0.208l0.208-0.078h0.221l0.208,0.078l0.078,0.208v6.851l-0.078,0.208L274.858,259.377 M269.255,259.377
		h-1.911l-0.208-0.078l-0.078-0.208v-0.182l0.078-0.208l0.208-0.078h1.846c0.849,0,1.467-0.21,1.853-0.63
		c0.386-0.42,0.596-1.038,0.63-1.853c0.009-0.13,0.013-0.29,0.013-0.481c0-0.182-0.005-0.338-0.013-0.468
		c-0.026-0.815-0.234-1.432-0.624-1.853c-0.39-0.42-1.01-0.63-1.859-0.63h-1.846l-0.208-0.078l-0.078-0.208v-0.182l0.078-0.208
		l0.208-0.078h1.911c1.075,0,1.87,0.269,2.385,0.806c0.516,0.537,0.791,1.326,0.826,2.366c0.008,0.13,0.013,0.308,0.013,0.533
		c0,0.234-0.005,0.416-0.013,0.546c-0.035,1.04-0.31,1.829-0.826,2.366C271.125,259.109,270.329,259.377,269.255,259.377
		 M264.64,259.377h-0.221l-0.208-0.078l-0.078-0.208v-3.9c0-1.655-0.828-2.483-2.483-2.483h-1.586l-0.208-0.078l-0.078-0.208v-0.182
		l0.078-0.208l0.208-0.078h1.651c1.083,0,1.889,0.271,2.418,0.813c0.529,0.542,0.793,1.328,0.793,2.36v3.965l-0.078,0.208
		L264.64,259.377"/>
	<path fill="#000000" d="M272.427,276.394c-0.139,0-0.208-0.069-0.208-0.208v-0.325c0-0.147,0.091-0.255,0.273-0.325l0.533-0.208
		c0.667-0.26,1.176-0.619,1.527-1.079c0.351-0.459,0.527-1.144,0.527-2.054c0-0.65-0.078-1.161-0.234-1.534
		c-0.156-0.373-0.414-0.641-0.774-0.806c-0.36-0.165-0.851-0.247-1.475-0.247h-0.442h-0.039l-1.014-0.013l-0.208-0.072l-0.078-0.201
		v-1.989l0.078-0.208l0.208-0.078h0.221l0.208,0.078l0.078,0.208v1.521h1.053c0.806,0,1.441,0.111,1.904,0.331
		c0.464,0.221,0.797,0.579,1.001,1.073c0.204,0.494,0.306,1.17,0.306,2.028c0,1.118-0.254,1.972-0.76,2.561
		c-0.507,0.589-1.185,1.036-2.034,1.339l-0.546,0.195L272.427,276.394 M283.165,276.277h-3.289l-0.208-0.078l-0.078-0.208v-0.182
		l0.078-0.208l0.208-0.078h2.782v-3.432c0-0.477-0.084-0.906-0.254-1.287c-0.169-0.381-0.403-0.676-0.702-0.884
		c-0.299-0.208-0.635-0.312-1.007-0.312h-1.508l-0.962,6.37l-0.11,0.215l-0.215,0.085h-0.234l-0.182-0.085l-0.052-0.215l0.949-6.37
		h-0.585l-0.208-0.078l-0.078-0.208v-0.182l0.078-0.208l0.208-0.078h2.964c0.52,0,0.983,0.13,1.391,0.39
		c0.407,0.26,0.726,0.63,0.956,1.111c0.23,0.481,0.345,1.038,0.345,1.671v3.965l-0.078,0.208L283.165,276.277 M268.878,276.277
		h-0.221l-0.208-0.078l-0.078-0.208v-3.9c0-1.655-0.828-2.483-2.483-2.483h-1.742v6.383l-0.078,0.208l-0.208,0.078h-0.221
		l-0.208-0.078l-0.078-0.208v-6.851l0.078-0.208l0.208-0.078h2.314c1.083,0,1.889,0.271,2.418,0.813
		c0.529,0.542,0.793,1.328,0.793,2.36v3.965l-0.078,0.208L268.878,276.277"/>
	<path fill="#000000" d="M283.243,310.077h-1.209l-0.221-0.091l-0.091-0.221v-6.708l-1.963,1.508l-0.195,0.065
		c-0.104,0-0.186-0.043-0.247-0.13l-0.559-0.728l-0.065-0.182c0-0.104,0.047-0.191,0.143-0.26l2.912-2.262
		c0.095-0.06,0.203-0.091,0.325-0.091h1.17l0.221,0.091l0.091,0.221v8.476l-0.091,0.221L283.243,310.077"/>
	<path fill="#000000" d="M239.338,311.689h-0.221l-0.208-0.078l-0.078-0.208v-5.512c0-1.655-0.828-2.483-2.483-2.483h-1.313v1.56
		c0,0.407,0.043,0.726,0.13,0.956c0.087,0.23,0.238,0.371,0.455,0.423l0.533,0.13c0.147,0.043,0.221,0.182,0.221,0.416v0.182
		l-0.085,0.156l-0.214,0.052l-0.104-0.013l-0.494-0.117c-0.416-0.095-0.724-0.32-0.923-0.676c-0.199-0.355-0.299-0.858-0.299-1.508
		v-2.028l0.078-0.208l0.208-0.078h1.872c1.083,0,1.889,0.271,2.418,0.813c0.529,0.542,0.793,1.328,0.793,2.36v5.577l-0.078,0.208
		L239.338,311.689 M247.788,310.207c-1.101,0-1.9-0.268-2.399-0.806c-0.498-0.537-0.747-1.326-0.747-2.366v-4.095l0.078-0.208
		l0.208-0.078h0.221l0.208,0.078l0.078,0.208v4.03c0,0.798,0.193,1.411,0.578,1.84c0.386,0.429,0.977,0.643,1.775,0.643
		c0.797,0,1.384-0.193,1.761-0.578c0.377-0.386,0.574-0.977,0.592-1.775v-0.442v-1.027c-0.018-0.78-0.191-1.356-0.52-1.729
		c-0.329-0.373-0.776-0.559-1.339-0.559c-0.165,0-0.353,0.031-0.566,0.091c-0.212,0.061-0.392,0.143-0.539,0.247l-0.13,0.039
		l-0.149-0.059l-0.072-0.149v-0.169v-0.065l0.026-0.182l0.104-0.117c0.199-0.13,0.405-0.228,0.617-0.293
		c0.212-0.065,0.47-0.097,0.774-0.097c0.806,0,1.432,0.243,1.879,0.728c0.446,0.485,0.682,1.235,0.708,2.249
		c0.009,0.087,0.013,0.351,0.013,0.793c0,0.451-0.004,0.719-0.013,0.806c-0.026,1.04-0.28,1.807-0.76,2.301
		C249.692,309.96,248.897,310.207,247.788,310.207 M191.096,310.207c-1.031,0-1.803-0.275-2.314-0.825
		c-0.512-0.55-0.767-1.354-0.767-2.412v-4.03l0.078-0.208l0.208-0.078h3.055c1.075,0,1.846,0.247,2.314,0.741
		c0.468,0.494,0.724,1.261,0.767,2.301c0.009,0.087,0.013,0.329,0.013,0.728c0,0.407-0.005,0.654-0.013,0.741
		c-0.026,1.031-0.303,1.796-0.832,2.295C193.076,309.958,192.24,310.207,191.096,310.207 M188.808,303.408v3.562
		c0,0.798,0.19,1.411,0.572,1.84c0.381,0.429,0.953,0.643,1.716,0.643c0.893,0,1.536-0.193,1.931-0.578
		c0.394-0.386,0.6-0.977,0.617-1.775c0.009-0.087,0.013-0.312,0.013-0.676c0-0.355-0.004-0.576-0.013-0.663
		c-0.017-0.762-0.239-1.345-0.663-1.748c-0.425-0.403-0.988-0.604-1.69-0.604H188.808 M263.232,310.194
		c-0.139,0-0.208-0.069-0.208-0.208v-0.325c0-0.147,0.091-0.256,0.273-0.325l0.533-0.208c0.667-0.26,1.176-0.62,1.527-1.079
		c0.351-0.459,0.527-1.144,0.527-2.054c0-0.65-0.078-1.161-0.234-1.534c-0.156-0.373-0.414-0.641-0.773-0.806
		c-0.36-0.165-0.852-0.247-1.476-0.247h-0.442h-0.039l-1.014-0.013l-0.208-0.072l-0.078-0.201v-1.989l0.078-0.208l0.208-0.078h0.221
		l0.208,0.078l0.078,0.208v1.521h1.053c0.806,0,1.441,0.111,1.905,0.332c0.464,0.221,0.797,0.578,1.001,1.072
		c0.203,0.494,0.306,1.17,0.306,2.028c0,1.118-0.253,1.972-0.761,2.561c-0.507,0.589-1.185,1.036-2.034,1.339l-0.546,0.195
		L263.232,310.194 M168.541,310.194c-0.139,0-0.208-0.069-0.208-0.208v-0.325c0-0.147,0.091-0.256,0.273-0.325l0.533-0.208
		c0.667-0.26,1.176-0.62,1.527-1.079c0.351-0.459,0.527-1.144,0.527-2.054c0-0.65-0.078-1.161-0.234-1.534
		c-0.156-0.373-0.414-0.641-0.774-0.806c-0.36-0.165-0.851-0.247-1.475-0.247h-0.442h-0.039l-1.014-0.013l-0.208-0.072l-0.078-0.201
		v-1.989l0.078-0.208l0.208-0.078h0.221l0.208,0.078l0.078,0.208v1.521h1.053c0.806,0,1.441,0.111,1.904,0.332
		c0.464,0.221,0.797,0.578,1.001,1.072c0.204,0.494,0.306,1.17,0.306,2.028c0,1.118-0.253,1.972-0.76,2.561
		c-0.507,0.589-1.185,1.036-2.034,1.339l-0.546,0.195L168.541,310.194 M256.487,310.144c-0.039,0-0.079,0-0.119-0.001h-0.871
		c-0.512,0-0.982-0.128-1.411-0.384c-0.429-0.255-0.769-0.622-1.021-1.099c-0.251-0.476-0.377-1.031-0.377-1.664v-4.056l0.078-0.208
		l0.208-0.078h0.221l0.208,0.078l0.078,0.208l0.052,3.887c0.884-0.06,1.504-0.279,1.859-0.656c0.355-0.377,0.533-0.865,0.533-1.462
		v-1.768l0.078-0.208l0.208-0.078h0.221l0.208,0.078l0.078,0.208v1.833c0,0.772-0.264,1.419-0.793,1.944
		c-0.529,0.525-1.309,0.813-2.34,0.865c0.095,0.572,0.346,1.014,0.754,1.326c0.407,0.312,0.914,0.468,1.521,0.468h0.455
		c0.029,0.001,0.057,0.001,0.086,0.001c0.833,0,1.477-0.25,1.929-0.748c0.468-0.516,0.702-1.211,0.702-2.087v-3.601l0.078-0.208
		l0.208-0.078h0.221l0.208,0.078l0.078,0.208v3.692c0,0.72-0.143,1.348-0.429,1.885c-0.286,0.538-0.689,0.947-1.209,1.229
		C257.698,310.011,257.131,310.144,256.487,310.144 M149.343,310.144c-0.039,0-0.079,0-0.119-0.001h-0.871
		c-0.512,0-0.982-0.128-1.411-0.384c-0.429-0.255-0.769-0.622-1.021-1.099c-0.251-0.476-0.377-1.031-0.377-1.664v-4.056l0.078-0.208
		l0.208-0.078h0.221l0.208,0.078l0.078,0.208l0.052,3.887c0.884-0.06,1.504-0.279,1.859-0.656c0.355-0.377,0.533-0.865,0.533-1.462
		v-1.768l0.078-0.208l0.208-0.078h0.221l0.208,0.078l0.078,0.208v1.833c0,0.772-0.264,1.419-0.793,1.944
		c-0.529,0.525-1.309,0.813-2.34,0.865c0.095,0.572,0.346,1.014,0.754,1.326c0.407,0.312,0.914,0.468,1.521,0.468h0.455
		c0.029,0.001,0.057,0.001,0.086,0.001c0.833,0,1.477-0.25,1.929-0.748c0.468-0.516,0.702-1.211,0.702-2.087v-3.601l0.078-0.208
		l0.208-0.078h0.221l0.208,0.078l0.078,0.208v3.692c0,0.72-0.143,1.348-0.429,1.885c-0.286,0.538-0.689,0.947-1.209,1.229
		C150.553,310.011,149.986,310.144,149.343,310.144 M242.237,310.077h-0.221l-0.208-0.078l-0.078-0.208v-6.851l0.078-0.208
		l0.208-0.078h0.221l0.208,0.078l0.078,0.208v6.851l-0.078,0.208L242.237,310.077 M229.107,310.077h-0.247l-0.176-0.046l-0.15-0.15
		l-3.211-4.472c-0.425,0.304-0.713,0.655-0.865,1.053c-0.152,0.399-0.227,0.841-0.227,1.326v2.002l-0.078,0.208l-0.208,0.078h-0.221
		l-0.208-0.078l-0.078-0.208v-2.067c0-0.615,0.098-1.164,0.293-1.645c0.195-0.481,0.579-0.908,1.151-1.28l-1.157-1.625
		c-0.07-0.104-0.104-0.191-0.104-0.26l0.078-0.182l0.182-0.078h0.247c0.121,0,0.23,0.065,0.325,0.195l2.938,4.095
		c0.364-0.199,0.628-0.405,0.793-0.617c0.165-0.212,0.267-0.427,0.306-0.644c0.039-0.217,0.058-0.507,0.058-0.871v-1.872
		l0.078-0.208l0.208-0.078h0.221l0.208,0.078l0.078,0.208v1.937c0,0.399-0.035,0.743-0.104,1.034
		c-0.069,0.29-0.214,0.572-0.436,0.845c-0.221,0.273-0.548,0.535-0.981,0.786l1.443,2.015c0.069,0.104,0.104,0.191,0.104,0.26
		l-0.078,0.182L229.107,310.077 M221.411,310.077h-0.221l-0.208-0.078l-0.078-0.208v-3.9c0-1.655-0.828-2.483-2.483-2.483h-0.988
		c-0.087,0.624-0.15,1.127-0.189,1.508c-0.039,0.382-0.054,0.815-0.045,1.3v3.575l-0.078,0.208l-0.208,0.078l-1.482-0.026
		l-0.208-0.078l-0.078-0.208v-0.182l0.078-0.208l0.208-0.078l0.975,0.013v-3.029v-0.403c0-0.476,0.017-0.895,0.052-1.254
		c0.035-0.36,0.1-0.765,0.195-1.216h-0.663l-0.208-0.078l-0.078-0.208v-0.182l0.078-0.208l0.208-0.078h2.496
		c1.083,0,1.889,0.271,2.418,0.813c0.529,0.542,0.793,1.328,0.793,2.36v3.965l-0.078,0.208L221.411,310.077 M209.751,310.077h-0.221
		l-0.208-0.078l-0.078-0.208v-3.9c0-1.655-0.828-2.483-2.483-2.483h-2.236l-0.208-0.078l-0.078-0.208v-0.182l0.078-0.208
		l0.208-0.078h2.301c1.083,0,1.889,0.271,2.418,0.813c0.529,0.542,0.793,1.328,0.793,2.36v3.965l-0.078,0.208L209.751,310.077
		 M204.746,310.077h-0.221l-0.208-0.078l-0.078-0.208v-4.563l0.078-0.208l0.208-0.078h0.221l0.208,0.078l0.078,0.208v4.563
		l-0.078,0.208L204.746,310.077 M201.847,310.077h-0.221l-0.208-0.078l-0.078-0.208v-3.9c0-1.655-0.828-2.483-2.483-2.483h-1.742
		v6.383l-0.078,0.208l-0.208,0.078h-0.221l-0.208-0.078l-0.078-0.208v-6.851l0.078-0.208l0.208-0.078h2.314
		c1.083,0,1.889,0.271,2.418,0.813c0.529,0.542,0.793,1.328,0.793,2.36v3.965l-0.078,0.208L201.847,310.077 M185.701,310.077h-0.221
		l-0.208-0.078l-0.078-0.208v-3.9c0-1.655-0.828-2.483-2.483-2.483h-2.236l-0.208-0.078l-0.078-0.208v-0.182l0.078-0.208
		l0.208-0.078h2.301c1.083,0,1.889,0.271,2.418,0.813c0.529,0.542,0.793,1.328,0.793,2.36v3.965l-0.078,0.208L185.701,310.077
		 M180.696,310.077h-0.221l-0.208-0.078l-0.078-0.208v-4.563l0.078-0.208l0.208-0.078h0.221l0.208,0.078l0.078,0.208v4.563
		l-0.078,0.208L180.696,310.077 M174.365,310.077h-0.221l-0.208-0.078l-0.078-0.208v-6.851l0.078-0.208l0.208-0.078h0.221
		l0.208,0.078l0.078,0.208v6.851l-0.078,0.208L174.365,310.077 M159.805,310.077h-5.2l-0.208-0.078l-0.078-0.208v-0.182l0.078-0.208
		l0.208-0.078h3.913v-3.432c0-1.655-0.828-2.483-2.483-2.483h-1.3l-0.208-0.078l-0.078-0.208v-0.182l0.078-0.208l0.208-0.078h1.365
		c1.083,0,1.889,0.273,2.418,0.819c0.529,0.546,0.793,1.33,0.793,2.353v3.497h0.494l0.208,0.078l0.078,0.208v0.182l-0.078,0.208
		L159.805,310.077 M164.745,307.087h-0.221l-0.208-0.078l-0.078-0.208v-3.861l0.078-0.208l0.208-0.078h0.221l0.208,0.078
		l0.078,0.208v3.861l-0.078,0.208L164.745,307.087 M161.976,307.087h-0.221l-0.208-0.078l-0.078-0.208v-3.861l0.078-0.208
		l0.208-0.078h0.221l0.208,0.078l0.078,0.208v3.861l-0.078,0.208L161.976,307.087"/>
	<path fill="#000000" d="M283.529,332.646h-6.227l-0.221-0.091l-0.091-0.221v-0.676c0-0.243,0.108-0.446,0.325-0.611l2.028-2.015
		c0.615-0.485,1.09-0.882,1.424-1.19c0.333-0.308,0.583-0.591,0.747-0.851c0.165-0.26,0.247-0.516,0.247-0.767
		c0-0.407-0.108-0.728-0.325-0.962c-0.217-0.234-0.546-0.351-0.988-0.351c-0.434,0-0.774,0.128-1.021,0.383
		c-0.247,0.256-0.401,0.587-0.461,0.995c-0.026,0.104-0.076,0.18-0.15,0.228l-0.241,0.071h-1.17l-0.195-0.078l-0.078-0.195
		c0.017-0.511,0.158-0.99,0.422-1.436c0.264-0.446,0.644-0.806,1.138-1.079c0.494-0.273,1.075-0.409,1.742-0.409
		c0.693,0,1.283,0.119,1.768,0.358c0.485,0.238,0.849,0.565,1.092,0.981c0.243,0.416,0.364,0.888,0.364,1.417
		c0,0.581-0.163,1.107-0.487,1.58c-0.325,0.472-0.83,0.977-1.515,1.515l-1.807,1.833h3.679c0.095,0,0.173,0.031,0.234,0.091
		c0.061,0.061,0.091,0.139,0.091,0.234v0.936c0,0.095-0.03,0.171-0.091,0.228C283.702,332.618,283.624,332.646,283.529,332.646"/>
	<path fill="#000000" d="M254.379,335.129h-0.221l-0.208-0.078l-0.078-0.208v-7.046l0.078-0.208l0.208-0.078h0.221l0.208,0.078
		l0.078,0.208v7.046l-0.078,0.208L254.379,335.129 M241.34,334.258h-0.273c-0.13,0-0.23-0.065-0.299-0.195l-3.289-8.32
		c-0.052-0.13-0.078-0.216-0.078-0.26l0.078-0.182l0.182-0.078h0.234l0.208,0.071c0.052,0.048,0.1,0.128,0.143,0.241l1.469,3.705
		c1.404-0.121,2.106-0.945,2.106-2.47v-1.261l0.078-0.208l0.208-0.078h0.221l0.208,0.078l0.078,0.208v1.326
		c0,0.901-0.221,1.621-0.663,2.158c-0.442,0.537-1.088,0.863-1.937,0.975l1.508,3.77c0.052,0.13,0.078,0.217,0.078,0.26
		l-0.078,0.182L241.34,334.258 M157.283,333.621h-0.221l-0.156-0.078l-0.026-0.195l0.247-1.56c0.026-0.234,0.134-0.351,0.325-0.351
		h0.585l0.143,0.065l0.052,0.143l-0.052,0.234l-0.559,1.469c-0.043,0.095-0.089,0.165-0.137,0.208L157.283,333.621 M140.722,332.776
		c-1.031,0-1.803-0.275-2.314-0.825c-0.511-0.55-0.767-1.354-0.767-2.411v-4.03l0.078-0.208l0.208-0.078h3.055
		c1.074,0,1.846,0.247,2.314,0.741c0.468,0.494,0.724,1.261,0.767,2.301c0.009,0.087,0.013,0.329,0.013,0.728
		c0,0.407-0.004,0.655-0.013,0.741c-0.026,1.031-0.304,1.796-0.832,2.294C142.702,332.527,141.866,332.776,140.722,332.776
		 M138.434,325.977v3.562c0,0.797,0.19,1.41,0.572,1.839c0.381,0.429,0.953,0.644,1.716,0.644c0.893,0,1.536-0.193,1.931-0.579
		c0.394-0.386,0.6-0.977,0.617-1.774c0.009-0.087,0.013-0.312,0.013-0.676c0-0.355-0.004-0.576-0.013-0.663
		c-0.018-0.763-0.239-1.346-0.663-1.748c-0.425-0.403-0.988-0.604-1.69-0.604H138.434 M263.232,332.763
		c-0.139,0-0.208-0.069-0.208-0.208v-0.325c0-0.147,0.091-0.256,0.273-0.325l0.533-0.208c0.667-0.26,1.176-0.619,1.527-1.079
		c0.351-0.459,0.527-1.144,0.527-2.054c0-0.65-0.078-1.161-0.234-1.534c-0.156-0.372-0.414-0.641-0.773-0.806
		c-0.36-0.165-0.852-0.247-1.476-0.247h-0.442h-0.039l-1.014-0.013l-0.208-0.071l-0.078-0.201v-1.989l0.078-0.208l0.208-0.078h0.221
		l0.208,0.078l0.078,0.208v1.521h1.053c0.806,0,1.441,0.111,1.905,0.331c0.464,0.221,0.797,0.579,1.001,1.073
		c0.203,0.494,0.306,1.17,0.306,2.028c0,1.118-0.254,1.972-0.761,2.561c-0.507,0.59-1.185,1.036-2.034,1.339l-0.546,0.195
		L263.232,332.763 M256.303,332.763c-0.139,0-0.208-0.069-0.208-0.208v-0.325c0-0.147,0.091-0.256,0.273-0.325l0.533-0.208
		c0.667-0.26,1.177-0.619,1.527-1.079c0.351-0.459,0.527-1.144,0.527-2.054c0-0.65-0.078-1.161-0.234-1.534
		c-0.156-0.372-0.414-0.641-0.774-0.806c-0.36-0.165-0.851-0.247-1.475-0.247h-2.314l-0.208-0.078l-0.078-0.208v-0.182l0.078-0.208
		l0.208-0.078h2.379c0.806,0,1.441,0.111,1.904,0.331c0.464,0.221,0.797,0.579,1.001,1.073c0.204,0.494,0.306,1.17,0.306,2.028
		c0,1.118-0.253,1.972-0.76,2.561c-0.507,0.59-1.185,1.036-2.034,1.339l-0.546,0.195L256.303,332.763 M194.97,332.763
		c-0.139,0-0.208-0.069-0.208-0.208v-0.325c0-0.147,0.091-0.256,0.273-0.325l0.533-0.208c0.667-0.26,1.176-0.619,1.527-1.079
		c0.351-0.459,0.527-1.144,0.527-2.054c0-0.65-0.078-1.161-0.234-1.534c-0.156-0.372-0.414-0.641-0.774-0.806
		c-0.36-0.165-0.851-0.247-1.475-0.247h-0.442h-0.039l-1.014-0.013l-0.208-0.071l-0.078-0.201v-1.989l0.078-0.208l0.208-0.078h0.221
		l0.208,0.078l0.078,0.208v1.521h1.053c0.806,0,1.441,0.111,1.904,0.331c0.464,0.221,0.797,0.579,1.001,1.073
		c0.204,0.494,0.306,1.17,0.306,2.028c0,1.118-0.253,1.972-0.76,2.561c-0.507,0.59-1.185,1.036-2.034,1.339l-0.546,0.195
		L194.97,332.763 M132.402,332.763c-0.139,0-0.208-0.069-0.208-0.208v-0.325c0-0.147,0.091-0.256,0.273-0.325l0.533-0.208
		c0.667-0.26,1.177-0.619,1.527-1.079c0.351-0.459,0.527-1.144,0.527-2.054c0-0.65-0.078-1.161-0.234-1.534
		c-0.156-0.372-0.414-0.641-0.773-0.806c-0.36-0.165-0.852-0.247-1.476-0.247h-0.442h-0.039l-1.014-0.013l-0.208-0.071l-0.078-0.201
		v-1.989l0.078-0.208l0.208-0.078h0.221l0.208,0.078l0.078,0.208v1.521h1.053c0.806,0,1.441,0.111,1.905,0.331
		c0.464,0.221,0.797,0.579,1.001,1.073c0.203,0.494,0.306,1.17,0.306,2.028c0,1.118-0.253,1.972-0.761,2.561
		c-0.507,0.59-1.185,1.036-2.034,1.339l-0.546,0.195L132.402,332.763 M85.42,332.763c-0.148,0-0.221-0.069-0.221-0.208v-0.351
		c0-0.147,0.091-0.255,0.273-0.325c0.633-0.225,1.083-0.429,1.352-0.611c0.329-0.225,0.646-0.539,0.949-0.943
		c0.303-0.403,0.455-0.73,0.455-0.981l-0.195-1.014c-0.113-0.563-0.234-1.01-0.364-1.339c-0.13-0.329-0.301-0.581-0.513-0.754
		c-0.213-0.173-0.492-0.26-0.839-0.26h-0.481l-0.208-0.078l-0.078-0.208v-0.182l0.078-0.208l0.208-0.078h0.481
		c0.503,0,0.914,0.113,1.235,0.338c0.321,0.225,0.576,0.557,0.767,0.994c0.191,0.438,0.36,1.008,0.507,1.71l0.793,4.095v0.039
		l-0.085,0.176l-0.201,0.072h-0.221c-0.148,0-0.243-0.095-0.286-0.286l-0.338-1.729c-0.165,0.278-0.353,0.535-0.566,0.774
		c-0.212,0.238-0.427,0.431-0.643,0.578c-0.312,0.217-0.607,0.384-0.884,0.501c-0.277,0.117-0.572,0.206-0.884,0.266L85.42,332.763
		 M65.647,332.763c-0.139,0-0.208-0.069-0.208-0.208v-0.325c0-0.147,0.091-0.256,0.273-0.325l0.533-0.208
		c0.667-0.26,1.176-0.619,1.527-1.079c0.351-0.459,0.527-1.144,0.527-2.054c0-0.65-0.078-1.161-0.234-1.534
		c-0.156-0.372-0.414-0.641-0.774-0.806c-0.36-0.165-0.851-0.247-1.475-0.247h-0.442h-0.039l-1.014-0.013l-0.208-0.071l-0.078-0.201
		v-1.989l0.078-0.208l0.208-0.078h0.221l0.208,0.078l0.078,0.208v1.521h1.053c0.806,0,1.441,0.111,1.904,0.331
		c0.464,0.221,0.797,0.579,1.001,1.073c0.204,0.494,0.306,1.17,0.306,2.028c0,1.118-0.253,1.972-0.76,2.561
		c-0.507,0.59-1.185,1.036-2.034,1.339l-0.546,0.195L65.647,332.763 M58.965,332.763c-0.147,0-0.221-0.069-0.221-0.208v-0.351
		c0-0.147,0.091-0.255,0.273-0.325c0.632-0.225,1.083-0.429,1.352-0.611c0.329-0.225,0.646-0.539,0.949-0.943
		c0.303-0.403,0.455-0.73,0.455-0.981l-0.195-1.014c-0.113-0.563-0.234-1.01-0.364-1.339c-0.13-0.329-0.301-0.581-0.514-0.754
		c-0.212-0.173-0.492-0.26-0.838-0.26h-0.481l-0.208-0.078l-0.078-0.208v-0.182l0.078-0.208l0.208-0.078h0.481
		c0.502,0,0.914,0.113,1.235,0.338c0.321,0.225,0.576,0.557,0.767,0.994c0.19,0.438,0.36,1.008,0.507,1.71l0.793,4.095v0.039
		l-0.084,0.176l-0.202,0.072h-0.221c-0.147,0-0.243-0.095-0.286-0.286l-0.338-1.729c-0.165,0.278-0.353,0.535-0.565,0.774
		c-0.213,0.238-0.427,0.431-0.644,0.578c-0.312,0.217-0.607,0.384-0.884,0.501c-0.277,0.117-0.572,0.206-0.884,0.266L58.965,332.763
		 M251.623,332.646h-4.485l-0.208-0.078l-0.078-0.208v-0.182l0.078-0.208l0.208-0.078h3.705l-4.173-6.149
		c-0.069-0.104-0.104-0.19-0.104-0.26l0.085-0.182l0.188-0.078h0.234c0.13,0,0.238,0.069,0.325,0.208l2.496,3.627
		c0.849-0.32,1.274-1.083,1.274-2.288v-1.261l0.078-0.208l0.208-0.078h0.221l0.208,0.078l0.078,0.208v1.326
		c0,0.702-0.141,1.289-0.422,1.761c-0.282,0.472-0.696,0.821-1.242,1.046l1.469,2.145c0.095,0.139,0.143,0.269,0.143,0.39v0.182
		l-0.078,0.208L251.623,332.646 M244.759,332.646h-0.221l-0.208-0.078l-0.078-0.208v-6.851l0.078-0.208l0.208-0.078h0.221
		l0.208,0.078l0.078,0.208v6.851l-0.078,0.208L244.759,332.646 M232.968,332.646h-0.247l-0.175-0.046l-0.149-0.149l-3.211-4.472
		c-0.425,0.303-0.713,0.654-0.865,1.053c-0.152,0.399-0.228,0.841-0.228,1.326v2.002l-0.078,0.208l-0.208,0.078h-0.221l-0.208-0.078
		l-0.078-0.208v-2.067c0-0.615,0.098-1.164,0.293-1.644c0.195-0.481,0.578-0.908,1.15-1.281l-1.157-1.625
		c-0.069-0.104-0.104-0.19-0.104-0.26l0.078-0.182l0.182-0.078h0.247c0.121,0,0.23,0.065,0.325,0.195l2.938,4.095
		c0.364-0.199,0.628-0.405,0.793-0.617c0.165-0.212,0.266-0.427,0.306-0.643c0.039-0.217,0.058-0.507,0.058-0.871v-1.872
		l0.078-0.208l0.208-0.078h0.221l0.208,0.078l0.078,0.208v1.937c0,0.399-0.035,0.743-0.104,1.034
		c-0.07,0.291-0.215,0.572-0.436,0.845c-0.221,0.273-0.548,0.535-0.981,0.787l1.443,2.015c0.069,0.104,0.104,0.191,0.104,0.26
		l-0.078,0.182L232.968,332.646 M225.272,332.646h-0.221l-0.208-0.078l-0.078-0.208v-3.9c0-1.655-0.828-2.483-2.483-2.483h-0.988
		c-0.087,0.624-0.149,1.127-0.188,1.508c-0.039,0.382-0.054,0.815-0.045,1.3v3.575l-0.078,0.208l-0.208,0.078l-1.482-0.026
		l-0.208-0.078l-0.078-0.208v-0.182l0.078-0.208l0.208-0.078l0.975,0.013v-3.029v-0.403c0-0.476,0.017-0.895,0.052-1.254
		c0.035-0.359,0.1-0.765,0.195-1.215h-0.663l-0.208-0.078l-0.078-0.208v-0.182l0.078-0.208l0.208-0.078h2.496
		c1.083,0,1.889,0.271,2.418,0.813c0.529,0.542,0.793,1.328,0.793,2.36v3.965l-0.078,0.208L225.272,332.646 M213.612,332.646h-0.221
		l-0.208-0.078l-0.078-0.208v-3.9c0-1.655-0.828-2.483-2.483-2.483h-2.236l-0.208-0.078l-0.078-0.208v-0.182l0.078-0.208
		l0.208-0.078h2.301c1.083,0,1.889,0.271,2.418,0.813c0.529,0.542,0.793,1.328,0.793,2.36v3.965l-0.078,0.208L213.612,332.646
		 M208.607,332.646h-0.221l-0.208-0.078l-0.078-0.208v-4.563l0.078-0.208l0.208-0.078h0.221l0.208,0.078l0.078,0.208v4.563
		l-0.078,0.208L208.607,332.646 M205.708,332.646h-3.289l-0.208-0.078l-0.078-0.208v-0.182l0.078-0.208l0.208-0.078h2.782v-3.432
		c0-0.477-0.084-0.906-0.253-1.287c-0.169-0.381-0.403-0.676-0.702-0.884c-0.299-0.208-0.635-0.312-1.007-0.312h-1.508l-0.962,6.37
		l-0.11,0.215l-0.215,0.085h-0.234l-0.182-0.085l-0.052-0.215l0.949-6.37h-0.585l-0.208-0.078l-0.078-0.208v-0.182l0.078-0.208
		l0.208-0.078h2.964c0.52,0,0.983,0.13,1.391,0.39c0.407,0.26,0.726,0.63,0.956,1.111c0.23,0.481,0.344,1.038,0.344,1.671v3.965
		l-0.078,0.208L205.708,332.646 M189.003,332.646h-2.158l-0.208-0.078l-0.078-0.208v-0.182l0.078-0.208l0.208-0.078h2.093
		c0.659,0,1.159-0.215,1.502-0.644c0.342-0.429,0.531-1.042,0.565-1.839c0.009-0.087,0.013-0.247,0.013-0.481
		c0-0.225-0.005-0.381-0.013-0.468c-0.017-0.789-0.201-1.4-0.552-1.833c-0.351-0.433-0.856-0.65-1.515-0.65h-1.768v1.235
		c0,0.407,0.043,0.726,0.13,0.956c0.087,0.23,0.238,0.371,0.455,0.422l0.533,0.13c0.147,0.043,0.221,0.182,0.221,0.416v0.182
		l-0.084,0.156l-0.215,0.052l-0.104-0.013l-0.494-0.117c-0.416-0.095-0.724-0.32-0.923-0.676c-0.2-0.355-0.299-0.858-0.299-1.508
		v-1.703l0.078-0.208l0.208-0.078h2.327c0.893,0,1.575,0.275,2.048,0.826c0.472,0.55,0.721,1.332,0.747,2.347
		c0.008,0.087,0.013,0.264,0.013,0.533c0,0.278-0.005,0.459-0.013,0.546c-0.026,1.014-0.275,1.796-0.747,2.346
		C190.578,332.371,189.895,332.646,189.003,332.646 M181.684,332.646h-2.158l-0.208-0.078l-0.078-0.208v-0.182l0.078-0.208
		l0.208-0.078h2.093c0.659,0,1.159-0.215,1.502-0.644c0.342-0.429,0.531-1.042,0.565-1.839c0.009-0.087,0.013-0.247,0.013-0.481
		c0-0.225-0.005-0.381-0.013-0.468c-0.017-0.789-0.201-1.4-0.552-1.833c-0.351-0.433-0.856-0.65-1.515-0.65h-1.768v1.235
		c0,0.407,0.043,0.726,0.13,0.956c0.087,0.23,0.238,0.371,0.455,0.422l0.533,0.13c0.147,0.043,0.221,0.182,0.221,0.416v0.182
		l-0.084,0.156l-0.215,0.052l-0.104-0.013l-0.494-0.117c-0.416-0.095-0.724-0.32-0.923-0.676c-0.2-0.355-0.299-0.858-0.299-1.508
		v-1.703l0.078-0.208l0.208-0.078h2.327c0.893,0,1.575,0.275,2.048,0.826c0.472,0.55,0.721,1.332,0.747,2.347
		c0.008,0.087,0.013,0.264,0.013,0.533c0,0.278-0.005,0.459-0.013,0.546c-0.026,1.014-0.275,1.796-0.747,2.346
		C183.259,332.371,182.577,332.646,181.684,332.646 M176.575,332.646h-0.221l-0.208-0.078l-0.078-0.208v-6.851l0.078-0.208
		l0.208-0.078h0.221l0.208,0.078l0.078,0.208v6.851l-0.078,0.208L176.575,332.646 M174.001,332.646h-3.224l-0.208-0.078
		l-0.078-0.208v-0.182l0.078-0.208l0.208-0.078h2.691l-0.247-3.562l-0.013-0.273c-0.035-0.52-0.078-0.914-0.13-1.183
		c-0.052-0.268-0.165-0.485-0.338-0.65c-0.173-0.165-0.438-0.247-0.793-0.247h-0.481l-0.208-0.078l-0.078-0.208v-0.182l0.078-0.208
		l0.208-0.078h0.481c0.581,0,1.012,0.126,1.294,0.377c0.281,0.251,0.468,0.577,0.559,0.975c0.091,0.399,0.163,0.962,0.214,1.69
		l0.273,4.095v0.039l-0.085,0.176L174.001,332.646 M165.798,332.646h-5.226l-0.208-0.078l-0.078-0.208v-6.851l0.078-0.208
		l0.208-0.078h2.301c1.083,0,1.889,0.271,2.418,0.813c0.529,0.542,0.793,1.328,0.793,2.36v3.965l-0.078,0.208L165.798,332.646
		 M161.066,325.977v5.915h4.225v-3.432c0-1.655-0.828-2.483-2.483-2.483H161.066 M151.46,332.646h-0.221l-0.208-0.078l-0.078-0.208
		v-3.9c0-1.655-0.828-2.483-2.483-2.483h-2.236l-0.208-0.078l-0.078-0.208v-0.182l0.078-0.208l0.208-0.078h2.301
		c1.083,0,1.889,0.271,2.418,0.813c0.529,0.542,0.793,1.328,0.793,2.36v3.965l-0.078,0.208L151.46,332.646 M146.455,332.646h-0.221
		l-0.208-0.078l-0.078-0.208v-4.563l0.078-0.208l0.208-0.078h0.221l0.208,0.078l0.078,0.208v4.563l-0.078,0.208L146.455,332.646
		 M128.853,332.646h-0.221l-0.208-0.078l-0.078-0.208v-3.9c0-1.655-0.828-2.483-2.483-2.483h-1.586l-0.208-0.078l-0.078-0.208
		v-0.182l0.078-0.208l0.208-0.078h1.651c1.083,0,1.889,0.271,2.418,0.813c0.529,0.542,0.793,1.328,0.793,2.36v3.965l-0.078,0.208
		L128.853,332.646 M116.1,332.646h-0.247l-0.175-0.046l-0.149-0.149l-3.211-4.472c-0.425,0.303-0.713,0.654-0.864,1.053
		c-0.152,0.399-0.228,0.841-0.228,1.326v2.002l-0.078,0.208l-0.208,0.078h-0.221l-0.208-0.078l-0.078-0.208v-2.067
		c0-0.615,0.098-1.164,0.292-1.644c0.195-0.481,0.579-0.908,1.151-1.281l-1.157-1.625c-0.069-0.104-0.104-0.19-0.104-0.26
		l0.078-0.182l0.182-0.078h0.247c0.121,0,0.23,0.065,0.325,0.195l2.938,4.095c0.364-0.199,0.628-0.405,0.793-0.617
		c0.165-0.212,0.266-0.427,0.306-0.643c0.039-0.217,0.058-0.507,0.058-0.871v-1.872l0.078-0.208l0.208-0.078h0.221l0.208,0.078
		l0.078,0.208v1.937c0,0.399-0.035,0.743-0.104,1.034c-0.07,0.291-0.215,0.572-0.436,0.845s-0.548,0.535-0.982,0.787l1.443,2.015
		c0.069,0.104,0.104,0.191,0.104,0.26l-0.078,0.182L116.1,332.646 M108.404,332.646h-0.221l-0.208-0.078l-0.078-0.208v-3.9
		c0-1.655-0.828-2.483-2.483-2.483h-0.988c-0.087,0.624-0.15,1.127-0.188,1.508c-0.039,0.382-0.054,0.815-0.045,1.3v3.575
		l-0.078,0.208l-0.208,0.078l-1.482-0.026l-0.208-0.078l-0.078-0.208v-0.182l0.078-0.208l0.208-0.078l0.975,0.013v-3.029v-0.403
		c0-0.476,0.017-0.895,0.052-1.254c0.035-0.359,0.1-0.765,0.195-1.215h-0.663l-0.208-0.078l-0.078-0.208v-0.182l0.078-0.208
		l0.208-0.078h2.496c1.083,0,1.889,0.271,2.418,0.813c0.529,0.542,0.793,1.328,0.793,2.36v3.965l-0.078,0.208L108.404,332.646
		 M96.743,332.646h-0.221l-0.208-0.078l-0.078-0.208v-3.9c0-1.655-0.828-2.483-2.483-2.483h-2.236l-0.208-0.078l-0.078-0.208v-0.182
		l0.078-0.208l0.208-0.078h2.301c1.083,0,1.889,0.271,2.418,0.813c0.529,0.542,0.793,1.328,0.793,2.36v3.965l-0.078,0.208
		L96.743,332.646 M91.738,332.646h-0.221l-0.208-0.078l-0.078-0.208v-4.563l0.078-0.208l0.208-0.078h0.221l0.208,0.078l0.078,0.208
		v4.563l-0.078,0.208L91.738,332.646 M81.937,332.646h-0.221l-0.208-0.078l-0.078-0.208v-4.914c0-0.338,0.033-0.637,0.098-0.897
		c0.065-0.26,0.149-0.451,0.253-0.572h-1.183l-0.208-0.078l-0.078-0.208v-0.182l0.078-0.208l0.208-0.078h2.886l0.208,0.078
		l0.078,0.208v0.182l-0.078,0.208l-0.208,0.078h-0.832c-0.139,0.121-0.245,0.319-0.318,0.591c-0.074,0.273-0.11,0.587-0.11,0.943
		v4.849l-0.078,0.208L81.937,332.646 M78.543,332.646h-0.221l-0.208-0.078l-0.078-0.208v-3.9c0-1.655-0.828-2.483-2.483-2.483
		h-1.586l-0.208-0.078l-0.078-0.208v-0.182l0.078-0.208l0.208-0.078h1.651c1.083,0,1.889,0.271,2.418,0.813
		c0.529,0.542,0.793,1.328,0.793,2.36v3.965l-0.078,0.208L78.543,332.646 M56.795,332.646h-0.221l-0.208-0.078l-0.078-0.208v-3.9
		c0-1.655-0.828-2.483-2.483-2.483h-1.586l-0.208-0.078l-0.078-0.208v-0.182l0.078-0.208l0.208-0.078h1.651
		c1.083,0,1.889,0.271,2.418,0.813c0.529,0.542,0.793,1.328,0.793,2.36v3.965l-0.078,0.208L56.795,332.646 M50.177,332.646h-0.221
		l-0.208-0.078l-0.078-0.208v-3.9c0-1.655-0.828-2.483-2.483-2.483h-1.586l-0.208-0.078l-0.078-0.208v-0.182l0.078-0.208
		l0.208-0.078h1.651c1.083,0,1.889,0.271,2.418,0.813c0.529,0.542,0.793,1.328,0.793,2.36v3.965l-0.078,0.208L50.177,332.646
		 M168.593,329.656h-0.221l-0.208-0.078l-0.078-0.208v-3.861l0.078-0.208l0.208-0.078h0.221l0.208,0.078l0.078,0.208v3.861
		l-0.078,0.208L168.593,329.656 M121.937,329.656h-0.221l-0.208-0.078l-0.078-0.208v-3.861l0.078-0.208l0.208-0.078h0.221
		l0.208,0.078l0.078,0.208v3.861l-0.078,0.208L121.937,329.656"/>
	<path fill="#000000" d="M160.364,352.029h-0.221l-0.208-0.078l-0.078-0.208v-7.046l0.078-0.208l0.208-0.078h0.221l0.208,0.078
		l0.078,0.208v7.046l-0.078,0.208L160.364,352.029 M189.133,350.287l-0.176-0.065l-0.072-0.156v-0.169
		c0-0.2,0.061-0.321,0.182-0.364l1.781-0.65l-1.729-6.24c-0.043-0.147-0.065-0.234-0.065-0.26l0.078-0.182l0.182-0.078h0.234
		l0.195,0.058l0.104,0.137l1.781,6.279l0.13-0.052c0.71-0.26,1.209-0.632,1.495-1.118c0.286-0.485,0.429-1.075,0.429-1.768v-3.25
		l0.078-0.208l0.208-0.078h0.221l0.208,0.078l0.078,0.208v3.51c0,0.728-0.234,1.404-0.702,2.028
		c-0.468,0.624-1.088,1.075-1.859,1.352l-2.665,0.962L189.133,350.287 M214.3,349.663c-0.139,0-0.208-0.069-0.208-0.208v-0.325
		c0-0.147,0.091-0.256,0.273-0.325l0.533-0.208c0.667-0.26,1.176-0.619,1.527-1.079c0.351-0.459,0.527-1.144,0.527-2.054
		c0-0.65-0.078-1.161-0.234-1.534c-0.156-0.373-0.414-0.641-0.773-0.806c-0.36-0.165-0.852-0.247-1.476-0.247h-0.442h-0.039
		l-1.014-0.013l-0.208-0.071l-0.078-0.201v-1.989l0.078-0.208l0.208-0.078h0.221l0.208,0.078l0.078,0.208v1.521h1.053
		c0.806,0,1.441,0.111,1.905,0.331c0.464,0.221,0.797,0.579,1.001,1.073c0.203,0.494,0.305,1.17,0.305,2.028
		c0,1.118-0.253,1.972-0.76,2.561c-0.507,0.589-1.185,1.036-2.034,1.339l-0.546,0.195L214.3,349.663 M162.288,349.663
		c-0.139,0-0.208-0.069-0.208-0.208v-0.325c0-0.147,0.091-0.256,0.273-0.325l0.533-0.208c0.667-0.26,1.176-0.619,1.527-1.079
		c0.351-0.459,0.527-1.144,0.527-2.054c0-0.65-0.078-1.161-0.234-1.534c-0.156-0.373-0.414-0.641-0.774-0.806
		c-0.36-0.165-0.851-0.247-1.475-0.247h-2.314l-0.208-0.078l-0.078-0.208v-0.182l0.078-0.208l0.208-0.078h2.379
		c0.806,0,1.441,0.111,1.904,0.331c0.464,0.221,0.797,0.579,1.001,1.073c0.204,0.494,0.306,1.17,0.306,2.028
		c0,1.118-0.253,1.972-0.76,2.561c-0.507,0.589-1.185,1.036-2.034,1.339l-0.546,0.195L162.288,349.663 M266.781,349.546h-5.2
		l-0.208-0.078l-0.078-0.208v-0.182l0.078-0.208l0.208-0.078h3.913v-3.432c0-1.655-0.828-2.483-2.483-2.483h-1.3l-0.208-0.078
		l-0.078-0.208v-0.182l0.078-0.208l0.208-0.078h1.365c1.083,0,1.889,0.273,2.418,0.819c0.529,0.546,0.793,1.33,0.793,2.353v3.497
		h0.494l0.208,0.078l0.078,0.208v0.182l-0.078,0.208L266.781,349.546 M257.109,349.546h-2.158l-0.208-0.078l-0.078-0.208v-0.182
		l0.078-0.208l0.208-0.078h2.093c0.659,0,1.159-0.215,1.502-0.644c0.342-0.429,0.531-1.042,0.566-1.839
		c0.008-0.087,0.013-0.247,0.013-0.481c0-0.225-0.005-0.381-0.013-0.468c-0.018-0.789-0.202-1.4-0.553-1.833
		c-0.351-0.433-0.856-0.65-1.515-0.65h-1.768v1.235c0,0.407,0.043,0.726,0.13,0.956c0.087,0.23,0.238,0.371,0.455,0.422l0.533,0.13
		c0.147,0.043,0.221,0.182,0.221,0.416v0.182l-0.084,0.156l-0.215,0.052l-0.104-0.013l-0.494-0.117
		c-0.416-0.095-0.724-0.321-0.923-0.676c-0.2-0.355-0.299-0.858-0.299-1.508v-1.703l0.078-0.208l0.208-0.078h2.327
		c0.893,0,1.575,0.275,2.047,0.825c0.472,0.55,0.722,1.332,0.747,2.347c0.009,0.087,0.013,0.264,0.013,0.533
		c0,0.278-0.005,0.459-0.013,0.546c-0.026,1.014-0.275,1.796-0.747,2.346C258.684,349.271,258.001,349.546,257.109,349.546
		 M252,349.546h-0.221l-0.208-0.078l-0.078-0.208v-6.851l0.078-0.208l0.208-0.078H252l0.208,0.078l0.078,0.208v6.851l-0.078,0.208
		L252,349.546 M249.101,349.546h-3.289l-0.208-0.078l-0.078-0.208v-0.182l0.078-0.208l0.208-0.078h2.782v-3.432
		c0-0.477-0.085-0.906-0.254-1.287c-0.169-0.381-0.403-0.676-0.702-0.884c-0.299-0.208-0.635-0.312-1.008-0.312h-1.508l-0.962,6.37
		l-0.11,0.215l-0.214,0.085h-0.234l-0.182-0.085l-0.052-0.215l0.949-6.37h-0.585l-0.208-0.078l-0.078-0.208v-0.182l0.078-0.208
		l0.208-0.078h2.964c0.52,0,0.983,0.13,1.391,0.39c0.407,0.26,0.726,0.63,0.956,1.111c0.23,0.481,0.345,1.038,0.345,1.67v3.965
		l-0.078,0.208L249.101,349.546 M239.052,349.546h-2.158l-0.208-0.078l-0.078-0.208v-0.182l0.078-0.208l0.208-0.078h2.093
		c0.659,0,1.159-0.215,1.502-0.644c0.342-0.429,0.531-1.042,0.565-1.839c0.009-0.087,0.013-0.247,0.013-0.481
		c0-0.225-0.004-0.381-0.013-0.468c-0.017-0.789-0.201-1.4-0.552-1.833c-0.351-0.433-0.856-0.65-1.515-0.65h-1.768v1.235
		c0,0.407,0.043,0.726,0.13,0.956c0.087,0.23,0.238,0.371,0.455,0.422l0.533,0.13c0.147,0.043,0.221,0.182,0.221,0.416v0.182
		l-0.085,0.156l-0.214,0.052l-0.104-0.013l-0.494-0.117c-0.416-0.095-0.724-0.321-0.923-0.676c-0.199-0.355-0.299-0.858-0.299-1.508
		v-1.703l0.078-0.208l0.208-0.078h2.327c0.893,0,1.575,0.275,2.047,0.825c0.472,0.55,0.722,1.332,0.747,2.347
		c0.009,0.087,0.013,0.264,0.013,0.533c0,0.278-0.005,0.459-0.013,0.546c-0.026,1.014-0.275,1.796-0.747,2.346
		C240.627,349.271,239.945,349.546,239.052,349.546 M228.483,349.546h-0.221l-0.208-0.078l-0.078-0.208v-3.9
		c0-1.655-0.828-2.483-2.483-2.483h-2.236l-0.208-0.078l-0.078-0.208v-0.182l0.078-0.208l0.208-0.078h2.301
		c1.083,0,1.889,0.271,2.418,0.813c0.529,0.542,0.793,1.328,0.793,2.36v3.965l-0.078,0.208L228.483,349.546 M223.478,349.546h-0.221
		l-0.208-0.078l-0.078-0.208v-4.563l0.078-0.208l0.208-0.078h0.221l0.208,0.078l0.078,0.208v4.563l-0.078,0.208L223.478,349.546
		 M210.751,349.546h-0.221l-0.208-0.078l-0.078-0.208v-3.9c0-1.655-0.828-2.483-2.483-2.483h-1.586l-0.208-0.078l-0.078-0.208
		v-0.182l0.078-0.208l0.208-0.078h1.651c1.083,0,1.889,0.271,2.418,0.813c0.529,0.542,0.793,1.328,0.793,2.36v3.965l-0.078,0.208
		L210.751,349.546 M203.953,349.546h-4.485l-0.208-0.078l-0.078-0.208v-0.182l0.078-0.208l0.208-0.078h3.705L199,342.643
		c-0.07-0.104-0.104-0.19-0.104-0.26l0.085-0.182l0.188-0.078h0.234c0.13,0,0.238,0.069,0.325,0.208l2.496,3.627
		c0.849-0.32,1.274-1.083,1.274-2.288v-1.261l0.078-0.208l0.208-0.078h0.221l0.208,0.078l0.078,0.208v1.326
		c0,0.702-0.141,1.289-0.422,1.761c-0.282,0.472-0.696,0.821-1.242,1.046l1.469,2.145c0.095,0.139,0.143,0.269,0.143,0.39v0.182
		l-0.078,0.208L203.953,349.546 M197.089,349.546h-0.221l-0.208-0.078l-0.078-0.208v-6.851l0.078-0.208l0.208-0.078h0.221
		l0.208,0.078l0.078,0.208v6.851l-0.078,0.208L197.089,349.546 M186.884,349.546h-0.221l-0.208-0.078l-0.078-0.208v-6.851
		l0.078-0.208l0.208-0.078h0.221l0.208,0.078l0.078,0.208v6.851l-0.078,0.208L186.884,349.546 M183.985,349.546h-0.221l-0.208-0.078
		l-0.078-0.208v-3.9c0-1.655-0.828-2.483-2.483-2.483h-0.988c-0.087,0.624-0.15,1.127-0.188,1.508
		c-0.039,0.382-0.054,0.815-0.045,1.3v3.575l-0.078,0.208l-0.208,0.078l-1.482-0.026l-0.208-0.078l-0.078-0.208v-0.182l0.078-0.208
		l0.208-0.078l0.975,0.013v-3.029v-0.403c0-0.476,0.017-0.895,0.052-1.254c0.035-0.359,0.1-0.765,0.195-1.215h-0.663l-0.208-0.078
		l-0.078-0.208v-0.182l0.078-0.208l0.208-0.078h2.496c1.083,0,1.889,0.271,2.418,0.813c0.529,0.542,0.793,1.328,0.793,2.36v3.965
		l-0.078,0.208L183.985,349.546 M171.44,349.546h-0.221l-0.208-0.078l-0.078-0.208v-4.914c0-0.338,0.033-0.637,0.098-0.897
		c0.065-0.26,0.15-0.451,0.253-0.572h-3.783l-0.208-0.078l-0.078-0.208v-0.182l0.078-0.208l0.208-0.078h5.486l0.208,0.078
		l0.078,0.208v0.182l-0.078,0.208l-0.208,0.078h-0.832c-0.139,0.121-0.245,0.318-0.318,0.591c-0.074,0.273-0.11,0.587-0.11,0.943
		v4.849l-0.078,0.208L171.44,349.546 M157.387,349.546h-0.221l-0.208-0.078l-0.078-0.208v-6.851l0.078-0.208l0.208-0.078h0.221
		l0.208,0.078l0.078,0.208v6.851l-0.078,0.208L157.387,349.546 M154.488,349.546h-0.221l-0.208-0.078l-0.078-0.208v-3.9
		c0-1.655-0.828-2.483-2.483-2.483h-0.988c-0.087,0.624-0.15,1.127-0.189,1.508c-0.039,0.382-0.054,0.815-0.045,1.3v3.575
		l-0.078,0.208l-0.208,0.078l-1.482-0.026l-0.208-0.078l-0.078-0.208v-0.182l0.078-0.208l0.208-0.078l0.975,0.013v-3.029v-0.403
		c0-0.476,0.017-0.895,0.052-1.254c0.035-0.359,0.1-0.765,0.195-1.215h-0.663l-0.208-0.078l-0.078-0.208v-0.182l0.078-0.208
		l0.208-0.078h2.496c1.083,0,1.889,0.271,2.418,0.813c0.529,0.542,0.793,1.328,0.793,2.36v3.965l-0.078,0.208L154.488,349.546
		 M234.047,346.556h-0.221l-0.208-0.078l-0.078-0.208v-3.861l0.078-0.208l0.208-0.078h0.221l0.208,0.078l0.078,0.208v3.861
		l-0.078,0.208L234.047,346.556 M231.278,346.556h-0.221l-0.208-0.078l-0.078-0.208v-3.861l0.078-0.208l0.208-0.078h0.221
		l0.208,0.078l0.078,0.208v3.861l-0.078,0.208L231.278,346.556"/>
	<path fill="#000000" d="M280.318,372.246c-0.771,0-1.424-0.121-1.956-0.364c-0.533-0.243-0.932-0.548-1.196-0.916
		c-0.264-0.368-0.405-0.747-0.423-1.138l0.078-0.195l0.195-0.078h1.196c0.19,0,0.321,0.087,0.39,0.26
		c0.19,0.615,0.762,0.923,1.716,0.923c0.529,0,0.943-0.121,1.241-0.364c0.299-0.243,0.449-0.589,0.449-1.04
		c0-0.451-0.137-0.778-0.41-0.981c-0.273-0.204-0.674-0.306-1.202-0.306h-1.339l-0.221-0.091l-0.091-0.221v-0.559
		c0-0.165,0.056-0.295,0.169-0.39l2.314-2.262h-3.705c-0.095,0-0.173-0.03-0.234-0.091l-0.091-0.221v-0.871
		c0-0.095,0.03-0.173,0.091-0.234c0.061-0.06,0.139-0.091,0.234-0.091h5.59c0.095,0,0.173,0.03,0.234,0.091
		c0.061,0.061,0.091,0.139,0.091,0.234v0.793c0,0.147-0.056,0.269-0.169,0.364l-2.236,2.301l0.156,0.013
		c0.832,0.069,1.493,0.321,1.982,0.754c0.49,0.434,0.735,1.053,0.735,1.859c0,0.572-0.154,1.071-0.461,1.495
		c-0.308,0.425-0.732,0.752-1.274,0.982S281.011,372.246,280.318,372.246"/>
	<path fill="#000000" d="M254.353,372.857l-0.175-0.065l-0.072-0.156v-0.169c0-0.199,0.061-0.321,0.182-0.364l1.781-0.65
		l-1.729-6.24c-0.043-0.147-0.065-0.234-0.065-0.26l0.078-0.182l0.182-0.078h0.234l0.195,0.058l0.104,0.137l1.781,6.279l0.13-0.052
		c0.711-0.26,1.209-0.632,1.495-1.118c0.286-0.485,0.429-1.075,0.429-1.768v-3.25l0.078-0.208l0.208-0.078h0.221l0.208,0.078
		l0.078,0.208v3.51c0,0.728-0.234,1.404-0.702,2.028c-0.468,0.624-1.088,1.075-1.859,1.352l-2.665,0.962L254.353,372.857
		 M103.931,372.246c-1.101,0-1.9-0.268-2.398-0.806c-0.499-0.537-0.747-1.326-0.747-2.366v-4.095l0.078-0.208l0.208-0.078h0.221
		l0.208,0.078l0.078,0.208v4.03c0,0.797,0.193,1.41,0.578,1.839c0.386,0.429,0.977,0.644,1.775,0.644
		c0.797,0,1.384-0.193,1.761-0.579c0.377-0.386,0.574-0.977,0.592-1.775v-0.442v-1.027c-0.018-0.78-0.191-1.356-0.52-1.729
		c-0.329-0.373-0.776-0.559-1.339-0.559c-0.165,0-0.353,0.031-0.566,0.091c-0.212,0.061-0.392,0.143-0.539,0.247l-0.13,0.039
		l-0.149-0.059l-0.072-0.149v-0.169v-0.065l0.026-0.182l0.104-0.117c0.199-0.13,0.405-0.227,0.617-0.292
		c0.212-0.065,0.47-0.098,0.774-0.098c0.806,0,1.432,0.243,1.879,0.728c0.446,0.485,0.682,1.235,0.708,2.249
		c0.009,0.087,0.013,0.351,0.013,0.793c0,0.451-0.004,0.719-0.013,0.806c-0.026,1.04-0.279,1.807-0.76,2.301
		C105.836,371.999,105.041,372.246,103.931,372.246 M263.232,372.233c-0.139,0-0.208-0.069-0.208-0.208V371.7
		c0-0.147,0.091-0.256,0.273-0.325l0.533-0.208c0.667-0.26,1.176-0.62,1.527-1.079c0.351-0.459,0.527-1.144,0.527-2.054
		c0-0.65-0.078-1.161-0.234-1.534c-0.156-0.373-0.414-0.641-0.773-0.806c-0.36-0.165-0.852-0.247-1.476-0.247h-0.442h-0.039
		l-1.014-0.013l-0.208-0.071l-0.078-0.202v-1.989l0.078-0.208l0.208-0.078h0.221l0.208,0.078l0.078,0.208v1.521h1.053
		c0.806,0,1.441,0.111,1.905,0.331c0.464,0.221,0.797,0.579,1.001,1.072c0.203,0.494,0.306,1.17,0.306,2.028
		c0,1.118-0.253,1.972-0.761,2.561c-0.507,0.59-1.185,1.036-2.034,1.339l-0.546,0.195L263.232,372.233 M163.041,372.233
		c-0.139,0-0.208-0.069-0.208-0.208V371.7c0-0.147,0.091-0.256,0.273-0.325l0.533-0.208c0.667-0.26,1.176-0.62,1.527-1.079
		c0.351-0.459,0.527-1.144,0.527-2.054c0-0.65-0.078-1.161-0.234-1.534c-0.156-0.373-0.414-0.641-0.773-0.806
		c-0.36-0.165-0.851-0.247-1.475-0.247h-0.442h-0.039l-1.014-0.013l-0.208-0.071l-0.078-0.202v-1.989l0.078-0.208l0.208-0.078h0.221
		l0.208,0.078l0.078,0.208v1.521h1.053c0.806,0,1.441,0.111,1.904,0.331c0.464,0.221,0.797,0.579,1.001,1.072
		c0.204,0.494,0.306,1.17,0.306,2.028c0,1.118-0.253,1.972-0.76,2.561c-0.507,0.59-1.185,1.036-2.035,1.339l-0.546,0.195
		L163.041,372.233 M252.182,372.116h-0.221l-0.208-0.078l-0.078-0.208v-3.9c0-1.655-0.828-2.483-2.483-2.483h-1.586l-0.208-0.078
		l-0.078-0.208v-0.182l0.078-0.208l0.208-0.078h1.651c1.083,0,1.889,0.271,2.418,0.813c0.529,0.542,0.793,1.328,0.793,2.359v3.965
		l-0.078,0.208L252.182,372.116 M246.358,372.116h-5.2l-0.208-0.078l-0.078-0.208v-0.182l0.078-0.208l0.208-0.078h3.913v-3.432
		c0-1.655-0.828-2.483-2.483-2.483h-1.3l-0.208-0.078l-0.078-0.208v-0.182l0.078-0.208l0.208-0.078h1.365
		c1.083,0,1.889,0.273,2.418,0.819c0.529,0.546,0.793,1.33,0.793,2.353v3.497h0.494l0.208,0.078l0.078,0.208v0.182l-0.078,0.208
		L246.358,372.116 M239.442,372.116h-5.2l-0.208-0.078l-0.078-0.208v-0.182l0.078-0.208l0.208-0.078h3.913v-3.432
		c0-1.655-0.828-2.483-2.483-2.483h-1.3l-0.208-0.078l-0.078-0.208v-0.182l0.078-0.208l0.208-0.078h1.365
		c1.083,0,1.889,0.273,2.418,0.819c0.529,0.546,0.793,1.33,0.793,2.353v3.497h0.494l0.208,0.078l0.078,0.208v0.182l-0.078,0.208
		L239.442,372.116 M229.393,372.116h-5.2l-0.208-0.078l-0.078-0.208v-0.182l0.078-0.208l0.208-0.078h3.913v-3.432
		c0-1.655-0.828-2.483-2.483-2.483h-1.3l-0.208-0.078l-0.078-0.208v-0.182l0.078-0.208l0.208-0.078h1.365
		c1.083,0,1.889,0.273,2.418,0.819c0.529,0.546,0.793,1.33,0.793,2.353v3.497h0.494l0.208,0.078l0.078,0.208v0.182l-0.078,0.208
		L229.393,372.116 M222.178,372.116h-3.224l-0.208-0.078l-0.078-0.208v-0.182l0.078-0.208l0.208-0.078h2.691l-0.247-3.562
		l-0.013-0.273c-0.035-0.52-0.078-0.914-0.13-1.183c-0.052-0.268-0.165-0.485-0.338-0.65c-0.173-0.165-0.438-0.247-0.793-0.247
		h-0.481l-0.208-0.078l-0.078-0.208v-0.182l0.078-0.208l0.208-0.078h0.481c0.581,0,1.012,0.126,1.294,0.377
		c0.282,0.251,0.468,0.576,0.559,0.975c0.091,0.399,0.163,0.962,0.215,1.69l0.273,4.095v0.039l-0.084,0.176L222.178,372.116
		 M214.56,372.116h-2.158l-0.208-0.078l-0.078-0.208v-0.182l0.078-0.208l0.208-0.078h2.093c0.659,0,1.159-0.215,1.501-0.644
		c0.342-0.429,0.531-1.042,0.566-1.839c0.009-0.087,0.013-0.247,0.013-0.481c0-0.225-0.004-0.381-0.013-0.468
		c-0.018-0.788-0.201-1.4-0.552-1.833c-0.351-0.433-0.856-0.65-1.515-0.65h-1.768v1.235c0,0.407,0.043,0.726,0.13,0.956
		c0.087,0.23,0.238,0.37,0.455,0.422l0.533,0.13c0.147,0.043,0.221,0.182,0.221,0.416v0.182l-0.085,0.156l-0.214,0.052l-0.104-0.013
		l-0.494-0.117c-0.416-0.095-0.724-0.321-0.923-0.676c-0.199-0.355-0.299-0.858-0.299-1.508v-1.703l0.078-0.208l0.208-0.078h2.327
		c0.893,0,1.575,0.275,2.047,0.826c0.472,0.55,0.722,1.332,0.747,2.346c0.009,0.087,0.013,0.264,0.013,0.533
		c0,0.277-0.004,0.459-0.013,0.546c-0.026,1.014-0.275,1.796-0.747,2.346C216.135,371.841,215.453,372.116,214.56,372.116
		 M209.529,372.116h-0.221l-0.208-0.078l-0.078-0.208v-3.9c0-1.655-0.828-2.483-2.483-2.483h-1.586l-0.208-0.078l-0.078-0.208
		v-0.182l0.078-0.208l0.208-0.078h1.651c1.083,0,1.889,0.271,2.418,0.813c0.529,0.542,0.793,1.328,0.793,2.359v3.965l-0.078,0.208
		L209.529,372.116 M201.404,372.116h-0.221l-0.208-0.078l-0.078-0.208v-4.914c0-0.338,0.032-0.637,0.097-0.897
		c0.065-0.26,0.15-0.451,0.254-0.572h-3.783l-0.208-0.078l-0.078-0.208v-0.182l0.078-0.208l0.208-0.078h5.486l0.208,0.078
		l0.078,0.208v0.182l-0.078,0.208l-0.208,0.078h-0.832c-0.139,0.121-0.245,0.318-0.318,0.592c-0.074,0.273-0.11,0.587-0.11,0.943
		v4.849l-0.078,0.208L201.404,372.116 M192.642,372.116h-0.247l-0.175-0.046l-0.149-0.149l-3.211-4.472
		c-0.425,0.303-0.713,0.654-0.864,1.053c-0.152,0.399-0.228,0.841-0.228,1.326v2.002l-0.078,0.208l-0.208,0.078h-0.221l-0.208-0.078
		l-0.078-0.208v-2.067c0-0.615,0.098-1.164,0.292-1.644c0.195-0.481,0.579-0.908,1.151-1.281l-1.157-1.625
		c-0.069-0.104-0.104-0.19-0.104-0.26l0.078-0.182l0.182-0.078h0.247c0.121,0,0.23,0.065,0.325,0.195l2.938,4.095
		c0.364-0.199,0.628-0.405,0.793-0.617c0.165-0.212,0.266-0.427,0.306-0.644c0.039-0.216,0.058-0.507,0.058-0.871v-1.872
		l0.078-0.208l0.208-0.078h0.221l0.208,0.078l0.078,0.208v1.937c0,0.399-0.035,0.743-0.104,1.034
		c-0.07,0.291-0.215,0.572-0.436,0.845c-0.221,0.273-0.548,0.535-0.981,0.787l1.443,2.015c0.069,0.104,0.104,0.191,0.104,0.26
		l-0.078,0.182L192.642,372.116 M184.946,372.116h-0.221l-0.208-0.078l-0.078-0.208v-3.9c0-1.655-0.828-2.483-2.483-2.483h-0.988
		c-0.087,0.624-0.15,1.127-0.188,1.508c-0.039,0.381-0.054,0.815-0.045,1.3v3.575l-0.078,0.208l-0.208,0.078l-1.482-0.026
		l-0.208-0.078l-0.078-0.208v-0.182l0.078-0.208l0.208-0.078l0.975,0.013v-3.029v-0.403c0-0.476,0.017-0.895,0.052-1.254
		c0.035-0.36,0.1-0.765,0.195-1.216h-0.663l-0.208-0.078l-0.078-0.208v-0.182l0.078-0.208l0.208-0.078h2.496
		c1.083,0,1.889,0.271,2.418,0.813c0.529,0.542,0.793,1.328,0.793,2.359v3.965l-0.078,0.208L184.946,372.116 M170.581,372.116
		h-1.911l-0.208-0.078l-0.078-0.208v-0.182l0.078-0.208l0.208-0.078h1.846c0.849,0,1.467-0.21,1.853-0.631
		c0.386-0.42,0.596-1.038,0.63-1.852c0.009-0.13,0.013-0.29,0.013-0.481c0-0.182-0.005-0.338-0.013-0.468
		c-0.026-0.815-0.234-1.432-0.624-1.852c-0.39-0.42-1.01-0.631-1.859-0.631h-1.846l-0.208-0.078l-0.078-0.208v-0.182l0.078-0.208
		l0.208-0.078h1.911c1.075,0,1.87,0.269,2.385,0.806c0.516,0.537,0.791,1.326,0.826,2.366c0.008,0.13,0.013,0.308,0.013,0.533
		c0,0.234-0.005,0.416-0.013,0.546c-0.035,1.04-0.31,1.829-0.826,2.366C172.451,371.847,171.656,372.116,170.581,372.116
		 M156.165,372.116h-0.221l-0.208-0.078l-0.078-0.208v-3.9c0-1.655-0.828-2.483-2.483-2.483h-1.742v6.383l-0.078,0.208l-0.208,0.078
		h-0.221l-0.208-0.078l-0.078-0.208v-6.851l0.078-0.208l0.208-0.078h2.314c1.083,0,1.889,0.271,2.418,0.813
		c0.529,0.542,0.793,1.328,0.793,2.359v3.965l-0.078,0.208L156.165,372.116 M148.17,372.116h-0.221l-0.208-0.078l-0.078-0.208
		v-6.851l0.078-0.208l0.208-0.078h0.221l0.208,0.078l0.078,0.208v6.851l-0.078,0.208L148.17,372.116 M145.271,372.116h-3.289
		l-0.208-0.078l-0.078-0.208v-0.182l0.078-0.208l0.208-0.078h2.782v-3.432c0-0.477-0.085-0.905-0.253-1.287
		c-0.169-0.381-0.403-0.676-0.702-0.884c-0.299-0.208-0.635-0.312-1.008-0.312h-1.508l-0.962,6.37l-0.11,0.215l-0.214,0.084h-0.234
		l-0.182-0.084l-0.052-0.215l0.949-6.37h-0.585l-0.208-0.078l-0.078-0.208v-0.182l0.078-0.208l0.208-0.078h2.964
		c0.52,0,0.984,0.13,1.391,0.39c0.407,0.26,0.726,0.631,0.955,1.111c0.23,0.481,0.345,1.038,0.345,1.67v3.965l-0.078,0.208
		L145.271,372.116 M137.458,372.116h-0.221l-0.208-0.078l-0.078-0.208v-3.9c0-1.655-0.828-2.483-2.483-2.483h-1.586l-0.208-0.078
		l-0.078-0.208v-0.182l0.078-0.208l0.208-0.078h1.651c1.083,0,1.889,0.271,2.418,0.813c0.529,0.542,0.793,1.328,0.793,2.359v3.965
		l-0.078,0.208L137.458,372.116 M124.393,372.116h-0.221l-0.208-0.078l-0.078-0.208v-3.9c0-1.655-0.828-2.483-2.483-2.483h-2.236
		l-0.208-0.078l-0.078-0.208v-0.182l0.078-0.208l0.208-0.078h2.301c1.083,0,1.889,0.271,2.418,0.813
		c0.529,0.542,0.793,1.328,0.793,2.359v3.965l-0.078,0.208L124.393,372.116 M119.388,372.116h-0.221l-0.208-0.078l-0.078-0.208
		v-4.563l0.078-0.208l0.208-0.078h0.221l0.208,0.078l0.078,0.208v4.563l-0.078,0.208L119.388,372.116 M116.489,372.116h-0.221
		l-0.208-0.078l-0.078-0.208v-3.9c0-1.655-0.828-2.483-2.483-2.483h-1.586l-0.208-0.078l-0.078-0.208v-0.182l0.078-0.208
		l0.208-0.078h1.651c1.083,0,1.889,0.271,2.418,0.813c0.529,0.542,0.793,1.328,0.793,2.359v3.965l-0.078,0.208L116.489,372.116
		 M109.469,372.116h-0.221l-0.208-0.078l-0.078-0.208v-6.851l0.078-0.208l0.208-0.078h0.221l0.208,0.078l0.078,0.208v6.851
		l-0.078,0.208L109.469,372.116 M99.082,372.116h-5.2l-0.208-0.078l-0.078-0.208v-0.182l0.078-0.208l0.208-0.078h3.913v-3.432
		c0-1.655-0.828-2.483-2.483-2.483h-1.3l-0.208-0.078l-0.078-0.208v-0.182l0.078-0.208l0.208-0.078h1.365
		c1.083,0,1.889,0.273,2.418,0.819c0.529,0.546,0.793,1.33,0.793,2.353v3.497h0.494l0.208,0.078l0.078,0.208v0.182l-0.078,0.208
		L99.082,372.116 M130.542,369.126h-0.221l-0.208-0.078l-0.078-0.208v-3.861l0.078-0.208l0.208-0.078h0.221l0.208,0.078l0.078,0.208
		v3.861l-0.078,0.208L130.542,369.126"/>
	<path fill="#000000" d="M282.254,394.685h-1.144l-0.221-0.091l-0.091-0.221v-1.664h-4.121l-0.221-0.091l-0.091-0.221V391.5
		c0-0.139,0.047-0.268,0.143-0.39l3.835-5.304l0.195-0.163c0.087-0.039,0.182-0.058,0.286-0.058h1.43
		c0.095,0,0.171,0.028,0.228,0.084c0.056,0.056,0.085,0.132,0.085,0.228v5.265h1.17c0.095,0,0.171,0.028,0.228,0.085
		c0.056,0.056,0.085,0.132,0.085,0.228v0.923l-0.085,0.221c-0.056,0.061-0.132,0.091-0.228,0.091h-1.17v1.664l-0.085,0.221
		C282.426,394.655,282.35,394.685,282.254,394.685 M280.838,387.483l-2.639,3.731h2.639V387.483"/>
	<path fill="#000000" d="M247.736,397.168h-0.221l-0.208-0.078l-0.078-0.208v-7.046l0.078-0.208l0.208-0.078h0.221l0.208,0.078
		l0.078,0.208v7.046l-0.078,0.208L247.736,397.168 M172.87,395.426l-0.176-0.065l-0.072-0.156v-0.169
		c0-0.199,0.061-0.321,0.182-0.364l1.781-0.65l-1.729-6.24c-0.043-0.147-0.065-0.234-0.065-0.26l0.078-0.182l0.182-0.078h0.234
		l0.195,0.059l0.104,0.136l1.781,6.279l0.13-0.052c0.71-0.26,1.209-0.633,1.495-1.118c0.286-0.485,0.429-1.075,0.429-1.768v-3.25
		l0.078-0.208l0.208-0.078h0.221l0.208,0.078l0.078,0.208v3.51c0,0.728-0.234,1.404-0.702,2.028
		c-0.468,0.624-1.088,1.075-1.859,1.352l-2.665,0.962L172.87,395.426 M109.729,395.426l-0.175-0.065l-0.071-0.156v-0.169
		c0-0.199,0.06-0.321,0.182-0.364l1.781-0.65l-1.729-6.24c-0.043-0.147-0.065-0.234-0.065-0.26l0.078-0.182l0.182-0.078h0.234
		l0.195,0.059l0.104,0.136l1.781,6.279l0.13-0.052c0.711-0.26,1.209-0.633,1.495-1.118c0.286-0.485,0.429-1.075,0.429-1.768v-3.25
		l0.078-0.208l0.208-0.078h0.221l0.208,0.078l0.078,0.208v3.51c0,0.728-0.234,1.404-0.702,2.028
		c-0.468,0.624-1.088,1.075-1.859,1.352l-2.665,0.962L109.729,395.426 M193.67,394.815c-1.101,0-1.9-0.269-2.398-0.806
		c-0.498-0.537-0.747-1.326-0.747-2.366v-4.095l0.078-0.208l0.208-0.078h0.221l0.208,0.078l0.078,0.208v4.03
		c0,0.798,0.193,1.41,0.579,1.84c0.386,0.429,0.977,0.643,1.774,0.643c0.797,0,1.385-0.193,1.761-0.579
		c0.377-0.386,0.574-0.977,0.592-1.774v-0.442v-1.027c-0.017-0.78-0.191-1.356-0.52-1.729c-0.329-0.373-0.776-0.559-1.339-0.559
		c-0.165,0-0.353,0.03-0.565,0.091c-0.213,0.061-0.392,0.143-0.539,0.247l-0.13,0.039l-0.15-0.058l-0.071-0.15v-0.169v-0.065
		l0.026-0.182l0.104-0.117c0.199-0.13,0.405-0.228,0.618-0.293c0.212-0.065,0.47-0.098,0.773-0.098c0.806,0,1.432,0.243,1.879,0.728
		c0.446,0.486,0.682,1.235,0.708,2.249c0.009,0.087,0.013,0.351,0.013,0.793c0,0.451-0.005,0.719-0.013,0.806
		c-0.026,1.04-0.279,1.807-0.76,2.301C195.574,394.568,194.779,394.815,193.67,394.815 M150.159,394.815
		c-1.031,0-1.803-0.275-2.314-0.825c-0.511-0.55-0.767-1.354-0.767-2.412v-4.03l0.078-0.208l0.208-0.078h3.055
		c1.075,0,1.846,0.247,2.314,0.741c0.468,0.494,0.724,1.261,0.767,2.301c0.009,0.087,0.013,0.329,0.013,0.728
		c0,0.407-0.004,0.655-0.013,0.741c-0.026,1.031-0.304,1.796-0.832,2.294C152.14,394.566,151.303,394.815,150.159,394.815
		 M147.871,388.016v3.562c0,0.798,0.19,1.41,0.572,1.84c0.381,0.429,0.953,0.643,1.716,0.643c0.893,0,1.536-0.193,1.93-0.579
		c0.394-0.386,0.6-0.977,0.618-1.774c0.009-0.087,0.013-0.312,0.013-0.676c0-0.355-0.004-0.576-0.013-0.663
		c-0.018-0.762-0.239-1.345-0.663-1.748c-0.425-0.403-0.988-0.604-1.69-0.604H147.871 M135.521,394.815
		c-1.101,0-1.9-0.269-2.398-0.806c-0.498-0.537-0.747-1.326-0.747-2.366v-4.095l0.078-0.208l0.208-0.078h0.221l0.208,0.078
		l0.078,0.208v4.03c0,0.798,0.193,1.41,0.579,1.84c0.386,0.429,0.977,0.643,1.774,0.643c0.797,0,1.384-0.193,1.762-0.579
		c0.377-0.386,0.574-0.977,0.591-1.774v-0.442v-1.027c-0.017-0.78-0.191-1.356-0.52-1.729c-0.329-0.373-0.776-0.559-1.339-0.559
		c-0.165,0-0.353,0.03-0.565,0.091c-0.213,0.061-0.392,0.143-0.539,0.247l-0.13,0.039l-0.15-0.058l-0.071-0.15v-0.169v-0.065
		l0.026-0.182l0.104-0.117c0.199-0.13,0.405-0.228,0.617-0.293c0.212-0.065,0.47-0.098,0.773-0.098c0.806,0,1.432,0.243,1.878,0.728
		c0.446,0.486,0.682,1.235,0.709,2.249c0.008,0.087,0.013,0.351,0.013,0.793c0,0.451-0.005,0.719-0.013,0.806
		c-0.026,1.04-0.28,1.807-0.761,2.301C137.426,394.568,136.631,394.815,135.521,394.815 M263.232,394.802
		c-0.139,0-0.208-0.069-0.208-0.208v-0.325c0-0.147,0.091-0.255,0.273-0.325l0.533-0.208c0.667-0.26,1.176-0.619,1.527-1.079
		c0.351-0.459,0.527-1.144,0.527-2.054c0-0.65-0.078-1.161-0.234-1.534c-0.156-0.373-0.414-0.641-0.773-0.806
		c-0.36-0.165-0.852-0.247-1.476-0.247h-0.442h-0.039l-1.014-0.013l-0.208-0.072l-0.078-0.201v-1.989l0.078-0.208l0.208-0.078h0.221
		l0.208,0.078l0.078,0.208v1.521h1.053c0.806,0,1.441,0.111,1.905,0.331c0.464,0.221,0.797,0.579,1.001,1.073
		c0.203,0.494,0.306,1.17,0.306,2.028c0,1.118-0.253,1.972-0.761,2.561c-0.507,0.589-1.185,1.036-2.034,1.339l-0.546,0.195
		L263.232,394.802 M249.66,394.802c-0.139,0-0.208-0.069-0.208-0.208v-0.325c0-0.147,0.091-0.255,0.273-0.325l0.533-0.208
		c0.667-0.26,1.176-0.619,1.527-1.079c0.351-0.459,0.527-1.144,0.527-2.054c0-0.65-0.078-1.161-0.234-1.534
		c-0.156-0.373-0.414-0.641-0.774-0.806c-0.36-0.165-0.851-0.247-1.475-0.247h-2.314l-0.208-0.078l-0.078-0.208v-0.182l0.078-0.208
		l0.208-0.078h2.379c0.806,0,1.441,0.111,1.904,0.331c0.464,0.221,0.797,0.579,1.001,1.073c0.204,0.494,0.306,1.17,0.306,2.028
		c0,1.118-0.253,1.972-0.76,2.561c-0.507,0.589-1.185,1.036-2.034,1.339l-0.546,0.195L249.66,394.802 M167.774,394.802
		c-0.139,0-0.208-0.069-0.208-0.208v-0.325c0-0.147,0.091-0.255,0.273-0.325l0.533-0.208c0.667-0.26,1.176-0.619,1.527-1.079
		c0.351-0.459,0.527-1.144,0.527-2.054c0-0.65-0.078-1.161-0.234-1.534c-0.156-0.373-0.414-0.641-0.773-0.806
		c-0.36-0.165-0.852-0.247-1.475-0.247h-0.442h-0.039l-1.014-0.013l-0.208-0.072l-0.078-0.201v-1.989l0.078-0.208l0.208-0.078h0.221
		l0.208,0.078l0.078,0.208v1.521h1.053c0.806,0,1.441,0.111,1.904,0.331c0.464,0.221,0.797,0.579,1.001,1.073
		c0.204,0.494,0.306,1.17,0.306,2.028c0,1.118-0.253,1.972-0.76,2.561c-0.507,0.589-1.185,1.036-2.035,1.339l-0.546,0.195
		L167.774,394.802 M141.839,394.802c-0.139,0-0.208-0.069-0.208-0.208v-0.325c0-0.147,0.091-0.255,0.273-0.325l0.533-0.208
		c0.667-0.26,1.176-0.619,1.527-1.079c0.351-0.459,0.527-1.144,0.527-2.054c0-0.65-0.078-1.161-0.234-1.534
		c-0.156-0.373-0.414-0.641-0.773-0.806c-0.36-0.165-0.852-0.247-1.476-0.247h-0.442h-0.039l-1.014-0.013l-0.208-0.072l-0.078-0.201
		v-1.989l0.078-0.208l0.208-0.078h0.221l0.208,0.078l0.078,0.208v1.521h1.053c0.806,0,1.441,0.111,1.904,0.331
		s0.797,0.579,1.001,1.073c0.203,0.494,0.305,1.17,0.305,2.028c0,1.118-0.253,1.972-0.76,2.561
		c-0.507,0.589-1.185,1.036-2.034,1.339l-0.546,0.195L141.839,394.802 M116.957,394.802c-0.147,0-0.221-0.069-0.221-0.208v-0.351
		c0-0.147,0.091-0.256,0.273-0.325c0.632-0.225,1.083-0.429,1.352-0.611c0.329-0.225,0.646-0.539,0.949-0.942
		c0.303-0.403,0.455-0.73,0.455-0.982l-0.195-1.014c-0.113-0.563-0.234-1.01-0.364-1.339c-0.13-0.329-0.301-0.581-0.514-0.754
		c-0.212-0.173-0.492-0.26-0.838-0.26h-0.481l-0.208-0.078l-0.078-0.208v-0.182l0.078-0.208l0.208-0.078h0.481
		c0.502,0,0.914,0.113,1.235,0.338c0.321,0.226,0.576,0.557,0.767,0.994c0.19,0.438,0.36,1.008,0.507,1.71l0.793,4.095v0.039
		l-0.084,0.176l-0.202,0.072h-0.221c-0.147,0-0.243-0.095-0.286-0.286l-0.338-1.729c-0.165,0.278-0.353,0.535-0.565,0.774
		c-0.213,0.239-0.427,0.431-0.644,0.579c-0.312,0.217-0.607,0.383-0.884,0.5c-0.277,0.117-0.572,0.206-0.884,0.266L116.957,394.802
		 M101.279,394.802c-0.139,0-0.208-0.069-0.208-0.208v-0.325c0-0.147,0.091-0.255,0.273-0.325l0.533-0.208
		c0.667-0.26,1.176-0.619,1.527-1.079c0.351-0.459,0.527-1.144,0.527-2.054c0-0.65-0.078-1.161-0.234-1.534
		c-0.156-0.373-0.414-0.641-0.773-0.806c-0.36-0.165-0.852-0.247-1.476-0.247h-0.442h-0.039l-1.014-0.013l-0.208-0.072l-0.078-0.201
		v-1.989l0.078-0.208l0.208-0.078h0.221l0.208,0.078l0.078,0.208v1.521h1.053c0.806,0,1.441,0.111,1.905,0.331
		c0.464,0.221,0.797,0.579,1.001,1.073c0.203,0.494,0.305,1.17,0.305,2.028c0,1.118-0.253,1.972-0.76,2.561
		c-0.507,0.589-1.185,1.036-2.034,1.339l-0.546,0.195L101.279,394.802 M49.462,394.802c-0.139,0-0.208-0.069-0.208-0.208v-0.325
		c0-0.147,0.091-0.255,0.273-0.325l0.533-0.208c0.667-0.26,1.177-0.619,1.527-1.079c0.351-0.459,0.527-1.144,0.527-2.054
		c0-0.65-0.078-1.161-0.234-1.534c-0.156-0.373-0.414-0.641-0.773-0.806c-0.36-0.165-0.852-0.247-1.476-0.247h-0.442H49.15
		l-1.014-0.013l-0.208-0.072l-0.078-0.201v-1.989l0.078-0.208l0.208-0.078h0.221l0.208,0.078l0.078,0.208v1.521h1.053
		c0.806,0,1.441,0.111,1.905,0.331c0.464,0.221,0.797,0.579,1.001,1.073c0.203,0.494,0.306,1.17,0.306,2.028
		c0,1.118-0.253,1.972-0.761,2.561c-0.507,0.589-1.185,1.036-2.034,1.339l-0.546,0.195L49.462,394.802 M76.127,394.752
		c-0.039,0-0.079,0-0.119-0.001h-0.871c-0.512,0-0.982-0.128-1.411-0.384c-0.429-0.255-0.769-0.622-1.021-1.099
		c-0.251-0.476-0.377-1.031-0.377-1.664v-4.056l0.078-0.208l0.208-0.078h0.221l0.208,0.078l0.078,0.208l0.052,3.887
		c0.884-0.06,1.504-0.279,1.859-0.657c0.355-0.377,0.533-0.864,0.533-1.462v-1.768l0.078-0.208l0.208-0.078h0.221l0.208,0.078
		l0.078,0.208v1.833c0,0.771-0.264,1.419-0.793,1.944c-0.529,0.525-1.309,0.813-2.34,0.865c0.095,0.572,0.346,1.014,0.754,1.326
		c0.407,0.312,0.914,0.468,1.521,0.468h0.455c0.029,0.001,0.057,0.001,0.085,0.001c0.834,0,1.477-0.25,1.93-0.748
		c0.468-0.516,0.702-1.211,0.702-2.087v-3.601l0.078-0.208l0.208-0.078h0.221l0.208,0.078l0.078,0.208v3.692
		c0,0.72-0.143,1.348-0.429,1.885c-0.286,0.537-0.689,0.947-1.209,1.229C77.338,394.619,76.771,394.752,76.127,394.752
		 M259.553,394.685h-4.485l-0.208-0.078l-0.078-0.208v-0.182l0.078-0.208l0.208-0.078h3.705l-4.173-6.149
		c-0.07-0.104-0.104-0.19-0.104-0.26l0.085-0.182l0.188-0.078h0.234c0.13,0,0.238,0.069,0.325,0.208l2.496,3.627
		c0.849-0.32,1.274-1.083,1.274-2.288v-1.261l0.078-0.208l0.208-0.078h0.221l0.208,0.078l0.078,0.208v1.326
		c0,0.702-0.141,1.289-0.422,1.761c-0.282,0.472-0.695,0.821-1.242,1.047l1.469,2.145c0.095,0.139,0.143,0.269,0.143,0.39v0.182
		l-0.078,0.208L259.553,394.685 M244.837,394.685h-0.221l-0.208-0.078l-0.078-0.208v-3.9c0-1.655-0.828-2.483-2.483-2.483h-0.988
		c-0.087,0.624-0.149,1.127-0.188,1.508c-0.039,0.382-0.054,0.815-0.045,1.3v3.575l-0.078,0.208l-0.208,0.078l-1.482-0.026
		l-0.208-0.078l-0.078-0.208v-0.182l0.078-0.208l0.208-0.078l0.975,0.013v-3.029v-0.403c0-0.477,0.017-0.895,0.052-1.254
		c0.035-0.36,0.1-0.765,0.195-1.216h-0.663l-0.208-0.078l-0.078-0.208v-0.182l0.078-0.208l0.208-0.078h2.496
		c1.083,0,1.889,0.271,2.418,0.813c0.529,0.542,0.793,1.328,0.793,2.36v3.965l-0.078,0.208L244.837,394.685 M233.488,394.685h-0.247
		l-0.176-0.045l-0.149-0.15l-3.211-4.472c-0.425,0.303-0.713,0.655-0.864,1.053c-0.152,0.399-0.228,0.841-0.228,1.326v2.002
		l-0.078,0.208l-0.208,0.078h-0.221l-0.208-0.078l-0.078-0.208v-2.067c0-0.615,0.098-1.164,0.292-1.645
		c0.195-0.481,0.579-0.908,1.151-1.281l-1.157-1.625c-0.07-0.104-0.104-0.19-0.104-0.26l0.078-0.182l0.182-0.078h0.247
		c0.121,0,0.23,0.065,0.325,0.195l2.938,4.095c0.364-0.199,0.628-0.405,0.793-0.617c0.164-0.212,0.266-0.427,0.305-0.644
		c0.039-0.217,0.059-0.507,0.059-0.871v-1.872l0.078-0.208l0.208-0.078h0.221l0.208,0.078l0.078,0.208v1.937
		c0,0.399-0.035,0.743-0.104,1.034c-0.069,0.29-0.214,0.572-0.435,0.845c-0.221,0.273-0.548,0.535-0.982,0.787l1.443,2.015
		c0.069,0.104,0.104,0.191,0.104,0.26l-0.078,0.182L233.488,394.685 M225.792,394.685h-0.221l-0.208-0.078l-0.078-0.208v-3.9
		c0-1.655-0.828-2.483-2.483-2.483h-0.988c-0.087,0.624-0.15,1.127-0.188,1.508c-0.039,0.382-0.054,0.815-0.045,1.3v3.575
		l-0.078,0.208l-0.208,0.078l-1.482-0.026l-0.208-0.078l-0.078-0.208v-0.182l0.078-0.208l0.208-0.078l0.975,0.013v-3.029v-0.403
		c0-0.477,0.017-0.895,0.052-1.254c0.035-0.36,0.1-0.765,0.195-1.216h-0.663l-0.208-0.078l-0.078-0.208v-0.182l0.078-0.208
		l0.208-0.078h2.496c1.083,0,1.889,0.271,2.418,0.813c0.529,0.542,0.793,1.328,0.793,2.36v3.965L226,394.607L225.792,394.685
		 M214.132,394.685h-0.221l-0.208-0.078l-0.078-0.208v-3.9c0-1.655-0.828-2.483-2.483-2.483h-2.236l-0.208-0.078l-0.078-0.208
		v-0.182l0.078-0.208l0.208-0.078h2.301c1.083,0,1.889,0.271,2.418,0.813c0.529,0.542,0.793,1.328,0.793,2.36v3.965l-0.078,0.208
		L214.132,394.685 M209.127,394.685h-0.221l-0.208-0.078l-0.078-0.208v-4.563l0.078-0.208l0.208-0.078h0.221l0.208,0.078
		l0.078,0.208v4.563l-0.078,0.208L209.127,394.685 M206.228,394.685h-0.221l-0.208-0.078l-0.078-0.208v-3.9
		c0-1.655-0.828-2.483-2.483-2.483h-1.586l-0.208-0.078l-0.078-0.208v-0.182l0.078-0.208l0.208-0.078h1.651
		c1.083,0,1.889,0.271,2.418,0.813c0.529,0.542,0.793,1.328,0.793,2.36v3.965l-0.078,0.208L206.228,394.685 M199.208,394.685h-0.221
		l-0.208-0.078l-0.078-0.208v-6.851l0.078-0.208l0.208-0.078h0.221l0.208,0.078l0.078,0.208v6.851l-0.078,0.208L199.208,394.685
		 M188.821,394.685h-5.2l-0.208-0.078l-0.078-0.208v-0.182l0.078-0.208l0.208-0.078h3.913v-3.432c0-1.655-0.828-2.483-2.483-2.483
		h-1.3l-0.208-0.078l-0.078-0.208v-0.182l0.078-0.208l0.208-0.078h1.365c1.083,0,1.889,0.273,2.418,0.819
		c0.529,0.546,0.793,1.33,0.793,2.353v3.497h0.494l0.208,0.078l0.078,0.208v0.182l-0.078,0.208L188.821,394.685 M160.897,394.685
		h-0.221l-0.208-0.078l-0.078-0.208v-3.9c0-1.655-0.828-2.483-2.483-2.483h-2.236l-0.208-0.078l-0.078-0.208v-0.182l0.078-0.208
		l0.208-0.078h2.301c1.083,0,1.889,0.271,2.418,0.813c0.529,0.542,0.793,1.328,0.793,2.36v3.965l-0.078,0.208L160.897,394.685
		 M155.892,394.685h-0.221l-0.208-0.078l-0.078-0.208v-4.563l0.078-0.208l0.208-0.078h0.221l0.208,0.078l0.078,0.208v4.563
		l-0.078,0.208L155.892,394.685 M126.694,394.685h-0.221l-0.208-0.078l-0.078-0.208v-3.9c0-1.655-0.828-2.483-2.483-2.483h-1.586
		l-0.208-0.078l-0.078-0.208v-0.182l0.078-0.208l0.208-0.078h1.651c1.083,0,1.889,0.271,2.418,0.813
		c0.529,0.542,0.793,1.328,0.793,2.36v3.965l-0.078,0.208L126.694,394.685 M95.312,394.685h-2.158l-0.208-0.078l-0.078-0.208v-0.182
		l0.078-0.208l0.208-0.078h2.093c0.659,0,1.159-0.214,1.501-0.643c0.342-0.429,0.531-1.042,0.566-1.84
		c0.009-0.087,0.013-0.247,0.013-0.481c0-0.225-0.004-0.381-0.013-0.468c-0.018-0.789-0.201-1.4-0.552-1.833
		c-0.351-0.433-0.856-0.65-1.515-0.65h-1.768v1.235c0,0.407,0.043,0.726,0.13,0.956c0.087,0.23,0.238,0.371,0.455,0.423l0.533,0.13
		c0.147,0.043,0.221,0.182,0.221,0.416v0.182l-0.085,0.156l-0.214,0.052l-0.104-0.013l-0.494-0.117
		c-0.416-0.095-0.724-0.32-0.923-0.676c-0.199-0.355-0.299-0.858-0.299-1.508v-1.703l0.078-0.208l0.208-0.078h2.327
		c0.893,0,1.575,0.275,2.047,0.826c0.472,0.55,0.722,1.333,0.747,2.347c0.009,0.087,0.013,0.264,0.013,0.533
		c0,0.277-0.004,0.459-0.013,0.546c-0.026,1.014-0.275,1.796-0.747,2.347C96.887,394.41,96.205,394.685,95.312,394.685
		 M90.606,394.685h-3.224l-0.208-0.078l-0.078-0.208v-0.182l0.078-0.208l0.208-0.078h2.691l-0.247-3.562l-0.013-0.273
		c-0.035-0.52-0.078-0.914-0.13-1.183c-0.052-0.268-0.165-0.485-0.338-0.65c-0.174-0.165-0.438-0.247-0.793-0.247h-0.481
		l-0.208-0.078l-0.078-0.208v-0.182l0.078-0.208l0.208-0.078h0.481c0.581,0,1.012,0.126,1.294,0.377
		c0.282,0.251,0.468,0.576,0.559,0.975c0.091,0.399,0.163,0.962,0.215,1.69l0.273,4.095v0.039l-0.084,0.176L90.606,394.685
		 M70.379,394.685h-0.247l-0.175-0.045l-0.15-0.15l-3.211-4.472c-0.425,0.303-0.713,0.655-0.865,1.053
		c-0.152,0.399-0.227,0.841-0.227,1.326v2.002l-0.078,0.208l-0.208,0.078h-0.221l-0.208-0.078l-0.078-0.208v-2.067
		c0-0.615,0.098-1.164,0.293-1.645c0.195-0.481,0.579-0.908,1.151-1.281l-1.157-1.625c-0.069-0.104-0.104-0.19-0.104-0.26
		l0.078-0.182l0.182-0.078H65.4c0.121,0,0.23,0.065,0.325,0.195l2.938,4.095c0.364-0.199,0.628-0.405,0.793-0.617
		c0.165-0.212,0.266-0.427,0.306-0.644c0.039-0.217,0.058-0.507,0.058-0.871v-1.872l0.078-0.208l0.208-0.078h0.221l0.208,0.078
		l0.078,0.208v1.937c0,0.399-0.035,0.743-0.104,1.034c-0.069,0.29-0.214,0.572-0.436,0.845c-0.221,0.273-0.548,0.535-0.981,0.787
		l1.443,2.015c0.069,0.104,0.104,0.191,0.104,0.26l-0.078,0.182L70.379,394.685 M62.605,394.685h-0.221l-0.208-0.078l-0.078-0.208
		v-6.851l0.078-0.208l0.208-0.078h0.221l0.208,0.078l0.078,0.208v6.851l-0.078,0.208L62.605,394.685 M57.002,394.685h-1.911
		l-0.208-0.078l-0.078-0.208v-0.182l0.078-0.208l0.208-0.078h1.846c0.849,0,1.467-0.21,1.853-0.63
		c0.386-0.42,0.596-1.038,0.63-1.853c0.009-0.13,0.013-0.29,0.013-0.481c0-0.182-0.004-0.338-0.013-0.468
		c-0.026-0.815-0.234-1.432-0.624-1.853c-0.39-0.42-1.01-0.63-1.859-0.63h-1.846l-0.208-0.078l-0.078-0.208v-0.182l0.078-0.208
		l0.208-0.078h1.911c1.075,0,1.87,0.269,2.385,0.806c0.516,0.537,0.791,1.326,0.825,2.366c0.009,0.13,0.013,0.308,0.013,0.533
		c0,0.234-0.004,0.416-0.013,0.546c-0.035,1.04-0.31,1.829-0.825,2.366C58.872,394.416,58.077,394.685,57.002,394.685
		 M42.871,394.685h-5.226l-0.208-0.078l-0.078-0.208v-6.851l0.078-0.208l0.208-0.078h2.301c1.083,0,1.889,0.271,2.418,0.813
		c0.529,0.542,0.793,1.328,0.793,2.36v3.965l-0.078,0.208L42.871,394.685 M38.139,388.016v5.915h4.225v-3.432
		c0-1.655-0.828-2.483-2.483-2.483H38.139 M85.198,391.695h-0.221l-0.208-0.078l-0.078-0.208v-3.861l0.078-0.208l0.208-0.078h0.221
		l0.208,0.078l0.078,0.208v3.861l-0.078,0.208L85.198,391.695 M45.666,391.695h-0.221l-0.208-0.078l-0.078-0.208v-3.861l0.078-0.208
		l0.208-0.078h0.221l0.208,0.078l0.078,0.208v3.861l-0.078,0.208L45.666,391.695"/>
</g>
</svg>
