<!-- Generator: Adobe InDesign 14.0 SVG Export Plug-in, SVG Library version: 6.0 build 234 -->
<!DOCTYPE svg PUBLIC "-//W3C//DTD SVG 1.1//EN" "http://www.w3.org/Graphics/SVG/1.1/DTD/svg11.dtd">
<svg version="1.1" xmlns="http://www.w3.org/2000/svg" xmlns:xlink="http://www.w3.org/1999/xlink" x="0%" y="0%" width="100%"
	 height="100%" viewBox="0 0 313.376 534.346" preserveAspectRatio="xMidYMid slice" overflow="visible" xml:space="preserve">
<clipPath id="clp_unq_id_1" fill="none">
	<path shape-rendering="crispEdges" stroke="#000000" d="M0,0h313.376v534.346H0V0"/>
</clipPath>
<g clip-path="url(#clp_unq_id_1)" fill="none">
	<path fill="#71A850" d="M91.316,12.016h-4.392h-2.568v13.488h0.6h7.872h2.568v-9c0-1.552-0.36-2.688-1.08-3.408
		C93.596,12.376,92.596,12.016,91.316,12.016z M86.924,23.536v-9.552h3.744c0.704,0,1.24,0.188,1.608,0.564
		c0.368,0.376,0.552,0.988,0.552,1.836v7.152H86.924z M98.516,25.504h2.568v-10.68l-0.312-2.808h-2.544l0.288,2.808V25.504z
		 M109.483,25.504h2.568v-8.712c0-1.2,0.176-2.136,0.528-2.808h1.8v-1.968h-10.704v1.968h6.48c-0.448,0.624-0.672,1.56-0.672,2.808
		V25.504z M128.803,25.504l-3.336-4.992l2.784-8.496h-2.472l-1.224,4.176l-0.6,2.088l-2.016-3.024l-2.016-3.24h-2.616l2.208,3.528
		l-0.672,1.704l-2.64,8.256h2.448l2.376-7.656l5.04,7.656H128.803z M137.635,12.016v-3.72h-2.328v5.688h7.224l-4.488,11.52h2.568
		l4.488-11.352v-2.136H137.635z M147.643,25.504h4.872c1.696,0,3.056-0.512,4.08-1.536c1.024-1.024,1.536-2.536,1.536-4.536V18.04
		c0-1.904-0.448-3.384-1.344-4.44c-0.896-1.056-2.144-1.584-3.744-1.584h-4.584l-0.936,4.128c-0.08,0.384-0.12,0.808-0.12,1.272
		c0,0.976,0.284,1.74,0.852,2.292c0.568,0.552,1.476,0.868,2.724,0.948L151.435,19c-0.624-0.128-1.072-0.324-1.344-0.588
		c-0.272-0.264-0.408-0.636-0.408-1.116c0-0.256,0.04-0.568,0.12-0.936l0.528-2.376h2.16c1.024,0,1.792,0.344,2.304,1.032
		c0.512,0.688,0.768,1.664,0.768,2.928v1.608c0,1.344-0.32,2.344-0.96,3c-0.64,0.656-1.512,0.984-2.616,0.984h-4.344V25.504z
		 M162.451,12.016v-3.72h-2.328v5.688h7.224l-4.488,11.52h2.568l4.488-11.352v-2.136H162.451z M172.458,25.504h4.872
		c1.696,0,3.056-0.512,4.08-1.536c1.024-1.024,1.536-2.536,1.536-4.536V18.04c0-1.904-0.448-3.384-1.344-4.44
		c-0.896-1.056-2.144-1.584-3.744-1.584h-4.584l-0.936,4.128c-0.08,0.384-0.12,0.808-0.12,1.272c0,0.976,0.284,1.74,0.852,2.292
		c0.568,0.552,1.476,0.868,2.724,0.948L176.25,19c-0.624-0.128-1.072-0.324-1.344-0.588c-0.272-0.264-0.408-0.636-0.408-1.116
		c0-0.256,0.04-0.568,0.12-0.936l0.528-2.376h2.16c1.024,0,1.792,0.344,2.304,1.032c0.512,0.688,0.768,1.664,0.768,2.928v1.608
		c0,1.344-0.32,2.344-0.96,3c-0.64,0.656-1.512,0.984-2.616,0.984h-4.344V25.504z M185.706,25.504h2.568v-10.68l-0.312-2.808h-2.544
		l0.288,2.808V25.504z M207.378,17.704l-0.024-0.768c-0.048-1.52-0.484-2.72-1.308-3.6c-0.824-0.88-1.98-1.32-3.468-1.32h-6.912
		l0.24,1.968l1.392,11.76c3.232-0.112,5.744-0.788,7.536-2.028C206.626,22.476,207.474,20.472,207.378,17.704z M199.554,23.416
		l-1.08-9.432h3.912c0.768,0,1.368,0.28,1.8,0.84c0.432,0.56,0.648,1.288,0.648,2.184v0.648c0.064,1.936-0.352,3.34-1.248,4.212
		C202.69,22.74,201.346,23.256,199.554,23.416z M216.018,25.504h2.568v-9c0-1.552-0.36-2.688-1.08-3.408
		c-0.72-0.72-1.72-1.08-3-1.08h-5.088v1.968h4.44c0.704,0,1.24,0.188,1.608,0.564c0.368,0.376,0.552,0.988,0.552,1.836V25.504z
		 M221.777,20.464l2.544-0.48l0.024-1.512v-3.648l-0.312-2.808h-2.544l0.288,2.808V20.464z M226.217,25.888
		c1.648-0.16,2.84-0.6,3.576-1.32c0.736-0.72,1.104-1.872,1.104-3.456v-7.128h3.264c0.704,0,1.24,0.188,1.608,0.564
		c0.368,0.376,0.552,0.988,0.552,1.836v9.12h2.568v-9c0-1.552-0.36-2.688-1.08-3.408s-1.72-1.08-3-1.08h-6.48V21.4
		c0,0.896-0.16,1.544-0.48,1.944c-0.32,0.4-0.944,0.648-1.872,0.744L226.217,25.888z M247.817,25.744
		c3.232-0.144,5.756-0.892,7.572-2.244c1.816-1.352,2.676-3.42,2.58-6.204l-0.024-0.672c-0.064-1.504-0.528-2.652-1.392-3.444
		c-0.864-0.792-2.016-1.236-3.456-1.332l-1.416-0.072l-0.192,2.016l1.2,0.072c0.912,0.064,1.6,0.376,2.064,0.936
		c0.464,0.56,0.696,1.272,0.696,2.136v0.672c0.112,3.504-1.68,5.44-5.376,5.808l-1.296-11.4h-2.568L247.817,25.744z M262.049,12.016
		v-3.72h-2.328v5.688h7.224l-4.488,11.52h2.568l4.488-11.352v-2.136H262.049z M283.265,17.704l-0.024-0.768
		c-0.048-1.52-0.484-2.72-1.308-3.6c-0.824-0.88-1.98-1.32-3.468-1.32h-6.912l0.24,1.968l1.392,11.76
		c3.232-0.112,5.744-0.788,7.536-2.028C282.513,22.476,283.361,20.472,283.265,17.704z M275.441,23.416l-1.08-9.432h3.912
		c0.768,0,1.368,0.28,1.8,0.84c0.432,0.56,0.648,1.288,0.648,2.184v0.648c0.064,1.936-0.352,3.34-1.248,4.212
		C278.576,22.74,277.232,23.256,275.441,23.416z"/>
	<path fill="#000000" d="M283.23,56.577h-0.546l-0.214-0.085l-0.085-0.215v-3.887c0-1.491-0.745-2.236-2.236-2.236h-1.586v6.123
		l-0.084,0.215l-0.215,0.085h-0.546l-0.214-0.085l-0.085-0.215v-6.825c0-0.095,0.028-0.169,0.085-0.221l0.214-0.078h2.496
		c1.118,0,1.95,0.266,2.496,0.8c0.546,0.533,0.819,1.332,0.819,2.398v3.926l-0.084,0.215L283.23,56.577 M275.105,56.577h-0.572
		l-0.214-0.085l-0.085-0.215v-6.825c0-0.095,0.028-0.169,0.085-0.221l0.214-0.078h0.572l0.215,0.085l0.084,0.214v6.825l-0.084,0.215
		L275.105,56.577 M271.985,56.577h-3.354l-0.208-0.085l-0.078-0.215v-0.416l0.078-0.214l0.208-0.085h2.509v-3.159
		c0-0.659-0.167-1.194-0.5-1.605c-0.334-0.412-0.756-0.618-1.267-0.618h-1.378l-1.001,6.084l-0.111,0.221l-0.214,0.091h-0.546
		l-0.201-0.091l-0.059-0.221l1.04-6.084h-0.663l-0.214-0.084l-0.085-0.215v-0.429l0.085-0.214l0.214-0.085h3.263
		c0.537,0,1.016,0.128,1.437,0.384c0.42,0.256,0.749,0.622,0.988,1.099c0.238,0.477,0.358,1.04,0.358,1.69v3.952l-0.085,0.215
		L271.985,56.577 M263.912,56.577h-0.546l-0.214-0.085l-0.085-0.215v-3.887c0-1.491-0.746-2.236-2.236-2.236h-1.677l-0.215-0.078
		l-0.084-0.208v-0.416l0.084-0.214l0.215-0.085h1.755c2.201,0,3.302,1.057,3.302,3.172v3.952l-0.084,0.215L263.912,56.577
		 M253.902,56.577h-5.447l-0.214-0.085l-0.085-0.215v-6.825c0-0.095,0.028-0.169,0.085-0.221l0.214-0.078h2.457
		c1.109,0,1.935,0.264,2.476,0.793c0.542,0.529,0.813,1.322,0.813,2.379v3.952l-0.084,0.215L253.902,56.577 M249.235,50.155v5.408
		h3.848v-3.172c0-1.491-0.745-2.236-2.236-2.236H249.235 M245.921,56.577h-0.897l-0.208-0.085l-0.078-0.215v-0.871
		c0-0.095,0.026-0.171,0.078-0.228l0.208-0.084h0.897c0.095,0,0.171,0.028,0.227,0.084c0.056,0.057,0.085,0.132,0.085,0.228v0.871
		l-0.091,0.215L245.921,56.577 M256.931,53.561h-0.572l-0.215-0.085l-0.084-0.214v-3.809c0-0.095,0.028-0.169,0.084-0.221
		l0.215-0.078h0.572l0.214,0.085l0.085,0.214v3.809l-0.085,0.214L256.931,53.561 M245.921,52.027h-0.897l-0.208-0.084l-0.078-0.215
		v-0.871c0-0.095,0.026-0.171,0.078-0.228l0.208-0.084h0.897c0.095,0,0.171,0.028,0.227,0.084c0.056,0.056,0.085,0.132,0.085,0.228
		v0.871l-0.091,0.215L245.921,52.027"/>
	<path fill="#000000" d="M278.199,75.96h-0.533l-0.215-0.078c-0.056-0.052-0.084-0.126-0.084-0.221V68.81l0.084-0.215l0.215-0.084
		h0.533l0.215,0.084l0.085,0.215v6.851l-0.085,0.215L278.199,75.96 M280.045,73.607l-0.163-0.065l-0.072-0.182v-0.572
		c0-0.156,0.095-0.273,0.286-0.351l0.507-0.195c0.598-0.225,1.057-0.55,1.378-0.975c0.321-0.425,0.481-1.049,0.481-1.872
		c0-0.581-0.069-1.038-0.208-1.372c-0.139-0.333-0.366-0.574-0.683-0.721c-0.316-0.147-0.752-0.221-1.307-0.221h-2.6l-0.215-0.085
		l-0.084-0.215V66.34l0.084-0.208l0.215-0.078h2.756c0.797,0,1.428,0.113,1.891,0.338c0.464,0.225,0.8,0.585,1.008,1.079
		c0.208,0.494,0.312,1.153,0.312,1.976c0,1.109-0.273,1.974-0.819,2.593c-0.546,0.62-1.257,1.077-2.132,1.372l-0.546,0.182
		L280.045,73.607 M261.624,73.607c-1.066,0-1.866-0.279-2.399-0.838c-0.533-0.559-0.8-1.363-0.8-2.411v-4.004
		c0-0.095,0.028-0.169,0.085-0.221l0.215-0.078h3.12c1.118,0,1.919,0.251,2.405,0.754c0.485,0.503,0.75,1.274,0.793,2.314
		c0.008,0.087,0.013,0.321,0.013,0.702c0,0.382-0.005,0.615-0.013,0.702c-0.026,1.031-0.308,1.803-0.845,2.314
		C263.661,73.352,262.803,73.607,261.624,73.607 M259.518,67.055v3.302c0,0.719,0.176,1.27,0.527,1.651
		c0.351,0.382,0.873,0.572,1.566,0.572c0.815,0,1.4-0.171,1.755-0.514c0.355-0.342,0.542-0.878,0.559-1.605
		c0.009-0.087,0.013-0.299,0.013-0.637c0-0.338-0.004-0.55-0.013-0.637c-0.018-0.693-0.215-1.222-0.592-1.586
		s-0.895-0.546-1.553-0.546H259.518 M223.197,73.607c-1.066,0-1.866-0.279-2.398-0.838c-0.533-0.559-0.8-1.363-0.8-2.411v-4.004
		c0-0.095,0.028-0.169,0.085-0.221l0.214-0.078h3.12c1.118,0,1.92,0.251,2.405,0.754c0.485,0.503,0.75,1.274,0.793,2.314
		c0.009,0.087,0.013,0.321,0.013,0.702c0,0.382-0.005,0.615-0.013,0.702c-0.026,1.031-0.308,1.803-0.845,2.314
		C225.233,73.352,224.375,73.607,223.197,73.607 M221.091,67.055v3.302c0,0.719,0.176,1.27,0.527,1.651
		c0.351,0.382,0.873,0.572,1.567,0.572c0.815,0,1.399-0.171,1.755-0.514c0.355-0.342,0.542-0.878,0.559-1.605
		c0.008-0.087,0.013-0.299,0.013-0.637c0-0.338-0.005-0.55-0.013-0.637c-0.018-0.693-0.215-1.222-0.592-1.586
		c-0.377-0.364-0.895-0.546-1.554-0.546H221.091 M195.676,73.607l-0.163-0.065l-0.071-0.182v-0.572c0-0.156,0.095-0.273,0.286-0.351
		l0.507-0.195c0.598-0.225,1.057-0.55,1.378-0.975c0.321-0.425,0.481-1.049,0.481-1.872c0-0.581-0.069-1.038-0.208-1.372
		c-0.139-0.333-0.366-0.574-0.682-0.721c-0.316-0.147-0.752-0.221-1.307-0.221h-0.403h-0.039l-1.196-0.013l-0.215-0.078
		l-0.084-0.208v-2.236l0.084-0.215l0.215-0.084h0.52l0.208,0.084l0.078,0.215v1.508h1.001c0.789,0,1.415,0.113,1.879,0.338
		c0.464,0.225,0.8,0.585,1.008,1.079s0.312,1.153,0.312,1.976c0,1.109-0.273,1.974-0.819,2.593c-0.546,0.62-1.257,1.077-2.132,1.372
		l-0.546,0.182L195.676,73.607 M211.237,73.594c-0.147,0-0.221-0.069-0.221-0.208v-0.611c0-0.147,0.091-0.256,0.273-0.325
		c0.026-0.009,0.197-0.067,0.514-0.176c0.316-0.108,0.6-0.245,0.851-0.409c0.26-0.165,0.516-0.392,0.767-0.682
		c0.251-0.29,0.429-0.566,0.533-0.825l-0.234-1.17c-0.104-0.511-0.214-0.916-0.331-1.215c-0.117-0.299-0.275-0.527-0.474-0.683
		c-0.199-0.156-0.459-0.234-0.78-0.234h-0.481l-0.215-0.078l-0.084-0.208v-0.442l0.084-0.215l0.215-0.084h0.481
		c0.554,0,1.01,0.113,1.365,0.338c0.355,0.226,0.639,0.561,0.852,1.008c0.212,0.447,0.392,1.029,0.539,1.748l0.78,4.056v0.052
		l-0.085,0.176l-0.201,0.072h-0.572c-0.165,0-0.264-0.1-0.299-0.299l-0.299-1.521c-0.321,0.494-0.689,0.88-1.105,1.157
		c-0.321,0.217-0.62,0.384-0.897,0.501c-0.277,0.117-0.572,0.206-0.884,0.266L211.237,73.594 M275.053,73.477h-0.572l-0.214-0.085
		l-0.085-0.215v-6.825c0-0.095,0.028-0.169,0.085-0.221l0.214-0.078h0.572l0.214,0.085l0.085,0.214v6.825l-0.085,0.215
		L275.053,73.477 M269.476,73.477h-2.236l-0.215-0.085l-0.084-0.215v-0.429l0.084-0.214l0.215-0.085h2.171
		c0.607,0,1.074-0.195,1.404-0.585c0.329-0.39,0.507-0.94,0.533-1.651c0.009-0.087,0.013-0.238,0.013-0.455
		c0-0.208-0.004-0.355-0.013-0.442c-0.018-0.711-0.193-1.261-0.526-1.651c-0.334-0.39-0.804-0.585-1.41-0.585h-1.599v1.04
		c0,0.347,0.039,0.62,0.117,0.819c0.078,0.199,0.212,0.325,0.403,0.377l0.494,0.13l0.163,0.136c0.039,0.074,0.059,0.163,0.059,0.267
		v0.299c0,0.095-0.048,0.165-0.143,0.208c-0.068,0.031-0.14,0.046-0.217,0.046c-0.031,0-0.063-0.003-0.095-0.008l-0.507-0.104
		c-0.867-0.191-1.3-0.927-1.3-2.21v-1.729c0-0.095,0.028-0.169,0.085-0.221l0.215-0.078h2.392c0.953,0,1.677,0.277,2.171,0.832
		c0.494,0.555,0.758,1.348,0.793,2.379c0.009,0.087,0.013,0.251,0.013,0.494c0,0.251-0.004,0.421-0.013,0.507
		c-0.035,1.031-0.299,1.824-0.793,2.379C271.153,73.2,270.429,73.477,269.476,73.477 M256.255,73.477h-0.546l-0.214-0.085
		l-0.085-0.215v-3.887c0-1.491-0.745-2.236-2.236-2.236h-0.936c-0.087,0.546-0.149,0.999-0.188,1.359
		c-0.039,0.36-0.054,0.769-0.045,1.229l0.026,3.536l-0.084,0.215l-0.215,0.085l-1.807-0.026l-0.215-0.084l-0.084-0.215v-0.39
		l0.084-0.215l0.215-0.085l1.001,0.013v-2.782c-0.009-0.546,0.002-1.007,0.033-1.384c0.03-0.377,0.102-0.795,0.214-1.254h-0.702
		l-0.214-0.078l-0.085-0.208v-0.416c0-0.095,0.028-0.169,0.085-0.221l0.214-0.078h2.782c2.201,0,3.302,1.057,3.302,3.172v3.952
		l-0.085,0.215L256.255,73.477 M244.504,73.477h-0.546l-0.215-0.085l-0.084-0.215v-3.887c0-1.491-0.745-2.236-2.236-2.236h-0.936
		c-0.087,0.546-0.15,0.999-0.188,1.359c-0.039,0.36-0.054,0.769-0.045,1.229l0.026,3.536l-0.085,0.215l-0.214,0.085l-1.807-0.026
		l-0.214-0.084l-0.085-0.215v-0.39l0.085-0.215l0.214-0.085l1.001,0.013v-2.782c-0.009-0.546,0.002-1.007,0.033-1.384
		c0.03-0.377,0.102-0.795,0.215-1.254h-0.702l-0.214-0.078l-0.085-0.208v-0.416c0-0.095,0.028-0.169,0.085-0.221l0.214-0.078h2.782
		c2.201,0,3.302,1.057,3.302,3.172v3.952l-0.085,0.215L244.504,73.477 M232.986,73.477h-0.546l-0.214-0.085l-0.085-0.215v-3.887
		c0-1.491-0.745-2.236-2.236-2.236h-1.677l-0.215-0.078l-0.084-0.208v-0.416l0.084-0.214l0.215-0.085h1.755
		c2.201,0,3.302,1.057,3.302,3.172v3.952l-0.085,0.215L232.986,73.477 M208.013,73.477h-0.546l-0.208-0.078l-0.078-0.208v-4.667
		c0-0.355,0.03-0.659,0.091-0.91c0.061-0.251,0.143-0.438,0.247-0.559h-3.588l-0.214-0.078l-0.085-0.208v-0.416l0.085-0.214
		l0.214-0.085h5.564c0.095,0,0.169,0.026,0.221,0.078c0.052,0.052,0.078,0.126,0.078,0.221v0.416l-0.085,0.208l-0.214,0.078h-0.767
		c-0.121,0.13-0.219,0.334-0.293,0.611c-0.074,0.277-0.11,0.589-0.11,0.936v4.589l-0.091,0.208L208.013,73.477 M201.851,73.477
		h-0.572l-0.214-0.085l-0.085-0.215v-6.825c0-0.095,0.028-0.169,0.085-0.221l0.214-0.078h0.572l0.215,0.085l0.085,0.214v6.825
		l-0.085,0.215L201.851,73.477 M192.179,73.477h-0.546l-0.214-0.085l-0.085-0.215v-3.887c0-1.491-0.741-2.236-2.223-2.236h-2.418
		l-0.215-0.078l-0.085-0.208v-0.416c0-0.095,0.028-0.169,0.085-0.221l0.215-0.078h2.483c2.201,0,3.302,1.066,3.302,3.198v3.926
		l-0.085,0.215L192.179,73.477 M187.239,73.477h-0.546l-0.215-0.085l-0.085-0.215V68.81l0.085-0.215l0.215-0.084h0.546l0.215,0.084
		l0.084,0.215v4.368l-0.084,0.215L187.239,73.477 M236.014,70.461h-0.572l-0.214-0.085l-0.085-0.214v-3.809
		c0-0.095,0.028-0.169,0.085-0.221l0.214-0.078h0.572l0.215,0.085l0.085,0.214v3.809l-0.085,0.214L236.014,70.461"/>
	<path fill="#000000" d="M272.778,90.507l-0.163-0.065l-0.071-0.182v-0.572c0-0.156,0.095-0.273,0.286-0.351l0.507-0.195
		c0.598-0.225,1.057-0.55,1.378-0.975c0.321-0.425,0.481-1.049,0.481-1.872c0-0.581-0.069-1.038-0.208-1.372
		c-0.139-0.333-0.366-0.574-0.682-0.721c-0.316-0.147-0.752-0.221-1.307-0.221h-0.403h-0.039l-1.196-0.013l-0.214-0.078
		l-0.085-0.208v-2.236l0.085-0.215l0.214-0.084h0.52l0.208,0.084l0.078,0.215v1.508h1.001c0.789,0,1.415,0.113,1.879,0.338
		c0.464,0.225,0.799,0.585,1.007,1.079s0.312,1.153,0.312,1.976c0,1.109-0.273,1.974-0.819,2.593
		c-0.546,0.62-1.257,1.077-2.132,1.372l-0.546,0.182L272.778,90.507 M258.712,90.507l-0.162-0.065l-0.072-0.182v-0.572
		c0-0.156,0.095-0.273,0.286-0.351l0.507-0.195c0.598-0.225,1.057-0.55,1.378-0.975c0.32-0.425,0.481-1.049,0.481-1.872
		c0-0.581-0.07-1.038-0.208-1.372c-0.139-0.333-0.366-0.574-0.683-0.721c-0.316-0.147-0.752-0.221-1.306-0.221h-0.403h-0.039
		l-1.196-0.013l-0.215-0.078l-0.085-0.208v-2.236l0.085-0.215l0.215-0.084h0.52l0.208,0.084l0.078,0.215v1.508h1.001
		c0.789,0,1.415,0.113,1.879,0.338c0.464,0.225,0.8,0.585,1.008,1.079s0.312,1.153,0.312,1.976c0,1.109-0.273,1.974-0.819,2.593
		c-0.546,0.62-1.257,1.077-2.132,1.372l-0.546,0.182L258.712,90.507 M280.773,90.377h-2.236l-0.215-0.085l-0.084-0.214v-0.429
		l0.084-0.215l0.215-0.085h2.171c0.607,0,1.074-0.195,1.404-0.585c0.329-0.39,0.507-0.94,0.533-1.651
		c0.009-0.087,0.013-0.238,0.013-0.455c0-0.208-0.004-0.355-0.013-0.442c-0.018-0.711-0.193-1.261-0.526-1.651
		c-0.334-0.39-0.804-0.585-1.41-0.585h-1.599v1.04c0,0.347,0.039,0.62,0.117,0.819c0.078,0.199,0.212,0.325,0.403,0.377l0.494,0.13
		l0.163,0.136c0.039,0.074,0.058,0.163,0.058,0.267v0.299c0,0.096-0.048,0.165-0.143,0.208c-0.068,0.031-0.14,0.046-0.217,0.046
		c-0.031,0-0.063-0.003-0.095-0.008l-0.507-0.104c-0.867-0.19-1.3-0.927-1.3-2.21v-1.729c0-0.095,0.028-0.169,0.085-0.221
		l0.215-0.078h2.392c0.953,0,1.677,0.277,2.171,0.832c0.494,0.555,0.758,1.348,0.793,2.379c0.009,0.087,0.013,0.251,0.013,0.494
		c0,0.251-0.004,0.421-0.013,0.507c-0.035,1.031-0.299,1.824-0.793,2.379C282.45,90.1,281.726,90.377,280.773,90.377
		 M266.707,90.377h-2.236l-0.214-0.085l-0.085-0.214v-0.429l0.085-0.215l0.214-0.085h2.171c0.606,0,1.075-0.195,1.404-0.585
		c0.329-0.39,0.507-0.94,0.533-1.651c0.009-0.087,0.013-0.238,0.013-0.455c0-0.208-0.004-0.355-0.013-0.442
		c-0.017-0.711-0.193-1.261-0.527-1.651c-0.334-0.39-0.804-0.585-1.41-0.585h-1.599v1.04c0,0.347,0.039,0.62,0.117,0.819
		c0.078,0.199,0.212,0.325,0.403,0.377l0.494,0.13l0.163,0.136c0.039,0.074,0.059,0.163,0.059,0.267v0.299
		c0,0.096-0.048,0.165-0.143,0.208c-0.068,0.031-0.141,0.046-0.217,0.046c-0.031,0-0.063-0.003-0.095-0.008l-0.507-0.104
		c-0.867-0.19-1.3-0.927-1.3-2.21v-1.729c0-0.095,0.028-0.169,0.085-0.221l0.214-0.078h2.392c0.953,0,1.677,0.277,2.171,0.832
		c0.494,0.555,0.758,1.348,0.793,2.379c0.009,0.087,0.013,0.251,0.013,0.494c0,0.251-0.005,0.421-0.013,0.507
		c-0.035,1.031-0.299,1.824-0.793,2.379C268.384,90.1,267.66,90.377,266.707,90.377 M252.329,90.377h-0.585
		c-0.113,0-0.2-0.033-0.26-0.098l-0.104-0.11l-2.964-4.173c-0.373,0.269-0.626,0.587-0.761,0.956
		c-0.134,0.369-0.201,0.773-0.201,1.216v1.911l-0.085,0.214l-0.214,0.085h-0.481l-0.214-0.085l-0.085-0.214v-1.963
		c0-0.641,0.098-1.2,0.293-1.677c0.195-0.476,0.578-0.905,1.15-1.287l-1.209-1.69c-0.061-0.095-0.091-0.178-0.091-0.247l0.078-0.182
		l0.182-0.078h0.572c0.138,0,0.26,0.074,0.364,0.221l2.73,3.809c0.312-0.182,0.539-0.373,0.682-0.572
		c0.143-0.199,0.232-0.396,0.267-0.592c0.035-0.195,0.052-0.449,0.052-0.76v-1.807l0.085-0.214l0.215-0.085h0.507l0.214,0.085
		l0.085,0.214v1.859c0,0.589-0.102,1.094-0.306,1.514c-0.204,0.421-0.613,0.813-1.229,1.177l1.482,2.067l0.091,0.247l-0.078,0.182
		L252.329,90.377 M243.307,90.377h-0.546l-0.208-0.078l-0.078-0.208v-4.667c0-0.355,0.03-0.659,0.091-0.91
		c0.061-0.251,0.143-0.438,0.247-0.559h-3.588l-0.214-0.078l-0.085-0.208v-0.416l0.085-0.214l0.214-0.085h5.564
		c0.095,0,0.169,0.026,0.221,0.078c0.052,0.052,0.078,0.126,0.078,0.221v0.416l-0.085,0.208l-0.214,0.078h-0.767
		c-0.121,0.13-0.219,0.334-0.293,0.611c-0.074,0.277-0.11,0.59-0.11,0.936v4.589l-0.091,0.208L243.307,90.377 M237.145,90.377
		h-0.572l-0.214-0.085l-0.085-0.214v-6.825c0-0.095,0.028-0.169,0.085-0.221l0.214-0.078h0.572l0.215,0.085l0.085,0.214v6.825
		l-0.085,0.214L237.145,90.377 M234.025,90.377h-5.447l-0.215-0.085l-0.085-0.214v-6.825c0-0.095,0.028-0.169,0.085-0.221
		l0.215-0.078h2.457c1.109,0,1.935,0.264,2.477,0.793c0.542,0.529,0.813,1.322,0.813,2.379v3.952l-0.085,0.214L234.025,90.377
		 M229.358,83.955v5.408h3.848v-3.172c0-1.491-0.745-2.236-2.236-2.236H229.358"/>
	<path fill="#000000" d="M272.102,107.407l-0.163-0.065l-0.072-0.182v-0.572c0-0.156,0.095-0.273,0.286-0.351l0.507-0.195
		c0.598-0.225,1.057-0.55,1.378-0.975c0.321-0.425,0.481-1.049,0.481-1.872c0-0.58-0.07-1.038-0.208-1.371
		c-0.139-0.334-0.366-0.574-0.682-0.722c-0.316-0.147-0.752-0.221-1.307-0.221h-0.403h-0.039l-1.196-0.013l-0.215-0.078
		l-0.085-0.208v-2.236l0.085-0.214l0.215-0.085h0.52l0.208,0.085l0.078,0.214v1.508h1.001c0.789,0,1.415,0.113,1.879,0.338
		c0.464,0.226,0.8,0.585,1.008,1.079c0.208,0.494,0.312,1.153,0.312,1.976c0,1.109-0.273,1.974-0.819,2.593
		c-0.546,0.62-1.257,1.077-2.132,1.372l-0.546,0.182L272.102,107.407 M283.23,107.277h-3.354l-0.208-0.085l-0.078-0.214v-0.416
		l0.078-0.215l0.208-0.084h2.509v-3.159c0-0.659-0.167-1.194-0.501-1.605c-0.334-0.412-0.756-0.617-1.267-0.617h-1.378l-1.001,6.084
		l-0.111,0.221l-0.214,0.091h-0.546l-0.201-0.091l-0.058-0.221l1.04-6.084h-0.663l-0.215-0.085l-0.084-0.214v-0.429l0.084-0.214
		l0.215-0.085h3.263c0.537,0,1.016,0.128,1.437,0.384c0.42,0.256,0.75,0.622,0.988,1.099c0.238,0.477,0.357,1.04,0.357,1.69v3.952
		l-0.085,0.214L283.23,107.277 M266.031,107.277h-2.236l-0.214-0.085l-0.085-0.214v-0.429l0.085-0.215l0.214-0.085h2.171
		c0.607,0,1.075-0.195,1.404-0.585c0.329-0.39,0.507-0.94,0.533-1.651c0.009-0.087,0.013-0.238,0.013-0.455
		c0-0.208-0.005-0.355-0.013-0.442c-0.017-0.71-0.193-1.261-0.527-1.651c-0.334-0.39-0.804-0.585-1.41-0.585h-1.599v1.04
		c0,0.347,0.039,0.62,0.117,0.819c0.078,0.199,0.212,0.325,0.403,0.377l0.494,0.13l0.163,0.136c0.039,0.074,0.058,0.163,0.058,0.267
		v0.299c0,0.096-0.048,0.165-0.143,0.208c-0.068,0.031-0.14,0.046-0.217,0.046c-0.031,0-0.063-0.003-0.095-0.008l-0.507-0.104
		c-0.867-0.19-1.3-0.927-1.3-2.21v-1.729c0-0.095,0.028-0.169,0.085-0.221l0.214-0.078h2.392c0.953,0,1.677,0.278,2.171,0.832
		c0.494,0.555,0.758,1.348,0.793,2.379c0.008,0.087,0.013,0.251,0.013,0.494c0,0.251-0.005,0.421-0.013,0.507
		c-0.035,1.031-0.299,1.824-0.793,2.379C267.708,107,266.984,107.277,266.031,107.277 M258.634,107.277h-2.236l-0.215-0.085
		l-0.085-0.214v-0.429l0.085-0.215l0.215-0.085h2.171c0.607,0,1.075-0.195,1.404-0.585c0.329-0.39,0.507-0.94,0.533-1.651
		c0.008-0.087,0.013-0.238,0.013-0.455c0-0.208-0.005-0.355-0.013-0.442c-0.018-0.71-0.193-1.261-0.526-1.651
		c-0.334-0.39-0.804-0.585-1.411-0.585h-1.599v1.04c0,0.347,0.039,0.62,0.117,0.819c0.078,0.199,0.212,0.325,0.403,0.377l0.494,0.13
		l0.163,0.136c0.039,0.074,0.058,0.163,0.058,0.267v0.299c0,0.096-0.048,0.165-0.143,0.208c-0.068,0.031-0.14,0.046-0.217,0.046
		c-0.031,0-0.063-0.003-0.095-0.008l-0.507-0.104c-0.867-0.19-1.3-0.927-1.3-2.21v-1.729c0-0.095,0.028-0.169,0.085-0.221
		l0.215-0.078h2.392c0.953,0,1.677,0.278,2.171,0.832c0.494,0.555,0.758,1.348,0.793,2.379c0.009,0.087,0.013,0.251,0.013,0.494
		c0,0.251-0.004,0.421-0.013,0.507c-0.035,1.031-0.299,1.824-0.793,2.379C260.311,107,259.587,107.277,258.634,107.277
		 M253.629,107.277h-0.572l-0.214-0.085l-0.085-0.214v-6.825c0-0.095,0.028-0.169,0.085-0.221l0.214-0.078h0.572l0.215,0.085
		l0.084,0.214v6.825l-0.084,0.214L253.629,107.277 M250.821,107.277h-3.471l-0.215-0.085l-0.085-0.214v-0.416l0.085-0.215
		l0.215-0.084h2.561l-0.208-3.302c-0.043-0.563-0.089-0.977-0.137-1.242c-0.048-0.264-0.154-0.479-0.318-0.643
		c-0.165-0.165-0.42-0.247-0.767-0.247h-0.533l-0.214-0.078l-0.085-0.208v-0.416l0.085-0.214l0.214-0.085h0.533
		c0.624,0,1.103,0.123,1.436,0.371c0.334,0.247,0.563,0.587,0.689,1.021c0.125,0.433,0.21,1.001,0.253,1.703l0.247,4.056v0.039
		l-0.084,0.188L250.821,107.277 M242.229,107.277h-5.447l-0.215-0.085l-0.084-0.214v-6.825c0-0.095,0.028-0.169,0.084-0.221
		l0.215-0.078h2.457c1.109,0,1.935,0.264,2.476,0.793c0.541,0.529,0.813,1.322,0.813,2.379v3.952l-0.085,0.214L242.229,107.277
		 M237.562,100.855v5.408h3.848v-3.172c0-1.491-0.745-2.236-2.236-2.236H237.562 M231.036,107.277h-0.546l-0.215-0.085l-0.084-0.214
		v-3.887c0-1.491-0.745-2.236-2.236-2.236h-1.586v6.123l-0.085,0.214l-0.214,0.085h-0.546l-0.215-0.085l-0.084-0.214v-6.825
		c0-0.095,0.028-0.169,0.084-0.221l0.215-0.078h2.496c1.118,0,1.95,0.267,2.496,0.8c0.546,0.533,0.819,1.332,0.819,2.398v3.926
		l-0.085,0.214L231.036,107.277 M222.976,107.277h-3.354l-0.208-0.085l-0.078-0.214v-0.416l0.078-0.215l0.208-0.084h2.509v-3.159
		c0-0.659-0.167-1.194-0.5-1.605c-0.334-0.412-0.756-0.617-1.267-0.617h-1.378l-1.001,6.084l-0.11,0.221l-0.215,0.091h-0.546
		l-0.202-0.091l-0.058-0.221l1.04-6.084h-0.663l-0.214-0.085l-0.085-0.214v-0.429l0.085-0.214l0.214-0.085h3.263
		c0.537,0,1.016,0.128,1.437,0.384c0.42,0.256,0.75,0.622,0.988,1.099c0.238,0.477,0.358,1.04,0.358,1.69v3.952l-0.085,0.214
		L222.976,107.277 M214.838,107.277h-0.572l-0.214-0.085l-0.085-0.214v-6.825c0-0.095,0.028-0.169,0.085-0.221l0.214-0.078h0.572
		l0.215,0.085l0.084,0.214v6.825l-0.084,0.214L214.838,107.277 M211.757,107.277h-4.68l-0.215-0.085l-0.084-0.214v-0.429
		l0.084-0.208l0.215-0.078h3.536l-4.069-5.902c-0.069-0.113-0.104-0.195-0.104-0.247l0.085-0.182l0.201-0.078h0.572
		c0.139,0,0.255,0.07,0.351,0.208l2.327,3.354c0.737-0.346,1.105-1.057,1.105-2.132v-1.131c0-0.095,0.028-0.169,0.085-0.221
		l0.214-0.078h0.507l0.214,0.085l0.085,0.214v1.274c0,0.668-0.139,1.239-0.416,1.716c-0.277,0.477-0.685,0.841-1.222,1.092
		l1.352,1.95c0.104,0.13,0.156,0.26,0.156,0.39v0.403l-0.085,0.214L211.757,107.277 M201.813,107.277h-5.447l-0.215-0.085
		l-0.084-0.214v-6.825c0-0.095,0.028-0.169,0.084-0.221l0.215-0.078h2.457c1.109,0,1.935,0.264,2.476,0.793
		c0.542,0.529,0.813,1.322,0.813,2.379v3.952l-0.085,0.214L201.813,107.277 M197.145,100.855v5.408h3.848v-3.172
		c0-1.491-0.745-2.236-2.236-2.236H197.145 M245.257,104.261h-0.572l-0.214-0.084l-0.085-0.215v-3.809
		c0-0.095,0.028-0.169,0.085-0.221l0.214-0.078h0.572l0.215,0.085l0.085,0.214v3.809l-0.085,0.215L245.257,104.261 M204.841,104.261
		h-0.572l-0.214-0.084l-0.085-0.215v-3.809c0-0.095,0.028-0.169,0.085-0.221l0.214-0.078h0.572l0.214,0.085l0.085,0.214v3.809
		l-0.085,0.215L204.841,104.261"/>
	<path fill="#000000" d="M280.201,124.257c-0.039,0-0.078,0-0.118-0.001h-0.962c-0.563,0-1.07-0.13-1.521-0.39
		c-0.451-0.26-0.804-0.626-1.06-1.099c-0.256-0.472-0.384-1.016-0.384-1.632v-4.082c0-0.095,0.028-0.169,0.085-0.221l0.215-0.078
		h0.507l0.214,0.085l0.085,0.215l0.039,3.692c0.789-0.061,1.337-0.273,1.645-0.637c0.308-0.364,0.462-0.841,0.462-1.43v-1.625
		l0.085-0.215l0.214-0.085h0.507l0.215,0.085l0.085,0.215v1.677c0,0.832-0.264,1.517-0.793,2.054
		c-0.529,0.537-1.305,0.832-2.327,0.884c0.138,0.503,0.396,0.89,0.773,1.163c0.377,0.273,0.83,0.41,1.359,0.41h0.416
		c0.015,0,0.029,0,0.043,0c0.802,0,1.429-0.238,1.881-0.715c0.459-0.485,0.689-1.131,0.689-1.937v-3.536l0.084-0.215l0.215-0.085
		h0.507l0.214,0.085l0.085,0.215v3.614c0,0.728-0.15,1.367-0.449,1.918c-0.299,0.55-0.719,0.971-1.261,1.261
		C281.438,124.12,280.855,124.257,280.201,124.257 M274.039,124.177h-3.354l-0.208-0.085l-0.078-0.214v-0.416l0.078-0.215
		l0.208-0.084h2.509v-3.159c0-0.659-0.167-1.194-0.501-1.605c-0.334-0.411-0.756-0.617-1.267-0.617h-1.378l-1.001,6.084
		l-0.111,0.221l-0.214,0.091h-0.546l-0.201-0.091l-0.058-0.221l1.04-6.084h-0.663l-0.215-0.085l-0.084-0.214v-0.429l0.084-0.215
		l0.215-0.085h3.263c0.537,0,1.016,0.128,1.437,0.384c0.42,0.256,0.75,0.622,0.988,1.099c0.238,0.477,0.357,1.04,0.357,1.69v3.952
		l-0.085,0.214L274.039,124.177 M262.963,124.177h-0.546l-0.215-0.085l-0.085-0.214v-3.887c0-1.491-0.745-2.236-2.236-2.236h-1.677
		l-0.214-0.078l-0.085-0.208v-0.416l0.085-0.215l0.214-0.085h1.755c2.201,0,3.302,1.058,3.302,3.172v3.952l-0.085,0.214
		L262.963,124.177 M265.992,121.161h-0.572l-0.215-0.084l-0.085-0.215v-3.809c0-0.095,0.028-0.169,0.085-0.221l0.215-0.078h0.572
		l0.214,0.085l0.085,0.215v3.809l-0.085,0.215L265.992,121.161"/>
	<path fill="#000000" d="M283.23,141.077h-3.354l-0.208-0.085l-0.078-0.214v-0.416l0.078-0.215l0.208-0.084h2.509v-3.159
		c0-0.659-0.167-1.194-0.501-1.605c-0.334-0.411-0.756-0.617-1.267-0.617h-1.378l-1.001,6.084l-0.111,0.221l-0.214,0.091h-0.546
		l-0.201-0.091l-0.058-0.221l1.04-6.084h-0.663l-0.215-0.085l-0.084-0.214v-0.429l0.084-0.215l0.215-0.085h3.263
		c0.537,0,1.016,0.128,1.437,0.384c0.42,0.256,0.75,0.622,0.988,1.099c0.238,0.477,0.357,1.04,0.357,1.69v3.952l-0.085,0.214
		L283.23,141.077 M272.089,141.077h-0.572l-0.215-0.085l-0.085-0.214v-6.825c0-0.095,0.028-0.169,0.085-0.221l0.215-0.078h0.572
		l0.214,0.085l0.085,0.215v6.825l-0.085,0.214L272.089,141.077 M269.281,141.077h-3.471l-0.215-0.085l-0.084-0.214v-0.416
		l0.084-0.215l0.215-0.084h2.561l-0.208-3.302c-0.043-0.563-0.089-0.977-0.136-1.242c-0.048-0.264-0.154-0.479-0.318-0.643
		c-0.165-0.165-0.42-0.247-0.767-0.247h-0.533l-0.214-0.078l-0.085-0.208v-0.416l0.085-0.214l0.214-0.085h0.533
		c0.624,0,1.103,0.123,1.437,0.371c0.333,0.247,0.563,0.587,0.689,1.021c0.126,0.433,0.21,1.001,0.254,1.703l0.247,4.056v0.039
		l-0.085,0.188L269.281,141.077 M262.443,141.077h-0.546l-0.208-0.078l-0.078-0.208v-4.667c0-0.355,0.03-0.659,0.091-0.91
		c0.061-0.251,0.143-0.437,0.247-0.559h-1.144l-0.215-0.078l-0.084-0.208v-0.416l0.084-0.215l0.215-0.085h3.12l0.214,0.085
		l0.085,0.215v0.416l-0.085,0.208l-0.214,0.078h-0.78c-0.121,0.13-0.219,0.334-0.293,0.611c-0.074,0.277-0.111,0.59-0.111,0.936
		v4.589l-0.085,0.208L262.443,141.077 M275.183,138.061h-0.572l-0.215-0.084l-0.085-0.215v-3.809c0-0.095,0.028-0.169,0.085-0.221
		l0.215-0.078h0.572l0.214,0.085l0.085,0.215v3.809l-0.085,0.215L275.183,138.061"/>
	<path fill="#000000" d="M272.102,158.107l-0.163-0.065l-0.072-0.182v-0.572c0-0.156,0.095-0.273,0.286-0.351l0.507-0.195
		c0.598-0.225,1.057-0.55,1.378-0.975c0.321-0.425,0.481-1.048,0.481-1.872c0-0.581-0.07-1.038-0.208-1.372
		c-0.139-0.334-0.366-0.574-0.682-0.722c-0.316-0.147-0.752-0.221-1.307-0.221h-0.403h-0.039l-1.196-0.013l-0.215-0.078
		l-0.085-0.208v-2.236l0.085-0.214l0.215-0.085h0.52l0.208,0.085l0.078,0.214v1.508h1.001c0.789,0,1.415,0.113,1.879,0.338
		c0.464,0.226,0.8,0.585,1.008,1.079s0.312,1.153,0.312,1.976c0,1.109-0.273,1.974-0.819,2.594c-0.546,0.62-1.257,1.077-2.132,1.372
		l-0.546,0.182L272.102,158.107 M243.71,158.107l-0.162-0.065l-0.072-0.182v-0.572c0-0.156,0.095-0.273,0.286-0.351l0.507-0.195
		c0.598-0.225,1.057-0.55,1.378-0.975c0.321-0.425,0.481-1.048,0.481-1.872c0-0.581-0.07-1.038-0.208-1.372
		c-0.139-0.334-0.366-0.574-0.683-0.722c-0.316-0.147-0.752-0.221-1.306-0.221h-0.403h-0.039l-1.196-0.013l-0.214-0.078
		l-0.085-0.208v-2.236l0.085-0.214l0.214-0.085h0.52l0.208,0.085l0.078,0.214v1.508h1.001c0.789,0,1.415,0.113,1.879,0.338
		c0.464,0.226,0.8,0.585,1.008,1.079s0.312,1.153,0.312,1.976c0,1.109-0.273,1.974-0.819,2.594c-0.546,0.62-1.257,1.077-2.132,1.372
		l-0.546,0.182L243.71,158.107 M229.645,158.107l-0.163-0.065l-0.072-0.182v-0.572c0-0.156,0.095-0.273,0.286-0.351l0.507-0.195
		c0.598-0.225,1.057-0.55,1.378-0.975c0.321-0.425,0.481-1.048,0.481-1.872c0-0.581-0.07-1.038-0.208-1.372
		c-0.139-0.334-0.366-0.574-0.682-0.722c-0.316-0.147-0.752-0.221-1.307-0.221h-0.403h-0.039l-1.196-0.013l-0.215-0.078
		l-0.084-0.208v-2.236l0.084-0.214l0.215-0.085h0.52l0.208,0.085l0.078,0.214v1.508h1.001c0.789,0,1.415,0.113,1.879,0.338
		c0.464,0.226,0.8,0.585,1.008,1.079s0.312,1.153,0.312,1.976c0,1.109-0.273,1.974-0.819,2.594c-0.546,0.62-1.257,1.077-2.132,1.372
		l-0.546,0.182L229.645,158.107 M219.96,158.057c-0.039,0-0.078,0-0.118-0.001h-0.962c-0.564,0-1.071-0.13-1.521-0.39
		c-0.451-0.26-0.804-0.626-1.059-1.099c-0.256-0.472-0.384-1.016-0.384-1.632v-4.082c0-0.095,0.028-0.169,0.085-0.221l0.214-0.078
		h0.507l0.215,0.085l0.084,0.215l0.039,3.692c0.789-0.061,1.337-0.273,1.645-0.637c0.308-0.364,0.462-0.841,0.462-1.43v-1.625
		l0.084-0.215l0.215-0.085h0.507l0.214,0.085l0.085,0.215v1.677c0,0.832-0.264,1.517-0.793,2.054
		c-0.529,0.537-1.305,0.832-2.327,0.884c0.139,0.503,0.396,0.89,0.774,1.164c0.377,0.273,0.83,0.409,1.358,0.409h0.416
		c0.015,0,0.029,0,0.043,0c0.803,0,1.429-0.238,1.881-0.715c0.459-0.485,0.689-1.131,0.689-1.937v-3.536l0.085-0.215l0.214-0.085
		h0.507l0.215,0.085l0.084,0.215v3.614c0,0.728-0.149,1.367-0.448,1.917c-0.299,0.55-0.72,0.971-1.261,1.261
		C221.197,157.92,220.614,158.057,219.96,158.057 M283.23,157.977h-3.354l-0.208-0.085l-0.078-0.214v-0.416l0.078-0.215l0.208-0.084
		h2.509v-3.159c0-0.659-0.167-1.194-0.501-1.605c-0.334-0.411-0.756-0.617-1.267-0.617h-1.378l-1.001,6.084l-0.111,0.221
		l-0.214,0.091h-0.546l-0.201-0.091l-0.058-0.221l1.04-6.084h-0.663l-0.215-0.085l-0.084-0.214v-0.429l0.084-0.215l0.215-0.085
		h3.263c0.537,0,1.016,0.128,1.437,0.384c0.42,0.256,0.75,0.622,0.988,1.098c0.238,0.477,0.357,1.04,0.357,1.69v3.952l-0.085,0.214
		L283.23,157.977 M268.605,157.977h-0.546l-0.215-0.085l-0.084-0.214v-3.887c0-1.491-0.745-2.236-2.236-2.236h-1.586v6.123
		l-0.085,0.214l-0.214,0.085h-0.546l-0.215-0.085l-0.084-0.214v-6.825c0-0.095,0.028-0.169,0.084-0.221l0.215-0.078h2.496
		c1.118,0,1.95,0.267,2.496,0.8c0.546,0.533,0.819,1.333,0.819,2.398v3.926l-0.085,0.214L268.605,157.977 M257.282,157.977h-0.572
		l-0.215-0.085l-0.084-0.214v-6.825c0-0.095,0.028-0.169,0.084-0.221l0.215-0.078h0.572l0.214,0.085l0.085,0.215v6.825l-0.085,0.214
		L257.282,157.977 M251.705,157.977h-2.236l-0.214-0.085l-0.085-0.214v-0.429l0.085-0.215l0.214-0.084h2.171
		c0.606,0,1.074-0.195,1.404-0.585c0.329-0.39,0.507-0.94,0.533-1.651c0.009-0.087,0.013-0.238,0.013-0.455
		c0-0.208-0.004-0.355-0.013-0.442c-0.018-0.71-0.193-1.261-0.527-1.651c-0.334-0.39-0.804-0.585-1.41-0.585h-1.599v1.04
		c0,0.347,0.039,0.62,0.117,0.819c0.078,0.199,0.212,0.325,0.403,0.377l0.494,0.13l0.162,0.137c0.039,0.074,0.059,0.162,0.059,0.266
		v0.299c0,0.096-0.048,0.165-0.143,0.208c-0.068,0.031-0.141,0.047-0.218,0.047c-0.031,0-0.062-0.002-0.094-0.007l-0.507-0.104
		c-0.867-0.19-1.3-0.927-1.3-2.21v-1.729c0-0.095,0.028-0.169,0.084-0.221l0.215-0.078h2.392c0.953,0,1.677,0.278,2.171,0.832
		c0.494,0.555,0.758,1.348,0.793,2.379c0.009,0.087,0.013,0.251,0.013,0.494c0,0.251-0.004,0.42-0.013,0.507
		c-0.035,1.031-0.299,1.824-0.793,2.379C253.382,157.7,252.659,157.977,251.705,157.977 M237.639,157.977h-2.236l-0.214-0.085
		l-0.085-0.214v-0.429l0.085-0.215l0.214-0.084h2.171c0.607,0,1.075-0.195,1.404-0.585c0.329-0.39,0.507-0.94,0.533-1.651
		c0.009-0.087,0.013-0.238,0.013-0.455c0-0.208-0.004-0.355-0.013-0.442c-0.017-0.71-0.193-1.261-0.527-1.651
		c-0.334-0.39-0.804-0.585-1.41-0.585h-1.599v1.04c0,0.347,0.039,0.62,0.117,0.819c0.078,0.199,0.212,0.325,0.403,0.377l0.494,0.13
		l0.162,0.137c0.039,0.074,0.059,0.162,0.059,0.266v0.299c0,0.096-0.048,0.165-0.143,0.208c-0.068,0.031-0.141,0.047-0.218,0.047
		c-0.031,0-0.062-0.002-0.095-0.007l-0.507-0.104c-0.867-0.19-1.3-0.927-1.3-2.21v-1.729c0-0.095,0.028-0.169,0.085-0.221
		l0.214-0.078h2.392c0.953,0,1.677,0.278,2.171,0.832c0.494,0.555,0.758,1.348,0.793,2.379c0.008,0.087,0.013,0.251,0.013,0.494
		c0,0.251-0.005,0.42-0.013,0.507c-0.035,1.031-0.299,1.824-0.793,2.379C239.317,157.7,238.593,157.977,237.639,157.977
		 M213.798,157.977h-0.546l-0.215-0.085l-0.085-0.214v-3.887c0-1.491-0.745-2.236-2.236-2.236h-1.586v6.123l-0.085,0.214
		l-0.215,0.085h-0.546l-0.215-0.085l-0.084-0.214v-6.825c0-0.095,0.028-0.169,0.084-0.221l0.215-0.078h2.496
		c1.118,0,1.95,0.267,2.496,0.8c0.546,0.533,0.819,1.333,0.819,2.398v3.926l-0.085,0.214L213.798,157.977 M205.673,157.977h-0.572
		l-0.214-0.085l-0.085-0.214v-6.825c0-0.095,0.028-0.169,0.085-0.221l0.214-0.078h0.572l0.215,0.085l0.085,0.215v6.825l-0.085,0.214
		L205.673,157.977 M202.553,157.977h-0.546l-0.214-0.085l-0.085-0.214v-3.887c0-1.491-0.745-2.236-2.236-2.236h-1.677l-0.215-0.078
		l-0.084-0.208v-0.416l0.084-0.215l0.215-0.085h1.755c2.201,0,3.302,1.058,3.302,3.172v3.952l-0.085,0.214L202.553,157.977"/>
	<path fill="#000000" d="M283.243,191.777h-1.209l-0.221-0.091l-0.091-0.221v-6.708l-1.963,1.508l-0.195,0.065
		c-0.104,0-0.186-0.043-0.247-0.13l-0.559-0.728l-0.065-0.182c0-0.104,0.047-0.19,0.143-0.26l2.912-2.262
		c0.095-0.06,0.203-0.091,0.325-0.091h1.17l0.221,0.091l0.091,0.221v8.476l-0.091,0.221L283.243,191.777"/>
	<path fill="#000000" d="M184.973,191.907c-1.031,0-1.803-0.275-2.314-0.825c-0.512-0.55-0.767-1.354-0.767-2.411v-4.03l0.078-0.208
		l0.208-0.078h3.055c1.075,0,1.846,0.247,2.314,0.741c0.468,0.494,0.724,1.261,0.767,2.301c0.008,0.087,0.013,0.329,0.013,0.728
		c0,0.407-0.005,0.654-0.013,0.741c-0.026,1.031-0.304,1.796-0.832,2.295C186.953,191.658,186.117,191.907,184.973,191.907
		 M182.685,185.108v3.562c0,0.797,0.191,1.41,0.572,1.839c0.381,0.429,0.953,0.644,1.716,0.644c0.893,0,1.536-0.193,1.931-0.579
		c0.394-0.386,0.6-0.977,0.617-1.775c0.009-0.087,0.013-0.312,0.013-0.676c0-0.355-0.004-0.576-0.013-0.663
		c-0.017-0.763-0.238-1.346-0.663-1.749c-0.425-0.403-0.988-0.604-1.69-0.604H182.685 M158.934,191.907
		c-1.031,0-1.803-0.275-2.314-0.825c-0.512-0.55-0.767-1.354-0.767-2.411v-4.03l0.078-0.208l0.208-0.078h3.055
		c1.075,0,1.846,0.247,2.314,0.741c0.468,0.494,0.724,1.261,0.767,2.301c0.008,0.087,0.013,0.329,0.013,0.728
		c0,0.407-0.005,0.654-0.013,0.741c-0.026,1.031-0.304,1.796-0.832,2.295C160.914,191.658,160.078,191.907,158.934,191.907
		 M156.646,185.108v3.562c0,0.797,0.191,1.41,0.572,1.839c0.381,0.429,0.953,0.644,1.716,0.644c0.893,0,1.536-0.193,1.93-0.579
		c0.394-0.386,0.6-0.977,0.617-1.775c0.009-0.087,0.013-0.312,0.013-0.676c0-0.355-0.005-0.576-0.013-0.663
		c-0.017-0.763-0.238-1.346-0.663-1.749c-0.425-0.403-0.988-0.604-1.69-0.604H156.646 M263.232,191.894
		c-0.139,0-0.208-0.069-0.208-0.208v-0.325c0-0.147,0.091-0.255,0.273-0.325l0.533-0.208c0.667-0.26,1.176-0.619,1.527-1.079
		c0.351-0.459,0.527-1.144,0.527-2.054c0-0.65-0.078-1.161-0.234-1.534c-0.156-0.373-0.414-0.641-0.773-0.806
		c-0.36-0.165-0.852-0.247-1.475-0.247h-0.442h-0.039l-1.014-0.013l-0.208-0.071l-0.078-0.202v-1.989l0.078-0.208l0.208-0.078h0.221
		l0.208,0.078l0.078,0.208v1.521h1.053c0.806,0,1.441,0.11,1.904,0.331c0.464,0.221,0.797,0.579,1.001,1.073
		c0.204,0.494,0.306,1.17,0.306,2.028c0,1.118-0.253,1.972-0.76,2.561c-0.507,0.59-1.185,1.036-2.035,1.339l-0.546,0.195
		L263.232,191.894 M259.683,191.777h-0.221l-0.208-0.078l-0.078-0.208v-3.9c0-1.655-0.828-2.483-2.483-2.483h-2.236l-0.208-0.078
		l-0.078-0.208v-0.182l0.078-0.208l0.208-0.078h2.301c1.083,0,1.889,0.271,2.418,0.813c0.529,0.542,0.793,1.328,0.793,2.359v3.965
		l-0.078,0.208L259.683,191.777 M254.678,191.777h-0.221l-0.208-0.078l-0.078-0.208v-4.563l0.078-0.208l0.208-0.078h0.221
		l0.208,0.078l0.078,0.208v4.563l-0.078,0.208L254.678,191.777 M252.104,191.777h-3.224l-0.208-0.078l-0.078-0.208v-0.182
		l0.078-0.208l0.208-0.078h2.691l-0.247-3.562l-0.013-0.273c-0.035-0.52-0.078-0.914-0.13-1.183
		c-0.052-0.268-0.165-0.485-0.338-0.65c-0.174-0.165-0.438-0.247-0.793-0.247h-0.481l-0.208-0.078l-0.078-0.208v-0.182l0.078-0.208
		l0.208-0.078h0.481c0.581,0,1.012,0.126,1.294,0.377c0.282,0.251,0.468,0.577,0.559,0.975c0.091,0.399,0.163,0.962,0.215,1.69
		l0.273,4.095v0.039l-0.084,0.176L252.104,191.777 M243.901,191.777h-0.221l-0.208-0.078l-0.078-0.208v-3.9
		c0-1.655-0.828-2.483-2.483-2.483h-1.742v6.383l-0.078,0.208l-0.208,0.078h-0.221l-0.208-0.078l-0.078-0.208v-6.851l0.078-0.208
		l0.208-0.078h2.314c1.083,0,1.889,0.271,2.418,0.813c0.529,0.542,0.793,1.328,0.793,2.359v3.965l-0.078,0.208L243.901,191.777
		 M232.942,191.777h-0.247l-0.176-0.045l-0.15-0.15l-3.211-4.472c-0.425,0.304-0.713,0.655-0.865,1.053
		c-0.152,0.399-0.227,0.841-0.227,1.326v2.002l-0.078,0.208l-0.208,0.078h-0.221l-0.208-0.078l-0.078-0.208v-2.067
		c0-0.615,0.098-1.164,0.293-1.645c0.195-0.481,0.579-0.908,1.151-1.28l-1.157-1.625c-0.069-0.104-0.104-0.19-0.104-0.26
		l0.078-0.182l0.182-0.078h0.247c0.121,0,0.23,0.065,0.325,0.195l2.938,4.095c0.364-0.199,0.628-0.405,0.793-0.617
		c0.165-0.212,0.267-0.427,0.306-0.644c0.039-0.216,0.058-0.507,0.058-0.871v-1.872l0.078-0.208l0.208-0.078h0.221l0.208,0.078
		l0.078,0.208v1.937c0,0.399-0.035,0.743-0.104,1.033c-0.069,0.29-0.214,0.572-0.435,0.845c-0.221,0.273-0.548,0.535-0.982,0.787
		l1.443,2.015c0.069,0.104,0.104,0.191,0.104,0.26l-0.078,0.182L232.942,191.777 M225.246,191.777h-0.221l-0.208-0.078l-0.078-0.208
		v-3.9c0-1.655-0.828-2.483-2.483-2.483h-0.988c-0.087,0.624-0.15,1.127-0.189,1.508c-0.039,0.381-0.054,0.815-0.045,1.3v3.575
		l-0.078,0.208l-0.208,0.078l-1.482-0.026l-0.208-0.078l-0.078-0.208v-0.182l0.078-0.208l0.208-0.078l0.975,0.013v-3.029v-0.403
		c0-0.476,0.017-0.895,0.052-1.254c0.035-0.36,0.1-0.765,0.195-1.216h-0.663l-0.208-0.078l-0.078-0.208v-0.182l0.078-0.208
		l0.208-0.078h2.496c1.083,0,1.889,0.271,2.418,0.813c0.529,0.542,0.793,1.328,0.793,2.359v3.965l-0.078,0.208L225.246,191.777
		 M213.586,191.777h-0.221l-0.208-0.078l-0.078-0.208v-3.9c0-1.655-0.828-2.483-2.483-2.483h-2.236l-0.208-0.078l-0.078-0.208
		v-0.182l0.078-0.208l0.208-0.078h2.301c1.083,0,1.889,0.271,2.418,0.813c0.529,0.542,0.793,1.328,0.793,2.359v3.965l-0.078,0.208
		L213.586,191.777 M208.581,191.777h-0.221l-0.208-0.078l-0.078-0.208v-4.563l0.078-0.208l0.208-0.078h0.221l0.208,0.078
		l0.078,0.208v4.563l-0.078,0.208L208.581,191.777 M205.682,191.777h-0.221l-0.208-0.078l-0.078-0.208v-3.9
		c0-1.655-0.828-2.483-2.483-2.483h-0.988c-0.087,0.624-0.149,1.127-0.188,1.508c-0.039,0.381-0.054,0.815-0.045,1.3v3.575
		l-0.078,0.208l-0.208,0.078l-1.482-0.026l-0.208-0.078l-0.078-0.208v-0.182l0.078-0.208l0.208-0.078l0.975,0.013v-3.029v-0.403
		c0-0.476,0.017-0.895,0.052-1.254c0.035-0.36,0.1-0.765,0.195-1.216h-0.663l-0.208-0.078l-0.078-0.208v-0.182l0.078-0.208
		l0.208-0.078h2.496c1.083,0,1.889,0.271,2.418,0.813c0.529,0.542,0.793,1.328,0.793,2.359v3.965l-0.078,0.208L205.682,191.777
		 M194.606,191.777h-0.221l-0.208-0.078l-0.078-0.208v-3.9c0-1.655-0.828-2.483-2.483-2.483h-1.586l-0.208-0.078l-0.078-0.208
		v-0.182l0.078-0.208l0.208-0.078h1.651c1.083,0,1.889,0.271,2.418,0.813c0.529,0.542,0.793,1.328,0.793,2.359v3.965l-0.078,0.208
		L194.606,191.777 M177.069,191.777h-5.2l-0.208-0.078l-0.078-0.208v-0.182l0.078-0.208l0.208-0.078h3.913v-3.432
		c0-1.655-0.828-2.483-2.483-2.483h-1.3l-0.208-0.078l-0.078-0.208v-0.182l0.078-0.208l0.208-0.078h1.365
		c1.083,0,1.889,0.273,2.418,0.819c0.529,0.546,0.793,1.33,0.793,2.353v3.497h0.494l0.208,0.078l0.078,0.208v0.182l-0.078,0.208
		L177.069,191.777 M169.529,191.777h-3.289l-0.208-0.078l-0.078-0.208v-0.182l0.078-0.208l0.208-0.078h2.782v-3.432
		c0-0.476-0.084-0.905-0.253-1.287c-0.169-0.381-0.403-0.676-0.702-0.884c-0.299-0.208-0.635-0.312-1.007-0.312h-1.508l-0.962,6.37
		l-0.11,0.215l-0.215,0.084h-0.234l-0.182-0.084l-0.052-0.215l0.949-6.37h-0.585l-0.208-0.078l-0.078-0.208v-0.182l0.078-0.208
		l0.208-0.078h2.964c0.52,0,0.983,0.13,1.391,0.39c0.407,0.26,0.726,0.631,0.956,1.111c0.23,0.481,0.345,1.038,0.345,1.671v3.965
		l-0.078,0.208L169.529,191.777 M153.864,191.777h-3.224l-0.208-0.078l-0.078-0.208v-0.182l0.078-0.208l0.208-0.078h2.691
		l-0.247-3.562l-0.013-0.273c-0.035-0.52-0.078-0.914-0.13-1.183c-0.052-0.268-0.165-0.485-0.338-0.65
		c-0.174-0.165-0.438-0.247-0.793-0.247h-0.481l-0.208-0.078l-0.078-0.208v-0.182l0.078-0.208l0.208-0.078h0.481
		c0.581,0,1.012,0.126,1.294,0.377c0.281,0.251,0.468,0.577,0.559,0.975c0.091,0.399,0.162,0.962,0.214,1.69l0.273,4.095v0.039
		l-0.085,0.176L153.864,191.777 M148.755,191.777h-3.224l-0.208-0.078l-0.078-0.208v-0.182l0.078-0.208l0.208-0.078h2.691
		l-0.247-3.562l-0.013-0.273c-0.035-0.52-0.078-0.914-0.13-1.183c-0.052-0.268-0.165-0.485-0.338-0.65
		c-0.173-0.165-0.438-0.247-0.793-0.247h-0.481l-0.208-0.078l-0.078-0.208v-0.182l0.078-0.208l0.208-0.078h0.481
		c0.581,0,1.012,0.126,1.294,0.377c0.281,0.251,0.468,0.577,0.559,0.975c0.091,0.399,0.162,0.962,0.214,1.69l0.273,4.095v0.039
		l-0.085,0.176L148.755,191.777 M143.321,191.777H143.1l-0.208-0.078l-0.078-0.208v-3.9c0-1.655-0.828-2.483-2.483-2.483h-0.988
		c-0.087,0.624-0.149,1.127-0.188,1.508c-0.039,0.381-0.054,0.815-0.045,1.3v3.575l-0.078,0.208l-0.208,0.078l-1.482-0.026
		l-0.208-0.078l-0.078-0.208v-0.182l0.078-0.208l0.208-0.078l0.975,0.013v-3.029v-0.403c0-0.476,0.017-0.895,0.052-1.254
		c0.035-0.36,0.1-0.765,0.195-1.216H137.9l-0.208-0.078l-0.078-0.208v-0.182l0.078-0.208l0.208-0.078h2.496
		c1.083,0,1.889,0.271,2.418,0.813c0.529,0.542,0.793,1.328,0.793,2.359v3.965l-0.078,0.208L143.321,191.777 M246.696,188.787
		h-0.221l-0.208-0.078l-0.078-0.208v-3.861l0.078-0.208l0.208-0.078h0.221l0.208,0.078l0.078,0.208v3.861l-0.078,0.208
		L246.696,188.787 M197.401,188.787h-0.221l-0.208-0.078l-0.078-0.208v-3.861l0.078-0.208l0.208-0.078h0.221l0.208,0.078
		l0.078,0.208v3.861l-0.078,0.208L197.401,188.787"/>
	<path fill="#000000" d="M283.529,214.346h-6.227l-0.221-0.091l-0.091-0.221v-0.676c0-0.243,0.108-0.446,0.325-0.611l2.028-2.015
		c0.615-0.485,1.09-0.882,1.424-1.189c0.333-0.308,0.583-0.592,0.747-0.852c0.165-0.26,0.247-0.516,0.247-0.767
		c0-0.407-0.108-0.728-0.325-0.962c-0.217-0.234-0.546-0.351-0.988-0.351c-0.434,0-0.774,0.128-1.021,0.384
		c-0.247,0.256-0.401,0.587-0.461,0.994c-0.026,0.104-0.076,0.18-0.15,0.228l-0.241,0.072h-1.17l-0.195-0.078l-0.078-0.195
		c0.017-0.511,0.158-0.99,0.423-1.437c0.264-0.446,0.643-0.806,1.137-1.079c0.494-0.273,1.075-0.41,1.742-0.41
		c0.693,0,1.282,0.119,1.768,0.358c0.485,0.239,0.849,0.566,1.092,0.981c0.243,0.416,0.364,0.888,0.364,1.417
		c0,0.581-0.163,1.107-0.487,1.58c-0.325,0.472-0.83,0.977-1.515,1.515l-1.807,1.833h3.679c0.095,0,0.173,0.031,0.234,0.091
		c0.06,0.061,0.091,0.139,0.091,0.234v0.936c0,0.095-0.03,0.171-0.091,0.227C283.702,214.318,283.624,214.346,283.529,214.346"/>
	<path fill="#000000" d="M254.379,216.829h-0.221l-0.208-0.078l-0.078-0.208v-7.046l0.078-0.208l0.208-0.078h0.221l0.208,0.078
		l0.078,0.208v7.046l-0.078,0.208L254.379,216.829 M244.317,215.958h-0.273c-0.13,0-0.23-0.065-0.299-0.195l-3.289-8.32
		c-0.052-0.13-0.078-0.217-0.078-0.26l0.078-0.182l0.182-0.078h0.234l0.208,0.072c0.052,0.048,0.1,0.128,0.143,0.241l1.469,3.705
		c1.404-0.121,2.106-0.945,2.106-2.47v-1.261l0.078-0.208l0.208-0.078h0.221l0.208,0.078l0.078,0.208v1.326
		c0,0.901-0.221,1.621-0.663,2.158c-0.442,0.537-1.088,0.863-1.937,0.975l1.508,3.77c0.052,0.13,0.078,0.217,0.078,0.26
		l-0.078,0.182L244.317,215.958 M180.813,215.321h-0.221l-0.156-0.078l-0.026-0.195l0.247-1.56c0.026-0.234,0.134-0.351,0.325-0.351
		h0.585l0.143,0.065l0.052,0.143l-0.052,0.234l-0.559,1.469c-0.043,0.095-0.089,0.165-0.136,0.208L180.813,215.321 M71.381,215.321
		H71.16l-0.156-0.078l-0.026-0.195l0.247-1.56c0.026-0.234,0.134-0.351,0.325-0.351h0.585l0.143,0.065l0.052,0.143l-0.052,0.234
		l-0.559,1.469c-0.043,0.095-0.089,0.165-0.137,0.208L71.381,215.321 M263.232,214.463c-0.139,0-0.208-0.07-0.208-0.208v-0.325
		c0-0.147,0.091-0.255,0.273-0.325l0.533-0.208c0.667-0.26,1.176-0.619,1.527-1.079c0.351-0.459,0.527-1.144,0.527-2.054
		c0-0.65-0.078-1.161-0.234-1.534c-0.156-0.373-0.414-0.641-0.773-0.806c-0.36-0.165-0.852-0.247-1.475-0.247h-0.442h-0.039
		l-1.014-0.013l-0.208-0.072l-0.078-0.201v-1.989l0.078-0.208l0.208-0.078h0.221l0.208,0.078l0.078,0.208v1.521h1.053
		c0.806,0,1.441,0.11,1.904,0.331c0.464,0.221,0.797,0.579,1.001,1.073c0.204,0.494,0.306,1.17,0.306,2.028
		c0,1.118-0.253,1.972-0.76,2.561c-0.507,0.589-1.185,1.036-2.035,1.339l-0.546,0.195L263.232,214.463 M256.303,214.463
		c-0.139,0-0.208-0.07-0.208-0.208v-0.325c0-0.147,0.091-0.255,0.273-0.325l0.533-0.208c0.667-0.26,1.177-0.619,1.527-1.079
		c0.351-0.459,0.527-1.144,0.527-2.054c0-0.65-0.078-1.161-0.234-1.534c-0.156-0.373-0.414-0.641-0.773-0.806
		c-0.36-0.165-0.852-0.247-1.476-0.247h-2.314l-0.208-0.078l-0.078-0.208v-0.182l0.078-0.208l0.208-0.078h2.379
		c0.806,0,1.441,0.11,1.905,0.331c0.464,0.221,0.797,0.579,1.001,1.073c0.203,0.494,0.306,1.17,0.306,2.028
		c0,1.118-0.254,1.972-0.761,2.561c-0.507,0.589-1.185,1.036-2.034,1.339l-0.546,0.195L256.303,214.463 M198.441,214.463
		c-0.139,0-0.208-0.07-0.208-0.208v-0.325c0-0.147,0.091-0.255,0.273-0.325l0.533-0.208c0.667-0.26,1.176-0.619,1.527-1.079
		c0.351-0.459,0.527-1.144,0.527-2.054c0-0.65-0.078-1.161-0.234-1.534c-0.156-0.373-0.414-0.641-0.774-0.806
		c-0.36-0.165-0.851-0.247-1.475-0.247h-0.442h-0.039l-1.014-0.013l-0.208-0.072l-0.078-0.201v-1.989l0.078-0.208l0.208-0.078h0.221
		l0.208,0.078l0.078,0.208v1.521h1.053c0.806,0,1.441,0.11,1.904,0.331c0.464,0.221,0.797,0.579,1.001,1.073
		c0.204,0.494,0.306,1.17,0.306,2.028c0,1.118-0.253,1.972-0.76,2.561c-0.507,0.589-1.185,1.036-2.034,1.339l-0.546,0.195
		L198.441,214.463 M184.518,214.463c-0.139,0-0.208-0.07-0.208-0.208v-0.325c0-0.147,0.091-0.255,0.273-0.325l0.533-0.208
		c0.667-0.26,1.176-0.619,1.527-1.079c0.351-0.459,0.527-1.144,0.527-2.054c0-0.65-0.078-1.161-0.234-1.534
		c-0.156-0.373-0.414-0.641-0.773-0.806c-0.36-0.165-0.851-0.247-1.475-0.247h-0.442h-0.039l-1.014-0.013l-0.208-0.072l-0.078-0.201
		v-1.989l0.078-0.208l0.208-0.078h0.221l0.208,0.078l0.078,0.208v1.521h1.053c0.806,0,1.441,0.11,1.904,0.331
		c0.464,0.221,0.797,0.579,1.001,1.073c0.204,0.494,0.306,1.17,0.306,2.028c0,1.118-0.253,1.972-0.76,2.561
		c-0.507,0.589-1.185,1.036-2.034,1.339l-0.546,0.195L184.518,214.463 M156.347,214.463c-0.139,0-0.208-0.07-0.208-0.208v-0.325
		c0-0.147,0.091-0.255,0.273-0.325l0.533-0.208c0.667-0.26,1.176-0.619,1.527-1.079c0.351-0.459,0.527-1.144,0.527-2.054
		c0-0.65-0.078-1.161-0.234-1.534c-0.156-0.373-0.414-0.641-0.774-0.806c-0.36-0.165-0.851-0.247-1.475-0.247h-0.442h-0.039
		l-1.014-0.013l-0.208-0.072l-0.078-0.201v-1.989l0.078-0.208l0.208-0.078h0.221l0.208,0.078l0.078,0.208v1.521h1.053
		c0.806,0,1.441,0.11,1.904,0.331c0.464,0.221,0.797,0.579,1.001,1.073c0.204,0.494,0.306,1.17,0.306,2.028
		c0,1.118-0.253,1.972-0.76,2.561c-0.507,0.589-1.185,1.036-2.034,1.339l-0.546,0.195L156.347,214.463 M51.753,214.413
		c-0.039,0-0.079-0.001-0.119-0.001h-0.871c-0.512,0-0.982-0.128-1.411-0.384c-0.429-0.255-0.769-0.622-1.02-1.099
		c-0.251-0.476-0.377-1.031-0.377-1.664v-4.056l0.078-0.208l0.208-0.078h0.221l0.208,0.078l0.078,0.208l0.052,3.887
		c0.884-0.06,1.504-0.279,1.859-0.657c0.355-0.377,0.533-0.864,0.533-1.462v-1.768l0.078-0.208l0.208-0.078h0.221l0.208,0.078
		l0.078,0.208v1.833c0,0.771-0.264,1.419-0.793,1.944c-0.529,0.525-1.309,0.813-2.34,0.865c0.095,0.572,0.346,1.014,0.754,1.326
		c0.407,0.312,0.914,0.468,1.521,0.468h0.455c0.029,0.001,0.057,0.001,0.086,0.001c0.834,0,1.477-0.25,1.93-0.748
		c0.468-0.516,0.702-1.211,0.702-2.087v-3.601l0.078-0.208l0.208-0.078h0.221l0.208,0.078l0.078,0.208v3.692
		c0,0.72-0.143,1.348-0.429,1.885c-0.286,0.537-0.689,0.947-1.209,1.229C52.964,214.28,52.397,214.413,51.753,214.413
		 M251.623,214.346h-4.485l-0.208-0.078l-0.078-0.208v-0.182l0.078-0.208l0.208-0.078h3.705l-4.173-6.149
		c-0.07-0.104-0.104-0.191-0.104-0.26l0.085-0.182l0.188-0.078h0.234c0.13,0,0.238,0.07,0.325,0.208l2.496,3.627
		c0.849-0.321,1.274-1.083,1.274-2.288v-1.261l0.078-0.208l0.208-0.078h0.221l0.208,0.078l0.078,0.208v1.326
		c0,0.702-0.141,1.289-0.422,1.761c-0.282,0.472-0.696,0.821-1.242,1.047l1.469,2.145c0.095,0.139,0.143,0.269,0.143,0.39v0.182
		l-0.078,0.208L251.623,214.346 M235.945,214.346h-0.247l-0.176-0.045l-0.149-0.15l-3.211-4.472
		c-0.425,0.304-0.713,0.655-0.865,1.053c-0.152,0.399-0.228,0.841-0.228,1.326v2.002l-0.078,0.208l-0.208,0.078h-0.221l-0.208-0.078
		l-0.078-0.208v-2.067c0-0.615,0.098-1.164,0.293-1.645c0.195-0.481,0.578-0.908,1.15-1.28l-1.157-1.625
		c-0.069-0.104-0.104-0.191-0.104-0.26l0.078-0.182l0.182-0.078h0.247c0.121,0,0.23,0.065,0.325,0.195l2.938,4.095
		c0.364-0.199,0.628-0.405,0.793-0.617c0.165-0.212,0.266-0.427,0.306-0.644c0.039-0.217,0.058-0.507,0.058-0.871v-1.872
		l0.078-0.208l0.208-0.078h0.221l0.208,0.078l0.078,0.208v1.937c0,0.399-0.035,0.743-0.104,1.033
		c-0.07,0.29-0.215,0.572-0.436,0.845c-0.221,0.273-0.548,0.535-0.981,0.786l1.443,2.015c0.069,0.104,0.104,0.191,0.104,0.26
		l-0.078,0.182L235.945,214.346 M228.249,214.346h-0.221l-0.208-0.078l-0.078-0.208v-3.9c0-1.655-0.828-2.483-2.483-2.483h-0.988
		c-0.087,0.624-0.149,1.127-0.188,1.508c-0.039,0.382-0.054,0.815-0.045,1.3v3.575l-0.078,0.208l-0.208,0.078l-1.482-0.026
		l-0.208-0.078l-0.078-0.208v-0.182l0.078-0.208l0.208-0.078l0.975,0.013v-3.029v-0.403c0-0.477,0.017-0.895,0.052-1.255
		c0.035-0.359,0.1-0.765,0.195-1.215h-0.663l-0.208-0.078l-0.078-0.208v-0.182l0.078-0.208l0.208-0.078h2.496
		c1.083,0,1.889,0.271,2.418,0.813c0.529,0.542,0.793,1.328,0.793,2.36v3.965l-0.078,0.208L228.249,214.346 M216.589,214.346h-0.221
		l-0.208-0.078l-0.078-0.208v-3.9c0-1.655-0.828-2.483-2.483-2.483h-2.236l-0.208-0.078l-0.078-0.208v-0.182l0.078-0.208
		l0.208-0.078h2.301c1.083,0,1.889,0.271,2.418,0.813c0.529,0.542,0.793,1.328,0.793,2.36v3.965l-0.078,0.208L216.589,214.346
		 M211.584,214.346h-0.221l-0.208-0.078l-0.078-0.208v-4.563l0.078-0.208l0.208-0.078h0.221l0.208,0.078l0.078,0.208v4.563
		l-0.078,0.208L211.584,214.346 M206.397,214.346h-2.158l-0.208-0.078l-0.078-0.208v-0.182l0.078-0.208l0.208-0.078h2.093
		c0.659,0,1.159-0.214,1.502-0.643c0.342-0.429,0.531-1.042,0.565-1.84c0.009-0.087,0.013-0.247,0.013-0.481
		c0-0.225-0.005-0.381-0.013-0.468c-0.017-0.789-0.201-1.399-0.552-1.833c-0.351-0.433-0.856-0.65-1.515-0.65h-1.768v1.235
		c0,0.407,0.043,0.726,0.13,0.956c0.087,0.23,0.238,0.371,0.455,0.423l0.533,0.13c0.147,0.043,0.221,0.182,0.221,0.416v0.182
		l-0.084,0.156l-0.215,0.052l-0.104-0.013l-0.494-0.117c-0.416-0.095-0.724-0.321-0.923-0.676c-0.2-0.355-0.299-0.858-0.299-1.508
		v-1.703l0.078-0.208l0.208-0.078h2.327c0.893,0,1.575,0.275,2.048,0.825c0.472,0.551,0.721,1.333,0.747,2.347
		c0.008,0.087,0.013,0.264,0.013,0.533c0,0.278-0.005,0.459-0.013,0.546c-0.026,1.014-0.275,1.796-0.747,2.347
		C207.972,214.071,207.289,214.346,206.397,214.346 M192.474,214.346h-2.158l-0.208-0.078l-0.078-0.208v-0.182l0.078-0.208
		l0.208-0.078h2.093c0.659,0,1.159-0.214,1.502-0.643c0.342-0.429,0.531-1.042,0.565-1.84c0.009-0.087,0.013-0.247,0.013-0.481
		c0-0.225-0.005-0.381-0.013-0.468c-0.017-0.789-0.201-1.399-0.552-1.833c-0.351-0.433-0.856-0.65-1.515-0.65h-1.768v1.235
		c0,0.407,0.043,0.726,0.13,0.956c0.087,0.23,0.238,0.371,0.455,0.423l0.533,0.13c0.147,0.043,0.221,0.182,0.221,0.416v0.182
		l-0.084,0.156l-0.215,0.052l-0.104-0.013l-0.494-0.117c-0.416-0.095-0.724-0.321-0.923-0.676c-0.2-0.355-0.299-0.858-0.299-1.508
		v-1.703l0.078-0.208l0.208-0.078h2.327c0.893,0,1.575,0.275,2.048,0.825c0.472,0.551,0.721,1.333,0.747,2.347
		c0.008,0.087,0.013,0.264,0.013,0.533c0,0.278-0.005,0.459-0.013,0.546c-0.026,1.014-0.275,1.796-0.747,2.347
		C194.049,214.071,193.366,214.346,192.474,214.346 M174.989,214.346h-0.221l-0.208-0.078l-0.078-0.208v-3.9
		c0-1.655-0.828-2.483-2.483-2.483h-2.236l-0.208-0.078l-0.078-0.208v-0.182l0.078-0.208l0.208-0.078h2.301
		c1.083,0,1.889,0.271,2.418,0.813c0.529,0.542,0.793,1.328,0.793,2.36v3.965l-0.078,0.208L174.989,214.346 M169.984,214.346h-0.221
		l-0.208-0.078l-0.078-0.208v-4.563l0.078-0.208l0.208-0.078h0.221l0.208,0.078l0.078,0.208v4.563l-0.078,0.208L169.984,214.346
		 M167.085,214.346h-3.289l-0.208-0.078l-0.078-0.208v-0.182l0.078-0.208l0.208-0.078h2.782v-3.432c0-0.477-0.085-0.906-0.253-1.287
		c-0.169-0.381-0.403-0.676-0.702-0.884c-0.299-0.208-0.635-0.312-1.008-0.312h-1.508l-0.962,6.37l-0.11,0.214l-0.214,0.085h-0.234
		l-0.182-0.085l-0.052-0.214l0.949-6.37h-0.585l-0.208-0.078l-0.078-0.208v-0.182l0.078-0.208l0.208-0.078h2.964
		c0.52,0,0.983,0.13,1.391,0.39c0.407,0.26,0.726,0.63,0.956,1.111c0.23,0.481,0.345,1.038,0.345,1.671v3.965l-0.078,0.208
		L167.085,214.346 M150.38,214.346h-2.158l-0.208-0.078l-0.078-0.208v-0.182l0.078-0.208l0.208-0.078h2.093
		c0.658,0,1.159-0.214,1.501-0.643c0.342-0.429,0.531-1.042,0.566-1.84c0.008-0.087,0.013-0.247,0.013-0.481
		c0-0.225-0.005-0.381-0.013-0.468c-0.018-0.789-0.202-1.399-0.553-1.833c-0.351-0.433-0.856-0.65-1.514-0.65h-1.768v1.235
		c0,0.407,0.043,0.726,0.13,0.956c0.087,0.23,0.238,0.371,0.455,0.423l0.533,0.13c0.147,0.043,0.221,0.182,0.221,0.416v0.182
		l-0.085,0.156l-0.215,0.052l-0.104-0.013l-0.494-0.117c-0.416-0.095-0.724-0.321-0.923-0.676c-0.199-0.355-0.299-0.858-0.299-1.508
		v-1.703l0.078-0.208l0.208-0.078h2.327c0.893,0,1.575,0.275,2.047,0.825c0.472,0.551,0.721,1.333,0.747,2.347
		c0.009,0.087,0.013,0.264,0.013,0.533c0,0.278-0.004,0.459-0.013,0.546c-0.026,1.014-0.275,1.796-0.747,2.347
		C151.955,214.071,151.273,214.346,150.38,214.346 M143.061,214.346h-2.158l-0.208-0.078l-0.078-0.208v-0.182l0.078-0.208
		l0.208-0.078h2.093c0.658,0,1.159-0.214,1.501-0.643c0.342-0.429,0.531-1.042,0.566-1.84c0.008-0.087,0.013-0.247,0.013-0.481
		c0-0.225-0.005-0.381-0.013-0.468c-0.018-0.789-0.202-1.399-0.553-1.833c-0.351-0.433-0.856-0.65-1.514-0.65h-1.768v1.235
		c0,0.407,0.043,0.726,0.13,0.956c0.086,0.23,0.238,0.371,0.455,0.423l0.533,0.13c0.147,0.043,0.221,0.182,0.221,0.416v0.182
		l-0.085,0.156l-0.215,0.052l-0.104-0.013l-0.494-0.117c-0.416-0.095-0.724-0.321-0.923-0.676c-0.199-0.355-0.299-0.858-0.299-1.508
		v-1.703l0.078-0.208l0.208-0.078h2.327c0.893,0,1.575,0.275,2.047,0.825c0.472,0.551,0.722,1.333,0.747,2.347
		c0.009,0.087,0.013,0.264,0.013,0.533c0,0.278-0.004,0.459-0.013,0.546c-0.026,1.014-0.275,1.796-0.747,2.347
		C144.636,214.071,143.954,214.346,143.061,214.346 M137.952,214.346h-0.221l-0.208-0.078l-0.078-0.208v-6.851l0.078-0.208
		l0.208-0.078h0.221l0.208,0.078l0.078,0.208v6.851l-0.078,0.208L137.952,214.346 M135.378,214.346h-3.224l-0.208-0.078
		l-0.078-0.208v-0.182l0.078-0.208l0.208-0.078h2.691l-0.247-3.562l-0.013-0.273c-0.035-0.52-0.078-0.914-0.13-1.183
		c-0.052-0.269-0.165-0.485-0.338-0.65c-0.174-0.165-0.438-0.247-0.793-0.247h-0.481l-0.208-0.078l-0.078-0.208v-0.182l0.078-0.208
		l0.208-0.078h0.481c0.581,0,1.012,0.126,1.294,0.377c0.282,0.251,0.468,0.576,0.559,0.975c0.091,0.399,0.163,0.962,0.215,1.69
		l0.273,4.095v0.039l-0.084,0.176L135.378,214.346 M127.176,214.346h-5.226l-0.208-0.078l-0.078-0.208v-6.851l0.078-0.208
		l0.208-0.078h2.301c1.083,0,1.889,0.271,2.418,0.813c0.529,0.542,0.793,1.328,0.793,2.36v3.965l-0.078,0.208L127.176,214.346
		 M122.444,207.677v5.915h4.225v-3.432c0-1.655-0.828-2.483-2.483-2.483H122.444 M115.918,214.346h-0.221l-0.208-0.078l-0.078-0.208
		v-3.9c0-1.655-0.828-2.483-2.483-2.483h-2.236l-0.208-0.078l-0.078-0.208v-0.182l0.078-0.208l0.208-0.078h2.301
		c1.083,0,1.889,0.271,2.418,0.813c0.529,0.542,0.793,1.328,0.793,2.36v3.965l-0.078,0.208L115.918,214.346 M110.913,214.346h-0.221
		l-0.208-0.078l-0.078-0.208v-4.563l0.078-0.208l0.208-0.078h0.221l0.208,0.078l0.078,0.208v4.563l-0.078,0.208L110.913,214.346
		 M108.014,214.346h-0.221l-0.208-0.078l-0.078-0.208v-3.9c0-1.655-0.828-2.483-2.483-2.483h-1.742v6.383l-0.078,0.208l-0.208,0.078
		h-0.221l-0.208-0.078l-0.078-0.208v-6.851l0.078-0.208l0.208-0.078h2.314c1.083,0,1.889,0.271,2.418,0.813
		c0.529,0.542,0.793,1.328,0.793,2.36v3.965l-0.078,0.208L108.014,214.346 M100.097,214.346h-3.289l-0.208-0.078l-0.078-0.208
		v-0.182l0.078-0.208l0.208-0.078h2.782v-3.432c0-0.477-0.084-0.906-0.253-1.287c-0.169-0.381-0.403-0.676-0.702-0.884
		c-0.299-0.208-0.635-0.312-1.007-0.312h-1.508l-0.962,6.37l-0.11,0.214l-0.215,0.085h-0.234l-0.182-0.085l-0.052-0.214l0.949-6.37
		h-0.585l-0.208-0.078l-0.078-0.208v-0.182l0.078-0.208l0.208-0.078h2.964c0.52,0,0.983,0.13,1.391,0.39
		c0.407,0.26,0.726,0.63,0.956,1.111c0.23,0.481,0.344,1.038,0.344,1.671v3.965l-0.078,0.208L100.097,214.346 M92.206,214.346
		h-0.221l-0.208-0.078l-0.078-0.208v-6.851l0.078-0.208l0.208-0.078h0.221l0.208,0.078l0.078,0.208v6.851l-0.078,0.208
		L92.206,214.346 M89.45,214.346h-4.485l-0.208-0.078l-0.078-0.208v-0.182l0.078-0.208l0.208-0.078h3.705l-4.173-6.149
		c-0.069-0.104-0.104-0.191-0.104-0.26l0.084-0.182l0.188-0.078H84.9c0.13,0,0.238,0.07,0.325,0.208l2.496,3.627
		c0.849-0.321,1.274-1.083,1.274-2.288v-1.261l0.078-0.208l0.208-0.078h0.221l0.208,0.078l0.078,0.208v1.326
		c0,0.702-0.141,1.289-0.423,1.761c-0.282,0.472-0.695,0.821-1.242,1.047l1.469,2.145c0.095,0.139,0.143,0.269,0.143,0.39v0.182
		l-0.078,0.208L89.45,214.346 M79.896,214.346H74.67l-0.208-0.078l-0.078-0.208v-6.851l0.078-0.208l0.208-0.078h2.301
		c1.083,0,1.889,0.271,2.418,0.813c0.529,0.542,0.793,1.328,0.793,2.36v3.965l-0.078,0.208L79.896,214.346 M75.164,207.677v5.915
		h4.225v-3.432c0-1.655-0.828-2.483-2.483-2.483H75.164 M65.479,214.346h-0.221l-0.208-0.078l-0.078-0.208v-6.851l0.078-0.208
		l0.208-0.078h0.221l0.208,0.078l0.078,0.208v6.851l-0.078,0.208L65.479,214.346 M62.58,214.346h-0.221l-0.208-0.078l-0.078-0.208
		v-3.9c0-1.655-0.828-2.483-2.483-2.483h-2.236l-0.208-0.078l-0.078-0.208v-0.182l0.078-0.208l0.208-0.078h2.301
		c1.083,0,1.889,0.271,2.418,0.813c0.529,0.542,0.793,1.328,0.793,2.36v3.965l-0.078,0.208L62.58,214.346 M57.575,214.346h-0.221
		l-0.208-0.078l-0.078-0.208v-4.563l0.078-0.208l0.208-0.078h0.221l0.208,0.078l0.078,0.208v4.563l-0.078,0.208L57.575,214.346
		 M45.693,214.346h-3.289l-0.208-0.078l-0.078-0.208v-0.182l0.078-0.208l0.208-0.078h2.782v-3.432c0-0.477-0.084-0.906-0.253-1.287
		c-0.169-0.381-0.403-0.676-0.702-0.884c-0.299-0.208-0.635-0.312-1.007-0.312h-1.508l-0.962,6.37l-0.11,0.214l-0.215,0.085h-0.234
		l-0.182-0.085l-0.052-0.214l0.949-6.37h-0.585l-0.208-0.078l-0.078-0.208v-0.182l0.078-0.208l0.208-0.078h2.964
		c0.52,0,0.983,0.13,1.391,0.39c0.407,0.26,0.726,0.63,0.956,1.111c0.23,0.481,0.345,1.038,0.345,1.671v3.965l-0.078,0.208
		L45.693,214.346 M35.111,214.346H34.89l-0.208-0.078l-0.078-0.208v-3.9c0-1.655-0.828-2.483-2.483-2.483h-1.586l-0.208-0.078
		l-0.078-0.208v-0.182l0.078-0.208l0.208-0.078h1.651c1.083,0,1.889,0.271,2.418,0.813c0.529,0.542,0.793,1.328,0.793,2.36v3.965
		l-0.078,0.208L35.111,214.346 M129.971,211.356h-0.221l-0.208-0.078l-0.078-0.208v-3.861l0.078-0.208l0.208-0.078h0.221
		l0.208,0.078l0.078,0.208v3.861l-0.078,0.208L129.971,211.356 M82.69,211.356h-0.221l-0.208-0.078l-0.078-0.208v-3.861l0.078-0.208
		l0.208-0.078h0.221l0.208,0.078l0.078,0.208v3.861l-0.078,0.208L82.69,211.356 M37.906,211.356h-0.221l-0.208-0.078l-0.078-0.208
		v-3.861l0.078-0.208l0.208-0.078h0.221l0.208,0.078l0.078,0.208v3.861l-0.078,0.208L37.906,211.356"/>
	<path fill="#000000" d="M280.318,237.046c-0.771,0-1.424-0.121-1.956-0.364c-0.533-0.243-0.932-0.548-1.196-0.916
		c-0.264-0.368-0.405-0.747-0.423-1.138l0.078-0.195l0.195-0.078h1.196c0.19,0,0.321,0.087,0.39,0.26
		c0.19,0.615,0.762,0.923,1.716,0.923c0.529,0,0.943-0.121,1.241-0.364c0.299-0.243,0.449-0.589,0.449-1.04
		c0-0.451-0.137-0.778-0.41-0.981c-0.273-0.204-0.674-0.306-1.202-0.306h-1.339l-0.221-0.091l-0.091-0.221v-0.559
		c0-0.165,0.056-0.295,0.169-0.39l2.314-2.262h-3.705c-0.095,0-0.173-0.03-0.234-0.091l-0.091-0.221v-0.871
		c0-0.095,0.03-0.173,0.091-0.234c0.061-0.061,0.139-0.091,0.234-0.091h5.59c0.095,0,0.173,0.031,0.234,0.091
		c0.061,0.061,0.091,0.139,0.091,0.234v0.793c0,0.147-0.056,0.269-0.169,0.364l-2.236,2.301l0.156,0.013
		c0.832,0.069,1.493,0.321,1.982,0.754c0.49,0.434,0.735,1.053,0.735,1.859c0,0.572-0.154,1.07-0.461,1.495
		c-0.308,0.425-0.732,0.752-1.274,0.981S281.011,237.046,280.318,237.046"/>
	<path fill="#000000" d="M237.804,238.528h-0.221l-0.208-0.078l-0.078-0.208v-5.512c0-1.655-0.828-2.483-2.483-2.483h-1.313v1.56
		c0,0.407,0.043,0.726,0.13,0.955c0.087,0.23,0.238,0.371,0.455,0.423l0.533,0.13c0.147,0.043,0.221,0.182,0.221,0.416v0.182
		l-0.085,0.156l-0.214,0.052l-0.104-0.013l-0.494-0.117c-0.416-0.095-0.724-0.321-0.923-0.676c-0.199-0.355-0.299-0.858-0.299-1.508
		v-2.028l0.078-0.208l0.208-0.078h1.872c1.083,0,1.889,0.271,2.418,0.813c0.529,0.542,0.793,1.328,0.793,2.36v5.577l-0.078,0.208
		L237.804,238.528 M147.936,237.657l-0.176-0.065l-0.071-0.156v-0.169c0-0.199,0.06-0.321,0.182-0.364l1.781-0.65l-1.729-6.24
		c-0.043-0.147-0.065-0.234-0.065-0.26l0.078-0.182l0.182-0.078h0.234l0.195,0.058l0.104,0.137l1.781,6.279l0.13-0.052
		c0.711-0.26,1.209-0.632,1.495-1.118c0.286-0.485,0.429-1.075,0.429-1.768v-3.25l0.078-0.208l0.208-0.078h0.221l0.208,0.078
		l0.078,0.208v3.51c0,0.728-0.234,1.404-0.702,2.028c-0.468,0.624-1.088,1.075-1.859,1.352l-2.665,0.962L147.936,237.657
		 M245.968,237.046c-1.031,0-1.803-0.275-2.314-0.825c-0.512-0.55-0.767-1.354-0.767-2.411v-4.03l0.078-0.208l0.208-0.078h3.055
		c1.075,0,1.846,0.247,2.314,0.741c0.468,0.494,0.724,1.261,0.767,2.301c0.008,0.087,0.013,0.329,0.013,0.728
		c0,0.407-0.005,0.655-0.013,0.741c-0.026,1.031-0.304,1.796-0.832,2.295C247.948,236.797,247.112,237.046,245.968,237.046
		 M243.68,230.247v3.562c0,0.797,0.191,1.41,0.572,1.839c0.381,0.429,0.953,0.644,1.716,0.644c0.893,0,1.536-0.193,1.931-0.579
		c0.394-0.386,0.6-0.977,0.617-1.775c0.009-0.086,0.013-0.312,0.013-0.676c0-0.355-0.005-0.576-0.013-0.663
		c-0.017-0.763-0.238-1.346-0.663-1.748c-0.425-0.403-0.988-0.605-1.69-0.605H243.68 M180.267,237.046
		c-1.031,0-1.803-0.275-2.314-0.825c-0.511-0.55-0.767-1.354-0.767-2.411v-4.03l0.078-0.208l0.208-0.078h3.055
		c1.075,0,1.846,0.247,2.314,0.741c0.468,0.494,0.724,1.261,0.767,2.301c0.009,0.087,0.013,0.329,0.013,0.728
		c0,0.407-0.004,0.655-0.013,0.741c-0.026,1.031-0.304,1.796-0.832,2.295C182.247,236.797,181.411,237.046,180.267,237.046
		 M177.979,230.247v3.562c0,0.797,0.191,1.41,0.572,1.839c0.381,0.429,0.953,0.644,1.716,0.644c0.893,0,1.536-0.193,1.93-0.579
		c0.394-0.386,0.6-0.977,0.618-1.775c0.008-0.086,0.013-0.312,0.013-0.676c0-0.355-0.005-0.576-0.013-0.663
		c-0.018-0.763-0.239-1.346-0.663-1.748c-0.425-0.403-0.988-0.605-1.69-0.605H177.979 M263.232,237.033
		c-0.139,0-0.208-0.069-0.208-0.208V236.5c0-0.147,0.091-0.256,0.273-0.325l0.533-0.208c0.667-0.26,1.176-0.619,1.527-1.079
		c0.351-0.459,0.527-1.144,0.527-2.054c0-0.65-0.078-1.161-0.234-1.534c-0.156-0.373-0.414-0.641-0.773-0.806
		c-0.36-0.165-0.852-0.247-1.475-0.247h-0.442h-0.039l-1.014-0.013l-0.208-0.071l-0.078-0.202v-1.989l0.078-0.208l0.208-0.078h0.221
		l0.208,0.078l0.078,0.208v1.521h1.053c0.806,0,1.441,0.11,1.904,0.331c0.464,0.221,0.797,0.579,1.001,1.073
		c0.204,0.494,0.306,1.17,0.306,2.028c0,1.118-0.253,1.972-0.76,2.561c-0.507,0.59-1.185,1.036-2.035,1.339l-0.546,0.195
		L263.232,237.033 M194.411,237.033c-0.139,0-0.208-0.069-0.208-0.208V236.5c0-0.147,0.091-0.256,0.273-0.325l0.533-0.208
		c0.667-0.26,1.176-0.619,1.527-1.079c0.351-0.459,0.527-1.144,0.527-2.054c0-0.65-0.078-1.161-0.234-1.534
		c-0.156-0.373-0.414-0.641-0.773-0.806c-0.36-0.165-0.852-0.247-1.476-0.247h-0.442h-0.039l-1.014-0.013l-0.208-0.071l-0.078-0.202
		v-1.989l0.078-0.208l0.208-0.078h0.221l0.208,0.078l0.078,0.208v1.521h1.053c0.806,0,1.441,0.11,1.905,0.331
		c0.464,0.221,0.797,0.579,1.001,1.073c0.203,0.494,0.305,1.17,0.305,2.028c0,1.118-0.253,1.972-0.76,2.561
		c-0.507,0.59-1.185,1.036-2.034,1.339l-0.546,0.195L194.411,237.033 M132.583,237.033c-0.139,0-0.208-0.069-0.208-0.208V236.5
		c0-0.147,0.091-0.256,0.273-0.325l0.533-0.208c0.667-0.26,1.176-0.619,1.527-1.079c0.351-0.459,0.526-1.144,0.526-2.054
		c0-0.65-0.078-1.161-0.234-1.534c-0.156-0.373-0.414-0.641-0.773-0.806c-0.36-0.165-0.852-0.247-1.476-0.247h-0.442h-0.039
		l-1.014-0.013l-0.208-0.071l-0.078-0.202v-1.989l0.078-0.208l0.208-0.078h0.221l0.208,0.078l0.078,0.208v1.521h1.053
		c0.806,0,1.441,0.11,1.905,0.331c0.464,0.221,0.797,0.579,1.001,1.073c0.203,0.494,0.306,1.17,0.306,2.028
		c0,1.118-0.253,1.972-0.761,2.561c-0.507,0.59-1.185,1.036-2.034,1.339l-0.546,0.195L132.583,237.033 M117.711,237.033
		c-0.147,0-0.221-0.069-0.221-0.208v-0.351c0-0.147,0.091-0.255,0.273-0.325c0.633-0.225,1.083-0.429,1.352-0.611
		c0.329-0.225,0.646-0.539,0.949-0.943c0.303-0.403,0.455-0.73,0.455-0.981l-0.195-1.014c-0.113-0.563-0.234-1.01-0.364-1.339
		c-0.13-0.329-0.301-0.581-0.514-0.754c-0.212-0.173-0.492-0.26-0.838-0.26h-0.481l-0.208-0.078l-0.078-0.208v-0.182l0.078-0.208
		l0.208-0.078h0.481c0.503,0,0.914,0.113,1.235,0.338c0.321,0.225,0.576,0.557,0.767,0.994c0.19,0.438,0.36,1.008,0.507,1.71
		l0.793,4.095v0.039l-0.084,0.175l-0.202,0.071h-0.221c-0.147,0-0.243-0.095-0.286-0.286l-0.338-1.729
		c-0.165,0.277-0.353,0.535-0.565,0.773c-0.212,0.239-0.427,0.431-0.644,0.579c-0.312,0.217-0.607,0.384-0.884,0.501
		c-0.277,0.117-0.572,0.206-0.884,0.266L117.711,237.033 M87.019,237.033c-0.139,0-0.208-0.069-0.208-0.208V236.5
		c0-0.147,0.091-0.256,0.273-0.325l0.533-0.208c0.667-0.26,1.176-0.619,1.527-1.079c0.351-0.459,0.527-1.144,0.527-2.054
		c0-0.65-0.078-1.161-0.234-1.534c-0.156-0.373-0.414-0.641-0.773-0.806c-0.36-0.165-0.852-0.247-1.475-0.247h-0.442h-0.039
		l-1.014-0.013l-0.208-0.071l-0.078-0.202v-1.989l0.078-0.208l0.208-0.078h0.221l0.208,0.078l0.078,0.208v1.521h1.053
		c0.806,0,1.441,0.11,1.905,0.331c0.464,0.221,0.797,0.579,1.001,1.073c0.203,0.494,0.306,1.17,0.306,2.028
		c0,1.118-0.253,1.972-0.761,2.561c-0.507,0.59-1.185,1.036-2.034,1.339l-0.546,0.195L87.019,237.033 M56.209,237.033
		c-0.139,0-0.208-0.069-0.208-0.208V236.5c0-0.147,0.091-0.256,0.273-0.325l0.533-0.208c0.667-0.26,1.177-0.619,1.527-1.079
		c0.351-0.459,0.527-1.144,0.527-2.054c0-0.65-0.078-1.161-0.234-1.534c-0.156-0.373-0.414-0.641-0.773-0.806
		c-0.36-0.165-0.852-0.247-1.476-0.247h-0.442h-0.039l-1.014-0.013l-0.208-0.071l-0.078-0.202v-1.989l0.078-0.208l0.208-0.078h0.221
		l0.208,0.078l0.078,0.208v1.521h1.053c0.806,0,1.441,0.11,1.905,0.331c0.464,0.221,0.797,0.579,1.001,1.073
		c0.203,0.494,0.306,1.17,0.306,2.028c0,1.118-0.254,1.972-0.761,2.561c-0.507,0.59-1.185,1.036-2.034,1.339l-0.546,0.195
		L56.209,237.033 M259.683,236.916h-0.221l-0.208-0.078l-0.078-0.208v-3.9c0-1.655-0.828-2.483-2.483-2.483h-2.236l-0.208-0.078
		l-0.078-0.208v-0.182l0.078-0.208l0.208-0.078h2.301c1.083,0,1.889,0.271,2.418,0.813c0.529,0.542,0.793,1.328,0.793,2.36v3.965
		l-0.078,0.208L259.683,236.916 M254.678,236.916h-0.221l-0.208-0.078l-0.078-0.208v-4.563l0.078-0.208l0.208-0.078h0.221
		l0.208,0.078l0.078,0.208v4.563l-0.078,0.208L254.678,236.916 M251.701,236.916h-0.221l-0.208-0.078l-0.078-0.208v-6.851
		l0.078-0.208l0.208-0.078h0.221l0.208,0.078l0.078,0.208v6.851l-0.078,0.208L251.701,236.916 M227.573,236.916h-0.247l-0.176-0.045
		l-0.15-0.149l-3.211-4.472c-0.425,0.303-0.713,0.654-0.865,1.053c-0.152,0.399-0.227,0.841-0.227,1.326v2.002l-0.078,0.208
		l-0.208,0.078h-0.221l-0.208-0.078l-0.078-0.208v-2.067c0-0.615,0.098-1.164,0.293-1.644c0.195-0.481,0.579-0.908,1.151-1.281
		l-1.157-1.625c-0.069-0.104-0.104-0.19-0.104-0.26l0.078-0.182l0.182-0.078h0.247c0.121,0,0.23,0.065,0.325,0.195l2.938,4.095
		c0.364-0.199,0.628-0.405,0.793-0.617c0.165-0.212,0.267-0.427,0.306-0.643c0.039-0.217,0.058-0.507,0.058-0.871v-1.872
		l0.078-0.208l0.208-0.078h0.221l0.208,0.078l0.078,0.208v1.937c0,0.399-0.035,0.743-0.104,1.033
		c-0.069,0.291-0.214,0.572-0.436,0.845c-0.221,0.273-0.548,0.535-0.981,0.787l1.443,2.015c0.069,0.104,0.104,0.191,0.104,0.26
		l-0.078,0.182L227.573,236.916 M219.799,236.916h-0.221l-0.208-0.078l-0.078-0.208v-6.851l0.078-0.208l0.208-0.078h0.221
		l0.208,0.078l0.078,0.208v6.851l-0.078,0.208L219.799,236.916 M216.901,236.916h-0.221l-0.208-0.078l-0.078-0.208v-3.9
		c0-1.655-0.828-2.483-2.483-2.483h-0.988c-0.087,0.624-0.15,1.127-0.188,1.508c-0.039,0.382-0.054,0.815-0.046,1.3v3.575
		l-0.078,0.208l-0.208,0.078l-1.482-0.026l-0.208-0.078l-0.078-0.208v-0.182l0.078-0.208l0.208-0.078l0.975,0.013v-3.029v-0.403
		c0-0.476,0.017-0.895,0.052-1.254c0.035-0.36,0.1-0.765,0.195-1.216h-0.663l-0.208-0.078l-0.078-0.208v-0.182l0.078-0.208
		l0.208-0.078h2.496c1.083,0,1.889,0.271,2.418,0.813c0.529,0.542,0.793,1.328,0.793,2.36v3.965l-0.078,0.208L216.901,236.916
		 M208.594,236.916h-5.226l-0.208-0.078l-0.078-0.208v-6.851l0.078-0.208l0.208-0.078h2.301c1.083,0,1.889,0.271,2.418,0.813
		c0.529,0.542,0.793,1.328,0.793,2.36v3.965l-0.078,0.208L208.594,236.916 M203.862,230.247v5.915h4.225v-3.432
		c0-1.655-0.828-2.483-2.483-2.483H203.862 M190.862,236.916h-3.289l-0.208-0.078l-0.078-0.208v-0.182l0.078-0.208l0.208-0.078
		h2.782v-3.432c0-0.476-0.085-0.905-0.253-1.287c-0.169-0.381-0.403-0.676-0.702-0.884c-0.299-0.208-0.635-0.312-1.008-0.312h-1.508
		l-0.962,6.37l-0.11,0.215l-0.214,0.084h-0.234l-0.182-0.084l-0.052-0.215l0.949-6.37h-0.585l-0.208-0.078l-0.078-0.208v-0.182
		l0.078-0.208l0.208-0.078h2.964c0.52,0,0.983,0.13,1.391,0.39c0.407,0.26,0.726,0.631,0.956,1.112
		c0.23,0.481,0.345,1.038,0.345,1.67v3.965l-0.078,0.208L190.862,236.916 M175.197,236.916h-3.224l-0.208-0.078l-0.078-0.208v-0.182
		l0.078-0.208l0.208-0.078h2.691l-0.247-3.562l-0.013-0.273c-0.035-0.52-0.078-0.914-0.13-1.183
		c-0.052-0.268-0.165-0.485-0.338-0.65c-0.173-0.165-0.438-0.247-0.793-0.247h-0.481l-0.208-0.078l-0.078-0.208v-0.182l0.078-0.208
		l0.208-0.078h0.481c0.581,0,1.012,0.126,1.294,0.377c0.282,0.251,0.468,0.577,0.559,0.975c0.091,0.399,0.163,0.962,0.214,1.69
		l0.273,4.095v0.039l-0.084,0.175L175.197,236.916 M170.088,236.916h-3.224l-0.208-0.078l-0.078-0.208v-0.182l0.078-0.208
		l0.208-0.078h2.691l-0.247-3.562l-0.013-0.273c-0.035-0.52-0.078-0.914-0.13-1.183c-0.052-0.268-0.165-0.485-0.338-0.65
		c-0.173-0.165-0.438-0.247-0.793-0.247h-0.481l-0.208-0.078l-0.078-0.208v-0.182l0.078-0.208l0.208-0.078h0.481
		c0.581,0,1.012,0.126,1.294,0.377c0.282,0.251,0.468,0.577,0.559,0.975c0.091,0.399,0.163,0.962,0.214,1.69l0.273,4.095v0.039
		l-0.085,0.175L170.088,236.916 M164.654,236.916h-0.221l-0.208-0.078l-0.078-0.208v-3.9c0-1.655-0.828-2.483-2.483-2.483h-0.988
		c-0.087,0.624-0.149,1.127-0.188,1.508c-0.039,0.382-0.054,0.815-0.045,1.3v3.575l-0.078,0.208l-0.208,0.078l-1.482-0.026
		l-0.208-0.078l-0.078-0.208v-0.182l0.078-0.208l0.208-0.078l0.975,0.013v-3.029v-0.403c0-0.476,0.017-0.895,0.052-1.254
		c0.035-0.36,0.1-0.765,0.195-1.216h-0.663l-0.208-0.078l-0.078-0.208v-0.182l0.078-0.208l0.208-0.078h2.496
		c1.083,0,1.889,0.271,2.418,0.813c0.529,0.542,0.793,1.328,0.793,2.36v3.965l-0.078,0.208L164.654,236.916 M144.582,236.916h-0.221
		l-0.208-0.078l-0.078-0.208v-4.914c0-0.338,0.033-0.637,0.098-0.897c0.065-0.26,0.149-0.451,0.253-0.572h-3.783l-0.208-0.078
		l-0.078-0.208v-0.182l0.078-0.208l0.208-0.078h5.486l0.208,0.078l0.078,0.208v0.182l-0.078,0.208l-0.208,0.078h-0.832
		c-0.139,0.122-0.245,0.319-0.318,0.592c-0.074,0.273-0.11,0.587-0.11,0.943v4.849l-0.078,0.208L144.582,236.916 M129.034,236.916
		h-0.221l-0.208-0.078l-0.078-0.208v-3.9c0-1.655-0.828-2.483-2.483-2.483h-2.236l-0.208-0.078l-0.078-0.208v-0.182l0.078-0.208
		l0.208-0.078h2.301c1.083,0,1.889,0.271,2.418,0.813c0.529,0.542,0.793,1.328,0.793,2.36v3.965l-0.078,0.208L129.034,236.916
		 M124.029,236.916h-0.221l-0.208-0.078l-0.078-0.208v-4.563l0.078-0.208l0.208-0.078h0.221l0.208,0.078l0.078,0.208v4.563
		l-0.078,0.208L124.029,236.916 M115.541,236.916h-0.221l-0.208-0.078l-0.078-0.208v-3.9c0-1.655-0.828-2.483-2.483-2.483h-1.586
		l-0.208-0.078l-0.078-0.208v-0.182l0.078-0.208l0.208-0.078h1.651c1.083,0,1.889,0.271,2.418,0.813
		c0.529,0.542,0.793,1.328,0.793,2.36v3.965l-0.078,0.208L115.541,236.916 M108.924,236.916h-0.221l-0.208-0.078l-0.078-0.208v-3.9
		c0-1.655-0.828-2.483-2.483-2.483h-0.988c-0.087,0.624-0.15,1.127-0.188,1.508c-0.039,0.382-0.054,0.815-0.045,1.3v3.575
		l-0.078,0.208l-0.208,0.078l-1.482-0.026l-0.208-0.078l-0.078-0.208v-0.182l0.078-0.208l0.208-0.078l0.975,0.013v-3.029v-0.403
		c0-0.476,0.017-0.895,0.052-1.254c0.035-0.36,0.1-0.765,0.195-1.216h-0.663l-0.208-0.078l-0.078-0.208v-0.182l0.078-0.208
		l0.208-0.078h2.496c1.083,0,1.889,0.271,2.418,0.813c0.529,0.542,0.793,1.328,0.793,2.36v3.965l-0.078,0.208L108.924,236.916
		 M94.559,236.916h-1.911l-0.208-0.078l-0.078-0.208v-0.182l0.078-0.208l0.208-0.078h1.846c0.849,0,1.467-0.21,1.853-0.631
		c0.386-0.42,0.596-1.038,0.63-1.852c0.009-0.13,0.013-0.29,0.013-0.481c0-0.182-0.004-0.338-0.013-0.468
		c-0.026-0.815-0.234-1.432-0.624-1.852c-0.39-0.42-1.01-0.631-1.859-0.631h-1.846l-0.208-0.078l-0.078-0.208v-0.182l0.078-0.208
		l0.208-0.078h1.911c1.075,0,1.87,0.269,2.385,0.806c0.516,0.537,0.791,1.326,0.825,2.366c0.009,0.13,0.013,0.308,0.013,0.533
		c0,0.234-0.005,0.416-0.013,0.546c-0.035,1.04-0.31,1.829-0.825,2.366C96.429,236.647,95.633,236.916,94.559,236.916
		 M80.142,236.916h-0.221l-0.208-0.078l-0.078-0.208v-3.9c0-1.655-0.828-2.483-2.483-2.483h-2.236l-0.208-0.078l-0.078-0.208v-0.182
		l0.078-0.208l0.208-0.078h2.301c1.083,0,1.889,0.271,2.418,0.813c0.529,0.542,0.793,1.328,0.793,2.36v3.965l-0.078,0.208
		L80.142,236.916 M75.137,236.916h-0.221l-0.208-0.078l-0.078-0.208v-4.563l0.078-0.208l0.208-0.078h0.221l0.208,0.078l0.078,0.208
		v4.563l-0.078,0.208L75.137,236.916 M72.563,236.916h-3.224l-0.208-0.078l-0.078-0.208v-0.182l0.078-0.208l0.208-0.078h2.691
		l-0.247-3.562l-0.013-0.273c-0.035-0.52-0.078-0.914-0.13-1.183c-0.052-0.268-0.165-0.485-0.338-0.65
		c-0.174-0.165-0.438-0.247-0.793-0.247h-0.481l-0.208-0.078l-0.078-0.208v-0.182l0.078-0.208l0.208-0.078h0.481
		c0.581,0,1.012,0.126,1.293,0.377c0.282,0.251,0.468,0.577,0.559,0.975c0.091,0.399,0.163,0.962,0.215,1.69l0.273,4.095v0.039
		l-0.085,0.175L72.563,236.916 M67.051,236.916H66.83l-0.208-0.078l-0.078-0.208v-6.851l0.078-0.208l0.208-0.078h0.221l0.208,0.078
		l0.078,0.208v6.851l-0.078,0.208L67.051,236.916 M62.839,236.916h-0.221l-0.208-0.078l-0.078-0.208v-4.914
		c0-0.338,0.033-0.637,0.098-0.897c0.065-0.26,0.149-0.451,0.253-0.572H61.5l-0.208-0.078l-0.078-0.208v-0.182l0.078-0.208
		l0.208-0.078h2.886l0.208,0.078l0.078,0.208v0.182l-0.078,0.208l-0.208,0.078h-0.832c-0.139,0.122-0.245,0.319-0.319,0.592
		c-0.074,0.273-0.11,0.587-0.11,0.943v4.849l-0.078,0.208L62.839,236.916 M49.619,236.916h-5.226l-0.208-0.078l-0.078-0.208v-6.851
		l0.078-0.208l0.208-0.078h2.301c1.083,0,1.889,0.271,2.418,0.813c0.529,0.542,0.793,1.328,0.793,2.36v3.965l-0.078,0.208
		L49.619,236.916 M44.887,230.247v5.915h4.225v-3.432c0-1.655-0.828-2.483-2.483-2.483H44.887 M240.599,233.926h-0.221l-0.208-0.078
		l-0.078-0.208v-3.861l0.078-0.208l0.208-0.078h0.221l0.208,0.078l0.078,0.208v3.861l-0.078,0.208L240.599,233.926 M52.414,233.926
		h-0.221l-0.208-0.078l-0.078-0.208v-3.861l0.078-0.208l0.208-0.078h0.221l0.208,0.078l0.078,0.208v3.861l-0.078,0.208
		L52.414,233.926"/>
	<path fill="#000000" d="M282.255,259.485h-1.144l-0.221-0.091l-0.091-0.221v-1.664h-4.121l-0.221-0.091l-0.091-0.221V256.3
		c0-0.138,0.047-0.268,0.143-0.39l3.835-5.304l0.195-0.163c0.087-0.039,0.182-0.058,0.286-0.058h1.43
		c0.095,0,0.171,0.028,0.228,0.085c0.056,0.056,0.084,0.132,0.084,0.227v5.265h1.17c0.095,0,0.171,0.028,0.228,0.084
		c0.056,0.056,0.084,0.132,0.084,0.228v0.923l-0.084,0.221c-0.057,0.061-0.132,0.091-0.228,0.091h-1.17v1.664l-0.084,0.221
		C282.426,259.455,282.35,259.485,282.255,259.485 M280.838,252.283l-2.639,3.731h2.639V252.283"/>
	<path fill="#000000" d="M145.245,261.097h-0.221l-0.208-0.078l-0.078-0.208v-8.463l0.078-0.208l0.208-0.078h0.221l0.208,0.078
		l0.078,0.208v8.463l-0.078,0.208L145.245,261.097 M205.148,260.46h-0.221l-0.156-0.078l-0.026-0.195l0.247-1.56
		c0.026-0.234,0.134-0.351,0.325-0.351h0.585l0.143,0.065l0.052,0.143l-0.052,0.234l-0.559,1.469
		c-0.043,0.095-0.089,0.165-0.136,0.208L205.148,260.46 M171.452,260.46h-0.221l-0.156-0.078l-0.026-0.195l0.247-1.56
		c0.026-0.234,0.134-0.351,0.325-0.351h0.585l0.143,0.065l0.052,0.143l-0.052,0.234l-0.559,1.469
		c-0.043,0.095-0.089,0.165-0.137,0.208L171.452,260.46 M263.232,259.602c-0.139,0-0.208-0.069-0.208-0.208v-0.325
		c0-0.147,0.091-0.255,0.273-0.325l0.533-0.208c0.667-0.26,1.176-0.62,1.527-1.079c0.351-0.459,0.527-1.144,0.527-2.054
		c0-0.65-0.078-1.161-0.234-1.534c-0.156-0.373-0.414-0.641-0.773-0.806c-0.36-0.165-0.852-0.247-1.475-0.247h-0.442h-0.039
		l-1.014-0.013l-0.208-0.071l-0.078-0.202v-1.989l0.078-0.208l0.208-0.078h0.221l0.208,0.078l0.078,0.208v1.521h1.053
		c0.806,0,1.441,0.11,1.904,0.331c0.464,0.221,0.797,0.578,1.001,1.072c0.204,0.494,0.306,1.17,0.306,2.028
		c0,1.118-0.253,1.972-0.76,2.561c-0.507,0.59-1.185,1.036-2.035,1.339l-0.546,0.195L263.232,259.602 M241.535,259.602
		c-0.139,0-0.208-0.069-0.208-0.208v-0.325c0-0.147,0.091-0.255,0.273-0.325l0.533-0.208c0.667-0.26,1.176-0.62,1.527-1.079
		c0.351-0.459,0.527-1.144,0.527-2.054c0-0.65-0.078-1.161-0.234-1.534c-0.156-0.373-0.414-0.641-0.774-0.806
		c-0.36-0.165-0.851-0.247-1.475-0.247h-0.442h-0.039l-1.014-0.013l-0.208-0.071l-0.078-0.202v-1.989l0.078-0.208l0.208-0.078h0.221
		l0.208,0.078l0.078,0.208v1.521h1.053c0.806,0,1.441,0.11,1.904,0.331c0.464,0.221,0.797,0.578,1.001,1.072
		c0.204,0.494,0.306,1.17,0.306,2.028c0,1.118-0.253,1.972-0.76,2.561c-0.507,0.59-1.185,1.036-2.034,1.339l-0.546,0.195
		L241.535,259.602 M217.225,259.602c-0.139,0-0.208-0.069-0.208-0.208v-0.325c0-0.147,0.091-0.255,0.273-0.325l0.533-0.208
		c0.667-0.26,1.176-0.62,1.527-1.079c0.351-0.459,0.527-1.144,0.527-2.054c0-0.65-0.078-1.161-0.234-1.534
		c-0.156-0.373-0.414-0.641-0.773-0.806c-0.36-0.165-0.851-0.247-1.475-0.247h-0.442h-0.039l-1.014-0.013l-0.208-0.071l-0.078-0.202
		v-1.989l0.078-0.208l0.208-0.078h0.221l0.208,0.078l0.078,0.208v1.521h1.053c0.806,0,1.441,0.11,1.904,0.331
		c0.464,0.221,0.797,0.578,1.001,1.072c0.204,0.494,0.306,1.17,0.306,2.028c0,1.118-0.253,1.972-0.76,2.561
		c-0.507,0.59-1.185,1.036-2.034,1.339l-0.546,0.195L217.225,259.602 M189.08,259.602c-0.139,0-0.208-0.069-0.208-0.208v-0.325
		c0-0.147,0.091-0.255,0.273-0.325l0.533-0.208c0.667-0.26,1.177-0.62,1.528-1.079c0.351-0.459,0.527-1.144,0.527-2.054
		c0-0.65-0.078-1.161-0.234-1.534c-0.156-0.373-0.414-0.641-0.773-0.806c-0.36-0.165-0.852-0.247-1.476-0.247h-0.442h-0.039
		l-1.014-0.013l-0.208-0.071l-0.078-0.202v-1.989l0.078-0.208l0.208-0.078h0.221l0.208,0.078l0.078,0.208v1.521h1.053
		c0.806,0,1.441,0.11,1.905,0.331c0.464,0.221,0.797,0.578,1.001,1.072c0.203,0.494,0.306,1.17,0.306,2.028
		c0,1.118-0.254,1.972-0.761,2.561c-0.507,0.59-1.185,1.036-2.034,1.339l-0.546,0.195L189.08,259.602 M175.157,259.602
		c-0.139,0-0.208-0.069-0.208-0.208v-0.325c0-0.147,0.091-0.255,0.273-0.325l0.533-0.208c0.667-0.26,1.176-0.62,1.527-1.079
		c0.351-0.459,0.527-1.144,0.527-2.054c0-0.65-0.078-1.161-0.234-1.534c-0.156-0.373-0.414-0.641-0.773-0.806
		c-0.36-0.165-0.852-0.247-1.476-0.247h-0.442h-0.039l-1.014-0.013l-0.208-0.071l-0.078-0.202v-1.989l0.078-0.208l0.208-0.078h0.221
		l0.208,0.078l0.078,0.208v1.521h1.053c0.806,0,1.441,0.11,1.905,0.331c0.464,0.221,0.797,0.578,1.001,1.072
		c0.203,0.494,0.305,1.17,0.305,2.028c0,1.118-0.253,1.972-0.76,2.561c-0.507,0.59-1.185,1.036-2.034,1.339l-0.546,0.195
		L175.157,259.602 M162.703,259.602c-0.139,0-0.208-0.069-0.208-0.208v-0.325c0-0.147,0.091-0.255,0.273-0.325l0.533-0.208
		c0.667-0.26,1.176-0.62,1.527-1.079c0.351-0.459,0.527-1.144,0.527-2.054c0-0.65-0.078-1.161-0.234-1.534
		c-0.156-0.373-0.414-0.641-0.773-0.806c-0.36-0.165-0.852-0.247-1.475-0.247h-0.442h-0.039l-1.014-0.013l-0.208-0.071l-0.078-0.202
		v-1.989l0.078-0.208l0.208-0.078h0.221l0.208,0.078l0.078,0.208v1.521h1.053c0.806,0,1.441,0.11,1.905,0.331
		c0.464,0.221,0.797,0.578,1.001,1.072c0.204,0.494,0.306,1.17,0.306,2.028c0,1.118-0.253,1.972-0.76,2.561
		c-0.507,0.59-1.185,1.036-2.035,1.339l-0.546,0.195L162.703,259.602 M259.683,259.485h-0.221l-0.208-0.078l-0.078-0.208v-3.9
		c0-1.655-0.828-2.483-2.483-2.483h-0.988c-0.087,0.624-0.15,1.127-0.189,1.508c-0.039,0.381-0.054,0.815-0.045,1.3v3.575
		l-0.078,0.208l-0.208,0.078l-1.482-0.026l-0.208-0.078l-0.078-0.208v-0.182l0.078-0.208l0.208-0.078l0.975,0.013v-3.029v-0.403
		c0-0.476,0.017-0.895,0.052-1.254c0.035-0.36,0.1-0.765,0.195-1.216h-0.663l-0.208-0.078l-0.078-0.208v-0.182l0.078-0.208
		l0.208-0.078h2.496c1.083,0,1.889,0.271,2.418,0.813s0.793,1.328,0.793,2.359v3.965l-0.078,0.208L259.683,259.485 M252,259.485
		h-5.2l-0.208-0.078l-0.078-0.208v-0.182l0.078-0.208l0.208-0.078h3.913v-3.432c0-1.655-0.828-2.483-2.483-2.483h-1.3l-0.208-0.078
		l-0.078-0.208v-0.182l0.078-0.208l0.208-0.078h1.365c1.083,0,1.889,0.273,2.418,0.819s0.793,1.33,0.793,2.353v3.497H252
		l0.208,0.078l0.078,0.208v0.182l-0.078,0.208L252,259.485 M235.503,259.485h-5.2l-0.208-0.078l-0.078-0.208v-0.182l0.078-0.208
		l0.208-0.078h3.913v-3.432c0-1.655-0.828-2.483-2.483-2.483h-1.3l-0.208-0.078l-0.078-0.208v-0.182l0.078-0.208l0.208-0.078h1.365
		c1.083,0,1.889,0.273,2.418,0.819c0.529,0.546,0.793,1.33,0.793,2.353v3.497h0.494l0.208,0.078l0.078,0.208v0.182l-0.078,0.208
		L235.503,259.485 M227.963,259.485h-3.289l-0.208-0.078l-0.078-0.208v-0.182l0.078-0.208l0.208-0.078h2.782v-3.432
		c0-0.476-0.084-0.905-0.253-1.287c-0.169-0.381-0.403-0.676-0.702-0.884c-0.299-0.208-0.635-0.312-1.007-0.312h-1.508l-0.962,6.37
		l-0.11,0.214l-0.215,0.085h-0.234l-0.182-0.085l-0.052-0.214l0.949-6.37h-0.585l-0.208-0.078l-0.078-0.208v-0.182l0.078-0.208
		l0.208-0.078h2.964c0.52,0,0.983,0.13,1.391,0.39c0.407,0.26,0.726,0.631,0.956,1.111c0.23,0.481,0.344,1.038,0.344,1.671v3.965
		l-0.078,0.208L227.963,259.485 M213.676,259.485h-0.221l-0.208-0.078l-0.078-0.208v-3.9c0-1.655-0.828-2.483-2.483-2.483h-1.742
		v6.383l-0.078,0.208l-0.208,0.078h-0.221l-0.208-0.078l-0.078-0.208v-6.851l0.078-0.208l0.208-0.078h2.314
		c1.083,0,1.889,0.271,2.418,0.813c0.529,0.542,0.793,1.328,0.793,2.359v3.965l-0.078,0.208L213.676,259.485 M197.036,259.485
		h-2.158l-0.208-0.078l-0.078-0.208v-0.182l0.078-0.208l0.208-0.078h2.093c0.659,0,1.159-0.215,1.502-0.644
		c0.342-0.429,0.531-1.042,0.565-1.839c0.009-0.087,0.013-0.247,0.013-0.481c0-0.225-0.004-0.381-0.013-0.468
		c-0.018-0.789-0.201-1.399-0.552-1.833c-0.351-0.433-0.856-0.65-1.515-0.65h-1.768v1.235c0,0.407,0.043,0.726,0.13,0.956
		c0.087,0.23,0.238,0.37,0.455,0.422l0.533,0.13c0.147,0.043,0.221,0.182,0.221,0.416v0.182l-0.085,0.156l-0.214,0.052l-0.104-0.013
		l-0.494-0.117c-0.416-0.095-0.724-0.32-0.923-0.676c-0.199-0.355-0.299-0.858-0.299-1.508v-1.703l0.078-0.208l0.208-0.078h2.327
		c0.893,0,1.575,0.275,2.047,0.825c0.472,0.55,0.722,1.332,0.747,2.346c0.009,0.087,0.013,0.264,0.013,0.533
		c0,0.277-0.004,0.459-0.013,0.546c-0.026,1.014-0.275,1.796-0.747,2.346C198.611,259.21,197.929,259.485,197.036,259.485
		 M183.113,259.485h-2.158l-0.208-0.078l-0.078-0.208v-0.182l0.078-0.208l0.208-0.078h2.093c0.659,0,1.159-0.215,1.502-0.644
		c0.342-0.429,0.531-1.042,0.565-1.839c0.009-0.087,0.013-0.247,0.013-0.481c0-0.225-0.004-0.381-0.013-0.468
		c-0.018-0.789-0.201-1.399-0.552-1.833c-0.351-0.433-0.856-0.65-1.515-0.65h-1.768v1.235c0,0.407,0.043,0.726,0.13,0.956
		c0.087,0.23,0.238,0.37,0.455,0.422l0.533,0.13c0.147,0.043,0.221,0.182,0.221,0.416v0.182l-0.085,0.156l-0.214,0.052l-0.104-0.013
		l-0.494-0.117c-0.416-0.095-0.724-0.32-0.923-0.676c-0.199-0.355-0.299-0.858-0.299-1.508v-1.703l0.078-0.208l0.208-0.078h2.327
		c0.893,0,1.575,0.275,2.047,0.825c0.472,0.55,0.722,1.332,0.747,2.346c0.009,0.087,0.013,0.264,0.013,0.533
		c0,0.277-0.004,0.459-0.013,0.546c-0.026,1.014-0.275,1.796-0.747,2.346C184.688,259.21,184.006,259.485,183.113,259.485
		 M156.112,259.485h-3.289l-0.208-0.078l-0.078-0.208v-0.182l0.078-0.208l0.208-0.078h2.782v-3.432c0-0.476-0.085-0.905-0.253-1.287
		c-0.169-0.381-0.403-0.676-0.702-0.884c-0.299-0.208-0.635-0.312-1.008-0.312h-1.508l-0.962,6.37l-0.11,0.214l-0.214,0.085h-0.234
		l-0.182-0.085l-0.052-0.214l0.949-6.37h-0.585l-0.208-0.078l-0.078-0.208v-0.182l0.078-0.208l0.208-0.078h2.964
		c0.52,0,0.983,0.13,1.391,0.39c0.407,0.26,0.726,0.631,0.956,1.111c0.23,0.481,0.345,1.038,0.345,1.671v3.965l-0.078,0.208
		L156.112,259.485 M148.222,259.485h-0.221l-0.208-0.078l-0.078-0.208v-6.851l0.078-0.208l0.208-0.078h0.221l0.208,0.078
		l0.078,0.208v6.851l-0.078,0.208L148.222,259.485 M138.914,259.485h-0.221l-0.208-0.078l-0.078-0.208v-6.851l0.078-0.208
		l0.208-0.078h0.221l0.208,0.078l0.078,0.208v6.851l-0.078,0.208L138.914,259.485 M136.015,259.485h-3.289l-0.208-0.078
		l-0.078-0.208v-0.182l0.078-0.208l0.208-0.078h2.782v-3.432c0-0.476-0.084-0.905-0.253-1.287c-0.169-0.381-0.403-0.676-0.702-0.884
		c-0.299-0.208-0.635-0.312-1.008-0.312h-1.508l-0.962,6.37l-0.11,0.214l-0.215,0.085h-0.234l-0.182-0.085l-0.052-0.214l0.949-6.37
		h-0.585l-0.208-0.078l-0.078-0.208v-0.182l0.078-0.208l0.208-0.078h2.964c0.52,0,0.983,0.13,1.391,0.39
		c0.407,0.26,0.726,0.631,0.956,1.111c0.23,0.481,0.345,1.038,0.345,1.671v3.965l-0.078,0.208L136.015,259.485 M125.355,259.485
		h-0.221l-0.208-0.078l-0.078-0.208v-6.851l0.078-0.208l0.208-0.078h0.221l0.208,0.078l0.078,0.208v6.851l-0.078,0.208
		L125.355,259.485 M122.781,259.485h-3.224l-0.208-0.078l-0.078-0.208v-0.182l0.078-0.208l0.208-0.078h2.691l-0.247-3.562
		l-0.013-0.273c-0.035-0.52-0.078-0.914-0.13-1.183c-0.052-0.269-0.165-0.485-0.338-0.65c-0.173-0.165-0.438-0.247-0.793-0.247
		h-0.481l-0.208-0.078l-0.078-0.208v-0.182l0.078-0.208l0.208-0.078h0.481c0.58,0,1.012,0.126,1.293,0.377
		c0.282,0.251,0.468,0.576,0.559,0.975c0.091,0.399,0.163,0.962,0.215,1.69l0.273,4.095v0.039l-0.084,0.176L122.781,259.485
		 M116.034,259.485h-0.221l-0.208-0.078l-0.078-0.208v-4.914c0-0.338,0.033-0.637,0.097-0.897c0.065-0.26,0.15-0.451,0.254-0.572
		h-1.183l-0.208-0.078l-0.078-0.208v-0.182l0.078-0.208l0.208-0.078h2.886l0.208,0.078l0.078,0.208v0.182l-0.078,0.208l-0.208,0.078
		h-0.832c-0.139,0.121-0.245,0.319-0.319,0.592c-0.074,0.273-0.11,0.587-0.11,0.943v4.849l-0.078,0.208L116.034,259.485
		 M158.907,256.495h-0.221l-0.208-0.078l-0.078-0.208v-3.861l0.078-0.208l0.208-0.078h0.221l0.208,0.078l0.078,0.208v3.861
		l-0.078,0.208L158.907,256.495 M128.228,256.495h-0.221l-0.208-0.078l-0.078-0.208v-3.861l0.078-0.208l0.208-0.078h0.221
		l0.208,0.078l0.078,0.208v3.861l-0.078,0.208L128.228,256.495"/>
	<path fill="#000000" d="M280.383,282.197c-0.72,0-1.341-0.121-1.866-0.364c-0.525-0.243-0.921-0.563-1.189-0.962
		c-0.269-0.398-0.412-0.827-0.429-1.287v-0.026l0.085-0.176l0.188-0.071h1.235c0.199,0,0.325,0.087,0.377,0.26
		c0.121,0.381,0.323,0.663,0.604,0.845c0.282,0.182,0.613,0.273,0.995,0.273c0.485,0,0.886-0.147,1.202-0.442
		c0.316-0.295,0.474-0.702,0.474-1.222c0-0.468-0.158-0.847-0.474-1.138c-0.316-0.29-0.717-0.435-1.202-0.435
		c-0.26,0-0.472,0.035-0.637,0.104c-0.165,0.07-0.325,0.165-0.481,0.286l-0.117,0.078l-0.162,0.091l-0.15,0.026h-1.222l-0.202-0.085
		l-0.084-0.201l0.442-4.433c0.009-0.113,0.05-0.202,0.123-0.267c0.074-0.065,0.163-0.098,0.266-0.098h4.888
		c0.095,0,0.171,0.028,0.228,0.085c0.056,0.056,0.084,0.132,0.084,0.228v0.884l-0.084,0.221c-0.056,0.061-0.132,0.091-0.228,0.091
		h-3.757l-0.208,2.106c0.199-0.13,0.429-0.236,0.689-0.319c0.26-0.082,0.598-0.123,1.014-0.123c0.563,0,1.086,0.119,1.567,0.358
		c0.481,0.238,0.867,0.581,1.157,1.027c0.29,0.447,0.436,0.964,0.436,1.554c0,0.633-0.148,1.185-0.442,1.657
		c-0.295,0.472-0.711,0.837-1.248,1.092C281.717,282.069,281.093,282.197,280.383,282.197"/>
	<path fill="#000000" d="M184.739,284.537h-0.221l-0.208-0.078l-0.078-0.208v-7.046l0.078-0.208l0.208-0.078h0.221l0.208,0.078
		l0.078,0.208v7.046l-0.078,0.208L184.739,284.537 M254.353,282.795l-0.175-0.065l-0.071-0.156v-0.169c0-0.2,0.06-0.321,0.182-0.364
		l1.781-0.65l-1.729-6.24c-0.043-0.147-0.065-0.234-0.065-0.26l0.078-0.182l0.182-0.078h0.234l0.195,0.058l0.104,0.137l1.781,6.279
		l0.13-0.052c0.711-0.26,1.209-0.633,1.495-1.118c0.286-0.485,0.429-1.075,0.429-1.768v-3.25l0.078-0.208l0.208-0.078h0.221
		l0.208,0.078l0.078,0.208v3.51c0,0.728-0.234,1.404-0.702,2.028c-0.468,0.624-1.088,1.075-1.859,1.352l-2.665,0.962
		L254.353,282.795 M215.236,282.184c-1.101,0-1.9-0.269-2.398-0.806c-0.499-0.537-0.747-1.326-0.747-2.366v-4.095l0.078-0.208
		l0.208-0.078h0.221l0.208,0.078l0.078,0.208v4.03c0,0.797,0.193,1.41,0.578,1.839c0.386,0.429,0.977,0.644,1.775,0.644
		c0.797,0,1.384-0.193,1.761-0.579c0.377-0.386,0.574-0.977,0.592-1.774v-0.442v-1.027c-0.017-0.78-0.191-1.356-0.52-1.729
		c-0.329-0.373-0.776-0.559-1.339-0.559c-0.165,0-0.353,0.031-0.566,0.091c-0.212,0.061-0.392,0.143-0.539,0.247l-0.13,0.039
		l-0.149-0.058l-0.072-0.15v-0.169v-0.065l0.026-0.182l0.104-0.117c0.199-0.13,0.405-0.228,0.617-0.293
		c0.212-0.065,0.47-0.098,0.774-0.098c0.806,0,1.432,0.243,1.878,0.728c0.446,0.486,0.682,1.235,0.708,2.249
		c0.009,0.087,0.013,0.351,0.013,0.793c0,0.451-0.004,0.72-0.013,0.806c-0.026,1.04-0.279,1.807-0.76,2.301
		C217.141,281.937,216.345,282.184,215.236,282.184 M263.232,282.171c-0.139,0-0.208-0.069-0.208-0.208v-0.325
		c0-0.147,0.091-0.256,0.273-0.325l0.533-0.208c0.667-0.26,1.176-0.619,1.527-1.079c0.351-0.459,0.527-1.144,0.527-2.054
		c0-0.65-0.078-1.161-0.234-1.534c-0.156-0.373-0.414-0.641-0.773-0.806c-0.36-0.165-0.852-0.247-1.475-0.247h-0.442h-0.039
		l-1.014-0.013l-0.208-0.071l-0.078-0.201v-1.989l0.078-0.208l0.208-0.078h0.221l0.208,0.078l0.078,0.208v1.521h1.053
		c0.806,0,1.441,0.11,1.904,0.331c0.464,0.221,0.797,0.579,1.001,1.073c0.204,0.494,0.306,1.17,0.306,2.028
		c0,1.118-0.253,1.972-0.76,2.561c-0.507,0.589-1.185,1.036-2.035,1.339l-0.546,0.195L263.232,282.171 M193.591,282.171
		c-0.139,0-0.208-0.069-0.208-0.208v-0.325c0-0.147,0.091-0.256,0.273-0.325l0.533-0.208c0.667-0.26,1.177-0.619,1.527-1.079
		c0.351-0.459,0.527-1.144,0.527-2.054c0-0.65-0.078-1.161-0.234-1.534c-0.156-0.373-0.414-0.641-0.773-0.806
		c-0.36-0.165-0.852-0.247-1.476-0.247h-0.442h-0.039l-1.014-0.013l-0.208-0.071l-0.078-0.201v-1.989l0.078-0.208l0.208-0.078h0.221
		l0.208,0.078l0.078,0.208v1.521h1.053c0.806,0,1.441,0.11,1.905,0.331c0.464,0.221,0.797,0.579,1.001,1.073
		c0.203,0.494,0.306,1.17,0.306,2.028c0,1.118-0.253,1.972-0.761,2.561c-0.507,0.589-1.185,1.036-2.034,1.339l-0.546,0.195
		L193.591,282.171 M186.663,282.171c-0.139,0-0.208-0.069-0.208-0.208v-0.325c0-0.147,0.091-0.256,0.273-0.325l0.533-0.208
		c0.667-0.26,1.176-0.619,1.527-1.079c0.351-0.459,0.527-1.144,0.527-2.054c0-0.65-0.078-1.161-0.234-1.534
		c-0.156-0.373-0.414-0.641-0.773-0.806c-0.36-0.165-0.852-0.247-1.476-0.247h-2.314l-0.208-0.078l-0.078-0.208v-0.182l0.078-0.208
		l0.208-0.078h2.379c0.806,0,1.441,0.11,1.904,0.331c0.464,0.221,0.797,0.579,1.001,1.073c0.203,0.494,0.305,1.17,0.305,2.028
		c0,1.118-0.253,1.972-0.76,2.561c-0.507,0.589-1.185,1.036-2.034,1.339l-0.546,0.195L186.663,282.171 M252.182,282.054h-0.221
		l-0.208-0.078l-0.078-0.208v-3.9c0-1.655-0.828-2.483-2.483-2.483h-1.586l-0.208-0.078l-0.078-0.208v-0.182l0.078-0.208
		l0.208-0.078h1.651c1.083,0,1.889,0.271,2.418,0.813c0.529,0.542,0.793,1.328,0.793,2.36v3.965l-0.078,0.208L252.182,282.054
		 M246.358,282.054h-5.2l-0.208-0.078l-0.078-0.208v-0.182l0.078-0.208l0.208-0.078h3.913v-3.432c0-1.655-0.828-2.483-2.483-2.483
		h-1.3l-0.208-0.078l-0.078-0.208v-0.182l0.078-0.208l0.208-0.078h1.365c1.083,0,1.889,0.273,2.418,0.819
		c0.529,0.546,0.793,1.33,0.793,2.353v3.497h0.494l0.208,0.078l0.078,0.208v0.182l-0.078,0.208L246.358,282.054 M239.442,282.054
		h-5.2l-0.208-0.078l-0.078-0.208v-0.182l0.078-0.208l0.208-0.078h3.913v-3.432c0-1.655-0.828-2.483-2.483-2.483h-1.3l-0.208-0.078
		l-0.078-0.208v-0.182l0.078-0.208l0.208-0.078h1.365c1.083,0,1.889,0.273,2.418,0.819c0.529,0.546,0.793,1.33,0.793,2.353v3.497
		h0.494l0.208,0.078l0.078,0.208v0.182l-0.078,0.208L239.442,282.054 M228.548,282.054h-0.221l-0.208-0.078l-0.078-0.208v-3.9
		c0-1.655-0.828-2.483-2.483-2.483h-2.236l-0.208-0.078l-0.078-0.208v-0.182l0.078-0.208l0.208-0.078h2.301
		c1.083,0,1.889,0.271,2.418,0.813c0.529,0.542,0.793,1.328,0.793,2.36v3.965l-0.078,0.208L228.548,282.054 M223.543,282.054h-0.221
		l-0.208-0.078l-0.078-0.208v-4.563l0.078-0.208l0.208-0.078h0.221l0.208,0.078l0.078,0.208v4.563l-0.078,0.208L223.543,282.054
		 M210.387,282.054h-5.2l-0.208-0.078l-0.078-0.208v-0.182l0.078-0.208l0.208-0.078h3.913v-3.432c0-1.655-0.828-2.483-2.483-2.483
		h-1.3l-0.208-0.078l-0.078-0.208v-0.182l0.078-0.208l0.208-0.078h1.365c1.083,0,1.889,0.273,2.418,0.819
		c0.529,0.546,0.793,1.33,0.793,2.353v3.497h0.494l0.208,0.078l0.078,0.208v0.182l-0.078,0.208L210.387,282.054 M199.415,282.054
		h-0.221l-0.208-0.078l-0.078-0.208v-6.851l0.078-0.208l0.208-0.078h0.221l0.208,0.078l0.078,0.208v6.851l-0.078,0.208
		L199.415,282.054 M181.84,282.054h-0.221l-0.208-0.078l-0.078-0.208v-3.9c0-1.655-0.828-2.483-2.483-2.483h-1.586l-0.208-0.078
		l-0.078-0.208v-0.182l0.078-0.208l0.208-0.078h1.651c1.083,0,1.889,0.271,2.418,0.813c0.529,0.542,0.793,1.328,0.793,2.36v3.965
		l-0.078,0.208L181.84,282.054 M175.223,282.054h-0.221l-0.208-0.078l-0.078-0.208v-3.9c0-1.655-0.828-2.483-2.483-2.483h-1.586
		l-0.208-0.078l-0.078-0.208v-0.182l0.078-0.208l0.208-0.078h1.651c1.083,0,1.889,0.271,2.418,0.813
		c0.529,0.542,0.793,1.328,0.793,2.36v3.965l-0.078,0.208L175.223,282.054 M220.67,279.064h-0.221l-0.208-0.078l-0.078-0.208v-3.861
		l0.078-0.208l0.208-0.078h0.221l0.208,0.078l0.078,0.208v3.861l-0.078,0.208L220.67,279.064"/>
</g>
</svg>
