<!-- Generator: Adobe InDesign 14.0 SVG Export Plug-in, SVG Library version: 6.0 build 234 -->
<!DOCTYPE svg PUBLIC "-//W3C//DTD SVG 1.1//EN" "http://www.w3.org/Graphics/SVG/1.1/DTD/svg11.dtd">
<svg version="1.1" xmlns="http://www.w3.org/2000/svg" xmlns:xlink="http://www.w3.org/1999/xlink" x="0%" y="0%" width="100%"
	 height="100%" viewBox="0 0 313.376 534.346" preserveAspectRatio="xMidYMid slice" overflow="visible" xml:space="preserve">
<clipPath id="clp_unq_id_1" fill="none">
	<path shape-rendering="crispEdges" stroke="#000000" d="M0,0h313.376v534.346H0V0"/>
</clipPath>
<g clip-path="url(#clp_unq_id_1)" fill="none">
	<path fill="#71A850" d="M238.241,25.504h2.568v-9c0-1.552-0.36-2.688-1.08-3.408s-1.72-1.08-3-1.08h-6.552v1.968h5.904
		c0.704,0,1.24,0.188,1.608,0.564c0.368,0.376,0.552,0.988,0.552,1.836V25.504z M230.105,25.504h2.568v-8.136h-2.208l-0.36,1.608
		V25.504z M243.233,25.504h6.456v-9.552c0-1.104-0.26-1.988-0.78-2.652c-0.52-0.664-1.26-1.068-2.22-1.212l-2.496-0.36l-0.336,1.944
		l1.632,0.24c0.544,0.08,0.952,0.276,1.224,0.588c0.272,0.312,0.408,0.812,0.408,1.5v7.536h-3.888V25.504z M252.833,20.464
		l2.544-0.48l0.024-1.512v-3.648l-0.312-2.808h-2.544l0.288,2.808V20.464z M265.241,12.016h-6.912v1.032v12.456h2.568v-11.52h3.696
		c1.44,0,2.16,0.88,2.16,2.64v8.88h2.568v-8.76c0-1.584-0.356-2.768-1.068-3.552C267.541,12.408,266.537,12.016,265.241,12.016z
		 M273.473,25.744c3.232-0.144,5.756-0.892,7.572-2.244c1.816-1.352,2.676-3.42,2.58-6.204l-0.024-0.672
		c-0.064-1.504-0.528-2.652-1.392-3.444c-0.864-0.792-2.016-1.236-3.456-1.332l-1.416-0.072l-0.192,2.016l1.2,0.072
		c0.912,0.064,1.6,0.376,2.064,0.936c0.464,0.56,0.696,1.272,0.696,2.136v0.672c0.112,3.504-1.68,5.44-5.376,5.808l-1.296-11.4
		h-2.568L273.473,25.744z"/>
	<path fill="#000000" d="M283.23,56.577h-0.546l-0.214-0.085l-0.085-0.215v-3.887c0-1.491-0.745-2.236-2.236-2.236h-1.586v6.123
		l-0.085,0.215l-0.214,0.085h-0.546l-0.214-0.085l-0.085-0.215v-6.825c0-0.095,0.028-0.169,0.085-0.221l0.214-0.078h2.496
		c1.118,0,1.95,0.266,2.496,0.8c0.546,0.533,0.819,1.332,0.819,2.398v3.926l-0.085,0.215L283.23,56.577 M275.105,56.577h-0.572
		l-0.215-0.085l-0.084-0.215v-6.825c0-0.095,0.028-0.169,0.084-0.221l0.215-0.078h0.572l0.214,0.085l0.085,0.214v6.825l-0.085,0.215
		L275.105,56.577 M271.985,56.577h-3.354l-0.208-0.085l-0.078-0.215v-0.416l0.078-0.214l0.208-0.085h2.509v-3.159
		c0-0.659-0.167-1.194-0.5-1.605c-0.334-0.412-0.756-0.618-1.268-0.618h-1.378l-1.001,6.084l-0.111,0.221l-0.215,0.091h-0.546
		l-0.201-0.091l-0.058-0.221l1.04-6.084h-0.663l-0.214-0.084l-0.085-0.215v-0.429l0.085-0.214l0.214-0.085h3.263
		c0.537,0,1.016,0.128,1.437,0.384c0.42,0.256,0.749,0.622,0.988,1.099c0.238,0.477,0.357,1.04,0.357,1.69v3.952l-0.084,0.215
		L271.985,56.577 M263.912,56.577h-0.546l-0.214-0.085l-0.085-0.215v-3.887c0-1.491-0.746-2.236-2.236-2.236h-1.677l-0.215-0.078
		l-0.085-0.208v-0.416l0.085-0.214l0.215-0.085h1.755c2.201,0,3.302,1.057,3.302,3.172v3.952l-0.085,0.215L263.912,56.577
		 M253.902,56.577h-5.447l-0.214-0.085l-0.085-0.215v-6.825c0-0.095,0.028-0.169,0.085-0.221l0.214-0.078h2.457
		c1.109,0,1.935,0.264,2.476,0.793c0.541,0.529,0.813,1.322,0.813,2.379v3.952l-0.085,0.215L253.902,56.577 M249.235,50.155v5.408
		h3.848v-3.172c0-1.491-0.745-2.236-2.236-2.236H249.235 M245.92,56.577h-0.897l-0.208-0.085l-0.078-0.215v-0.871
		c0-0.095,0.026-0.171,0.078-0.228l0.208-0.084h0.897c0.095,0,0.171,0.028,0.228,0.084c0.056,0.057,0.085,0.132,0.085,0.228v0.871
		l-0.091,0.215L245.92,56.577 M256.931,53.561h-0.572l-0.215-0.085l-0.085-0.214v-3.809c0-0.095,0.028-0.169,0.085-0.221
		l0.215-0.078h0.572l0.214,0.085l0.085,0.214v3.809l-0.085,0.214L256.931,53.561 M245.92,52.027h-0.897l-0.208-0.084l-0.078-0.215
		v-0.871c0-0.095,0.026-0.171,0.078-0.228l0.208-0.084h0.897c0.095,0,0.171,0.028,0.228,0.084c0.056,0.056,0.085,0.132,0.085,0.228
		v0.871l-0.091,0.215L245.92,52.027"/>
	<path fill="#000000" d="M280.487,73.607c-1.136,0-1.963-0.271-2.483-0.812c-0.52-0.542-0.78-1.333-0.78-2.373v-4.069
		c0-0.095,0.028-0.169,0.084-0.221l0.215-0.078h0.494c0.095,0,0.169,0.026,0.221,0.078c0.052,0.052,0.078,0.126,0.078,0.221v4.004
		c0,0.719,0.18,1.27,0.539,1.651c0.36,0.382,0.903,0.572,1.632,0.572c0.719,0,1.25-0.175,1.593-0.527
		c0.342-0.351,0.522-0.882,0.539-1.593v-0.403v-0.936c-0.018-0.71-0.169-1.239-0.455-1.586c-0.286-0.347-0.676-0.52-1.17-0.52
		c-0.156,0-0.329,0.028-0.52,0.084c-0.191,0.056-0.355,0.128-0.494,0.215l-0.13,0.039l-0.163-0.071l-0.072-0.163v-0.377
		c0-0.104,0.009-0.186,0.026-0.247l0.143-0.156c0.182-0.121,0.375-0.21,0.578-0.266c0.204-0.056,0.462-0.085,0.774-0.085
		c0.84,0,1.48,0.245,1.917,0.735c0.438,0.49,0.67,1.246,0.696,2.268c0.009,0.087,0.013,0.343,0.013,0.767
		c0,0.425-0.004,0.68-0.013,0.767c-0.035,1.04-0.306,1.813-0.813,2.32C282.43,73.354,281.613,73.607,280.487,73.607 M235.741,73.607
		l-0.163-0.065l-0.072-0.182v-0.572c0-0.156,0.095-0.273,0.286-0.351l0.507-0.195c0.598-0.225,1.057-0.55,1.378-0.975
		c0.321-0.425,0.481-1.049,0.481-1.872c0-0.581-0.069-1.038-0.208-1.372c-0.139-0.333-0.366-0.574-0.682-0.721
		c-0.316-0.147-0.752-0.221-1.307-0.221h-0.403h-0.039l-1.196-0.013l-0.215-0.078l-0.084-0.208v-2.236l0.084-0.215l0.215-0.084h0.52
		l0.208,0.084l0.078,0.215v1.508h1.001c0.789,0,1.415,0.113,1.879,0.338c0.464,0.225,0.8,0.585,1.008,1.079s0.312,1.153,0.312,1.976
		c0,1.109-0.273,1.974-0.819,2.593c-0.546,0.62-1.257,1.077-2.132,1.372l-0.546,0.182L235.741,73.607 M244.074,73.594
		c-0.147,0-0.221-0.069-0.221-0.208v-0.611c0-0.147,0.091-0.256,0.273-0.325c0.026-0.009,0.197-0.067,0.514-0.176
		c0.316-0.108,0.6-0.245,0.851-0.409c0.26-0.165,0.516-0.392,0.767-0.682c0.251-0.29,0.429-0.566,0.533-0.825l-0.234-1.17
		c-0.104-0.511-0.214-0.916-0.331-1.215c-0.117-0.299-0.275-0.527-0.474-0.683c-0.199-0.156-0.46-0.234-0.78-0.234h-0.481
		l-0.214-0.078l-0.085-0.208v-0.442l0.085-0.215l0.214-0.084h0.481c0.554,0,1.01,0.113,1.365,0.338
		c0.355,0.226,0.639,0.561,0.852,1.008c0.212,0.447,0.392,1.029,0.539,1.748l0.78,4.056v0.052l-0.085,0.176l-0.201,0.072h-0.572
		c-0.165,0-0.264-0.1-0.299-0.299l-0.299-1.521c-0.321,0.494-0.689,0.88-1.105,1.157c-0.321,0.217-0.62,0.384-0.897,0.501
		c-0.277,0.117-0.572,0.206-0.884,0.266L244.074,73.594 M275.04,73.477h-0.546l-0.215-0.085l-0.084-0.215v-3.887
		c0-1.491-0.745-2.236-2.236-2.236h-1.586v6.123l-0.085,0.215l-0.215,0.085h-0.546l-0.215-0.085l-0.084-0.215v-6.825
		c0-0.095,0.028-0.169,0.084-0.221l0.215-0.078h2.496c1.118,0,1.95,0.266,2.496,0.8c0.546,0.533,0.819,1.332,0.819,2.398v3.926
		l-0.085,0.215L275.04,73.477 M264.289,73.477h-3.471l-0.214-0.085l-0.085-0.215v-0.416l0.085-0.215l0.214-0.085h2.561l-0.208-3.302
		c-0.043-0.563-0.089-0.977-0.136-1.242c-0.048-0.264-0.154-0.479-0.318-0.644c-0.165-0.165-0.42-0.247-0.767-0.247h-0.533
		l-0.215-0.078l-0.085-0.208v-0.416l0.085-0.215l0.215-0.084h0.533c0.624,0,1.103,0.123,1.437,0.37
		c0.333,0.247,0.563,0.587,0.689,1.021c0.125,0.434,0.21,1.001,0.253,1.703l0.247,4.056v0.039l-0.085,0.188L264.289,73.477
		 M258.699,73.477h-0.546l-0.214-0.085l-0.085-0.215v-3.887c0-1.491-0.741-2.236-2.223-2.236h-2.418l-0.214-0.078l-0.085-0.208
		v-0.416c0-0.095,0.028-0.169,0.085-0.221l0.214-0.078h2.483c2.201,0,3.302,1.066,3.302,3.198v3.926l-0.085,0.215L258.699,73.477
		 M253.759,73.477h-0.546l-0.214-0.085l-0.085-0.215V68.81l0.085-0.215l0.214-0.084h0.546l0.215,0.084l0.084,0.215v4.368
		l-0.084,0.215L253.759,73.477 M241.916,73.477h-0.572l-0.214-0.085l-0.085-0.215v-6.825c0-0.095,0.028-0.169,0.085-0.221
		l0.214-0.078h0.572l0.215,0.085l0.085,0.214v6.825l-0.085,0.215L241.916,73.477 M232.245,73.477h-3.354l-0.208-0.085l-0.078-0.215
		v-0.416l0.078-0.215l0.208-0.085h2.509v-3.159c0-0.659-0.167-1.194-0.501-1.605c-0.334-0.412-0.756-0.617-1.267-0.617h-1.378
		l-1.001,6.084l-0.111,0.221l-0.214,0.091h-0.546l-0.201-0.091l-0.059-0.221l1.04-6.084h-0.663l-0.215-0.085l-0.085-0.215v-0.429
		l0.085-0.214l0.215-0.085h3.263c0.537,0,1.016,0.128,1.436,0.384c0.42,0.256,0.75,0.622,0.988,1.099
		c0.238,0.477,0.358,1.04,0.358,1.69v3.952l-0.085,0.215L232.245,73.477 M221.169,73.477h-0.546l-0.214-0.085l-0.085-0.215v-3.887
		c0-1.491-0.745-2.236-2.236-2.236h-0.936c-0.087,0.546-0.149,0.999-0.188,1.359c-0.039,0.36-0.054,0.769-0.045,1.229l0.026,3.536
		l-0.084,0.215l-0.215,0.085l-1.807-0.026l-0.215-0.084l-0.085-0.215v-0.39l0.085-0.215l0.215-0.085l1.001,0.013v-2.782
		c-0.009-0.546,0.002-1.007,0.033-1.384c0.03-0.377,0.102-0.795,0.214-1.254h-0.702l-0.214-0.078l-0.085-0.208v-0.416
		c0-0.095,0.028-0.169,0.085-0.221l0.214-0.078h2.782c2.201,0,3.302,1.057,3.302,3.172v3.952l-0.085,0.215L221.169,73.477
		 M267.006,70.461h-0.572l-0.214-0.085l-0.085-0.214v-3.809c0-0.095,0.028-0.169,0.085-0.221l0.214-0.078h0.572l0.215,0.085
		l0.085,0.214v3.809l-0.085,0.214L267.006,70.461 M224.198,70.461h-0.572l-0.214-0.085l-0.085-0.214v-3.809
		c0-0.095,0.028-0.169,0.085-0.221l0.214-0.078h0.572l0.215,0.085l0.085,0.214v3.809l-0.085,0.214L224.198,70.461"/>
	<path fill="#000000" d="M280.201,90.457c-0.039,0-0.078,0-0.118-0.001h-0.962c-0.563,0-1.07-0.13-1.521-0.39
		c-0.451-0.26-0.804-0.626-1.06-1.099c-0.256-0.472-0.384-1.016-0.384-1.631v-4.082c0-0.095,0.028-0.169,0.085-0.221l0.214-0.078
		h0.507l0.215,0.085l0.085,0.214l0.039,3.692c0.789-0.06,1.337-0.273,1.645-0.637c0.308-0.364,0.462-0.84,0.462-1.43v-1.625
		l0.085-0.214l0.214-0.085h0.507l0.215,0.085l0.084,0.214v1.677c0,0.832-0.264,1.517-0.793,2.054
		c-0.529,0.537-1.304,0.832-2.327,0.884c0.138,0.503,0.396,0.89,0.773,1.164c0.377,0.273,0.83,0.41,1.359,0.41h0.416
		c0.015,0,0.029,0,0.043,0c0.802,0,1.429-0.238,1.881-0.715c0.459-0.485,0.689-1.131,0.689-1.937v-3.536l0.085-0.214l0.214-0.085
		h0.507l0.214,0.085l0.085,0.214v3.614c0,0.728-0.15,1.367-0.449,1.918c-0.299,0.55-0.72,0.971-1.261,1.261
		C281.438,90.32,280.855,90.457,280.201,90.457 M273.974,90.377h-0.572l-0.215-0.085l-0.084-0.214v-6.825
		c0-0.095,0.028-0.169,0.084-0.221l0.215-0.078h0.572l0.214,0.085l0.085,0.214v6.825l-0.085,0.214L273.974,90.377 M270.854,90.377
		h-5.447l-0.214-0.085l-0.085-0.214v-6.825c0-0.095,0.028-0.169,0.085-0.221l0.214-0.078h2.457c1.109,0,1.935,0.264,2.476,0.793
		c0.542,0.529,0.813,1.322,0.813,2.379v3.952l-0.085,0.214L270.854,90.377 M266.187,83.955v5.408h3.848v-3.172
		c0-1.491-0.745-2.236-2.236-2.236H266.187"/>
	<path fill="#000000" d="M262.092,108.889h-0.546l-0.214-0.078c-0.056-0.052-0.085-0.126-0.085-0.221v-8.437
		c0-0.095,0.028-0.169,0.085-0.221l0.214-0.078h0.546l0.215,0.085l0.084,0.214v8.437l-0.084,0.215L262.092,108.889 M280.175,107.407
		l-0.163-0.065l-0.072-0.182v-0.572c0-0.156,0.095-0.273,0.286-0.351l0.507-0.195c0.598-0.225,1.057-0.55,1.378-0.975
		c0.32-0.425,0.481-1.049,0.481-1.872c0-0.58-0.069-1.038-0.208-1.371c-0.139-0.334-0.366-0.574-0.682-0.722
		c-0.316-0.147-0.752-0.221-1.307-0.221h-0.403h-0.039l-1.196-0.013l-0.215-0.078l-0.084-0.208v-2.236l0.084-0.214l0.215-0.085h0.52
		l0.208,0.085l0.078,0.214v1.508h1.001c0.789,0,1.415,0.113,1.878,0.338c0.464,0.226,0.8,0.585,1.008,1.079
		c0.208,0.494,0.312,1.153,0.312,1.976c0,1.109-0.273,1.974-0.819,2.593c-0.546,0.62-1.257,1.077-2.132,1.372l-0.546,0.182
		L280.175,107.407 M273.428,107.277h-3.354l-0.208-0.085l-0.078-0.214v-0.416l0.078-0.215l0.208-0.084h2.509v-3.159
		c0-0.659-0.167-1.194-0.5-1.605c-0.334-0.412-0.756-0.617-1.268-0.617h-1.378l-1.001,6.084l-0.111,0.221l-0.215,0.091h-0.546
		l-0.201-0.091l-0.058-0.221l1.04-6.084h-0.663l-0.214-0.085l-0.085-0.214v-0.429l0.085-0.214l0.214-0.085h3.263
		c0.537,0,1.016,0.128,1.437,0.384c0.42,0.256,0.75,0.622,0.988,1.099c0.238,0.477,0.357,1.04,0.357,1.69v3.952l-0.084,0.214
		L273.428,107.277 M265.29,107.277h-0.572l-0.215-0.085l-0.084-0.214v-6.825c0-0.095,0.028-0.169,0.084-0.221l0.215-0.078h0.572
		l0.214,0.085l0.085,0.214v6.825l-0.085,0.214L265.29,107.277 M276.457,104.261h-0.572l-0.215-0.084l-0.085-0.215v-3.809
		c0-0.095,0.028-0.169,0.085-0.221l0.215-0.078h0.572l0.214,0.085l0.085,0.214v3.809l-0.085,0.215L276.457,104.261"/>
	<path fill="#000000" d="M272.102,124.307l-0.162-0.065l-0.072-0.182v-0.572c0-0.156,0.095-0.273,0.286-0.351l0.507-0.195
		c0.598-0.225,1.057-0.55,1.378-0.975c0.321-0.425,0.481-1.049,0.481-1.872c0-0.58-0.069-1.038-0.208-1.371
		c-0.139-0.334-0.366-0.574-0.682-0.722c-0.316-0.147-0.752-0.221-1.306-0.221h-0.403h-0.039l-1.196-0.013l-0.214-0.078
		l-0.085-0.208v-2.236l0.085-0.214l0.214-0.085h0.52l0.208,0.085l0.078,0.214v1.508h1.001c0.789,0,1.415,0.113,1.879,0.338
		c0.464,0.226,0.8,0.585,1.008,1.079c0.208,0.494,0.312,1.153,0.312,1.976c0,1.109-0.273,1.974-0.819,2.593
		c-0.546,0.62-1.257,1.077-2.132,1.372l-0.546,0.182L272.102,124.307 M283.23,124.177h-3.354l-0.208-0.085l-0.078-0.214v-0.416
		l0.078-0.215l0.208-0.084h2.509v-3.159c0-0.659-0.167-1.194-0.501-1.605c-0.334-0.411-0.756-0.617-1.267-0.617h-1.378l-1.001,6.084
		l-0.111,0.221l-0.214,0.091h-0.546l-0.201-0.091l-0.059-0.221l1.04-6.084h-0.663l-0.215-0.085l-0.085-0.214v-0.429l0.085-0.215
		l0.215-0.085h3.263c0.537,0,1.016,0.128,1.436,0.384c0.42,0.256,0.75,0.622,0.988,1.099c0.238,0.477,0.358,1.04,0.358,1.69v3.952
		l-0.085,0.214L283.23,124.177 M268.605,124.177h-0.546l-0.215-0.085l-0.085-0.214v-3.887c0-1.491-0.745-2.236-2.236-2.236h-1.586
		v6.123l-0.085,0.214l-0.215,0.085h-0.546l-0.215-0.085l-0.085-0.214v-6.825c0-0.095,0.028-0.169,0.085-0.221l0.215-0.078h2.496
		c1.118,0,1.95,0.267,2.496,0.8c0.546,0.533,0.819,1.332,0.819,2.398v3.926l-0.085,0.214L268.605,124.177"/>
	<path fill="#000000" d="M255.93,143.56h-0.533l-0.215-0.078c-0.056-0.052-0.085-0.126-0.085-0.221v-6.851l0.085-0.214l0.215-0.085
		h0.533l0.215,0.085l0.084,0.214v6.851l-0.084,0.214L255.93,143.56 M257.776,141.207l-0.163-0.065l-0.071-0.182v-0.572
		c0-0.156,0.095-0.273,0.286-0.351l0.507-0.195c0.598-0.225,1.057-0.55,1.378-0.975c0.321-0.425,0.481-1.049,0.481-1.872
		c0-0.581-0.069-1.038-0.208-1.372c-0.139-0.334-0.366-0.574-0.682-0.722c-0.316-0.147-0.752-0.221-1.307-0.221h-2.6l-0.215-0.085
		l-0.085-0.214v-0.442l0.085-0.208l0.215-0.078h2.756c0.797,0,1.428,0.113,1.892,0.338c0.464,0.226,0.799,0.585,1.007,1.079
		s0.312,1.153,0.312,1.976c0,1.109-0.273,1.974-0.819,2.593c-0.546,0.62-1.257,1.077-2.132,1.372l-0.546,0.182L257.776,141.207
		 M283.23,141.077h-3.354l-0.208-0.085l-0.078-0.214v-0.416l0.078-0.215l0.208-0.084h2.509v-3.159c0-0.659-0.167-1.194-0.501-1.605
		c-0.334-0.411-0.756-0.617-1.267-0.617h-1.378l-1.001,6.084l-0.111,0.221l-0.214,0.091h-0.546l-0.201-0.091l-0.059-0.221
		l1.04-6.084h-0.663l-0.215-0.085l-0.085-0.214v-0.429l0.085-0.215l0.215-0.085h3.263c0.537,0,1.016,0.128,1.436,0.384
		c0.42,0.256,0.75,0.622,0.988,1.099c0.238,0.477,0.358,1.04,0.358,1.69v3.952l-0.085,0.214L283.23,141.077 M272.154,141.077h-5.447
		l-0.215-0.085l-0.084-0.214v-6.825c0-0.095,0.028-0.169,0.084-0.221l0.215-0.078h2.457c1.109,0,1.935,0.265,2.476,0.793
		c0.541,0.529,0.813,1.322,0.813,2.379v3.952l-0.085,0.214L272.154,141.077 M267.487,134.655v5.408h3.848v-3.172
		c0-1.491-0.745-2.236-2.236-2.236H267.487 M252.849,141.077h-0.546l-0.214-0.085l-0.085-0.214v-3.887
		c0-1.491-0.745-2.236-2.236-2.236h-1.677l-0.214-0.078l-0.085-0.208v-0.416l0.085-0.215l0.214-0.085h1.755
		c2.201,0,3.302,1.058,3.302,3.172v3.952l-0.084,0.214L252.849,141.077 M242.84,141.077h-5.447l-0.214-0.085l-0.085-0.214v-6.825
		c0-0.095,0.028-0.169,0.085-0.221l0.214-0.078h2.457c1.109,0,1.935,0.265,2.477,0.793c0.542,0.529,0.812,1.322,0.812,2.379v3.952
		l-0.084,0.214L242.84,141.077 M238.173,134.655v5.408h3.848v-3.172c0-1.491-0.745-2.236-2.236-2.236H238.173 M275.183,138.061
		h-0.572l-0.214-0.084l-0.085-0.215v-3.809c0-0.095,0.028-0.169,0.085-0.221l0.214-0.078h0.572l0.215,0.085l0.085,0.215v3.809
		l-0.085,0.215L275.183,138.061 M245.869,138.061h-0.572l-0.215-0.084l-0.084-0.215v-3.809c0-0.095,0.028-0.169,0.084-0.221
		l0.215-0.078h0.572l0.214,0.085l0.085,0.215v3.809l-0.085,0.215L245.869,138.061"/>
	<path fill="#000000" d="M283.243,174.877h-1.209l-0.221-0.091l-0.091-0.221v-6.708l-1.963,1.508l-0.195,0.065
		c-0.104,0-0.186-0.043-0.247-0.13l-0.559-0.728l-0.065-0.182c0-0.104,0.047-0.191,0.143-0.26l2.912-2.262
		c0.095-0.06,0.203-0.091,0.325-0.091h1.17l0.221,0.091l0.091,0.221v8.476l-0.091,0.221L283.243,174.877"/>
	<path fill="#000000" d="M249.894,176.489h-0.221l-0.208-0.078l-0.078-0.208v-8.463l0.078-0.208l0.208-0.078h0.221l0.208,0.078
		l0.078,0.208v8.463l-0.078,0.208L249.894,176.489 M219.098,176.489h-0.221l-0.208-0.078l-0.078-0.208v-8.463l0.078-0.208
		l0.208-0.078h0.221l0.208,0.078l0.078,0.208v8.463l-0.078,0.208L219.098,176.489 M183.257,175.007c-1.101,0-1.9-0.268-2.398-0.806
		c-0.498-0.537-0.747-1.326-0.747-2.366v-4.095l0.078-0.208l0.208-0.078h0.221l0.208,0.078l0.078,0.208v4.03
		c0,0.797,0.193,1.41,0.579,1.839c0.386,0.429,0.977,0.643,1.774,0.643c0.797,0,1.384-0.193,1.762-0.578
		c0.377-0.386,0.574-0.977,0.592-1.775v-0.442v-1.027c-0.018-0.78-0.191-1.356-0.52-1.729c-0.329-0.373-0.776-0.559-1.339-0.559
		c-0.165,0-0.353,0.031-0.565,0.091c-0.212,0.061-0.392,0.143-0.539,0.247l-0.13,0.039l-0.15-0.059l-0.071-0.149v-0.169v-0.065
		l0.026-0.182l0.104-0.117c0.199-0.13,0.405-0.227,0.617-0.292c0.212-0.065,0.47-0.098,0.773-0.098c0.806,0,1.432,0.243,1.878,0.728
		c0.446,0.485,0.682,1.235,0.709,2.249c0.009,0.087,0.013,0.351,0.013,0.793c0,0.451-0.004,0.719-0.013,0.806
		c-0.026,1.04-0.28,1.807-0.76,2.301C185.162,174.76,184.366,175.007,183.257,175.007 M133.637,175.007
		c-1.101,0-1.9-0.268-2.399-0.806c-0.498-0.537-0.747-1.326-0.747-2.366v-4.095l0.078-0.208l0.208-0.078h0.221l0.208,0.078
		l0.078,0.208v4.03c0,0.797,0.193,1.41,0.579,1.839c0.386,0.429,0.977,0.643,1.775,0.643c0.797,0,1.384-0.193,1.761-0.578
		c0.377-0.386,0.574-0.977,0.592-1.775v-0.442v-1.027c-0.018-0.78-0.191-1.356-0.52-1.729c-0.329-0.373-0.776-0.559-1.339-0.559
		c-0.165,0-0.353,0.031-0.566,0.091c-0.212,0.061-0.392,0.143-0.539,0.247l-0.13,0.039l-0.149-0.059l-0.072-0.149v-0.169v-0.065
		l0.026-0.182l0.104-0.117c0.199-0.13,0.405-0.227,0.617-0.292c0.212-0.065,0.47-0.098,0.774-0.098c0.806,0,1.432,0.243,1.879,0.728
		c0.446,0.485,0.682,1.235,0.708,2.249c0.009,0.087,0.013,0.351,0.013,0.793c0,0.451-0.004,0.719-0.013,0.806
		c-0.026,1.04-0.28,1.807-0.76,2.301C135.541,174.76,134.746,175.007,133.637,175.007 M240.716,174.994
		c-0.139,0-0.208-0.069-0.208-0.208v-0.325c0-0.147,0.091-0.255,0.273-0.325l0.533-0.208c0.667-0.26,1.176-0.619,1.527-1.079
		c0.351-0.459,0.527-1.144,0.527-2.054c0-0.65-0.078-1.161-0.234-1.534c-0.156-0.373-0.414-0.641-0.773-0.806
		c-0.36-0.165-0.852-0.247-1.475-0.247h-0.442h-0.039l-1.014-0.013l-0.208-0.071l-0.078-0.202v-1.989l0.078-0.208l0.208-0.078h0.221
		l0.208,0.078l0.078,0.208v1.521h1.053c0.806,0,1.441,0.111,1.904,0.331c0.464,0.221,0.797,0.578,1.001,1.072
		c0.204,0.494,0.306,1.17,0.306,2.028c0,1.118-0.253,1.972-0.76,2.561c-0.507,0.59-1.185,1.036-2.035,1.339l-0.546,0.195
		L240.716,174.994 M43.327,174.994c-0.139,0-0.208-0.069-0.208-0.208v-0.325c0-0.147,0.091-0.255,0.273-0.325l0.533-0.208
		c0.667-0.26,1.177-0.619,1.527-1.079c0.351-0.459,0.527-1.144,0.527-2.054c0-0.65-0.078-1.161-0.234-1.534
		c-0.156-0.373-0.414-0.641-0.773-0.806c-0.36-0.165-0.852-0.247-1.476-0.247h-0.442h-0.039l-1.014-0.013l-0.208-0.071l-0.078-0.202
		v-1.989l0.078-0.208l0.208-0.078h0.221l0.208,0.078l0.078,0.208v1.521h1.053c0.806,0,1.441,0.111,1.905,0.331
		c0.464,0.221,0.797,0.578,1.001,1.072c0.203,0.494,0.306,1.17,0.306,2.028c0,1.118-0.253,1.972-0.761,2.561
		c-0.507,0.59-1.185,1.036-2.034,1.339l-0.546,0.195L43.327,174.994 M266.482,174.877h-3.224l-0.208-0.078l-0.078-0.208v-0.182
		l0.078-0.208l0.208-0.078h2.691l-0.247-3.562l-0.013-0.273c-0.035-0.52-0.078-0.914-0.13-1.183
		c-0.052-0.268-0.165-0.485-0.338-0.65c-0.173-0.165-0.438-0.247-0.793-0.247h-0.481l-0.208-0.078l-0.078-0.208v-0.182l0.078-0.208
		l0.208-0.078h0.481c0.58,0,1.012,0.126,1.293,0.377c0.282,0.251,0.468,0.576,0.559,0.975c0.091,0.399,0.163,0.962,0.215,1.69
		l0.273,4.095v0.039l-0.084,0.176L266.482,174.877 M258.279,174.877h-0.221l-0.208-0.078l-0.078-0.208v-3.9
		c0-1.655-0.828-2.483-2.483-2.483h-0.988c-0.087,0.624-0.15,1.127-0.188,1.508c-0.039,0.381-0.054,0.815-0.045,1.3v3.575
		l-0.078,0.208l-0.208,0.078l-1.482-0.026l-0.208-0.078l-0.078-0.208v-0.182l0.078-0.208l0.208-0.078l0.975,0.013v-3.029v-0.403
		c0-0.476,0.017-0.895,0.052-1.254c0.035-0.36,0.1-0.765,0.195-1.216h-0.663l-0.208-0.078l-0.078-0.208v-0.182l0.078-0.208
		l0.208-0.078h2.496c1.083,0,1.889,0.271,2.418,0.813c0.529,0.542,0.793,1.328,0.793,2.359v3.965l-0.078,0.208L258.279,174.877
		 M237.167,174.877h-0.221l-0.208-0.078l-0.078-0.208v-3.9c0-1.655-0.828-2.483-2.483-2.483h-2.236l-0.208-0.078l-0.078-0.208
		v-0.182l0.078-0.208l0.208-0.078h2.301c1.083,0,1.889,0.271,2.418,0.813c0.529,0.542,0.793,1.328,0.793,2.359v3.965l-0.078,0.208
		L237.167,174.877 M232.162,174.877h-0.221l-0.208-0.078l-0.078-0.208v-4.563l0.078-0.208l0.208-0.078h0.221l0.208,0.078
		l0.078,0.208v4.563l-0.078,0.208L232.162,174.877 M226.559,174.877h-1.911l-0.208-0.078l-0.078-0.208v-0.182l0.078-0.208
		l0.208-0.078h1.846c0.849,0,1.467-0.21,1.853-0.631c0.386-0.42,0.596-1.038,0.63-1.852c0.009-0.13,0.013-0.29,0.013-0.481
		c0-0.182-0.004-0.338-0.013-0.468c-0.026-0.815-0.234-1.432-0.624-1.852c-0.39-0.42-1.01-0.631-1.859-0.631h-1.846l-0.208-0.078
		l-0.078-0.208v-0.182l0.078-0.208l0.208-0.078h1.911c1.075,0,1.87,0.269,2.385,0.806c0.516,0.537,0.791,1.326,0.825,2.366
		c0.009,0.13,0.013,0.308,0.013,0.533c0,0.234-0.004,0.416-0.013,0.546c-0.035,1.04-0.31,1.829-0.825,2.366
		C228.429,174.609,227.634,174.877,226.559,174.877 M213.157,174.877h-0.247l-0.176-0.045l-0.15-0.15l-3.211-4.472
		c-0.425,0.304-0.713,0.655-0.864,1.053c-0.152,0.399-0.228,0.841-0.228,1.326v2.002l-0.078,0.208l-0.208,0.078h-0.221l-0.208-0.078
		l-0.078-0.208v-2.067c0-0.615,0.098-1.164,0.292-1.645c0.195-0.481,0.579-0.908,1.151-1.28l-1.157-1.625
		c-0.07-0.104-0.104-0.19-0.104-0.26l0.078-0.182l0.182-0.078h0.247c0.121,0,0.23,0.065,0.325,0.195l2.938,4.095
		c0.364-0.199,0.628-0.405,0.793-0.617c0.164-0.212,0.266-0.427,0.305-0.644c0.039-0.216,0.059-0.507,0.059-0.871v-1.872
		l0.078-0.208l0.208-0.078h0.221l0.208,0.078l0.078,0.208v1.937c0,0.399-0.035,0.743-0.104,1.033
		c-0.069,0.29-0.214,0.572-0.435,0.845c-0.221,0.273-0.548,0.535-0.982,0.786l1.443,2.015c0.069,0.104,0.104,0.191,0.104,0.26
		l-0.078,0.182L213.157,174.877 M205.461,174.877h-0.221l-0.208-0.078l-0.078-0.208v-3.9c0-1.655-0.828-2.483-2.483-2.483h-0.988
		c-0.087,0.624-0.15,1.127-0.188,1.508c-0.039,0.381-0.054,0.815-0.046,1.3v3.575l-0.078,0.208l-0.208,0.078l-1.482-0.026
		l-0.208-0.078l-0.078-0.208v-0.182l0.078-0.208l0.208-0.078l0.975,0.013v-3.029v-0.403c0-0.476,0.017-0.895,0.052-1.254
		c0.035-0.36,0.1-0.765,0.195-1.216h-0.663l-0.208-0.078l-0.078-0.208v-0.182l0.078-0.208l0.208-0.078h2.496
		c1.083,0,1.889,0.271,2.418,0.813c0.529,0.542,0.793,1.328,0.793,2.359v3.965l-0.078,0.208L205.461,174.877 M193.8,174.877h-0.221
		l-0.208-0.078l-0.078-0.208v-3.9c0-1.655-0.828-2.483-2.483-2.483h-2.236l-0.208-0.078l-0.078-0.208v-0.182l0.078-0.208
		l0.208-0.078h2.301c1.083,0,1.889,0.271,2.418,0.813c0.529,0.542,0.793,1.328,0.793,2.359v3.965l-0.078,0.208L193.8,174.877
		 M188.795,174.877h-0.221l-0.208-0.078l-0.078-0.208v-4.563l0.078-0.208l0.208-0.078h0.221l0.208,0.078l0.078,0.208v4.563
		l-0.078,0.208L188.795,174.877 M177.784,174.877h-0.221l-0.208-0.078l-0.078-0.208v-3.9c0-1.655-0.828-2.483-2.483-2.483h-1.742
		v6.383l-0.078,0.208l-0.208,0.078h-0.221l-0.208-0.078l-0.078-0.208v-6.851l0.078-0.208l0.208-0.078h2.314
		c1.083,0,1.889,0.271,2.418,0.813c0.529,0.542,0.793,1.328,0.793,2.359v3.965l-0.078,0.208L177.784,174.877 M167.423,174.877
		h-3.224l-0.208-0.078l-0.078-0.208v-0.182l0.078-0.208l0.208-0.078h2.691l-0.247-3.562l-0.013-0.273
		c-0.035-0.52-0.078-0.914-0.13-1.183c-0.052-0.268-0.165-0.485-0.338-0.65c-0.173-0.165-0.438-0.247-0.793-0.247h-0.481
		l-0.208-0.078l-0.078-0.208v-0.182l0.078-0.208l0.208-0.078h0.481c0.581,0,1.012,0.126,1.294,0.377
		c0.282,0.251,0.468,0.576,0.559,0.975c0.091,0.399,0.163,0.962,0.214,1.69l0.273,4.095v0.039l-0.084,0.176L167.423,174.877
		 M161.99,174.877h-0.221l-0.208-0.078l-0.078-0.208v-3.9c0-1.655-0.828-2.483-2.483-2.483h-2.236l-0.208-0.078l-0.078-0.208v-0.182
		l0.078-0.208l0.208-0.078h2.301c1.083,0,1.889,0.271,2.418,0.813c0.529,0.542,0.793,1.328,0.793,2.359v3.965l-0.078,0.208
		L161.99,174.877 M156.985,174.877h-0.221l-0.208-0.078l-0.078-0.208v-4.563l0.078-0.208l0.208-0.078h0.221l0.208,0.078l0.078,0.208
		v4.563l-0.078,0.208L156.985,174.877 M151.577,174.877h-5.2l-0.208-0.078l-0.078-0.208v-0.182l0.078-0.208l0.208-0.078h3.913
		v-3.432c0-1.655-0.828-2.483-2.483-2.483h-1.3l-0.208-0.078l-0.078-0.208v-0.182l0.078-0.208l0.208-0.078h1.365
		c1.083,0,1.889,0.273,2.418,0.819c0.529,0.546,0.793,1.33,0.793,2.353v3.497h0.494l0.208,0.078l0.078,0.208v0.182l-0.078,0.208
		L151.577,174.877 M144.037,174.877h-3.289l-0.208-0.078l-0.078-0.208v-0.182l0.078-0.208l0.208-0.078h2.782v-3.432
		c0-0.476-0.085-0.905-0.253-1.287c-0.169-0.381-0.403-0.676-0.702-0.884c-0.299-0.208-0.635-0.312-1.008-0.312h-1.508l-0.962,6.37
		l-0.11,0.215l-0.214,0.084h-0.234l-0.182-0.084l-0.052-0.215l0.949-6.37h-0.585l-0.208-0.078l-0.078-0.208v-0.182l0.078-0.208
		l0.208-0.078h2.964c0.52,0,0.983,0.13,1.391,0.39c0.407,0.26,0.726,0.631,0.956,1.111c0.23,0.481,0.345,1.038,0.345,1.67v3.965
		l-0.078,0.208L144.037,174.877 M128.164,174.877h-0.221l-0.208-0.078l-0.078-0.208v-3.9c0-1.655-0.828-2.483-2.483-2.483h-1.586
		l-0.208-0.078l-0.078-0.208v-0.182l0.078-0.208l0.208-0.078h1.651c1.083,0,1.889,0.271,2.418,0.813
		c0.529,0.542,0.793,1.328,0.793,2.359v3.965l-0.078,0.208L128.164,174.877 M119.077,174.877h-2.158l-0.208-0.078l-0.078-0.208
		v-0.182l0.078-0.208l0.208-0.078h2.093c0.659,0,1.159-0.215,1.501-0.644c0.342-0.429,0.531-1.042,0.566-1.839
		c0.009-0.087,0.013-0.247,0.013-0.481c0-0.225-0.004-0.381-0.013-0.468c-0.018-0.789-0.201-1.399-0.552-1.833
		c-0.351-0.433-0.856-0.65-1.515-0.65h-1.768v1.235c0,0.407,0.043,0.726,0.13,0.956c0.087,0.23,0.238,0.37,0.455,0.422l0.533,0.13
		c0.147,0.043,0.221,0.182,0.221,0.416v0.182l-0.085,0.156l-0.214,0.052l-0.104-0.013l-0.494-0.117
		c-0.416-0.095-0.724-0.321-0.923-0.676c-0.199-0.355-0.299-0.858-0.299-1.508v-1.703l0.078-0.208l0.208-0.078h2.327
		c0.893,0,1.575,0.275,2.047,0.825c0.472,0.55,0.722,1.332,0.747,2.346c0.009,0.087,0.013,0.264,0.013,0.533
		c0,0.277-0.004,0.46-0.013,0.546c-0.026,1.014-0.275,1.796-0.747,2.346C120.652,174.602,119.969,174.877,119.077,174.877
		 M114.046,174.877h-0.221l-0.208-0.078l-0.078-0.208v-3.9c0-1.655-0.828-2.483-2.483-2.483h-2.236l-0.208-0.078l-0.078-0.208
		v-0.182l0.078-0.208l0.208-0.078h2.301c1.083,0,1.889,0.271,2.418,0.813c0.529,0.542,0.793,1.328,0.793,2.359v3.965l-0.078,0.208
		L114.046,174.877 M109.041,174.877h-0.221l-0.208-0.078l-0.078-0.208v-4.563l0.078-0.208l0.208-0.078h0.221l0.208,0.078
		l0.078,0.208v4.563l-0.078,0.208L109.041,174.877 M98.836,174.877h-0.221l-0.208-0.078l-0.078-0.208v-4.914
		c0-0.338,0.033-0.637,0.098-0.897c0.065-0.26,0.15-0.451,0.253-0.572h-3.783l-0.208-0.078l-0.078-0.208v-0.182l0.078-0.208
		l0.208-0.078h5.486l0.208,0.078l0.078,0.208v0.182l-0.078,0.208l-0.208,0.078h-0.832c-0.139,0.121-0.245,0.318-0.319,0.592
		c-0.074,0.273-0.11,0.587-0.11,0.943v4.849l-0.078,0.208L98.836,174.877 M93.441,174.877h-3.224l-0.208-0.078l-0.078-0.208v-0.182
		l0.078-0.208l0.208-0.078h2.691l-0.247-3.562l-0.013-0.273c-0.035-0.52-0.078-0.914-0.13-1.183
		c-0.052-0.268-0.165-0.485-0.338-0.65c-0.173-0.165-0.438-0.247-0.793-0.247h-0.481l-0.208-0.078l-0.078-0.208v-0.182l0.078-0.208
		l0.208-0.078h0.481c0.581,0,1.012,0.126,1.294,0.377c0.281,0.251,0.468,0.576,0.559,0.975c0.091,0.399,0.162,0.962,0.214,1.69
		l0.273,4.095v0.039l-0.085,0.176L93.441,174.877 M85.238,174.877h-0.221l-0.208-0.078l-0.078-0.208v-3.9
		c0-1.655-0.828-2.483-2.483-2.483H81.26c-0.087,0.624-0.149,1.127-0.188,1.508c-0.039,0.381-0.054,0.815-0.045,1.3v3.575
		l-0.078,0.208l-0.208,0.078l-1.482-0.026l-0.208-0.078l-0.078-0.208v-0.182l0.078-0.208l0.208-0.078l0.975,0.013v-3.029v-0.403
		c0-0.476,0.017-0.895,0.052-1.254c0.035-0.36,0.1-0.765,0.195-1.216h-0.663l-0.208-0.078l-0.078-0.208v-0.182l0.078-0.208
		l0.208-0.078h2.496c1.083,0,1.889,0.271,2.418,0.813c0.529,0.542,0.793,1.328,0.793,2.359v3.965l-0.078,0.208L85.238,174.877
		 M73.889,174.877h-0.247l-0.176-0.045l-0.15-0.15l-3.211-4.472c-0.425,0.304-0.713,0.655-0.864,1.053
		c-0.152,0.399-0.228,0.841-0.228,1.326v2.002l-0.078,0.208l-0.208,0.078h-0.221l-0.208-0.078l-0.078-0.208v-2.067
		c0-0.615,0.098-1.164,0.292-1.645c0.195-0.481,0.579-0.908,1.151-1.28l-1.157-1.625c-0.07-0.104-0.104-0.19-0.104-0.26l0.078-0.182
		l0.182-0.078h0.247c0.121,0,0.23,0.065,0.325,0.195l2.938,4.095c0.364-0.199,0.628-0.405,0.793-0.617
		c0.164-0.212,0.266-0.427,0.305-0.644c0.039-0.216,0.059-0.507,0.059-0.871v-1.872l0.078-0.208l0.208-0.078h0.221l0.208,0.078
		l0.078,0.208v1.937c0,0.399-0.035,0.743-0.104,1.033c-0.069,0.29-0.214,0.572-0.435,0.845c-0.221,0.273-0.548,0.535-0.982,0.786
		l1.443,2.015c0.069,0.104,0.104,0.191,0.104,0.26l-0.078,0.182L73.889,174.877 M66.116,174.877h-0.221l-0.208-0.078l-0.078-0.208
		v-6.851l0.078-0.208l0.208-0.078h0.221l0.208,0.078l0.078,0.208v6.851l-0.078,0.208L66.116,174.877 M60.708,174.877h-5.2
		l-0.208-0.078l-0.078-0.208v-0.182l0.078-0.208l0.208-0.078h3.913v-3.432c0-1.655-0.828-2.483-2.483-2.483h-1.3l-0.208-0.078
		l-0.078-0.208v-0.182l0.078-0.208l0.208-0.078h1.365c1.083,0,1.889,0.273,2.418,0.819c0.529,0.546,0.793,1.33,0.793,2.353v3.497
		h0.494l0.208,0.078l0.078,0.208v0.182l-0.078,0.208L60.708,174.877 M53.792,174.877h-5.2l-0.208-0.078l-0.078-0.208v-0.182
		l0.078-0.208l0.208-0.078h3.913v-3.432c0-1.655-0.828-2.483-2.483-2.483h-1.3l-0.208-0.078l-0.078-0.208v-0.182l0.078-0.208
		l0.208-0.078h1.365c1.083,0,1.889,0.273,2.418,0.819c0.529,0.546,0.793,1.33,0.793,2.353v3.497h0.494L54,174.201l0.078,0.208v0.182
		L54,174.799L53.792,174.877 M40.103,174.877h-3.224l-0.208-0.078l-0.078-0.208v-0.182l0.078-0.208l0.208-0.078h2.691l-0.247-3.562
		l-0.013-0.273c-0.035-0.52-0.078-0.914-0.13-1.183c-0.052-0.268-0.165-0.485-0.338-0.65c-0.173-0.165-0.438-0.247-0.793-0.247
		h-0.481l-0.208-0.078l-0.078-0.208v-0.182l0.078-0.208l0.208-0.078h0.481c0.581,0,1.012,0.126,1.294,0.377
		c0.282,0.251,0.468,0.576,0.559,0.975c0.091,0.399,0.163,0.962,0.214,1.69l0.273,4.095v0.039l-0.084,0.176L40.103,174.877
		 M33.486,174.877h-0.221l-0.208-0.078l-0.078-0.208v-4.914c0-0.338,0.033-0.637,0.098-0.897c0.065-0.26,0.149-0.451,0.253-0.572
		h-3.783l-0.208-0.078l-0.078-0.208v-0.182l0.078-0.208l0.208-0.078h5.486l0.208,0.078l0.078,0.208v0.182l-0.078,0.208l-0.208,0.078
		h-0.832c-0.139,0.121-0.245,0.318-0.319,0.592c-0.074,0.273-0.11,0.587-0.11,0.943v4.849l-0.078,0.208L33.486,174.877
		 M27.766,174.877h-0.221l-0.208-0.078l-0.078-0.208v-3.9c0-1.655-0.828-2.483-2.483-2.483H23.19l-0.208-0.078l-0.078-0.208v-0.182
		l0.078-0.208l0.208-0.078h1.651c1.083,0,1.889,0.271,2.418,0.813c0.529,0.542,0.793,1.328,0.793,2.359v3.965l-0.078,0.208
		L27.766,174.877 M261.074,171.887h-0.221l-0.208-0.078l-0.078-0.208v-3.861l0.078-0.208l0.208-0.078h0.221l0.208,0.078l0.078,0.208
		v3.861l-0.078,0.208L261.074,171.887 M221.97,171.887h-0.221l-0.208-0.078l-0.078-0.208v-3.861l0.078-0.208l0.208-0.078h0.221
		l0.208,0.078l0.078,0.208v3.861l-0.078,0.208L221.97,171.887 M169.893,171.887h-0.221l-0.208-0.078l-0.078-0.208v-3.861
		l0.078-0.208l0.208-0.078h0.221l0.208,0.078l0.078,0.208v3.861l-0.078,0.208L169.893,171.887 M102.814,171.887h-0.221l-0.208-0.078
		l-0.078-0.208v-3.861l0.078-0.208l0.208-0.078h0.221l0.208,0.078l0.078,0.208v3.861l-0.078,0.208L102.814,171.887 M88.033,171.887
		h-0.221l-0.208-0.078l-0.078-0.208v-3.861l0.078-0.208l0.208-0.078h0.221l0.208,0.078l0.078,0.208v3.861l-0.078,0.208
		L88.033,171.887"/>
	<path fill="#000000" d="M283.529,197.446h-6.227l-0.221-0.091l-0.091-0.221v-0.676c0-0.243,0.108-0.446,0.325-0.611l2.028-2.015
		c0.615-0.485,1.09-0.882,1.424-1.189c0.333-0.308,0.583-0.592,0.747-0.852c0.165-0.26,0.247-0.516,0.247-0.767
		c0-0.407-0.108-0.728-0.325-0.962c-0.217-0.234-0.546-0.351-0.988-0.351c-0.434,0-0.774,0.128-1.021,0.384
		c-0.247,0.256-0.401,0.587-0.461,0.994c-0.026,0.104-0.076,0.18-0.15,0.228l-0.241,0.071h-1.17l-0.195-0.078l-0.078-0.195
		c0.017-0.511,0.158-0.99,0.422-1.437c0.264-0.446,0.644-0.806,1.138-1.079c0.494-0.273,1.075-0.41,1.742-0.41
		c0.693,0,1.283,0.119,1.768,0.358c0.485,0.239,0.849,0.565,1.092,0.981c0.243,0.416,0.364,0.888,0.364,1.417
		c0,0.581-0.163,1.107-0.487,1.58c-0.325,0.472-0.83,0.977-1.515,1.515l-1.807,1.833h3.679c0.095,0,0.173,0.03,0.234,0.091
		c0.061,0.061,0.091,0.139,0.091,0.234v0.936c0,0.096-0.03,0.171-0.091,0.228C283.702,197.418,283.624,197.446,283.529,197.446"/>
	<path fill="#000000" d="M206.773,198.187l-0.176-0.065l-0.072-0.156v-0.169c0-0.199,0.061-0.321,0.182-0.364l1.781-0.65
		l-1.729-6.24c-0.043-0.147-0.065-0.234-0.065-0.26l0.078-0.182l0.182-0.078h0.234l0.195,0.059l0.104,0.136l1.781,6.279l0.13-0.052
		c0.71-0.26,1.209-0.633,1.495-1.118c0.286-0.485,0.429-1.075,0.429-1.768v-3.25l0.078-0.208l0.208-0.078h0.221l0.208,0.078
		l0.078,0.208v3.51c0,0.728-0.234,1.404-0.702,2.028c-0.468,0.624-1.088,1.075-1.859,1.352l-2.665,0.962L206.773,198.187
		 M178.329,197.576c-1.101,0-1.9-0.269-2.398-0.806c-0.498-0.537-0.747-1.326-0.747-2.366v-4.095l0.078-0.208l0.208-0.078h0.221
		l0.208,0.078l0.078,0.208v4.03c0,0.798,0.193,1.41,0.579,1.839c0.386,0.429,0.977,0.644,1.774,0.644
		c0.797,0,1.384-0.193,1.762-0.579c0.377-0.386,0.574-0.977,0.591-1.774v-0.442V193c-0.017-0.78-0.191-1.356-0.52-1.729
		c-0.329-0.373-0.776-0.559-1.339-0.559c-0.165,0-0.353,0.031-0.565,0.091c-0.212,0.061-0.392,0.143-0.539,0.247l-0.13,0.039
		l-0.15-0.058l-0.071-0.15v-0.169v-0.065l0.026-0.182l0.104-0.117c0.199-0.13,0.405-0.228,0.617-0.293
		c0.212-0.065,0.47-0.098,0.773-0.098c0.806,0,1.432,0.243,1.878,0.728c0.446,0.485,0.682,1.235,0.709,2.249
		c0.008,0.087,0.013,0.351,0.013,0.793c0,0.451-0.005,0.72-0.013,0.806c-0.026,1.04-0.28,1.807-0.761,2.301
		C180.234,197.329,179.439,197.576,178.329,197.576 M236.426,197.563c-0.139,0-0.208-0.07-0.208-0.208v-0.325
		c0-0.147,0.091-0.255,0.273-0.325l0.533-0.208c0.667-0.26,1.176-0.619,1.527-1.079c0.351-0.459,0.527-1.144,0.527-2.054
		c0-0.65-0.078-1.161-0.234-1.534c-0.156-0.373-0.414-0.641-0.773-0.806c-0.36-0.165-0.852-0.247-1.475-0.247h-0.442h-0.039
		l-1.014-0.013l-0.208-0.072l-0.078-0.201v-1.989l0.078-0.208l0.208-0.078h0.221l0.208,0.078l0.078,0.208v1.521h1.053
		c0.806,0,1.441,0.11,1.905,0.331c0.464,0.221,0.797,0.579,1.001,1.073c0.203,0.494,0.306,1.17,0.306,2.028
		c0,1.118-0.253,1.972-0.761,2.561c-0.507,0.589-1.185,1.036-2.034,1.339l-0.546,0.195L236.426,197.563 M215.652,197.563
		c-0.139,0-0.208-0.07-0.208-0.208v-0.325c0-0.147,0.091-0.255,0.273-0.325l0.533-0.208c0.667-0.26,1.176-0.619,1.527-1.079
		c0.351-0.459,0.527-1.144,0.527-2.054c0-0.65-0.078-1.161-0.234-1.534c-0.156-0.373-0.414-0.641-0.774-0.806
		c-0.36-0.165-0.851-0.247-1.475-0.247h-0.442h-0.039l-1.014-0.013l-0.208-0.072l-0.078-0.201v-1.989l0.078-0.208l0.208-0.078h0.221
		l0.208,0.078l0.078,0.208v1.521h1.053c0.806,0,1.441,0.11,1.904,0.331c0.464,0.221,0.797,0.579,1.001,1.073
		c0.204,0.494,0.306,1.17,0.306,2.028c0,1.118-0.253,1.972-0.76,2.561c-0.507,0.589-1.185,1.036-2.034,1.339l-0.546,0.195
		L215.652,197.563 M142.671,197.563c-0.147,0-0.221-0.07-0.221-0.208v-0.351c0-0.147,0.091-0.256,0.273-0.325
		c0.632-0.225,1.083-0.429,1.352-0.611c0.329-0.225,0.646-0.539,0.949-0.942c0.303-0.403,0.455-0.73,0.455-0.982l-0.195-1.014
		c-0.113-0.563-0.234-1.01-0.364-1.339c-0.13-0.329-0.301-0.581-0.514-0.754c-0.212-0.173-0.492-0.26-0.838-0.26h-0.481
		l-0.208-0.078l-0.078-0.208v-0.182l0.078-0.208l0.208-0.078h0.481c0.502,0,0.914,0.113,1.235,0.338
		c0.321,0.226,0.576,0.557,0.767,0.995c0.19,0.438,0.36,1.007,0.507,1.709l0.793,4.095v0.039l-0.084,0.175l-0.202,0.072h-0.221
		c-0.147,0-0.243-0.095-0.286-0.286l-0.338-1.729c-0.165,0.278-0.353,0.535-0.565,0.774c-0.213,0.239-0.427,0.431-0.644,0.579
		c-0.312,0.217-0.607,0.383-0.884,0.5c-0.277,0.117-0.572,0.206-0.884,0.266L142.671,197.563 M134.598,197.563
		c-0.139,0-0.208-0.07-0.208-0.208v-0.325c0-0.147,0.091-0.255,0.273-0.325l0.533-0.208c0.667-0.26,1.176-0.619,1.527-1.079
		c0.351-0.459,0.527-1.144,0.527-2.054c0-0.65-0.078-1.161-0.234-1.534c-0.156-0.373-0.414-0.641-0.774-0.806
		c-0.36-0.165-0.851-0.247-1.475-0.247h-0.442h-0.039l-1.014-0.013l-0.208-0.072l-0.078-0.201v-1.989l0.078-0.208l0.208-0.078h0.221
		l0.208,0.078l0.078,0.208v1.521h1.053c0.806,0,1.441,0.11,1.904,0.331c0.464,0.221,0.797,0.579,1.001,1.073
		c0.204,0.494,0.306,1.17,0.306,2.028c0,1.118-0.253,1.972-0.76,2.561c-0.507,0.589-1.185,1.036-2.034,1.339l-0.546,0.195
		L134.598,197.563 M266.157,197.446h-3.289l-0.208-0.078l-0.078-0.208v-0.182l0.078-0.208l0.208-0.078h2.782v-3.432
		c0-0.477-0.085-0.906-0.253-1.287c-0.169-0.381-0.403-0.676-0.702-0.884s-0.635-0.312-1.008-0.312h-1.508l-0.962,6.37l-0.11,0.214
		l-0.215,0.085h-0.234l-0.182-0.085l-0.052-0.214l0.949-6.37h-0.585l-0.208-0.078l-0.078-0.208v-0.182l0.078-0.208l0.208-0.078
		h2.964c0.52,0,0.984,0.13,1.391,0.39c0.407,0.26,0.726,0.63,0.956,1.111c0.23,0.481,0.344,1.038,0.344,1.671v3.965l-0.078,0.208
		L266.157,197.446 M258.344,197.446h-0.221l-0.208-0.078l-0.078-0.208v-3.9c0-1.655-0.828-2.483-2.483-2.483h-0.988
		c-0.087,0.624-0.15,1.127-0.188,1.508c-0.039,0.382-0.054,0.815-0.046,1.3v3.575l-0.078,0.208l-0.208,0.078l-1.482-0.026
		l-0.208-0.078l-0.078-0.208v-0.182l0.078-0.208l0.208-0.078l0.975,0.013v-3.029v-0.403c0-0.477,0.017-0.895,0.052-1.255
		c0.035-0.359,0.1-0.765,0.195-1.215h-0.663l-0.208-0.078l-0.078-0.208v-0.182l0.078-0.208l0.208-0.078h2.496
		c1.083,0,1.889,0.271,2.418,0.813c0.529,0.542,0.793,1.328,0.793,2.36v3.965l-0.078,0.208L258.344,197.446 M250.037,197.446h-0.221
		l-0.208-0.078l-0.078-0.208v-3.9c0-1.655-0.828-2.483-2.483-2.483h-1.742v6.383l-0.078,0.208l-0.208,0.078h-0.221l-0.208-0.078
		l-0.078-0.208v-6.851l0.078-0.208l0.208-0.078h2.314c1.083,0,1.889,0.271,2.418,0.813c0.529,0.542,0.793,1.328,0.793,2.36v3.965
		l-0.078,0.208L250.037,197.446 M229.835,197.446h-5.226l-0.208-0.078l-0.078-0.208v-6.851l0.078-0.208l0.208-0.078h2.301
		c1.083,0,1.889,0.271,2.418,0.813c0.529,0.542,0.793,1.328,0.793,2.36v3.965l-0.078,0.208L229.835,197.446 M225.103,190.777v5.915
		h4.225v-3.432c0-1.655-0.828-2.483-2.483-2.483H225.103 M204.602,197.446h-0.221l-0.208-0.078l-0.078-0.208v-3.9
		c0-1.655-0.828-2.483-2.483-2.483h-1.586l-0.208-0.078l-0.078-0.208v-0.182l0.078-0.208l0.208-0.078h1.651
		c1.083,0,1.889,0.271,2.418,0.813c0.529,0.542,0.793,1.328,0.793,2.36v3.965l-0.078,0.208L204.602,197.446 M198.778,197.446h-5.2
		l-0.208-0.078l-0.078-0.208v-0.182l0.078-0.208l0.208-0.078h3.913v-3.432c0-1.655-0.828-2.483-2.483-2.483h-1.3l-0.208-0.078
		l-0.078-0.208v-0.182l0.078-0.208l0.208-0.078h1.365c1.083,0,1.889,0.273,2.418,0.819c0.529,0.546,0.793,1.33,0.793,2.353v3.497
		h0.494l0.208,0.078l0.078,0.208v0.182l-0.078,0.208L198.778,197.446 M191.862,197.446h-5.2l-0.208-0.078l-0.078-0.208v-0.182
		l0.078-0.208l0.208-0.078h3.913v-3.432c0-1.655-0.828-2.483-2.483-2.483h-1.3l-0.208-0.078l-0.078-0.208v-0.182l0.078-0.208
		l0.208-0.078h1.365c1.083,0,1.889,0.273,2.418,0.819c0.529,0.546,0.793,1.33,0.793,2.353v3.497h0.494l0.208,0.078l0.078,0.208
		v0.182l-0.078,0.208L191.862,197.446 M172.857,197.446h-0.221l-0.208-0.078l-0.078-0.208v-3.9c0-1.655-0.828-2.483-2.483-2.483
		h-1.742v6.383l-0.078,0.208l-0.208,0.078h-0.221l-0.208-0.078l-0.078-0.208v-6.851l0.078-0.208l0.208-0.078h2.314
		c1.083,0,1.889,0.271,2.418,0.813c0.529,0.542,0.793,1.328,0.793,2.36v3.965l-0.078,0.208L172.857,197.446 M162.496,197.446h-3.224
		l-0.208-0.078l-0.078-0.208v-0.182l0.078-0.208l0.208-0.078h2.691l-0.247-3.562l-0.013-0.273c-0.035-0.52-0.078-0.914-0.13-1.183
		c-0.052-0.268-0.165-0.485-0.338-0.65c-0.173-0.165-0.438-0.247-0.793-0.247h-0.481l-0.208-0.078l-0.078-0.208v-0.182l0.078-0.208
		l0.208-0.078h0.481c0.581,0,1.012,0.126,1.294,0.377c0.281,0.251,0.468,0.576,0.559,0.975c0.091,0.399,0.163,0.962,0.214,1.69
		l0.273,4.095v0.039l-0.085,0.175L162.496,197.446 M157.062,197.446h-0.221l-0.208-0.078l-0.078-0.208v-3.9
		c0-1.655-0.828-2.483-2.483-2.483h-2.236l-0.208-0.078l-0.078-0.208v-0.182l0.078-0.208l0.208-0.078h2.301
		c1.083,0,1.889,0.271,2.418,0.813c0.529,0.542,0.793,1.328,0.793,2.36v3.965l-0.078,0.208L157.062,197.446 M152.057,197.446h-0.221
		l-0.208-0.078l-0.078-0.208v-4.563l0.078-0.208l0.208-0.078h0.221l0.208,0.078l0.078,0.208v4.563l-0.078,0.208L152.057,197.446
		 M140.422,197.446h-0.221l-0.208-0.078l-0.078-0.208v-6.851l0.078-0.208l0.208-0.078h0.221l0.208,0.078l0.078,0.208v6.851
		l-0.078,0.208L140.422,197.446 M131.049,197.446h-3.289l-0.208-0.078l-0.078-0.208v-0.182l0.078-0.208l0.208-0.078h2.782v-3.432
		c0-0.477-0.084-0.906-0.253-1.287c-0.169-0.381-0.403-0.676-0.702-0.884c-0.299-0.208-0.635-0.312-1.007-0.312h-1.508l-0.962,6.37
		l-0.11,0.214l-0.215,0.085h-0.234l-0.182-0.085l-0.052-0.214l0.949-6.37h-0.585l-0.208-0.078l-0.078-0.208v-0.182l0.078-0.208
		l0.208-0.078h2.964c0.52,0,0.983,0.13,1.391,0.39c0.407,0.26,0.726,0.63,0.956,1.111c0.23,0.481,0.345,1.038,0.345,1.671v3.965
		l-0.078,0.208L131.049,197.446 M120.467,197.446h-0.221l-0.208-0.078l-0.078-0.208v-3.9c0-1.655-0.828-2.483-2.483-2.483h-0.988
		c-0.087,0.624-0.149,1.127-0.188,1.508c-0.039,0.382-0.054,0.815-0.045,1.3v3.575l-0.078,0.208l-0.208,0.078l-1.482-0.026
		l-0.208-0.078l-0.078-0.208v-0.182l0.078-0.208l0.208-0.078l0.975,0.013v-3.029v-0.403c0-0.477,0.017-0.895,0.052-1.255
		c0.035-0.359,0.1-0.765,0.195-1.215h-0.663l-0.208-0.078l-0.078-0.208v-0.182l0.078-0.208l0.208-0.078h2.496
		c1.083,0,1.889,0.271,2.418,0.813c0.529,0.542,0.793,1.328,0.793,2.36v3.965l-0.078,0.208L120.467,197.446 M108.728,197.446h-0.221
		l-0.208-0.078l-0.078-0.208v-6.851l0.078-0.208l0.208-0.078h0.221l0.208,0.078l0.078,0.208v6.851l-0.078,0.208L108.728,197.446
		 M105.829,197.446h-3.289l-0.208-0.078l-0.078-0.208v-0.182l0.078-0.208l0.208-0.078h2.782v-3.432c0-0.477-0.085-0.906-0.253-1.287
		c-0.169-0.381-0.403-0.676-0.702-0.884s-0.635-0.312-1.008-0.312h-1.508l-0.962,6.37l-0.11,0.214l-0.214,0.085h-0.234l-0.182-0.085
		l-0.052-0.214l0.949-6.37h-0.585l-0.208-0.078l-0.078-0.208v-0.182l0.078-0.208l0.208-0.078h2.964c0.52,0,0.984,0.13,1.391,0.39
		c0.407,0.26,0.726,0.63,0.956,1.111c0.23,0.481,0.344,1.038,0.344,1.671v3.965l-0.078,0.208L105.829,197.446 M95.248,197.446
		h-5.226l-0.208-0.078l-0.078-0.208v-6.851l0.078-0.208l0.208-0.078h2.301c1.083,0,1.889,0.271,2.418,0.813
		c0.529,0.542,0.793,1.328,0.793,2.36v3.965l-0.078,0.208L95.248,197.446 M90.516,190.777v5.915h4.225v-3.432
		c0-1.655-0.828-2.483-2.483-2.483H90.516 M242.146,194.456h-0.221l-0.208-0.078l-0.078-0.208v-3.861l0.078-0.208l0.208-0.078h0.221
		l0.208,0.078l0.078,0.208v3.861l-0.078,0.208L242.146,194.456 M232.63,194.456h-0.221l-0.208-0.078l-0.078-0.208v-3.861
		l0.078-0.208l0.208-0.078h0.221l0.208,0.078l0.078,0.208v3.861l-0.078,0.208L232.63,194.456 M164.966,194.456h-0.221l-0.208-0.078
		l-0.078-0.208v-3.861l0.078-0.208l0.208-0.078h0.221l0.208,0.078l0.078,0.208v3.861l-0.078,0.208L164.966,194.456 M123.262,194.456
		h-0.221l-0.208-0.078l-0.078-0.208v-3.861l0.078-0.208l0.208-0.078h0.221l0.208,0.078l0.078,0.208v3.861l-0.078,0.208
		L123.262,194.456 M98.042,194.456h-0.221l-0.208-0.078l-0.078-0.208v-3.861l0.078-0.208l0.208-0.078h0.221l0.208,0.078l0.078,0.208
		v3.861l-0.078,0.208L98.042,194.456"/>
	<path fill="#000000" d="M280.318,220.146c-0.771,0-1.424-0.121-1.956-0.364c-0.533-0.243-0.932-0.548-1.196-0.916
		c-0.264-0.368-0.405-0.747-0.423-1.138l0.078-0.195l0.195-0.078h1.196c0.19,0,0.321,0.087,0.39,0.26
		c0.19,0.615,0.762,0.923,1.716,0.923c0.529,0,0.943-0.121,1.241-0.364c0.299-0.243,0.449-0.589,0.449-1.04
		c0-0.451-0.137-0.778-0.41-0.981c-0.273-0.204-0.674-0.306-1.202-0.306h-1.339l-0.221-0.091l-0.091-0.221v-0.559
		c0-0.165,0.056-0.295,0.169-0.39l2.314-2.262h-3.705c-0.095,0-0.173-0.03-0.234-0.091l-0.091-0.221v-0.871
		c0-0.095,0.03-0.173,0.091-0.234c0.061-0.06,0.139-0.091,0.234-0.091h5.59c0.095,0,0.173,0.03,0.234,0.091
		c0.061,0.061,0.091,0.139,0.091,0.234v0.793c0,0.147-0.056,0.269-0.169,0.364l-2.236,2.301l0.156,0.013
		c0.832,0.069,1.493,0.321,1.982,0.754c0.49,0.434,0.735,1.053,0.735,1.859c0,0.572-0.154,1.07-0.461,1.495
		c-0.308,0.425-0.732,0.752-1.274,0.981C281.628,220.031,281.011,220.146,280.318,220.146"/>
	<path fill="#000000" d="M173.299,220.757l-0.176-0.065l-0.071-0.156v-0.169c0-0.199,0.06-0.321,0.182-0.364l1.781-0.65l-1.729-6.24
		c-0.043-0.147-0.065-0.234-0.065-0.26l0.078-0.182l0.182-0.078h0.234l0.195,0.058l0.104,0.137l1.781,6.279l0.13-0.052
		c0.711-0.26,1.209-0.632,1.495-1.118c0.286-0.485,0.429-1.075,0.429-1.768v-3.25l0.078-0.208l0.208-0.078h0.221l0.208,0.078
		l0.078,0.208v3.51c0,0.728-0.234,1.404-0.702,2.028c-0.468,0.624-1.088,1.075-1.859,1.352l-2.665,0.962L173.299,220.757
		 M252.533,220.146c-1.031,0-1.803-0.275-2.314-0.825c-0.511-0.55-0.767-1.354-0.767-2.411v-4.03l0.078-0.208l0.208-0.078h3.055
		c1.075,0,1.846,0.247,2.314,0.741c0.468,0.494,0.724,1.261,0.767,2.301c0.009,0.087,0.013,0.329,0.013,0.728
		c0,0.407-0.004,0.654-0.013,0.741c-0.026,1.031-0.304,1.796-0.832,2.295C254.513,219.897,253.677,220.146,252.533,220.146
		 M250.245,213.347v3.562c0,0.797,0.19,1.41,0.572,1.839c0.381,0.429,0.953,0.644,1.716,0.644c0.893,0,1.536-0.193,1.93-0.579
		c0.394-0.386,0.6-0.977,0.618-1.775c0.008-0.086,0.013-0.312,0.013-0.676c0-0.355-0.005-0.576-0.013-0.663
		c-0.018-0.763-0.239-1.346-0.663-1.749c-0.425-0.403-0.988-0.605-1.69-0.605H250.245 M85.069,220.146
		c-1.031,0-1.803-0.275-2.314-0.825c-0.512-0.55-0.767-1.354-0.767-2.411v-4.03l0.078-0.208l0.208-0.078h3.055
		c1.075,0,1.846,0.247,2.314,0.741c0.468,0.494,0.723,1.261,0.767,2.301c0.009,0.087,0.013,0.329,0.013,0.728
		c0,0.407-0.005,0.654-0.013,0.741c-0.026,1.031-0.303,1.796-0.832,2.295C87.049,219.897,86.213,220.146,85.069,220.146
		 M82.781,213.347v3.562c0,0.797,0.19,1.41,0.572,1.839c0.381,0.429,0.953,0.644,1.716,0.644c0.893,0,1.536-0.193,1.931-0.579
		c0.394-0.386,0.6-0.977,0.617-1.775c0.009-0.086,0.013-0.312,0.013-0.676c0-0.355-0.004-0.576-0.013-0.663
		c-0.017-0.763-0.238-1.346-0.663-1.749c-0.425-0.403-0.988-0.605-1.69-0.605H82.781 M191.784,220.133
		c-0.147,0-0.221-0.069-0.221-0.208v-0.351c0-0.147,0.091-0.255,0.273-0.325c0.632-0.225,1.083-0.429,1.352-0.611
		c0.329-0.225,0.646-0.539,0.949-0.943c0.303-0.403,0.455-0.73,0.455-0.981l-0.195-1.014c-0.113-0.563-0.234-1.01-0.364-1.339
		c-0.13-0.329-0.301-0.581-0.514-0.754c-0.212-0.173-0.492-0.26-0.838-0.26H192.2l-0.208-0.078l-0.078-0.208v-0.182l0.078-0.208
		l0.208-0.078h0.481c0.502,0,0.914,0.113,1.235,0.338c0.321,0.225,0.576,0.557,0.767,0.994c0.19,0.438,0.36,1.008,0.507,1.71
		l0.793,4.095v0.039l-0.084,0.176l-0.202,0.071h-0.221c-0.147,0-0.243-0.095-0.286-0.286l-0.338-1.729
		c-0.165,0.277-0.353,0.535-0.565,0.773c-0.213,0.239-0.427,0.431-0.644,0.579c-0.312,0.217-0.607,0.384-0.884,0.501
		c-0.278,0.117-0.572,0.206-0.884,0.266L191.784,220.133 M91.582,220.133c-0.139,0-0.208-0.069-0.208-0.208V219.6
		c0-0.147,0.091-0.256,0.273-0.325l0.533-0.208c0.667-0.26,1.177-0.619,1.527-1.079c0.351-0.459,0.527-1.144,0.527-2.054
		c0-0.65-0.078-1.161-0.234-1.534c-0.156-0.373-0.414-0.641-0.773-0.806c-0.36-0.165-0.852-0.247-1.476-0.247h-0.442H91.27
		l-1.014-0.013l-0.208-0.071l-0.078-0.202v-1.989l0.078-0.208l0.208-0.078h0.221l0.208,0.078l0.078,0.208v1.521h1.053
		c0.806,0,1.441,0.11,1.905,0.331c0.464,0.221,0.797,0.579,1.001,1.073c0.203,0.494,0.306,1.17,0.306,2.028
		c0,1.118-0.254,1.972-0.761,2.561c-0.507,0.59-1.185,1.036-2.034,1.339l-0.546,0.195L91.582,220.133 M266.157,220.016h-3.289
		l-0.208-0.078l-0.078-0.208v-0.182l0.078-0.208l0.208-0.078h2.782v-3.432c0-0.476-0.085-0.905-0.253-1.287
		c-0.169-0.381-0.403-0.676-0.702-0.884s-0.635-0.312-1.008-0.312h-1.508l-0.962,6.37l-0.11,0.215l-0.214,0.084h-0.234l-0.182-0.084
		l-0.052-0.215l0.949-6.37h-0.585l-0.208-0.078l-0.078-0.208v-0.182l0.078-0.208l0.208-0.078h2.964c0.52,0,0.984,0.13,1.391,0.39
		c0.407,0.26,0.726,0.631,0.956,1.112c0.23,0.481,0.344,1.038,0.344,1.67v3.965l-0.078,0.208L266.157,220.016 M258.266,220.016
		h-0.221l-0.208-0.078l-0.078-0.208v-6.851l0.078-0.208l0.208-0.078h0.221l0.208,0.078l0.078,0.208v6.851l-0.078,0.208
		L258.266,220.016 M242.081,220.016h-2.158l-0.208-0.078l-0.078-0.208v-0.182l0.078-0.208l0.208-0.078h2.093
		c0.659,0,1.159-0.215,1.502-0.644c0.342-0.429,0.531-1.042,0.565-1.839c0.009-0.087,0.013-0.247,0.013-0.481
		c0-0.225-0.004-0.381-0.013-0.468c-0.018-0.788-0.201-1.399-0.552-1.833c-0.351-0.433-0.856-0.65-1.515-0.65h-1.768v1.235
		c0,0.407,0.043,0.726,0.13,0.956c0.087,0.23,0.238,0.371,0.455,0.422l0.533,0.13c0.147,0.043,0.221,0.182,0.221,0.416v0.182
		l-0.085,0.156l-0.214,0.052l-0.104-0.013l-0.494-0.117c-0.416-0.095-0.724-0.321-0.923-0.676c-0.199-0.355-0.299-0.858-0.299-1.508
		v-1.703l0.078-0.208l0.208-0.078h2.327c0.893,0,1.575,0.275,2.047,0.825c0.472,0.55,0.722,1.332,0.747,2.346
		c0.009,0.087,0.013,0.265,0.013,0.533c0,0.277-0.004,0.459-0.013,0.546c-0.026,1.014-0.275,1.796-0.747,2.346
		C243.656,219.741,242.974,220.016,242.081,220.016 M234.281,220.016h-5.226l-0.208-0.078l-0.078-0.208v-6.851l0.078-0.208
		l0.208-0.078h2.301c1.083,0,1.889,0.271,2.418,0.813c0.529,0.542,0.793,1.328,0.793,2.359v3.965l-0.078,0.208L234.281,220.016
		 M229.549,213.347v5.915h4.225v-3.432c0-1.655-0.828-2.483-2.483-2.483H229.549 M223.868,220.016h-5.2l-0.208-0.078l-0.078-0.208
		v-0.182l0.078-0.208l0.208-0.078h3.913v-3.432c0-1.655-0.828-2.483-2.483-2.483h-1.3l-0.208-0.078l-0.078-0.208v-0.182l0.078-0.208
		l0.208-0.078h1.365c1.083,0,1.889,0.273,2.418,0.819c0.529,0.546,0.793,1.33,0.793,2.353v3.497h0.494l0.208,0.078l0.078,0.208
		v0.182l-0.078,0.208L223.868,220.016 M216.328,220.016h-0.221l-0.208-0.078l-0.078-0.208v-3.9c0-1.655-0.828-2.483-2.483-2.483
		h-2.236l-0.208-0.078l-0.078-0.208v-0.182l0.078-0.208l0.208-0.078h2.301c1.083,0,1.889,0.271,2.418,0.813
		c0.529,0.542,0.793,1.328,0.793,2.359v3.965l-0.078,0.208L216.328,220.016 M211.324,220.016h-0.221l-0.208-0.078l-0.078-0.208
		v-4.563l0.078-0.208l0.208-0.078h0.221l0.208,0.078l0.078,0.208v4.563l-0.078,0.208L211.324,220.016 M207.241,220.016h-0.221
		l-0.208-0.078l-0.078-0.208v-4.914c0-0.338,0.033-0.637,0.098-0.897c0.065-0.26,0.15-0.451,0.253-0.572h-3.783l-0.208-0.078
		l-0.078-0.208v-0.182l0.078-0.208l0.208-0.078h5.486l0.208,0.078l0.078,0.208v0.182l-0.078,0.208l-0.208,0.078h-0.832
		c-0.139,0.122-0.245,0.319-0.319,0.592c-0.074,0.273-0.11,0.587-0.11,0.943v4.849l-0.078,0.208L207.241,220.016 M201.522,220.016
		H201.3l-0.208-0.078l-0.078-0.208v-3.9c0-1.655-0.828-2.483-2.483-2.483h-1.586l-0.208-0.078l-0.078-0.208v-0.182l0.078-0.208
		l0.208-0.078h1.651c1.083,0,1.889,0.271,2.418,0.813c0.529,0.542,0.793,1.328,0.793,2.359v3.965l-0.078,0.208L201.522,220.016
		 M189.614,220.016h-0.221l-0.208-0.078l-0.078-0.208v-3.9c0-1.655-0.828-2.483-2.483-2.483h-2.236l-0.208-0.078l-0.078-0.208
		v-0.182l0.078-0.208l0.208-0.078h2.301c1.083,0,1.889,0.271,2.418,0.813c0.529,0.542,0.793,1.328,0.793,2.359v3.965l-0.078,0.208
		L189.614,220.016 M184.609,220.016h-0.221l-0.208-0.078l-0.078-0.208v-4.563l0.078-0.208l0.208-0.078h0.221l0.208,0.078
		l0.078,0.208v4.563l-0.078,0.208L184.609,220.016 M171.05,220.016h-0.221l-0.208-0.078l-0.078-0.208v-6.851l0.078-0.208
		l0.208-0.078h0.221l0.208,0.078l0.078,0.208v6.851l-0.078,0.208L171.05,220.016 M166.968,220.016h-0.221l-0.208-0.078l-0.078-0.208
		v-4.914c0-0.338,0.033-0.637,0.098-0.897c0.065-0.26,0.15-0.451,0.253-0.572h-3.783l-0.208-0.078l-0.078-0.208v-0.182l0.078-0.208
		l0.208-0.078h5.486l0.208,0.078l0.078,0.208v0.182l-0.078,0.208l-0.208,0.078h-0.832c-0.139,0.122-0.245,0.319-0.318,0.592
		c-0.074,0.273-0.11,0.587-0.11,0.943v4.849l-0.078,0.208L166.968,220.016 M157.894,220.016h-3.289l-0.208-0.078l-0.078-0.208
		v-0.182l0.078-0.208l0.208-0.078h2.782v-3.432c0-0.476-0.084-0.905-0.253-1.287c-0.169-0.381-0.403-0.676-0.702-0.884
		c-0.299-0.208-0.635-0.312-1.007-0.312h-1.508l-0.962,6.37l-0.11,0.215l-0.215,0.084h-0.234l-0.182-0.084l-0.052-0.215l0.949-6.37
		h-0.585l-0.208-0.078l-0.078-0.208v-0.182l0.078-0.208l0.208-0.078h2.964c0.52,0,0.983,0.13,1.391,0.39
		c0.407,0.26,0.726,0.631,0.956,1.112c0.23,0.481,0.344,1.038,0.344,1.67v3.965l-0.078,0.208L157.894,220.016 M147.312,220.016
		h-5.226l-0.208-0.078l-0.078-0.208v-6.851l0.078-0.208l0.208-0.078h2.301c1.083,0,1.889,0.271,2.418,0.813
		c0.529,0.542,0.793,1.328,0.793,2.359v3.965l-0.078,0.208L147.312,220.016 M142.58,213.347v5.915h4.225v-3.432
		c0-1.655-0.828-2.483-2.483-2.483H142.58 M136.899,220.016h-5.2l-0.208-0.078l-0.078-0.208v-0.182l0.078-0.208l0.208-0.078h3.913
		v-3.432c0-1.655-0.828-2.483-2.483-2.483h-1.3l-0.208-0.078l-0.078-0.208v-0.182l0.078-0.208l0.208-0.078h1.365
		c1.083,0,1.889,0.273,2.418,0.819c0.529,0.546,0.793,1.33,0.793,2.353v3.497h0.494l0.208,0.078l0.078,0.208v0.182l-0.078,0.208
		L136.899,220.016 M129.359,220.016h-0.221l-0.208-0.078l-0.078-0.208v-3.9c0-1.655-0.828-2.483-2.483-2.483h-2.236l-0.208-0.078
		l-0.078-0.208v-0.182l0.078-0.208l0.208-0.078h2.301c1.083,0,1.889,0.271,2.418,0.813c0.529,0.542,0.793,1.328,0.793,2.359v3.965
		l-0.078,0.208L129.359,220.016 M124.354,220.016h-0.221l-0.208-0.078l-0.078-0.208v-4.563l0.078-0.208l0.208-0.078h0.221
		l0.208,0.078l0.078,0.208v4.563l-0.078,0.208L124.354,220.016 M121.455,220.016h-0.221l-0.208-0.078l-0.078-0.208v-3.9
		c0-1.655-0.828-2.483-2.483-2.483h-0.988c-0.087,0.624-0.149,1.127-0.188,1.508c-0.039,0.381-0.054,0.815-0.045,1.3v3.575
		l-0.078,0.208l-0.208,0.078l-1.482-0.026l-0.208-0.078l-0.078-0.208v-0.182l0.078-0.208l0.208-0.078l0.975,0.013v-3.029v-0.403
		c0-0.476,0.017-0.895,0.052-1.254c0.035-0.36,0.1-0.765,0.195-1.216h-0.663l-0.208-0.078l-0.078-0.208v-0.182l0.078-0.208
		l0.208-0.078h2.496c1.083,0,1.889,0.271,2.418,0.813c0.529,0.542,0.793,1.328,0.793,2.359v3.965l-0.078,0.208L121.455,220.016
		 M113.46,220.016h-0.247l-0.176-0.045l-0.15-0.149l-3.211-4.472c-0.425,0.303-0.713,0.654-0.865,1.053
		c-0.152,0.399-0.227,0.841-0.227,1.326v2.002l-0.078,0.208l-0.208,0.078h-0.221l-0.208-0.078l-0.078-0.208v-2.067
		c0-0.615,0.098-1.164,0.293-1.644c0.195-0.481,0.579-0.908,1.151-1.281l-1.157-1.625c-0.069-0.104-0.104-0.19-0.104-0.26
		l0.078-0.182l0.182-0.078h0.247c0.121,0,0.23,0.065,0.325,0.195l2.938,4.095c0.364-0.199,0.628-0.405,0.793-0.617
		c0.165-0.212,0.267-0.427,0.306-0.643c0.039-0.217,0.058-0.507,0.058-0.871v-1.872l0.078-0.208l0.208-0.078h0.221l0.208,0.078
		l0.078,0.208v1.937c0,0.399-0.035,0.743-0.104,1.033c-0.069,0.291-0.214,0.572-0.436,0.845c-0.221,0.273-0.548,0.535-0.981,0.787
		l1.443,2.015c0.069,0.104,0.104,0.191,0.104,0.26l-0.078,0.182L113.46,220.016 M105.765,220.016h-5.226l-0.208-0.078l-0.078-0.208
		v-6.851l0.078-0.208l0.208-0.078h2.301c1.083,0,1.889,0.271,2.418,0.813c0.529,0.542,0.793,1.328,0.793,2.359v3.965l-0.078,0.208
		L105.765,220.016 M101.033,213.347v5.915h4.225v-3.432c0-1.655-0.828-2.483-2.483-2.483H101.033 M79.674,220.016h-3.289
		l-0.208-0.078l-0.078-0.208v-0.182l0.078-0.208l0.208-0.078h2.782v-3.432c0-0.476-0.084-0.905-0.253-1.287
		c-0.169-0.381-0.403-0.676-0.702-0.884c-0.299-0.208-0.635-0.312-1.007-0.312h-1.508l-0.962,6.37l-0.11,0.215l-0.215,0.084h-0.234
		l-0.182-0.084l-0.052-0.215l0.949-6.37h-0.585l-0.208-0.078l-0.078-0.208v-0.182l0.078-0.208l0.208-0.078h2.964
		c0.52,0,0.983,0.13,1.391,0.39c0.407,0.26,0.726,0.631,0.956,1.112c0.23,0.481,0.345,1.038,0.345,1.67v3.965l-0.078,0.208
		L79.674,220.016 M66.388,220.016h-1.911l-0.208-0.078l-0.078-0.208v-0.182l0.078-0.208l0.208-0.078h1.846
		c0.849,0,1.467-0.21,1.852-0.631c0.386-0.42,0.596-1.038,0.631-1.852c0.009-0.13,0.013-0.29,0.013-0.481
		c0-0.182-0.004-0.338-0.013-0.468c-0.026-0.815-0.234-1.432-0.624-1.852c-0.39-0.42-1.01-0.631-1.859-0.631h-1.846l-0.208-0.078
		l-0.078-0.208v-0.182l0.078-0.208l0.208-0.078h1.911c1.075,0,1.87,0.269,2.385,0.806c0.516,0.537,0.791,1.326,0.825,2.366
		c0.009,0.13,0.013,0.308,0.013,0.533c0,0.234-0.004,0.416-0.013,0.546c-0.035,1.04-0.31,1.829-0.825,2.366
		C68.258,219.747,67.462,220.016,66.388,220.016 M61.695,220.016h-0.221l-0.208-0.078l-0.078-0.208v-6.851l0.078-0.208l0.208-0.078
		h0.221l0.208,0.078l0.078,0.208v6.851l-0.078,0.208L61.695,220.016 M58.796,220.016h-0.221l-0.208-0.078l-0.078-0.208v-3.9
		c0-1.655-0.828-2.483-2.483-2.483h-0.988c-0.087,0.624-0.15,1.127-0.189,1.508c-0.039,0.381-0.054,0.815-0.045,1.3v3.575
		l-0.078,0.208l-0.208,0.078l-1.482-0.026l-0.208-0.078l-0.078-0.208v-0.182l0.078-0.208l0.208-0.078l0.975,0.013v-3.029v-0.403
		c0-0.476,0.017-0.895,0.052-1.254c0.035-0.36,0.1-0.765,0.195-1.216h-0.663l-0.208-0.078l-0.078-0.208v-0.182l0.078-0.208
		l0.208-0.078h2.496c1.083,0,1.889,0.271,2.418,0.813c0.529,0.542,0.793,1.328,0.793,2.359v3.965l-0.078,0.208L58.796,220.016
		 M47.135,220.016h-0.221l-0.208-0.078l-0.078-0.208v-3.9c0-1.655-0.828-2.483-2.483-2.483h-2.236l-0.208-0.078l-0.078-0.208v-0.182
		l0.078-0.208l0.208-0.078h2.301c1.083,0,1.889,0.271,2.418,0.813c0.529,0.542,0.793,1.328,0.793,2.359v3.965l-0.078,0.208
		L47.135,220.016 M42.13,220.016h-0.221l-0.208-0.078l-0.078-0.208v-4.563l0.078-0.208l0.208-0.078h0.221l0.208,0.078l0.078,0.208
		v4.563l-0.078,0.208L42.13,220.016 M39.231,220.016H39.01l-0.208-0.078l-0.078-0.208v-3.9c0-1.655-0.828-2.483-2.483-2.483h-1.586
		l-0.208-0.078l-0.078-0.208v-0.182l0.078-0.208l0.208-0.078h1.651c1.083,0,1.889,0.271,2.418,0.813
		c0.529,0.542,0.793,1.328,0.793,2.359v3.965l-0.078,0.208L39.231,220.016 M32.433,220.016h-4.485l-0.208-0.078l-0.078-0.208v-0.182
		l0.078-0.208l0.208-0.078h3.705l-4.173-6.149c-0.069-0.104-0.104-0.19-0.104-0.26l0.085-0.182l0.188-0.078h0.234
		c0.13,0,0.238,0.069,0.325,0.208l2.496,3.627c0.849-0.321,1.274-1.083,1.274-2.288v-1.261l0.078-0.208l0.208-0.078h0.221
		l0.208,0.078l0.078,0.208v1.326c0,0.702-0.141,1.289-0.422,1.761c-0.282,0.472-0.695,0.821-1.242,1.046l1.469,2.145
		c0.095,0.139,0.143,0.269,0.143,0.39v0.182l-0.078,0.208L32.433,220.016 M25.569,220.016h-0.221l-0.208-0.078l-0.078-0.208v-6.851
		l0.078-0.208l0.208-0.078h0.221l0.208,0.078l0.078,0.208v6.851l-0.078,0.208L25.569,220.016 M19.901,220.016H19.68l-0.208-0.078
		l-0.078-0.208v-3.9c0-1.655-0.828-2.483-2.483-2.483h-2.236l-0.208-0.078l-0.078-0.208v-0.182l0.078-0.208l0.208-0.078h2.301
		c1.083,0,1.889,0.271,2.418,0.813c0.529,0.542,0.793,1.328,0.793,2.359v3.965l-0.078,0.208L19.901,220.016 M14.896,220.016h-0.221
		l-0.208-0.078l-0.078-0.208v-4.563l0.078-0.208l0.208-0.078h0.221l0.208,0.078l0.078,0.208v4.563l-0.078,0.208L14.896,220.016
		 M247.164,217.026h-0.221l-0.208-0.078l-0.078-0.208v-3.861l0.078-0.208l0.208-0.078h0.221l0.208,0.078l0.078,0.208v3.861
		l-0.078,0.208L247.164,217.026 M237.076,217.026h-0.221l-0.208-0.078l-0.078-0.208v-3.861l0.078-0.208l0.208-0.078h0.221
		l0.208,0.078l0.078,0.208v3.861l-0.078,0.208L237.076,217.026 M150.107,217.026h-0.221l-0.208-0.078l-0.078-0.208v-3.861
		l0.078-0.208l0.208-0.078h0.221l0.208,0.078l0.078,0.208v3.861l-0.078,0.208L150.107,217.026 M71.887,217.026h-0.221l-0.208-0.078
		l-0.078-0.208v-3.861l0.078-0.208l0.208-0.078h0.221l0.208,0.078l0.078,0.208v3.861l-0.078,0.208L71.887,217.026 M22.696,217.026
		h-0.221l-0.208-0.078l-0.078-0.208v-3.861l0.078-0.208l0.208-0.078h0.221l0.208,0.078l0.078,0.208v3.861l-0.078,0.208
		L22.696,217.026"/>
	<path fill="#000000" d="M282.254,242.585h-1.144l-0.221-0.091l-0.091-0.221v-1.664h-4.121l-0.221-0.091l-0.091-0.221V239.4
		c0-0.138,0.047-0.268,0.143-0.39l3.835-5.304l0.195-0.163c0.087-0.039,0.182-0.058,0.286-0.058h1.43
		c0.095,0,0.171,0.028,0.228,0.084c0.056,0.057,0.085,0.132,0.085,0.228v5.265h1.17c0.095,0,0.171,0.028,0.228,0.085
		c0.056,0.056,0.085,0.132,0.085,0.228v0.923l-0.085,0.221c-0.056,0.061-0.132,0.091-0.228,0.091h-1.17v1.664l-0.085,0.221
		C282.426,242.555,282.35,242.585,282.254,242.585 M280.838,235.383l-2.639,3.731h2.639V235.383"/>
	<path fill="#000000" d="M119.428,244.197h-0.221l-0.208-0.078l-0.078-0.208v-5.512c0-1.655-0.828-2.483-2.483-2.483h-1.313v1.56
		c0,0.407,0.043,0.726,0.13,0.956c0.087,0.23,0.238,0.371,0.455,0.422l0.533,0.13c0.147,0.043,0.221,0.182,0.221,0.416v0.182
		l-0.084,0.156l-0.215,0.052l-0.104-0.013l-0.494-0.117c-0.416-0.095-0.724-0.321-0.923-0.676c-0.2-0.355-0.299-0.858-0.299-1.508
		v-2.028l0.078-0.208l0.208-0.078h1.872c1.083,0,1.889,0.271,2.418,0.813c0.529,0.542,0.793,1.328,0.793,2.36v5.577l-0.078,0.208
		L119.428,244.197 M61.553,244.197h-0.221l-0.208-0.078l-0.078-0.208v-8.463l0.078-0.208l0.208-0.078h0.221l0.208,0.078l0.078,0.208
		v8.463l-0.078,0.208L61.553,244.197 M171.752,243.56h-0.221l-0.156-0.078l-0.026-0.195l0.247-1.56
		c0.026-0.234,0.134-0.351,0.325-0.351h0.585l0.143,0.065l0.052,0.143l-0.052,0.234l-0.559,1.469
		c-0.043,0.095-0.089,0.165-0.136,0.208L171.752,243.56 M252.533,242.715c-1.031,0-1.803-0.275-2.314-0.825
		c-0.511-0.55-0.767-1.354-0.767-2.412v-4.03l0.078-0.208l0.208-0.078h3.055c1.075,0,1.846,0.247,2.314,0.741
		c0.468,0.494,0.724,1.261,0.767,2.301c0.009,0.087,0.013,0.329,0.013,0.728c0,0.407-0.004,0.654-0.013,0.741
		c-0.026,1.031-0.304,1.796-0.832,2.295C254.513,242.466,253.677,242.715,252.533,242.715 M250.245,235.916v3.562
		c0,0.798,0.19,1.411,0.572,1.84c0.381,0.429,0.953,0.643,1.716,0.643c0.893,0,1.536-0.193,1.93-0.578
		c0.394-0.386,0.6-0.977,0.618-1.775c0.008-0.087,0.013-0.312,0.013-0.676c0-0.355-0.005-0.576-0.013-0.663
		c-0.018-0.762-0.239-1.345-0.663-1.748c-0.425-0.403-0.988-0.604-1.69-0.604H250.245 M127.799,242.715
		c-1.031,0-1.803-0.275-2.314-0.825c-0.511-0.55-0.767-1.354-0.767-2.412v-4.03l0.078-0.208l0.208-0.078h3.055
		c1.075,0,1.846,0.247,2.314,0.741c0.468,0.494,0.724,1.261,0.767,2.301c0.009,0.087,0.013,0.329,0.013,0.728
		c0,0.407-0.004,0.654-0.013,0.741c-0.026,1.031-0.303,1.796-0.832,2.295C129.78,242.466,128.943,242.715,127.799,242.715
		 M125.511,235.916v3.562c0,0.798,0.19,1.411,0.572,1.84c0.381,0.429,0.953,0.643,1.716,0.643c0.893,0,1.536-0.193,1.931-0.578
		c0.394-0.386,0.6-0.977,0.617-1.775c0.009-0.087,0.013-0.312,0.013-0.676c0-0.355-0.004-0.576-0.013-0.663
		c-0.018-0.762-0.239-1.345-0.663-1.748c-0.425-0.403-0.988-0.604-1.69-0.604H125.511 M155.19,242.702
		c-0.139,0-0.208-0.07-0.208-0.208v-0.325c0-0.147,0.091-0.256,0.273-0.325l0.533-0.208c0.667-0.26,1.176-0.62,1.527-1.079
		c0.351-0.459,0.527-1.144,0.527-2.054c0-0.65-0.078-1.161-0.234-1.534c-0.156-0.373-0.414-0.641-0.773-0.806
		c-0.36-0.165-0.852-0.247-1.475-0.247h-0.442h-0.039l-1.014-0.013l-0.208-0.072l-0.078-0.201v-1.989l0.078-0.208l0.208-0.078h0.221
		l0.208,0.078l0.078,0.208v1.521h1.053c0.806,0,1.441,0.111,1.904,0.332c0.464,0.221,0.797,0.578,1.001,1.072
		c0.203,0.494,0.306,1.17,0.306,2.028c0,1.118-0.253,1.972-0.76,2.561c-0.507,0.59-1.185,1.036-2.035,1.339l-0.546,0.195
		L155.19,242.702 M79.011,242.702c-0.139,0-0.208-0.07-0.208-0.208v-0.325c0-0.147,0.091-0.256,0.273-0.325l0.533-0.208
		c0.667-0.26,1.176-0.62,1.527-1.079c0.351-0.459,0.527-1.144,0.527-2.054c0-0.65-0.078-1.161-0.234-1.534
		c-0.156-0.373-0.414-0.641-0.773-0.806c-0.36-0.165-0.852-0.247-1.475-0.247h-0.442h-0.039l-1.014-0.013l-0.208-0.072l-0.078-0.201
		v-1.989l0.078-0.208l0.208-0.078h0.221l0.208,0.078l0.078,0.208v1.521h1.053c0.806,0,1.441,0.111,1.904,0.332
		c0.464,0.221,0.797,0.578,1.001,1.072c0.204,0.494,0.306,1.17,0.306,2.028c0,1.118-0.253,1.972-0.76,2.561
		c-0.507,0.59-1.185,1.036-2.035,1.339l-0.546,0.195L79.011,242.702 M220.101,242.652c-0.039,0-0.079,0-0.119-0.001h-0.871
		c-0.512,0-0.982-0.128-1.411-0.383c-0.429-0.256-0.769-0.622-1.02-1.099c-0.251-0.476-0.377-1.031-0.377-1.664v-4.056l0.078-0.208
		l0.208-0.078h0.221l0.208,0.078l0.078,0.208l0.052,3.887c0.884-0.06,1.504-0.279,1.859-0.656c0.355-0.377,0.533-0.865,0.533-1.463
		v-1.768l0.078-0.208l0.208-0.078h0.221l0.208,0.078l0.078,0.208v1.833c0,0.771-0.264,1.419-0.793,1.944
		c-0.529,0.525-1.309,0.813-2.34,0.865c0.095,0.572,0.346,1.014,0.754,1.326c0.407,0.312,0.914,0.468,1.521,0.468h0.455
		c0.029,0.001,0.057,0.001,0.086,0.001c0.834,0,1.477-0.25,1.929-0.748c0.468-0.516,0.702-1.211,0.702-2.087v-3.601l0.078-0.208
		l0.208-0.078h0.221l0.208,0.078l0.078,0.208v3.692c0,0.72-0.143,1.348-0.429,1.885c-0.286,0.537-0.689,0.947-1.209,1.229
		C221.311,242.519,220.745,242.652,220.101,242.652 M178.281,242.652c-0.039,0-0.079,0-0.119-0.001h-0.871
		c-0.512,0-0.981-0.128-1.41-0.383c-0.429-0.256-0.769-0.622-1.021-1.099c-0.251-0.476-0.377-1.031-0.377-1.664v-4.056l0.078-0.208
		l0.208-0.078h0.221l0.208,0.078l0.078,0.208l0.052,3.887c0.884-0.06,1.504-0.279,1.859-0.656c0.355-0.377,0.533-0.865,0.533-1.463
		v-1.768l0.078-0.208l0.208-0.078h0.221l0.208,0.078l0.078,0.208v1.833c0,0.771-0.264,1.419-0.793,1.944
		c-0.529,0.525-1.309,0.813-2.34,0.865c0.095,0.572,0.347,1.014,0.754,1.326c0.407,0.312,0.914,0.468,1.521,0.468h0.455
		c0.029,0.001,0.057,0.001,0.086,0.001c0.834,0,1.477-0.25,1.929-0.748c0.468-0.516,0.702-1.211,0.702-2.087v-3.601l0.078-0.208
		l0.208-0.078h0.221l0.208,0.078l0.078,0.208v3.692c0,0.72-0.143,1.348-0.429,1.885c-0.286,0.537-0.689,0.947-1.209,1.229
		C179.491,242.519,178.924,242.652,178.281,242.652 M266.157,242.585h-3.289l-0.208-0.078l-0.078-0.208v-0.182l0.078-0.208
		l0.208-0.078h2.782v-3.432c0-0.476-0.085-0.905-0.253-1.287c-0.169-0.381-0.403-0.676-0.702-0.884
		c-0.299-0.208-0.635-0.312-1.008-0.312h-1.508l-0.962,6.37l-0.11,0.214l-0.214,0.085h-0.234l-0.182-0.085l-0.052-0.214l0.949-6.37
		h-0.585l-0.208-0.078l-0.078-0.208v-0.182l0.078-0.208l0.208-0.078h2.964c0.52,0,0.984,0.13,1.391,0.39
		c0.407,0.26,0.726,0.63,0.956,1.111c0.23,0.481,0.344,1.038,0.344,1.67v3.965l-0.078,0.208L266.157,242.585 M258.266,242.585
		h-0.221l-0.208-0.078l-0.078-0.208v-6.851l0.078-0.208l0.208-0.078h0.221l0.208,0.078l0.078,0.208v6.851l-0.078,0.208
		L258.266,242.585 M242.081,242.585h-2.158l-0.208-0.078l-0.078-0.208v-0.182l0.078-0.208l0.208-0.078h2.093
		c0.659,0,1.159-0.214,1.502-0.643c0.342-0.429,0.531-1.042,0.565-1.84c0.009-0.086,0.013-0.247,0.013-0.481
		c0-0.225-0.004-0.381-0.013-0.468c-0.018-0.789-0.201-1.399-0.552-1.833c-0.351-0.433-0.856-0.65-1.515-0.65h-1.768v1.235
		c0,0.408,0.043,0.726,0.13,0.956c0.087,0.23,0.238,0.371,0.455,0.423l0.533,0.13c0.147,0.043,0.221,0.182,0.221,0.416v0.182
		l-0.085,0.156l-0.214,0.052l-0.104-0.013l-0.494-0.117c-0.416-0.095-0.724-0.321-0.923-0.676c-0.199-0.355-0.299-0.858-0.299-1.508
		v-1.703l0.078-0.208l0.208-0.078h2.327c0.893,0,1.575,0.275,2.047,0.826c0.472,0.55,0.722,1.332,0.747,2.346
		c0.009,0.087,0.013,0.264,0.013,0.533c0,0.277-0.004,0.459-0.013,0.546c-0.026,1.014-0.275,1.796-0.747,2.347
		C243.656,242.31,242.974,242.585,242.081,242.585 M234.281,242.585h-5.226l-0.208-0.078l-0.078-0.208v-6.851l0.078-0.208
		l0.208-0.078h2.301c1.083,0,1.889,0.271,2.418,0.813c0.529,0.542,0.793,1.328,0.793,2.36v3.965l-0.078,0.208L234.281,242.585
		 M229.549,235.916v5.915h4.225v-3.432c0-1.655-0.828-2.483-2.483-2.483H229.549 M213.963,242.585h-0.221l-0.208-0.078l-0.078-0.208
		v-6.851l0.078-0.208l0.208-0.078h0.221l0.208,0.078l0.078,0.208v6.851l-0.078,0.208L213.963,242.585 M211.064,242.585h-5.226
		l-0.208-0.078l-0.078-0.208v-6.851l0.078-0.208l0.208-0.078h2.301c1.083,0,1.889,0.271,2.418,0.813
		c0.529,0.542,0.793,1.328,0.793,2.36v3.965l-0.078,0.208L211.064,242.585 M206.332,235.916v5.915h4.225v-3.432
		c0-1.655-0.828-2.483-2.483-2.483H206.332 M197.102,242.585h-1.911l-0.208-0.078l-0.078-0.208v-0.182l0.078-0.208l0.208-0.078
		h1.846c0.849,0,1.467-0.21,1.852-0.63c0.386-0.42,0.596-1.038,0.631-1.853c0.009-0.13,0.013-0.29,0.013-0.481
		c0-0.182-0.004-0.338-0.013-0.468c-0.026-0.815-0.234-1.432-0.624-1.853c-0.39-0.42-1.01-0.63-1.859-0.63h-1.846l-0.208-0.078
		l-0.078-0.208v-0.182l0.078-0.208l0.208-0.078h1.911c1.074,0,1.87,0.269,2.385,0.806c0.516,0.537,0.791,1.326,0.825,2.366
		c0.009,0.13,0.013,0.308,0.013,0.533c0,0.234-0.004,0.416-0.013,0.546c-0.035,1.04-0.31,1.829-0.825,2.366
		C198.972,242.317,198.176,242.585,197.102,242.585 M192.487,242.585h-0.221l-0.208-0.078l-0.078-0.208v-3.9
		c0-1.655-0.828-2.483-2.483-2.483h-0.988c-0.087,0.624-0.149,1.127-0.188,1.508c-0.039,0.382-0.054,0.815-0.045,1.3v3.575
		l-0.078,0.208l-0.208,0.078l-1.482-0.026l-0.208-0.078l-0.078-0.208v-0.182l0.078-0.208l0.208-0.078l0.975,0.013v-3.029v-0.403
		c0-0.477,0.017-0.895,0.052-1.254c0.035-0.36,0.1-0.765,0.195-1.216h-0.663l-0.208-0.078l-0.078-0.208v-0.182l0.078-0.208
		l0.208-0.078h2.496c1.083,0,1.889,0.271,2.418,0.813c0.529,0.542,0.793,1.328,0.793,2.36v3.965l-0.078,0.208L192.487,242.585
		 M184.102,242.585h-0.221l-0.208-0.078l-0.078-0.208v-6.851l0.078-0.208l0.208-0.078h0.221l0.208,0.078l0.078,0.208v6.851
		l-0.078,0.208L184.102,242.585 M165.928,242.585h-3.289l-0.208-0.078l-0.078-0.208v-0.182l0.078-0.208l0.208-0.078h2.782v-3.432
		c0-0.476-0.085-0.905-0.253-1.287c-0.169-0.381-0.403-0.676-0.702-0.884c-0.299-0.208-0.635-0.312-1.008-0.312h-1.508l-0.962,6.37
		l-0.11,0.214l-0.215,0.085h-0.234l-0.182-0.085l-0.052-0.214l0.949-6.37h-0.585l-0.208-0.078l-0.078-0.208v-0.182l0.078-0.208
		l0.208-0.078h2.964c0.52,0,0.984,0.13,1.391,0.39c0.407,0.26,0.726,0.63,0.956,1.111c0.23,0.481,0.344,1.038,0.344,1.67v3.965
		l-0.078,0.208L165.928,242.585 M151.641,242.585h-0.221l-0.208-0.078l-0.078-0.208v-3.9c0-1.655-0.828-2.483-2.483-2.483h-1.742
		v6.383l-0.078,0.208l-0.208,0.078h-0.221l-0.208-0.078l-0.078-0.208v-6.851l0.078-0.208l0.208-0.078h2.314
		c1.083,0,1.889,0.271,2.418,0.813c0.529,0.542,0.793,1.328,0.793,2.36v3.965l-0.078,0.208L151.641,242.585 M140.292,242.585h-0.221
		l-0.208-0.078l-0.078-0.208v-6.851l0.078-0.208l0.208-0.078h0.221l0.208,0.078l0.078,0.208v6.851l-0.078,0.208L140.292,242.585
		 M138.017,242.585h-5.2l-0.208-0.078l-0.078-0.208v-0.182l0.078-0.208l0.208-0.078h3.913v-3.432c0-1.655-0.828-2.483-2.483-2.483
		h-1.3l-0.208-0.078l-0.078-0.208v-0.182l0.078-0.208l0.208-0.078h1.365c1.083,0,1.889,0.273,2.418,0.819
		c0.529,0.546,0.793,1.33,0.793,2.353v3.497h0.494l0.208,0.078l0.078,0.208v0.182l-0.078,0.208L138.017,242.585 M122.327,242.585
		h-0.221l-0.208-0.078l-0.078-0.208v-6.851l0.078-0.208l0.208-0.078h0.221l0.208,0.078l0.078,0.208v6.851l-0.078,0.208
		L122.327,242.585 M109.197,242.585h-0.247l-0.176-0.045l-0.149-0.15l-3.211-4.472c-0.425,0.304-0.713,0.655-0.864,1.053
		c-0.152,0.399-0.228,0.841-0.228,1.326v2.002l-0.078,0.208l-0.208,0.078h-0.221l-0.208-0.078l-0.078-0.208v-2.067
		c0-0.615,0.098-1.164,0.293-1.645c0.195-0.481,0.578-0.908,1.15-1.28l-1.157-1.625c-0.069-0.104-0.104-0.191-0.104-0.26
		l0.078-0.182l0.182-0.078h0.247c0.121,0,0.23,0.065,0.325,0.195l2.938,4.095c0.364-0.199,0.628-0.405,0.793-0.617
		c0.165-0.212,0.266-0.427,0.306-0.644c0.039-0.217,0.058-0.507,0.058-0.871v-1.872l0.078-0.208l0.208-0.078h0.221l0.208,0.078
		l0.078,0.208v1.937c0,0.399-0.035,0.743-0.104,1.033c-0.07,0.29-0.215,0.572-0.436,0.845c-0.221,0.273-0.548,0.535-0.981,0.786
		l1.443,2.015c0.069,0.104,0.104,0.191,0.104,0.26l-0.078,0.182L109.197,242.585 M101.501,242.585h-0.221l-0.208-0.078l-0.078-0.208
		v-3.9c0-1.655-0.828-2.483-2.483-2.483h-0.988c-0.087,0.624-0.149,1.127-0.188,1.508c-0.039,0.382-0.054,0.815-0.045,1.3v3.575
		l-0.078,0.208l-0.208,0.078l-1.482-0.026l-0.208-0.078l-0.078-0.208v-0.182l0.078-0.208l0.208-0.078l0.975,0.013v-3.029v-0.403
		c0-0.477,0.017-0.895,0.052-1.254c0.035-0.36,0.1-0.765,0.195-1.216H96.08l-0.208-0.078l-0.078-0.208v-0.182l0.078-0.208
		l0.208-0.078h2.496c1.083,0,1.889,0.271,2.418,0.813c0.529,0.542,0.793,1.328,0.793,2.36v3.965l-0.078,0.208L101.501,242.585
		 M89.84,242.585h-0.221l-0.208-0.078l-0.078-0.208v-3.9c0-1.655-0.828-2.483-2.483-2.483h-2.236l-0.208-0.078l-0.078-0.208v-0.182
		l0.078-0.208l0.208-0.078h2.301c1.083,0,1.889,0.271,2.418,0.813c0.529,0.542,0.793,1.328,0.793,2.36v3.965l-0.078,0.208
		L89.84,242.585 M84.835,242.585h-0.221l-0.208-0.078l-0.078-0.208v-4.563l0.078-0.208l0.208-0.078h0.221l0.208,0.078l0.078,0.208
		v4.563l-0.078,0.208L84.835,242.585 M72.42,242.585h-3.289l-0.208-0.078l-0.078-0.208v-0.182l0.078-0.208l0.208-0.078h2.782v-3.432
		c0-0.476-0.085-0.905-0.253-1.287c-0.169-0.381-0.403-0.676-0.702-0.884c-0.299-0.208-0.635-0.312-1.008-0.312h-1.508l-0.962,6.37
		l-0.11,0.214l-0.214,0.085h-0.234l-0.182-0.085l-0.052-0.214l0.949-6.37h-0.585l-0.208-0.078l-0.078-0.208v-0.182l0.078-0.208
		l0.208-0.078h2.964c0.52,0,0.984,0.13,1.391,0.39c0.407,0.26,0.726,0.63,0.956,1.111c0.229,0.481,0.344,1.038,0.344,1.67v3.965
		l-0.078,0.208L72.42,242.585 M64.529,242.585h-0.221l-0.208-0.078l-0.078-0.208v-6.851l0.078-0.208l0.208-0.078h0.221l0.208,0.078
		l0.078,0.208v6.851l-0.078,0.208L64.529,242.585 M247.164,239.595h-0.221l-0.208-0.078l-0.078-0.208v-3.861l0.078-0.208
		l0.208-0.078h0.221l0.208,0.078l0.078,0.208v3.861l-0.078,0.208L247.164,239.595 M237.076,239.595h-0.221l-0.208-0.078
		l-0.078-0.208v-3.861l0.078-0.208l0.208-0.078h0.221l0.208,0.078l0.078,0.208v3.861l-0.078,0.208L237.076,239.595 M75.215,239.595
		h-0.221l-0.208-0.078l-0.078-0.208v-3.861l0.078-0.208l0.208-0.078h0.221l0.208,0.078l0.078,0.208v3.861l-0.078,0.208
		L75.215,239.595"/>
	<path fill="#000000" d="M280.383,265.297c-0.72,0-1.341-0.121-1.866-0.364c-0.525-0.243-0.921-0.563-1.189-0.962
		c-0.269-0.398-0.412-0.827-0.429-1.287v-0.026l0.085-0.176l0.188-0.071h1.235c0.199,0,0.325,0.087,0.377,0.26
		c0.121,0.381,0.323,0.663,0.604,0.845c0.282,0.182,0.613,0.273,0.995,0.273c0.485,0,0.886-0.147,1.202-0.442
		c0.316-0.295,0.474-0.702,0.474-1.222c0-0.468-0.158-0.847-0.474-1.138c-0.316-0.29-0.717-0.435-1.202-0.435
		c-0.26,0-0.472,0.035-0.637,0.104c-0.165,0.07-0.325,0.165-0.481,0.286l-0.117,0.078l-0.162,0.091l-0.15,0.026h-1.222l-0.202-0.085
		l-0.084-0.201l0.442-4.433c0.009-0.113,0.05-0.202,0.123-0.267c0.074-0.065,0.163-0.098,0.266-0.098h4.888
		c0.095,0,0.171,0.028,0.228,0.085c0.056,0.056,0.084,0.132,0.084,0.228v0.884l-0.084,0.221c-0.056,0.061-0.132,0.091-0.228,0.091
		h-3.757l-0.208,2.106c0.199-0.13,0.429-0.236,0.689-0.318c0.26-0.082,0.598-0.123,1.014-0.123c0.563,0,1.086,0.119,1.567,0.358
		c0.481,0.238,0.867,0.581,1.157,1.027c0.29,0.447,0.436,0.964,0.436,1.554c0,0.633-0.148,1.185-0.442,1.657
		c-0.295,0.472-0.711,0.836-1.248,1.092C281.717,265.169,281.093,265.297,280.383,265.297"/>
	<path fill="#000000" d="M201.873,267.637h-0.221l-0.208-0.078l-0.078-0.208v-7.046l0.078-0.208l0.208-0.078h0.221l0.208,0.078
		l0.078,0.208v7.046l-0.078,0.208L201.873,267.637 M129.529,266.766h-0.221l-0.208-0.078l-0.078-0.208v-5.512
		c0-1.655-0.832-2.483-2.496-2.483h-1.846l-0.208-0.078l-0.078-0.208v-0.182l0.078-0.208l0.208-0.078h1.911
		c1.092,0,1.902,0.264,2.431,0.793c0.529,0.529,0.793,1.322,0.793,2.379v5.577l-0.078,0.208L129.529,266.766 M250.011,265.895
		l-0.175-0.065l-0.071-0.156v-0.169c0-0.2,0.06-0.321,0.182-0.364l1.781-0.65l-1.729-6.24c-0.043-0.147-0.065-0.234-0.065-0.26
		l0.078-0.182l0.182-0.078h0.234l0.195,0.058l0.104,0.137l1.781,6.279l0.13-0.052c0.711-0.26,1.209-0.632,1.495-1.118
		c0.286-0.485,0.429-1.075,0.429-1.768v-3.25l0.078-0.208l0.208-0.078h0.221l0.208,0.078l0.078,0.208v3.51
		c0,0.728-0.234,1.404-0.702,2.028c-0.468,0.624-1.088,1.075-1.859,1.352l-2.665,0.962L250.011,265.895 M263.518,265.284
		c-1.101,0-1.9-0.268-2.398-0.806c-0.498-0.537-0.747-1.326-0.747-2.366v-4.095l0.078-0.208l0.208-0.078h0.221l0.208,0.078
		l0.078,0.208v4.03c0,0.797,0.193,1.41,0.579,1.839c0.386,0.429,0.977,0.644,1.774,0.644c0.797,0,1.384-0.193,1.762-0.579
		c0.377-0.386,0.574-0.977,0.592-1.774v-0.442v-1.027c-0.018-0.78-0.191-1.356-0.52-1.729c-0.329-0.373-0.776-0.559-1.339-0.559
		c-0.165,0-0.353,0.031-0.566,0.091c-0.212,0.061-0.392,0.143-0.539,0.247l-0.13,0.039l-0.15-0.058l-0.071-0.15v-0.169v-0.065
		l0.026-0.182l0.104-0.117c0.199-0.13,0.405-0.228,0.617-0.293c0.212-0.065,0.47-0.098,0.773-0.098c0.806,0,1.432,0.243,1.879,0.728
		c0.446,0.486,0.682,1.235,0.709,2.249c0.009,0.087,0.013,0.351,0.013,0.793c0,0.451-0.004,0.72-0.013,0.806
		c-0.026,1.04-0.28,1.807-0.76,2.301C265.422,265.037,264.627,265.284,263.518,265.284 M203.797,265.271
		c-0.139,0-0.208-0.069-0.208-0.208v-0.325c0-0.147,0.091-0.256,0.273-0.325l0.533-0.208c0.667-0.26,1.176-0.619,1.527-1.079
		c0.351-0.459,0.527-1.144,0.527-2.054c0-0.65-0.078-1.161-0.234-1.534c-0.156-0.373-0.414-0.641-0.774-0.806
		c-0.36-0.165-0.851-0.247-1.475-0.247h-2.314l-0.208-0.078l-0.078-0.208v-0.182l0.078-0.208l0.208-0.078h2.379
		c0.806,0,1.441,0.111,1.904,0.331s0.797,0.579,1.001,1.073c0.203,0.494,0.305,1.17,0.305,2.028c0,1.118-0.253,1.972-0.76,2.561
		c-0.507,0.589-1.185,1.036-2.034,1.339l-0.546,0.195L203.797,265.271 M155.505,265.221c-0.039,0-0.079,0-0.119-0.001h-0.871
		c-0.512,0-0.982-0.128-1.411-0.384c-0.429-0.256-0.769-0.622-1.021-1.099c-0.251-0.477-0.377-1.031-0.377-1.664v-4.056l0.078-0.208
		l0.208-0.078h0.221l0.208,0.078l0.078,0.208l0.052,3.887c0.884-0.061,1.504-0.28,1.859-0.657c0.355-0.377,0.533-0.865,0.533-1.462
		v-1.768l0.078-0.208l0.208-0.078h0.221l0.208,0.078l0.078,0.208v1.833c0,0.771-0.264,1.419-0.793,1.944
		c-0.529,0.525-1.309,0.813-2.34,0.864c0.095,0.572,0.346,1.014,0.754,1.326c0.407,0.312,0.914,0.468,1.521,0.468h0.455
		c0.029,0.001,0.057,0.001,0.085,0.001c0.834,0,1.477-0.25,1.93-0.748c0.468-0.516,0.702-1.211,0.702-2.087v-3.601l0.078-0.208
		l0.208-0.078h0.221l0.208,0.078l0.078,0.208v3.692c0,0.72-0.143,1.348-0.429,1.885c-0.286,0.537-0.689,0.947-1.209,1.228
		C156.715,265.088,156.149,265.221,155.505,265.221 M257.967,265.154h-0.221l-0.208-0.078l-0.078-0.208v-6.851l0.078-0.208
		l0.208-0.078h0.221l0.208,0.078l0.078,0.208v6.851l-0.078,0.208L257.967,265.154 M247.84,265.154h-3.289l-0.208-0.078l-0.078-0.208
		v-0.182l0.078-0.208l0.208-0.078h2.782v-3.432c0-0.477-0.085-0.906-0.253-1.287c-0.169-0.381-0.403-0.676-0.702-0.884
		c-0.299-0.208-0.635-0.312-1.008-0.312h-1.508l-0.962,6.37l-0.111,0.215l-0.214,0.085h-0.234l-0.182-0.085l-0.052-0.215l0.949-6.37
		h-0.585l-0.208-0.078l-0.078-0.208v-0.182l0.078-0.208l0.208-0.078h2.964c0.52,0,0.983,0.13,1.391,0.39
		c0.407,0.26,0.726,0.63,0.956,1.111c0.229,0.481,0.344,1.038,0.344,1.67v3.965l-0.078,0.208L247.84,265.154 M237.258,265.154
		h-5.226l-0.208-0.078l-0.078-0.208v-6.851l0.078-0.208l0.208-0.078h2.301c1.083,0,1.889,0.271,2.418,0.813
		c0.529,0.542,0.793,1.328,0.793,2.36v3.965l-0.078,0.208L237.258,265.154 M232.526,258.485v5.915h4.225v-3.432
		c0-1.655-0.828-2.483-2.483-2.483H232.526 M225.922,265.154h-0.221l-0.208-0.078l-0.078-0.208v-6.851l0.078-0.208l0.208-0.078
		h0.221l0.208,0.078l0.078,0.208v6.851l-0.078,0.208L225.922,265.154 M223.023,265.154h-3.289l-0.208-0.078l-0.078-0.208v-0.182
		l0.078-0.208l0.208-0.078h2.782v-3.432c0-0.477-0.084-0.906-0.253-1.287c-0.169-0.381-0.403-0.676-0.702-0.884
		c-0.299-0.208-0.635-0.312-1.008-0.312h-1.508l-0.962,6.37l-0.11,0.215l-0.215,0.085h-0.234l-0.182-0.085l-0.052-0.215l0.949-6.37
		h-0.585l-0.208-0.078l-0.078-0.208v-0.182l0.078-0.208l0.208-0.078h2.964c0.52,0,0.983,0.13,1.391,0.39
		c0.407,0.26,0.726,0.63,0.956,1.111c0.23,0.481,0.345,1.038,0.345,1.67v3.965l-0.078,0.208L223.023,265.154 M215.21,265.154h-0.221
		l-0.208-0.078l-0.078-0.208v-3.9c0-1.655-0.828-2.483-2.483-2.483h-0.988c-0.087,0.624-0.149,1.127-0.188,1.508
		c-0.039,0.382-0.054,0.815-0.045,1.3v3.575l-0.078,0.208l-0.208,0.078l-1.482-0.026l-0.208-0.078l-0.078-0.208v-0.182l0.078-0.208
		l0.208-0.078l0.975,0.013v-3.029v-0.403c0-0.476,0.017-0.895,0.052-1.254c0.035-0.359,0.1-0.765,0.195-1.215h-0.663l-0.208-0.078
		l-0.078-0.208v-0.182l0.078-0.208l0.208-0.078h2.496c1.083,0,1.889,0.271,2.418,0.813c0.529,0.542,0.793,1.328,0.793,2.36v3.965
		l-0.078,0.208L215.21,265.154 M199.299,265.154h-3.224l-0.208-0.078l-0.078-0.208v-0.182l0.078-0.208l0.208-0.078h2.691
		l-0.247-3.562l-0.013-0.273c-0.035-0.52-0.078-0.914-0.13-1.183c-0.052-0.268-0.165-0.485-0.338-0.65
		c-0.174-0.165-0.438-0.247-0.793-0.247h-0.481l-0.208-0.078l-0.078-0.208v-0.182l0.078-0.208l0.208-0.078h0.481
		c0.58,0,1.012,0.126,1.293,0.377c0.282,0.251,0.468,0.577,0.559,0.975c0.091,0.399,0.163,0.962,0.215,1.69l0.273,4.095v0.039
		l-0.084,0.176L199.299,265.154 M191.096,265.154h-5.226l-0.208-0.078l-0.078-0.208v-6.851l0.078-0.208l0.208-0.078h2.301
		c1.083,0,1.889,0.271,2.418,0.813c0.529,0.542,0.793,1.328,0.793,2.36v3.965l-0.078,0.208L191.096,265.154 M186.364,258.485v5.915
		h4.225v-3.432c0-1.655-0.828-2.483-2.483-2.483H186.364 M180.15,265.154h-0.247l-0.176-0.046l-0.15-0.149l-3.211-4.472
		c-0.425,0.304-0.713,0.654-0.865,1.053c-0.152,0.399-0.227,0.841-0.227,1.326v2.002l-0.078,0.208l-0.208,0.078h-0.221l-0.208-0.078
		l-0.078-0.208v-2.067c0-0.615,0.098-1.164,0.293-1.644c0.195-0.481,0.579-0.908,1.151-1.281l-1.157-1.625
		c-0.07-0.104-0.104-0.19-0.104-0.26l0.078-0.182l0.182-0.078h0.247c0.121,0,0.23,0.065,0.325,0.195l2.938,4.095
		c0.364-0.199,0.628-0.405,0.793-0.618c0.165-0.212,0.267-0.427,0.306-0.643c0.039-0.217,0.058-0.507,0.058-0.871v-1.872
		l0.078-0.208l0.208-0.078h0.221l0.208,0.078l0.078,0.208v1.937c0,0.399-0.035,0.743-0.104,1.033
		c-0.069,0.291-0.214,0.572-0.435,0.845c-0.221,0.273-0.548,0.535-0.982,0.787l1.443,2.015c0.069,0.104,0.104,0.191,0.104,0.26
		l-0.078,0.182L180.15,265.154 M172.454,265.154h-5.226l-0.208-0.078l-0.078-0.208v-6.851l0.078-0.208l0.208-0.078h2.301
		c1.083,0,1.889,0.271,2.418,0.813c0.529,0.542,0.793,1.328,0.793,2.36v3.965l-0.078,0.208L172.454,265.154 M167.722,258.485v5.915
		h4.225v-3.432c0-1.655-0.828-2.483-2.483-2.483H167.722 M146.234,265.154h-4.485l-0.208-0.078l-0.078-0.208v-0.182l0.078-0.208
		l0.208-0.078h3.705l-4.173-6.149c-0.069-0.104-0.104-0.19-0.104-0.26l0.084-0.182l0.188-0.078h0.234
		c0.13,0,0.238,0.069,0.325,0.208l2.496,3.627c0.849-0.32,1.274-1.083,1.274-2.288v-1.261l0.078-0.208l0.208-0.078h0.221
		l0.208,0.078l0.078,0.208v1.326c0,0.702-0.141,1.289-0.423,1.761c-0.282,0.472-0.695,0.821-1.242,1.046l1.469,2.145
		c0.095,0.139,0.143,0.269,0.143,0.39v0.182l-0.078,0.208L146.234,265.154 M139.37,265.154h-0.221l-0.208-0.078l-0.078-0.208v-6.851
		l0.078-0.208l0.208-0.078h0.221l0.208,0.078l0.078,0.208v6.851l-0.078,0.208L139.37,265.154 M136.471,265.154h-0.221l-0.208-0.078
		l-0.078-0.208v-3.9c0-1.655-0.828-2.483-2.483-2.483h-1.586l-0.208-0.078l-0.078-0.208v-0.182l0.078-0.208l0.208-0.078h1.651
		c1.083,0,1.889,0.271,2.418,0.813c0.529,0.542,0.793,1.328,0.793,2.36v3.965l-0.078,0.208L136.471,265.154 M240.053,262.164h-0.221
		l-0.208-0.078l-0.078-0.208v-3.861l0.078-0.208l0.208-0.078h0.221l0.208,0.078l0.078,0.208v3.861l-0.078,0.208L240.053,262.164
		 M193.891,262.164h-0.221l-0.208-0.078l-0.078-0.208v-3.861l0.078-0.208l0.208-0.078h0.221l0.208,0.078l0.078,0.208v3.861
		l-0.078,0.208L193.891,262.164 M161.222,262.164h-0.221l-0.208-0.078l-0.078-0.208v-3.861l0.078-0.208l0.208-0.078h0.221
		l0.208,0.078l0.078,0.208v3.861l-0.078,0.208L161.222,262.164"/>
</g>
</svg>
