<!-- Generator: Adobe InDesign 14.0 SVG Export Plug-in, SVG Library version: 6.0 build 234 -->
<!DOCTYPE svg PUBLIC "-//W3C//DTD SVG 1.1//EN" "http://www.w3.org/Graphics/SVG/1.1/DTD/svg11.dtd">
<svg version="1.1" xmlns="http://www.w3.org/2000/svg" xmlns:xlink="http://www.w3.org/1999/xlink" x="0%" y="0%" width="100%"
	 height="100%" viewBox="0 0 313.376 534.346" preserveAspectRatio="xMidYMid slice" overflow="visible" xml:space="preserve">
<clipPath id="clp_unq_id_1" fill="none">
	<path shape-rendering="crispEdges" stroke="#000000" d="M0,0h313.376v534.346H0V0"/>
</clipPath>
<g clip-path="url(#clp_unq_id_1)" fill="none">
	<path fill="#71A850" d="M188.251,20.464l2.544-0.48l0.024-1.512v-3.648l-0.312-2.808h-2.544l0.288,2.808V20.464z M192.69,25.888
		c1.648-0.16,2.84-0.6,3.576-1.32c0.736-0.72,1.104-1.872,1.104-3.456v-7.128h3.264c0.704,0,1.24,0.188,1.608,0.564
		c0.368,0.376,0.552,0.988,0.552,1.836v9.12h2.568v-9c0-1.552-0.36-2.688-1.08-3.408s-1.72-1.08-3-1.08h-6.48V21.4
		c0,0.896-0.16,1.544-0.48,1.944c-0.32,0.4-0.944,0.648-1.872,0.744L192.69,25.888z M208.482,20.464l2.544-0.48l0.024-1.512v-3.648
		l-0.312-2.808h-2.544l0.288,2.808V20.464z M222.882,23.536v-7.032c0-1.552-0.36-2.688-1.08-3.408c-0.72-0.72-1.72-1.08-3-1.08
		h-5.16v1.968h4.512c0.704,0,1.24,0.188,1.608,0.564c0.368,0.376,0.552,0.988,0.552,1.836v7.152h-6.672v1.968h6.672h4.224v-1.968
		H222.882z M242.97,17.704l-0.024-0.768c-0.048-1.52-0.484-2.72-1.308-3.6c-0.824-0.88-1.98-1.32-3.468-1.32h-6.912l0.24,1.968
		l1.392,11.76c3.232-0.112,5.744-0.788,7.536-2.028C242.218,22.476,243.066,20.472,242.97,17.704z M235.146,23.416l-1.08-9.432
		h3.912c0.768,0,1.368,0.28,1.8,0.84c0.432,0.56,0.648,1.288,0.648,2.184v0.648c0.064,1.936-0.352,3.34-1.248,4.212
		C238.282,22.74,236.938,23.256,235.146,23.416z M245.85,25.504h2.568v-10.68l-0.312-2.808h-2.544l0.288,2.808V25.504z
		 M263.753,18.712c0-2.368-0.448-4.108-1.344-5.22c-0.896-1.112-2.144-1.668-3.744-1.668c-0.88,0-1.664,0.252-2.352,0.756
		c-0.688,0.504-1.2,1.26-1.536,2.268l-1.08-2.832h-2.664l1.872,4.2l-1.728,9.288h2.568l1.608-9.192
		c0.16-0.736,0.484-1.324,0.972-1.764c0.488-0.44,1.116-0.66,1.884-0.66c0.992,0,1.756,0.38,2.292,1.14
		c0.536,0.76,0.804,2.012,0.804,3.756c0,1.632-0.28,2.872-0.84,3.72c-0.56,0.848-1.448,1.272-2.664,1.272
		c-0.432,0-0.952-0.064-1.56-0.192l-0.264,1.968c0.704,0.16,1.392,0.24,2.064,0.24c1.824,0,3.232-0.62,4.224-1.86
		C263.257,22.692,263.753,20.952,263.753,18.712z M266.513,25.504h2.568v-10.68l-0.312-2.808h-2.544l0.288,2.808V25.504z
		 M278.921,12.016h-6.912v1.032v12.456h2.568v-11.52h3.696c1.44,0,2.16,0.88,2.16,2.64v8.88h2.568v-8.76
		c0-1.584-0.356-2.768-1.068-3.552C281.221,12.408,280.217,12.016,278.921,12.016z"/>
	<path fill="#000000" d="M283.23,56.577h-0.546l-0.214-0.085l-0.085-0.215v-3.887c0-1.491-0.745-2.236-2.236-2.236h-1.586v6.123
		l-0.084,0.215l-0.215,0.085h-0.546l-0.214-0.085l-0.085-0.215v-6.825c0-0.095,0.028-0.169,0.085-0.221l0.214-0.078h2.496
		c1.118,0,1.95,0.266,2.496,0.8c0.546,0.533,0.819,1.332,0.819,2.398v3.926l-0.084,0.215L283.23,56.577 M275.105,56.577h-0.572
		l-0.214-0.085l-0.085-0.215v-6.825c0-0.095,0.028-0.169,0.085-0.221l0.214-0.078h0.572l0.215,0.085l0.084,0.214v6.825l-0.084,0.215
		L275.105,56.577 M271.985,56.577h-3.354l-0.208-0.085l-0.078-0.215v-0.416l0.078-0.214l0.208-0.085h2.509v-3.159
		c0-0.659-0.167-1.194-0.5-1.605c-0.334-0.412-0.756-0.618-1.267-0.618h-1.378l-1.001,6.084l-0.111,0.221l-0.214,0.091h-0.546
		l-0.201-0.091l-0.059-0.221l1.04-6.084h-0.663l-0.214-0.084l-0.085-0.215v-0.429l0.085-0.214l0.214-0.085h3.263
		c0.537,0,1.016,0.128,1.437,0.384c0.42,0.256,0.749,0.622,0.988,1.099c0.238,0.477,0.358,1.04,0.358,1.69v3.952l-0.085,0.215
		L271.985,56.577 M263.912,56.577h-0.546l-0.214-0.085l-0.085-0.215v-3.887c0-1.491-0.746-2.236-2.236-2.236h-1.677l-0.215-0.078
		l-0.084-0.208v-0.416l0.084-0.214l0.215-0.085h1.755c2.201,0,3.302,1.057,3.302,3.172v3.952l-0.084,0.215L263.912,56.577
		 M253.902,56.577h-5.447l-0.214-0.085l-0.085-0.215v-6.825c0-0.095,0.028-0.169,0.085-0.221l0.214-0.078h2.457
		c1.109,0,1.935,0.264,2.476,0.793c0.542,0.529,0.813,1.322,0.813,2.379v3.952l-0.084,0.215L253.902,56.577 M249.235,50.155v5.408
		h3.848v-3.172c0-1.491-0.745-2.236-2.236-2.236H249.235 M245.921,56.577h-0.897l-0.208-0.085l-0.078-0.215v-0.871
		c0-0.095,0.026-0.171,0.078-0.228l0.208-0.084h0.897c0.095,0,0.171,0.028,0.227,0.084c0.056,0.057,0.085,0.132,0.085,0.228v0.871
		l-0.091,0.215L245.921,56.577 M256.931,53.561h-0.572l-0.215-0.085l-0.084-0.214v-3.809c0-0.095,0.028-0.169,0.084-0.221
		l0.215-0.078h0.572l0.214,0.085l0.085,0.214v3.809l-0.085,0.214L256.931,53.561 M245.921,52.027h-0.897l-0.208-0.084l-0.078-0.215
		v-0.871c0-0.095,0.026-0.171,0.078-0.228l0.208-0.084h0.897c0.095,0,0.171,0.028,0.227,0.084c0.056,0.056,0.085,0.132,0.085,0.228
		v0.871l-0.091,0.215L245.921,52.027"/>
	<path fill="#000000" d="M257.815,73.607c-1.066,0-1.866-0.279-2.398-0.838c-0.533-0.559-0.8-1.363-0.8-2.411v-4.004
		c0-0.095,0.028-0.169,0.084-0.221l0.215-0.078h3.12c1.118,0,1.92,0.251,2.405,0.754c0.485,0.503,0.749,1.274,0.793,2.314
		c0.009,0.087,0.013,0.321,0.013,0.702c0,0.382-0.004,0.615-0.013,0.702c-0.026,1.031-0.308,1.803-0.845,2.314
		C259.852,73.352,258.994,73.607,257.815,73.607 M255.709,67.055v3.302c0,0.719,0.176,1.27,0.527,1.651
		c0.351,0.382,0.873,0.572,1.567,0.572c0.815,0,1.399-0.171,1.755-0.514c0.355-0.342,0.542-0.878,0.559-1.605
		c0.009-0.087,0.013-0.299,0.013-0.637c0-0.338-0.005-0.55-0.013-0.637c-0.017-0.693-0.214-1.222-0.592-1.586
		c-0.377-0.364-0.895-0.546-1.553-0.546H255.709 M283.23,73.477h-0.546l-0.214-0.085l-0.085-0.215v-3.887
		c0-1.491-0.745-2.236-2.236-2.236h-1.586v6.123l-0.084,0.215l-0.215,0.085h-0.546l-0.214-0.085l-0.085-0.215v-6.825
		c0-0.095,0.028-0.169,0.085-0.221l0.214-0.078h2.496c1.118,0,1.95,0.266,2.496,0.8c0.546,0.533,0.819,1.332,0.819,2.398v3.926
		l-0.084,0.215L283.23,73.477 M275.105,73.477h-0.572l-0.214-0.085l-0.085-0.215v-6.825c0-0.095,0.028-0.169,0.085-0.221
		l0.214-0.078h0.572l0.215,0.085l0.084,0.214v6.825l-0.084,0.215L275.105,73.477 M271.985,73.477h-3.354l-0.208-0.085l-0.078-0.215
		v-0.416l0.078-0.215l0.208-0.085h2.509v-3.159c0-0.659-0.167-1.194-0.5-1.605c-0.334-0.412-0.756-0.617-1.267-0.617h-1.378
		l-1.001,6.084l-0.111,0.221l-0.214,0.091h-0.546l-0.201-0.091l-0.059-0.221l1.04-6.084h-0.663l-0.214-0.085l-0.085-0.215v-0.429
		l0.085-0.214l0.214-0.085h3.263c0.537,0,1.016,0.128,1.437,0.384c0.42,0.256,0.749,0.622,0.988,1.099
		c0.238,0.477,0.358,1.04,0.358,1.69v3.952l-0.085,0.215L271.985,73.477 M263.847,73.477h-0.572l-0.214-0.085l-0.085-0.215v-6.825
		c0-0.095,0.028-0.169,0.085-0.221l0.214-0.078h0.572l0.215,0.085l0.084,0.214v6.825l-0.084,0.215L263.847,73.477"/>
	<path fill="#000000" d="M280.487,90.507c-1.135,0-1.963-0.271-2.483-0.813c-0.52-0.542-0.78-1.333-0.78-2.373v-4.069
		c0-0.095,0.028-0.169,0.085-0.221l0.214-0.078h0.494c0.095,0,0.169,0.026,0.221,0.078c0.052,0.052,0.078,0.126,0.078,0.221v4.004
		c0,0.719,0.18,1.27,0.539,1.651c0.36,0.382,0.904,0.572,1.632,0.572c0.719,0,1.25-0.175,1.593-0.527
		c0.342-0.351,0.522-0.882,0.539-1.593v-0.403v-0.936c-0.018-0.71-0.169-1.239-0.455-1.586c-0.286-0.346-0.676-0.52-1.17-0.52
		c-0.156,0-0.329,0.028-0.52,0.084c-0.191,0.057-0.356,0.128-0.494,0.215l-0.13,0.039l-0.163-0.071l-0.071-0.163v-0.377
		c0-0.104,0.008-0.186,0.026-0.247l0.143-0.156c0.182-0.121,0.375-0.21,0.579-0.266c0.203-0.056,0.461-0.085,0.773-0.085
		c0.841,0,1.48,0.245,1.918,0.735c0.437,0.49,0.669,1.246,0.695,2.269c0.009,0.087,0.013,0.342,0.013,0.767
		c0,0.425-0.004,0.68-0.013,0.767c-0.035,1.04-0.306,1.813-0.813,2.32C282.43,90.254,281.613,90.507,280.487,90.507 M275.04,90.377
		h-0.546l-0.215-0.085l-0.084-0.214v-3.887c0-1.491-0.745-2.236-2.236-2.236h-1.586v6.123l-0.085,0.214l-0.214,0.085h-0.546
		l-0.215-0.085l-0.084-0.214v-6.825c0-0.095,0.028-0.169,0.084-0.221l0.215-0.078h2.496c1.118,0,1.95,0.266,2.496,0.8
		c0.546,0.533,0.819,1.332,0.819,2.398v3.926l-0.085,0.214L275.04,90.377 M264.289,90.377h-3.471l-0.214-0.085l-0.085-0.214v-0.416
		l0.085-0.215l0.214-0.085h2.561l-0.208-3.302c-0.043-0.563-0.089-0.977-0.137-1.242c-0.048-0.264-0.154-0.479-0.318-0.644
		c-0.165-0.165-0.42-0.247-0.767-0.247h-0.533l-0.215-0.078l-0.084-0.208v-0.416l0.084-0.215l0.215-0.084h0.533
		c0.624,0,1.103,0.123,1.437,0.371c0.334,0.247,0.563,0.587,0.689,1.02c0.125,0.434,0.21,1.001,0.253,1.703l0.247,4.056v0.039
		l-0.084,0.188L264.289,90.377 M258.699,90.377h-0.546l-0.214-0.085l-0.085-0.214v-3.887c0-1.491-0.741-2.236-2.223-2.236h-2.418
		l-0.215-0.078l-0.085-0.208v-0.416c0-0.095,0.028-0.169,0.085-0.221l0.215-0.078h2.483c2.201,0,3.302,1.066,3.302,3.198v3.926
		l-0.084,0.214L258.699,90.377 M253.759,90.377h-0.546l-0.215-0.085l-0.085-0.214V85.71l0.085-0.215l0.215-0.084h0.546l0.215,0.084
		l0.085,0.215v4.368l-0.085,0.214L253.759,90.377 M267.006,87.361h-0.572l-0.215-0.084l-0.085-0.215v-3.809
		c0-0.095,0.028-0.169,0.085-0.221l0.215-0.078h0.572l0.214,0.085l0.085,0.214v3.809l-0.085,0.215L267.006,87.361"/>
	<path fill="#000000" d="M280.201,107.357c-0.039,0-0.078,0-0.118-0.001h-0.962c-0.563,0-1.07-0.13-1.521-0.39
		c-0.451-0.26-0.804-0.626-1.06-1.099c-0.256-0.472-0.384-1.016-0.384-1.631v-4.082c0-0.095,0.028-0.169,0.085-0.221l0.215-0.078
		h0.507l0.214,0.085l0.085,0.214l0.039,3.692c0.789-0.061,1.337-0.273,1.645-0.637c0.308-0.364,0.462-0.841,0.462-1.43v-1.625
		l0.085-0.214l0.214-0.085h0.507l0.215,0.085l0.085,0.214v1.677c0,0.832-0.264,1.517-0.793,2.054
		c-0.529,0.537-1.305,0.832-2.327,0.884c0.138,0.503,0.396,0.891,0.773,1.164c0.377,0.273,0.83,0.41,1.359,0.41h0.416
		c0.015,0,0.029,0,0.043,0c0.802,0,1.429-0.238,1.881-0.715c0.459-0.485,0.689-1.131,0.689-1.937v-3.536l0.084-0.214l0.215-0.085
		h0.507l0.214,0.085l0.085,0.214v3.614c0,0.728-0.15,1.367-0.449,1.918c-0.299,0.55-0.719,0.971-1.261,1.261
		C281.438,107.22,280.855,107.357,280.201,107.357 M273.974,107.277h-0.572l-0.215-0.085l-0.084-0.214v-6.825
		c0-0.095,0.028-0.169,0.084-0.221l0.215-0.078h0.572l0.215,0.085l0.084,0.214v6.825l-0.084,0.214L273.974,107.277 M270.854,107.277
		h-5.447l-0.214-0.085l-0.085-0.214v-6.825c0-0.095,0.028-0.169,0.085-0.221l0.214-0.078h2.457c1.109,0,1.935,0.264,2.476,0.793
		c0.542,0.529,0.813,1.322,0.813,2.379v3.952l-0.084,0.214L270.854,107.277 M266.187,100.855v5.408h3.848v-3.172
		c0-1.491-0.745-2.236-2.236-2.236H266.187"/>
	<path fill="#000000" d="M262.092,125.789h-0.546l-0.215-0.078c-0.056-0.052-0.085-0.126-0.085-0.221v-8.437
		c0-0.095,0.028-0.169,0.085-0.221l0.215-0.078h0.546l0.215,0.085l0.085,0.215v8.437l-0.085,0.215L262.092,125.789 M280.175,124.307
		l-0.163-0.065l-0.071-0.182v-0.572c0-0.156,0.095-0.273,0.286-0.351l0.507-0.195c0.598-0.225,1.057-0.55,1.378-0.975
		c0.32-0.425,0.481-1.049,0.481-1.872c0-0.58-0.069-1.038-0.208-1.371c-0.139-0.334-0.366-0.574-0.682-0.722
		c-0.316-0.147-0.752-0.221-1.307-0.221h-0.403h-0.039l-1.196-0.013l-0.215-0.078l-0.084-0.208v-2.236l0.084-0.214l0.215-0.085h0.52
		l0.208,0.085l0.078,0.214v1.508h1.001c0.789,0,1.415,0.113,1.878,0.338c0.464,0.226,0.8,0.585,1.008,1.079
		c0.208,0.494,0.312,1.153,0.312,1.976c0,1.109-0.273,1.974-0.819,2.593c-0.546,0.62-1.257,1.077-2.132,1.372l-0.546,0.182
		L280.175,124.307 M273.428,124.177h-3.354l-0.208-0.085l-0.078-0.214v-0.416l0.078-0.215l0.208-0.084h2.509v-3.159
		c0-0.659-0.167-1.194-0.5-1.605c-0.334-0.411-0.756-0.617-1.268-0.617h-1.378l-1.001,6.084l-0.111,0.221l-0.214,0.091h-0.546
		l-0.201-0.091l-0.059-0.221l1.04-6.084h-0.663l-0.214-0.085l-0.085-0.214v-0.429l0.085-0.215l0.214-0.085h3.263
		c0.537,0,1.016,0.128,1.437,0.384c0.42,0.256,0.75,0.622,0.988,1.099c0.238,0.477,0.358,1.04,0.358,1.69v3.952l-0.085,0.214
		L273.428,124.177 M265.29,124.177h-0.572l-0.214-0.085l-0.085-0.214v-6.825c0-0.095,0.028-0.169,0.085-0.221l0.214-0.078h0.572
		l0.215,0.085l0.084,0.215v6.825l-0.084,0.214L265.29,124.177 M276.457,121.161h-0.572l-0.215-0.084l-0.084-0.215v-3.809
		c0-0.095,0.028-0.169,0.084-0.221l0.215-0.078h0.572l0.214,0.085l0.085,0.215v3.809l-0.085,0.215L276.457,121.161"/>
	<path fill="#000000" d="M272.102,141.207l-0.163-0.065l-0.072-0.182v-0.572c0-0.156,0.095-0.273,0.286-0.351l0.507-0.195
		c0.598-0.225,1.057-0.55,1.378-0.975c0.321-0.425,0.481-1.049,0.481-1.872c0-0.581-0.07-1.038-0.208-1.372
		c-0.139-0.334-0.366-0.574-0.682-0.722c-0.316-0.147-0.752-0.221-1.307-0.221h-0.403h-0.039l-1.196-0.013l-0.215-0.078
		l-0.085-0.208v-2.236l0.085-0.214l0.215-0.085h0.52l0.208,0.085l0.078,0.214v1.508h1.001c0.789,0,1.415,0.113,1.879,0.338
		c0.464,0.226,0.8,0.585,1.008,1.079s0.312,1.153,0.312,1.976c0,1.109-0.273,1.974-0.819,2.593c-0.546,0.62-1.257,1.077-2.132,1.372
		l-0.546,0.182L272.102,141.207 M283.23,141.077h-3.354l-0.208-0.085l-0.078-0.214v-0.416l0.078-0.215l0.208-0.084h2.509v-3.159
		c0-0.659-0.167-1.194-0.501-1.605c-0.334-0.411-0.756-0.617-1.267-0.617h-1.378l-1.001,6.084l-0.111,0.221l-0.214,0.091h-0.546
		l-0.201-0.091l-0.058-0.221l1.04-6.084h-0.663l-0.215-0.085l-0.084-0.214v-0.429l0.084-0.215l0.215-0.085h3.263
		c0.537,0,1.016,0.128,1.437,0.384c0.42,0.256,0.75,0.622,0.988,1.099c0.238,0.477,0.357,1.04,0.357,1.69v3.952l-0.085,0.214
		L283.23,141.077 M268.605,141.077h-0.546l-0.215-0.085l-0.084-0.214v-3.887c0-1.491-0.745-2.236-2.236-2.236h-1.586v6.123
		l-0.085,0.214l-0.214,0.085h-0.546l-0.215-0.085l-0.084-0.214v-6.825c0-0.095,0.028-0.169,0.084-0.221l0.215-0.078h2.496
		c1.118,0,1.95,0.267,2.496,0.8c0.546,0.533,0.819,1.332,0.819,2.398v3.926l-0.085,0.214L268.605,141.077"/>
	<path fill="#000000" d="M283.243,174.877h-1.209l-0.221-0.091l-0.091-0.221v-6.708l-1.963,1.508l-0.195,0.065
		c-0.104,0-0.186-0.043-0.247-0.13l-0.559-0.728l-0.065-0.182c0-0.104,0.047-0.191,0.143-0.26l2.912-2.262
		c0.095-0.06,0.203-0.091,0.325-0.091h1.17l0.221,0.091l0.091,0.221v8.476l-0.091,0.221L283.243,174.877"/>
	<path fill="#000000" d="M203.875,175.007c-1.031,0-1.803-0.275-2.314-0.825c-0.512-0.55-0.767-1.354-0.767-2.411v-4.03l0.078-0.208
		l0.208-0.078h3.055c1.075,0,1.846,0.247,2.314,0.741c0.468,0.494,0.723,1.261,0.767,2.301c0.009,0.087,0.013,0.329,0.013,0.728
		c0,0.407-0.005,0.654-0.013,0.741c-0.026,1.031-0.303,1.796-0.832,2.295C205.855,174.758,205.019,175.007,203.875,175.007
		 M201.587,168.208v3.562c0,0.797,0.19,1.41,0.572,1.839c0.381,0.429,0.953,0.643,1.716,0.643c0.893,0,1.536-0.193,1.931-0.578
		c0.394-0.386,0.6-0.977,0.617-1.775c0.009-0.087,0.013-0.312,0.013-0.676c0-0.355-0.004-0.576-0.013-0.663
		c-0.017-0.762-0.238-1.345-0.663-1.748c-0.425-0.403-0.988-0.604-1.69-0.604H201.587 M192.201,174.994
		c-0.139,0-0.208-0.069-0.208-0.208v-0.325c0-0.147,0.091-0.255,0.273-0.325l0.533-0.208c0.667-0.26,1.176-0.619,1.527-1.079
		c0.351-0.459,0.527-1.144,0.527-2.054c0-0.65-0.078-1.161-0.234-1.534c-0.156-0.373-0.414-0.641-0.774-0.806
		c-0.36-0.165-0.851-0.247-1.475-0.247h-0.442h-0.039l-1.014-0.013l-0.208-0.071l-0.078-0.202v-1.989l0.078-0.208l0.208-0.078h0.221
		l0.208,0.078l0.078,0.208v1.521h1.053c0.806,0,1.441,0.111,1.904,0.331c0.464,0.221,0.797,0.578,1.001,1.072
		c0.204,0.494,0.306,1.17,0.306,2.028c0,1.118-0.253,1.972-0.76,2.561c-0.507,0.59-1.185,1.036-2.034,1.339l-0.546,0.195
		L192.201,174.994 M182.685,174.994c-0.139,0-0.208-0.069-0.208-0.208v-0.325c0-0.147,0.091-0.255,0.273-0.325l0.533-0.208
		c0.667-0.26,1.176-0.619,1.527-1.079c0.351-0.459,0.527-1.144,0.527-2.054c0-0.65-0.078-1.161-0.234-1.534
		c-0.156-0.373-0.414-0.641-0.773-0.806c-0.36-0.165-0.852-0.247-1.476-0.247h-0.442h-0.039l-1.014-0.013l-0.208-0.071l-0.078-0.202
		v-1.989l0.078-0.208l0.208-0.078h0.221l0.208,0.078l0.078,0.208v1.521h1.053c0.806,0,1.441,0.111,1.905,0.331
		c0.464,0.221,0.797,0.578,1.001,1.072c0.203,0.494,0.305,1.17,0.305,2.028c0,1.118-0.253,1.972-0.76,2.561
		c-0.507,0.59-1.185,1.036-2.034,1.339l-0.546,0.195L182.685,174.994 M155.97,174.994c-0.139,0-0.208-0.069-0.208-0.208v-0.325
		c0-0.147,0.091-0.255,0.273-0.325l0.533-0.208c0.667-0.26,1.176-0.619,1.527-1.079c0.351-0.459,0.527-1.144,0.527-2.054
		c0-0.65-0.078-1.161-0.234-1.534c-0.156-0.373-0.414-0.641-0.774-0.806c-0.36-0.165-0.851-0.247-1.475-0.247h-0.442h-0.039
		l-1.014-0.013l-0.208-0.071l-0.078-0.202v-1.989l0.078-0.208l0.208-0.078h0.221l0.208,0.078l0.078,0.208v1.521h1.053
		c0.806,0,1.441,0.111,1.904,0.331s0.797,0.578,1.001,1.072c0.204,0.494,0.306,1.17,0.306,2.028c0,1.118-0.253,1.972-0.76,2.561
		c-0.507,0.59-1.185,1.036-2.034,1.339l-0.546,0.195L155.97,174.994 M255.421,174.944c-0.039,0-0.079-0.001-0.119-0.001h-0.871
		c-0.512,0-0.982-0.128-1.411-0.384c-0.429-0.256-0.769-0.622-1.021-1.099c-0.251-0.476-0.377-1.031-0.377-1.664v-4.056l0.078-0.208
		l0.208-0.078h0.221l0.208,0.078l0.078,0.208l0.052,3.887c0.884-0.06,1.504-0.279,1.859-0.656c0.355-0.377,0.533-0.865,0.533-1.462
		v-1.768l0.078-0.208l0.208-0.078h0.221l0.208,0.078l0.078,0.208v1.833c0,0.771-0.264,1.419-0.793,1.943
		c-0.529,0.525-1.309,0.813-2.34,0.865c0.095,0.572,0.346,1.014,0.754,1.326c0.407,0.312,0.914,0.468,1.521,0.468h0.455
		c0.029,0.001,0.057,0.001,0.086,0.001c0.833,0,1.477-0.25,1.929-0.748c0.468-0.516,0.702-1.211,0.702-2.087v-3.601l0.078-0.208
		l0.208-0.078h0.221l0.208,0.078l0.078,0.208v3.692c0,0.719-0.143,1.348-0.429,1.885c-0.286,0.537-0.689,0.947-1.209,1.229
		C256.632,174.811,256.065,174.944,255.421,174.944 M164.955,174.944c-0.039,0-0.079-0.001-0.119-0.001h-0.871
		c-0.511,0-0.981-0.128-1.41-0.384c-0.429-0.256-0.769-0.622-1.021-1.099c-0.251-0.476-0.377-1.031-0.377-1.664v-4.056l0.078-0.208
		l0.208-0.078h0.221l0.208,0.078l0.078,0.208l0.052,3.887c0.884-0.06,1.504-0.279,1.859-0.656c0.355-0.377,0.533-0.865,0.533-1.462
		v-1.768l0.078-0.208l0.208-0.078h0.221l0.208,0.078l0.078,0.208v1.833c0,0.771-0.264,1.419-0.793,1.943
		c-0.529,0.525-1.309,0.813-2.34,0.865c0.095,0.572,0.347,1.014,0.754,1.326c0.407,0.312,0.914,0.468,1.521,0.468h0.455
		c0.029,0.001,0.057,0.001,0.086,0.001c0.833,0,1.477-0.25,1.929-0.748c0.468-0.516,0.702-1.211,0.702-2.087v-3.601l0.078-0.208
		l0.208-0.078h0.221l0.208,0.078l0.078,0.208v3.692c0,0.719-0.143,1.348-0.429,1.885c-0.286,0.537-0.689,0.947-1.209,1.229
		C166.166,174.811,165.599,174.944,164.955,174.944 M266.157,174.877h-3.289l-0.208-0.078l-0.078-0.208v-0.182l0.078-0.208
		l0.208-0.078h2.782v-3.432c0-0.476-0.085-0.905-0.253-1.287c-0.169-0.381-0.403-0.676-0.702-0.884
		c-0.299-0.208-0.635-0.312-1.008-0.312h-1.508l-0.962,6.37l-0.111,0.215l-0.215,0.084h-0.234l-0.182-0.084l-0.052-0.215l0.949-6.37
		h-0.585l-0.208-0.078l-0.078-0.208v-0.182l0.078-0.208l0.208-0.078h2.964c0.52,0,0.984,0.13,1.391,0.39
		c0.407,0.26,0.726,0.631,0.956,1.111c0.23,0.481,0.344,1.038,0.344,1.67v3.965l-0.078,0.208L266.157,174.877 M249.361,174.877
		h-0.221l-0.208-0.078l-0.078-0.208v-3.9c0-1.655-0.828-2.483-2.483-2.483h-1.586l-0.208-0.078l-0.078-0.208v-0.182l0.078-0.208
		l0.208-0.078h1.651c1.083,0,1.889,0.271,2.418,0.813c0.529,0.542,0.793,1.328,0.793,2.359v3.965l-0.078,0.208L249.361,174.877
		 M239.65,174.877h-5.226l-0.208-0.078l-0.078-0.208v-6.851l0.078-0.208l0.208-0.078h2.301c1.083,0,1.889,0.271,2.418,0.813
		c0.529,0.542,0.793,1.328,0.793,2.359v3.965l-0.078,0.208L239.65,174.877 M234.918,168.208v5.915h4.225v-3.432
		c0-1.655-0.828-2.483-2.483-2.483H234.918 M228.392,174.877h-0.221l-0.208-0.078l-0.078-0.208v-3.9
		c0-1.655-0.828-2.483-2.483-2.483h-1.742v6.383l-0.078,0.208l-0.208,0.078h-0.221l-0.208-0.078l-0.078-0.208v-6.851l0.078-0.208
		l0.208-0.078h2.314c1.083,0,1.889,0.271,2.418,0.813c0.529,0.542,0.793,1.328,0.793,2.359v3.965l-0.078,0.208L228.392,174.877
		 M220.397,174.877h-0.221l-0.208-0.078l-0.078-0.208v-6.851l0.078-0.208l0.208-0.078h0.221l0.208,0.078l0.078,0.208v6.851
		l-0.078,0.208L220.397,174.877 M217.498,174.877h-3.289l-0.208-0.078l-0.078-0.208v-0.182l0.078-0.208l0.208-0.078h2.782v-3.432
		c0-0.476-0.084-0.905-0.253-1.287c-0.169-0.381-0.403-0.676-0.702-0.884c-0.299-0.208-0.635-0.312-1.007-0.312h-1.508l-0.962,6.37
		l-0.111,0.215l-0.215,0.084h-0.234l-0.182-0.084l-0.052-0.215l0.949-6.37h-0.585l-0.208-0.078l-0.078-0.208v-0.182l0.078-0.208
		l0.208-0.078h2.964c0.52,0,0.983,0.13,1.391,0.39c0.407,0.26,0.726,0.631,0.956,1.111c0.23,0.481,0.345,1.038,0.345,1.67v3.965
		l-0.078,0.208L217.498,174.877 M209.608,174.877h-0.221l-0.208-0.078l-0.078-0.208v-6.851l0.078-0.208l0.208-0.078h0.221
		l0.208,0.078l0.078,0.208v6.851l-0.078,0.208L209.608,174.877 M179.136,174.877h-0.221l-0.208-0.078l-0.078-0.208v-3.9
		c0-1.655-0.828-2.483-2.483-2.483h-2.236l-0.208-0.078l-0.078-0.208v-0.182l0.078-0.208l0.208-0.078h2.301
		c1.083,0,1.889,0.271,2.418,0.813c0.529,0.542,0.793,1.328,0.793,2.359v3.965l-0.078,0.208L179.136,174.877 M174.131,174.877
		h-0.221l-0.208-0.078l-0.078-0.208v-4.563l0.078-0.208l0.208-0.078h0.221l0.208,0.078l0.078,0.208v4.563l-0.078,0.208
		L174.131,174.877 M152.421,174.877h-5.226l-0.208-0.078l-0.078-0.208v-6.851l0.078-0.208l0.208-0.078h2.301
		c1.083,0,1.889,0.271,2.418,0.813c0.529,0.542,0.793,1.328,0.793,2.359v3.965l-0.078,0.208L152.421,174.877 M147.689,168.208v5.915
		h4.225v-3.432c0-1.655-0.828-2.483-2.483-2.483H147.689 M242.445,171.887h-0.221l-0.208-0.078l-0.078-0.208v-3.861l0.078-0.208
		l0.208-0.078h0.221l0.208,0.078l0.078,0.208v3.861l-0.078,0.208L242.445,171.887 M188.405,171.887h-0.221l-0.208-0.078
		l-0.078-0.208v-3.861l0.078-0.208l0.208-0.078h0.221l0.208,0.078l0.078,0.208v3.861l-0.078,0.208L188.405,171.887"/>
	<path fill="#000000" d="M283.529,197.446h-6.227l-0.221-0.091l-0.091-0.221v-0.676c0-0.243,0.108-0.446,0.325-0.611l2.028-2.015
		c0.615-0.485,1.09-0.882,1.424-1.189c0.333-0.308,0.583-0.592,0.747-0.852c0.165-0.26,0.247-0.516,0.247-0.767
		c0-0.407-0.108-0.728-0.325-0.962c-0.217-0.234-0.546-0.351-0.988-0.351c-0.434,0-0.774,0.128-1.021,0.384
		c-0.247,0.256-0.401,0.587-0.461,0.994c-0.026,0.104-0.076,0.18-0.15,0.228l-0.241,0.071h-1.17l-0.195-0.078l-0.078-0.195
		c0.017-0.511,0.158-0.99,0.423-1.437c0.264-0.446,0.643-0.806,1.137-1.079c0.494-0.273,1.075-0.41,1.742-0.41
		c0.693,0,1.282,0.119,1.768,0.358c0.485,0.239,0.849,0.565,1.092,0.981c0.243,0.416,0.364,0.888,0.364,1.417
		c0,0.581-0.163,1.107-0.487,1.58c-0.325,0.472-0.83,0.977-1.515,1.515l-1.807,1.833h3.679c0.095,0,0.173,0.03,0.234,0.091
		c0.06,0.061,0.091,0.139,0.091,0.234v0.936c0,0.096-0.03,0.171-0.091,0.228C283.702,197.418,283.624,197.446,283.529,197.446"/>
	<path fill="#000000" d="M117.49,199.058h-0.221l-0.208-0.078l-0.078-0.208v-5.512c0-1.655-0.832-2.483-2.496-2.483h-1.846
		l-0.208-0.078l-0.078-0.208v-0.182l0.078-0.208l0.208-0.078h1.911c1.092,0,1.902,0.264,2.431,0.793
		c0.529,0.529,0.793,1.322,0.793,2.379v5.577l-0.078,0.208L117.49,199.058 M39.556,199.058h-0.273c-0.13,0-0.23-0.065-0.299-0.195
		l-3.289-8.32c-0.052-0.13-0.078-0.217-0.078-0.26l0.078-0.182l0.182-0.078h0.234l0.208,0.072c0.052,0.048,0.1,0.128,0.143,0.241
		l1.469,3.705c1.404-0.121,2.106-0.945,2.106-2.47v-1.261l0.078-0.208l0.208-0.078h0.221l0.208,0.078l0.078,0.208v1.326
		c0,0.901-0.221,1.621-0.663,2.158c-0.442,0.537-1.088,0.863-1.937,0.975l1.508,3.77c0.052,0.13,0.078,0.217,0.078,0.26
		l-0.078,0.182L39.556,199.058 M110.483,198.421h-0.221l-0.156-0.078l-0.026-0.195l0.247-1.56c0.026-0.234,0.134-0.351,0.325-0.351
		h0.585l0.143,0.065l0.052,0.143l-0.052,0.234l-0.559,1.469c-0.043,0.095-0.089,0.165-0.136,0.208L110.483,198.421 M156.399,198.187
		l-0.176-0.065l-0.071-0.156v-0.169c0-0.199,0.06-0.321,0.182-0.364l1.781-0.65l-1.729-6.24c-0.043-0.147-0.065-0.234-0.065-0.26
		l0.078-0.182l0.182-0.078h0.234l0.195,0.059l0.104,0.136l1.781,6.279l0.13-0.052c0.711-0.26,1.209-0.633,1.495-1.118
		c0.286-0.485,0.429-1.075,0.429-1.768v-3.25l0.078-0.208l0.208-0.078h0.221l0.208,0.078l0.078,0.208v3.51
		c0,0.728-0.234,1.404-0.702,2.028c-0.468,0.624-1.088,1.075-1.859,1.352l-2.665,0.962L156.399,198.187 M170.205,197.576
		c-1.031,0-1.803-0.275-2.314-0.825c-0.512-0.55-0.767-1.354-0.767-2.412v-4.03l0.078-0.208l0.208-0.078h3.055
		c1.075,0,1.846,0.247,2.314,0.741c0.468,0.494,0.723,1.261,0.767,2.301c0.009,0.087,0.013,0.329,0.013,0.728
		c0,0.407-0.004,0.655-0.013,0.741c-0.026,1.031-0.303,1.796-0.832,2.295C172.185,197.327,171.349,197.576,170.205,197.576
		 M167.917,190.777v3.562c0,0.798,0.19,1.41,0.572,1.839c0.381,0.429,0.953,0.644,1.716,0.644c0.893,0,1.536-0.193,1.931-0.579
		c0.394-0.386,0.6-0.977,0.617-1.774c0.009-0.087,0.013-0.312,0.013-0.676c0-0.355-0.004-0.576-0.013-0.663
		c-0.017-0.762-0.239-1.345-0.663-1.748c-0.425-0.403-0.988-0.604-1.69-0.604H167.917 M72.602,197.576
		c-1.031,0-1.803-0.275-2.314-0.825c-0.512-0.55-0.767-1.354-0.767-2.412v-4.03l0.078-0.208l0.208-0.078h3.055
		c1.075,0,1.846,0.247,2.314,0.741c0.468,0.494,0.724,1.261,0.767,2.301c0.008,0.087,0.013,0.329,0.013,0.728
		c0,0.407-0.005,0.655-0.013,0.741c-0.026,1.031-0.304,1.796-0.832,2.295C74.582,197.327,73.746,197.576,72.602,197.576
		 M70.314,190.777v3.562c0,0.798,0.191,1.41,0.572,1.839c0.381,0.429,0.953,0.644,1.716,0.644c0.893,0,1.536-0.193,1.931-0.579
		c0.394-0.386,0.6-0.977,0.617-1.774c0.009-0.087,0.013-0.312,0.013-0.676c0-0.355-0.005-0.576-0.013-0.663
		c-0.017-0.762-0.238-1.345-0.663-1.748c-0.425-0.403-0.988-0.604-1.69-0.604H70.314 M239.52,197.563
		c-0.139,0-0.208-0.07-0.208-0.208v-0.325c0-0.147,0.091-0.255,0.273-0.325l0.533-0.208c0.667-0.26,1.176-0.619,1.527-1.079
		c0.351-0.459,0.526-1.144,0.526-2.054c0-0.65-0.078-1.161-0.234-1.534c-0.156-0.373-0.414-0.641-0.773-0.806
		c-0.36-0.165-0.852-0.247-1.476-0.247h-0.442h-0.039l-1.014-0.013l-0.208-0.072l-0.078-0.201v-1.989l0.078-0.208l0.208-0.078h0.221
		l0.208,0.078l0.078,0.208v1.521h1.053c0.806,0,1.441,0.11,1.905,0.331c0.464,0.221,0.797,0.579,1.001,1.073
		c0.203,0.494,0.306,1.17,0.306,2.028c0,1.118-0.253,1.972-0.761,2.561c-0.507,0.589-1.185,1.036-2.034,1.339l-0.546,0.195
		L239.52,197.563 M141.046,197.563c-0.139,0-0.208-0.07-0.208-0.208v-0.325c0-0.147,0.091-0.255,0.273-0.325l0.533-0.208
		c0.667-0.26,1.176-0.619,1.527-1.079c0.351-0.459,0.527-1.144,0.527-2.054c0-0.65-0.078-1.161-0.234-1.534
		c-0.156-0.373-0.414-0.641-0.773-0.806c-0.36-0.165-0.852-0.247-1.476-0.247h-0.442h-0.039l-1.014-0.013l-0.208-0.072l-0.078-0.201
		v-1.989l0.078-0.208l0.208-0.078h0.221l0.208,0.078l0.078,0.208v1.521h1.053c0.806,0,1.441,0.11,1.905,0.331
		c0.464,0.221,0.797,0.579,1.001,1.073c0.203,0.494,0.305,1.17,0.305,2.028c0,1.118-0.253,1.972-0.76,2.561
		c-0.507,0.589-1.185,1.036-2.034,1.339l-0.546,0.195L141.046,197.563 M51.542,197.563c-0.139,0-0.208-0.07-0.208-0.208v-0.325
		c0-0.147,0.091-0.255,0.273-0.325l0.533-0.208c0.667-0.26,1.176-0.619,1.527-1.079c0.351-0.459,0.527-1.144,0.527-2.054
		c0-0.65-0.078-1.161-0.234-1.534c-0.156-0.373-0.414-0.641-0.774-0.806c-0.36-0.165-0.851-0.247-1.475-0.247h-0.442H51.23
		l-1.014-0.013l-0.208-0.072l-0.078-0.201v-1.989l0.078-0.208l0.208-0.078h0.221l0.208,0.078l0.078,0.208v1.521h1.053
		c0.806,0,1.441,0.11,1.904,0.331c0.464,0.221,0.797,0.579,1.001,1.073c0.204,0.494,0.306,1.17,0.306,2.028
		c0,1.118-0.253,1.972-0.76,2.561c-0.507,0.589-1.185,1.036-2.034,1.339l-0.546,0.195L51.542,197.563 M248.505,197.513
		c-0.039,0-0.079-0.001-0.119-0.001h-0.871c-0.512,0-0.982-0.128-1.411-0.384c-0.429-0.255-0.769-0.622-1.021-1.098
		c-0.251-0.476-0.377-1.031-0.377-1.664v-4.056l0.078-0.208l0.208-0.078h0.221l0.208,0.078l0.078,0.208l0.052,3.887
		c0.884-0.06,1.504-0.279,1.859-0.657c0.355-0.377,0.533-0.864,0.533-1.462v-1.768l0.078-0.208l0.208-0.078h0.221l0.208,0.078
		l0.078,0.208v1.833c0,0.771-0.264,1.419-0.793,1.944c-0.529,0.525-1.309,0.813-2.34,0.865c0.095,0.572,0.346,1.014,0.754,1.326
		c0.407,0.312,0.914,0.468,1.521,0.468h0.455c0.029,0.001,0.057,0.001,0.086,0.001c0.834,0,1.477-0.25,1.929-0.748
		c0.468-0.516,0.702-1.211,0.702-2.087v-3.601l0.078-0.208l0.208-0.078h0.221l0.208,0.078l0.078,0.208v3.692
		c0,0.72-0.143,1.348-0.429,1.885c-0.286,0.537-0.689,0.947-1.209,1.229C249.716,197.38,249.149,197.513,248.505,197.513
		 M266.157,197.446h-3.289l-0.208-0.078l-0.078-0.208v-0.182l0.078-0.208l0.208-0.078h2.782v-3.432c0-0.477-0.085-0.906-0.253-1.287
		c-0.169-0.381-0.403-0.676-0.702-0.884s-0.635-0.312-1.008-0.312h-1.508l-0.962,6.37l-0.111,0.214l-0.215,0.085h-0.234
		l-0.182-0.085l-0.052-0.214l0.949-6.37h-0.585l-0.208-0.078l-0.078-0.208v-0.182l0.078-0.208l0.208-0.078h2.964
		c0.52,0,0.984,0.13,1.391,0.39c0.407,0.26,0.726,0.63,0.956,1.111c0.23,0.481,0.344,1.038,0.344,1.671v3.965l-0.078,0.208
		L266.157,197.446 M258.968,197.446h-5.2l-0.208-0.078l-0.078-0.208v-0.182l0.078-0.208l0.208-0.078h3.913v-3.432
		c0-1.655-0.828-2.483-2.483-2.483h-1.3l-0.208-0.078l-0.078-0.208v-0.182l0.078-0.208l0.208-0.078h1.365
		c1.083,0,1.889,0.273,2.418,0.819c0.529,0.546,0.793,1.33,0.793,2.353v3.497h0.494l0.208,0.078l0.078,0.208v0.182l-0.078,0.208
		L258.968,197.446 M232.929,197.446h-5.226l-0.208-0.078l-0.078-0.208v-6.851l0.078-0.208l0.208-0.078h2.301
		c1.083,0,1.889,0.271,2.418,0.813c0.529,0.542,0.793,1.328,0.793,2.36v3.965l-0.078,0.208L232.929,197.446 M228.197,190.777v5.915
		h4.225v-3.432c0-1.655-0.828-2.483-2.483-2.483H228.197 M221.983,197.446h-0.247l-0.176-0.045l-0.149-0.15l-3.211-4.472
		c-0.425,0.304-0.713,0.655-0.864,1.053c-0.152,0.399-0.228,0.841-0.228,1.326v2.002l-0.078,0.208l-0.208,0.078h-0.221l-0.208-0.078
		l-0.078-0.208v-2.067c0-0.615,0.098-1.164,0.292-1.645c0.195-0.481,0.579-0.908,1.151-1.281l-1.157-1.625
		c-0.069-0.104-0.104-0.191-0.104-0.26l0.078-0.182l0.182-0.078h0.247c0.121,0,0.229,0.065,0.325,0.195l2.938,4.095
		c0.364-0.199,0.628-0.405,0.793-0.618c0.165-0.212,0.266-0.427,0.306-0.643c0.039-0.217,0.058-0.507,0.058-0.871v-1.872
		l0.078-0.208l0.208-0.078h0.221l0.208,0.078l0.078,0.208v1.937c0,0.399-0.035,0.743-0.104,1.033
		c-0.07,0.29-0.215,0.572-0.436,0.845c-0.221,0.273-0.548,0.535-0.981,0.786l1.443,2.015c0.069,0.104,0.104,0.191,0.104,0.26
		l-0.078,0.182L221.983,197.446 M214.287,197.446h-0.221l-0.208-0.078l-0.078-0.208v-3.9c0-1.655-0.828-2.483-2.483-2.483h-0.988
		c-0.087,0.624-0.15,1.127-0.188,1.508c-0.039,0.382-0.054,0.815-0.045,1.3v3.575l-0.078,0.208l-0.208,0.078l-1.482-0.026
		l-0.208-0.078l-0.078-0.208v-0.182l0.078-0.208l0.208-0.078l0.975,0.013v-3.029v-0.403c0-0.477,0.017-0.895,0.052-1.255
		c0.035-0.359,0.1-0.765,0.195-1.215h-0.663l-0.208-0.078l-0.078-0.208v-0.182l0.078-0.208l0.208-0.078h2.496
		c1.083,0,1.889,0.271,2.418,0.813c0.529,0.542,0.793,1.328,0.793,2.36v3.965l-0.078,0.208L214.287,197.446 M202.627,197.446h-0.221
		l-0.208-0.078l-0.078-0.208v-3.9c0-1.655-0.828-2.483-2.483-2.483h-2.236l-0.208-0.078l-0.078-0.208v-0.182l0.078-0.208
		l0.208-0.078h2.301c1.083,0,1.889,0.271,2.418,0.813c0.529,0.542,0.793,1.328,0.793,2.36v3.965l-0.078,0.208L202.627,197.446
		 M197.622,197.446h-0.221l-0.208-0.078l-0.078-0.208v-4.563l0.078-0.208l0.208-0.078h0.221l0.208,0.078l0.078,0.208v4.563
		l-0.078,0.208L197.622,197.446 M194.723,197.446h-0.221l-0.208-0.078l-0.078-0.208v-3.9c0-1.655-0.828-2.483-2.483-2.483h-1.742
		v6.383l-0.078,0.208l-0.208,0.078h-0.221l-0.208-0.078l-0.078-0.208v-6.851l0.078-0.208l0.208-0.078h2.314
		c1.083,0,1.889,0.271,2.418,0.813c0.529,0.542,0.793,1.328,0.793,2.36v3.965l-0.078,0.208L194.723,197.446 M186.728,197.446h-0.221
		l-0.208-0.078l-0.078-0.208v-6.851l0.078-0.208l0.208-0.078h0.221l0.208,0.078l0.078,0.208v6.851l-0.078,0.208L186.728,197.446
		 M183.829,197.446h-3.289l-0.208-0.078l-0.078-0.208v-0.182l0.078-0.208l0.208-0.078h2.782v-3.432c0-0.477-0.084-0.906-0.253-1.287
		c-0.169-0.381-0.403-0.676-0.702-0.884c-0.299-0.208-0.635-0.312-1.008-0.312h-1.508l-0.962,6.37l-0.11,0.214l-0.215,0.085h-0.234
		l-0.182-0.085l-0.052-0.214l0.949-6.37h-0.585l-0.208-0.078l-0.078-0.208v-0.182l0.078-0.208l0.208-0.078h2.964
		c0.52,0,0.983,0.13,1.391,0.39c0.407,0.26,0.726,0.63,0.956,1.111c0.23,0.481,0.345,1.038,0.345,1.671v3.965l-0.078,0.208
		L183.829,197.446 M175.938,197.446h-0.221l-0.208-0.078l-0.078-0.208v-6.851l0.078-0.208l0.208-0.078h0.221l0.208,0.078
		l0.078,0.208v6.851l-0.078,0.208L175.938,197.446 M153.045,197.446h-0.221l-0.208-0.078l-0.078-0.208v-4.914
		c0-0.338,0.033-0.637,0.098-0.897c0.065-0.26,0.149-0.451,0.253-0.572h-3.783l-0.208-0.078l-0.078-0.208v-0.182l0.078-0.208
		l0.208-0.078h5.486l0.208,0.078l0.078,0.208v0.182l-0.078,0.208l-0.208,0.078h-0.832c-0.139,0.121-0.245,0.318-0.319,0.592
		c-0.074,0.273-0.11,0.587-0.11,0.943v4.849l-0.078,0.208L153.045,197.446 M137.497,197.446h-0.221l-0.208-0.078l-0.078-0.208v-3.9
		c0-1.655-0.828-2.483-2.483-2.483h-1.586l-0.208-0.078l-0.078-0.208v-0.182l0.078-0.208l0.208-0.078h1.651
		c1.083,0,1.889,0.271,2.418,0.813c0.529,0.542,0.793,1.328,0.793,2.36v3.965l-0.078,0.208L137.497,197.446 M125.082,197.446h-1.911
		l-0.208-0.078l-0.078-0.208v-0.182l0.078-0.208l0.208-0.078h1.846c0.849,0,1.467-0.21,1.853-0.63
		c0.386-0.42,0.596-1.038,0.63-1.853c0.009-0.13,0.013-0.29,0.013-0.481c0-0.182-0.005-0.338-0.013-0.468
		c-0.026-0.815-0.234-1.432-0.624-1.853c-0.39-0.42-1.01-0.63-1.859-0.63h-1.846l-0.208-0.078l-0.078-0.208v-0.182l0.078-0.208
		l0.208-0.078h1.911c1.075,0,1.87,0.269,2.386,0.806c0.515,0.537,0.791,1.326,0.825,2.366c0.008,0.13,0.013,0.308,0.013,0.533
		c0,0.234-0.005,0.416-0.013,0.546c-0.035,1.04-0.31,1.829-0.825,2.366C126.952,197.178,126.157,197.446,125.082,197.446
		 M120.389,197.446h-0.221l-0.208-0.078l-0.078-0.208v-6.851l0.078-0.208l0.208-0.078h0.221l0.208,0.078l0.078,0.208v6.851
		l-0.078,0.208L120.389,197.446 M104.659,197.446h-0.221l-0.208-0.078l-0.078-0.208v-3.9c0-1.655-0.828-2.483-2.483-2.483h-1.586
		l-0.208-0.078l-0.078-0.208v-0.182l0.078-0.208l0.208-0.078h1.651c1.083,0,1.889,0.271,2.418,0.813
		c0.529,0.542,0.793,1.328,0.793,2.36v3.965l-0.078,0.208L104.659,197.446 M97.861,197.446h-4.485l-0.208-0.078l-0.078-0.208v-0.182
		l0.078-0.208l0.208-0.078h3.705l-4.173-6.149c-0.069-0.104-0.104-0.191-0.104-0.26l0.085-0.182l0.188-0.078h0.234
		c0.13,0,0.238,0.07,0.325,0.208l2.496,3.627c0.849-0.32,1.274-1.083,1.274-2.288v-1.261l0.078-0.208l0.208-0.078h0.221l0.208,0.078
		l0.078,0.208v1.326c0,0.702-0.141,1.289-0.422,1.761c-0.282,0.472-0.695,0.821-1.242,1.046l1.469,2.145
		c0.095,0.139,0.143,0.269,0.143,0.39v0.182l-0.078,0.208L97.861,197.446 M90.997,197.446h-0.221l-0.208-0.078l-0.078-0.208v-6.851
		l0.078-0.208l0.208-0.078h0.221l0.208,0.078l0.078,0.208v6.851l-0.078,0.208L90.997,197.446 M82.82,197.446h-5.2l-0.208-0.078
		l-0.078-0.208v-0.182l0.078-0.208l0.208-0.078h3.913v-3.432c0-1.655-0.828-2.483-2.483-2.483h-1.3l-0.208-0.078l-0.078-0.208
		v-0.182l0.078-0.208l0.208-0.078h1.365c1.083,0,1.889,0.273,2.418,0.819c0.529,0.546,0.793,1.33,0.793,2.353v3.497h0.494
		l0.208,0.078l0.078,0.208v0.182l-0.078,0.208L82.82,197.446 M64.438,197.446h-0.221l-0.208-0.078l-0.078-0.208v-3.9
		c0-1.655-0.828-2.483-2.483-2.483h-1.586l-0.208-0.078l-0.078-0.208v-0.182l0.078-0.208l0.208-0.078h1.651
		c1.083,0,1.889,0.271,2.418,0.813c0.529,0.542,0.793,1.328,0.793,2.36v3.965l-0.078,0.208L64.438,197.446 M47.993,197.446h-0.221
		l-0.208-0.078l-0.078-0.208v-3.9c0-1.655-0.828-2.483-2.483-2.483h-1.742v6.383l-0.078,0.208l-0.208,0.078h-0.221l-0.208-0.078
		l-0.078-0.208v-6.851l0.078-0.208l0.208-0.078h2.314c1.083,0,1.889,0.271,2.418,0.813c0.529,0.542,0.793,1.328,0.793,2.36v3.965
		l-0.078,0.208L47.993,197.446 M235.724,194.456h-0.221l-0.208-0.078l-0.078-0.208v-3.861l0.078-0.208l0.208-0.078h0.221
		l0.208,0.078l0.078,0.208v3.861l-0.078,0.208L235.724,194.456 M130.581,194.456h-0.221l-0.208-0.078l-0.078-0.208v-3.861
		l0.078-0.208l0.208-0.078h0.221l0.208,0.078l0.078,0.208v3.861l-0.078,0.208L130.581,194.456 M88.124,194.456h-0.221l-0.208-0.078
		l-0.078-0.208v-3.861l0.078-0.208l0.208-0.078h0.221l0.208,0.078l0.078,0.208v3.861l-0.078,0.208L88.124,194.456 M67.233,194.456
		h-0.221l-0.208-0.078l-0.078-0.208v-3.861l0.078-0.208l0.208-0.078h0.221l0.208,0.078l0.078,0.208v3.861l-0.078,0.208
		L67.233,194.456"/>
	<path fill="#000000" d="M280.318,220.146c-0.771,0-1.424-0.121-1.956-0.364c-0.533-0.243-0.932-0.548-1.196-0.916
		c-0.264-0.368-0.405-0.747-0.423-1.138l0.078-0.195l0.195-0.078h1.196c0.19,0,0.321,0.087,0.39,0.26
		c0.19,0.615,0.762,0.923,1.716,0.923c0.529,0,0.943-0.121,1.241-0.364c0.299-0.243,0.449-0.589,0.449-1.04
		c0-0.451-0.137-0.778-0.41-0.981c-0.273-0.204-0.674-0.306-1.202-0.306h-1.339l-0.221-0.091l-0.091-0.221v-0.559
		c0-0.165,0.056-0.295,0.169-0.39l2.314-2.262h-3.705c-0.095,0-0.173-0.03-0.234-0.091l-0.091-0.221v-0.871
		c0-0.095,0.03-0.173,0.091-0.234c0.061-0.06,0.139-0.091,0.234-0.091h5.59c0.095,0,0.173,0.03,0.234,0.091
		c0.061,0.061,0.091,0.139,0.091,0.234v0.793c0,0.147-0.056,0.269-0.169,0.364l-2.236,2.301l0.156,0.013
		c0.832,0.069,1.493,0.321,1.982,0.754c0.49,0.434,0.735,1.053,0.735,1.859c0,0.572-0.154,1.07-0.461,1.495
		c-0.308,0.425-0.732,0.752-1.274,0.981C281.628,220.031,281.011,220.146,280.318,220.146"/>
	<path fill="#000000" d="M253.313,222.499h-0.221l-0.208-0.078l-0.078-0.208v-7.046l0.078-0.208l0.208-0.078h0.221l0.208,0.078
		l0.078,0.208v7.046l-0.078,0.208L253.313,222.499 M44.678,221.628h-0.221l-0.208-0.078l-0.078-0.208v-8.463l0.078-0.208
		l0.208-0.078h0.221l0.208,0.078l0.078,0.208v8.463l-0.078,0.208L44.678,221.628 M209.958,220.757l-0.176-0.065l-0.071-0.156v-0.169
		c0-0.199,0.06-0.321,0.182-0.364l1.781-0.65l-1.729-6.24c-0.043-0.147-0.065-0.234-0.065-0.26l0.078-0.182l0.182-0.078h0.234
		l0.195,0.058l0.104,0.137l1.781,6.279l0.13-0.052c0.711-0.26,1.209-0.632,1.495-1.118c0.286-0.485,0.429-1.075,0.429-1.768v-3.25
		l0.078-0.208l0.208-0.078h0.221l0.208,0.078l0.078,0.208v3.51c0,0.728-0.234,1.404-0.702,2.028
		c-0.468,0.624-1.088,1.075-1.859,1.352l-2.665,0.962L209.958,220.757 M79.908,220.757l-0.175-0.065l-0.072-0.156v-0.169
		c0-0.199,0.061-0.321,0.182-0.364l1.781-0.65l-1.729-6.24c-0.043-0.147-0.065-0.234-0.065-0.26l0.078-0.182l0.182-0.078h0.234
		l0.195,0.058l0.104,0.137l1.781,6.279l0.13-0.052c0.71-0.26,1.209-0.632,1.495-1.118c0.286-0.485,0.429-1.075,0.429-1.768v-3.25
		l0.078-0.208l0.208-0.078h0.221l0.208,0.078l0.078,0.208v3.51c0,0.728-0.234,1.404-0.702,2.028s-1.088,1.075-1.859,1.352
		l-2.665,0.962L79.908,220.757 M33.368,220.757l-0.176-0.065l-0.071-0.156v-0.169c0-0.199,0.06-0.321,0.182-0.364l1.781-0.65
		l-1.729-6.24c-0.043-0.147-0.065-0.234-0.065-0.26l0.078-0.182l0.182-0.078h0.234l0.195,0.058l0.104,0.137l1.781,6.279l0.13-0.052
		c0.711-0.26,1.209-0.632,1.495-1.118c0.286-0.485,0.429-1.075,0.429-1.768v-3.25l0.078-0.208l0.208-0.078h0.221l0.208,0.078
		l0.078,0.208v3.51c0,0.728-0.234,1.404-0.702,2.028c-0.468,0.624-1.088,1.075-1.859,1.352l-2.665,0.962L33.368,220.757
		 M205.2,220.146c-1.101,0-1.9-0.268-2.398-0.806c-0.499-0.537-0.748-1.326-0.748-2.366v-4.095l0.078-0.208l0.208-0.078h0.221
		l0.208,0.078l0.078,0.208v4.03c0,0.797,0.193,1.41,0.578,1.839c0.386,0.429,0.977,0.644,1.775,0.644
		c0.797,0,1.384-0.193,1.761-0.579c0.377-0.386,0.574-0.977,0.592-1.775v-0.442v-1.027c-0.018-0.78-0.191-1.356-0.52-1.729
		c-0.329-0.372-0.776-0.559-1.339-0.559c-0.165,0-0.353,0.03-0.566,0.091c-0.212,0.061-0.392,0.143-0.539,0.247l-0.13,0.039
		l-0.149-0.058l-0.072-0.15v-0.169v-0.065l0.026-0.182l0.104-0.117c0.199-0.13,0.405-0.227,0.617-0.292
		c0.212-0.065,0.47-0.098,0.774-0.098c0.806,0,1.432,0.243,1.878,0.728c0.446,0.485,0.682,1.235,0.708,2.249
		c0.009,0.087,0.013,0.351,0.013,0.793c0,0.451-0.004,0.719-0.013,0.806c-0.026,1.04-0.279,1.807-0.76,2.301
		S206.31,220.146,205.2,220.146 M190.758,220.146c-1.101,0-1.9-0.268-2.399-0.806c-0.498-0.537-0.747-1.326-0.747-2.366v-4.095
		l0.078-0.208l0.208-0.078h0.221l0.208,0.078l0.078,0.208v4.03c0,0.797,0.193,1.41,0.579,1.839c0.386,0.429,0.977,0.644,1.775,0.644
		c0.797,0,1.384-0.193,1.761-0.579c0.377-0.386,0.574-0.977,0.592-1.775v-0.442v-1.027c-0.018-0.78-0.191-1.356-0.52-1.729
		c-0.329-0.372-0.776-0.559-1.339-0.559c-0.165,0-0.353,0.03-0.566,0.091c-0.212,0.061-0.392,0.143-0.539,0.247l-0.13,0.039
		l-0.15-0.058l-0.071-0.15v-0.169v-0.065l0.026-0.182l0.104-0.117c0.199-0.13,0.405-0.227,0.617-0.292
		c0.212-0.065,0.47-0.098,0.773-0.098c0.806,0,1.432,0.243,1.879,0.728c0.446,0.485,0.682,1.235,0.709,2.249
		c0.009,0.087,0.013,0.351,0.013,0.793c0,0.451-0.004,0.719-0.013,0.806c-0.026,1.04-0.28,1.807-0.76,2.301
		C192.662,219.899,191.867,220.146,190.758,220.146 M255.237,220.133c-0.139,0-0.208-0.069-0.208-0.208V219.6
		c0-0.147,0.091-0.256,0.273-0.325l0.533-0.208c0.667-0.26,1.176-0.619,1.527-1.079c0.351-0.459,0.527-1.144,0.527-2.054
		c0-0.65-0.078-1.161-0.234-1.534c-0.156-0.373-0.414-0.641-0.773-0.806c-0.36-0.165-0.852-0.247-1.476-0.247h-2.314l-0.208-0.078
		l-0.078-0.208v-0.182l0.078-0.208l0.208-0.078h2.379c0.806,0,1.441,0.11,1.904,0.331c0.464,0.221,0.797,0.579,1.001,1.073
		c0.203,0.494,0.305,1.17,0.305,2.028c0,1.118-0.254,1.972-0.76,2.561c-0.507,0.59-1.185,1.036-2.034,1.339l-0.546,0.195
		L255.237,220.133 M138.719,220.133c-0.139,0-0.208-0.069-0.208-0.208V219.6c0-0.147,0.091-0.256,0.273-0.325l0.533-0.208
		c0.667-0.26,1.176-0.619,1.527-1.079c0.351-0.459,0.527-1.144,0.527-2.054c0-0.65-0.078-1.161-0.234-1.534
		c-0.156-0.373-0.414-0.641-0.774-0.806c-0.36-0.165-0.851-0.247-1.475-0.247h-0.442h-0.039l-1.014-0.013l-0.208-0.071l-0.078-0.202
		v-1.989l0.078-0.208l0.208-0.078h0.221l0.208,0.078l0.078,0.208v1.521h1.053c0.806,0,1.441,0.11,1.904,0.331
		c0.464,0.221,0.797,0.579,1.001,1.073c0.204,0.494,0.306,1.17,0.306,2.028c0,1.118-0.253,1.972-0.76,2.561
		c-0.507,0.59-1.185,1.036-2.034,1.339l-0.546,0.195L138.719,220.133 M266.157,220.016h-3.289l-0.208-0.078l-0.078-0.208v-0.182
		l0.078-0.208l0.208-0.078h2.782v-3.432c0-0.476-0.085-0.905-0.253-1.287c-0.169-0.381-0.403-0.676-0.702-0.884
		s-0.635-0.312-1.008-0.312h-1.508l-0.962,6.37l-0.111,0.215l-0.215,0.084h-0.234l-0.182-0.084l-0.052-0.215l0.949-6.37h-0.585
		l-0.208-0.078l-0.078-0.208v-0.182l0.078-0.208l0.208-0.078h2.964c0.52,0,0.984,0.13,1.391,0.39
		c0.407,0.26,0.726,0.631,0.956,1.112c0.23,0.481,0.344,1.038,0.344,1.67v3.965l-0.078,0.208L266.157,220.016 M250.414,220.016
		h-0.221l-0.208-0.078l-0.078-0.208v-3.9c0-1.655-0.828-2.483-2.483-2.483h-1.586l-0.208-0.078l-0.078-0.208v-0.182l0.078-0.208
		l0.208-0.078h1.651c1.083,0,1.889,0.271,2.418,0.813c0.529,0.542,0.793,1.328,0.793,2.359v3.965l-0.078,0.208L250.414,220.016
		 M243.797,220.016h-0.221l-0.208-0.078l-0.078-0.208v-3.9c0-1.655-0.828-2.483-2.483-2.483h-1.586l-0.208-0.078l-0.078-0.208
		v-0.182l0.078-0.208l0.208-0.078h1.651c1.083,0,1.889,0.271,2.418,0.813c0.529,0.542,0.793,1.328,0.793,2.359v3.965l-0.078,0.208
		L243.797,220.016 M234.086,220.016h-5.226l-0.208-0.078l-0.078-0.208v-6.851l0.078-0.208l0.208-0.078h2.301
		c1.083,0,1.889,0.271,2.418,0.813c0.529,0.542,0.793,1.328,0.793,2.359v3.965l-0.078,0.208L234.086,220.016 M229.354,213.347v5.915
		h4.225v-3.432c0-1.655-0.828-2.483-2.483-2.483H229.354 M222.828,220.016h-3.289l-0.208-0.078l-0.078-0.208v-0.182l0.078-0.208
		l0.208-0.078h2.782v-3.432c0-0.476-0.084-0.905-0.253-1.287c-0.169-0.381-0.403-0.676-0.702-0.884
		c-0.299-0.208-0.635-0.312-1.008-0.312h-1.508l-0.962,6.37l-0.11,0.215l-0.215,0.084h-0.234l-0.182-0.084l-0.052-0.215l0.949-6.37
		h-0.585l-0.208-0.078l-0.078-0.208v-0.182l0.078-0.208l0.208-0.078h2.964c0.52,0,0.983,0.13,1.391,0.39
		c0.407,0.26,0.726,0.631,0.956,1.112c0.23,0.481,0.345,1.038,0.345,1.67v3.965l-0.078,0.208L222.828,220.016 M196.296,220.016
		h-0.221l-0.208-0.078l-0.078-0.208v-6.851l0.078-0.208l0.208-0.078h0.221l0.208,0.078l0.078,0.208v6.851l-0.078,0.208
		L196.296,220.016 M185.207,220.016h-0.221l-0.208-0.078l-0.078-0.208v-6.851l0.078-0.208l0.208-0.078h0.221l0.208,0.078
		l0.078,0.208v6.851l-0.078,0.208L185.207,220.016 M182.308,220.016h-0.221l-0.208-0.078l-0.078-0.208v-3.9
		c0-1.655-0.828-2.483-2.483-2.483h-1.742v6.383l-0.078,0.208l-0.208,0.078h-0.221l-0.208-0.078l-0.078-0.208v-6.851l0.078-0.208
		l0.208-0.078h2.314c1.083,0,1.889,0.271,2.418,0.813c0.529,0.542,0.793,1.328,0.793,2.359v3.965l-0.078,0.208L182.308,220.016
		 M174.716,220.016h-3.224l-0.208-0.078l-0.078-0.208v-0.182l0.078-0.208l0.208-0.078h2.691l-0.247-3.562l-0.013-0.273
		c-0.035-0.52-0.078-0.914-0.13-1.183c-0.052-0.268-0.165-0.485-0.338-0.65c-0.173-0.165-0.438-0.247-0.793-0.247h-0.481
		l-0.208-0.078l-0.078-0.208v-0.182l0.078-0.208l0.208-0.078h0.481c0.581,0,1.012,0.126,1.294,0.377
		c0.282,0.251,0.468,0.577,0.559,0.975c0.091,0.399,0.163,0.962,0.214,1.69l0.273,4.095v0.039l-0.085,0.176L174.716,220.016
		 M166.513,220.016h-5.226l-0.208-0.078l-0.078-0.208v-6.851l0.078-0.208l0.208-0.078h2.301c1.083,0,1.889,0.271,2.418,0.813
		c0.529,0.542,0.793,1.328,0.793,2.359v3.965l-0.078,0.208L166.513,220.016 M161.781,213.347v5.915h4.225v-3.432
		c0-1.655-0.828-2.483-2.483-2.483H161.781 M156.1,220.016h-5.2l-0.208-0.078l-0.078-0.208v-0.182l0.078-0.208l0.208-0.078h3.913
		v-3.432c0-1.655-0.828-2.483-2.483-2.483h-1.3l-0.208-0.078l-0.078-0.208v-0.182l0.078-0.208l0.208-0.078h1.365
		c1.083,0,1.889,0.273,2.418,0.819c0.529,0.546,0.793,1.33,0.793,2.353v3.497h0.494l0.208,0.078l0.078,0.208v0.182l-0.078,0.208
		L156.1,220.016 M149.184,220.016h-5.2l-0.208-0.078l-0.078-0.208v-0.182l0.078-0.208l0.208-0.078h3.913v-3.432
		c0-1.655-0.828-2.483-2.483-2.483h-1.3l-0.208-0.078l-0.078-0.208v-0.182l0.078-0.208l0.208-0.078h1.365
		c1.083,0,1.889,0.273,2.418,0.819c0.529,0.546,0.793,1.33,0.793,2.353v3.497h0.494l0.208,0.078l0.078,0.208v0.182l-0.078,0.208
		L149.184,220.016 M135.495,220.016h-3.224l-0.208-0.078l-0.078-0.208v-0.182l0.078-0.208l0.208-0.078h2.691l-0.247-3.562
		l-0.013-0.273c-0.035-0.52-0.078-0.914-0.13-1.183c-0.052-0.268-0.165-0.485-0.338-0.65c-0.173-0.165-0.438-0.247-0.793-0.247
		h-0.481l-0.208-0.078l-0.078-0.208v-0.182l0.078-0.208l0.208-0.078h0.481c0.581,0,1.012,0.126,1.293,0.377
		c0.282,0.251,0.468,0.577,0.559,0.975c0.091,0.399,0.163,0.962,0.215,1.69l0.273,4.095v0.039l-0.085,0.176L135.495,220.016
		 M128.878,220.016h-0.221l-0.208-0.078l-0.078-0.208v-4.914c0-0.338,0.033-0.637,0.098-0.897c0.065-0.26,0.15-0.451,0.253-0.572
		h-3.783l-0.208-0.078l-0.078-0.208v-0.182l0.078-0.208l0.208-0.078h5.486l0.208,0.078l0.078,0.208v0.182l-0.078,0.208l-0.208,0.078
		h-0.832c-0.139,0.122-0.245,0.319-0.319,0.592c-0.074,0.273-0.11,0.587-0.11,0.943v4.849l-0.078,0.208L128.878,220.016
		 M123.158,220.016h-0.221l-0.208-0.078l-0.078-0.208v-3.9c0-1.655-0.828-2.483-2.483-2.483h-1.586l-0.208-0.078l-0.078-0.208
		v-0.182l0.078-0.208l0.208-0.078h1.651c1.083,0,1.889,0.271,2.418,0.813c0.529,0.542,0.793,1.328,0.793,2.359v3.965l-0.078,0.208
		L123.158,220.016 M113.499,220.016h-0.247l-0.176-0.045l-0.15-0.149l-3.211-4.472c-0.425,0.303-0.713,0.654-0.865,1.053
		c-0.152,0.399-0.228,0.841-0.228,1.326v2.002l-0.078,0.208l-0.208,0.078h-0.221l-0.208-0.078l-0.078-0.208v-2.067
		c0-0.615,0.098-1.164,0.293-1.644c0.195-0.481,0.579-0.908,1.151-1.281l-1.157-1.625c-0.069-0.104-0.104-0.19-0.104-0.26
		l0.078-0.182l0.182-0.078h0.247c0.121,0,0.23,0.065,0.325,0.195l2.938,4.095c0.364-0.199,0.628-0.405,0.793-0.617
		c0.165-0.212,0.266-0.427,0.306-0.643c0.039-0.217,0.058-0.507,0.058-0.871v-1.872l0.078-0.208l0.208-0.078h0.221l0.208,0.078
		l0.078,0.208v1.937c0,0.399-0.035,0.743-0.104,1.033c-0.069,0.291-0.215,0.572-0.436,0.845s-0.548,0.535-0.981,0.787l1.443,2.015
		c0.069,0.104,0.104,0.191,0.104,0.26l-0.078,0.182L113.499,220.016 M105.726,220.016h-0.221l-0.208-0.078l-0.078-0.208v-6.851
		l0.078-0.208l0.208-0.078h0.221l0.208,0.078l0.078,0.208v6.851l-0.078,0.208L105.726,220.016 M100.318,220.016h-5.2l-0.208-0.078
		l-0.078-0.208v-0.182l0.078-0.208l0.208-0.078h3.913v-3.432c0-1.655-0.828-2.483-2.483-2.483h-1.3l-0.208-0.078l-0.078-0.208
		v-0.182l0.078-0.208l0.208-0.078h1.365c1.083,0,1.889,0.273,2.418,0.819c0.529,0.546,0.793,1.33,0.793,2.353v3.497h0.494
		l0.208,0.078l0.078,0.208v0.182l-0.078,0.208L100.318,220.016 M92.778,220.016h-3.289l-0.208-0.078l-0.078-0.208v-0.182
		l0.078-0.208l0.208-0.078h2.782v-3.432c0-0.476-0.085-0.905-0.253-1.287c-0.169-0.381-0.403-0.676-0.702-0.884
		c-0.299-0.208-0.635-0.312-1.008-0.312H88.8l-0.962,6.37l-0.11,0.215l-0.214,0.084h-0.234l-0.182-0.084l-0.052-0.215l0.949-6.37
		h-0.585l-0.208-0.078l-0.078-0.208v-0.182l0.078-0.208l0.208-0.078h2.964c0.52,0,0.984,0.13,1.391,0.39
		c0.407,0.26,0.726,0.631,0.956,1.112c0.23,0.481,0.344,1.038,0.344,1.67v3.965l-0.078,0.208L92.778,220.016 M78.361,220.016h-5.2
		l-0.208-0.078l-0.078-0.208v-0.182l0.078-0.208l0.208-0.078h3.913v-3.432c0-1.655-0.828-2.483-2.483-2.483h-1.3l-0.208-0.078
		l-0.078-0.208v-0.182l0.078-0.208l0.208-0.078h1.365c1.083,0,1.889,0.273,2.418,0.819c0.529,0.546,0.793,1.33,0.793,2.353v3.497
		h0.494l0.208,0.078l0.078,0.208v0.182l-0.078,0.208L78.361,220.016 M69.638,220.016h-0.221l-0.208-0.078l-0.078-0.208v-4.914
		c0-0.338,0.033-0.637,0.098-0.897c0.065-0.26,0.15-0.451,0.253-0.572h-3.783l-0.208-0.078l-0.078-0.208v-0.182l0.078-0.208
		l0.208-0.078h5.486l0.208,0.078l0.078,0.208v0.182l-0.078,0.208l-0.208,0.078h-0.832c-0.139,0.122-0.245,0.319-0.319,0.592
		c-0.074,0.273-0.11,0.587-0.11,0.943v4.849l-0.078,0.208L69.638,220.016 M60.564,220.016h-3.289l-0.208-0.078l-0.078-0.208v-0.182
		l0.078-0.208l0.208-0.078h2.782v-3.432c0-0.476-0.084-0.905-0.253-1.287c-0.169-0.381-0.403-0.676-0.702-0.884
		c-0.299-0.208-0.635-0.312-1.007-0.312h-1.508l-0.962,6.37l-0.11,0.215l-0.215,0.084h-0.234l-0.182-0.084l-0.052-0.215l0.949-6.37
		h-0.585l-0.208-0.078l-0.078-0.208v-0.182l0.078-0.208l0.208-0.078h2.964c0.52,0,0.983,0.13,1.391,0.39
		c0.407,0.26,0.726,0.631,0.956,1.112c0.23,0.481,0.344,1.038,0.344,1.67v3.965l-0.078,0.208L60.564,220.016 M51.438,220.016h-0.221
		l-0.208-0.078l-0.078-0.208v-4.914c0-0.338,0.033-0.637,0.098-0.897c0.065-0.26,0.15-0.451,0.253-0.572h-1.183l-0.208-0.078
		l-0.078-0.208v-0.182l0.078-0.208l0.208-0.078h2.886l0.208,0.078l0.078,0.208v0.182l-0.078,0.208l-0.208,0.078h-0.832
		c-0.139,0.122-0.245,0.319-0.319,0.592c-0.074,0.273-0.11,0.587-0.11,0.943v4.849l-0.078,0.208L51.438,220.016 M47.655,220.016
		h-0.221l-0.208-0.078l-0.078-0.208v-6.851l0.078-0.208l0.208-0.078h0.221l0.208,0.078l0.078,0.208v6.851l-0.078,0.208
		L47.655,220.016 M31.197,220.016h-5.226l-0.208-0.078l-0.078-0.208v-6.851l0.078-0.208l0.208-0.078h2.301
		c1.083,0,1.889,0.271,2.418,0.813c0.529,0.542,0.793,1.328,0.793,2.359v3.965l-0.078,0.208L31.197,220.016 M26.465,213.347v5.915
		h4.225v-3.432c0-1.655-0.828-2.483-2.483-2.483H26.465 M236.881,217.026h-0.221l-0.208-0.078l-0.078-0.208v-3.861l0.078-0.208
		l0.208-0.078h0.221l0.208,0.078l0.078,0.208v3.861l-0.078,0.208L236.881,217.026 M169.308,217.026h-0.221l-0.208-0.078
		l-0.078-0.208v-3.861l0.078-0.208l0.208-0.078h0.221l0.208,0.078l0.078,0.208v3.861l-0.078,0.208L169.308,217.026"/>
	<path fill="#000000" d="M253.287,237.657l-0.176-0.065l-0.071-0.156v-0.169c0-0.199,0.06-0.321,0.182-0.364l1.781-0.65l-1.729-6.24
		c-0.043-0.147-0.065-0.234-0.065-0.26l0.078-0.182l0.182-0.078h0.234l0.195,0.058l0.104,0.137l1.781,6.279l0.13-0.052
		c0.711-0.26,1.209-0.632,1.495-1.118c0.286-0.485,0.429-1.075,0.429-1.768v-3.25l0.078-0.208l0.208-0.078h0.221l0.208,0.078
		l0.078,0.208v3.51c0,0.728-0.234,1.404-0.702,2.028c-0.468,0.624-1.088,1.075-1.859,1.352l-2.665,0.962L253.287,237.657
		 M248.529,237.046c-1.101,0-1.9-0.268-2.398-0.806c-0.498-0.537-0.747-1.326-0.747-2.366v-4.095l0.078-0.208l0.208-0.078h0.221
		l0.208,0.078l0.078,0.208v4.03c0,0.797,0.193,1.41,0.579,1.839c0.386,0.429,0.977,0.644,1.774,0.644s1.385-0.193,1.762-0.579
		c0.377-0.386,0.574-0.977,0.592-1.775v-0.442v-1.027c-0.018-0.78-0.191-1.356-0.52-1.729c-0.329-0.372-0.776-0.559-1.339-0.559
		c-0.165,0-0.353,0.03-0.566,0.091c-0.212,0.061-0.392,0.143-0.539,0.247l-0.13,0.039l-0.15-0.058l-0.071-0.15v-0.169v-0.065
		l0.026-0.182l0.104-0.117c0.199-0.13,0.405-0.227,0.617-0.292c0.212-0.065,0.47-0.098,0.773-0.098c0.806,0,1.432,0.243,1.879,0.728
		c0.446,0.485,0.682,1.235,0.709,2.249c0.009,0.087,0.013,0.351,0.013,0.793c0,0.451-0.004,0.72-0.013,0.806
		c-0.026,1.04-0.28,1.807-0.76,2.301C250.433,236.799,249.638,237.046,248.529,237.046 M182.711,237.033
		c-0.139,0-0.208-0.069-0.208-0.208V236.5c0-0.147,0.091-0.256,0.273-0.325l0.533-0.208c0.667-0.26,1.176-0.619,1.527-1.079
		c0.351-0.459,0.527-1.144,0.527-2.054c0-0.65-0.078-1.161-0.234-1.534c-0.156-0.373-0.414-0.641-0.774-0.806
		c-0.36-0.165-0.851-0.247-1.475-0.247h-0.442h-0.039l-1.014-0.013l-0.208-0.071l-0.078-0.202v-1.989l0.078-0.208l0.208-0.078h0.221
		l0.208,0.078l0.078,0.208v1.521h1.053c0.806,0,1.441,0.11,1.904,0.331c0.464,0.221,0.797,0.579,1.001,1.073
		c0.204,0.494,0.306,1.17,0.306,2.028c0,1.118-0.253,1.972-0.76,2.561c-0.507,0.59-1.185,1.036-2.034,1.339l-0.546,0.195
		L182.711,237.033 M194.673,236.982c-0.039,0-0.079,0-0.119-0.001h-0.871c-0.512,0-0.981-0.128-1.41-0.383
		c-0.429-0.256-0.769-0.622-1.021-1.099c-0.251-0.476-0.377-1.031-0.377-1.664v-4.056l0.078-0.208l0.208-0.078h0.221l0.208,0.078
		l0.078,0.208l0.052,3.887c0.884-0.061,1.504-0.28,1.859-0.657c0.355-0.377,0.533-0.865,0.533-1.462v-1.768l0.078-0.208l0.208-0.078
		h0.221l0.208,0.078l0.078,0.208v1.833c0,0.771-0.264,1.419-0.793,1.944c-0.529,0.524-1.309,0.813-2.34,0.864
		c0.095,0.572,0.347,1.014,0.754,1.326c0.407,0.312,0.914,0.468,1.521,0.468h0.455c0.029,0.001,0.057,0.001,0.085,0.001
		c0.834,0,1.477-0.25,1.93-0.748c0.468-0.516,0.702-1.211,0.702-2.087v-3.601l0.078-0.208l0.208-0.078h0.221l0.208,0.078
		l0.078,0.208v3.692c0,0.719-0.143,1.348-0.429,1.885c-0.286,0.537-0.689,0.947-1.209,1.228
		C195.883,236.85,195.317,236.982,194.673,236.982 M266.157,236.916h-3.289l-0.208-0.078l-0.078-0.208v-0.182l0.078-0.208
		l0.208-0.078h2.782v-3.432c0-0.476-0.085-0.905-0.253-1.287c-0.169-0.381-0.403-0.676-0.702-0.884
		c-0.299-0.208-0.635-0.312-1.008-0.312h-1.508l-0.962,6.37l-0.111,0.215l-0.215,0.084h-0.234l-0.182-0.084l-0.052-0.215l0.949-6.37
		h-0.585l-0.208-0.078l-0.078-0.208v-0.182l0.078-0.208l0.208-0.078h2.964c0.52,0,0.984,0.13,1.391,0.39
		c0.407,0.26,0.726,0.631,0.956,1.112c0.23,0.481,0.344,1.038,0.344,1.67v3.965l-0.078,0.208L266.157,236.916 M239.702,236.916
		h-3.289l-0.208-0.078l-0.078-0.208v-0.182l0.078-0.208l0.208-0.078h2.782v-3.432c0-0.476-0.085-0.905-0.253-1.287
		c-0.169-0.381-0.403-0.676-0.702-0.884c-0.299-0.208-0.635-0.312-1.008-0.312h-1.508l-0.962,6.37l-0.11,0.215l-0.214,0.084h-0.234
		l-0.182-0.084l-0.052-0.215l0.949-6.37h-0.585l-0.208-0.078l-0.078-0.208v-0.182l0.078-0.208l0.208-0.078h2.964
		c0.52,0,0.983,0.13,1.391,0.39c0.407,0.26,0.726,0.631,0.956,1.112c0.23,0.481,0.345,1.038,0.345,1.67v3.965l-0.078,0.208
		L239.702,236.916 M229.12,236.916h-3.289l-0.208-0.078l-0.078-0.208v-0.182l0.078-0.208l0.208-0.078h2.782v-3.432
		c0-0.476-0.085-0.905-0.253-1.287c-0.169-0.381-0.403-0.676-0.702-0.884c-0.299-0.208-0.635-0.312-1.008-0.312h-1.508l-0.962,6.37
		l-0.111,0.215l-0.214,0.084h-0.234l-0.182-0.084l-0.052-0.215l0.949-6.37h-0.585l-0.208-0.078l-0.078-0.208v-0.182l0.078-0.208
		l0.208-0.078h2.964c0.52,0,0.984,0.13,1.391,0.39c0.407,0.26,0.726,0.631,0.956,1.112c0.23,0.481,0.344,1.038,0.344,1.67v3.965
		l-0.078,0.208L229.12,236.916 M215.184,236.916h-0.221l-0.208-0.078l-0.078-0.208v-3.9c0-1.655-0.828-2.483-2.483-2.483h-2.236
		l-0.208-0.078l-0.078-0.208v-0.182l0.078-0.208l0.208-0.078h2.301c1.083,0,1.889,0.271,2.418,0.813
		c0.529,0.542,0.793,1.328,0.793,2.36v3.965l-0.078,0.208L215.184,236.916 M210.179,236.916h-0.221l-0.208-0.078l-0.078-0.208
		v-4.563l0.078-0.208l0.208-0.078h0.221l0.208,0.078l0.078,0.208v4.563l-0.078,0.208L210.179,236.916 M207.904,236.916h-5.2
		l-0.208-0.078l-0.078-0.208v-0.182l0.078-0.208l0.208-0.078h3.913v-3.432c0-1.655-0.828-2.483-2.483-2.483h-1.3l-0.208-0.078
		l-0.078-0.208v-0.182l0.078-0.208l0.208-0.078h1.365c1.083,0,1.889,0.273,2.418,0.819c0.529,0.546,0.793,1.331,0.793,2.353v3.497
		h0.494l0.208,0.078l0.078,0.208v0.182l-0.078,0.208L207.904,236.916 M188.534,236.916h-0.221l-0.208-0.078l-0.078-0.208v-6.851
		l0.078-0.208l0.208-0.078h0.221l0.208,0.078l0.078,0.208v6.851l-0.078,0.208L188.534,236.916 M231.915,233.926h-0.221l-0.208-0.078
		l-0.078-0.208v-3.861l0.078-0.208l0.208-0.078h0.221l0.208,0.078l0.078,0.208v3.861l-0.078,0.208L231.915,233.926 M221.333,233.926
		h-0.221l-0.208-0.078l-0.078-0.208v-3.861l0.078-0.208l0.208-0.078h0.221l0.208,0.078l0.078,0.208v3.861l-0.078,0.208
		L221.333,233.926 M200.39,233.926h-0.221l-0.208-0.078l-0.078-0.208v-3.861l0.078-0.208l0.208-0.078h0.221l0.208,0.078l0.078,0.208
		v3.861l-0.078,0.208L200.39,233.926"/>
	<path fill="#000000" d="M282.255,259.485h-1.144l-0.221-0.091l-0.091-0.221v-1.664h-4.121l-0.221-0.091l-0.091-0.221V256.3
		c0-0.138,0.047-0.268,0.143-0.39l3.835-5.304l0.195-0.163c0.087-0.039,0.182-0.058,0.286-0.058h1.43
		c0.095,0,0.171,0.028,0.228,0.085c0.056,0.056,0.084,0.132,0.084,0.227v5.265h1.17c0.095,0,0.171,0.028,0.228,0.084
		c0.056,0.056,0.084,0.132,0.084,0.228v0.923l-0.084,0.221c-0.057,0.061-0.132,0.091-0.228,0.091h-1.17v1.664l-0.084,0.221
		C282.426,259.455,282.35,259.485,282.255,259.485 M280.838,252.283l-2.639,3.731h2.639V252.283"/>
	<path fill="#000000" d="M109.561,261.097h-0.221l-0.208-0.078l-0.078-0.208v-8.463l0.078-0.208l0.208-0.078h0.221l0.208,0.078
		l0.078,0.208v8.463l-0.078,0.208L109.561,261.097 M190.602,260.46h-0.221l-0.156-0.078l-0.026-0.195l0.247-1.56
		c0.026-0.234,0.134-0.351,0.325-0.351h0.585l0.143,0.065l0.052,0.143l-0.052,0.234l-0.559,1.469
		c-0.043,0.095-0.089,0.165-0.136,0.208L190.602,260.46 M164.303,260.46h-0.221l-0.156-0.078l-0.026-0.195l0.247-1.56
		c0.026-0.234,0.134-0.351,0.325-0.351h0.585l0.143,0.065l0.052,0.143l-0.052,0.234l-0.559,1.469
		c-0.043,0.095-0.089,0.165-0.136,0.208L164.303,260.46 M87.162,260.226l-0.175-0.065l-0.072-0.156v-0.169
		c0-0.199,0.061-0.321,0.182-0.364l1.781-0.65l-1.729-6.24c-0.043-0.147-0.065-0.234-0.065-0.26l0.078-0.182l0.182-0.078h0.234
		l0.195,0.058l0.104,0.136l1.781,6.279l0.13-0.052c0.71-0.26,1.209-0.633,1.495-1.118c0.286-0.485,0.429-1.075,0.429-1.768v-3.25
		l0.078-0.208l0.208-0.078h0.221l0.208,0.078l0.078,0.208v3.51c0,0.728-0.234,1.404-0.702,2.028
		c-0.468,0.624-1.088,1.075-1.859,1.352l-2.665,0.962L87.162,260.226 M252.533,259.615c-1.031,0-1.803-0.275-2.314-0.826
		c-0.511-0.55-0.767-1.354-0.767-2.412v-4.03l0.078-0.208l0.208-0.078h3.055c1.074,0,1.846,0.247,2.314,0.741
		c0.468,0.494,0.724,1.261,0.767,2.301c0.009,0.087,0.013,0.329,0.013,0.728c0,0.407-0.004,0.654-0.013,0.741
		c-0.026,1.031-0.304,1.796-0.832,2.295C254.513,259.366,253.677,259.615,252.533,259.615 M250.245,252.816v3.562
		c0,0.798,0.19,1.411,0.572,1.84c0.381,0.429,0.953,0.643,1.716,0.643c0.893,0,1.536-0.193,1.931-0.578
		c0.394-0.386,0.6-0.977,0.617-1.775c0.009-0.087,0.013-0.312,0.013-0.676c0-0.355-0.004-0.576-0.013-0.663
		c-0.018-0.762-0.239-1.345-0.663-1.748c-0.425-0.403-0.988-0.605-1.69-0.605H250.245 M220.384,259.615
		c-1.101,0-1.9-0.268-2.398-0.806c-0.499-0.537-0.747-1.326-0.747-2.366v-4.095l0.078-0.208l0.208-0.078h0.221l0.208,0.078
		l0.078,0.208v4.03c0,0.798,0.193,1.411,0.579,1.84c0.386,0.429,0.977,0.643,1.774,0.643c0.797,0,1.384-0.193,1.761-0.578
		c0.377-0.386,0.574-0.977,0.592-1.775v-0.442v-1.027c-0.017-0.78-0.191-1.356-0.52-1.729c-0.329-0.373-0.776-0.559-1.339-0.559
		c-0.165,0-0.353,0.031-0.565,0.091c-0.213,0.061-0.392,0.143-0.54,0.247l-0.13,0.039l-0.15-0.059l-0.071-0.149v-0.169v-0.065
		l0.026-0.182l0.104-0.117c0.199-0.13,0.405-0.228,0.618-0.292c0.212-0.065,0.47-0.098,0.773-0.098c0.806,0,1.432,0.243,1.878,0.728
		c0.446,0.485,0.682,1.235,0.708,2.249c0.009,0.087,0.013,0.351,0.013,0.793c0,0.451-0.005,0.719-0.013,0.806
		c-0.026,1.04-0.279,1.807-0.76,2.301C222.289,259.368,221.494,259.615,220.384,259.615 M100.669,259.615
		c-1.101,0-1.9-0.268-2.398-0.806c-0.499-0.537-0.747-1.326-0.747-2.366v-4.095l0.078-0.208l0.208-0.078h0.221l0.208,0.078
		l0.078,0.208v4.03c0,0.798,0.193,1.411,0.578,1.84c0.386,0.429,0.977,0.643,1.775,0.643c0.797,0,1.384-0.193,1.761-0.578
		c0.377-0.386,0.574-0.977,0.592-1.775v-0.442v-1.027c-0.018-0.78-0.191-1.356-0.52-1.729c-0.329-0.373-0.776-0.559-1.339-0.559
		c-0.165,0-0.353,0.031-0.566,0.091c-0.212,0.061-0.392,0.143-0.539,0.247l-0.13,0.039l-0.149-0.059l-0.072-0.149v-0.169v-0.065
		l0.026-0.182l0.104-0.117c0.199-0.13,0.405-0.228,0.617-0.292c0.212-0.065,0.47-0.098,0.774-0.098c0.806,0,1.432,0.243,1.879,0.728
		c0.446,0.485,0.682,1.235,0.708,2.249c0.009,0.087,0.013,0.351,0.013,0.793c0,0.451-0.004,0.719-0.013,0.806
		c-0.026,1.04-0.279,1.807-0.76,2.301C102.574,259.368,101.778,259.615,100.669,259.615 M147.741,259.602
		c-0.139,0-0.208-0.069-0.208-0.208v-0.325c0-0.147,0.091-0.255,0.273-0.325l0.533-0.208c0.667-0.26,1.176-0.62,1.527-1.079
		c0.351-0.459,0.527-1.144,0.527-2.054c0-0.65-0.078-1.161-0.234-1.534c-0.156-0.373-0.414-0.641-0.773-0.806
		c-0.36-0.165-0.852-0.247-1.475-0.247h-0.442h-0.039l-1.014-0.013l-0.208-0.071l-0.078-0.202v-1.989l0.078-0.208l0.208-0.078h0.221
		l0.208,0.078l0.078,0.208v1.521h1.053c0.806,0,1.441,0.11,1.905,0.331c0.464,0.221,0.797,0.578,1.001,1.072
		c0.203,0.494,0.306,1.17,0.306,2.028c0,1.118-0.253,1.972-0.76,2.561c-0.507,0.59-1.185,1.036-2.035,1.339l-0.546,0.195
		L147.741,259.602 M127.02,259.602c-0.139,0-0.208-0.069-0.208-0.208v-0.325c0-0.147,0.091-0.255,0.273-0.325l0.533-0.208
		c0.667-0.26,1.176-0.62,1.528-1.079c0.351-0.459,0.527-1.144,0.527-2.054c0-0.65-0.078-1.161-0.234-1.534
		c-0.156-0.373-0.414-0.641-0.773-0.806c-0.36-0.165-0.851-0.247-1.475-0.247h-0.442h-0.039l-1.014-0.013l-0.208-0.071l-0.078-0.202
		v-1.989l0.078-0.208l0.208-0.078h0.221l0.208,0.078l0.078,0.208v1.521h1.053c0.806,0,1.441,0.11,1.904,0.331
		c0.464,0.221,0.797,0.578,1.001,1.072c0.203,0.494,0.306,1.17,0.306,2.028c0,1.118-0.253,1.972-0.76,2.561
		c-0.507,0.59-1.185,1.036-2.035,1.339l-0.546,0.195L127.02,259.602 M181.855,259.552c-0.039,0-0.079-0.001-0.119-0.001h-0.871
		c-0.512,0-0.982-0.128-1.411-0.384c-0.429-0.256-0.769-0.622-1.021-1.099c-0.251-0.477-0.377-1.031-0.377-1.664v-4.056l0.078-0.208
		l0.208-0.078h0.221l0.208,0.078l0.078,0.208l0.052,3.887c0.884-0.06,1.504-0.279,1.859-0.656c0.355-0.377,0.533-0.865,0.533-1.462
		v-1.768l0.078-0.208l0.208-0.078h0.221l0.208,0.078l0.078,0.208v1.833c0,0.772-0.264,1.419-0.793,1.944
		c-0.529,0.525-1.309,0.813-2.34,0.865c0.095,0.572,0.346,1.014,0.754,1.326c0.407,0.312,0.914,0.468,1.521,0.468h0.455
		c0.029,0.001,0.057,0.001,0.086,0.001c0.833,0,1.477-0.25,1.929-0.748c0.468-0.516,0.702-1.211,0.702-2.087v-3.601l0.078-0.208
		l0.208-0.078h0.221l0.208,0.078l0.078,0.208v3.692c0,0.719-0.143,1.348-0.429,1.885c-0.286,0.537-0.689,0.947-1.209,1.229
		C183.066,259.419,182.499,259.552,181.855,259.552 M41.626,259.552c-0.039,0-0.079-0.001-0.119-0.001h-0.871
		c-0.511,0-0.981-0.128-1.41-0.384c-0.429-0.256-0.769-0.622-1.021-1.099c-0.251-0.477-0.377-1.031-0.377-1.664v-4.056l0.078-0.208
		l0.208-0.078h0.221l0.208,0.078l0.078,0.208l0.052,3.887c0.884-0.06,1.504-0.279,1.859-0.656c0.355-0.377,0.533-0.865,0.533-1.462
		v-1.768l0.078-0.208l0.208-0.078h0.221l0.208,0.078l0.078,0.208v1.833c0,0.772-0.264,1.419-0.793,1.944
		c-0.529,0.525-1.309,0.813-2.34,0.865c0.095,0.572,0.347,1.014,0.754,1.326c0.407,0.312,0.914,0.468,1.521,0.468h0.455
		c0.029,0.001,0.057,0.001,0.086,0.001c0.834,0,1.477-0.25,1.929-0.748c0.468-0.516,0.702-1.211,0.702-2.087v-3.601l0.078-0.208
		l0.208-0.078h0.221l0.208,0.078l0.078,0.208v3.692c0,0.719-0.143,1.348-0.429,1.885c-0.286,0.537-0.689,0.947-1.209,1.229
		C42.837,259.419,42.27,259.552,41.626,259.552 M266.157,259.485h-3.289l-0.208-0.078l-0.078-0.208v-0.182l0.078-0.208l0.208-0.078
		h2.782v-3.432c0-0.476-0.085-0.905-0.253-1.287c-0.169-0.381-0.403-0.676-0.702-0.884s-0.635-0.312-1.008-0.312h-1.508l-0.962,6.37
		l-0.111,0.214l-0.215,0.085h-0.234l-0.182-0.085l-0.052-0.214l0.949-6.37h-0.585l-0.208-0.078l-0.078-0.208v-0.182l0.078-0.208
		l0.208-0.078h2.964c0.52,0,0.984,0.13,1.391,0.39c0.407,0.26,0.726,0.631,0.956,1.111c0.23,0.481,0.344,1.038,0.344,1.671v3.965
		l-0.078,0.208L266.157,259.485 M258.266,259.485h-0.221l-0.208-0.078l-0.078-0.208v-6.851l0.078-0.208l0.208-0.078h0.221
		l0.208,0.078l0.078,0.208v6.851l-0.078,0.208L258.266,259.485 M242.081,259.485h-2.158l-0.208-0.078l-0.078-0.208v-0.182
		l0.078-0.208l0.208-0.078h2.093c0.659,0,1.159-0.215,1.502-0.644c0.342-0.429,0.531-1.042,0.565-1.839
		c0.009-0.087,0.013-0.247,0.013-0.481c0-0.225-0.004-0.381-0.013-0.468c-0.017-0.789-0.201-1.399-0.552-1.833
		c-0.351-0.433-0.856-0.65-1.515-0.65h-1.768v1.235c0,0.407,0.043,0.726,0.13,0.956c0.087,0.23,0.238,0.37,0.455,0.422l0.533,0.13
		c0.147,0.043,0.221,0.182,0.221,0.416v0.182l-0.085,0.156l-0.214,0.052l-0.104-0.013l-0.494-0.117
		c-0.416-0.095-0.724-0.32-0.923-0.676c-0.2-0.355-0.299-0.858-0.299-1.508v-1.703l0.078-0.208l0.208-0.078h2.327
		c0.893,0,1.575,0.275,2.047,0.825c0.472,0.55,0.722,1.332,0.747,2.346c0.009,0.087,0.013,0.264,0.013,0.533
		c0,0.277-0.005,0.459-0.013,0.546c-0.026,1.014-0.275,1.796-0.747,2.346C243.656,259.21,242.974,259.485,242.081,259.485
		 M234.281,259.485h-5.226l-0.208-0.078l-0.078-0.208v-6.851l0.078-0.208l0.208-0.078h2.301c1.083,0,1.889,0.271,2.418,0.813
		c0.529,0.542,0.793,1.328,0.793,2.359v3.965l-0.078,0.208L234.281,259.485 M229.549,252.816v5.915h4.225v-3.432
		c0-1.655-0.828-2.483-2.483-2.483H229.549 M214.912,259.485h-0.221l-0.208-0.078l-0.078-0.208v-3.9
		c0-1.655-0.828-2.483-2.483-2.483h-1.742v6.383l-0.078,0.208l-0.208,0.078h-0.221l-0.208-0.078l-0.078-0.208v-6.851l0.078-0.208
		l0.208-0.078h2.314c1.083,0,1.889,0.271,2.418,0.813c0.529,0.542,0.793,1.328,0.793,2.359v3.965l-0.078,0.208L214.912,259.485
		 M204.551,259.485h-3.224l-0.208-0.078l-0.078-0.208v-0.182l0.078-0.208l0.208-0.078h2.691l-0.247-3.562l-0.013-0.273
		c-0.035-0.52-0.078-0.914-0.13-1.183c-0.052-0.269-0.165-0.485-0.338-0.65c-0.173-0.165-0.438-0.247-0.793-0.247h-0.481
		l-0.208-0.078l-0.078-0.208v-0.182l0.078-0.208l0.208-0.078h0.481c0.581,0,1.012,0.126,1.294,0.377
		c0.281,0.251,0.468,0.576,0.559,0.975c0.091,0.399,0.163,0.962,0.215,1.69l0.273,4.095v0.039l-0.085,0.176L204.551,259.485
		 M199.117,259.485h-0.221l-0.208-0.078l-0.078-0.208v-3.9c0-1.655-0.828-2.483-2.483-2.483h-2.236l-0.208-0.078l-0.078-0.208
		v-0.182l0.078-0.208l0.208-0.078h2.301c1.083,0,1.889,0.271,2.418,0.813s0.793,1.328,0.793,2.359v3.965l-0.078,0.208
		L199.117,259.485 M194.112,259.485h-0.221l-0.208-0.078l-0.078-0.208v-4.563l0.078-0.208l0.208-0.078h0.221l0.208,0.078
		l0.078,0.208v4.563l-0.078,0.208L194.112,259.485 M175.717,259.485h-0.221l-0.208-0.078l-0.078-0.208v-6.851l0.078-0.208
		l0.208-0.078h0.221l0.208,0.078l0.078,0.208v6.851l-0.078,0.208L175.717,259.485 M172.818,259.485h-5.226l-0.208-0.078
		l-0.078-0.208v-6.851l0.078-0.208l0.208-0.078h2.301c1.083,0,1.889,0.271,2.418,0.813c0.529,0.542,0.793,1.328,0.793,2.359v3.965
		l-0.078,0.208L172.818,259.485 M168.086,252.816v5.915h4.225v-3.432c0-1.655-0.828-2.483-2.483-2.483H168.086 M158.479,259.485
		h-3.289l-0.208-0.078l-0.078-0.208v-0.182l0.078-0.208l0.208-0.078h2.782v-3.432c0-0.476-0.085-0.905-0.253-1.287
		c-0.169-0.381-0.403-0.676-0.702-0.884c-0.299-0.208-0.635-0.312-1.008-0.312h-1.508l-0.962,6.37l-0.11,0.214l-0.215,0.085h-0.234
		l-0.182-0.085l-0.052-0.214l0.949-6.37h-0.585l-0.208-0.078l-0.078-0.208v-0.182l0.078-0.208l0.208-0.078h2.964
		c0.52,0,0.984,0.13,1.391,0.39c0.407,0.26,0.726,0.631,0.956,1.111c0.23,0.481,0.344,1.038,0.344,1.671v3.965l-0.078,0.208
		L158.479,259.485 M144.192,259.485h-0.221l-0.208-0.078l-0.078-0.208v-3.9c0-1.655-0.828-2.483-2.483-2.483h-1.742v6.383
		l-0.078,0.208l-0.208,0.078h-0.221l-0.208-0.078l-0.078-0.208v-6.851l0.078-0.208l0.208-0.078h2.314
		c1.083,0,1.889,0.271,2.418,0.813c0.529,0.542,0.793,1.328,0.793,2.359v3.965l-0.078,0.208L144.192,259.485 M132.844,259.485
		h-0.221l-0.208-0.078l-0.078-0.208v-6.851l0.078-0.208l0.208-0.078h0.221l0.208,0.078l0.078,0.208v6.851l-0.078,0.208
		L132.844,259.485 M120.429,259.485h-3.289l-0.208-0.078l-0.078-0.208v-0.182l0.078-0.208l0.208-0.078h2.782v-3.432
		c0-0.476-0.085-0.905-0.253-1.287c-0.169-0.381-0.403-0.676-0.702-0.884c-0.299-0.208-0.635-0.312-1.008-0.312h-1.508l-0.962,6.37
		l-0.11,0.214l-0.214,0.085h-0.234l-0.182-0.085l-0.052-0.214l0.949-6.37h-0.585l-0.208-0.078l-0.078-0.208v-0.182l0.078-0.208
		l0.208-0.078h2.964c0.52,0,0.984,0.13,1.391,0.39c0.407,0.26,0.726,0.631,0.956,1.111c0.229,0.481,0.344,1.038,0.344,1.671v3.965
		l-0.078,0.208L120.429,259.485 M112.538,259.485h-0.221l-0.208-0.078l-0.078-0.208v-6.851l0.078-0.208l0.208-0.078h0.221
		l0.208,0.078l0.078,0.208v6.851l-0.078,0.208L112.538,259.485 M95.118,259.485h-0.221l-0.208-0.078l-0.078-0.208v-6.851
		l0.078-0.208l0.208-0.078h0.221l0.208,0.078l0.078,0.208v6.851l-0.078,0.208L95.118,259.485 M84.991,259.485h-3.289l-0.208-0.078
		l-0.078-0.208v-0.182l0.078-0.208l0.208-0.078h2.782v-3.432c0-0.476-0.085-0.905-0.253-1.287c-0.169-0.381-0.403-0.676-0.702-0.884
		s-0.635-0.312-1.008-0.312h-1.508l-0.962,6.37l-0.11,0.214l-0.215,0.085h-0.234L79.31,259.4l-0.052-0.214l0.949-6.37h-0.585
		l-0.208-0.078l-0.078-0.208v-0.182l0.078-0.208l0.208-0.078h2.964c0.52,0,0.984,0.13,1.391,0.39
		c0.407,0.26,0.726,0.631,0.956,1.111c0.23,0.481,0.344,1.038,0.344,1.671v3.965l-0.078,0.208L84.991,259.485 M74.41,259.485h-5.226
		l-0.208-0.078l-0.078-0.208v-6.851l0.078-0.208l0.208-0.078h2.301c1.083,0,1.889,0.271,2.418,0.813
		c0.529,0.542,0.793,1.328,0.793,2.359v3.965l-0.078,0.208L74.41,259.485 M69.678,252.816v5.915h4.225v-3.432
		c0-1.655-0.828-2.483-2.483-2.483H69.678 M63.074,259.485h-0.221l-0.208-0.078l-0.078-0.208v-6.851l0.078-0.208l0.208-0.078h0.221
		l0.208,0.078l0.078,0.208v6.851l-0.078,0.208L63.074,259.485 M60.175,259.485h-3.289l-0.208-0.078l-0.078-0.208v-0.182l0.078-0.208
		l0.208-0.078h2.782v-3.432c0-0.476-0.085-0.905-0.253-1.287c-0.169-0.381-0.403-0.676-0.702-0.884
		c-0.299-0.208-0.635-0.312-1.008-0.312h-1.508l-0.962,6.37l-0.11,0.214l-0.214,0.085h-0.234l-0.182-0.085l-0.052-0.214l0.949-6.37
		h-0.585l-0.208-0.078l-0.078-0.208v-0.182l0.078-0.208l0.208-0.078h2.964c0.52,0,0.984,0.13,1.391,0.39
		c0.407,0.26,0.726,0.631,0.956,1.111c0.23,0.481,0.344,1.038,0.344,1.671v3.965l-0.078,0.208L60.175,259.485 M52.362,259.485
		h-3.289l-0.208-0.078l-0.078-0.208v-0.182l0.078-0.208l0.208-0.078h2.782v-3.432c0-0.476-0.085-0.905-0.253-1.287
		c-0.169-0.381-0.403-0.676-0.702-0.884c-0.299-0.208-0.635-0.312-1.008-0.312h-1.508l-0.962,6.37l-0.11,0.214l-0.214,0.085h-0.234
		l-0.182-0.085l-0.052-0.214l0.949-6.37h-0.585l-0.208-0.078l-0.078-0.208v-0.182l0.078-0.208l0.208-0.078h2.964
		c0.52,0,0.984,0.13,1.391,0.39c0.407,0.26,0.726,0.631,0.956,1.111c0.23,0.481,0.344,1.038,0.344,1.671v3.965l-0.078,0.208
		L52.362,259.485 M30.093,259.485h-1.911l-0.208-0.078l-0.078-0.208v-0.182l0.078-0.208l0.208-0.078h1.846
		c0.849,0,1.467-0.21,1.853-0.631c0.386-0.42,0.596-1.038,0.63-1.852c0.009-0.13,0.013-0.29,0.013-0.481
		c0-0.182-0.005-0.338-0.013-0.468c-0.026-0.815-0.234-1.432-0.624-1.852c-0.39-0.42-1.01-0.631-1.859-0.631h-1.846l-0.208-0.078
		l-0.078-0.208v-0.182l0.078-0.208l0.208-0.078h1.911c1.075,0,1.87,0.269,2.385,0.806c0.516,0.537,0.791,1.326,0.826,2.366
		c0.008,0.13,0.013,0.308,0.013,0.533c0,0.234-0.005,0.416-0.013,0.546c-0.035,1.04-0.31,1.829-0.826,2.366
		C31.963,259.217,31.168,259.485,30.093,259.485 M22.709,259.485h-5.226l-0.208-0.078l-0.078-0.208v-6.851l0.078-0.208l0.208-0.078
		h2.301c1.083,0,1.889,0.271,2.418,0.813c0.529,0.542,0.793,1.328,0.793,2.359v3.965l-0.078,0.208L22.709,259.485 M17.977,252.816
		v5.915h4.225v-3.432c0-1.655-0.828-2.483-2.483-2.483H17.977 M247.164,256.495h-0.221l-0.208-0.078l-0.078-0.208v-3.861
		l0.078-0.208l0.208-0.078h0.221l0.208,0.078l0.078,0.208v3.861l-0.078,0.208L247.164,256.495 M237.076,256.495h-0.221l-0.208-0.078
		l-0.078-0.208v-3.861l0.078-0.208l0.208-0.078h0.221l0.208,0.078l0.078,0.208v3.861l-0.078,0.208L237.076,256.495 M207.021,256.495
		H206.8l-0.208-0.078l-0.078-0.208v-3.861l0.078-0.208l0.208-0.078h0.221l0.208,0.078l0.078,0.208v3.861l-0.078,0.208
		L207.021,256.495 M123.224,256.495h-0.221l-0.208-0.078l-0.078-0.208v-3.861l0.078-0.208l0.208-0.078h0.221l0.208,0.078
		l0.078,0.208v3.861l-0.078,0.208L123.224,256.495 M77.204,256.495h-0.221l-0.208-0.078l-0.078-0.208v-3.861l0.078-0.208
		l0.208-0.078h0.221l0.208,0.078l0.078,0.208v3.861l-0.078,0.208L77.204,256.495 M35.592,256.495h-0.221l-0.208-0.078l-0.078-0.208
		v-3.861l0.078-0.208l0.208-0.078h0.221l0.208,0.078l0.078,0.208v3.861l-0.078,0.208L35.592,256.495 M25.504,256.495h-0.221
		l-0.208-0.078l-0.078-0.208v-3.861l0.078-0.208l0.208-0.078h0.221l0.208,0.078l0.078,0.208v3.861l-0.078,0.208L25.504,256.495"/>
	<path fill="#000000" d="M204.953,278.868h-0.221l-0.208-0.078l-0.078-0.208v-7.046l0.078-0.208l0.208-0.078h0.221l0.208,0.078
		l0.078,0.208v7.046l-0.078,0.208L204.953,278.868 M120.675,278.868h-0.221l-0.208-0.078l-0.078-0.208v-7.046l0.078-0.208
		l0.208-0.078h0.221l0.208,0.078l0.078,0.208v7.046l-0.078,0.208L120.675,278.868 M240.469,277.997h-0.221l-0.208-0.078
		l-0.078-0.208v-8.463l0.078-0.208l0.208-0.078h0.221l0.208,0.078l0.078,0.208v8.463l-0.078,0.208L240.469,277.997 M229.159,277.126
		l-0.176-0.065l-0.072-0.156v-0.169c0-0.199,0.061-0.321,0.182-0.364l1.781-0.65l-1.729-6.24c-0.043-0.147-0.065-0.234-0.065-0.26
		l0.078-0.182l0.182-0.078h0.234l0.195,0.058l0.104,0.136l1.781,6.279l0.13-0.052c0.711-0.26,1.209-0.633,1.495-1.118
		c0.286-0.485,0.429-1.075,0.429-1.768v-3.25l0.078-0.208l0.208-0.078h0.221l0.208,0.078l0.078,0.208v3.51
		c0,0.728-0.234,1.404-0.702,2.028c-0.468,0.624-1.088,1.075-1.859,1.352l-2.665,0.962L229.159,277.126 M256.914,276.515
		c-1.101,0-1.9-0.268-2.398-0.806c-0.498-0.537-0.747-1.326-0.747-2.366v-4.095l0.078-0.208l0.208-0.078h0.221l0.208,0.078
		l0.078,0.208v4.03c0,0.798,0.193,1.411,0.579,1.84c0.386,0.429,0.977,0.643,1.774,0.643s1.384-0.193,1.762-0.578
		c0.377-0.385,0.574-0.977,0.592-1.775v-0.442v-1.027c-0.018-0.78-0.191-1.356-0.52-1.729c-0.329-0.373-0.776-0.559-1.339-0.559
		c-0.165,0-0.353,0.03-0.566,0.091c-0.212,0.061-0.392,0.143-0.539,0.247l-0.13,0.039l-0.15-0.059l-0.071-0.149v-0.169v-0.065
		l0.026-0.182l0.104-0.117c0.199-0.13,0.405-0.227,0.617-0.292c0.212-0.065,0.47-0.098,0.773-0.098c0.806,0,1.432,0.243,1.879,0.728
		c0.446,0.485,0.682,1.235,0.709,2.249c0.009,0.087,0.013,0.351,0.013,0.793c0,0.451-0.004,0.719-0.013,0.806
		c-0.026,1.04-0.279,1.807-0.76,2.301C258.818,276.268,258.023,276.515,256.914,276.515 M263.232,276.502
		c-0.139,0-0.208-0.069-0.208-0.208v-0.325c0-0.147,0.091-0.255,0.273-0.325l0.533-0.208c0.667-0.26,1.176-0.62,1.527-1.079
		s0.527-1.144,0.527-2.054c0-0.65-0.078-1.161-0.234-1.534c-0.156-0.373-0.414-0.641-0.773-0.806
		c-0.36-0.165-0.852-0.247-1.475-0.247h-0.442h-0.039l-1.014-0.013l-0.208-0.071l-0.078-0.202v-1.989l0.078-0.208l0.208-0.078h0.221
		l0.208,0.078l0.078,0.208v1.521h1.053c0.806,0,1.441,0.11,1.904,0.331c0.464,0.221,0.797,0.578,1.001,1.072
		c0.204,0.494,0.306,1.17,0.306,2.028c0,1.118-0.253,1.972-0.76,2.561c-0.507,0.59-1.185,1.036-2.035,1.339l-0.546,0.195
		L263.232,276.502 M213.806,276.502c-0.139,0-0.208-0.069-0.208-0.208v-0.325c0-0.147,0.091-0.255,0.273-0.325l0.533-0.208
		c0.667-0.26,1.176-0.62,1.528-1.079c0.351-0.459,0.527-1.144,0.527-2.054c0-0.65-0.078-1.161-0.234-1.534
		c-0.156-0.373-0.414-0.641-0.774-0.806c-0.36-0.165-0.851-0.247-1.475-0.247h-0.442h-0.039l-1.014-0.013l-0.208-0.071l-0.078-0.202
		v-1.989l0.078-0.208l0.208-0.078h0.221l0.208,0.078l0.078,0.208v1.521h1.053c0.806,0,1.441,0.11,1.904,0.331
		c0.464,0.221,0.797,0.578,1.001,1.072c0.204,0.494,0.306,1.17,0.306,2.028c0,1.118-0.253,1.972-0.76,2.561
		c-0.507,0.59-1.185,1.036-2.034,1.339l-0.546,0.195L213.806,276.502 M206.877,276.502c-0.139,0-0.208-0.069-0.208-0.208v-0.325
		c0-0.147,0.091-0.255,0.273-0.325l0.533-0.208c0.667-0.26,1.176-0.62,1.527-1.079c0.351-0.459,0.527-1.144,0.527-2.054
		c0-0.65-0.078-1.161-0.234-1.534c-0.156-0.373-0.414-0.641-0.773-0.806c-0.36-0.165-0.851-0.247-1.475-0.247h-2.314l-0.208-0.078
		l-0.078-0.208v-0.182l0.078-0.208l0.208-0.078h2.379c0.806,0,1.441,0.11,1.904,0.331c0.464,0.221,0.797,0.578,1.001,1.072
		c0.204,0.494,0.306,1.17,0.306,2.028c0,1.118-0.253,1.972-0.76,2.561c-0.507,0.59-1.185,1.036-2.034,1.339l-0.546,0.195
		L206.877,276.502 M192.213,276.502c-0.139,0-0.208-0.069-0.208-0.208v-0.325c0-0.147,0.091-0.255,0.273-0.325l0.533-0.208
		c0.667-0.26,1.176-0.62,1.527-1.079s0.527-1.144,0.527-2.054c0-0.65-0.078-1.161-0.234-1.534c-0.156-0.373-0.414-0.641-0.773-0.806
		c-0.36-0.165-0.851-0.247-1.475-0.247h-0.442h-0.039l-1.014-0.013l-0.208-0.071l-0.078-0.202v-1.989l0.078-0.208l0.208-0.078h0.221
		l0.208,0.078l0.078,0.208v1.521h1.053c0.806,0,1.441,0.11,1.904,0.331c0.464,0.221,0.797,0.578,1.001,1.072
		c0.204,0.494,0.306,1.17,0.306,2.028c0,1.118-0.253,1.972-0.76,2.561c-0.507,0.59-1.185,1.036-2.034,1.339l-0.546,0.195
		L192.213,276.502 M174.079,276.502c-0.139,0-0.208-0.069-0.208-0.208v-0.325c0-0.147,0.091-0.255,0.273-0.325l0.533-0.208
		c0.667-0.26,1.176-0.62,1.527-1.079s0.527-1.144,0.527-2.054c0-0.65-0.078-1.161-0.234-1.534c-0.156-0.373-0.414-0.641-0.773-0.806
		c-0.36-0.165-0.852-0.247-1.476-0.247h-0.442h-0.039l-1.014-0.013l-0.208-0.071l-0.078-0.202v-1.989l0.078-0.208l0.208-0.078h0.221
		l0.208,0.078l0.078,0.208v1.521h1.053c0.806,0,1.441,0.11,1.905,0.331c0.464,0.221,0.797,0.578,1.001,1.072
		c0.203,0.494,0.305,1.17,0.305,2.028c0,1.118-0.253,1.972-0.76,2.561c-0.507,0.59-1.185,1.036-2.034,1.339l-0.546,0.195
		L174.079,276.502 M129.528,276.502c-0.139,0-0.208-0.069-0.208-0.208v-0.325c0-0.147,0.091-0.255,0.273-0.325l0.533-0.208
		c0.667-0.26,1.177-0.62,1.527-1.079c0.351-0.459,0.527-1.144,0.527-2.054c0-0.65-0.078-1.161-0.234-1.534
		c-0.156-0.373-0.414-0.641-0.773-0.806c-0.36-0.165-0.852-0.247-1.476-0.247h-0.442h-0.039l-1.014-0.013l-0.208-0.071l-0.078-0.202
		v-1.989l0.078-0.208l0.208-0.078h0.221l0.208,0.078l0.078,0.208v1.521h1.053c0.806,0,1.441,0.11,1.905,0.331
		c0.464,0.221,0.797,0.578,1.001,1.072c0.203,0.494,0.306,1.17,0.306,2.028c0,1.118-0.253,1.972-0.761,2.561
		c-0.507,0.59-1.185,1.036-2.034,1.339l-0.546,0.195L129.528,276.502 M122.599,276.502c-0.139,0-0.208-0.069-0.208-0.208v-0.325
		c0-0.147,0.091-0.255,0.273-0.325l0.533-0.208c0.667-0.26,1.176-0.62,1.528-1.079c0.351-0.459,0.527-1.144,0.527-2.054
		c0-0.65-0.078-1.161-0.234-1.534c-0.156-0.373-0.414-0.641-0.773-0.806c-0.36-0.165-0.852-0.247-1.476-0.247h-2.314l-0.208-0.078
		l-0.078-0.208v-0.182l0.078-0.208l0.208-0.078h2.379c0.806,0,1.441,0.11,1.904,0.331c0.464,0.221,0.797,0.578,1.001,1.072
		c0.203,0.494,0.305,1.17,0.305,2.028c0,1.118-0.253,1.972-0.76,2.561c-0.507,0.59-1.185,1.036-2.034,1.339l-0.546,0.195
		L122.599,276.502 M103.593,276.502c-0.139,0-0.208-0.069-0.208-0.208v-0.325c0-0.147,0.091-0.255,0.273-0.325l0.533-0.208
		c0.667-0.26,1.176-0.62,1.527-1.079c0.351-0.459,0.526-1.144,0.526-2.054c0-0.65-0.078-1.161-0.234-1.534
		c-0.156-0.373-0.414-0.641-0.773-0.806c-0.36-0.165-0.852-0.247-1.476-0.247h-0.442h-0.039l-1.014-0.013l-0.208-0.071l-0.078-0.202
		v-1.989l0.078-0.208l0.208-0.078h0.221l0.208,0.078l0.078,0.208v1.521h1.053c0.806,0,1.441,0.11,1.905,0.331
		c0.464,0.221,0.797,0.578,1.001,1.072c0.203,0.494,0.306,1.17,0.306,2.028c0,1.118-0.253,1.972-0.761,2.561
		c-0.507,0.59-1.185,1.036-2.034,1.339l-0.546,0.195L103.593,276.502 M96.846,276.502c-0.139,0-0.208-0.069-0.208-0.208v-0.325
		c0-0.147,0.091-0.255,0.273-0.325l0.533-0.208c0.667-0.26,1.176-0.62,1.527-1.079s0.527-1.144,0.527-2.054
		c0-0.65-0.078-1.161-0.234-1.534c-0.156-0.373-0.414-0.641-0.773-0.806c-0.36-0.165-0.852-0.247-1.475-0.247h-0.442h-0.039
		l-1.014-0.013l-0.208-0.071l-0.078-0.202v-1.989l0.078-0.208l0.208-0.078h0.221l0.208,0.078l0.078,0.208v1.521h1.053
		c0.806,0,1.441,0.11,1.904,0.331c0.464,0.221,0.797,0.578,1.001,1.072c0.204,0.494,0.306,1.17,0.306,2.028
		c0,1.118-0.253,1.972-0.76,2.561c-0.507,0.59-1.185,1.036-2.035,1.339l-0.546,0.195L96.846,276.502 M79.153,276.502
		c-0.148,0-0.221-0.069-0.221-0.208v-0.351c0-0.147,0.091-0.256,0.273-0.325c0.633-0.225,1.083-0.429,1.352-0.611
		c0.329-0.225,0.646-0.539,0.949-0.943c0.303-0.403,0.455-0.73,0.455-0.981l-0.195-1.014c-0.113-0.563-0.234-1.009-0.364-1.339
		c-0.13-0.329-0.301-0.581-0.513-0.754c-0.213-0.173-0.492-0.26-0.839-0.26H79.57l-0.208-0.078l-0.078-0.208v-0.182l0.078-0.208
		l0.208-0.078h0.481c0.503,0,0.914,0.113,1.235,0.338c0.321,0.226,0.576,0.557,0.767,0.995c0.19,0.438,0.359,1.008,0.507,1.709
		l0.793,4.095v0.039l-0.085,0.176l-0.201,0.071h-0.221c-0.148,0-0.243-0.095-0.286-0.286l-0.338-1.729
		c-0.165,0.277-0.353,0.535-0.566,0.773c-0.212,0.239-0.427,0.431-0.643,0.579c-0.312,0.217-0.607,0.384-0.884,0.5
		c-0.277,0.117-0.572,0.206-0.884,0.267L79.153,276.502 M71.083,276.451c-0.039,0-0.079,0-0.119-0.001h-0.871
		c-0.512,0-0.982-0.128-1.411-0.384c-0.429-0.255-0.769-0.622-1.021-1.098c-0.251-0.477-0.377-1.031-0.377-1.664v-4.056l0.078-0.208
		l0.208-0.078h0.221L68,269.04l0.078,0.208l0.052,3.887c0.884-0.06,1.504-0.279,1.859-0.656c0.355-0.377,0.533-0.865,0.533-1.462
		v-1.768l0.078-0.208l0.208-0.078h0.221l0.208,0.078l0.078,0.208v1.833c0,0.771-0.264,1.419-0.793,1.943
		c-0.529,0.525-1.309,0.813-2.34,0.865c0.095,0.572,0.346,1.014,0.754,1.326c0.407,0.312,0.914,0.468,1.521,0.468h0.455
		c0.029,0.001,0.057,0.001,0.086,0.001c0.834,0,1.477-0.25,1.929-0.748c0.468-0.516,0.702-1.211,0.702-2.086v-3.601l0.078-0.208
		l0.208-0.078h0.221l0.208,0.078l0.078,0.208v3.692c0,0.719-0.143,1.348-0.429,1.885c-0.286,0.537-0.689,0.947-1.209,1.229
		C72.294,276.319,71.727,276.452,71.083,276.451 M251.441,276.385h-0.221l-0.208-0.078l-0.078-0.208v-3.9
		c0-1.655-0.828-2.483-2.483-2.483h-1.742v6.383l-0.078,0.208l-0.208,0.078h-0.221l-0.208-0.078l-0.078-0.208v-6.851l0.078-0.208
		l0.208-0.078h2.314c1.083,0,1.889,0.271,2.418,0.813c0.529,0.542,0.793,1.328,0.793,2.359v3.965l-0.078,0.208L251.441,276.385
		 M243.446,276.385h-0.221l-0.208-0.078l-0.078-0.208v-6.851l0.078-0.208l0.208-0.078h0.221l0.208,0.078l0.078,0.208v6.851
		l-0.078,0.208L243.446,276.385 M225.805,276.385h-0.221l-0.208-0.078l-0.078-0.208v-4.914c0-0.338,0.032-0.637,0.097-0.897
		c0.065-0.26,0.15-0.451,0.253-0.572h-3.783l-0.208-0.078l-0.078-0.208v-0.182l0.078-0.208l0.208-0.078h5.486l0.208,0.078
		l0.078,0.208v0.182l-0.078,0.208l-0.208,0.078h-0.832c-0.139,0.121-0.245,0.319-0.318,0.592c-0.074,0.273-0.11,0.587-0.11,0.943
		v4.849l-0.078,0.208L225.805,276.385 M202.678,276.385h-5.2l-0.208-0.078l-0.078-0.208v-0.182l0.078-0.208l0.208-0.078h3.913
		v-3.432c0-1.655-0.828-2.483-2.483-2.483h-1.3l-0.208-0.078l-0.078-0.208v-0.182l0.078-0.208l0.208-0.078h1.365
		c1.083,0,1.889,0.273,2.418,0.819c0.529,0.546,0.793,1.33,0.793,2.353v3.497h0.494l0.208,0.078l0.078,0.208v0.182l-0.078,0.208
		L202.678,276.385 M188.664,276.385h-0.221l-0.208-0.078l-0.078-0.208v-3.9c0-1.655-0.828-2.483-2.483-2.483h-0.988
		c-0.087,0.624-0.15,1.127-0.188,1.508c-0.039,0.382-0.054,0.815-0.046,1.3v3.575l-0.078,0.208l-0.208,0.078l-1.482-0.026
		l-0.208-0.078l-0.078-0.208v-0.182l0.078-0.208l0.208-0.078l0.975,0.013v-3.029v-0.403c0-0.476,0.017-0.895,0.052-1.254
		c0.035-0.36,0.1-0.765,0.195-1.216h-0.663l-0.208-0.078l-0.078-0.208v-0.182l0.078-0.208l0.208-0.078h2.496
		c1.083,0,1.889,0.271,2.418,0.813c0.529,0.542,0.793,1.328,0.793,2.359v3.965l-0.078,0.208L188.664,276.385 M170.53,276.385h-3.289
		l-0.208-0.078l-0.078-0.208v-0.182l0.078-0.208l0.208-0.078h2.782v-3.432c0-0.476-0.085-0.905-0.253-1.287
		c-0.169-0.381-0.403-0.676-0.702-0.884c-0.299-0.208-0.635-0.312-1.008-0.312h-1.508l-0.962,6.37l-0.111,0.215l-0.214,0.084h-0.234
		l-0.182-0.084l-0.052-0.215l0.949-6.37h-0.585l-0.208-0.078l-0.078-0.208v-0.182l0.078-0.208l0.208-0.078h2.964
		c0.52,0,0.983,0.13,1.391,0.39c0.407,0.26,0.726,0.631,0.956,1.111c0.23,0.481,0.345,1.038,0.345,1.671v3.965l-0.078,0.208
		L170.53,276.385 M162.717,276.385h-0.221l-0.208-0.078l-0.078-0.208v-3.9c0-1.655-0.828-2.483-2.483-2.483h-1.742v6.383
		l-0.078,0.208l-0.208,0.078h-0.221l-0.208-0.078l-0.078-0.208v-6.851l0.078-0.208l0.208-0.078h2.314
		c1.083,0,1.889,0.271,2.418,0.813c0.529,0.542,0.793,1.328,0.793,2.359v3.965l-0.078,0.208L162.717,276.385 M152.031,276.385
		h-0.221l-0.208-0.078l-0.078-0.208v-3.9c0-1.655-0.828-2.483-2.483-2.483h-0.988c-0.087,0.624-0.15,1.127-0.188,1.508
		c-0.039,0.382-0.054,0.815-0.046,1.3v3.575l-0.078,0.208l-0.208,0.078l-1.482-0.026l-0.208-0.078l-0.078-0.208v-0.182l0.078-0.208
		l0.208-0.078l0.975,0.013v-3.029v-0.403c0-0.476,0.017-0.895,0.052-1.254c0.035-0.36,0.1-0.765,0.195-1.216h-0.663l-0.208-0.078
		l-0.078-0.208v-0.182l0.078-0.208l0.208-0.078h2.496c1.083,0,1.889,0.271,2.418,0.813c0.529,0.542,0.793,1.328,0.793,2.359v3.965
		l-0.078,0.208L152.031,276.385 M140.37,276.385h-0.221l-0.208-0.078l-0.078-0.208v-3.9c0-1.655-0.828-2.483-2.483-2.483h-1.742
		v6.383l-0.078,0.208l-0.208,0.078h-0.221l-0.208-0.078l-0.078-0.208v-6.851l0.078-0.208l0.208-0.078h2.314
		c1.083,0,1.889,0.271,2.418,0.813c0.529,0.542,0.793,1.328,0.793,2.359v3.965l-0.078,0.208L140.37,276.385 M117.776,276.385h-0.221
		l-0.208-0.078l-0.078-0.208v-3.9c0-1.655-0.828-2.483-2.483-2.483h-2.236l-0.208-0.078l-0.078-0.208v-0.182l0.078-0.208
		l0.208-0.078h2.301c1.083,0,1.889,0.271,2.418,0.813c0.529,0.542,0.793,1.328,0.793,2.359v3.965l-0.078,0.208L117.776,276.385
		 M112.771,276.385h-0.221l-0.208-0.078l-0.078-0.208v-4.563l0.078-0.208l0.208-0.078h0.221l0.208,0.078l0.078,0.208v4.563
		l-0.078,0.208L112.771,276.385 M93.337,276.385h-0.247l-0.175-0.045l-0.15-0.15l-3.211-4.472c-0.425,0.303-0.713,0.654-0.864,1.053
		c-0.152,0.399-0.228,0.841-0.228,1.326v2.002l-0.078,0.208l-0.208,0.078h-0.221l-0.208-0.078l-0.078-0.208v-2.067
		c0-0.615,0.098-1.164,0.292-1.645c0.195-0.481,0.579-0.908,1.151-1.28l-1.157-1.625c-0.07-0.104-0.104-0.19-0.104-0.26l0.078-0.182
		l0.182-0.078h0.247c0.121,0,0.23,0.065,0.325,0.195l2.938,4.095c0.364-0.199,0.628-0.405,0.793-0.617
		c0.165-0.212,0.267-0.427,0.306-0.644c0.039-0.216,0.059-0.507,0.059-0.871v-1.872l0.078-0.208l0.208-0.078h0.221l0.208,0.078
		l0.078,0.208v1.937c0,0.399-0.035,0.743-0.104,1.033c-0.069,0.29-0.214,0.572-0.435,0.845c-0.221,0.273-0.548,0.535-0.982,0.786
		l1.443,2.015c0.069,0.104,0.104,0.191,0.104,0.26l-0.078,0.182L93.337,276.385 M76.905,276.385h-0.221l-0.208-0.078l-0.078-0.208
		v-6.851l0.078-0.208l0.208-0.078h0.221l0.208,0.078l0.078,0.208v6.851l-0.078,0.208L76.905,276.385 M62.254,276.385h-5.226
		l-0.208-0.078l-0.078-0.208v-6.851l0.078-0.208l0.208-0.078h2.301c1.083,0,1.889,0.271,2.418,0.813
		c0.529,0.542,0.793,1.328,0.793,2.359v3.965l-0.078,0.208L62.254,276.385 M57.522,269.716v5.915h4.225v-3.432
		c0-1.655-0.828-2.483-2.483-2.483H57.522 M154.826,273.395h-0.221l-0.208-0.078l-0.078-0.208v-3.861l0.078-0.208l0.208-0.078h0.221
		l0.208,0.078l0.078,0.208v3.861l-0.078,0.208L154.826,273.395 M65.049,273.395h-0.221l-0.208-0.078l-0.078-0.208v-3.861
		l0.078-0.208l0.208-0.078h0.221l0.208,0.078l0.078,0.208v3.861l-0.078,0.208L65.049,273.395"/>
	<path fill="#000000" d="M280.383,299.097c-0.72,0-1.341-0.121-1.866-0.364c-0.525-0.243-0.921-0.563-1.189-0.962
		c-0.269-0.398-0.412-0.827-0.429-1.287v-0.026l0.085-0.176l0.188-0.072h1.235c0.199,0,0.325,0.087,0.377,0.26
		c0.121,0.382,0.323,0.663,0.604,0.845c0.282,0.182,0.613,0.273,0.995,0.273c0.485,0,0.886-0.147,1.202-0.442
		c0.316-0.294,0.474-0.702,0.474-1.222c0-0.468-0.158-0.847-0.474-1.137c-0.316-0.29-0.717-0.436-1.202-0.436
		c-0.26,0-0.472,0.035-0.637,0.104c-0.165,0.069-0.325,0.165-0.481,0.286l-0.117,0.078l-0.162,0.091l-0.15,0.026h-1.222
		l-0.202-0.084l-0.084-0.202l0.442-4.433c0.009-0.112,0.05-0.201,0.123-0.266c0.074-0.065,0.163-0.098,0.266-0.098h4.888
		c0.095,0,0.171,0.028,0.228,0.084c0.056,0.056,0.084,0.132,0.084,0.228v0.884l-0.084,0.221c-0.056,0.061-0.132,0.091-0.228,0.091
		h-3.757l-0.208,2.106c0.199-0.13,0.429-0.236,0.689-0.318c0.26-0.082,0.598-0.124,1.014-0.124c0.563,0,1.086,0.119,1.567,0.358
		c0.481,0.238,0.867,0.581,1.157,1.027c0.29,0.446,0.436,0.964,0.436,1.553c0,0.633-0.148,1.185-0.442,1.658
		c-0.295,0.472-0.711,0.836-1.248,1.092C281.717,298.969,281.093,299.097,280.383,299.097"/>
	<path fill="#000000" d="M191.616,300.566h-0.221l-0.208-0.078l-0.078-0.208v-8.463l0.078-0.208l0.208-0.078h0.221l0.208,0.078
		l0.078,0.208v8.463l-0.078,0.208L191.616,300.566 M221.918,299.695l-0.176-0.065l-0.072-0.156v-0.169
		c0-0.199,0.061-0.321,0.182-0.364l1.781-0.65l-1.729-6.24c-0.043-0.147-0.065-0.234-0.065-0.26l0.078-0.182l0.182-0.078h0.234
		l0.195,0.059l0.104,0.136l1.781,6.279l0.13-0.052c0.71-0.26,1.209-0.633,1.495-1.118c0.286-0.485,0.429-1.075,0.429-1.768v-3.25
		l0.078-0.208l0.208-0.078h0.221l0.208,0.078l0.078,0.208v3.51c0,0.728-0.234,1.404-0.702,2.028
		c-0.468,0.624-1.088,1.075-1.859,1.352l-2.665,0.962L221.918,299.695 M254.925,299.071c-0.148,0-0.221-0.07-0.221-0.208v-0.351
		c0-0.147,0.091-0.256,0.273-0.325c0.632-0.225,1.083-0.429,1.352-0.611c0.329-0.225,0.646-0.54,0.949-0.943
		c0.303-0.403,0.455-0.73,0.455-0.982l-0.195-1.014c-0.113-0.563-0.234-1.01-0.364-1.339c-0.13-0.329-0.301-0.581-0.514-0.754
		c-0.213-0.173-0.492-0.26-0.838-0.26h-0.481l-0.208-0.078l-0.078-0.208v-0.182l0.078-0.208l0.208-0.078h0.481
		c0.502,0,0.914,0.113,1.235,0.338c0.321,0.226,0.576,0.557,0.767,0.995c0.19,0.438,0.359,1.007,0.507,1.709l0.793,4.095v0.039
		l-0.085,0.176l-0.201,0.072h-0.221c-0.147,0-0.243-0.095-0.286-0.286l-0.338-1.729c-0.165,0.278-0.353,0.535-0.565,0.774
		c-0.213,0.238-0.427,0.431-0.644,0.579c-0.312,0.217-0.607,0.383-0.884,0.5c-0.278,0.117-0.572,0.206-0.884,0.266L254.925,299.071
		 M247.062,299.021c-0.039,0-0.079-0.001-0.119-0.001h-0.871c-0.512,0-0.981-0.128-1.41-0.384c-0.429-0.256-0.769-0.622-1.021-1.099
		c-0.251-0.476-0.377-1.031-0.377-1.664v-4.056l0.078-0.208l0.208-0.078h0.221l0.208,0.078l0.078,0.208l0.052,3.887
		c0.884-0.06,1.504-0.279,1.859-0.657c0.355-0.377,0.533-0.864,0.533-1.462v-1.768l0.078-0.208l0.208-0.078h0.221l0.208,0.078
		l0.078,0.208v1.833c0,0.771-0.264,1.419-0.793,1.944c-0.529,0.525-1.309,0.813-2.34,0.865c0.095,0.572,0.346,1.014,0.754,1.326
		c0.407,0.312,0.914,0.468,1.521,0.468h0.455c0.029,0.001,0.057,0.001,0.086,0.001c0.834,0,1.477-0.25,1.93-0.748
		c0.468-0.516,0.702-1.211,0.702-2.087v-3.601l0.078-0.208l0.208-0.078h0.221l0.208,0.078l0.078,0.208v3.692
		c0,0.72-0.143,1.348-0.429,1.885c-0.286,0.537-0.689,0.947-1.209,1.229C248.273,298.888,247.706,299.021,247.062,299.021
		 M205.567,299.021c-0.039,0-0.079-0.001-0.119-0.001h-0.871c-0.512,0-0.982-0.128-1.411-0.384
		c-0.429-0.256-0.769-0.622-1.021-1.099c-0.251-0.476-0.377-1.031-0.377-1.664v-4.056l0.078-0.208l0.208-0.078h0.221l0.208,0.078
		l0.078,0.208l0.052,3.887c0.884-0.06,1.504-0.279,1.859-0.657c0.355-0.377,0.533-0.864,0.533-1.462v-1.768l0.078-0.208l0.208-0.078
		h0.221l0.208,0.078l0.078,0.208v1.833c0,0.771-0.264,1.419-0.793,1.944c-0.529,0.525-1.309,0.813-2.34,0.865
		c0.095,0.572,0.346,1.014,0.754,1.326c0.407,0.312,0.914,0.468,1.521,0.468h0.455c0.029,0.001,0.057,0.001,0.086,0.001
		c0.834,0,1.477-0.25,1.93-0.748c0.468-0.516,0.702-1.211,0.702-2.087v-3.601l0.078-0.208l0.208-0.078h0.221l0.208,0.078
		l0.078,0.208v3.692c0,0.72-0.143,1.348-0.429,1.885c-0.286,0.537-0.689,0.947-1.209,1.229
		C206.778,298.888,206.211,299.021,205.567,299.021 M266.157,298.954h-3.289l-0.208-0.078l-0.078-0.208v-0.182l0.078-0.208
		l0.208-0.078h2.782v-3.432c0-0.476-0.085-0.905-0.253-1.287c-0.169-0.381-0.403-0.676-0.702-0.884s-0.635-0.312-1.008-0.312h-1.508
		l-0.962,6.37l-0.111,0.214l-0.215,0.085h-0.234l-0.182-0.085l-0.052-0.214l0.949-6.37h-0.585l-0.208-0.078l-0.078-0.208v-0.182
		l0.078-0.208l0.208-0.078h2.964c0.52,0,0.984,0.13,1.391,0.39c0.407,0.26,0.726,0.63,0.956,1.111
		c0.23,0.481,0.344,1.038,0.344,1.671v3.965l-0.078,0.208L266.157,298.954 M238.233,298.954h-5.226l-0.208-0.078l-0.078-0.208
		v-6.851l0.078-0.208l0.208-0.078h2.301c1.083,0,1.889,0.271,2.418,0.813c0.529,0.542,0.793,1.328,0.793,2.36v3.965l-0.078,0.208
		L238.233,298.954 M233.501,292.285v5.915h4.225v-3.432c0-1.655-0.828-2.483-2.483-2.483H233.501 M219.747,298.954h-5.226
		l-0.208-0.078l-0.078-0.208v-6.851l0.078-0.208l0.208-0.078h2.301c1.083,0,1.889,0.271,2.418,0.813
		c0.529,0.542,0.793,1.328,0.793,2.36v3.965l-0.078,0.208L219.747,298.954 M215.015,292.285v5.915h4.225v-3.432
		c0-1.655-0.828-2.483-2.483-2.483H215.015 M199.506,298.954h-3.289l-0.208-0.078l-0.078-0.208v-0.182l0.078-0.208l0.208-0.078
		h2.782v-3.432c0-0.476-0.084-0.905-0.253-1.287c-0.169-0.381-0.403-0.676-0.702-0.884c-0.299-0.208-0.635-0.312-1.007-0.312h-1.508
		l-0.962,6.37l-0.11,0.214l-0.215,0.085h-0.234l-0.182-0.085l-0.052-0.214l0.949-6.37h-0.585l-0.208-0.078l-0.078-0.208v-0.182
		l0.078-0.208l0.208-0.078h2.964c0.52,0,0.983,0.13,1.391,0.39c0.407,0.26,0.726,0.63,0.955,1.111
		c0.23,0.481,0.345,1.038,0.345,1.671v3.965l-0.078,0.208L199.506,298.954 M184.349,298.954h-0.221l-0.208-0.078l-0.078-0.208
		v-4.914c0-0.338,0.033-0.637,0.098-0.897c0.065-0.26,0.15-0.451,0.253-0.572h-1.183l-0.208-0.078l-0.078-0.208v-0.182l0.078-0.208
		l0.208-0.078h2.886l0.208,0.078l0.078,0.208v0.182l-0.078,0.208l-0.208,0.078h-0.832c-0.139,0.121-0.245,0.319-0.319,0.592
		c-0.074,0.273-0.11,0.587-0.11,0.943v4.849l-0.078,0.208L184.349,298.954 M177.875,298.954h-0.221l-0.208-0.078l-0.078-0.208v-3.9
		c0-1.655-0.828-2.483-2.483-2.483h-0.988c-0.087,0.624-0.15,1.127-0.188,1.508c-0.039,0.382-0.054,0.815-0.045,1.3v3.575
		l-0.078,0.208l-0.208,0.078l-1.482-0.026l-0.208-0.078l-0.078-0.208v-0.182l0.078-0.208l0.208-0.078l0.975,0.013v-3.029v-0.403
		c0-0.477,0.017-0.895,0.052-1.254c0.035-0.36,0.1-0.765,0.195-1.216h-0.663l-0.208-0.078l-0.078-0.208v-0.182l0.078-0.208
		l0.208-0.078h2.496c1.083,0,1.889,0.271,2.418,0.813c0.529,0.542,0.793,1.328,0.793,2.36v3.965l-0.078,0.208L177.875,298.954
		 M166.136,298.954h-0.221l-0.208-0.078l-0.078-0.208v-6.851l0.078-0.208l0.208-0.078h0.221l0.208,0.078l0.078,0.208v6.851
		l-0.078,0.208L166.136,298.954 M163.237,298.954h-0.221l-0.208-0.078l-0.078-0.208v-3.9c0-1.655-0.828-2.483-2.483-2.483h-1.742
		v6.383l-0.078,0.208l-0.208,0.078h-0.221l-0.208-0.078l-0.078-0.208v-6.851l0.078-0.208l0.208-0.078h2.314
		c1.083,0,1.889,0.271,2.418,0.813c0.529,0.542,0.793,1.328,0.793,2.36v3.965l-0.078,0.208L163.237,298.954 M155.32,298.954h-3.289
		l-0.208-0.078l-0.078-0.208v-0.182l0.078-0.208l0.208-0.078h2.782v-3.432c0-0.476-0.084-0.905-0.253-1.287
		c-0.169-0.381-0.403-0.676-0.702-0.884c-0.299-0.208-0.635-0.312-1.007-0.312h-1.508l-0.962,6.37l-0.11,0.214l-0.215,0.085h-0.234
		l-0.182-0.085l-0.052-0.214l0.949-6.37h-0.585l-0.208-0.078l-0.078-0.208v-0.182l0.078-0.208l0.208-0.078h2.964
		c0.52,0,0.983,0.13,1.391,0.39c0.407,0.26,0.726,0.63,0.956,1.111c0.23,0.481,0.345,1.038,0.345,1.671v3.965l-0.078,0.208
		L155.32,298.954 M147.43,298.954h-0.221L147,298.876l-0.078-0.208v-6.851l0.078-0.208l0.208-0.078h0.221l0.208,0.078l0.078,0.208
		v6.851l-0.078,0.208L147.43,298.954 M144.674,298.954h-4.485l-0.208-0.078l-0.078-0.208v-0.182l0.078-0.208l0.208-0.078h3.705
		l-4.173-6.149c-0.069-0.104-0.104-0.191-0.104-0.26l0.085-0.182l0.188-0.078h0.234c0.13,0,0.238,0.07,0.325,0.208l2.496,3.627
		c0.849-0.321,1.274-1.083,1.274-2.288v-1.261l0.078-0.208l0.208-0.078h0.221l0.208,0.078l0.078,0.208v1.326
		c0,0.702-0.141,1.289-0.423,1.761c-0.282,0.472-0.695,0.821-1.242,1.047l1.469,2.145c0.095,0.139,0.143,0.269,0.143,0.39v0.182
		l-0.078,0.208L144.674,298.954 M135.119,298.954h-5.226l-0.208-0.078l-0.078-0.208v-6.851l0.078-0.208l0.208-0.078h2.301
		c1.083,0,1.889,0.271,2.418,0.813c0.529,0.542,0.793,1.328,0.793,2.36v3.965l-0.078,0.208L135.119,298.954 M130.387,292.285v5.915
		h4.225v-3.432c0-1.655-0.828-2.483-2.483-2.483H130.387 M252.78,295.964h-0.221l-0.208-0.078l-0.078-0.208v-3.861l0.078-0.208
		l0.208-0.078h0.221l0.208,0.078l0.078,0.208v3.861l-0.078,0.208L252.78,295.964 M241.028,295.964h-0.221l-0.208-0.078l-0.078-0.208
		v-3.861l0.078-0.208l0.208-0.078h0.221l0.208,0.078l0.078,0.208v3.861l-0.078,0.208L241.028,295.964 M180.67,295.964h-0.221
		l-0.208-0.078l-0.078-0.208v-3.861l0.078-0.208l0.208-0.078h0.221l0.208,0.078l0.078,0.208v3.861l-0.078,0.208L180.67,295.964
		 M137.914,295.964h-0.221l-0.208-0.078l-0.078-0.208v-3.861l0.078-0.208l0.208-0.078h0.221l0.208,0.078l0.078,0.208v3.861
		l-0.078,0.208L137.914,295.964"/>
</g>
</svg>
