<!-- Generator: Adobe InDesign 14.0 SVG Export Plug-in, SVG Library version: 6.0 build 234 -->
<!DOCTYPE svg PUBLIC "-//W3C//DTD SVG 1.1//EN" "http://www.w3.org/Graphics/SVG/1.1/DTD/svg11.dtd">
<svg version="1.1" xmlns="http://www.w3.org/2000/svg" xmlns:xlink="http://www.w3.org/1999/xlink" x="0%" y="0%" width="100%"
	 height="100%" viewBox="0 0 313.376 534.346" preserveAspectRatio="xMidYMid slice" overflow="visible" xml:space="preserve">
<clipPath id="clp_unq_id_1" fill="none">
	<path shape-rendering="crispEdges" stroke="#000000" d="M0,0h313.376v534.346H0V0"/>
</clipPath>
<g clip-path="url(#clp_unq_id_1)" fill="none">
	<path fill="#FF5C35" d="M202.05,12.016h-4.392h-2.568v13.488h0.6h7.872h2.568v-9c0-1.552-0.36-2.688-1.08-3.408
		S203.33,12.016,202.05,12.016z M197.658,23.536v-9.552h3.744c0.704,0,1.24,0.188,1.608,0.564c0.368,0.376,0.552,0.988,0.552,1.836
		v7.152H197.658z M209.25,25.504h2.568v-10.68l-0.312-2.808h-2.544l0.288,2.808V25.504z M214.05,25.888
		c1.648-0.16,2.84-0.6,3.576-1.32c0.736-0.72,1.104-1.872,1.104-3.456v-7.128h3.264c0.704,0,1.24,0.188,1.608,0.564
		c0.368,0.376,0.552,0.988,0.552,1.836v9.12h2.568v-9c0-1.552-0.36-2.688-1.08-3.408s-1.72-1.08-3-1.08h-6.48V21.4
		c0,0.896-0.16,1.544-0.48,1.944c-0.32,0.4-0.944,0.648-1.872,0.744L214.05,25.888z M229.073,25.504h4.08
		c1.712,0,3.028-0.528,3.948-1.584c0.92-1.056,1.38-2.544,1.38-4.464v-1.392c0-1.92-0.46-3.408-1.38-4.464
		c-0.92-1.056-2.236-1.584-3.948-1.584h-4.08v1.968h3.456c1.136,0,1.984,0.344,2.544,1.032c0.56,0.688,0.84,1.664,0.84,2.928v1.632
		c0,1.264-0.28,2.24-0.84,2.928c-0.56,0.688-1.408,1.032-2.544,1.032h-3.456V25.504z M250.217,25.528
		c2-0.064,3.528-0.744,4.584-2.04c1.056-1.296,1.64-3.12,1.752-5.472l0.336-4.272l0.096-1.728h-11.256v1.968h8.496l-0.36,4.632
		c-0.08,1.216-0.284,2.172-0.612,2.868c-0.328,0.696-0.76,1.192-1.296,1.488c-0.536,0.296-1.196,0.484-1.98,0.564L250.217,25.528z
		 M245.681,30.304h2.568v-13.2h-2.208l-0.36,1.632V30.304z M265.481,25.504h2.568v-9c0-1.552-0.36-2.688-1.08-3.408
		s-1.72-1.08-3-1.08h-5.088v1.968h4.44c0.704,0,1.24,0.188,1.608,0.564c0.368,0.376,0.552,0.988,0.552,1.836V25.504z
		 M283.385,18.712c0-2.368-0.448-4.108-1.344-5.22c-0.896-1.112-2.144-1.668-3.744-1.668c-0.88,0-1.664,0.252-2.352,0.756
		c-0.688,0.504-1.2,1.26-1.536,2.268l-1.08-2.832h-2.664l1.872,4.2l-1.728,9.288h2.568l1.608-9.192
		c0.16-0.736,0.484-1.324,0.972-1.764c0.488-0.44,1.116-0.66,1.884-0.66c0.992,0,1.756,0.38,2.292,1.14
		c0.536,0.76,0.804,2.012,0.804,3.756c0,1.632-0.28,2.872-0.84,3.72c-0.56,0.848-1.448,1.272-2.664,1.272
		c-0.432,0-0.952-0.064-1.56-0.192l-0.264,1.968c0.704,0.16,1.392,0.24,2.064,0.24c1.824,0,3.232-0.62,4.224-1.86
		C282.889,22.692,283.385,20.952,283.385,18.712z"/>
	<path fill="#000000" d="M283.23,56.577h-0.546l-0.214-0.085l-0.085-0.215v-3.887c0-1.491-0.745-2.236-2.236-2.236h-1.586v6.123
		l-0.085,0.215l-0.214,0.085h-0.546l-0.214-0.085l-0.085-0.215v-6.825c0-0.095,0.028-0.169,0.085-0.221l0.214-0.078h2.496
		c1.118,0,1.95,0.266,2.496,0.8c0.546,0.533,0.819,1.332,0.819,2.398v3.926l-0.085,0.215L283.23,56.577 M275.105,56.577h-0.572
		l-0.215-0.085l-0.084-0.215v-6.825c0-0.095,0.028-0.169,0.084-0.221l0.215-0.078h0.572l0.214,0.085l0.085,0.214v6.825l-0.085,0.215
		L275.105,56.577 M271.985,56.577h-3.354l-0.208-0.085l-0.078-0.215v-0.416l0.078-0.214l0.208-0.085h2.509v-3.159
		c0-0.659-0.167-1.194-0.5-1.605c-0.334-0.412-0.756-0.618-1.268-0.618h-1.378l-1.001,6.084l-0.111,0.221l-0.215,0.091h-0.546
		l-0.201-0.091l-0.058-0.221l1.04-6.084h-0.663l-0.214-0.084l-0.085-0.215v-0.429l0.085-0.214l0.214-0.085h3.263
		c0.537,0,1.016,0.128,1.437,0.384c0.42,0.256,0.749,0.622,0.988,1.099c0.238,0.477,0.357,1.04,0.357,1.69v3.952l-0.084,0.215
		L271.985,56.577 M263.912,56.577h-0.546l-0.214-0.085l-0.085-0.215v-3.887c0-1.491-0.746-2.236-2.236-2.236h-1.677l-0.215-0.078
		l-0.085-0.208v-0.416l0.085-0.214l0.215-0.085h1.755c2.201,0,3.302,1.057,3.302,3.172v3.952l-0.085,0.215L263.912,56.577
		 M253.902,56.577h-5.447l-0.214-0.085l-0.085-0.215v-6.825c0-0.095,0.028-0.169,0.085-0.221l0.214-0.078h2.457
		c1.109,0,1.935,0.264,2.476,0.793c0.541,0.529,0.813,1.322,0.813,2.379v3.952l-0.085,0.215L253.902,56.577 M249.235,50.155v5.408
		h3.848v-3.172c0-1.491-0.745-2.236-2.236-2.236H249.235 M245.92,56.577h-0.897l-0.208-0.085l-0.078-0.215v-0.871
		c0-0.095,0.026-0.171,0.078-0.228l0.208-0.084h0.897c0.095,0,0.171,0.028,0.228,0.084c0.056,0.057,0.085,0.132,0.085,0.228v0.871
		l-0.091,0.215L245.92,56.577 M256.931,53.561h-0.572l-0.215-0.085l-0.085-0.214v-3.809c0-0.095,0.028-0.169,0.085-0.221
		l0.215-0.078h0.572l0.214,0.085l0.085,0.214v3.809l-0.085,0.214L256.931,53.561 M245.92,52.027h-0.897l-0.208-0.084l-0.078-0.215
		v-0.871c0-0.095,0.026-0.171,0.078-0.228l0.208-0.084h0.897c0.095,0,0.171,0.028,0.228,0.084c0.056,0.056,0.085,0.132,0.085,0.228
		v0.871l-0.091,0.215L245.92,52.027"/>
	<path fill="#000000" d="M265.433,75.96H264.9l-0.215-0.078c-0.056-0.052-0.084-0.126-0.084-0.221V68.81l0.084-0.215l0.215-0.084
		h0.533l0.215,0.084l0.085,0.215v6.851l-0.085,0.215L265.433,75.96 M229.891,74.205l-0.182-0.065l-0.078-0.169v-0.403
		c0-0.199,0.069-0.321,0.208-0.364l1.703-0.572l-1.69-6.058c-0.043-0.147-0.065-0.234-0.065-0.26l0.078-0.182l0.182-0.078h0.598
		l0.195,0.058l0.104,0.137l1.664,6.032c0.684-0.243,1.163-0.585,1.436-1.027c0.273-0.442,0.41-0.996,0.41-1.664v-3.237l0.084-0.214
		l0.215-0.085h0.546c0.095,0,0.169,0.026,0.221,0.078c0.052,0.052,0.078,0.126,0.078,0.221v3.588c0,0.763-0.251,1.45-0.754,2.06
		c-0.503,0.611-1.174,1.042-2.015,1.294l-2.834,0.897L229.891,74.205 M267.279,73.607l-0.162-0.065l-0.072-0.182v-0.572
		c0-0.156,0.095-0.273,0.286-0.351l0.507-0.195c0.598-0.225,1.057-0.55,1.378-0.975c0.321-0.425,0.481-1.049,0.481-1.872
		c0-0.581-0.069-1.038-0.208-1.372c-0.139-0.333-0.366-0.574-0.682-0.721c-0.316-0.147-0.752-0.221-1.306-0.221h-2.6l-0.215-0.085
		l-0.084-0.215V66.34l0.084-0.208l0.215-0.078h2.756c0.797,0,1.428,0.113,1.891,0.338c0.464,0.225,0.8,0.585,1.008,1.079
		c0.208,0.494,0.312,1.153,0.312,1.976c0,1.109-0.273,1.974-0.819,2.593c-0.546,0.62-1.257,1.077-2.132,1.372l-0.546,0.182
		L267.279,73.607 M239.043,73.607l-0.163-0.065l-0.071-0.182v-0.572c0-0.156,0.095-0.273,0.286-0.351l0.507-0.195
		c0.598-0.225,1.057-0.55,1.378-0.975c0.321-0.425,0.481-1.049,0.481-1.872c0-0.581-0.069-1.038-0.208-1.372
		c-0.139-0.333-0.366-0.574-0.682-0.721c-0.316-0.147-0.752-0.221-1.307-0.221h-0.403h-0.039l-1.196-0.013l-0.214-0.078
		l-0.085-0.208v-2.236l0.085-0.215l0.214-0.084h0.52l0.208,0.084l0.078,0.215v1.508h1.001c0.788,0,1.415,0.113,1.879,0.338
		c0.464,0.225,0.799,0.585,1.007,1.079s0.312,1.153,0.312,1.976c0,1.109-0.273,1.974-0.819,2.593
		c-0.546,0.62-1.257,1.077-2.132,1.372l-0.546,0.182L239.043,73.607 M254.383,73.594c-0.148,0-0.221-0.069-0.221-0.208v-0.611
		c0-0.147,0.091-0.256,0.273-0.325c0.026-0.009,0.197-0.067,0.513-0.176c0.316-0.108,0.6-0.245,0.852-0.409
		c0.26-0.165,0.516-0.392,0.767-0.682c0.251-0.29,0.429-0.566,0.533-0.825l-0.234-1.17c-0.104-0.511-0.215-0.916-0.331-1.215
		c-0.117-0.299-0.275-0.527-0.475-0.683c-0.199-0.156-0.459-0.234-0.78-0.234h-0.481l-0.215-0.078l-0.084-0.208v-0.442l0.084-0.215
		l0.215-0.084h0.481c0.554,0,1.01,0.113,1.365,0.338c0.355,0.226,0.639,0.561,0.851,1.008c0.212,0.447,0.392,1.029,0.539,1.748
		l0.78,4.056v0.052l-0.084,0.176l-0.202,0.072h-0.572c-0.165,0-0.264-0.1-0.299-0.299l-0.299-1.521
		c-0.321,0.494-0.689,0.88-1.105,1.157c-0.321,0.217-0.62,0.384-0.897,0.501c-0.278,0.117-0.572,0.206-0.884,0.266L254.383,73.594
		 M283.399,73.477h-3.081l-0.208-0.078l-0.078-0.208v-0.273l0.065-0.202c0.043-0.065,0.125-0.145,0.247-0.24l0.598-0.429
		c0.459-0.321,0.793-0.565,1.001-0.734c0.208-0.169,0.366-0.332,0.474-0.488c0.108-0.156,0.163-0.325,0.163-0.507
		c0-0.199-0.071-0.357-0.215-0.474c-0.143-0.117-0.319-0.176-0.527-0.176c-0.191,0-0.34,0.031-0.448,0.091
		c-0.108,0.061-0.178,0.115-0.208,0.163c-0.03,0.048-0.076,0.132-0.137,0.253c-0.052,0.096-0.1,0.158-0.143,0.188l-0.169,0.045
		h-0.351c-0.156,0-0.234-0.073-0.234-0.221c0-0.225,0.078-0.44,0.234-0.643c0.156-0.204,0.362-0.368,0.617-0.494
		c0.256-0.126,0.535-0.188,0.838-0.188c0.494,0,0.893,0.141,1.196,0.422c0.303,0.282,0.455,0.622,0.455,1.021
		c0,0.304-0.067,0.57-0.201,0.8c-0.135,0.23-0.334,0.455-0.598,0.676c-0.264,0.221-0.652,0.509-1.164,0.865h1.872l0.208,0.078
		l0.078,0.208v0.26l-0.078,0.208L283.399,73.477 M275.937,73.477h-0.351l-0.188-0.072l-0.071-0.188l0.052-0.143l6.409-8.45
		c0.069-0.095,0.132-0.16,0.189-0.195c0.056-0.035,0.136-0.052,0.241-0.052h0.351l0.195,0.072l0.078,0.188l-0.052,0.143l-6.422,8.45
		l-0.188,0.188C276.121,73.458,276.041,73.477,275.937,73.477 M248.195,73.477h-0.546l-0.208-0.078l-0.078-0.208v-4.667
		c0-0.355,0.03-0.659,0.091-0.91c0.061-0.251,0.143-0.438,0.247-0.559h-3.588l-0.214-0.078l-0.085-0.208v-0.416l0.085-0.214
		l0.214-0.085h5.564c0.095,0,0.169,0.026,0.221,0.078c0.052,0.052,0.078,0.126,0.078,0.221v0.416l-0.085,0.208l-0.215,0.078h-0.767
		c-0.121,0.13-0.219,0.334-0.293,0.611c-0.074,0.277-0.11,0.589-0.11,0.936v4.589l-0.091,0.208L248.195,73.477 M227.812,73.477
		h-0.546l-0.214-0.085l-0.085-0.215v-3.887c0-1.491-0.745-2.236-2.236-2.236h-0.936c-0.087,0.546-0.149,0.999-0.188,1.359
		c-0.039,0.36-0.054,0.769-0.045,1.229l0.026,3.536l-0.084,0.215l-0.215,0.085l-1.807-0.026l-0.215-0.084l-0.084-0.215v-0.39
		l0.084-0.215l0.215-0.085l1.001,0.013v-2.782c-0.009-0.546,0.002-1.007,0.033-1.384c0.03-0.377,0.102-0.795,0.214-1.254h-0.702
		l-0.214-0.078l-0.085-0.208v-0.416c0-0.095,0.028-0.169,0.085-0.221l0.214-0.078h2.782c2.201,0,3.302,1.057,3.302,3.172v3.952
		l-0.085,0.215L227.812,73.477 M277.146,68.927h-0.351l-0.208-0.078l-0.078-0.208v-3.12l-0.78,0.585l-0.169,0.052l-0.234-0.117
		l-0.156-0.208l-0.065-0.182l0.117-0.221l1.287-0.962c0.087-0.061,0.186-0.091,0.299-0.091h0.338l0.208,0.078l0.078,0.208v3.978
		l-0.078,0.208L277.146,68.927 M262.365,67.094h-0.377c-0.156,0-0.243-0.095-0.26-0.286l-0.221-2.262V64.52l0.072-0.201l0.188-0.071
		h0.819l0.201,0.084l0.058,0.215l-0.221,2.262C262.608,66.999,262.521,67.094,262.365,67.094 M260.376,67.094h-0.377
		c-0.156,0-0.243-0.095-0.26-0.286l-0.221-2.262v-0.052l0.071-0.182l0.188-0.065h0.819l0.201,0.084l0.058,0.215l-0.221,2.262
		C260.619,66.999,260.532,67.094,260.376,67.094"/>
	<path fill="#000000" d="M273.57,90.507c-1.135,0-1.963-0.271-2.483-0.813s-0.78-1.333-0.78-2.373v-4.069
		c0-0.095,0.028-0.169,0.085-0.221l0.214-0.078h0.494c0.095,0,0.169,0.026,0.221,0.078c0.052,0.052,0.078,0.126,0.078,0.221v4.004
		c0,0.719,0.18,1.27,0.539,1.651c0.36,0.382,0.904,0.572,1.632,0.572c0.719,0,1.25-0.175,1.592-0.527
		c0.342-0.351,0.522-0.882,0.539-1.593v-0.403v-0.936c-0.018-0.71-0.169-1.239-0.455-1.586c-0.286-0.346-0.676-0.52-1.17-0.52
		c-0.156,0-0.329,0.028-0.52,0.084c-0.191,0.057-0.356,0.128-0.494,0.215l-0.13,0.039l-0.163-0.071L272.7,84.02v-0.377
		c0-0.104,0.009-0.186,0.026-0.247l0.143-0.156c0.182-0.121,0.375-0.21,0.579-0.266c0.203-0.056,0.462-0.085,0.773-0.085
		c0.841,0,1.48,0.245,1.918,0.735c0.437,0.49,0.67,1.246,0.695,2.269c0.009,0.087,0.013,0.342,0.013,0.767
		c0,0.425-0.004,0.68-0.013,0.767c-0.035,1.04-0.306,1.813-0.813,2.32C275.514,90.254,274.697,90.507,273.57,90.507 M265.381,90.507
		c-1.136,0-1.963-0.271-2.483-0.813c-0.52-0.542-0.78-1.333-0.78-2.373v-4.069c0-0.095,0.028-0.169,0.084-0.221l0.215-0.078h0.494
		c0.095,0,0.169,0.026,0.221,0.078c0.052,0.052,0.078,0.126,0.078,0.221v4.004c0,0.719,0.18,1.27,0.539,1.651
		c0.36,0.382,0.903,0.572,1.632,0.572c0.719,0,1.25-0.175,1.593-0.527c0.342-0.351,0.522-0.882,0.539-1.593v-0.403v-0.936
		c-0.018-0.71-0.169-1.239-0.455-1.586c-0.286-0.346-0.676-0.52-1.17-0.52c-0.156,0-0.329,0.028-0.52,0.084
		c-0.191,0.057-0.356,0.128-0.494,0.215l-0.13,0.039l-0.163-0.071l-0.072-0.163v-0.377c0-0.104,0.009-0.186,0.026-0.247l0.143-0.156
		c0.182-0.121,0.375-0.21,0.578-0.266c0.204-0.056,0.462-0.085,0.774-0.085c0.84,0,1.48,0.245,1.917,0.735
		c0.438,0.49,0.67,1.246,0.696,2.269c0.008,0.087,0.013,0.342,0.013,0.767c0,0.425-0.005,0.68-0.013,0.767
		c-0.035,1.04-0.306,1.813-0.813,2.32C267.324,90.254,266.507,90.507,265.381,90.507 M229.748,90.507l-0.163-0.065l-0.072-0.182
		v-0.572c0-0.156,0.095-0.273,0.286-0.351l0.507-0.195c0.598-0.225,1.057-0.55,1.378-0.975c0.321-0.425,0.481-1.049,0.481-1.872
		c0-0.581-0.07-1.038-0.208-1.372c-0.139-0.333-0.366-0.574-0.682-0.721c-0.316-0.147-0.752-0.221-1.307-0.221h-0.403h-0.039
		l-1.196-0.013l-0.215-0.078l-0.085-0.208v-2.236l0.085-0.215l0.215-0.084h0.52l0.208,0.084l0.078,0.215v1.508h1.001
		c0.789,0,1.415,0.113,1.879,0.338c0.464,0.225,0.8,0.585,1.008,1.079s0.312,1.153,0.312,1.976c0,1.109-0.273,1.974-0.819,2.593
		c-0.546,0.62-1.257,1.077-2.132,1.372l-0.546,0.182L229.748,90.507 M245.309,90.494c-0.148,0-0.221-0.069-0.221-0.208v-0.611
		c0-0.147,0.091-0.256,0.273-0.325c0.026-0.008,0.197-0.067,0.513-0.176c0.316-0.108,0.6-0.245,0.852-0.409
		c0.26-0.165,0.516-0.392,0.767-0.682c0.251-0.29,0.429-0.566,0.533-0.825l-0.234-1.17c-0.104-0.511-0.215-0.916-0.331-1.215
		c-0.117-0.299-0.275-0.527-0.475-0.682c-0.199-0.156-0.459-0.234-0.78-0.234h-0.481l-0.215-0.078l-0.085-0.208v-0.442l0.085-0.215
		l0.215-0.084h0.481c0.555,0,1.01,0.113,1.365,0.338c0.355,0.225,0.639,0.561,0.851,1.007c0.212,0.447,0.392,1.029,0.539,1.748
		l0.78,4.056v0.052l-0.084,0.176l-0.202,0.072h-0.572c-0.165,0-0.264-0.1-0.299-0.299l-0.299-1.521
		c-0.321,0.494-0.689,0.88-1.105,1.157c-0.321,0.217-0.62,0.384-0.897,0.501c-0.278,0.117-0.572,0.206-0.884,0.266L245.309,90.494
		 M283.801,90.377h-5.408l-0.208-0.085l-0.078-0.214v-0.416l0.078-0.215l0.208-0.085h3.757v-3.172c0-1.482-0.745-2.223-2.236-2.223
		h-1.391l-0.208-0.084l-0.078-0.215v-0.416l0.078-0.214l0.208-0.085h1.456c2.219,0,3.328,1.062,3.328,3.185v3.224h0.494l0.208,0.085
		l0.078,0.215v0.416l-0.078,0.214L283.801,90.377 M259.934,90.377h-0.546l-0.215-0.085l-0.085-0.214v-3.887
		c0-1.491-0.741-2.236-2.223-2.236h-2.418l-0.215-0.078l-0.084-0.208v-0.416c0-0.095,0.028-0.169,0.084-0.221l0.215-0.078h2.483
		c2.201,0,3.302,1.066,3.302,3.198v3.926l-0.085,0.214L259.934,90.377 M254.994,90.377h-0.546l-0.215-0.085l-0.084-0.214V85.71
		l0.084-0.215l0.215-0.084h0.546l0.214,0.084l0.085,0.215v4.368l-0.085,0.214L254.994,90.377 M242.085,90.377h-0.546l-0.208-0.078
		l-0.078-0.208v-4.667c0-0.355,0.03-0.659,0.091-0.91c0.06-0.251,0.143-0.438,0.247-0.559h-3.588l-0.215-0.078l-0.084-0.208v-0.416
		l0.084-0.214l0.215-0.085h5.564c0.095,0,0.169,0.026,0.221,0.078c0.052,0.052,0.078,0.126,0.078,0.221v0.416l-0.085,0.208
		l-0.215,0.078H242.8c-0.121,0.13-0.219,0.334-0.292,0.611c-0.074,0.277-0.11,0.59-0.11,0.936v4.589l-0.091,0.208L242.085,90.377
		 M235.923,90.377h-0.572l-0.215-0.085l-0.084-0.214v-6.825c0-0.095,0.028-0.169,0.084-0.221l0.215-0.078h0.572l0.215,0.085
		l0.084,0.214v6.825l-0.084,0.214L235.923,90.377 M226.251,90.377h-0.546l-0.215-0.085l-0.085-0.214v-3.887
		c0-1.491-0.741-2.236-2.223-2.236h-2.418l-0.214-0.078l-0.085-0.208v-0.416c0-0.095,0.028-0.169,0.085-0.221l0.214-0.078h2.483
		c2.201,0,3.302,1.066,3.302,3.198v3.926l-0.085,0.214L226.251,90.377 M221.311,90.377h-0.546l-0.214-0.085l-0.085-0.214V85.71
		l0.085-0.215l0.214-0.084h0.546l0.214,0.084l0.085,0.215v4.368l-0.085,0.214L221.311,90.377"/>
	<path fill="#000000" d="M269.047,107.394c-0.147,0-0.221-0.069-0.221-0.208v-0.611c0-0.147,0.091-0.256,0.273-0.325
		c0.026-0.008,0.197-0.067,0.514-0.175c0.316-0.108,0.6-0.245,0.851-0.409c0.26-0.165,0.516-0.392,0.767-0.682
		c0.251-0.29,0.429-0.565,0.533-0.825l-0.234-1.17c-0.104-0.511-0.214-0.916-0.331-1.215c-0.117-0.299-0.275-0.527-0.474-0.682
		c-0.199-0.156-0.46-0.234-0.78-0.234h-0.481l-0.214-0.078l-0.085-0.208v-0.442l0.085-0.214l0.214-0.085h0.481
		c0.554,0,1.01,0.113,1.365,0.338c0.355,0.225,0.639,0.561,0.851,1.007c0.212,0.447,0.392,1.029,0.54,1.748l0.78,4.056v0.052
		l-0.084,0.175l-0.201,0.072h-0.572c-0.165,0-0.265-0.1-0.299-0.299l-0.299-1.521c-0.321,0.494-0.689,0.88-1.105,1.157
		c-0.321,0.217-0.62,0.383-0.897,0.5c-0.277,0.117-0.572,0.206-0.884,0.266L269.047,107.394 M265.719,107.277h-0.546l-0.208-0.078
		l-0.078-0.208v-4.667c0-0.355,0.03-0.659,0.091-0.91c0.061-0.251,0.143-0.438,0.247-0.559h-1.144l-0.215-0.078l-0.085-0.208v-0.416
		l0.085-0.214l0.215-0.085h3.12l0.214,0.085l0.085,0.214v0.416l-0.085,0.208l-0.214,0.078h-0.78
		c-0.121,0.13-0.219,0.334-0.293,0.611c-0.074,0.277-0.11,0.59-0.11,0.936v4.589l-0.085,0.208L265.719,107.277 M262.118,107.277
		h-0.546l-0.214-0.085l-0.085-0.214v-3.887c0-1.491-0.745-2.236-2.236-2.236h-1.677l-0.214-0.078l-0.085-0.208v-0.416l0.085-0.214
		l0.214-0.085h1.755c2.201,0,3.302,1.058,3.302,3.172v3.952l-0.085,0.214L262.118,107.277 M252.108,107.277h-5.447l-0.214-0.085
		l-0.085-0.214v-6.825c0-0.095,0.028-0.169,0.085-0.221l0.214-0.078h2.457c1.109,0,1.935,0.264,2.476,0.793
		c0.542,0.529,0.813,1.322,0.813,2.379v3.952l-0.084,0.214L252.108,107.277 M247.441,100.855v5.408h3.848v-3.172
		c0-1.491-0.745-2.236-2.236-2.236H247.441 M255.137,104.261h-0.572l-0.215-0.084l-0.084-0.215v-3.809
		c0-0.095,0.028-0.169,0.084-0.221l0.215-0.078h0.572l0.214,0.085l0.085,0.214v3.809l-0.085,0.215L255.137,104.261"/>
	<path fill="#000000" d="M283.503,107.277h-5.694l-0.215-0.085l-0.084-0.214v-0.39c0-0.199,0.108-0.39,0.325-0.572l2.834-2.821
		c0.641-0.546,1.083-0.992,1.326-1.339c0.243-0.347,0.364-0.715,0.364-1.105c0-0.511-0.143-0.912-0.429-1.203
		c-0.286-0.29-0.702-0.435-1.248-0.435c-0.52,0-0.932,0.152-1.235,0.455c-0.304,0.304-0.49,0.711-0.559,1.222
		c-0.017,0.096-0.061,0.169-0.13,0.221l-0.208,0.078h-0.624l-0.195-0.078l-0.078-0.182c0.017-0.459,0.141-0.903,0.371-1.332
		c0.229-0.429,0.57-0.78,1.02-1.053c0.451-0.273,0.997-0.409,1.638-0.409c0.971,0,1.701,0.253,2.191,0.76
		c0.489,0.507,0.734,1.151,0.734,1.931c0,0.546-0.132,1.038-0.397,1.475c-0.264,0.438-0.678,0.899-1.241,1.384l-2.561,2.6h4.095
		c0.095,0,0.169,0.026,0.221,0.078c0.052,0.052,0.078,0.126,0.078,0.221v0.494l-0.084,0.214L283.503,107.277"/>
	<path fill="#000000" d="M246.076,124.307c-1.135,0-1.963-0.271-2.483-0.813c-0.52-0.541-0.78-1.332-0.78-2.373v-4.069
		c0-0.095,0.028-0.169,0.084-0.221l0.215-0.078h0.494c0.095,0,0.169,0.026,0.221,0.078c0.052,0.052,0.078,0.126,0.078,0.221v4.004
		c0,0.719,0.18,1.27,0.539,1.651c0.36,0.382,0.903,0.572,1.631,0.572c0.719,0,1.25-0.176,1.593-0.527
		c0.342-0.351,0.522-0.882,0.539-1.593v-0.403v-0.936c-0.018-0.711-0.169-1.239-0.455-1.586c-0.286-0.346-0.676-0.52-1.17-0.52
		c-0.156,0-0.329,0.028-0.52,0.085c-0.191,0.056-0.355,0.128-0.494,0.214l-0.13,0.039l-0.163-0.072l-0.072-0.163v-0.377
		c0-0.104,0.009-0.186,0.026-0.247l0.143-0.156c0.182-0.121,0.375-0.21,0.578-0.266c0.204-0.056,0.462-0.085,0.774-0.085
		c0.84,0,1.48,0.245,1.917,0.735c0.438,0.49,0.67,1.246,0.695,2.269c0.009,0.087,0.013,0.342,0.013,0.767
		c0,0.425-0.005,0.68-0.013,0.767c-0.035,1.04-0.305,1.813-0.812,2.321C248.02,124.054,247.203,124.307,246.076,124.307
		 M219.258,124.307l-0.163-0.065l-0.072-0.182v-0.572c0-0.156,0.095-0.273,0.286-0.351l0.507-0.195
		c0.598-0.225,1.057-0.55,1.378-0.975c0.321-0.425,0.481-1.049,0.481-1.872c0-0.58-0.07-1.038-0.208-1.371
		c-0.139-0.334-0.366-0.574-0.682-0.722c-0.316-0.147-0.752-0.221-1.307-0.221h-0.403h-0.039l-1.196-0.013l-0.215-0.078
		l-0.085-0.208v-2.236l0.085-0.214l0.215-0.085h0.52l0.208,0.085l0.078,0.214v1.508h1.001c0.789,0,1.415,0.113,1.879,0.338
		c0.464,0.226,0.8,0.585,1.008,1.079c0.208,0.494,0.312,1.153,0.312,1.976c0,1.109-0.273,1.974-0.819,2.593
		c-0.546,0.62-1.257,1.077-2.132,1.372l-0.546,0.182L219.258,124.307 M265.577,124.257c-0.039,0-0.078,0-0.118-0.001h-0.962
		c-0.563,0-1.07-0.13-1.521-0.39c-0.451-0.26-0.804-0.626-1.059-1.099c-0.256-0.472-0.384-1.016-0.384-1.632v-4.082
		c0-0.095,0.028-0.169,0.084-0.221l0.215-0.078h0.507l0.215,0.085l0.084,0.215l0.039,3.692c0.788-0.061,1.337-0.273,1.644-0.637
		c0.308-0.364,0.461-0.841,0.461-1.43v-1.625l0.085-0.215l0.214-0.085h0.507l0.214,0.085l0.085,0.215v1.677
		c0,0.832-0.264,1.517-0.793,2.054c-0.529,0.537-1.305,0.832-2.327,0.884c0.139,0.503,0.397,0.89,0.774,1.163
		c0.377,0.273,0.83,0.41,1.358,0.41h0.416c0.015,0,0.029,0,0.043,0c0.802,0,1.429-0.238,1.881-0.715
		c0.459-0.485,0.689-1.131,0.689-1.937v-3.536l0.084-0.215l0.215-0.085h0.507l0.215,0.085l0.084,0.215v3.614
		c0,0.728-0.149,1.367-0.449,1.918c-0.299,0.55-0.719,0.971-1.261,1.261C266.813,124.12,266.231,124.257,265.577,124.257
		 M283.23,124.177h-0.546l-0.215-0.085l-0.084-0.214v-3.887c0-1.491-0.745-2.236-2.236-2.236h-1.677l-0.215-0.078l-0.084-0.208
		v-0.416l0.084-0.215l0.215-0.085h1.755c2.201,0,3.302,1.058,3.302,3.172v3.952l-0.085,0.214L283.23,124.177 M276.496,124.177
		h-0.585c-0.113,0-0.199-0.033-0.26-0.098l-0.104-0.11l-2.964-4.173c-0.373,0.269-0.626,0.587-0.76,0.956
		c-0.135,0.369-0.202,0.774-0.202,1.216v1.911l-0.084,0.214l-0.215,0.085h-0.481l-0.214-0.085l-0.085-0.214v-1.963
		c0-0.641,0.098-1.2,0.293-1.677c0.195-0.476,0.578-0.905,1.15-1.287l-1.209-1.69c-0.061-0.095-0.091-0.178-0.091-0.247l0.078-0.182
		l0.182-0.078h0.572c0.138,0,0.26,0.074,0.364,0.221l2.73,3.809c0.312-0.182,0.54-0.373,0.683-0.572
		c0.143-0.199,0.232-0.396,0.266-0.592c0.035-0.195,0.052-0.449,0.052-0.76v-1.807l0.084-0.215l0.215-0.085h0.507l0.214,0.085
		l0.085,0.215v1.859c0,0.589-0.102,1.094-0.306,1.515c-0.204,0.42-0.613,0.812-1.228,1.176l1.482,2.067l0.091,0.247l-0.078,0.182
		L276.496,124.177 M253.759,124.177h-2.236l-0.214-0.085l-0.085-0.214v-0.429l0.085-0.215l0.214-0.085h2.171
		c0.607,0,1.075-0.195,1.404-0.585c0.329-0.39,0.507-0.94,0.533-1.651c0.009-0.087,0.013-0.238,0.013-0.455
		c0-0.208-0.004-0.355-0.013-0.442c-0.017-0.71-0.193-1.261-0.527-1.651c-0.334-0.39-0.804-0.585-1.41-0.585h-1.599v1.04
		c0,0.347,0.039,0.62,0.117,0.819c0.078,0.199,0.212,0.325,0.403,0.377l0.494,0.13l0.162,0.137c0.039,0.074,0.059,0.162,0.059,0.266
		v0.299c0,0.096-0.048,0.165-0.143,0.208c-0.068,0.031-0.14,0.046-0.217,0.046c-0.031,0-0.063-0.003-0.095-0.008l-0.507-0.104
		c-0.867-0.19-1.3-0.927-1.3-2.21v-1.729c0-0.095,0.028-0.169,0.085-0.221l0.214-0.078h2.392c0.953,0,1.677,0.278,2.171,0.832
		c0.494,0.555,0.758,1.348,0.793,2.379c0.008,0.087,0.013,0.251,0.013,0.494c0,0.251-0.005,0.42-0.013,0.507
		c-0.035,1.031-0.299,1.824-0.793,2.379C255.436,123.9,254.713,124.177,253.759,124.177 M240.63,124.177h-0.546l-0.214-0.085
		l-0.085-0.214v-3.887c0-1.491-0.745-2.236-2.236-2.236h-1.677l-0.214-0.078l-0.085-0.208v-0.416l0.085-0.215l0.214-0.085h1.755
		c2.201,0,3.302,1.058,3.302,3.172v3.952l-0.084,0.214L240.63,124.177 M233.558,124.177h-0.572l-0.215-0.085l-0.084-0.214v-6.825
		c0-0.095,0.028-0.169,0.084-0.221l0.215-0.078h0.572l0.215,0.085l0.084,0.215v6.825l-0.084,0.214L233.558,124.177 M229.19,124.177
		h-0.546l-0.208-0.078l-0.078-0.208v-4.667c0-0.355,0.03-0.659,0.091-0.91c0.061-0.251,0.143-0.437,0.247-0.559h-1.144l-0.215-0.078
		l-0.085-0.208v-0.416l0.085-0.215l0.215-0.085h3.12l0.214,0.085l0.085,0.215v0.416l-0.085,0.208l-0.214,0.078h-0.78
		c-0.121,0.13-0.219,0.334-0.293,0.611c-0.074,0.277-0.11,0.59-0.11,0.936v4.589l-0.085,0.208L229.19,124.177 M212.511,124.177
		h-0.546l-0.214-0.085l-0.085-0.214v-3.887c0-1.491-0.741-2.236-2.223-2.236h-2.418l-0.215-0.078l-0.085-0.208v-0.416
		c0-0.095,0.028-0.169,0.085-0.221l0.215-0.078h2.483c2.201,0,3.302,1.066,3.302,3.198v3.926l-0.084,0.214L212.511,124.177
		 M207.571,124.177h-0.546l-0.215-0.085l-0.085-0.214v-4.368l0.085-0.214l0.215-0.085h0.546l0.215,0.085l0.085,0.214v4.368
		l-0.085,0.214L207.571,124.177 M225.342,121.161h-0.572l-0.215-0.084l-0.085-0.215v-3.809c0-0.095,0.028-0.169,0.085-0.221
		l0.215-0.078h0.572l0.214,0.085l0.085,0.215v3.809l-0.085,0.215L225.342,121.161 M215.54,121.161h-0.572l-0.214-0.084l-0.085-0.215
		v-3.809c0-0.095,0.028-0.169,0.085-0.221l0.214-0.078h0.572l0.215,0.085l0.085,0.215v3.809l-0.085,0.215L215.54,121.161"/>
	<path fill="#000000" d="M272.102,141.207l-0.162-0.065l-0.072-0.182v-0.572c0-0.156,0.095-0.273,0.286-0.351l0.507-0.195
		c0.598-0.225,1.057-0.55,1.378-0.975c0.321-0.425,0.481-1.049,0.481-1.872c0-0.581-0.069-1.038-0.208-1.372
		c-0.139-0.334-0.366-0.574-0.682-0.722c-0.316-0.147-0.752-0.221-1.306-0.221h-0.403h-0.039l-1.196-0.013l-0.214-0.078
		l-0.085-0.208v-2.236l0.085-0.214l0.214-0.085h0.52l0.208,0.085l0.078,0.214v1.508h1.001c0.789,0,1.415,0.113,1.879,0.338
		c0.464,0.226,0.8,0.585,1.008,1.079s0.312,1.153,0.312,1.976c0,1.109-0.273,1.974-0.819,2.593c-0.546,0.62-1.257,1.077-2.132,1.372
		l-0.546,0.182L272.102,141.207 M283.23,141.077h-3.354l-0.208-0.085l-0.078-0.214v-0.416l0.078-0.215l0.208-0.084h2.509v-3.159
		c0-0.659-0.167-1.194-0.501-1.605c-0.334-0.411-0.756-0.617-1.267-0.617h-1.378l-1.001,6.084l-0.111,0.221l-0.214,0.091h-0.546
		l-0.201-0.091l-0.059-0.221l1.04-6.084h-0.663l-0.215-0.085l-0.085-0.214v-0.429l0.085-0.215l0.215-0.085h3.263
		c0.537,0,1.016,0.128,1.436,0.384c0.42,0.256,0.75,0.622,0.988,1.099c0.238,0.477,0.358,1.04,0.358,1.69v3.952l-0.085,0.214
		L283.23,141.077 M268.605,141.077h-0.546l-0.215-0.085l-0.085-0.214v-3.887c0-1.491-0.745-2.236-2.236-2.236h-1.586v6.123
		l-0.085,0.214l-0.215,0.085h-0.546l-0.215-0.085l-0.085-0.214v-6.825c0-0.095,0.028-0.169,0.085-0.221l0.215-0.078h2.496
		c1.118,0,1.95,0.267,2.496,0.8c0.546,0.533,0.819,1.332,0.819,2.398v3.926l-0.085,0.214L268.605,141.077"/>
	<path fill="#000000" d="M272.778,158.107l-0.163-0.065l-0.071-0.182v-0.572c0-0.156,0.095-0.273,0.286-0.351l0.507-0.195
		c0.598-0.225,1.057-0.55,1.378-0.975c0.321-0.425,0.481-1.048,0.481-1.872c0-0.581-0.069-1.038-0.208-1.372
		c-0.139-0.334-0.366-0.574-0.682-0.722c-0.316-0.147-0.752-0.221-1.307-0.221h-0.403h-0.039l-1.196-0.013l-0.214-0.078
		l-0.085-0.208v-2.236l0.085-0.214l0.214-0.085h0.52l0.208,0.085l0.078,0.214v1.508h1.001c0.789,0,1.415,0.113,1.879,0.338
		c0.464,0.226,0.8,0.585,1.008,1.079s0.312,1.153,0.312,1.976c0,1.109-0.273,1.974-0.819,2.594c-0.546,0.62-1.257,1.077-2.132,1.372
		l-0.546,0.182L272.778,158.107 M258.712,158.107l-0.162-0.065l-0.072-0.182v-0.572c0-0.156,0.095-0.273,0.286-0.351l0.507-0.195
		c0.598-0.225,1.057-0.55,1.378-0.975c0.32-0.425,0.481-1.048,0.481-1.872c0-0.581-0.069-1.038-0.208-1.372
		c-0.139-0.334-0.366-0.574-0.683-0.722c-0.316-0.147-0.752-0.221-1.307-0.221h-0.403h-0.039l-1.196-0.013l-0.214-0.078
		l-0.085-0.208v-2.236l0.085-0.214l0.214-0.085h0.52l0.208,0.085l0.078,0.214v1.508h1.001c0.789,0,1.415,0.113,1.879,0.338
		c0.464,0.226,0.8,0.585,1.007,1.079c0.208,0.494,0.312,1.153,0.312,1.976c0,1.109-0.273,1.974-0.819,2.594
		c-0.546,0.62-1.257,1.077-2.132,1.372l-0.546,0.182L258.712,158.107 M280.773,157.977h-2.236l-0.215-0.085l-0.085-0.214v-0.429
		l0.085-0.215l0.215-0.084h2.171c0.607,0,1.075-0.195,1.404-0.585c0.329-0.39,0.507-0.94,0.533-1.651
		c0.008-0.087,0.013-0.238,0.013-0.455c0-0.208-0.005-0.355-0.013-0.442c-0.018-0.71-0.193-1.261-0.526-1.651
		c-0.334-0.39-0.804-0.585-1.411-0.585h-1.599v1.04c0,0.347,0.039,0.62,0.117,0.819c0.078,0.199,0.212,0.325,0.403,0.377l0.494,0.13
		l0.163,0.137c0.039,0.074,0.058,0.162,0.058,0.266v0.299c0,0.096-0.048,0.165-0.143,0.208c-0.068,0.031-0.141,0.047-0.217,0.047
		c-0.031,0-0.062-0.002-0.094-0.007l-0.507-0.104c-0.867-0.19-1.3-0.927-1.3-2.21v-1.729c0-0.095,0.028-0.169,0.085-0.221
		l0.215-0.078h2.392c0.953,0,1.677,0.278,2.171,0.832c0.494,0.555,0.758,1.348,0.793,2.379c0.009,0.087,0.013,0.251,0.013,0.494
		c0,0.251-0.004,0.42-0.013,0.507c-0.035,1.031-0.299,1.824-0.793,2.379C282.45,157.7,281.726,157.977,280.773,157.977
		 M266.707,157.977h-2.236l-0.215-0.085l-0.084-0.214v-0.429l0.084-0.215l0.215-0.084h2.171c0.606,0,1.074-0.195,1.404-0.585
		c0.329-0.39,0.507-0.94,0.533-1.651c0.009-0.087,0.013-0.238,0.013-0.455c0-0.208-0.004-0.355-0.013-0.442
		c-0.018-0.71-0.193-1.261-0.527-1.651c-0.334-0.39-0.804-0.585-1.41-0.585h-1.599v1.04c0,0.347,0.039,0.62,0.117,0.819
		c0.078,0.199,0.212,0.325,0.403,0.377l0.494,0.13l0.163,0.137c0.039,0.074,0.058,0.162,0.058,0.266v0.299
		c0,0.096-0.048,0.165-0.143,0.208c-0.068,0.031-0.141,0.047-0.217,0.047c-0.031,0-0.062-0.002-0.094-0.007l-0.507-0.104
		c-0.867-0.19-1.3-0.927-1.3-2.21v-1.729c0-0.095,0.028-0.169,0.084-0.221l0.215-0.078h2.392c0.953,0,1.677,0.278,2.171,0.832
		c0.494,0.555,0.758,1.348,0.793,2.379c0.009,0.087,0.013,0.251,0.013,0.494c0,0.251-0.004,0.42-0.013,0.507
		c-0.035,1.031-0.299,1.824-0.793,2.379C268.384,157.7,267.66,157.977,266.707,157.977"/>
	<path fill="#000000" d="M245.829,177.36h-0.533l-0.214-0.078c-0.057-0.052-0.085-0.126-0.085-0.221v-6.851l0.085-0.214l0.214-0.085
		h0.533l0.214,0.085l0.085,0.214v6.851l-0.085,0.215L245.829,177.36 M210.886,177.36h-0.533l-0.214-0.078
		c-0.056-0.052-0.085-0.126-0.085-0.221v-6.851l0.085-0.214l0.214-0.085h0.533l0.214,0.085l0.085,0.214v6.851l-0.085,0.215
		L210.886,177.36 M275.976,176.489h-0.533l-0.215-0.085l-0.085-0.214v-5.473c0-1.491-0.745-2.236-2.236-2.236h-1.209v1.313
		c0,0.355,0.039,0.637,0.117,0.845c0.078,0.208,0.212,0.338,0.403,0.39l0.494,0.13l0.163,0.136c0.039,0.074,0.058,0.163,0.058,0.267
		v0.325l-0.13,0.195c-0.062,0.031-0.128,0.046-0.199,0.046c-0.028,0-0.058-0.003-0.087-0.008l-0.546-0.117
		c-0.867-0.191-1.3-0.94-1.3-2.249v-2.002c0-0.095,0.028-0.169,0.084-0.221l0.215-0.078h2.041c1.092,0,1.904,0.277,2.437,0.832
		c0.533,0.555,0.804,1.348,0.813,2.379l0.013,5.525l-0.085,0.214L275.976,176.489 M247.675,175.007l-0.163-0.065l-0.072-0.182
		v-0.572c0-0.156,0.095-0.273,0.286-0.351l0.507-0.195c0.598-0.225,1.057-0.55,1.378-0.975c0.321-0.425,0.481-1.048,0.481-1.872
		c0-0.581-0.07-1.038-0.208-1.372c-0.139-0.333-0.366-0.574-0.682-0.722c-0.316-0.147-0.752-0.221-1.307-0.221h-2.6l-0.214-0.085
		l-0.085-0.214v-0.442l0.085-0.208l0.214-0.078h2.756c0.797,0,1.428,0.113,1.891,0.338c0.464,0.226,0.8,0.585,1.008,1.079
		s0.312,1.153,0.312,1.976c0,1.109-0.273,1.974-0.819,2.594c-0.546,0.62-1.257,1.077-2.132,1.371l-0.546,0.182L247.675,175.007
		 M212.732,175.007l-0.163-0.065l-0.071-0.182v-0.572c0-0.156,0.095-0.273,0.286-0.351l0.507-0.195
		c0.598-0.225,1.057-0.55,1.378-0.975c0.321-0.425,0.481-1.048,0.481-1.872c0-0.581-0.069-1.038-0.208-1.372
		c-0.139-0.333-0.366-0.574-0.682-0.722c-0.316-0.147-0.752-0.221-1.307-0.221h-2.6l-0.214-0.085l-0.085-0.214v-0.442l0.085-0.208
		l0.214-0.078h2.756c0.797,0,1.428,0.113,1.891,0.338c0.464,0.226,0.8,0.585,1.008,1.079s0.312,1.153,0.312,1.976
		c0,1.109-0.273,1.974-0.819,2.594c-0.546,0.62-1.257,1.077-2.132,1.371l-0.546,0.182L212.732,175.007 M280.435,174.877h-1.924
		l-0.215-0.084l-0.084-0.215v-0.429c0-0.095,0.028-0.169,0.084-0.221l0.215-0.078h1.859c0.754,0,1.309-0.191,1.664-0.572
		c0.355-0.381,0.55-0.936,0.585-1.664c0.008-0.121,0.013-0.273,0.013-0.455c0-0.173-0.005-0.32-0.013-0.442
		c-0.026-0.737-0.219-1.294-0.579-1.671c-0.36-0.377-0.916-0.566-1.671-0.566h-1.859l-0.215-0.085l-0.084-0.214v-0.429
		c0-0.095,0.028-0.169,0.084-0.221l0.215-0.078h1.924c1.101,0,1.918,0.275,2.451,0.825c0.533,0.55,0.817,1.345,0.851,2.385
		c0.009,0.121,0.013,0.286,0.013,0.494c0,0.208-0.005,0.377-0.013,0.507c-0.035,1.04-0.319,1.835-0.851,2.385
		C282.352,174.602,281.535,174.877,280.435,174.877 M265.81,174.877h-0.585c-0.113,0-0.199-0.033-0.26-0.098l-0.104-0.11
		l-2.964-4.173c-0.373,0.269-0.626,0.587-0.76,0.955c-0.134,0.369-0.201,0.774-0.201,1.216v1.911l-0.085,0.215l-0.215,0.084h-0.481
		l-0.215-0.084l-0.084-0.215v-1.963c0-0.641,0.097-1.2,0.292-1.677c0.195-0.477,0.579-0.906,1.151-1.287l-1.209-1.69
		c-0.061-0.095-0.091-0.178-0.091-0.247l0.078-0.182l0.182-0.078h0.572c0.139,0,0.26,0.074,0.364,0.221l2.73,3.809
		c0.312-0.182,0.539-0.372,0.682-0.572c0.143-0.199,0.232-0.396,0.266-0.591c0.035-0.195,0.052-0.449,0.052-0.761v-1.807
		l0.084-0.215l0.215-0.084h0.507l0.215,0.084l0.084,0.215v1.859c0,0.59-0.102,1.094-0.305,1.515
		c-0.204,0.42-0.613,0.813-1.229,1.176l1.482,2.067l0.091,0.247l-0.078,0.182L265.81,174.877 M258.491,174.877h-5.408l-0.208-0.084
		l-0.078-0.215v-0.416l0.078-0.214l0.208-0.085h3.757v-3.172c0-1.482-0.746-2.223-2.236-2.223h-1.391l-0.208-0.085l-0.078-0.214
		v-0.416l0.078-0.215l0.208-0.084h1.456c2.219,0,3.328,1.062,3.328,3.185v3.224h0.494l0.208,0.085l0.078,0.214v0.416l-0.078,0.215
		L258.491,174.877 M242.748,174.877h-0.546l-0.214-0.084l-0.085-0.215v-3.887c0-1.49-0.745-2.236-2.236-2.236h-0.936
		c-0.087,0.546-0.15,0.999-0.189,1.358c-0.039,0.36-0.054,0.769-0.045,1.229l0.026,3.536l-0.085,0.215l-0.215,0.084l-1.807-0.026
		l-0.215-0.085l-0.084-0.214v-0.39l0.084-0.214l0.215-0.085l1.001,0.013v-2.782c-0.009-0.546,0.002-1.008,0.033-1.385
		c0.03-0.377,0.102-0.795,0.215-1.254h-0.702l-0.215-0.078l-0.085-0.208v-0.416c0-0.095,0.028-0.169,0.085-0.221l0.215-0.078h2.782
		c2.201,0,3.302,1.057,3.302,3.172v3.952l-0.084,0.215L242.748,174.877 M230.996,174.877h-3.354l-0.208-0.084l-0.078-0.215v-0.416
		l0.078-0.214l0.208-0.085h2.509v-3.159c0-0.658-0.167-1.194-0.5-1.605c-0.334-0.411-0.756-0.617-1.268-0.617h-1.378l-1.001,6.084
		l-0.11,0.221l-0.215,0.091h-0.546l-0.202-0.091l-0.058-0.221l1.04-6.084h-0.663l-0.214-0.085l-0.085-0.214v-0.429l0.085-0.215
		l0.214-0.084h3.263c0.537,0,1.016,0.128,1.437,0.384c0.42,0.256,0.749,0.622,0.988,1.099c0.238,0.477,0.357,1.04,0.357,1.69v3.952
		l-0.084,0.215L230.996,174.877 M222.924,174.877h-0.546l-0.214-0.084l-0.085-0.215v-3.887c0-1.49-0.745-2.236-2.236-2.236h-1.677
		l-0.215-0.078l-0.085-0.208v-0.416l0.085-0.215l0.215-0.084h1.755c2.201,0,3.302,1.057,3.302,3.172v3.952l-0.085,0.215
		L222.924,174.877"/>
	<path fill="#000000" d="M200.317,194.26h-0.533l-0.215-0.078c-0.056-0.052-0.085-0.126-0.085-0.221v-6.851l0.085-0.214l0.215-0.085
		h0.533l0.215,0.085l0.084,0.214v6.851l-0.084,0.215L200.317,194.26 M174.292,194.26h-0.533l-0.215-0.078
		c-0.056-0.052-0.084-0.126-0.084-0.221v-6.851l0.084-0.214l0.215-0.085h0.533l0.215,0.085l0.085,0.214v6.851l-0.085,0.215
		L174.292,194.26 M162.995,194.26h-0.533l-0.215-0.078c-0.056-0.052-0.084-0.126-0.084-0.221v-6.851l0.084-0.214l0.215-0.085h0.533
		l0.215,0.085l0.085,0.214v6.851l-0.085,0.215L162.995,194.26 M225.641,193.389h-0.546l-0.214-0.078
		c-0.056-0.052-0.085-0.126-0.085-0.221v-8.437c0-0.095,0.028-0.169,0.085-0.221l0.214-0.078h0.546l0.215,0.084l0.084,0.215v8.437
		l-0.084,0.214L225.641,193.389 M202.163,191.907l-0.163-0.065l-0.071-0.182v-0.572c0-0.156,0.095-0.273,0.286-0.351l0.507-0.195
		c0.598-0.225,1.057-0.55,1.378-0.975c0.321-0.425,0.481-1.048,0.481-1.872c0-0.581-0.069-1.038-0.208-1.372
		c-0.139-0.333-0.366-0.574-0.682-0.722c-0.316-0.147-0.752-0.221-1.307-0.221h-2.6l-0.215-0.085l-0.085-0.214v-0.442l0.085-0.208
		l0.215-0.078h2.756c0.797,0,1.428,0.113,1.891,0.338c0.464,0.226,0.8,0.585,1.008,1.079s0.312,1.153,0.312,1.976
		c0,1.109-0.273,1.974-0.819,2.594c-0.546,0.62-1.257,1.077-2.132,1.371l-0.546,0.182L202.163,191.907 M176.138,191.907
		l-0.162-0.065l-0.072-0.182v-0.572c0-0.156,0.095-0.273,0.286-0.351l0.507-0.195c0.598-0.225,1.057-0.55,1.378-0.975
		c0.321-0.425,0.481-1.048,0.481-1.872c0-0.581-0.07-1.038-0.208-1.372c-0.139-0.333-0.366-0.574-0.683-0.722
		c-0.316-0.147-0.752-0.221-1.306-0.221h-2.6l-0.215-0.085l-0.084-0.214v-0.442l0.084-0.208l0.215-0.078h2.756
		c0.797,0,1.428,0.113,1.891,0.338c0.464,0.226,0.8,0.585,1.008,1.079s0.312,1.153,0.312,1.976c0,1.109-0.273,1.974-0.819,2.594
		c-0.546,0.62-1.257,1.077-2.132,1.371l-0.546,0.182L176.138,191.907 M164.841,191.907l-0.162-0.065l-0.072-0.182v-0.572
		c0-0.156,0.095-0.273,0.286-0.351l0.507-0.195c0.598-0.225,1.057-0.55,1.378-0.975c0.321-0.425,0.481-1.048,0.481-1.872
		c0-0.581-0.07-1.038-0.208-1.372c-0.139-0.333-0.366-0.574-0.683-0.722c-0.316-0.147-0.752-0.221-1.306-0.221h-2.6l-0.215-0.085
		l-0.084-0.214v-0.442l0.084-0.208l0.215-0.078h2.756c0.797,0,1.428,0.113,1.891,0.338c0.464,0.226,0.8,0.585,1.008,1.079
		s0.312,1.153,0.312,1.976c0,1.109-0.273,1.974-0.819,2.594c-0.546,0.62-1.257,1.077-2.132,1.371l-0.546,0.182L164.841,191.907
		 M153.817,191.907c-1.066,0-1.866-0.279-2.398-0.838c-0.533-0.559-0.8-1.363-0.8-2.412v-4.004c0-0.095,0.028-0.169,0.085-0.221
		l0.214-0.078h3.12c1.118,0,1.92,0.251,2.405,0.754c0.485,0.503,0.75,1.274,0.793,2.314c0.009,0.087,0.013,0.321,0.013,0.702
		c0,0.382-0.005,0.615-0.013,0.702c-0.026,1.031-0.308,1.803-0.845,2.314C155.854,191.652,154.996,191.907,153.817,191.907
		 M151.711,185.355v3.302c0,0.72,0.176,1.27,0.527,1.651c0.351,0.381,0.873,0.572,1.566,0.572c0.815,0,1.399-0.171,1.755-0.514
		c0.355-0.342,0.541-0.878,0.559-1.605c0.008-0.087,0.013-0.299,0.013-0.637c0-0.338-0.005-0.55-0.013-0.637
		c-0.018-0.693-0.215-1.222-0.592-1.586c-0.377-0.364-0.895-0.546-1.554-0.546H151.711 M239.954,191.857
		c-0.039,0-0.078,0-0.118-0.001h-0.962c-0.563,0-1.07-0.13-1.521-0.39c-0.451-0.26-0.804-0.626-1.06-1.099
		c-0.256-0.472-0.384-1.016-0.384-1.632v-4.082c0-0.095,0.028-0.169,0.085-0.221l0.214-0.078h0.507l0.214,0.084l0.085,0.215
		l0.039,3.692c0.789-0.061,1.337-0.273,1.645-0.637c0.308-0.364,0.462-0.841,0.462-1.43v-1.625l0.085-0.215l0.214-0.084h0.507
		l0.215,0.084l0.085,0.215v1.677c0,0.832-0.264,1.517-0.793,2.054c-0.529,0.537-1.304,0.832-2.327,0.884
		c0.138,0.503,0.396,0.89,0.773,1.164c0.377,0.273,0.83,0.409,1.359,0.409h0.416c0.015,0,0.029,0,0.043,0
		c0.802,0,1.429-0.238,1.881-0.715c0.459-0.485,0.689-1.131,0.689-1.937v-3.536l0.085-0.215l0.215-0.084h0.507l0.214,0.084
		l0.085,0.215v3.614c0,0.728-0.15,1.367-0.449,1.917c-0.299,0.55-0.719,0.971-1.261,1.261
		C241.191,191.72,240.608,191.857,239.954,191.857 M269.645,191.777h-1.924l-0.214-0.084l-0.085-0.215v-0.429
		c0-0.095,0.028-0.169,0.085-0.221l0.214-0.078h1.859c0.754,0,1.309-0.191,1.664-0.572c0.355-0.381,0.55-0.936,0.585-1.664
		c0.009-0.121,0.013-0.273,0.013-0.455c0-0.173-0.004-0.321-0.013-0.442c-0.026-0.737-0.219-1.294-0.579-1.67
		c-0.36-0.377-0.916-0.566-1.671-0.566h-1.859l-0.214-0.085l-0.085-0.214v-0.429c0-0.095,0.028-0.169,0.085-0.221l0.214-0.078h1.924
		c1.101,0,1.918,0.275,2.451,0.825c0.533,0.55,0.817,1.345,0.852,2.385c0.009,0.121,0.013,0.286,0.013,0.494
		s-0.004,0.377-0.013,0.507c-0.035,1.04-0.319,1.835-0.852,2.385C271.562,191.502,270.745,191.777,269.645,191.777 M262.859,191.777
		h-2.236l-0.214-0.084l-0.085-0.215v-0.429l0.085-0.215l0.214-0.084h2.171c0.607,0,1.075-0.195,1.404-0.585
		c0.329-0.39,0.507-0.94,0.533-1.651c0.009-0.087,0.013-0.238,0.013-0.455c0-0.208-0.004-0.355-0.013-0.442
		c-0.018-0.711-0.193-1.261-0.527-1.651c-0.334-0.39-0.804-0.585-1.41-0.585h-1.599v1.04c0,0.347,0.039,0.62,0.117,0.819
		c0.078,0.2,0.212,0.325,0.403,0.377l0.494,0.13l0.162,0.136c0.039,0.074,0.059,0.163,0.059,0.266v0.299
		c0,0.096-0.048,0.165-0.143,0.208c-0.068,0.031-0.141,0.047-0.218,0.047c-0.031,0-0.062-0.002-0.095-0.007l-0.507-0.104
		c-0.867-0.19-1.3-0.927-1.3-2.21v-1.729c0-0.095,0.028-0.169,0.084-0.221l0.215-0.078h2.392c0.953,0,1.677,0.277,2.171,0.832
		c0.494,0.555,0.758,1.348,0.793,2.379c0.009,0.087,0.013,0.251,0.013,0.494c0,0.251-0.005,0.42-0.013,0.507
		c-0.035,1.031-0.299,1.824-0.793,2.379C264.536,191.5,263.812,191.777,262.859,191.777 M257.854,191.777h-0.572l-0.215-0.084
		l-0.085-0.215v-6.825c0-0.095,0.028-0.169,0.085-0.221l0.215-0.078h0.572l0.214,0.084l0.085,0.215v6.825l-0.085,0.215
		L257.854,191.777 M254.734,191.777h-0.546l-0.214-0.084l-0.085-0.215v-3.887c0-1.49-0.745-2.236-2.236-2.236h-0.936
		c-0.087,0.546-0.149,0.999-0.188,1.358c-0.039,0.36-0.054,0.769-0.045,1.229l0.026,3.536l-0.084,0.215l-0.215,0.084l-1.807-0.026
		l-0.215-0.085l-0.085-0.214v-0.39l0.085-0.214l0.215-0.085l1.001,0.013v-2.782c-0.009-0.546,0.002-1.008,0.033-1.384
		c0.03-0.377,0.102-0.795,0.214-1.254h-0.702l-0.214-0.078l-0.085-0.208v-0.416c0-0.095,0.028-0.169,0.085-0.221l0.214-0.078h2.782
		c2.201,0,3.302,1.057,3.302,3.172v3.952l-0.085,0.215L254.734,191.777 M233.792,191.777h-3.354l-0.208-0.084l-0.078-0.215v-0.416
		l0.078-0.214l0.208-0.085h2.509v-3.159c0-0.658-0.167-1.194-0.501-1.605c-0.334-0.411-0.756-0.617-1.267-0.617h-1.378l-1.001,6.084
		l-0.111,0.221l-0.214,0.091h-0.546l-0.201-0.091l-0.059-0.221l1.04-6.084h-0.663l-0.215-0.085l-0.085-0.214v-0.429l0.085-0.215
		l0.215-0.084h3.263c0.537,0,1.016,0.128,1.436,0.384c0.42,0.256,0.75,0.622,0.988,1.098c0.238,0.477,0.358,1.04,0.358,1.69v3.952
		l-0.085,0.215L233.792,191.777 M219.622,191.777h-0.585c-0.113,0-0.199-0.033-0.26-0.098l-0.104-0.111l-2.964-4.173
		c-0.373,0.269-0.626,0.587-0.76,0.955c-0.134,0.369-0.201,0.774-0.201,1.216v1.911l-0.085,0.215l-0.214,0.084h-0.481l-0.215-0.084
		l-0.084-0.215v-1.963c0-0.641,0.098-1.2,0.292-1.677c0.195-0.477,0.579-0.906,1.151-1.287l-1.209-1.69
		c-0.061-0.095-0.091-0.178-0.091-0.247l0.078-0.182l0.182-0.078h0.572c0.139,0,0.26,0.074,0.364,0.221l2.73,3.809
		c0.312-0.182,0.539-0.372,0.682-0.572c0.143-0.199,0.232-0.396,0.266-0.591c0.035-0.195,0.052-0.449,0.052-0.761v-1.807
		l0.085-0.215l0.214-0.084h0.507l0.214,0.084l0.085,0.215v1.859c0,0.59-0.102,1.094-0.306,1.515
		c-0.204,0.42-0.613,0.813-1.229,1.176l1.482,2.067l0.091,0.247l-0.078,0.182L219.622,191.777 M211.666,191.777h-0.572l-0.215-0.084
		l-0.084-0.215v-6.825c0-0.095,0.028-0.169,0.084-0.221l0.215-0.078h0.572l0.215,0.084l0.084,0.215v6.825l-0.084,0.215
		L211.666,191.777 M197.236,191.777h-0.546l-0.214-0.084l-0.085-0.215v-3.887c0-1.49-0.745-2.236-2.236-2.236h-1.677l-0.215-0.078
		l-0.084-0.208v-0.416l0.084-0.215l0.215-0.084h1.755c2.201,0,3.302,1.057,3.302,3.172v3.952l-0.085,0.215L197.236,191.777
		 M190.515,191.777h-5.447l-0.214-0.084l-0.085-0.215v-6.825c0-0.095,0.028-0.169,0.085-0.221l0.214-0.078h2.457
		c1.109,0,1.935,0.264,2.476,0.793c0.542,0.529,0.813,1.322,0.813,2.379v3.952l-0.084,0.215L190.515,191.777 M185.848,185.355v5.408
		h3.848v-3.172c0-1.49-0.745-2.236-2.236-2.236H185.848 M171.146,191.777h-0.572l-0.215-0.084l-0.085-0.215v-6.825
		c0-0.095,0.028-0.169,0.085-0.221l0.215-0.078h0.572l0.214,0.084l0.085,0.215v6.825l-0.085,0.215L171.146,191.777 M159.849,191.777
		h-0.572l-0.215-0.084l-0.085-0.215v-6.825c0-0.095,0.028-0.169,0.085-0.221l0.215-0.078h0.572l0.214,0.084l0.085,0.215v6.825
		l-0.085,0.215L159.849,191.777"/>
	<path fill="#000000" d="M283.503,191.777h-5.694l-0.215-0.084l-0.084-0.215v-0.39c0-0.199,0.108-0.39,0.325-0.572l2.834-2.821
		c0.641-0.546,1.083-0.992,1.326-1.339c0.243-0.347,0.364-0.715,0.364-1.105c0-0.511-0.143-0.912-0.429-1.202
		c-0.286-0.29-0.702-0.436-1.248-0.436c-0.52,0-0.932,0.152-1.235,0.455c-0.304,0.303-0.49,0.711-0.559,1.222
		c-0.017,0.096-0.061,0.169-0.13,0.221l-0.208,0.078h-0.624l-0.195-0.078l-0.078-0.182c0.017-0.459,0.141-0.903,0.371-1.332
		c0.229-0.429,0.57-0.78,1.02-1.053c0.451-0.273,0.997-0.409,1.638-0.409c0.971,0,1.701,0.253,2.191,0.76
		c0.489,0.507,0.734,1.151,0.734,1.931c0,0.546-0.132,1.038-0.397,1.475c-0.264,0.438-0.678,0.899-1.241,1.385l-2.561,2.6h4.095
		c0.095,0,0.169,0.026,0.221,0.078c0.052,0.052,0.078,0.126,0.078,0.221v0.494l-0.084,0.215L283.503,191.777"/>
	<path fill="#000000" d="M283.243,225.577h-1.209l-0.221-0.091l-0.091-0.221v-6.708l-1.963,1.508l-0.195,0.065
		c-0.104,0-0.186-0.043-0.247-0.13l-0.559-0.728l-0.065-0.182c0-0.104,0.047-0.19,0.143-0.26l2.912-2.262
		c0.095-0.061,0.203-0.091,0.325-0.091h1.17l0.221,0.091l0.091,0.221v8.476l-0.091,0.221L283.243,225.577"/>
	<path fill="#000000" d="M254.379,228.06h-0.221l-0.208-0.078l-0.078-0.208v-7.046l0.078-0.208l0.208-0.078h0.221l0.208,0.078
		l0.078,0.208v7.046l-0.078,0.208L254.379,228.06 M153.682,228.06h-0.221l-0.208-0.078l-0.078-0.208v-7.046l0.078-0.208l0.208-0.078
		h0.221l0.208,0.078l0.078,0.208v7.046l-0.078,0.208L153.682,228.06 M245.006,227.189h-0.221l-0.208-0.078l-0.078-0.208v-5.512
		c0-1.655-0.828-2.483-2.483-2.483h-1.313v1.56c0,0.407,0.043,0.726,0.13,0.955c0.087,0.23,0.238,0.371,0.455,0.423l0.533,0.13
		c0.147,0.043,0.221,0.182,0.221,0.416v0.182l-0.085,0.156l-0.215,0.052l-0.104-0.013l-0.494-0.117
		c-0.416-0.095-0.724-0.321-0.923-0.676c-0.199-0.355-0.299-0.858-0.299-1.508v-2.028l0.078-0.208l0.208-0.078h1.872
		c1.083,0,1.889,0.271,2.418,0.813c0.529,0.542,0.793,1.328,0.793,2.36v5.577l-0.078,0.208L245.006,227.189 M205.812,227.189h-0.221
		l-0.208-0.078l-0.078-0.208v-5.512c0-1.655-0.832-2.483-2.496-2.483h-1.846l-0.208-0.078l-0.078-0.208v-0.182l0.078-0.208
		l0.208-0.078h1.911c1.092,0,1.902,0.264,2.431,0.793c0.529,0.529,0.793,1.322,0.793,2.379v5.577l-0.078,0.208L205.812,227.189
		 M80.584,225.707c-1.031,0-1.803-0.275-2.314-0.825c-0.512-0.55-0.767-1.354-0.767-2.411v-4.03l0.078-0.208l0.208-0.078h3.055
		c1.075,0,1.846,0.247,2.314,0.741c0.468,0.494,0.724,1.261,0.767,2.301c0.008,0.087,0.013,0.329,0.013,0.728
		c0,0.407-0.005,0.655-0.013,0.741c-0.026,1.031-0.304,1.796-0.832,2.295C82.564,225.458,81.728,225.707,80.584,225.707
		 M78.296,218.908v3.562c0,0.797,0.191,1.41,0.572,1.839c0.381,0.429,0.953,0.644,1.716,0.644c0.893,0,1.536-0.193,1.93-0.579
		c0.394-0.386,0.6-0.977,0.617-1.774c0.009-0.087,0.013-0.312,0.013-0.676c0-0.355-0.005-0.576-0.013-0.663
		c-0.017-0.763-0.238-1.346-0.663-1.748c-0.425-0.403-0.988-0.605-1.69-0.605H78.296 M263.232,225.694
		c-0.139,0-0.208-0.069-0.208-0.208v-0.325c0-0.147,0.091-0.256,0.273-0.325l0.533-0.208c0.667-0.26,1.176-0.619,1.527-1.079
		c0.351-0.459,0.527-1.144,0.527-2.054c0-0.65-0.078-1.161-0.234-1.534c-0.156-0.372-0.414-0.641-0.773-0.806
		c-0.36-0.165-0.852-0.247-1.476-0.247h-0.442h-0.039l-1.014-0.013l-0.208-0.071l-0.078-0.202v-1.989l0.078-0.208l0.208-0.078h0.221
		l0.208,0.078l0.078,0.208v1.521h1.053c0.806,0,1.441,0.11,1.905,0.331c0.464,0.221,0.797,0.579,1.001,1.073
		c0.203,0.494,0.306,1.17,0.306,2.028c0,1.118-0.254,1.972-0.761,2.561c-0.507,0.59-1.185,1.036-2.034,1.339l-0.546,0.195
		L263.232,225.694 M256.303,225.694c-0.139,0-0.208-0.069-0.208-0.208v-0.325c0-0.147,0.091-0.256,0.273-0.325l0.533-0.208
		c0.667-0.26,1.177-0.619,1.527-1.079c0.351-0.459,0.527-1.144,0.527-2.054c0-0.65-0.078-1.161-0.234-1.534
		c-0.156-0.372-0.414-0.641-0.774-0.806c-0.36-0.165-0.851-0.247-1.475-0.247h-2.314l-0.208-0.078l-0.078-0.208v-0.182l0.078-0.208
		l0.208-0.078h2.379c0.806,0,1.441,0.11,1.904,0.331c0.464,0.221,0.797,0.579,1.001,1.073c0.204,0.494,0.306,1.17,0.306,2.028
		c0,1.118-0.253,1.972-0.76,2.561c-0.507,0.59-1.185,1.036-2.034,1.339l-0.546,0.195L256.303,225.694 M248.555,225.694
		c-0.139,0-0.208-0.069-0.208-0.208v-0.325c0-0.147,0.091-0.256,0.273-0.325l0.533-0.208c0.667-0.26,1.176-0.619,1.527-1.079
		c0.351-0.459,0.527-1.144,0.527-2.054c0-0.65-0.078-1.161-0.234-1.534c-0.156-0.372-0.414-0.641-0.773-0.806
		c-0.36-0.165-0.852-0.247-1.476-0.247h-0.442h-0.039l-1.014-0.013l-0.208-0.071l-0.078-0.202v-1.989l0.078-0.208l0.208-0.078h0.221
		l0.208,0.078l0.078,0.208v1.521h1.053c0.806,0,1.441,0.11,1.905,0.331c0.464,0.221,0.797,0.579,1.001,1.073
		c0.203,0.494,0.305,1.17,0.305,2.028c0,1.118-0.253,1.972-0.76,2.561c-0.507,0.59-1.185,1.036-2.034,1.339l-0.546,0.195
		L248.555,225.694 M228.561,225.694c-0.139,0-0.208-0.069-0.208-0.208v-0.325c0-0.147,0.091-0.256,0.273-0.325l0.533-0.208
		c0.667-0.26,1.176-0.619,1.527-1.079c0.351-0.459,0.527-1.144,0.527-2.054c0-0.65-0.078-1.161-0.234-1.534
		c-0.156-0.372-0.414-0.641-0.773-0.806c-0.36-0.165-0.852-0.247-1.475-0.247h-0.442h-0.039l-1.014-0.013l-0.208-0.071l-0.078-0.202
		v-1.989l0.078-0.208l0.208-0.078h0.221l0.208,0.078l0.078,0.208v1.521h1.053c0.806,0,1.441,0.11,1.904,0.331
		c0.464,0.221,0.797,0.579,1.001,1.073c0.204,0.494,0.306,1.17,0.306,2.028c0,1.118-0.253,1.972-0.76,2.561
		c-0.507,0.59-1.185,1.036-2.035,1.339l-0.546,0.195L228.561,225.694 M155.606,225.694c-0.139,0-0.208-0.069-0.208-0.208v-0.325
		c0-0.147,0.091-0.256,0.273-0.325l0.533-0.208c0.667-0.26,1.176-0.619,1.527-1.079c0.351-0.459,0.527-1.144,0.527-2.054
		c0-0.65-0.078-1.161-0.234-1.534c-0.156-0.372-0.414-0.641-0.773-0.806c-0.36-0.165-0.852-0.247-1.475-0.247h-2.314l-0.208-0.078
		l-0.078-0.208v-0.182l0.078-0.208l0.208-0.078h2.379c0.806,0,1.441,0.11,1.904,0.331c0.464,0.221,0.797,0.579,1.001,1.073
		c0.204,0.494,0.306,1.17,0.306,2.028c0,1.118-0.253,1.972-0.76,2.561c-0.507,0.59-1.185,1.036-2.035,1.339l-0.546,0.195
		L155.606,225.694 M133.221,225.694c-0.139,0-0.208-0.069-0.208-0.208v-0.325c0-0.147,0.091-0.256,0.273-0.325l0.533-0.208
		c0.667-0.26,1.176-0.619,1.527-1.079c0.351-0.459,0.527-1.144,0.527-2.054c0-0.65-0.078-1.161-0.234-1.534
		c-0.156-0.372-0.414-0.641-0.774-0.806c-0.36-0.165-0.851-0.247-1.475-0.247h-0.442h-0.039l-1.014-0.013l-0.208-0.071l-0.078-0.202
		v-1.989l0.078-0.208l0.208-0.078h0.221l0.208,0.078l0.078,0.208v1.521h1.053c0.806,0,1.441,0.11,1.904,0.331
		c0.464,0.221,0.797,0.579,1.001,1.073c0.204,0.494,0.306,1.17,0.306,2.028c0,1.118-0.253,1.972-0.76,2.561
		c-0.507,0.59-1.185,1.036-2.034,1.339l-0.546,0.195L133.221,225.694 M85.589,225.694c-0.148,0-0.221-0.069-0.221-0.208v-0.351
		c0-0.147,0.091-0.256,0.273-0.325c0.633-0.225,1.083-0.429,1.352-0.611c0.329-0.225,0.646-0.539,0.949-0.943
		c0.303-0.403,0.455-0.73,0.455-0.981l-0.195-1.014c-0.113-0.563-0.234-1.01-0.364-1.339c-0.13-0.329-0.301-0.581-0.513-0.754
		c-0.213-0.173-0.492-0.26-0.839-0.26h-0.481l-0.208-0.078l-0.078-0.208v-0.182l0.078-0.208l0.208-0.078h0.481
		c0.503,0,0.914,0.113,1.235,0.338c0.321,0.225,0.576,0.557,0.767,0.994c0.191,0.438,0.36,1.008,0.507,1.71l0.793,4.095v0.039
		l-0.085,0.176l-0.201,0.071h-0.221c-0.148,0-0.243-0.095-0.286-0.286l-0.338-1.729c-0.165,0.277-0.353,0.535-0.566,0.773
		c-0.212,0.239-0.427,0.431-0.643,0.579c-0.312,0.217-0.607,0.384-0.884,0.501c-0.277,0.117-0.572,0.206-0.884,0.266L85.589,225.694
		 M234.385,225.577h-0.221l-0.208-0.078l-0.078-0.208v-6.851l0.078-0.208l0.208-0.078h0.221l0.208,0.078l0.078,0.208v6.851
		l-0.078,0.208L234.385,225.577 M225.012,225.577h-0.221l-0.208-0.078l-0.078-0.208v-3.9c0-1.655-0.828-2.483-2.483-2.483h-1.742
		v6.383l-0.078,0.208l-0.208,0.078h-0.221l-0.208-0.078l-0.078-0.208v-6.851l0.078-0.208l0.208-0.078h2.314
		c1.083,0,1.889,0.271,2.418,0.813c0.529,0.542,0.793,1.328,0.793,2.36v3.965l-0.078,0.208L225.012,225.577 M217.095,225.577h-0.221
		l-0.208-0.078l-0.078-0.208v-3.9c0-1.655-0.828-2.483-2.483-2.483h-0.988c-0.087,0.624-0.15,1.127-0.188,1.508
		c-0.039,0.382-0.054,0.815-0.046,1.3v3.575l-0.078,0.208l-0.208,0.078l-1.482-0.026l-0.208-0.078l-0.078-0.208v-0.182l0.078-0.208
		l0.208-0.078l0.975,0.013v-3.029v-0.403c0-0.476,0.017-0.895,0.052-1.254c0.035-0.36,0.1-0.765,0.195-1.216h-0.663l-0.208-0.078
		l-0.078-0.208v-0.182l0.078-0.208l0.208-0.078h2.496c1.083,0,1.889,0.271,2.418,0.813c0.529,0.542,0.793,1.328,0.793,2.36v3.965
		l-0.078,0.208L217.095,225.577 M208.711,225.577h-0.221l-0.208-0.078l-0.078-0.208v-6.851l0.078-0.208l0.208-0.078h0.221
		l0.208,0.078l0.078,0.208v6.851l-0.078,0.208L208.711,225.577 M195.685,225.577h-0.247l-0.176-0.045l-0.15-0.149l-3.211-4.472
		c-0.425,0.303-0.713,0.654-0.864,1.053c-0.152,0.399-0.228,0.841-0.228,1.326v2.002l-0.078,0.208l-0.208,0.078h-0.221l-0.208-0.078
		l-0.078-0.208v-2.067c0-0.615,0.097-1.164,0.292-1.644c0.195-0.481,0.579-0.908,1.151-1.281l-1.157-1.625
		c-0.07-0.104-0.104-0.19-0.104-0.26l0.078-0.182l0.182-0.078h0.247c0.121,0,0.23,0.065,0.325,0.195l2.938,4.095
		c0.364-0.199,0.628-0.405,0.793-0.617c0.165-0.212,0.267-0.427,0.306-0.643c0.039-0.217,0.059-0.507,0.059-0.871v-1.872
		l0.078-0.208l0.208-0.078h0.221l0.208,0.078l0.078,0.208v1.937c0,0.399-0.035,0.743-0.104,1.033
		c-0.069,0.291-0.214,0.572-0.435,0.845c-0.221,0.273-0.548,0.535-0.982,0.787l1.443,2.015c0.069,0.104,0.104,0.191,0.104,0.26
		l-0.078,0.182L195.685,225.577 M187.989,225.577h-0.221l-0.208-0.078l-0.078-0.208v-3.9c0-1.655-0.828-2.483-2.483-2.483h-0.988
		c-0.087,0.624-0.15,1.127-0.188,1.508c-0.039,0.382-0.054,0.815-0.046,1.3v3.575l-0.078,0.208l-0.208,0.078l-1.482-0.026
		l-0.208-0.078l-0.078-0.208v-0.182l0.078-0.208l0.208-0.078l0.975,0.013v-3.029v-0.403c0-0.476,0.017-0.895,0.052-1.254
		c0.035-0.36,0.1-0.765,0.195-1.216h-0.663l-0.208-0.078l-0.078-0.208v-0.182l0.078-0.208l0.208-0.078h2.496
		c1.083,0,1.889,0.271,2.418,0.813c0.529,0.542,0.793,1.328,0.793,2.36v3.965l-0.078,0.208L187.989,225.577 M176.328,225.577h-0.221
		l-0.208-0.078l-0.078-0.208v-3.9c0-1.655-0.828-2.483-2.483-2.483h-2.236l-0.208-0.078l-0.078-0.208v-0.182l0.078-0.208
		l0.208-0.078h2.301c1.083,0,1.889,0.271,2.418,0.813c0.529,0.542,0.793,1.328,0.793,2.36v3.965l-0.078,0.208L176.328,225.577
		 M171.323,225.577h-0.221l-0.208-0.078l-0.078-0.208v-4.563l0.078-0.208l0.208-0.078h0.221l0.208,0.078l0.078,0.208v4.563
		l-0.078,0.208L171.323,225.577 M165.655,225.577h-0.221l-0.208-0.078l-0.078-0.208v-3.9c0-1.655-0.828-2.483-2.483-2.483h-1.586
		l-0.208-0.078l-0.078-0.208v-0.182l0.078-0.208l0.208-0.078h1.651c1.083,0,1.889,0.271,2.418,0.813
		c0.529,0.542,0.793,1.328,0.793,2.36v3.965l-0.078,0.208L165.655,225.577 M150.705,225.577h-0.221l-0.208-0.078l-0.078-0.208
		v-6.851l0.078-0.208l0.208-0.078h0.221l0.208,0.078l0.078,0.208v6.851l-0.078,0.208L150.705,225.577 M147.806,225.577h-0.221
		l-0.208-0.078l-0.078-0.208v-3.9c0-1.655-0.828-2.483-2.483-2.483h-0.988c-0.087,0.624-0.149,1.127-0.188,1.508
		c-0.039,0.382-0.054,0.815-0.045,1.3v3.575l-0.078,0.208l-0.208,0.078l-1.482-0.026l-0.208-0.078l-0.078-0.208v-0.182l0.078-0.208
		l0.208-0.078l0.975,0.013v-3.029v-0.403c0-0.476,0.017-0.895,0.052-1.254c0.035-0.36,0.1-0.765,0.195-1.216h-0.663l-0.208-0.078
		l-0.078-0.208v-0.182l0.078-0.208l0.208-0.078h2.496c1.083,0,1.889,0.271,2.418,0.813c0.529,0.542,0.793,1.328,0.793,2.36v3.965
		l-0.078,0.208L147.806,225.577 M129.672,225.577h-0.221l-0.208-0.078l-0.078-0.208v-3.9c0-1.655-0.828-2.483-2.483-2.483h-1.742
		v6.383l-0.078,0.208l-0.208,0.078h-0.221l-0.208-0.078l-0.078-0.208v-6.851l0.078-0.208l0.208-0.078h2.314
		c1.083,0,1.889,0.271,2.418,0.813c0.529,0.542,0.793,1.328,0.793,2.36v3.965l-0.078,0.208L129.672,225.577 M121.755,225.577h-0.221
		l-0.208-0.078l-0.078-0.208v-3.9c0-1.655-0.828-2.483-2.483-2.483h-0.988c-0.087,0.624-0.15,1.127-0.188,1.508
		c-0.039,0.382-0.054,0.815-0.045,1.3v3.575l-0.078,0.208l-0.208,0.078l-1.482-0.026l-0.208-0.078l-0.078-0.208v-0.182l0.078-0.208
		l0.208-0.078l0.975,0.013v-3.029v-0.403c0-0.476,0.017-0.895,0.052-1.254c0.035-0.36,0.1-0.765,0.195-1.216h-0.663l-0.208-0.078
		l-0.078-0.208v-0.182l0.078-0.208l0.208-0.078h2.496c1.083,0,1.889,0.271,2.418,0.813c0.529,0.542,0.793,1.328,0.793,2.36v3.965
		l-0.078,0.208L121.755,225.577 M107.975,225.577h-1.911l-0.208-0.078l-0.078-0.208v-0.182l0.078-0.208l0.208-0.078h1.846
		c0.849,0,1.467-0.21,1.853-0.631c0.386-0.42,0.596-1.038,0.63-1.852c0.009-0.13,0.013-0.29,0.013-0.481
		c0-0.182-0.004-0.338-0.013-0.468c-0.026-0.815-0.234-1.432-0.624-1.852c-0.39-0.42-1.01-0.631-1.859-0.631h-1.846l-0.208-0.078
		l-0.078-0.208v-0.182l0.078-0.208l0.208-0.078h1.911c1.075,0,1.87,0.269,2.385,0.806c0.516,0.537,0.791,1.326,0.825,2.366
		c0.009,0.13,0.013,0.308,0.013,0.533c0,0.234-0.005,0.416-0.013,0.546c-0.035,1.04-0.31,1.829-0.825,2.366
		C109.845,225.309,109.049,225.577,107.975,225.577 M103.282,225.577h-0.221l-0.208-0.078l-0.078-0.208v-6.851l0.078-0.208
		l0.208-0.078h0.221l0.208,0.078l0.078,0.208v6.851l-0.078,0.208L103.282,225.577 M100.383,225.577h-0.221l-0.208-0.078
		l-0.078-0.208v-3.9c0-1.655-0.828-2.483-2.483-2.483h-0.988c-0.087,0.624-0.15,1.127-0.188,1.508
		c-0.039,0.382-0.054,0.815-0.045,1.3v3.575l-0.078,0.208l-0.208,0.078l-1.482-0.026l-0.208-0.078l-0.078-0.208v-0.182l0.078-0.208
		l0.208-0.078l0.975,0.013v-3.029v-0.403c0-0.476,0.017-0.895,0.052-1.254c0.035-0.36,0.1-0.765,0.195-1.216h-0.663l-0.208-0.078
		l-0.078-0.208v-0.182l0.078-0.208l0.208-0.078h2.496c1.083,0,1.889,0.271,2.418,0.813c0.529,0.542,0.793,1.328,0.793,2.36v3.965
		l-0.078,0.208L100.383,225.577 M75.111,225.577H74.89l-0.208-0.078l-0.078-0.208v-6.851l0.078-0.208l0.208-0.078h0.221l0.208,0.078
		l0.078,0.208v6.851l-0.078,0.208L75.111,225.577 M72.212,225.577h-0.221l-0.208-0.078l-0.078-0.208v-3.9
		c0-1.655-0.828-2.483-2.483-2.483h-0.988c-0.087,0.624-0.149,1.127-0.188,1.508c-0.039,0.382-0.054,0.815-0.045,1.3v3.575
		l-0.078,0.208l-0.208,0.078l-1.482-0.026l-0.208-0.078l-0.078-0.208v-0.182l0.078-0.208l0.208-0.078l0.975,0.013v-3.029v-0.403
		c0-0.476,0.017-0.895,0.052-1.254c0.035-0.36,0.1-0.765,0.195-1.216h-0.663l-0.208-0.078l-0.078-0.208v-0.182l0.078-0.208
		l0.208-0.078h2.496c1.083,0,1.889,0.271,2.418,0.813c0.529,0.542,0.793,1.328,0.793,2.36v3.965l-0.078,0.208L72.212,225.577
		 M168.45,222.587h-0.221l-0.208-0.078l-0.078-0.208v-3.861l0.078-0.208l0.208-0.078h0.221l0.208,0.078l0.078,0.208v3.861
		l-0.078,0.208L168.45,222.587 M113.474,222.587h-0.221l-0.208-0.078l-0.078-0.208v-3.861l0.078-0.208l0.208-0.078h0.221
		l0.208,0.078l0.078,0.208v3.861l-0.078,0.208L113.474,222.587"/>
	<path fill="#000000" d="M283.529,248.146h-6.227l-0.221-0.091l-0.091-0.221v-0.676c0-0.243,0.108-0.446,0.325-0.611l2.028-2.015
		c0.615-0.485,1.09-0.882,1.424-1.189c0.333-0.308,0.583-0.592,0.747-0.852c0.165-0.26,0.247-0.516,0.247-0.767
		c0-0.407-0.108-0.728-0.325-0.962c-0.217-0.234-0.546-0.351-0.988-0.351c-0.434,0-0.774,0.128-1.021,0.384
		c-0.247,0.256-0.401,0.587-0.461,0.995c-0.026,0.104-0.076,0.18-0.15,0.227l-0.241,0.072h-1.17l-0.195-0.078l-0.078-0.195
		c0.017-0.511,0.158-0.99,0.422-1.437c0.264-0.446,0.644-0.806,1.138-1.079c0.494-0.273,1.075-0.409,1.742-0.409
		c0.693,0,1.283,0.119,1.768,0.357c0.485,0.239,0.849,0.566,1.092,0.981c0.243,0.416,0.364,0.888,0.364,1.417
		c0,0.581-0.163,1.107-0.487,1.579c-0.325,0.472-0.83,0.977-1.515,1.515l-1.807,1.833h3.679c0.095,0,0.173,0.031,0.234,0.091
		c0.061,0.061,0.091,0.139,0.091,0.234v0.936c0,0.095-0.03,0.171-0.091,0.227C283.702,248.118,283.624,248.146,283.529,248.146"/>
	<path fill="#000000" d="M233.748,248.276c-1.031,0-1.803-0.275-2.314-0.825c-0.512-0.55-0.767-1.354-0.767-2.412v-4.03l0.078-0.208
		l0.208-0.078h3.055c1.075,0,1.846,0.247,2.314,0.741c0.468,0.494,0.723,1.261,0.767,2.301c0.009,0.087,0.013,0.329,0.013,0.728
		c0,0.407-0.005,0.654-0.013,0.741c-0.026,1.031-0.303,1.796-0.832,2.295C235.728,248.027,234.892,248.276,233.748,248.276
		 M231.46,241.477v3.562c0,0.798,0.19,1.411,0.572,1.84c0.381,0.429,0.953,0.643,1.716,0.643c0.893,0,1.536-0.193,1.931-0.578
		c0.394-0.386,0.6-0.977,0.617-1.775c0.009-0.087,0.013-0.312,0.013-0.676c0-0.355-0.004-0.576-0.013-0.663
		c-0.017-0.762-0.238-1.345-0.663-1.748c-0.425-0.403-0.988-0.605-1.69-0.605H231.46 M219.188,248.276
		c-1.031,0-1.803-0.275-2.314-0.825c-0.511-0.55-0.767-1.354-0.767-2.412v-4.03l0.078-0.208l0.208-0.078h3.055
		c1.075,0,1.846,0.247,2.314,0.741c0.468,0.494,0.724,1.261,0.767,2.301c0.009,0.087,0.013,0.329,0.013,0.728
		c0,0.407-0.004,0.654-0.013,0.741c-0.026,1.031-0.303,1.796-0.832,2.295C221.169,248.027,220.332,248.276,219.188,248.276
		 M216.9,241.477v3.562c0,0.798,0.19,1.411,0.572,1.84c0.381,0.429,0.953,0.643,1.716,0.643c0.892,0,1.536-0.193,1.931-0.578
		c0.394-0.386,0.6-0.977,0.617-1.775c0.009-0.087,0.013-0.312,0.013-0.676c0-0.355-0.004-0.576-0.013-0.663
		c-0.018-0.762-0.239-1.345-0.663-1.748c-0.425-0.403-0.988-0.605-1.69-0.605H216.9 M181.528,248.276
		c-1.031,0-1.803-0.275-2.314-0.825c-0.512-0.55-0.767-1.354-0.767-2.412v-4.03l0.078-0.208l0.208-0.078h3.055
		c1.075,0,1.846,0.247,2.314,0.741c0.468,0.494,0.724,1.261,0.767,2.301c0.009,0.087,0.013,0.329,0.013,0.728
		c0,0.407-0.005,0.654-0.013,0.741c-0.026,1.031-0.303,1.796-0.832,2.295C183.508,248.027,182.672,248.276,181.528,248.276
		 M179.24,241.477v3.562c0,0.798,0.19,1.411,0.572,1.84c0.381,0.429,0.953,0.643,1.716,0.643c0.893,0,1.536-0.193,1.931-0.578
		c0.394-0.386,0.6-0.977,0.617-1.775c0.009-0.087,0.013-0.312,0.013-0.676c0-0.355-0.004-0.576-0.013-0.663
		c-0.017-0.762-0.239-1.345-0.663-1.748c-0.425-0.403-0.988-0.605-1.69-0.605H179.24 M263.232,248.263
		c-0.139,0-0.208-0.07-0.208-0.208v-0.325c0-0.147,0.091-0.255,0.273-0.325l0.533-0.208c0.667-0.26,1.176-0.62,1.527-1.079
		c0.351-0.459,0.527-1.144,0.527-2.054c0-0.65-0.078-1.161-0.234-1.534c-0.156-0.373-0.414-0.641-0.773-0.806
		c-0.36-0.165-0.852-0.247-1.476-0.247h-0.442h-0.039l-1.014-0.013l-0.208-0.072l-0.078-0.201v-1.989l0.078-0.208l0.208-0.078h0.221
		l0.208,0.078l0.078,0.208v1.521h1.053c0.806,0,1.441,0.111,1.905,0.332c0.464,0.221,0.797,0.578,1.001,1.072
		c0.203,0.494,0.306,1.17,0.306,2.028c0,1.118-0.253,1.972-0.761,2.561c-0.507,0.59-1.185,1.036-2.034,1.339l-0.546,0.195
		L263.232,248.263 M195.152,248.263c-0.139,0-0.208-0.07-0.208-0.208v-0.325c0-0.147,0.091-0.255,0.273-0.325l0.533-0.208
		c0.667-0.26,1.176-0.62,1.527-1.079c0.351-0.459,0.527-1.144,0.527-2.054c0-0.65-0.078-1.161-0.234-1.534
		c-0.156-0.373-0.414-0.641-0.773-0.806c-0.36-0.165-0.852-0.247-1.475-0.247h-0.442h-0.039l-1.014-0.013l-0.208-0.072l-0.078-0.201
		v-1.989l0.078-0.208l0.208-0.078h0.221l0.208,0.078l0.078,0.208v1.521h1.053c0.806,0,1.441,0.111,1.904,0.332
		c0.464,0.221,0.797,0.578,1.001,1.072c0.204,0.494,0.306,1.17,0.306,2.028c0,1.118-0.253,1.972-0.76,2.561
		c-0.507,0.59-1.185,1.036-2.035,1.339l-0.546,0.195L195.152,248.263 M259.683,248.146h-0.221l-0.208-0.078l-0.078-0.208v-3.9
		c0-1.655-0.828-2.483-2.483-2.483h-2.236l-0.208-0.078l-0.078-0.208v-0.182l0.078-0.208l0.208-0.078h2.301
		c1.083,0,1.889,0.271,2.418,0.813c0.529,0.542,0.793,1.328,0.793,2.36v3.965l-0.078,0.208L259.683,248.146 M254.678,248.146h-0.221
		l-0.208-0.078l-0.078-0.208v-4.563l0.078-0.208l0.208-0.078h0.221l0.208,0.078l0.078,0.208v4.563l-0.078,0.208L254.678,248.146
		 M249.075,248.146h-1.911l-0.208-0.078l-0.078-0.208v-0.182l0.078-0.208l0.208-0.078h1.846c0.849,0,1.467-0.21,1.852-0.63
		c0.386-0.42,0.596-1.038,0.631-1.853c0.008-0.13,0.013-0.29,0.013-0.481c0-0.182-0.005-0.338-0.013-0.468
		c-0.026-0.815-0.234-1.432-0.624-1.852c-0.39-0.42-1.01-0.631-1.859-0.631h-1.846l-0.208-0.078l-0.078-0.208v-0.182l0.078-0.208
		l0.208-0.078h1.911c1.074,0,1.87,0.269,2.385,0.806c0.516,0.537,0.791,1.326,0.825,2.366c0.009,0.13,0.013,0.308,0.013,0.533
		c0,0.234-0.004,0.416-0.013,0.546c-0.035,1.04-0.31,1.829-0.825,2.366C250.945,247.878,250.149,248.146,249.075,248.146
		 M244.785,248.146h-3.224l-0.208-0.078l-0.078-0.208v-0.182l0.078-0.208l0.208-0.078h2.691l-0.247-3.562l-0.013-0.273
		c-0.035-0.52-0.078-0.914-0.13-1.183c-0.052-0.269-0.165-0.485-0.338-0.65c-0.173-0.165-0.438-0.247-0.793-0.247h-0.481
		l-0.208-0.078l-0.078-0.208v-0.182l0.078-0.208l0.208-0.078h0.481c0.581,0,1.012,0.126,1.294,0.377
		c0.282,0.251,0.468,0.576,0.559,0.975c0.091,0.399,0.163,0.962,0.214,1.69l0.273,4.095v0.039l-0.085,0.176L244.785,248.146
		 M224.921,248.146H224.7l-0.208-0.078l-0.078-0.208v-6.851l0.078-0.208l0.208-0.078h0.221l0.208,0.078l0.078,0.208v6.851
		l-0.078,0.208L224.921,248.146 M211.025,248.146h-0.221l-0.208-0.078l-0.078-0.208v-3.9c0-1.655-0.828-2.483-2.483-2.483h-1.586
		l-0.208-0.078l-0.078-0.208v-0.182l0.078-0.208l0.208-0.078h1.651c1.083,0,1.889,0.271,2.418,0.813
		c0.529,0.542,0.793,1.328,0.793,2.36v3.965l-0.078,0.208L211.025,248.146 M200.976,248.146h-0.221l-0.208-0.078l-0.078-0.208
		v-6.851l0.078-0.208l0.208-0.078h0.221l0.208,0.078l0.078,0.208v6.851l-0.078,0.208L200.976,248.146 M188.821,248.146h-1.911
		l-0.208-0.078l-0.078-0.208v-0.182l0.078-0.208l0.208-0.078h1.846c0.849,0,1.467-0.21,1.853-0.63
		c0.386-0.42,0.596-1.038,0.63-1.853c0.009-0.13,0.013-0.29,0.013-0.481c0-0.182-0.004-0.338-0.013-0.468
		c-0.026-0.815-0.234-1.432-0.624-1.852c-0.39-0.42-1.01-0.631-1.859-0.631h-1.846l-0.208-0.078l-0.078-0.208v-0.182l0.078-0.208
		l0.208-0.078h1.911c1.075,0,1.87,0.269,2.385,0.806c0.516,0.537,0.791,1.326,0.825,2.366c0.009,0.13,0.013,0.308,0.013,0.533
		c0,0.234-0.005,0.416-0.013,0.546c-0.035,1.04-0.31,1.829-0.825,2.366C190.691,247.878,189.895,248.146,188.821,248.146
		 M176.055,248.146h-0.221l-0.208-0.078l-0.078-0.208v-6.851l0.078-0.208l0.208-0.078h0.221l0.208,0.078l0.078,0.208v6.851
		l-0.078,0.208L176.055,248.146 M173.156,248.146h-0.221l-0.208-0.078l-0.078-0.208v-3.9c0-1.655-0.828-2.483-2.483-2.483h-0.988
		c-0.087,0.624-0.15,1.127-0.188,1.508c-0.039,0.382-0.054,0.815-0.045,1.3v3.575l-0.078,0.208l-0.208,0.078l-1.482-0.026
		l-0.208-0.078l-0.078-0.208v-0.182l0.078-0.208l0.208-0.078l0.975,0.013v-3.029v-0.403c0-0.476,0.017-0.895,0.052-1.254
		c0.035-0.36,0.1-0.765,0.195-1.216h-0.663l-0.208-0.078l-0.078-0.208v-0.182l0.078-0.208l0.208-0.078h2.496
		c1.083,0,1.889,0.271,2.418,0.813c0.529,0.542,0.793,1.328,0.793,2.36v3.965l-0.078,0.208L173.156,248.146 M162.34,248.146h-5.2
		l-0.208-0.078l-0.078-0.208v-0.182l0.078-0.208l0.208-0.078h3.913v-3.432c0-1.655-0.828-2.483-2.483-2.483h-1.3l-0.208-0.078
		l-0.078-0.208v-0.182l0.078-0.208l0.208-0.078h1.365c1.083,0,1.889,0.273,2.418,0.819c0.529,0.546,0.793,1.33,0.793,2.353v3.497
		h0.494l0.208,0.078l0.078,0.208v0.182l-0.078,0.208L162.34,248.146 M154.8,248.146h-3.289l-0.208-0.078l-0.078-0.208v-0.182
		l0.078-0.208l0.208-0.078h2.782v-3.432c0-0.476-0.085-0.905-0.253-1.287c-0.169-0.381-0.403-0.676-0.702-0.884
		c-0.299-0.208-0.635-0.312-1.008-0.312h-1.508l-0.962,6.37l-0.111,0.214l-0.215,0.085h-0.234l-0.182-0.085l-0.052-0.214l0.949-6.37
		h-0.585l-0.208-0.078l-0.078-0.208v-0.182l0.078-0.208l0.208-0.078h2.964c0.52,0,0.984,0.13,1.391,0.39
		c0.407,0.26,0.726,0.63,0.956,1.111c0.23,0.481,0.344,1.038,0.344,1.671v3.965l-0.078,0.208L154.8,248.146 M144.218,248.146h-5.226
		l-0.208-0.078l-0.078-0.208v-6.851l0.078-0.208l0.208-0.078h2.301c1.083,0,1.889,0.271,2.418,0.813
		c0.529,0.542,0.793,1.328,0.793,2.36v3.965l-0.078,0.208L144.218,248.146 M139.486,241.477v5.915h4.225v-3.432
		c0-1.655-0.828-2.483-2.483-2.483H139.486 M239.377,245.156h-0.221l-0.208-0.078l-0.078-0.208v-3.861l0.078-0.208l0.208-0.078
		h0.221l0.208,0.078l0.078,0.208v3.861l-0.078,0.208L239.377,245.156 M213.82,245.156h-0.221l-0.208-0.078l-0.078-0.208v-3.861
		l0.078-0.208l0.208-0.078h0.221l0.208,0.078l0.078,0.208v3.861l-0.078,0.208L213.82,245.156 M147.013,245.156h-0.221l-0.208-0.078
		l-0.078-0.208v-3.861l0.078-0.208l0.208-0.078h0.221l0.208,0.078l0.078,0.208v3.861l-0.078,0.208L147.013,245.156"/>
	<path fill="#000000" d="M280.318,270.846c-0.771,0-1.424-0.121-1.956-0.364c-0.533-0.243-0.932-0.548-1.196-0.916
		c-0.264-0.368-0.405-0.747-0.423-1.137l0.078-0.195l0.195-0.078h1.196c0.19,0,0.321,0.087,0.39,0.26
		c0.19,0.616,0.762,0.923,1.716,0.923c0.529,0,0.943-0.121,1.241-0.364c0.299-0.243,0.449-0.589,0.449-1.04
		c0-0.451-0.137-0.778-0.41-0.982c-0.273-0.203-0.674-0.306-1.202-0.306h-1.339l-0.221-0.091l-0.091-0.221v-0.559
		c0-0.165,0.056-0.295,0.169-0.39l2.314-2.262h-3.705c-0.095,0-0.173-0.03-0.234-0.091l-0.091-0.221v-0.871
		c0-0.095,0.03-0.173,0.091-0.234c0.061-0.061,0.139-0.091,0.234-0.091h5.59c0.095,0,0.173,0.03,0.234,0.091
		c0.061,0.061,0.091,0.139,0.091,0.234v0.793c0,0.148-0.056,0.269-0.169,0.364l-2.236,2.301l0.156,0.013
		c0.832,0.069,1.493,0.321,1.982,0.754c0.49,0.433,0.735,1.053,0.735,1.859c0,0.572-0.154,1.07-0.461,1.495
		c-0.308,0.425-0.732,0.752-1.274,0.981S281.011,270.846,280.318,270.846"/>
	<path fill="#000000" d="M101.565,273.199h-0.221l-0.208-0.078l-0.078-0.208v-7.046l0.078-0.208l0.208-0.078h0.221l0.208,0.078
		l0.078,0.208v7.046l-0.078,0.208L101.565,273.199 M134.65,272.328h-0.221l-0.208-0.078l-0.078-0.208v-5.512
		c0-1.655-0.832-2.483-2.496-2.483h-1.846l-0.208-0.078l-0.078-0.208v-0.182l0.078-0.208l0.208-0.078h1.911
		c1.092,0,1.902,0.264,2.431,0.793c0.529,0.529,0.793,1.322,0.793,2.379v5.577l-0.078,0.208L134.65,272.328 M192.044,271.457
		l-0.176-0.065l-0.072-0.156v-0.169c0-0.199,0.061-0.321,0.182-0.364l1.781-0.65l-1.729-6.24c-0.043-0.147-0.065-0.234-0.065-0.26
		l0.078-0.182l0.182-0.078h0.234l0.195,0.059l0.104,0.136l1.781,6.279l0.13-0.052c0.71-0.26,1.209-0.633,1.495-1.118
		c0.286-0.485,0.429-1.075,0.429-1.768v-3.25l0.078-0.208l0.208-0.078h0.221l0.208,0.078l0.078,0.208v3.51
		c0,0.728-0.234,1.404-0.702,2.028c-0.468,0.624-1.088,1.075-1.859,1.352l-2.665,0.962L192.044,271.457 M173.559,271.457
		l-0.175-0.065l-0.071-0.156v-0.169c0-0.199,0.06-0.321,0.182-0.364l1.781-0.65l-1.729-6.24c-0.043-0.147-0.065-0.234-0.065-0.26
		l0.078-0.182l0.182-0.078h0.234l0.195,0.059l0.104,0.136l1.781,6.279l0.13-0.052c0.711-0.26,1.209-0.633,1.495-1.118
		c0.286-0.485,0.429-1.075,0.429-1.768v-3.25l0.078-0.208l0.208-0.078h0.221l0.208,0.078l0.078,0.208v3.51
		c0,0.728-0.234,1.404-0.702,2.028c-0.468,0.624-1.088,1.075-1.859,1.352l-2.665,0.962L173.559,271.457 M263.232,270.833
		c-0.139,0-0.208-0.069-0.208-0.208V270.3c0-0.147,0.091-0.255,0.273-0.325l0.533-0.208c0.667-0.26,1.176-0.619,1.527-1.079
		c0.351-0.459,0.527-1.144,0.527-2.054c0-0.65-0.078-1.161-0.234-1.534c-0.156-0.373-0.414-0.641-0.773-0.806
		c-0.36-0.165-0.852-0.247-1.476-0.247h-0.442h-0.039l-1.014-0.013l-0.208-0.072l-0.078-0.201v-1.989l0.078-0.208l0.208-0.078h0.221
		l0.208,0.078l0.078,0.208v1.521h1.053c0.806,0,1.441,0.111,1.905,0.331c0.464,0.221,0.797,0.579,1.001,1.073
		c0.203,0.494,0.306,1.17,0.306,2.028c0,1.118-0.253,1.972-0.761,2.561c-0.507,0.589-1.185,1.036-2.034,1.339l-0.546,0.195
		L263.232,270.833 M240.963,270.833c-0.139,0-0.208-0.069-0.208-0.208V270.3c0-0.147,0.091-0.255,0.273-0.325l0.533-0.208
		c0.667-0.26,1.176-0.619,1.527-1.079c0.351-0.459,0.527-1.144,0.527-2.054c0-0.65-0.078-1.161-0.234-1.534
		c-0.156-0.373-0.414-0.641-0.774-0.806c-0.36-0.165-0.851-0.247-1.475-0.247h-0.442h-0.039l-1.014-0.013l-0.208-0.072l-0.078-0.201
		v-1.989l0.078-0.208l0.208-0.078h0.221l0.208,0.078l0.078,0.208v1.521h1.053c0.806,0,1.441,0.111,1.904,0.331
		c0.464,0.221,0.797,0.579,1.001,1.073c0.204,0.494,0.306,1.17,0.306,2.028c0,1.118-0.253,1.972-0.76,2.561
		c-0.507,0.589-1.185,1.036-2.034,1.339l-0.546,0.195L240.963,270.833 M158.206,270.833c-0.139,0-0.208-0.069-0.208-0.208V270.3
		c0-0.147,0.091-0.255,0.273-0.325l0.533-0.208c0.667-0.26,1.176-0.619,1.527-1.079c0.351-0.459,0.527-1.144,0.527-2.054
		c0-0.65-0.078-1.161-0.234-1.534c-0.156-0.373-0.414-0.641-0.774-0.806c-0.36-0.165-0.851-0.247-1.475-0.247h-0.442h-0.039
		l-1.014-0.013l-0.208-0.072l-0.078-0.201v-1.989l0.078-0.208l0.208-0.078h0.221l0.208,0.078l0.078,0.208v1.521h1.053
		c0.806,0,1.441,0.111,1.904,0.331s0.797,0.579,1.001,1.073c0.204,0.494,0.306,1.17,0.306,2.028c0,1.118-0.253,1.972-0.76,2.561
		c-0.507,0.589-1.185,1.036-2.034,1.339l-0.546,0.195L158.206,270.833 M103.489,270.833c-0.139,0-0.208-0.069-0.208-0.208V270.3
		c0-0.147,0.091-0.255,0.273-0.325l0.533-0.208c0.667-0.26,1.176-0.619,1.527-1.079c0.351-0.459,0.527-1.144,0.527-2.054
		c0-0.65-0.078-1.161-0.234-1.534c-0.156-0.373-0.414-0.641-0.773-0.806c-0.36-0.165-0.852-0.247-1.475-0.247h-2.314l-0.208-0.078
		l-0.078-0.208v-0.182l0.078-0.208l0.208-0.078h2.379c0.806,0,1.441,0.111,1.904,0.331c0.464,0.221,0.797,0.579,1.001,1.073
		c0.203,0.494,0.306,1.17,0.306,2.028c0,1.118-0.253,1.972-0.76,2.561c-0.507,0.589-1.185,1.036-2.035,1.339l-0.546,0.195
		L103.489,270.833 M249.948,270.782c-0.039,0-0.079,0-0.119-0.001h-0.871c-0.512,0-0.981-0.128-1.411-0.384
		c-0.429-0.255-0.769-0.622-1.02-1.099c-0.251-0.476-0.377-1.031-0.377-1.664v-4.056l0.078-0.208l0.208-0.078h0.221l0.208,0.078
		l0.078,0.208l0.052,3.887c0.884-0.06,1.504-0.28,1.859-0.657c0.355-0.377,0.533-0.864,0.533-1.462v-1.768l0.078-0.208l0.208-0.078
		h0.221l0.208,0.078l0.078,0.208v1.833c0,0.771-0.264,1.419-0.793,1.944c-0.529,0.525-1.309,0.813-2.34,0.865
		c0.095,0.572,0.347,1.014,0.754,1.326c0.407,0.312,0.914,0.468,1.521,0.468h0.455c0.029,0.001,0.057,0.001,0.085,0.001
		c0.834,0,1.477-0.25,1.93-0.748c0.468-0.516,0.702-1.211,0.702-2.087v-3.601l0.078-0.208l0.208-0.078h0.221l0.208,0.078
		l0.078,0.208v3.692c0,0.72-0.143,1.348-0.429,1.885c-0.286,0.537-0.689,0.947-1.209,1.229
		C251.159,270.65,250.592,270.782,249.948,270.782 M203.162,270.782c-0.039,0-0.079,0-0.119-0.001h-0.871
		c-0.511,0-0.981-0.128-1.41-0.384c-0.429-0.255-0.769-0.622-1.021-1.099c-0.251-0.476-0.377-1.031-0.377-1.664v-4.056l0.078-0.208
		l0.208-0.078h0.221l0.208,0.078l0.078,0.208l0.052,3.887c0.884-0.06,1.503-0.28,1.859-0.657c0.355-0.377,0.533-0.864,0.533-1.462
		v-1.768l0.078-0.208l0.208-0.078h0.221l0.208,0.078l0.078,0.208v1.833c0,0.771-0.265,1.419-0.793,1.944
		c-0.529,0.525-1.309,0.813-2.34,0.865c0.095,0.572,0.347,1.014,0.754,1.326c0.407,0.312,0.914,0.468,1.521,0.468h0.455
		c0.029,0.001,0.057,0.001,0.085,0.001c0.834,0,1.477-0.25,1.93-0.748c0.468-0.516,0.702-1.211,0.702-2.087v-3.601l0.078-0.208
		l0.208-0.078h0.221l0.208,0.078l0.078,0.208v3.692c0,0.72-0.143,1.348-0.429,1.885c-0.286,0.537-0.689,0.947-1.209,1.229
		C204.372,270.65,203.805,270.782,203.162,270.782 M260.411,270.716h-5.2l-0.208-0.078l-0.078-0.208v-0.182l0.078-0.208l0.208-0.078
		h3.913v-3.432c0-1.655-0.828-2.483-2.483-2.483h-1.3l-0.208-0.078l-0.078-0.208v-0.182l0.078-0.208l0.208-0.078h1.365
		c1.083,0,1.889,0.273,2.418,0.819c0.529,0.546,0.793,1.33,0.793,2.353v3.497h0.494l0.208,0.078l0.078,0.208v0.182l-0.078,0.208
		L260.411,270.716 M231.382,270.716h-1.911l-0.208-0.078l-0.078-0.208v-0.182l0.078-0.208l0.208-0.078h1.846
		c0.849,0,1.467-0.21,1.852-0.63c0.386-0.42,0.596-1.038,0.631-1.853c0.008-0.13,0.013-0.29,0.013-0.481
		c0-0.182-0.005-0.338-0.013-0.468c-0.026-0.815-0.234-1.432-0.624-1.853c-0.39-0.42-1.01-0.63-1.859-0.63h-1.846l-0.208-0.078
		l-0.078-0.208v-0.182l0.078-0.208l0.208-0.078h1.911c1.074,0,1.87,0.269,2.385,0.806c0.516,0.537,0.791,1.326,0.825,2.366
		c0.009,0.13,0.013,0.308,0.013,0.533c0,0.234-0.004,0.416-0.013,0.546c-0.035,1.04-0.31,1.829-0.825,2.366
		C233.252,270.447,232.456,270.716,231.382,270.716 M226.767,270.716h-0.221l-0.208-0.078l-0.078-0.208v-3.9
		c0-1.655-0.828-2.483-2.483-2.483h-1.742v6.383l-0.078,0.208l-0.208,0.078h-0.221l-0.208-0.078l-0.078-0.208v-6.851l0.078-0.208
		l0.208-0.078h2.314c1.083,0,1.889,0.271,2.418,0.813c0.529,0.542,0.793,1.328,0.793,2.36v3.965l-0.078,0.208L226.767,270.716
		 M218.993,270.716h-4.485l-0.208-0.078l-0.078-0.208v-0.182l0.078-0.208l0.208-0.078h3.705l-4.173-6.149
		c-0.069-0.104-0.104-0.19-0.104-0.26l0.085-0.182l0.188-0.078h0.234c0.13,0,0.238,0.069,0.325,0.208l2.496,3.627
		c0.849-0.32,1.274-1.083,1.274-2.288v-1.261l0.078-0.208l0.208-0.078h0.221l0.208,0.078l0.078,0.208v1.326
		c0,0.702-0.141,1.289-0.423,1.761c-0.282,0.472-0.695,0.821-1.242,1.047l1.469,2.145c0.095,0.139,0.143,0.269,0.143,0.39v0.182
		l-0.078,0.208L218.993,270.716 M189.873,270.716h-0.221l-0.208-0.078l-0.078-0.208v-3.9c0-1.655-0.828-2.483-2.483-2.483h-2.236
		l-0.208-0.078l-0.078-0.208v-0.182l0.078-0.208l0.208-0.078h2.301c1.083,0,1.889,0.271,2.418,0.813
		c0.529,0.542,0.793,1.328,0.793,2.36v3.965l-0.078,0.208L189.873,270.716 M184.869,270.716h-0.221l-0.208-0.078l-0.078-0.208
		v-4.563l0.078-0.208l0.208-0.078h0.221l0.208,0.078l0.078,0.208v4.563l-0.078,0.208L184.869,270.716 M170.205,270.716h-0.221
		l-0.208-0.078l-0.078-0.208v-4.914c0-0.338,0.032-0.637,0.097-0.897c0.065-0.26,0.15-0.451,0.254-0.572h-3.783l-0.208-0.078
		l-0.078-0.208v-0.182l0.078-0.208l0.208-0.078h5.486l0.208,0.078l0.078,0.208v0.182l-0.078,0.208l-0.208,0.078h-0.832
		c-0.139,0.121-0.245,0.319-0.318,0.592c-0.074,0.273-0.11,0.587-0.11,0.942v4.849l-0.078,0.208L170.205,270.716 M154.657,270.716
		h-0.221l-0.208-0.078l-0.078-0.208v-3.9c0-1.655-0.828-2.483-2.483-2.483h-1.586l-0.208-0.078l-0.078-0.208v-0.182l0.078-0.208
		l0.208-0.078h1.651c1.083,0,1.889,0.271,2.418,0.813c0.529,0.542,0.793,1.328,0.793,2.36v3.965l-0.078,0.208L154.657,270.716
		 M142.242,270.716h-1.911l-0.208-0.078l-0.078-0.208v-0.182l0.078-0.208l0.208-0.078h1.846c0.849,0,1.467-0.21,1.853-0.63
		c0.386-0.42,0.596-1.038,0.63-1.853c0.009-0.13,0.013-0.29,0.013-0.481c0-0.182-0.004-0.338-0.013-0.468
		c-0.026-0.815-0.234-1.432-0.624-1.853c-0.39-0.42-1.01-0.63-1.859-0.63h-1.846l-0.208-0.078l-0.078-0.208v-0.182l0.078-0.208
		l0.208-0.078h1.911c1.075,0,1.87,0.269,2.385,0.806c0.516,0.537,0.791,1.326,0.825,2.366c0.009,0.13,0.013,0.308,0.013,0.533
		c0,0.234-0.005,0.416-0.013,0.546c-0.035,1.04-0.31,1.829-0.825,2.366C144.112,270.447,143.316,270.716,142.242,270.716
		 M137.549,270.716h-0.221l-0.208-0.078l-0.078-0.208v-6.851l0.078-0.208l0.208-0.078h0.221l0.208,0.078l0.078,0.208v6.851
		l-0.078,0.208L137.549,270.716 M124.211,270.716h-0.221l-0.208-0.078l-0.078-0.208v-3.9c0-1.655-0.828-2.483-2.483-2.483h-2.236
		l-0.208-0.078l-0.078-0.208v-0.182l0.078-0.208l0.208-0.078h2.301c1.083,0,1.889,0.271,2.418,0.813
		c0.529,0.542,0.793,1.328,0.793,2.36v3.965l-0.078,0.208L124.211,270.716 M119.206,270.716h-0.221l-0.208-0.078l-0.078-0.208
		v-4.563l0.078-0.208l0.208-0.078h0.221l0.208,0.078l0.078,0.208v4.563l-0.078,0.208L119.206,270.716 M113.538,270.716h-0.221
		l-0.208-0.078l-0.078-0.208v-3.9c0-1.655-0.828-2.483-2.483-2.483h-1.586l-0.208-0.078l-0.078-0.208v-0.182l0.078-0.208
		l0.208-0.078h1.651c1.083,0,1.889,0.271,2.418,0.813c0.529,0.542,0.793,1.328,0.793,2.36v3.965l-0.078,0.208L113.538,270.716
		 M98.589,270.716h-0.221l-0.208-0.078l-0.078-0.208v-6.851l0.078-0.208l0.208-0.078h0.221l0.208,0.078l0.078,0.208v6.851
		l-0.078,0.208L98.589,270.716 M95.69,270.716h-0.221l-0.208-0.078l-0.078-0.208v-3.9c0-1.655-0.828-2.483-2.483-2.483h-0.988
		c-0.087,0.624-0.149,1.127-0.188,1.508c-0.039,0.382-0.054,0.815-0.045,1.3v3.575l-0.078,0.208l-0.208,0.078l-1.482-0.026
		l-0.208-0.078l-0.078-0.208v-0.182l0.078-0.208l0.208-0.078l0.975,0.013v-3.029v-0.403c0-0.477,0.017-0.895,0.052-1.254
		c0.035-0.36,0.1-0.765,0.195-1.216h-0.663l-0.208-0.078l-0.078-0.208v-0.182l0.078-0.208l0.208-0.078h2.496
		c1.083,0,1.889,0.271,2.418,0.813c0.529,0.542,0.793,1.328,0.793,2.36v3.965l-0.078,0.208L95.69,270.716 M212.233,267.726h-0.221
		l-0.208-0.078l-0.078-0.208v-3.861l0.078-0.208l0.208-0.078h0.221l0.208,0.078l0.078,0.208v3.861l-0.078,0.208L212.233,267.726
		 M147.741,267.726h-0.221l-0.208-0.078l-0.078-0.208v-3.861l0.078-0.208l0.208-0.078h0.221l0.208,0.078l0.078,0.208v3.861
		l-0.078,0.208L147.741,267.726 M116.333,267.726h-0.221l-0.208-0.078l-0.078-0.208v-3.861l0.078-0.208l0.208-0.078h0.221
		l0.208,0.078l0.078,0.208v3.861l-0.078,0.208L116.333,267.726"/>
	<path fill="#000000" d="M282.254,293.285h-1.144l-0.221-0.091l-0.091-0.221v-1.664h-4.121l-0.221-0.091l-0.091-0.221V290.1
		c0-0.138,0.047-0.268,0.143-0.39l3.835-5.304l0.195-0.163c0.087-0.039,0.182-0.058,0.286-0.058h1.43
		c0.095,0,0.171,0.028,0.228,0.085c0.056,0.056,0.085,0.132,0.085,0.228v5.265h1.17c0.095,0,0.171,0.028,0.228,0.084
		c0.056,0.057,0.085,0.132,0.085,0.228v0.923l-0.085,0.221c-0.056,0.061-0.132,0.091-0.228,0.091h-1.17v1.664l-0.085,0.221
		C282.426,293.255,282.35,293.285,282.254,293.285 M280.838,286.083l-2.639,3.731h2.639V286.083"/>
	<path fill="#000000" d="M239.624,295.768h-0.221l-0.208-0.078l-0.078-0.208v-7.046l0.078-0.208l0.208-0.078h0.221l0.208,0.078
		l0.078,0.208v7.046l-0.078,0.208L239.624,295.768 M250.05,293.415c-1.031,0-1.803-0.275-2.314-0.825
		c-0.512-0.55-0.767-1.354-0.767-2.411v-4.03l0.078-0.208l0.208-0.078h3.055c1.075,0,1.846,0.247,2.314,0.741
		c0.468,0.494,0.723,1.261,0.767,2.301c0.009,0.087,0.013,0.329,0.013,0.728c0,0.407-0.005,0.654-0.013,0.741
		c-0.026,1.031-0.303,1.796-0.832,2.295C252.03,293.166,251.194,293.415,250.05,293.415 M247.762,286.616v3.562
		c0,0.797,0.19,1.41,0.572,1.839c0.381,0.429,0.953,0.644,1.716,0.644c0.893,0,1.536-0.193,1.931-0.579
		c0.394-0.386,0.6-0.977,0.617-1.775c0.009-0.087,0.013-0.312,0.013-0.676c0-0.355-0.004-0.576-0.013-0.663
		c-0.017-0.762-0.239-1.345-0.663-1.748c-0.425-0.403-0.988-0.604-1.69-0.604H247.762 M177.874,293.415
		c-1.101,0-1.9-0.268-2.398-0.806c-0.499-0.537-0.747-1.326-0.747-2.366v-4.095l0.078-0.208l0.208-0.078h0.221l0.208,0.078
		l0.078,0.208v4.03c0,0.797,0.193,1.41,0.579,1.839c0.386,0.429,0.977,0.644,1.774,0.644c0.797,0,1.385-0.193,1.761-0.579
		c0.377-0.386,0.574-0.977,0.592-1.775v-0.442v-1.027c-0.017-0.78-0.191-1.356-0.52-1.729c-0.329-0.373-0.776-0.559-1.339-0.559
		c-0.165,0-0.353,0.03-0.565,0.091c-0.213,0.061-0.392,0.143-0.54,0.247l-0.13,0.039l-0.15-0.059l-0.071-0.149v-0.169v-0.065
		l0.026-0.182l0.104-0.117c0.199-0.13,0.405-0.227,0.618-0.292c0.212-0.065,0.47-0.098,0.773-0.098c0.806,0,1.432,0.243,1.879,0.728
		c0.446,0.485,0.682,1.235,0.708,2.249c0.009,0.087,0.013,0.351,0.013,0.793c0,0.451-0.005,0.719-0.013,0.806
		c-0.026,1.04-0.279,1.807-0.76,2.301C179.779,293.168,178.984,293.415,177.874,293.415 M263.232,293.402
		c-0.139,0-0.208-0.069-0.208-0.208v-0.325c0-0.147,0.091-0.256,0.273-0.325l0.533-0.208c0.667-0.26,1.176-0.62,1.527-1.079
		c0.351-0.459,0.527-1.144,0.527-2.054c0-0.65-0.078-1.161-0.234-1.534c-0.156-0.373-0.414-0.641-0.773-0.806
		c-0.36-0.165-0.852-0.247-1.476-0.247h-0.442h-0.039l-1.014-0.013l-0.208-0.071l-0.078-0.202v-1.989l0.078-0.208l0.208-0.078h0.221
		l0.208,0.078l0.078,0.208v1.521h1.053c0.806,0,1.441,0.111,1.905,0.331c0.464,0.221,0.797,0.579,1.001,1.072
		c0.203,0.494,0.306,1.17,0.306,2.028c0,1.118-0.253,1.972-0.761,2.561c-0.507,0.59-1.185,1.036-2.034,1.339l-0.546,0.195
		L263.232,293.402 M241.548,293.402c-0.139,0-0.208-0.069-0.208-0.208v-0.325c0-0.147,0.091-0.256,0.273-0.325l0.533-0.208
		c0.667-0.26,1.176-0.62,1.527-1.079c0.351-0.459,0.527-1.144,0.527-2.054c0-0.65-0.078-1.161-0.234-1.534
		c-0.156-0.373-0.414-0.641-0.773-0.806c-0.36-0.165-0.852-0.247-1.476-0.247h-2.314l-0.208-0.078l-0.078-0.208v-0.182l0.078-0.208
		l0.208-0.078h2.379c0.806,0,1.441,0.111,1.905,0.331c0.464,0.221,0.797,0.579,1.001,1.072c0.203,0.494,0.306,1.17,0.306,2.028
		c0,1.118-0.254,1.972-0.761,2.561c-0.507,0.59-1.185,1.036-2.034,1.339l-0.546,0.195L241.548,293.402 M216.835,293.402
		c-0.139,0-0.208-0.069-0.208-0.208v-0.325c0-0.147,0.091-0.256,0.273-0.325l0.533-0.208c0.667-0.26,1.176-0.62,1.527-1.079
		c0.351-0.459,0.527-1.144,0.527-2.054c0-0.65-0.078-1.161-0.234-1.534c-0.156-0.373-0.414-0.641-0.774-0.806
		c-0.36-0.165-0.851-0.247-1.475-0.247h-0.442h-0.039l-1.014-0.013l-0.208-0.071l-0.078-0.202v-1.989l0.078-0.208l0.208-0.078h0.221
		l0.208,0.078l0.078,0.208v1.521h1.053c0.806,0,1.441,0.111,1.904,0.331c0.464,0.221,0.797,0.579,1.001,1.072
		c0.203,0.494,0.305,1.17,0.305,2.028c0,1.118-0.253,1.972-0.76,2.561c-0.507,0.59-1.185,1.036-2.034,1.339l-0.546,0.195
		L216.835,293.402 M259.683,293.285h-0.221l-0.208-0.078l-0.078-0.208v-3.9c0-1.655-0.828-2.483-2.483-2.483h-1.586l-0.208-0.078
		l-0.078-0.208v-0.182l0.078-0.208l0.208-0.078h1.651c1.083,0,1.889,0.271,2.418,0.813c0.529,0.542,0.793,1.328,0.793,2.359v3.965
		l-0.078,0.208L259.683,293.285 M234.216,293.285h-5.2l-0.208-0.078l-0.078-0.208v-0.182l0.078-0.208l0.208-0.078h3.913v-3.432
		c0-1.655-0.828-2.483-2.483-2.483h-1.3l-0.208-0.078l-0.078-0.208v-0.182l0.078-0.208l0.208-0.078h1.365
		c1.083,0,1.889,0.273,2.418,0.819c0.529,0.546,0.793,1.33,0.793,2.353v3.497h0.494l0.208,0.078l0.078,0.208v0.182l-0.078,0.208
		L234.216,293.285 M227.3,293.285h-5.2l-0.208-0.078l-0.078-0.208v-0.182l0.078-0.208l0.208-0.078h3.913v-3.432
		c0-1.655-0.828-2.483-2.483-2.483h-1.3l-0.208-0.078l-0.078-0.208v-0.182l0.078-0.208l0.208-0.078h1.365
		c1.083,0,1.889,0.273,2.418,0.819c0.529,0.546,0.793,1.33,0.793,2.353v3.497h0.494l0.208,0.078l0.078,0.208v0.182l-0.078,0.208
		L227.3,293.285 M213.611,293.285h-3.224l-0.208-0.078l-0.078-0.208v-0.182l0.078-0.208l0.208-0.078h2.691l-0.247-3.562
		l-0.013-0.273c-0.035-0.52-0.078-0.914-0.13-1.183c-0.052-0.268-0.165-0.485-0.338-0.65c-0.173-0.165-0.438-0.247-0.793-0.247
		h-0.481l-0.208-0.078l-0.078-0.208v-0.182l0.078-0.208l0.208-0.078h0.481c0.581,0,1.012,0.126,1.294,0.377
		c0.281,0.251,0.468,0.576,0.559,0.975c0.091,0.399,0.162,0.962,0.214,1.69l0.273,4.095v0.039l-0.085,0.176L213.611,293.285
		 M206.994,293.285h-0.221l-0.208-0.078l-0.078-0.208v-4.914c0-0.338,0.033-0.637,0.097-0.897c0.065-0.26,0.15-0.451,0.254-0.572
		h-3.783l-0.208-0.078l-0.078-0.208v-0.182l0.078-0.208l0.208-0.078h5.486l0.208,0.078l0.078,0.208v0.182l-0.078,0.208l-0.208,0.078
		h-0.832c-0.139,0.121-0.245,0.318-0.318,0.592c-0.074,0.273-0.111,0.587-0.111,0.943v4.849l-0.078,0.208L206.994,293.285
		 M201.274,293.285h-0.221l-0.208-0.078l-0.078-0.208v-3.9c0-1.655-0.828-2.483-2.483-2.483h-1.586l-0.208-0.078l-0.078-0.208
		v-0.182l0.078-0.208l0.208-0.078h1.651c1.083,0,1.889,0.271,2.418,0.813c0.529,0.542,0.793,1.328,0.793,2.359v3.965l-0.078,0.208
		L201.274,293.285 M191.303,293.285h-3.289l-0.208-0.078l-0.078-0.208v-0.182l0.078-0.208l0.208-0.078h2.782v-3.432
		c0-0.477-0.084-0.905-0.253-1.287c-0.169-0.381-0.403-0.676-0.702-0.884c-0.299-0.208-0.635-0.312-1.007-0.312h-1.508l-0.962,6.37
		l-0.11,0.215l-0.215,0.084h-0.234l-0.182-0.084l-0.052-0.215l0.949-6.37h-0.585l-0.208-0.078l-0.078-0.208v-0.182l0.078-0.208
		l0.208-0.078h2.964c0.52,0,0.983,0.13,1.391,0.39c0.407,0.26,0.726,0.631,0.956,1.111c0.23,0.481,0.344,1.038,0.344,1.671v3.965
		l-0.078,0.208L191.303,293.285 M183.412,293.285h-0.221l-0.208-0.078l-0.078-0.208v-6.851l0.078-0.208l0.208-0.078h0.221
		l0.208,0.078l0.078,0.208v6.851l-0.078,0.208L183.412,293.285"/>
	<path fill="#000000" d="M280.383,315.997c-0.72,0-1.341-0.121-1.866-0.364c-0.525-0.243-0.921-0.563-1.189-0.962
		c-0.269-0.398-0.412-0.827-0.429-1.287v-0.026l0.085-0.176l0.188-0.072h1.235c0.199,0,0.325,0.087,0.377,0.26
		c0.121,0.382,0.323,0.663,0.604,0.845c0.282,0.182,0.613,0.273,0.995,0.273c0.485,0,0.886-0.147,1.202-0.442
		c0.316-0.294,0.474-0.702,0.474-1.222c0-0.468-0.158-0.847-0.474-1.137c-0.316-0.29-0.717-0.436-1.202-0.436
		c-0.26,0-0.472,0.035-0.637,0.104c-0.165,0.069-0.325,0.165-0.481,0.286l-0.117,0.078l-0.162,0.091l-0.15,0.026h-1.222
		l-0.202-0.084l-0.084-0.202l0.442-4.433c0.009-0.112,0.05-0.201,0.123-0.266c0.074-0.065,0.163-0.098,0.266-0.098h4.888
		c0.095,0,0.171,0.028,0.228,0.084c0.056,0.057,0.084,0.132,0.084,0.228v0.884l-0.084,0.221c-0.056,0.061-0.132,0.091-0.228,0.091
		h-3.757l-0.208,2.106c0.199-0.13,0.429-0.236,0.689-0.319c0.26-0.082,0.598-0.124,1.014-0.124c0.563,0,1.086,0.119,1.567,0.358
		c0.481,0.238,0.867,0.581,1.157,1.027c0.29,0.446,0.436,0.964,0.436,1.553c0,0.633-0.148,1.185-0.442,1.658
		c-0.295,0.472-0.711,0.836-1.248,1.092C281.717,315.869,281.093,315.997,280.383,315.997"/>
	<path fill="#000000" d="M150.913,318.337h-0.221l-0.208-0.078l-0.078-0.208v-7.046l0.078-0.208l0.208-0.078h0.221l0.208,0.078
		l0.078,0.208v7.046l-0.078,0.208L150.913,318.337 M125.109,318.337h-0.221l-0.208-0.078l-0.078-0.208v-7.046l0.078-0.208
		l0.208-0.078h0.221l0.208,0.078l0.078,0.208v7.046l-0.078,0.208L125.109,318.337 M114.202,318.337h-0.221l-0.208-0.078
		l-0.078-0.208v-7.046l0.078-0.208l0.208-0.078h0.221l0.208,0.078l0.078,0.208v7.046l-0.078,0.208L114.202,318.337 M203.328,317.466
		h-0.221l-0.208-0.078l-0.078-0.208v-5.512c0-1.655-0.828-2.483-2.483-2.483h-1.313v1.56c0,0.407,0.043,0.726,0.13,0.956
		c0.087,0.23,0.238,0.371,0.455,0.423l0.533,0.13c0.147,0.043,0.221,0.182,0.221,0.416v0.182l-0.085,0.156l-0.214,0.052
		l-0.104-0.013l-0.494-0.117c-0.416-0.095-0.724-0.321-0.923-0.676c-0.199-0.355-0.299-0.858-0.299-1.508v-2.028l0.078-0.208
		l0.208-0.078h1.872c1.083,0,1.889,0.271,2.418,0.813c0.529,0.542,0.793,1.328,0.793,2.36v5.577l-0.078,0.208L203.328,317.466
		 M175.912,317.466h-0.221l-0.208-0.078l-0.078-0.208v-8.463l0.078-0.208l0.208-0.078h0.221l0.208,0.078l0.078,0.208v8.463
		l-0.078,0.208L175.912,317.466 M211.492,315.984c-1.031,0-1.803-0.275-2.314-0.826c-0.511-0.55-0.767-1.354-0.767-2.412v-4.03
		l0.078-0.208l0.208-0.078h3.055c1.075,0,1.846,0.247,2.314,0.741c0.468,0.494,0.724,1.261,0.767,2.301
		c0.009,0.087,0.013,0.329,0.013,0.728c0,0.408-0.004,0.655-0.013,0.741c-0.026,1.031-0.304,1.796-0.832,2.295
		C213.473,315.735,212.636,315.984,211.492,315.984 M209.204,309.185v3.562c0,0.798,0.191,1.411,0.572,1.84
		c0.381,0.429,0.953,0.643,1.716,0.643c0.893,0,1.536-0.193,1.93-0.579c0.394-0.386,0.6-0.977,0.618-1.774
		c0.008-0.087,0.013-0.312,0.013-0.676c0-0.355-0.005-0.576-0.013-0.663c-0.018-0.762-0.239-1.345-0.663-1.749
		c-0.425-0.403-0.988-0.604-1.69-0.604H209.204 M105.492,315.984c-1.031,0-1.803-0.275-2.314-0.826
		c-0.512-0.55-0.767-1.354-0.767-2.412v-4.03l0.078-0.208l0.208-0.078h3.055c1.075,0,1.846,0.247,2.314,0.741
		c0.468,0.494,0.724,1.261,0.767,2.301c0.008,0.087,0.013,0.329,0.013,0.728c0,0.408-0.005,0.655-0.013,0.741
		c-0.026,1.031-0.304,1.796-0.832,2.295C107.472,315.735,106.636,315.984,105.492,315.984 M103.204,309.185v3.562
		c0,0.798,0.191,1.411,0.572,1.84c0.381,0.429,0.953,0.643,1.716,0.643c0.893,0,1.536-0.193,1.931-0.579
		c0.394-0.386,0.6-0.977,0.617-1.774c0.009-0.087,0.013-0.312,0.013-0.676c0-0.355-0.005-0.576-0.013-0.663
		c-0.017-0.762-0.238-1.345-0.663-1.749c-0.425-0.403-0.988-0.604-1.69-0.604H103.204 M263.232,315.971
		c-0.139,0-0.208-0.07-0.208-0.208v-0.325c0-0.147,0.091-0.255,0.273-0.325l0.533-0.208c0.667-0.26,1.176-0.62,1.527-1.079
		c0.351-0.459,0.527-1.144,0.527-2.054c0-0.65-0.078-1.161-0.234-1.534c-0.156-0.373-0.414-0.641-0.773-0.806
		c-0.36-0.165-0.852-0.247-1.476-0.247h-0.442h-0.039l-1.014-0.013l-0.208-0.072l-0.078-0.201v-1.989l0.078-0.208l0.208-0.078h0.221
		l0.208,0.078l0.078,0.208v1.521h1.053c0.806,0,1.441,0.111,1.905,0.332c0.464,0.221,0.797,0.578,1.001,1.072
		c0.203,0.494,0.306,1.17,0.306,2.028c0,1.118-0.253,1.972-0.761,2.561c-0.507,0.589-1.185,1.036-2.034,1.339l-0.546,0.195
		L263.232,315.971 M241.535,315.971c-0.139,0-0.208-0.07-0.208-0.208v-0.325c0-0.147,0.091-0.255,0.273-0.325l0.533-0.208
		c0.667-0.26,1.176-0.62,1.527-1.079c0.351-0.459,0.527-1.144,0.527-2.054c0-0.65-0.078-1.161-0.234-1.534
		c-0.156-0.373-0.414-0.641-0.773-0.806c-0.36-0.165-0.852-0.247-1.475-0.247h-0.442h-0.039l-1.014-0.013l-0.208-0.072l-0.078-0.201
		v-1.989l0.078-0.208l0.208-0.078h0.221l0.208,0.078l0.078,0.208v1.521h1.053c0.806,0,1.441,0.111,1.905,0.332
		c0.464,0.221,0.797,0.578,1.001,1.072c0.203,0.494,0.306,1.17,0.306,2.028c0,1.118-0.253,1.972-0.761,2.561
		c-0.507,0.589-1.185,1.036-2.034,1.339l-0.546,0.195L241.535,315.971 M228.756,315.971c-0.139,0-0.208-0.07-0.208-0.208v-0.325
		c0-0.147,0.091-0.255,0.273-0.325l0.533-0.208c0.667-0.26,1.176-0.62,1.527-1.079c0.351-0.459,0.527-1.144,0.527-2.054
		c0-0.65-0.078-1.161-0.234-1.534c-0.156-0.373-0.414-0.641-0.774-0.806c-0.36-0.165-0.851-0.247-1.475-0.247h-0.442h-0.039
		l-1.014-0.013l-0.208-0.072l-0.078-0.201v-1.989l0.078-0.208l0.208-0.078h0.221l0.208,0.078l0.078,0.208v1.521h1.053
		c0.806,0,1.441,0.111,1.904,0.332c0.464,0.221,0.797,0.578,1.001,1.072c0.204,0.494,0.306,1.17,0.306,2.028
		c0,1.118-0.253,1.972-0.76,2.561c-0.507,0.589-1.185,1.036-2.034,1.339l-0.546,0.195L228.756,315.971 M152.837,315.971
		c-0.139,0-0.208-0.07-0.208-0.208v-0.325c0-0.147,0.091-0.255,0.273-0.325l0.533-0.208c0.667-0.26,1.176-0.62,1.527-1.079
		c0.351-0.459,0.527-1.144,0.527-2.054c0-0.65-0.078-1.161-0.234-1.534c-0.156-0.373-0.414-0.641-0.774-0.806
		c-0.36-0.165-0.851-0.247-1.475-0.247h-2.314l-0.208-0.078l-0.078-0.208v-0.182l0.078-0.208l0.208-0.078h2.379
		c0.806,0,1.441,0.111,1.904,0.332c0.464,0.221,0.797,0.578,1.001,1.072c0.204,0.494,0.306,1.17,0.306,2.028
		c0,1.118-0.253,1.972-0.76,2.561c-0.507,0.589-1.185,1.036-2.034,1.339l-0.546,0.195L152.837,315.971 M127.033,315.971
		c-0.139,0-0.208-0.07-0.208-0.208v-0.325c0-0.147,0.091-0.255,0.273-0.325l0.533-0.208c0.667-0.26,1.176-0.62,1.527-1.079
		c0.351-0.459,0.527-1.144,0.527-2.054c0-0.65-0.078-1.161-0.234-1.534c-0.156-0.373-0.414-0.641-0.773-0.806
		c-0.36-0.165-0.852-0.247-1.476-0.247h-2.314l-0.208-0.078l-0.078-0.208v-0.182l0.078-0.208l0.208-0.078h2.379
		c0.806,0,1.441,0.111,1.905,0.332c0.464,0.221,0.797,0.578,1.001,1.072c0.203,0.494,0.305,1.17,0.305,2.028
		c0,1.118-0.253,1.972-0.76,2.561c-0.507,0.589-1.185,1.036-2.034,1.339l-0.546,0.195L127.033,315.971 M116.126,315.971
		c-0.139,0-0.208-0.07-0.208-0.208v-0.325c0-0.147,0.091-0.255,0.273-0.325l0.533-0.208c0.667-0.26,1.176-0.62,1.527-1.079
		c0.351-0.459,0.527-1.144,0.527-2.054c0-0.65-0.078-1.161-0.234-1.534c-0.156-0.373-0.414-0.641-0.774-0.806
		c-0.36-0.165-0.851-0.247-1.475-0.247h-2.314l-0.208-0.078l-0.078-0.208v-0.182l0.078-0.208l0.208-0.078h2.379
		c0.806,0,1.441,0.111,1.904,0.332c0.464,0.221,0.797,0.578,1.001,1.072c0.204,0.494,0.306,1.17,0.306,2.028
		c0,1.118-0.253,1.972-0.76,2.561c-0.507,0.589-1.185,1.036-2.034,1.339l-0.546,0.195L116.126,315.971 M189.863,315.921
		c-0.039,0-0.079,0-0.119-0.001h-0.871c-0.512,0-0.981-0.128-1.411-0.384c-0.429-0.255-0.769-0.622-1.02-1.098
		c-0.251-0.477-0.377-1.031-0.377-1.664v-4.056l0.078-0.208l0.208-0.078h0.221l0.208,0.078l0.078,0.208l0.052,3.887
		c0.884-0.06,1.504-0.279,1.859-0.657c0.355-0.377,0.533-0.864,0.533-1.462v-1.768l0.078-0.208l0.208-0.078h0.221l0.208,0.078
		l0.078,0.208v1.833c0,0.771-0.264,1.419-0.793,1.944c-0.529,0.524-1.309,0.813-2.34,0.865c0.095,0.572,0.347,1.014,0.754,1.326
		c0.407,0.312,0.914,0.468,1.521,0.468h0.455c0.029,0.001,0.057,0.001,0.086,0.001c0.834,0,1.477-0.25,1.93-0.748
		c0.468-0.516,0.702-1.211,0.702-2.086v-3.601l0.078-0.208l0.208-0.078h0.221l0.208,0.078l0.078,0.208v3.692
		c0,0.72-0.143,1.348-0.429,1.885c-0.286,0.537-0.689,0.947-1.209,1.229C191.074,315.788,190.507,315.921,189.863,315.921
		 M259.683,315.854h-0.221l-0.208-0.078l-0.078-0.208v-3.9c0-1.655-0.828-2.483-2.483-2.483h-0.988
		c-0.087,0.624-0.149,1.127-0.188,1.508c-0.039,0.382-0.054,0.815-0.045,1.3v3.575l-0.078,0.208l-0.208,0.078l-1.482-0.026
		l-0.208-0.078l-0.078-0.208v-0.182l0.078-0.208l0.208-0.078l0.975,0.013v-3.029v-0.403c0-0.477,0.017-0.895,0.052-1.254
		c0.035-0.36,0.1-0.765,0.195-1.216h-0.663l-0.208-0.078l-0.078-0.208v-0.182l0.078-0.208l0.208-0.078h2.496
		c1.083,0,1.889,0.271,2.418,0.813c0.529,0.542,0.793,1.328,0.793,2.36v3.965l-0.078,0.208L259.683,315.854 M252,315.854h-5.2
		l-0.208-0.078l-0.078-0.208v-0.182l0.078-0.208l0.208-0.078h3.913v-3.432c0-1.655-0.828-2.483-2.483-2.483h-1.3l-0.208-0.078
		l-0.078-0.208v-0.182l0.078-0.208l0.208-0.078h1.365c1.083,0,1.889,0.273,2.418,0.819c0.529,0.546,0.793,1.33,0.793,2.353v3.497
		H252l0.208,0.078l0.078,0.208v0.182l-0.078,0.208L252,315.854 M234.58,315.854h-0.221l-0.208-0.078l-0.078-0.208v-6.851
		l0.078-0.208l0.208-0.078h0.221l0.208,0.078l0.078,0.208v6.851l-0.078,0.208L234.58,315.854 M225.207,315.854h-0.221l-0.208-0.078
		l-0.078-0.208v-3.9c0-1.655-0.828-2.483-2.483-2.483h-2.236l-0.208-0.078l-0.078-0.208v-0.182l0.078-0.208l0.208-0.078h2.301
		c1.083,0,1.889,0.271,2.418,0.813c0.529,0.542,0.793,1.328,0.793,2.36v3.965l-0.078,0.208L225.207,315.854 M220.202,315.854h-0.221
		l-0.208-0.078l-0.078-0.208v-4.563l0.078-0.208l0.208-0.078h0.221l0.208,0.078l0.078,0.208v4.563l-0.078,0.208L220.202,315.854
		 M217.225,315.854h-0.221l-0.208-0.078l-0.078-0.208v-6.851l0.078-0.208l0.208-0.078h0.221l0.208,0.078l0.078,0.208v6.851
		l-0.078,0.208L217.225,315.854 M183.803,315.854h-3.289l-0.208-0.078l-0.078-0.208v-0.182l0.078-0.208l0.208-0.078h2.782v-3.432
		c0-0.476-0.084-0.905-0.253-1.287c-0.169-0.381-0.403-0.676-0.702-0.884c-0.299-0.208-0.635-0.312-1.007-0.312h-1.508l-0.962,6.37
		l-0.111,0.214l-0.215,0.085h-0.234l-0.182-0.085l-0.052-0.214l0.949-6.37h-0.585l-0.208-0.078l-0.078-0.208v-0.182l0.078-0.208
		l0.208-0.078h2.964c0.52,0,0.983,0.13,1.391,0.39c0.407,0.26,0.726,0.63,0.956,1.111c0.23,0.481,0.345,1.038,0.345,1.671v3.965
		l-0.078,0.208L183.803,315.854 M169.971,315.854h-0.247l-0.175-0.045l-0.15-0.15l-3.211-4.472
		c-0.425,0.303-0.713,0.655-0.865,1.053c-0.152,0.399-0.228,0.841-0.228,1.326v2.002l-0.078,0.208l-0.208,0.078h-0.221l-0.208-0.078
		l-0.078-0.208v-2.067c0-0.615,0.098-1.164,0.293-1.645c0.195-0.481,0.578-0.908,1.15-1.28l-1.157-1.625
		c-0.069-0.104-0.104-0.191-0.104-0.26l0.078-0.182l0.182-0.078h0.247c0.121,0,0.23,0.065,0.325,0.195l2.938,4.095
		c0.364-0.199,0.628-0.405,0.793-0.617c0.165-0.212,0.266-0.427,0.306-0.644c0.039-0.217,0.058-0.507,0.058-0.871v-1.872
		l0.078-0.208l0.208-0.078h0.221l0.208,0.078l0.078,0.208v1.937c0,0.399-0.035,0.743-0.104,1.033
		c-0.07,0.29-0.215,0.572-0.436,0.845c-0.221,0.273-0.548,0.535-0.981,0.786l1.443,2.015c0.069,0.104,0.104,0.191,0.104,0.26
		l-0.078,0.182L169.971,315.854 M162.197,315.854h-0.221l-0.208-0.078l-0.078-0.208v-6.851l0.078-0.208l0.208-0.078h0.221
		l0.208,0.078l0.078,0.208v6.851l-0.078,0.208L162.197,315.854 M148.014,315.854h-0.221l-0.208-0.078l-0.078-0.208v-3.9
		c0-1.655-0.828-2.483-2.483-2.483h-1.586l-0.208-0.078l-0.078-0.208v-0.182l0.078-0.208l0.208-0.078h1.651
		c1.083,0,1.889,0.271,2.418,0.813c0.529,0.542,0.793,1.328,0.793,2.36v3.965l-0.078,0.208L148.014,315.854 M141.397,315.854h-5.226
		l-0.208-0.078l-0.078-0.208v-6.851l0.078-0.208l0.208-0.078h2.301c1.083,0,1.889,0.271,2.418,0.813
		c0.529,0.542,0.793,1.328,0.793,2.36v3.965l-0.078,0.208L141.397,315.854 M136.665,309.185v5.915h4.225v-3.432
		c0-1.655-0.828-2.483-2.483-2.483H136.665 M122.132,315.854h-0.221l-0.208-0.078l-0.078-0.208v-6.851l0.078-0.208l0.208-0.078
		h0.221l0.208,0.078l0.078,0.208v6.851l-0.078,0.208L122.132,315.854 M111.225,315.854h-0.221l-0.208-0.078l-0.078-0.208v-6.851
		l0.078-0.208l0.208-0.078h0.221l0.208,0.078l0.078,0.208v6.851l-0.078,0.208L111.225,315.854 M206.123,312.864h-0.221l-0.208-0.078
		l-0.078-0.208v-3.861l0.078-0.208l0.208-0.078h0.221l0.208,0.078l0.078,0.208v3.861l-0.078,0.208L206.123,312.864"/>
</g>
</svg>
