<!-- Generator: Adobe InDesign 14.0 SVG Export Plug-in, SVG Library version: 6.0 build 234 -->
<!DOCTYPE svg PUBLIC "-//W3C//DTD SVG 1.1//EN" "http://www.w3.org/Graphics/SVG/1.1/DTD/svg11.dtd">
<svg version="1.1" xmlns="http://www.w3.org/2000/svg" xmlns:xlink="http://www.w3.org/1999/xlink" x="0%" y="0%" width="100%"
	 height="100%" viewBox="0 0 302.261 534.346" preserveAspectRatio="xMidYMid slice" overflow="visible" xml:space="preserve">
<clipPath id="clp_unq_id_1" fill="none">
	<path shape-rendering="crispEdges" stroke="#000000" d="M0,0h302.261v534.346H0V0"/>
</clipPath>
<g clip-path="url(#clp_unq_id_1)" fill="none">
	<path fill="#000000" d="M286.688,47.085c-0.728,0-1.367-0.139-1.917-0.416c-0.55-0.277-0.975-0.659-1.274-1.144
		c-0.299-0.485-0.449-1.031-0.449-1.638c0-0.763,0.338-1.603,1.014-2.522l2.366-3.25l0.195-0.195
		c0.061-0.043,0.147-0.065,0.26-0.065h1.235l0.189,0.084l0.071,0.202l-0.052,0.169l-1.82,2.509c0.138-0.035,0.32-0.052,0.546-0.052
		c0.581,0.009,1.116,0.149,1.606,0.422c0.489,0.273,0.88,0.644,1.17,1.111c0.29,0.468,0.436,0.988,0.436,1.56
		c0,0.59-0.145,1.129-0.436,1.619c-0.29,0.49-0.706,0.88-1.248,1.17C288.038,46.94,287.407,47.085,286.688,47.085 M286.662,42.21
		c-0.485,0-0.895,0.15-1.229,0.449c-0.334,0.299-0.5,0.708-0.5,1.229c0,0.529,0.167,0.942,0.5,1.242
		c0.334,0.299,0.743,0.448,1.229,0.448c0.485,0,0.897-0.149,1.235-0.448c0.338-0.299,0.507-0.713,0.507-1.242
		c0-0.52-0.167-0.93-0.501-1.229C287.569,42.36,287.156,42.21,286.662,42.21"/>
	<path fill="#000000" d="M46.356,47.93h-0.221l-0.156-0.078l-0.026-0.195l0.247-1.56c0.026-0.234,0.134-0.351,0.325-0.351h0.585
		l0.143,0.065l0.052,0.143l-0.052,0.234l-0.559,1.469c-0.043,0.095-0.089,0.165-0.137,0.208L46.356,47.93 M224.167,47.085
		c-1.031,0-1.803-0.275-2.314-0.825c-0.511-0.55-0.767-1.354-0.767-2.412v-4.03l0.078-0.208l0.208-0.078h3.055
		c1.074,0,1.846,0.247,2.314,0.741c0.468,0.494,0.724,1.261,0.767,2.301c0.009,0.087,0.013,0.329,0.013,0.728
		c0,0.407-0.004,0.655-0.013,0.741c-0.026,1.031-0.304,1.796-0.832,2.295C226.148,46.836,225.311,47.085,224.167,47.085
		 M221.879,40.286v3.562c0,0.798,0.19,1.41,0.572,1.839c0.381,0.429,0.953,0.644,1.716,0.644c0.893,0,1.536-0.193,1.931-0.579
		c0.394-0.386,0.6-0.977,0.617-1.774c0.009-0.087,0.013-0.312,0.013-0.676c0-0.355-0.004-0.576-0.013-0.663
		c-0.018-0.762-0.239-1.345-0.663-1.748c-0.425-0.403-0.988-0.604-1.69-0.604H221.879 M196.374,47.085
		c-1.031,0-1.803-0.275-2.314-0.825c-0.512-0.55-0.767-1.354-0.767-2.412v-4.03l0.078-0.208l0.208-0.078h3.055
		c1.075,0,1.846,0.247,2.314,0.741c0.468,0.494,0.723,1.261,0.767,2.301c0.009,0.087,0.013,0.329,0.013,0.728
		c0,0.407-0.005,0.655-0.013,0.741c-0.026,1.031-0.303,1.796-0.832,2.295C198.354,46.836,197.518,47.085,196.374,47.085
		 M194.086,40.286v3.562c0,0.798,0.19,1.41,0.572,1.839c0.381,0.429,0.953,0.644,1.716,0.644c0.893,0,1.536-0.193,1.931-0.579
		c0.394-0.386,0.6-0.977,0.617-1.774c0.009-0.087,0.013-0.312,0.013-0.676c0-0.355-0.004-0.576-0.013-0.663
		c-0.017-0.762-0.239-1.345-0.663-1.748c-0.425-0.403-0.988-0.604-1.69-0.604H194.086 M269.459,47.072
		c-0.139,0-0.208-0.069-0.208-0.208v-0.325c0-0.147,0.091-0.255,0.273-0.325l0.533-0.208c0.667-0.26,1.177-0.619,1.528-1.079
		c0.351-0.459,0.526-1.144,0.526-2.054c0-0.65-0.078-1.161-0.234-1.534c-0.156-0.373-0.414-0.641-0.773-0.806
		c-0.36-0.165-0.852-0.247-1.476-0.247h-0.442h-0.039l-1.014-0.013l-0.208-0.072L267.847,40v-1.989l0.078-0.208l0.208-0.078h0.221
		l0.208,0.078l0.078,0.208v1.521h1.053c0.806,0,1.441,0.11,1.905,0.331c0.464,0.221,0.797,0.579,1.001,1.073
		c0.203,0.494,0.306,1.17,0.306,2.028c0,1.118-0.254,1.972-0.761,2.561c-0.507,0.589-1.185,1.036-2.034,1.339l-0.546,0.195
		L269.459,47.072 M175.314,47.072c-0.139,0-0.208-0.069-0.208-0.208v-0.325c0-0.147,0.091-0.255,0.273-0.325l0.533-0.208
		c0.667-0.26,1.176-0.619,1.527-1.079c0.351-0.459,0.527-1.144,0.527-2.054c0-0.65-0.078-1.161-0.234-1.534
		c-0.156-0.373-0.414-0.641-0.773-0.806c-0.36-0.165-0.852-0.247-1.475-0.247h-0.442h-0.039l-1.014-0.013l-0.208-0.072L173.702,40
		v-1.989l0.078-0.208l0.208-0.078h0.221l0.208,0.078l0.078,0.208v1.521h1.053c0.806,0,1.441,0.11,1.905,0.331
		c0.464,0.221,0.797,0.579,1.001,1.073c0.203,0.494,0.306,1.17,0.306,2.028c0,1.118-0.253,1.972-0.76,2.561
		c-0.507,0.589-1.185,1.036-2.035,1.339l-0.546,0.195L175.314,47.072 M118.764,47.072c-0.139,0-0.208-0.069-0.208-0.208v-0.325
		c0-0.147,0.091-0.255,0.273-0.325l0.533-0.208c0.667-0.26,1.176-0.619,1.528-1.079c0.351-0.459,0.527-1.144,0.527-2.054
		c0-0.65-0.078-1.161-0.234-1.534c-0.156-0.373-0.414-0.641-0.773-0.806c-0.36-0.165-0.851-0.247-1.475-0.247h-0.442h-0.039
		l-1.014-0.013l-0.208-0.072L117.152,40v-1.989l0.078-0.208l0.208-0.078h0.221l0.208,0.078l0.078,0.208v1.521h1.053
		c0.806,0,1.441,0.11,1.904,0.331c0.464,0.221,0.797,0.579,1.001,1.073c0.204,0.494,0.306,1.17,0.306,2.028
		c0,1.118-0.253,1.972-0.76,2.561c-0.507,0.589-1.185,1.036-2.035,1.339l-0.546,0.195L118.764,47.072 M127.75,47.021
		c-0.039,0-0.079,0-0.119-0.001h-0.871c-0.512,0-0.982-0.128-1.411-0.384c-0.429-0.255-0.769-0.622-1.021-1.099
		c-0.251-0.477-0.377-1.031-0.377-1.664v-4.056l0.078-0.208l0.208-0.078h0.221l0.208,0.078l0.078,0.208l0.052,3.887
		c0.884-0.06,1.504-0.279,1.859-0.657c0.355-0.377,0.533-0.864,0.533-1.462v-1.768l0.078-0.208l0.208-0.078h0.221l0.208,0.078
		l0.078,0.208v1.833c0,0.771-0.264,1.419-0.793,1.944c-0.529,0.525-1.309,0.813-2.34,0.865c0.095,0.572,0.346,1.014,0.754,1.326
		c0.407,0.312,0.914,0.468,1.521,0.468h0.455c0.029,0.001,0.057,0.001,0.086,0.001c0.834,0,1.477-0.25,1.93-0.748
		c0.468-0.516,0.702-1.211,0.702-2.087v-3.601l0.078-0.208l0.208-0.078h0.221l0.208,0.078l0.078,0.208v3.692
		c0,0.72-0.143,1.348-0.429,1.885c-0.286,0.537-0.689,0.947-1.209,1.229C128.96,46.889,128.394,47.022,127.75,47.021
		 M263.492,46.955h-2.158l-0.208-0.078l-0.078-0.208v-0.182l0.078-0.208l0.208-0.078h2.093c0.659,0,1.159-0.214,1.502-0.643
		c0.342-0.429,0.531-1.042,0.565-1.84c0.009-0.087,0.013-0.247,0.013-0.481c0-0.225-0.004-0.381-0.013-0.468
		c-0.018-0.789-0.201-1.4-0.552-1.833c-0.351-0.433-0.856-0.65-1.515-0.65h-1.768v1.235c0,0.407,0.043,0.726,0.13,0.956
		c0.087,0.23,0.238,0.371,0.455,0.423l0.533,0.13c0.147,0.043,0.221,0.182,0.221,0.416v0.182l-0.085,0.156l-0.214,0.052
		l-0.104-0.013l-0.494-0.117c-0.416-0.095-0.724-0.321-0.923-0.676c-0.199-0.355-0.299-0.858-0.299-1.508v-1.703l0.078-0.208
		l0.208-0.078h2.327c0.892,0,1.575,0.275,2.047,0.825c0.472,0.55,0.722,1.333,0.747,2.347c0.009,0.087,0.013,0.264,0.013,0.533
		c0,0.278-0.004,0.459-0.013,0.546c-0.026,1.014-0.275,1.796-0.747,2.347C265.067,46.68,264.384,46.955,263.492,46.955
		 M258.786,46.955h-3.224l-0.208-0.078l-0.078-0.208v-0.182l0.078-0.208l0.208-0.078h2.691l-0.247-3.562l-0.013-0.273
		c-0.035-0.52-0.078-0.914-0.13-1.183c-0.052-0.269-0.165-0.485-0.338-0.65c-0.174-0.165-0.438-0.247-0.793-0.247h-0.481
		l-0.208-0.078L255.965,40v-0.182l0.078-0.208l0.208-0.078h0.481c0.581,0,1.012,0.126,1.294,0.377
		c0.282,0.251,0.468,0.576,0.559,0.975c0.091,0.399,0.163,0.962,0.215,1.69l0.273,4.095v0.039l-0.084,0.176L258.786,46.955
		 M247.229,46.955h-0.221l-0.208-0.078l-0.078-0.208v-3.9c0-1.655-0.828-2.483-2.483-2.483h-2.236l-0.208-0.078L241.717,40v-0.182
		l0.078-0.208l0.208-0.078h2.301c1.083,0,1.889,0.271,2.418,0.813c0.529,0.542,0.793,1.328,0.793,2.36v3.965l-0.078,0.208
		L247.229,46.955 M242.224,46.955h-0.221l-0.208-0.078l-0.078-0.208v-4.563l0.078-0.208l0.208-0.078h0.221l0.208,0.078l0.078,0.208
		v4.563l-0.078,0.208L242.224,46.955 M236.621,46.955h-1.911l-0.208-0.078l-0.078-0.208v-0.182l0.078-0.208l0.208-0.078h1.846
		c0.849,0,1.467-0.21,1.853-0.63c0.386-0.42,0.596-1.038,0.63-1.853c0.009-0.13,0.013-0.29,0.013-0.481
		c0-0.182-0.005-0.338-0.013-0.468c-0.026-0.815-0.234-1.432-0.624-1.853c-0.39-0.42-1.01-0.63-1.859-0.63h-1.846l-0.208-0.078
		L234.424,40v-0.182l0.078-0.208l0.208-0.078h1.911c1.075,0,1.87,0.269,2.385,0.806c0.516,0.537,0.791,1.326,0.826,2.366
		c0.008,0.13,0.013,0.308,0.013,0.533c0,0.234-0.005,0.416-0.013,0.546c-0.035,1.04-0.31,1.829-0.826,2.366
		C238.491,46.686,237.696,46.955,236.621,46.955 M232.331,46.955h-3.224l-0.208-0.078l-0.078-0.208v-0.182l0.078-0.208l0.208-0.078
		h2.691l-0.247-3.562l-0.013-0.273c-0.035-0.52-0.078-0.914-0.13-1.183c-0.052-0.269-0.165-0.485-0.338-0.65
		c-0.174-0.165-0.438-0.247-0.793-0.247h-0.481l-0.208-0.078L229.51,40v-0.182l0.078-0.208l0.208-0.078h0.481
		c0.581,0,1.012,0.126,1.294,0.377c0.281,0.251,0.468,0.576,0.559,0.975c0.091,0.399,0.162,0.962,0.214,1.69l0.273,4.095v0.039
		l-0.085,0.176L232.331,46.955 M218.773,46.955h-0.221l-0.208-0.078l-0.078-0.208v-3.9c0-1.655-0.828-2.483-2.483-2.483h-0.988
		c-0.087,0.624-0.15,1.127-0.189,1.508c-0.039,0.382-0.054,0.815-0.045,1.3v3.575l-0.078,0.208l-0.208,0.078l-1.482-0.026
		l-0.208-0.078l-0.078-0.208v-0.182l0.078-0.208l0.208-0.078l0.975,0.013v-3.029v-0.403c0-0.477,0.017-0.895,0.052-1.255
		c0.035-0.359,0.1-0.765,0.195-1.215h-0.663l-0.208-0.078L213.065,40v-0.182l0.078-0.208l0.208-0.078h2.496
		c1.083,0,1.889,0.271,2.418,0.813c0.529,0.542,0.793,1.328,0.793,2.36v3.965l-0.078,0.208L218.773,46.955 M207.112,46.955h-0.221
		l-0.208-0.078l-0.078-0.208v-3.9c0-1.655-0.828-2.483-2.483-2.483h-2.236l-0.208-0.078L201.6,40v-0.182l0.078-0.208l0.208-0.078
		h2.301c1.083,0,1.889,0.271,2.418,0.813c0.529,0.542,0.793,1.328,0.793,2.36v3.965l-0.078,0.208L207.112,46.955 M202.107,46.955
		h-0.221l-0.208-0.078l-0.078-0.208v-4.563l0.078-0.208l0.208-0.078h0.221l0.208,0.078l0.078,0.208v4.563l-0.078,0.208
		L202.107,46.955 M188.21,46.955h-0.221l-0.208-0.078l-0.078-0.208v-3.9c0-1.655-0.828-2.483-2.483-2.483h-1.586l-0.208-0.078
		L183.348,40v-0.182l0.078-0.208l0.208-0.078h1.651c1.083,0,1.889,0.271,2.418,0.813c0.529,0.542,0.793,1.328,0.793,2.36v3.965
		l-0.078,0.208L188.21,46.955 M171.765,46.955h-0.221l-0.208-0.078l-0.078-0.208v-3.9c0-1.655-0.828-2.483-2.483-2.483h-0.988
		c-0.087,0.624-0.149,1.127-0.188,1.508c-0.039,0.382-0.054,0.815-0.045,1.3v3.575l-0.078,0.208l-0.208,0.078l-1.482-0.026
		l-0.208-0.078l-0.078-0.208v-0.182l0.078-0.208l0.208-0.078l0.975,0.013v-3.029v-0.403c0-0.477,0.017-0.895,0.052-1.255
		c0.035-0.359,0.1-0.765,0.195-1.215h-0.663l-0.208-0.078L166.058,40v-0.182l0.078-0.208l0.208-0.078h2.496
		c1.083,0,1.889,0.271,2.418,0.813c0.529,0.542,0.793,1.328,0.793,2.36v3.965l-0.078,0.208L171.765,46.955 M163.783,46.955h-3.224
		l-0.208-0.078l-0.078-0.208v-0.182l0.078-0.208l0.208-0.078h2.691l-0.247-3.562l-0.013-0.273c-0.035-0.52-0.078-0.914-0.13-1.183
		c-0.052-0.269-0.165-0.485-0.338-0.65c-0.173-0.165-0.438-0.247-0.793-0.247h-0.481l-0.208-0.078L160.962,40v-0.182l0.078-0.208
		l0.208-0.078h0.481c0.581,0,1.012,0.126,1.294,0.377c0.281,0.251,0.468,0.576,0.559,0.975c0.091,0.399,0.163,0.962,0.214,1.69
		l0.273,4.095v0.039l-0.085,0.176L163.783,46.955 M158.271,46.955h-0.221l-0.208-0.078l-0.078-0.208v-6.851l0.078-0.208l0.208-0.078
		h0.221l0.208,0.078l0.078,0.208v6.851l-0.078,0.208L158.271,46.955 M155.372,46.955h-0.221l-0.208-0.078l-0.078-0.208v-3.9
		c0-1.655-0.828-2.483-2.483-2.483h-1.586l-0.208-0.078L150.51,40v-0.182l0.078-0.208l0.208-0.078h1.651
		c1.083,0,1.889,0.271,2.418,0.813c0.529,0.542,0.793,1.328,0.793,2.36v3.965l-0.078,0.208L155.372,46.955 M145.401,46.955h-3.289
		l-0.208-0.078l-0.078-0.208v-0.182l0.078-0.208l0.208-0.078h2.782v-3.432c0-0.477-0.084-0.906-0.253-1.287
		c-0.169-0.381-0.403-0.676-0.702-0.884c-0.299-0.208-0.635-0.312-1.007-0.312h-1.508l-0.962,6.37l-0.11,0.214l-0.215,0.085h-0.234
		l-0.182-0.085l-0.052-0.214l0.949-6.37h-0.585l-0.208-0.078L139.746,40v-0.182l0.078-0.208l0.208-0.078h2.964
		c0.52,0,0.983,0.13,1.391,0.39c0.407,0.26,0.726,0.63,0.956,1.111c0.23,0.481,0.345,1.038,0.345,1.67v3.965l-0.078,0.208
		L145.401,46.955 M138.212,46.955h-5.2l-0.208-0.078l-0.078-0.208v-0.182l0.078-0.208l0.208-0.078h3.913v-3.432
		c0-1.655-0.828-2.483-2.483-2.483h-1.3l-0.208-0.078L132.856,40v-0.182l0.078-0.208l0.208-0.078h1.365
		c1.083,0,1.889,0.273,2.418,0.819c0.529,0.546,0.793,1.33,0.793,2.353v3.497h0.494l0.208,0.078l0.078,0.208v0.182l-0.078,0.208
		L138.212,46.955 M112.174,46.955h-5.226l-0.208-0.078l-0.078-0.208v-6.851l0.078-0.208l0.208-0.078h2.301
		c1.083,0,1.889,0.271,2.418,0.813c0.529,0.542,0.793,1.328,0.793,2.36v3.965l-0.078,0.208L112.174,46.955 M107.442,40.286v5.915
		h4.225v-3.432c0-1.655-0.828-2.483-2.483-2.483H107.442 M101.228,46.955h-0.247l-0.176-0.045l-0.149-0.15l-3.211-4.472
		c-0.425,0.304-0.713,0.655-0.865,1.053c-0.152,0.399-0.228,0.841-0.228,1.326v2.002l-0.078,0.208l-0.208,0.078h-0.221l-0.208-0.078
		l-0.078-0.208v-2.067c0-0.615,0.098-1.164,0.293-1.645c0.195-0.481,0.578-0.908,1.15-1.281l-1.157-1.625
		c-0.069-0.104-0.104-0.191-0.104-0.26l0.078-0.182l0.182-0.078h0.247c0.121,0,0.23,0.065,0.325,0.195l2.938,4.095
		c0.364-0.199,0.628-0.405,0.793-0.618c0.165-0.212,0.266-0.427,0.306-0.643c0.039-0.217,0.058-0.507,0.058-0.871v-1.872
		l0.078-0.208l0.208-0.078h0.221l0.208,0.078l0.078,0.208v1.937c0,0.399-0.035,0.743-0.104,1.033
		c-0.07,0.29-0.215,0.572-0.436,0.845c-0.221,0.273-0.548,0.535-0.981,0.786l1.443,2.015c0.069,0.104,0.104,0.191,0.104,0.26
		l-0.078,0.182L101.228,46.955 M93.532,46.955h-0.221l-0.208-0.078l-0.078-0.208v-3.9c0-1.655-0.828-2.483-2.483-2.483h-0.988
		c-0.087,0.624-0.149,1.127-0.188,1.508c-0.039,0.382-0.054,0.815-0.045,1.3v3.575l-0.078,0.208l-0.208,0.078l-1.482-0.026
		l-0.208-0.078l-0.078-0.208v-0.182l0.078-0.208l0.208-0.078l0.975,0.013v-3.029v-0.403c0-0.477,0.017-0.895,0.052-1.255
		c0.035-0.359,0.1-0.765,0.195-1.215h-0.663l-0.208-0.078L87.825,40v-0.182l0.078-0.208l0.208-0.078h2.496
		c1.083,0,1.889,0.271,2.418,0.813c0.529,0.542,0.793,1.328,0.793,2.36v3.965l-0.078,0.208L93.532,46.955 M81.871,46.955H81.65
		l-0.208-0.078l-0.078-0.208v-3.9c0-1.655-0.828-2.483-2.483-2.483h-2.236l-0.208-0.078L76.359,40v-0.182l0.078-0.208l0.208-0.078
		h2.301c1.083,0,1.889,0.271,2.418,0.813c0.529,0.542,0.793,1.328,0.793,2.36v3.965l-0.078,0.208L81.871,46.955 M76.866,46.955
		h-0.221l-0.208-0.078l-0.078-0.208v-4.563l0.078-0.208l0.208-0.078h0.221l0.208,0.078l0.078,0.208v4.563l-0.078,0.208
		L76.866,46.955 M74.591,46.955h-5.2l-0.208-0.078l-0.078-0.208v-0.182l0.078-0.208l0.208-0.078h3.913v-3.432
		c0-1.655-0.828-2.483-2.483-2.483h-1.3l-0.208-0.078L69.235,40v-0.182l0.078-0.208l0.208-0.078h1.365
		c1.083,0,1.889,0.273,2.418,0.819c0.529,0.546,0.793,1.33,0.793,2.353v3.497h0.494l0.208,0.078l0.078,0.208v0.182l-0.078,0.208
		L74.591,46.955 M64.425,46.955H59.94l-0.208-0.078l-0.078-0.208v-0.182l0.078-0.208l0.208-0.078h3.705l-4.173-6.149
		c-0.069-0.104-0.104-0.191-0.104-0.26l0.085-0.182l0.188-0.078h0.234c0.13,0,0.238,0.07,0.325,0.208l2.496,3.627
		c0.849-0.321,1.274-1.083,1.274-2.288v-1.261l0.078-0.208l0.208-0.078h0.221l0.208,0.078l0.078,0.208v1.326
		c0,0.702-0.141,1.289-0.422,1.761c-0.282,0.472-0.695,0.821-1.242,1.047l1.469,2.145c0.095,0.139,0.143,0.269,0.143,0.39v0.182
		l-0.078,0.208L64.425,46.955 M54.871,46.955h-5.226l-0.208-0.078l-0.078-0.208v-6.851l0.078-0.208l0.208-0.078h2.301
		c1.083,0,1.889,0.271,2.418,0.813c0.529,0.542,0.793,1.328,0.793,2.36v3.965l-0.078,0.208L54.871,46.955 M50.139,40.286v5.915
		h4.225v-3.432c0-1.655-0.828-2.483-2.483-2.483H50.139 M253.378,43.965h-0.221l-0.208-0.078l-0.078-0.208v-3.861l0.078-0.208
		l0.208-0.078h0.221l0.208,0.078l0.078,0.208v3.861l-0.078,0.208L253.378,43.965 M191.005,43.965h-0.221l-0.208-0.078l-0.078-0.208
		v-3.861l0.078-0.208l0.208-0.078h0.221l0.208,0.078l0.078,0.208v3.861l-0.078,0.208L191.005,43.965 M114.968,43.965h-0.221
		l-0.208-0.078l-0.078-0.208v-3.861l0.078-0.208l0.208-0.078h0.221l0.208,0.078l0.078,0.208v3.861l-0.078,0.208L114.968,43.965
		 M67.077,43.965h-0.221l-0.208-0.078l-0.078-0.208v-3.861l0.078-0.208l0.208-0.078h0.221l0.208,0.078l0.078,0.208v3.861
		l-0.078,0.208L67.077,43.965 M57.665,43.965h-0.221l-0.208-0.078l-0.078-0.208v-3.861l0.078-0.208l0.208-0.078h0.221l0.208,0.078
		l0.078,0.208v3.861l-0.078,0.208L57.665,43.965"/>
	<path fill="#000000" d="M256.563,66.338h-0.221l-0.208-0.078l-0.078-0.208v-7.046l0.078-0.208l0.208-0.078h0.221l0.208,0.078
		l0.078,0.208v7.046l-0.078,0.208L256.563,66.338 M258.487,63.972c-0.139,0-0.208-0.07-0.208-0.208v-0.325
		c0-0.147,0.091-0.255,0.273-0.325l0.533-0.208c0.667-0.26,1.177-0.62,1.527-1.079c0.351-0.459,0.527-1.144,0.527-2.054
		c0-0.65-0.078-1.161-0.234-1.534c-0.156-0.373-0.414-0.641-0.773-0.806c-0.36-0.165-0.852-0.247-1.476-0.247h-2.314l-0.208-0.078
		l-0.078-0.208v-0.182l0.078-0.208l0.208-0.078h2.379c0.806,0,1.441,0.11,1.905,0.332c0.464,0.221,0.797,0.578,1.001,1.072
		c0.203,0.494,0.305,1.17,0.305,2.028c0,1.118-0.253,1.972-0.76,2.561c-0.507,0.589-1.185,1.036-2.034,1.339l-0.546,0.195
		L258.487,63.972 M250.739,63.972c-0.139,0-0.208-0.07-0.208-0.208v-0.325c0-0.147,0.091-0.255,0.273-0.325l0.533-0.208
		c0.667-0.26,1.176-0.62,1.528-1.079c0.351-0.459,0.526-1.144,0.526-2.054c0-0.65-0.078-1.161-0.234-1.534
		c-0.156-0.373-0.414-0.641-0.773-0.806c-0.36-0.165-0.852-0.247-1.476-0.247h-0.442h-0.039l-1.014-0.013l-0.208-0.072l-0.078-0.201
		v-1.989l0.078-0.208l0.208-0.078h0.221l0.208,0.078l0.078,0.208v1.521h1.053c0.806,0,1.441,0.11,1.905,0.332
		c0.464,0.221,0.797,0.578,1.001,1.072c0.203,0.494,0.306,1.17,0.306,2.028c0,1.118-0.253,1.972-0.761,2.561
		c-0.507,0.589-1.185,1.036-2.034,1.339l-0.546,0.195L250.739,63.972 M272.306,63.855h-0.221l-0.208-0.078l-0.078-0.208v-6.851
		l0.078-0.208l0.208-0.078h0.221l0.208,0.078l0.078,0.208v6.851l-0.078,0.208L272.306,63.855 M269.407,63.855h-3.289l-0.208-0.078
		l-0.078-0.208v-0.182l0.078-0.208l0.208-0.078h2.782v-3.432c0-0.476-0.085-0.905-0.253-1.287c-0.169-0.381-0.403-0.676-0.702-0.884
		c-0.299-0.208-0.635-0.312-1.007-0.312h-1.508l-0.962,6.37l-0.111,0.214l-0.215,0.085h-0.234l-0.182-0.085l-0.052-0.214l0.949-6.37
		h-0.585l-0.208-0.078l-0.078-0.208v-0.182l0.078-0.208l0.208-0.078h2.964c0.52,0,0.983,0.13,1.391,0.39
		c0.407,0.26,0.726,0.63,0.956,1.111c0.23,0.481,0.344,1.038,0.344,1.67v3.965l-0.078,0.208L269.407,63.855 M244.772,63.855h-2.158
		l-0.208-0.078l-0.078-0.208v-0.182l0.078-0.208l0.208-0.078h2.093c0.659,0,1.159-0.214,1.502-0.643
		c0.342-0.429,0.531-1.042,0.565-1.84c0.009-0.087,0.013-0.247,0.013-0.481c0-0.225-0.004-0.381-0.013-0.468
		c-0.018-0.789-0.201-1.399-0.552-1.833c-0.351-0.433-0.856-0.65-1.515-0.65h-1.768v1.235c0,0.407,0.043,0.726,0.13,0.956
		c0.087,0.23,0.238,0.371,0.455,0.423l0.533,0.13c0.147,0.043,0.221,0.182,0.221,0.416v0.182l-0.085,0.156l-0.214,0.052
		l-0.104-0.013l-0.494-0.117c-0.416-0.095-0.724-0.321-0.923-0.676c-0.199-0.355-0.299-0.858-0.299-1.508v-1.703l0.078-0.208
		l0.208-0.078h2.327c0.893,0,1.575,0.275,2.047,0.825c0.472,0.551,0.722,1.333,0.747,2.347c0.009,0.087,0.013,0.264,0.013,0.533
		c0,0.277-0.004,0.459-0.013,0.546c-0.026,1.014-0.275,1.796-0.747,2.347C246.347,63.58,245.665,63.855,244.772,63.855
		 M236.972,63.855h-5.226l-0.208-0.078l-0.078-0.208v-6.851l0.078-0.208l0.208-0.078h2.301c1.083,0,1.889,0.271,2.418,0.813
		c0.529,0.542,0.793,1.328,0.793,2.36v3.965l-0.078,0.208L236.972,63.855 M232.24,57.186v5.915h4.225v-3.432
		c0-1.655-0.828-2.483-2.483-2.483H232.24 M226.026,63.855h-0.247l-0.176-0.045l-0.15-0.15l-3.211-4.472
		c-0.425,0.304-0.713,0.655-0.865,1.053c-0.152,0.399-0.227,0.841-0.227,1.326v2.002l-0.078,0.208l-0.208,0.078h-0.221l-0.208-0.078
		l-0.078-0.208v-2.067c0-0.615,0.097-1.164,0.292-1.645c0.195-0.481,0.579-0.908,1.151-1.28l-1.157-1.625
		c-0.07-0.104-0.104-0.191-0.104-0.26l0.078-0.182l0.182-0.078h0.247c0.121,0,0.23,0.065,0.325,0.195l2.938,4.095
		c0.364-0.199,0.628-0.405,0.793-0.617c0.165-0.212,0.267-0.427,0.306-0.644c0.039-0.217,0.058-0.507,0.058-0.871v-1.872
		l0.078-0.208l0.208-0.078h0.221l0.208,0.078l0.078,0.208v1.937c0,0.399-0.035,0.743-0.104,1.033
		c-0.069,0.29-0.214,0.572-0.435,0.845c-0.221,0.273-0.548,0.535-0.982,0.786l1.443,2.015c0.069,0.104,0.104,0.191,0.104,0.26
		l-0.078,0.182L226.026,63.855 M218.331,63.855h-0.221l-0.208-0.078l-0.078-0.208v-3.9c0-1.655-0.828-2.483-2.483-2.483h-0.988
		c-0.087,0.624-0.15,1.127-0.188,1.508c-0.039,0.382-0.054,0.815-0.046,1.3v3.575l-0.078,0.208l-0.208,0.078l-1.482-0.026
		l-0.208-0.078l-0.078-0.208v-0.182l0.078-0.208l0.208-0.078l0.975,0.013v-3.029v-0.403c0-0.477,0.017-0.895,0.052-1.254
		c0.035-0.36,0.1-0.765,0.195-1.216h-0.663l-0.208-0.078l-0.078-0.208v-0.182l0.078-0.208l0.208-0.078h2.496
		c1.083,0,1.889,0.271,2.418,0.813c0.529,0.542,0.793,1.328,0.793,2.36v3.965l-0.078,0.208L218.331,63.855 M206.67,63.855h-0.221
		l-0.208-0.078l-0.078-0.208v-3.9c0-1.655-0.828-2.483-2.483-2.483h-0.988c-0.087,0.624-0.15,1.127-0.189,1.508
		c-0.039,0.382-0.054,0.815-0.045,1.3v3.575l-0.078,0.208l-0.208,0.078l-1.482-0.026l-0.208-0.078l-0.078-0.208v-0.182l0.078-0.208
		l0.208-0.078l0.975,0.013v-3.029v-0.403c0-0.477,0.017-0.895,0.052-1.254c0.035-0.36,0.1-0.765,0.195-1.216h-0.663l-0.208-0.078
		l-0.078-0.208v-0.182l0.078-0.208l0.208-0.078h2.496c1.083,0,1.889,0.271,2.418,0.813c0.529,0.542,0.793,1.328,0.793,2.36v3.965
		l-0.078,0.208L206.67,63.855 M196.127,63.855h-2.158l-0.208-0.078l-0.078-0.208v-0.182l0.078-0.208l0.208-0.078h2.093
		c0.659,0,1.159-0.214,1.502-0.643c0.342-0.429,0.531-1.042,0.565-1.84c0.009-0.087,0.013-0.247,0.013-0.481
		c0-0.225-0.004-0.381-0.013-0.468c-0.017-0.789-0.201-1.399-0.552-1.833c-0.351-0.433-0.856-0.65-1.515-0.65h-1.768v1.235
		c0,0.407,0.043,0.726,0.13,0.956c0.087,0.23,0.238,0.371,0.455,0.423l0.533,0.13c0.147,0.043,0.221,0.182,0.221,0.416v0.182
		l-0.085,0.156l-0.214,0.052l-0.104-0.013l-0.494-0.117c-0.416-0.095-0.724-0.321-0.923-0.676c-0.199-0.355-0.299-0.858-0.299-1.508
		v-1.703l0.078-0.208l0.208-0.078h2.327c0.893,0,1.575,0.275,2.047,0.825c0.472,0.551,0.722,1.333,0.747,2.347
		c0.009,0.087,0.013,0.264,0.013,0.533c0,0.277-0.005,0.459-0.013,0.546c-0.026,1.014-0.275,1.796-0.747,2.347
		C197.702,63.58,197.019,63.855,196.127,63.855 M191.018,63.855h-0.221l-0.208-0.078l-0.078-0.208v-6.851l0.078-0.208l0.208-0.078
		h0.221l0.208,0.078l0.078,0.208v6.851l-0.078,0.208L191.018,63.855 M188.119,63.855h-0.221l-0.208-0.078l-0.078-0.208v-3.9
		c0-1.655-0.828-2.483-2.483-2.483h-1.742v6.383l-0.078,0.208l-0.208,0.078h-0.221l-0.208-0.078l-0.078-0.208v-6.851l0.078-0.208
		l0.208-0.078h2.314c1.083,0,1.889,0.271,2.418,0.813c0.529,0.542,0.793,1.328,0.793,2.36v3.965l-0.078,0.208L188.119,63.855
		 M174.079,63.855h-0.221l-0.208-0.078l-0.078-0.208v-3.9c0-1.655-0.828-2.483-2.483-2.483h-2.236l-0.208-0.078l-0.078-0.208v-0.182
		l0.078-0.208l0.208-0.078h2.301c1.083,0,1.889,0.271,2.418,0.813c0.529,0.542,0.793,1.328,0.793,2.36v3.965l-0.078,0.208
		L174.079,63.855 M169.074,63.855h-0.221l-0.208-0.078l-0.078-0.208v-4.563l0.078-0.208l0.208-0.078h0.221l0.208,0.078l0.078,0.208
		v4.563l-0.078,0.208L169.074,63.855 M166.487,63.855h-0.247l-0.176-0.045l-0.149-0.15l-3.211-4.472
		c-0.425,0.304-0.713,0.655-0.865,1.053c-0.152,0.399-0.228,0.841-0.228,1.326v2.002l-0.078,0.208l-0.208,0.078h-0.221l-0.208-0.078
		l-0.078-0.208v-2.067c0-0.615,0.098-1.164,0.293-1.645c0.195-0.481,0.578-0.908,1.15-1.28l-1.157-1.625
		c-0.069-0.104-0.104-0.191-0.104-0.26l0.078-0.182l0.182-0.078h0.247c0.121,0,0.23,0.065,0.325,0.195l2.938,4.095
		c0.364-0.199,0.628-0.405,0.793-0.617c0.165-0.212,0.266-0.427,0.306-0.644c0.039-0.217,0.058-0.507,0.058-0.871v-1.872
		l0.078-0.208l0.208-0.078h0.221l0.208,0.078l0.078,0.208v1.937c0,0.399-0.035,0.743-0.104,1.033
		c-0.07,0.29-0.215,0.572-0.436,0.845c-0.221,0.273-0.548,0.535-0.981,0.786l1.443,2.015c0.069,0.104,0.104,0.191,0.104,0.26
		l-0.078,0.182L166.487,63.855 M157.608,63.855h-0.221l-0.208-0.078l-0.078-0.208v-4.914c0-0.338,0.033-0.637,0.097-0.897
		c0.065-0.26,0.15-0.451,0.254-0.572h-3.783l-0.208-0.078l-0.078-0.208v-0.182l0.078-0.208l0.208-0.078h5.486l0.208,0.078
		l0.078,0.208V56.9l-0.078,0.208l-0.208,0.078h-0.832c-0.139,0.121-0.245,0.319-0.318,0.592c-0.074,0.273-0.11,0.587-0.11,0.943
		v4.849l-0.078,0.208L157.608,63.855 M151.888,63.855h-3.289l-0.208-0.078l-0.078-0.208v-0.182l0.078-0.208l0.208-0.078h2.782
		v-3.432c0-0.476-0.085-0.905-0.253-1.287c-0.169-0.381-0.403-0.676-0.702-0.884c-0.299-0.208-0.635-0.312-1.008-0.312h-1.508
		l-0.962,6.37l-0.111,0.214l-0.214,0.085h-0.234l-0.182-0.085l-0.052-0.214l0.949-6.37h-0.585l-0.208-0.078l-0.078-0.208v-0.182
		l0.078-0.208l0.208-0.078h2.964c0.52,0,0.983,0.13,1.391,0.39c0.407,0.26,0.726,0.63,0.956,1.111
		c0.23,0.481,0.345,1.038,0.345,1.67v3.965l-0.078,0.208L151.888,63.855 M144.076,63.855h-0.221l-0.208-0.078l-0.078-0.208v-3.9
		c0-1.655-0.828-2.483-2.483-2.483h-2.236l-0.208-0.078l-0.078-0.208v-0.182l0.078-0.208l0.208-0.078h2.301
		c1.083,0,1.889,0.271,2.418,0.813c0.529,0.542,0.793,1.328,0.793,2.36v3.965l-0.078,0.208L144.076,63.855 M139.07,63.855h-0.221
		l-0.208-0.078l-0.078-0.208v-4.563l0.078-0.208l0.208-0.078h0.221l0.208,0.078l0.078,0.208v4.563l-0.078,0.208L139.07,63.855
		 M239.767,60.865h-0.221l-0.208-0.078l-0.078-0.208v-3.861l0.078-0.208l0.208-0.078h0.221l0.208,0.078l0.078,0.208v3.861
		l-0.078,0.208L239.767,60.865 M180.228,60.865h-0.221l-0.208-0.078l-0.078-0.208v-3.861l0.078-0.208l0.208-0.078h0.221l0.208,0.078
		l0.078,0.208v3.861l-0.078,0.208L180.228,60.865"/>
	<path fill="#000000" d="M286.701,86.424h-1.209l-0.195-0.085l-0.078-0.202l0.026-0.117l3.12-7.137h-4.069l-0.221-0.091
		l-0.091-0.221v-0.923c0-0.095,0.028-0.173,0.084-0.234c0.056-0.061,0.132-0.091,0.228-0.091h5.72c0.095,0,0.173,0.03,0.234,0.091
		c0.06,0.061,0.091,0.139,0.091,0.234v0.819c0,0.182-0.043,0.369-0.13,0.559l-3.094,7.085c-0.052,0.096-0.108,0.171-0.169,0.228
		C286.887,86.396,286.805,86.424,286.701,86.424"/>
	<path fill="#000000" d="M14.557,88.036h-0.221l-0.208-0.078L14.05,87.75v-5.512c0-1.655-0.832-2.483-2.496-2.483H9.708L9.5,79.677
		l-0.078-0.208v-0.182L9.5,79.079l0.208-0.078h1.911c1.092,0,1.902,0.264,2.431,0.793c0.529,0.529,0.793,1.322,0.793,2.379v5.577
		l-0.078,0.208L14.557,88.036 M61.383,87.165L61.207,87.1l-0.071-0.156v-0.169c0-0.199,0.06-0.321,0.182-0.364l1.781-0.65
		l-1.729-6.24c-0.043-0.147-0.065-0.234-0.065-0.26l0.078-0.182l0.182-0.078h0.234l0.195,0.058l0.104,0.137l1.781,6.279l0.13-0.052
		c0.711-0.26,1.209-0.632,1.495-1.118c0.286-0.485,0.429-1.075,0.429-1.768v-3.25l0.078-0.208l0.208-0.078h0.221l0.208,0.078
		l0.078,0.208v3.51c0,0.728-0.234,1.404-0.702,2.028c-0.468,0.624-1.088,1.075-1.859,1.352L61.5,87.139L61.383,87.165
		 M56.287,86.541c-0.139,0-0.208-0.069-0.208-0.208v-0.325c0-0.147,0.091-0.256,0.273-0.325l0.533-0.208
		c0.667-0.26,1.176-0.619,1.527-1.079c0.351-0.459,0.527-1.144,0.527-2.054c0-0.65-0.078-1.161-0.234-1.534
		c-0.156-0.372-0.414-0.641-0.774-0.806c-0.36-0.165-0.851-0.247-1.475-0.247h-0.442h-0.039l-1.014-0.013l-0.208-0.071l-0.078-0.201
		V77.48l0.078-0.208l0.208-0.078h0.221l0.208,0.078l0.078,0.208v1.521h1.053c0.806,0,1.441,0.11,1.904,0.331
		c0.464,0.221,0.797,0.579,1.001,1.073c0.204,0.494,0.306,1.17,0.306,2.028c0,1.118-0.253,1.972-0.76,2.561
		c-0.507,0.59-1.185,1.036-2.034,1.339l-0.546,0.195L56.287,86.541 M34.902,86.541c-0.139,0-0.208-0.069-0.208-0.208v-0.325
		c0-0.147,0.091-0.256,0.273-0.325l0.533-0.208c0.667-0.26,1.176-0.619,1.527-1.079c0.351-0.459,0.527-1.144,0.527-2.054
		c0-0.65-0.078-1.161-0.234-1.534c-0.156-0.372-0.414-0.641-0.773-0.806c-0.36-0.165-0.852-0.247-1.476-0.247h-0.442H34.59
		l-1.014-0.013l-0.208-0.071l-0.078-0.201V77.48l0.078-0.208l0.208-0.078h0.221l0.208,0.078l0.078,0.208v1.521h1.053
		c0.806,0,1.441,0.11,1.904,0.331c0.464,0.221,0.797,0.579,1.001,1.073c0.203,0.494,0.305,1.17,0.305,2.028
		c0,1.118-0.253,1.972-0.76,2.561c-0.507,0.59-1.185,1.036-2.034,1.339l-0.546,0.195L34.902,86.541 M20.618,86.491
		c-0.04,0-0.08-0.001-0.12-0.002h-0.871c-0.512,0-0.981-0.128-1.41-0.383c-0.429-0.256-0.769-0.622-1.021-1.099
		c-0.251-0.477-0.377-1.031-0.377-1.664v-4.056l0.078-0.208l0.208-0.078h0.221l0.208,0.078l0.078,0.208l0.052,3.887
		c0.884-0.061,1.504-0.28,1.859-0.657c0.355-0.377,0.533-0.865,0.533-1.462v-1.768l0.078-0.208l0.208-0.078h0.221l0.208,0.078
		l0.078,0.208v1.833c0,0.771-0.264,1.419-0.793,1.944c-0.529,0.524-1.309,0.813-2.34,0.864c0.095,0.572,0.347,1.014,0.754,1.326
		c0.407,0.312,0.914,0.468,1.521,0.468h0.455c0.029,0.001,0.057,0.001,0.085,0.001c0.834,0,1.477-0.25,1.93-0.748
		c0.468-0.516,0.702-1.211,0.702-2.087v-3.601l0.078-0.208l0.208-0.078h0.221l0.208,0.078l0.078,0.208v3.692
		c0,0.719-0.143,1.348-0.429,1.885c-0.286,0.537-0.689,0.947-1.209,1.228C21.829,86.358,21.262,86.491,20.618,86.491 M74.253,86.424
		h-3.289l-0.208-0.078l-0.078-0.208v-0.182l0.078-0.208l0.208-0.078h2.782v-3.432c0-0.477-0.084-0.906-0.253-1.287
		c-0.169-0.381-0.403-0.676-0.702-0.884c-0.299-0.208-0.635-0.312-1.007-0.312h-1.508l-0.962,6.37l-0.11,0.215l-0.215,0.085h-0.234
		l-0.182-0.085l-0.052-0.215l0.949-6.37h-0.585l-0.208-0.078l-0.078-0.208v-0.182l0.078-0.208l0.208-0.078h2.964
		c0.52,0,0.983,0.13,1.391,0.39c0.407,0.26,0.726,0.631,0.956,1.112c0.23,0.481,0.344,1.038,0.344,1.67v3.965l-0.078,0.208
		L74.253,86.424 M52.387,86.424h-0.221l-0.208-0.078l-0.078-0.208v-6.851l0.078-0.208l0.208-0.078h0.221l0.208,0.078l0.078,0.208
		v6.851l-0.078,0.208L52.387,86.424 M49.488,86.424h-0.221l-0.208-0.078l-0.078-0.208v-3.9c0-1.655-0.828-2.483-2.483-2.483H45.51
		c-0.087,0.624-0.15,1.127-0.189,1.508c-0.039,0.382-0.054,0.815-0.045,1.3v3.575l-0.078,0.208l-0.208,0.078l-1.482-0.026
		L43.3,86.32l-0.078-0.208V85.93l0.078-0.208l0.208-0.078l0.975,0.013v-3.029v-0.403c0-0.476,0.017-0.895,0.052-1.254
		c0.035-0.36,0.1-0.765,0.195-1.215h-0.663l-0.208-0.078l-0.078-0.208v-0.182l0.078-0.208l0.208-0.078h2.496
		c1.083,0,1.889,0.271,2.418,0.813c0.529,0.542,0.793,1.328,0.793,2.36v3.965l-0.078,0.208L49.488,86.424 M31.353,86.424h-3.289
		l-0.208-0.078l-0.078-0.208v-0.182l0.078-0.208l0.208-0.078h2.782v-3.432c0-0.477-0.085-0.906-0.254-1.287
		c-0.169-0.381-0.403-0.676-0.702-0.884c-0.299-0.208-0.635-0.312-1.008-0.312h-1.508l-0.962,6.37l-0.11,0.215l-0.214,0.085h-0.234
		l-0.182-0.085l-0.052-0.215l0.949-6.37h-0.585l-0.208-0.078l-0.078-0.208v-0.182l0.078-0.208l0.208-0.078h2.964
		c0.52,0,0.983,0.13,1.391,0.39c0.407,0.26,0.726,0.631,0.956,1.112c0.23,0.481,0.345,1.038,0.345,1.67v3.965l-0.078,0.208
		L31.353,86.424"/>
	<path fill="#000000" d="M96.093,86.554c-1.092,0-1.879-0.329-2.36-0.988c-0.481-0.658-0.735-1.525-0.76-2.6l-0.013-1.079
		l0.013-1.105c0.026-1.075,0.279-1.941,0.76-2.6c0.481-0.659,1.267-0.988,2.36-0.988c1.092,0,1.879,0.329,2.36,0.988
		c0.481,0.659,0.734,1.525,0.76,2.6c0.008,0.243,0.013,0.611,0.013,1.105c0,0.485-0.005,0.845-0.013,1.079
		c-0.026,1.075-0.28,1.942-0.76,2.6C97.971,86.225,97.185,86.554,96.093,86.554 M96.093,77.974c-0.745,0-1.311,0.253-1.697,0.76
		c-0.386,0.507-0.587,1.211-0.604,2.112l-0.013,1.014l0.013,1.04c0.017,0.919,0.219,1.627,0.604,2.125
		c0.386,0.499,0.951,0.747,1.697,0.747c0.745,0,1.311-0.249,1.696-0.747c0.386-0.498,0.587-1.207,0.604-2.125
		c0.009-0.251,0.013-0.598,0.013-1.04s-0.004-0.78-0.013-1.014c-0.017-0.901-0.219-1.605-0.604-2.112
		C97.404,78.228,96.838,77.974,96.093,77.974 M88.085,86.554c-1.092,0-1.879-0.329-2.36-0.988c-0.481-0.658-0.734-1.525-0.76-2.6
		l-0.013-1.079l0.013-1.105c0.026-1.075,0.28-1.941,0.76-2.6c0.481-0.659,1.268-0.988,2.36-0.988c1.092,0,1.879,0.329,2.36,0.988
		c0.481,0.659,0.735,1.525,0.76,2.6c0.009,0.243,0.013,0.611,0.013,1.105c0,0.485-0.004,0.845-0.013,1.079
		c-0.026,1.075-0.279,1.942-0.76,2.6C89.963,86.225,89.177,86.554,88.085,86.554 M88.085,77.974c-0.745,0-1.311,0.253-1.696,0.76
		c-0.386,0.507-0.587,1.211-0.604,2.112l-0.013,1.014l0.013,1.04c0.017,0.919,0.219,1.627,0.604,2.125
		c0.386,0.499,0.951,0.747,1.696,0.747c0.745,0,1.311-0.249,1.697-0.747c0.386-0.498,0.587-1.207,0.604-2.125
		c0.008-0.251,0.013-0.598,0.013-1.04s-0.005-0.78-0.013-1.014c-0.018-0.901-0.219-1.605-0.604-2.112
		C89.396,78.228,88.83,77.974,88.085,77.974 M82.742,86.424h-0.247l-0.208-0.078l-0.078-0.208V78.39l-2.327,1.794L79.7,80.249
		l-0.221-0.117l-0.143-0.182l-0.065-0.182l0.117-0.221l2.769-2.132c0.087-0.061,0.199-0.091,0.338-0.091h0.247l0.208,0.078
		l0.078,0.208v8.528l-0.078,0.208L82.742,86.424"/>
	<path fill="#000000" d="M246.605,86.554c-1.031,0-1.803-0.275-2.314-0.825c-0.511-0.55-0.767-1.354-0.767-2.411v-4.03l0.078-0.208
		l0.208-0.078h3.055c1.075,0,1.846,0.247,2.314,0.741c0.468,0.494,0.724,1.261,0.767,2.301c0.009,0.087,0.013,0.329,0.013,0.728
		c0,0.407-0.004,0.655-0.013,0.741c-0.026,1.031-0.304,1.796-0.832,2.294C248.585,86.305,247.749,86.554,246.605,86.554
		 M244.317,79.755v3.562c0,0.797,0.19,1.41,0.572,1.839c0.381,0.429,0.953,0.644,1.716,0.644c0.893,0,1.536-0.193,1.931-0.579
		c0.394-0.386,0.6-0.977,0.617-1.774c0.009-0.087,0.013-0.312,0.013-0.676c0-0.355-0.004-0.576-0.013-0.663
		c-0.018-0.763-0.239-1.346-0.663-1.748c-0.425-0.403-0.988-0.604-1.69-0.604H244.317 M197.401,86.554
		c-1.031,0-1.803-0.275-2.314-0.825c-0.512-0.55-0.767-1.354-0.767-2.411v-4.03l0.078-0.208l0.208-0.078h3.055
		c1.075,0,1.846,0.247,2.314,0.741c0.468,0.494,0.724,1.261,0.767,2.301c0.009,0.087,0.013,0.329,0.013,0.728
		c0,0.407-0.004,0.655-0.013,0.741c-0.026,1.031-0.303,1.796-0.832,2.294C199.381,86.305,198.545,86.554,197.401,86.554
		 M195.113,79.755v3.562c0,0.797,0.19,1.41,0.572,1.839c0.381,0.429,0.953,0.644,1.716,0.644c0.893,0,1.536-0.193,1.931-0.579
		c0.394-0.386,0.6-0.977,0.617-1.774c0.009-0.087,0.013-0.312,0.013-0.676c0-0.355-0.004-0.576-0.013-0.663
		c-0.017-0.763-0.239-1.346-0.663-1.748c-0.425-0.403-0.988-0.604-1.69-0.604H195.113 M176.341,86.541
		c-0.139,0-0.208-0.069-0.208-0.208v-0.325c0-0.147,0.091-0.256,0.273-0.325l0.533-0.208c0.667-0.26,1.176-0.619,1.527-1.079
		c0.351-0.459,0.527-1.144,0.527-2.054c0-0.65-0.078-1.161-0.234-1.534c-0.156-0.372-0.414-0.641-0.773-0.806
		c-0.36-0.165-0.852-0.247-1.475-0.247h-0.442h-0.039l-1.014-0.013l-0.208-0.071l-0.078-0.201V77.48l0.078-0.208l0.208-0.078h0.221
		l0.208,0.078l0.078,0.208v1.521h1.053c0.806,0,1.441,0.11,1.905,0.331c0.464,0.221,0.797,0.579,1.001,1.073
		c0.203,0.494,0.306,1.17,0.306,2.028c0,1.118-0.253,1.972-0.761,2.561c-0.507,0.59-1.185,1.036-2.034,1.339l-0.546,0.195
		L176.341,86.541 M105.674,86.541c-0.139,0-0.208-0.069-0.208-0.208v-0.325c0-0.147,0.091-0.256,0.273-0.325l0.533-0.208
		c0.667-0.26,1.176-0.619,1.527-1.079c0.351-0.459,0.527-1.144,0.527-2.054c0-0.65-0.078-1.161-0.234-1.534
		c-0.156-0.372-0.414-0.641-0.774-0.806c-0.36-0.165-0.851-0.247-1.475-0.247h-0.442h-0.039l-1.014-0.013l-0.208-0.071l-0.078-0.201
		V77.48l0.078-0.208l0.208-0.078h0.221l0.208,0.078l0.078,0.208v1.521h1.053c0.806,0,1.441,0.11,1.904,0.331
		c0.464,0.221,0.797,0.579,1.001,1.073c0.204,0.494,0.306,1.17,0.306,2.028c0,1.118-0.253,1.972-0.76,2.561
		c-0.507,0.59-1.185,1.036-2.034,1.339l-0.546,0.195L105.674,86.541 M114.66,86.491c-0.04,0-0.08-0.001-0.12-0.002h-0.871
		c-0.512,0-0.981-0.128-1.411-0.383c-0.429-0.256-0.769-0.622-1.02-1.099c-0.251-0.477-0.377-1.031-0.377-1.664v-4.056l0.078-0.208
		l0.208-0.078h0.221l0.208,0.078l0.078,0.208l0.052,3.887c0.884-0.061,1.504-0.28,1.859-0.657c0.355-0.377,0.533-0.865,0.533-1.462
		v-1.768l0.078-0.208l0.208-0.078h0.221l0.208,0.078l0.078,0.208v1.833c0,0.771-0.264,1.419-0.793,1.944
		c-0.529,0.524-1.309,0.813-2.34,0.864c0.095,0.572,0.346,1.014,0.754,1.326c0.407,0.312,0.914,0.468,1.521,0.468h0.455
		c0.029,0.001,0.057,0.001,0.085,0.001c0.834,0,1.477-0.25,1.93-0.748c0.468-0.516,0.702-1.211,0.702-2.087v-3.601l0.078-0.208
		l0.208-0.078h0.221l0.208,0.078l0.078,0.208v3.692c0,0.719-0.143,1.348-0.429,1.885c-0.286,0.537-0.689,0.947-1.209,1.228
		C115.87,86.358,115.303,86.491,114.66,86.491 M272.384,86.424h-3.289l-0.208-0.078l-0.078-0.208v-0.182l0.078-0.208l0.208-0.078
		h2.782v-3.432c0-0.477-0.085-0.906-0.254-1.287c-0.169-0.381-0.403-0.676-0.702-0.884c-0.299-0.208-0.635-0.312-1.007-0.312h-1.508
		l-0.962,6.37l-0.111,0.215l-0.215,0.085h-0.234l-0.182-0.085l-0.052-0.215l0.949-6.37h-0.585l-0.208-0.078l-0.078-0.208v-0.182
		l0.078-0.208l0.208-0.078h2.964c0.52,0,0.984,0.13,1.391,0.39c0.407,0.26,0.726,0.631,0.956,1.112
		c0.23,0.481,0.344,1.038,0.344,1.67v3.965l-0.078,0.208L272.384,86.424 M261.932,86.424h-1.911l-0.208-0.078l-0.078-0.208v-0.182
		l0.078-0.208l0.208-0.078h1.846c0.849,0,1.467-0.21,1.853-0.63c0.385-0.42,0.596-1.038,0.63-1.853
		c0.009-0.13,0.013-0.29,0.013-0.481c0-0.182-0.004-0.338-0.013-0.468c-0.026-0.815-0.234-1.432-0.624-1.853
		c-0.39-0.42-1.01-0.63-1.859-0.63h-1.846l-0.208-0.078l-0.078-0.208v-0.182l0.078-0.208l0.208-0.078h1.911
		c1.075,0,1.87,0.269,2.385,0.806c0.516,0.537,0.791,1.326,0.825,2.366c0.009,0.13,0.013,0.308,0.013,0.533
		c0,0.234-0.005,0.416-0.013,0.546c-0.035,1.04-0.31,1.829-0.825,2.366C263.802,86.156,263.006,86.424,261.932,86.424
		 M257.642,86.424h-3.224l-0.208-0.078l-0.078-0.208v-0.182l0.078-0.208l0.208-0.078h2.691l-0.247-3.562l-0.013-0.273
		c-0.035-0.52-0.078-0.914-0.13-1.183c-0.052-0.268-0.165-0.485-0.338-0.65c-0.173-0.165-0.438-0.247-0.793-0.247h-0.481
		l-0.208-0.078l-0.078-0.208v-0.182l0.078-0.208l0.208-0.078h0.481c0.581,0,1.012,0.126,1.294,0.377
		c0.281,0.251,0.468,0.577,0.559,0.975c0.091,0.399,0.163,0.962,0.215,1.69l0.273,4.095v0.039l-0.085,0.176L257.642,86.424
		 M238.441,86.424h-5.226l-0.208-0.078l-0.078-0.208v-6.851l0.078-0.208l0.208-0.078h2.301c1.083,0,1.889,0.271,2.418,0.813
		c0.529,0.542,0.793,1.328,0.793,2.36v3.965l-0.078,0.208L238.441,86.424 M233.709,79.755v5.915h4.225v-3.432
		c0-1.655-0.828-2.483-2.483-2.483H233.709 M227.495,86.424h-0.247l-0.176-0.046l-0.15-0.149l-3.211-4.472
		c-0.425,0.303-0.713,0.654-0.865,1.053c-0.152,0.399-0.227,0.841-0.227,1.326v2.002l-0.078,0.208l-0.208,0.078h-0.221l-0.208-0.078
		l-0.078-0.208v-2.067c0-0.615,0.098-1.164,0.293-1.644c0.195-0.481,0.579-0.908,1.151-1.281l-1.157-1.625
		c-0.069-0.104-0.104-0.19-0.104-0.26l0.078-0.182l0.182-0.078h0.247c0.121,0,0.23,0.065,0.325,0.195l2.938,4.095
		c0.364-0.199,0.628-0.405,0.793-0.617c0.165-0.212,0.267-0.427,0.306-0.643c0.039-0.217,0.058-0.507,0.058-0.871v-1.872
		l0.078-0.208l0.208-0.078h0.221l0.208,0.078l0.078,0.208v1.937c0,0.399-0.035,0.743-0.104,1.033
		c-0.069,0.291-0.214,0.572-0.436,0.845c-0.221,0.273-0.548,0.535-0.981,0.787l1.443,2.015c0.069,0.104,0.104,0.191,0.104,0.26
		l-0.078,0.182L227.495,86.424 M219.799,86.424h-0.221l-0.208-0.078l-0.078-0.208v-3.9c0-1.655-0.828-2.483-2.483-2.483h-0.988
		c-0.087,0.624-0.15,1.127-0.189,1.508c-0.039,0.382-0.054,0.815-0.045,1.3v3.575l-0.078,0.208l-0.208,0.078l-1.482-0.026
		l-0.208-0.078l-0.078-0.208V85.93l0.078-0.208l0.208-0.078l0.975,0.013v-3.029v-0.403c0-0.476,0.017-0.895,0.052-1.254
		c0.035-0.36,0.1-0.765,0.195-1.215h-0.663l-0.208-0.078l-0.078-0.208v-0.182l0.078-0.208l0.208-0.078h2.496
		c1.083,0,1.889,0.271,2.418,0.813c0.529,0.542,0.793,1.328,0.793,2.36v3.965l-0.078,0.208L219.799,86.424 M208.139,86.424h-0.221
		l-0.208-0.078l-0.078-0.208v-3.9c0-1.655-0.828-2.483-2.483-2.483h-2.236l-0.208-0.078l-0.078-0.208v-0.182l0.078-0.208
		l0.208-0.078h2.301c1.083,0,1.889,0.271,2.418,0.813c0.529,0.542,0.793,1.328,0.793,2.36v3.965l-0.078,0.208L208.139,86.424
		 M203.134,86.424h-0.221l-0.208-0.078l-0.078-0.208v-4.563l0.078-0.208l0.208-0.078h0.221l0.208,0.078l0.078,0.208v4.563
		l-0.078,0.208L203.134,86.424 M189.237,86.424h-0.221l-0.208-0.078l-0.078-0.208v-3.9c0-1.655-0.828-2.483-2.483-2.483h-1.586
		l-0.208-0.078l-0.078-0.208v-0.182l0.078-0.208l0.208-0.078h1.651c1.083,0,1.889,0.271,2.418,0.813
		c0.529,0.542,0.793,1.328,0.793,2.36v3.965l-0.078,0.208L189.237,86.424 M172.792,86.424h-0.221l-0.208-0.078l-0.078-0.208v-3.9
		c0-1.655-0.828-2.483-2.483-2.483h-0.988c-0.087,0.624-0.15,1.127-0.189,1.508c-0.039,0.382-0.054,0.815-0.045,1.3v3.575
		l-0.078,0.208l-0.208,0.078l-1.482-0.026l-0.208-0.078l-0.078-0.208V85.93l0.078-0.208l0.208-0.078l0.975,0.013v-3.029v-0.403
		c0-0.476,0.017-0.895,0.052-1.254c0.035-0.36,0.1-0.765,0.195-1.215h-0.663l-0.208-0.078l-0.078-0.208v-0.182l0.078-0.208
		l0.208-0.078h2.496c1.083,0,1.889,0.271,2.418,0.813c0.529,0.542,0.793,1.328,0.793,2.36v3.965L173,86.346L172.792,86.424
		 M164.81,86.424h-3.224l-0.208-0.078l-0.078-0.208v-0.182l0.078-0.208l0.208-0.078h2.691l-0.247-3.562l-0.013-0.273
		c-0.035-0.52-0.078-0.914-0.13-1.183c-0.052-0.268-0.165-0.485-0.338-0.65c-0.174-0.165-0.438-0.247-0.793-0.247h-0.481
		l-0.208-0.078l-0.078-0.208v-0.182l0.078-0.208l0.208-0.078h0.481c0.581,0,1.012,0.126,1.294,0.377
		c0.281,0.251,0.468,0.577,0.559,0.975c0.091,0.399,0.162,0.962,0.214,1.69l0.273,4.095v0.039l-0.085,0.176L164.81,86.424
		 M159.298,86.424h-0.221l-0.208-0.078l-0.078-0.208v-6.851l0.078-0.208l0.208-0.078h0.221l0.208,0.078l0.078,0.208v6.851
		l-0.078,0.208L159.298,86.424 M156.399,86.424h-0.221l-0.208-0.078l-0.078-0.208v-3.9c0-1.655-0.828-2.483-2.483-2.483h-1.586
		l-0.208-0.078l-0.078-0.208v-0.182l0.078-0.208l0.208-0.078h1.651c1.083,0,1.889,0.271,2.418,0.813
		c0.529,0.542,0.793,1.328,0.793,2.36v3.965l-0.078,0.208L156.399,86.424 M147.273,86.424h-5.2l-0.208-0.078l-0.078-0.208v-0.182
		l0.078-0.208l0.208-0.078h3.913v-3.432c0-1.655-0.828-2.483-2.483-2.483h-1.3l-0.208-0.078l-0.078-0.208v-0.182l0.078-0.208
		l0.208-0.078h1.365c1.083,0,1.889,0.273,2.418,0.819c0.529,0.546,0.793,1.33,0.793,2.353v3.497h0.494l0.208,0.078l0.078,0.208
		v0.182l-0.078,0.208L147.273,86.424 M139.733,86.424h-0.221l-0.208-0.078l-0.078-0.208v-3.9c0-1.655-0.828-2.483-2.483-2.483
		h-1.742v6.383l-0.078,0.208l-0.208,0.078h-0.221l-0.208-0.078l-0.078-0.208v-6.851l0.078-0.208l0.208-0.078h2.314
		c1.083,0,1.889,0.271,2.418,0.813c0.529,0.542,0.793,1.328,0.793,2.36v3.965l-0.078,0.208L139.733,86.424 M131.738,86.424h-0.221
		l-0.208-0.078l-0.078-0.208v-6.851l0.078-0.208l0.208-0.078h0.221l0.208,0.078l0.078,0.208v6.851l-0.078,0.208L131.738,86.424
		 M128.84,86.424h-5.226l-0.208-0.078l-0.078-0.208v-6.851l0.078-0.208l0.208-0.078h2.301c1.083,0,1.889,0.271,2.418,0.813
		c0.529,0.542,0.793,1.328,0.793,2.36v3.965l-0.078,0.208L128.84,86.424 M124.108,79.755v5.915h4.225v-3.432
		c0-1.655-0.828-2.483-2.483-2.483H124.108 M252.234,83.434h-0.221l-0.208-0.078l-0.078-0.208v-3.861l0.078-0.208l0.208-0.078h0.221
		l0.208,0.078l0.078,0.208v3.861l-0.078,0.208L252.234,83.434 M241.236,83.434h-0.221l-0.208-0.078l-0.078-0.208v-3.861l0.078-0.208
		l0.208-0.078h0.221l0.208,0.078l0.078,0.208v3.861l-0.078,0.208L241.236,83.434 M192.032,83.434h-0.221l-0.208-0.078l-0.078-0.208
		v-3.861l0.078-0.208l0.208-0.078h0.221l0.208,0.078l0.078,0.208v3.861l-0.078,0.208L192.032,83.434"/>
	<path fill="#000000" d="M155.983,104.936h-0.221l-0.208-0.078l-0.078-0.208v-5.512c0-1.655-0.832-2.483-2.496-2.483h-1.846
		l-0.208-0.078l-0.078-0.208v-0.182l0.078-0.208l0.208-0.078h1.911c1.092,0,1.902,0.264,2.431,0.793
		c0.529,0.529,0.793,1.322,0.793,2.379v5.577l-0.078,0.208L155.983,104.936 M89.528,104.065L89.353,104l-0.071-0.156v-0.169
		c0-0.2,0.061-0.321,0.182-0.364l1.781-0.65l-1.729-6.24c-0.043-0.147-0.065-0.234-0.065-0.26l0.078-0.182l0.182-0.078h0.234
		l0.195,0.058l0.104,0.137l1.781,6.279l0.13-0.052c0.711-0.26,1.209-0.633,1.495-1.118c0.286-0.485,0.429-1.075,0.429-1.768v-3.25
		l0.078-0.208l0.208-0.078h0.221l0.208,0.078l0.078,0.208v3.51c0,0.728-0.234,1.404-0.702,2.028
		c-0.468,0.624-1.088,1.075-1.859,1.352l-2.665,0.962L89.528,104.065 M53.038,103.454c-1.031,0-1.803-0.275-2.314-0.825
		c-0.512-0.55-0.767-1.354-0.767-2.411v-4.03l0.078-0.208l0.208-0.078h3.055c1.075,0,1.846,0.247,2.314,0.741
		c0.468,0.494,0.724,1.261,0.767,2.301c0.008,0.087,0.013,0.329,0.013,0.728c0,0.407-0.005,0.655-0.013,0.741
		c-0.026,1.031-0.304,1.796-0.832,2.294C55.018,103.205,54.182,103.454,53.038,103.454 M50.75,96.655v3.562
		c0,0.797,0.191,1.41,0.572,1.839c0.381,0.429,0.953,0.644,1.716,0.644c0.892,0,1.536-0.193,1.93-0.579
		c0.394-0.386,0.6-0.977,0.617-1.774c0.009-0.087,0.013-0.312,0.013-0.676c0-0.355-0.005-0.576-0.013-0.663
		c-0.017-0.763-0.238-1.346-0.663-1.748c-0.425-0.403-0.988-0.604-1.69-0.604H50.75 M262.14,103.441
		c-0.139,0-0.208-0.069-0.208-0.208v-0.325c0-0.147,0.091-0.256,0.273-0.325l0.533-0.208c0.667-0.26,1.176-0.619,1.527-1.079
		c0.351-0.459,0.526-1.144,0.526-2.054c0-0.65-0.078-1.161-0.234-1.534c-0.156-0.372-0.414-0.641-0.773-0.806
		c-0.36-0.165-0.852-0.247-1.476-0.247h-0.442h-0.039l-1.014-0.013l-0.208-0.071l-0.078-0.201V94.38l0.078-0.208l0.208-0.078h0.221
		l0.208,0.078l0.078,0.208v1.521h1.053c0.806,0,1.441,0.11,1.905,0.331c0.464,0.221,0.797,0.579,1.001,1.073
		c0.203,0.494,0.306,1.17,0.306,2.028c0,1.118-0.254,1.972-0.761,2.561c-0.507,0.59-1.185,1.036-2.034,1.339l-0.546,0.195
		L262.14,103.441 M244.434,103.441c-0.139,0-0.208-0.069-0.208-0.208v-0.325c0-0.147,0.091-0.256,0.273-0.325l0.533-0.208
		c0.667-0.26,1.176-0.619,1.528-1.079c0.351-0.459,0.527-1.144,0.527-2.054c0-0.65-0.078-1.161-0.234-1.534
		c-0.156-0.372-0.414-0.641-0.773-0.806c-0.36-0.165-0.852-0.247-1.475-0.247h-0.442h-0.039l-1.014-0.013l-0.208-0.071l-0.078-0.201
		V94.38l0.078-0.208l0.208-0.078h0.221l0.208,0.078l0.078,0.208v1.521h1.053c0.806,0,1.441,0.11,1.905,0.331
		c0.464,0.221,0.797,0.579,1.001,1.073c0.204,0.494,0.306,1.17,0.306,2.028c0,1.118-0.253,1.972-0.76,2.561
		c-0.507,0.59-1.185,1.036-2.035,1.339l-0.546,0.195L244.434,103.441 M234.918,103.441c-0.139,0-0.208-0.069-0.208-0.208v-0.325
		c0-0.147,0.091-0.256,0.273-0.325l0.533-0.208c0.667-0.26,1.176-0.619,1.528-1.079c0.351-0.459,0.527-1.144,0.527-2.054
		c0-0.65-0.078-1.161-0.234-1.534c-0.156-0.372-0.414-0.641-0.774-0.806c-0.36-0.165-0.851-0.247-1.475-0.247h-0.442h-0.039
		l-1.014-0.013l-0.208-0.071l-0.078-0.201V94.38l0.078-0.208l0.208-0.078h0.221l0.208,0.078l0.078,0.208v1.521h1.053
		c0.806,0,1.441,0.11,1.904,0.331c0.464,0.221,0.797,0.579,1.001,1.073c0.204,0.494,0.306,1.17,0.306,2.028
		c0,1.118-0.253,1.972-0.76,2.561c-0.507,0.59-1.185,1.036-2.034,1.339l-0.546,0.195L234.918,103.441 M179.214,103.441
		c-0.139,0-0.208-0.069-0.208-0.208v-0.325c0-0.147,0.091-0.256,0.273-0.325l0.533-0.208c0.667-0.26,1.176-0.619,1.527-1.079
		c0.351-0.459,0.527-1.144,0.527-2.054c0-0.65-0.078-1.161-0.234-1.534c-0.156-0.372-0.414-0.641-0.774-0.806
		c-0.36-0.165-0.851-0.247-1.475-0.247h-0.442h-0.039l-1.014-0.013l-0.208-0.071l-0.078-0.201V94.38l0.078-0.208l0.208-0.078h0.221
		l0.208,0.078l0.078,0.208v1.521h1.053c0.806,0,1.441,0.11,1.904,0.331c0.464,0.221,0.797,0.579,1.001,1.073
		c0.204,0.494,0.306,1.17,0.306,2.028c0,1.118-0.253,1.972-0.76,2.561c-0.507,0.59-1.185,1.036-2.034,1.339l-0.546,0.195
		L179.214,103.441 M142.619,103.441c-0.139,0-0.208-0.069-0.208-0.208v-0.325c0-0.147,0.091-0.256,0.273-0.325l0.533-0.208
		c0.667-0.26,1.176-0.619,1.527-1.079c0.351-0.459,0.527-1.144,0.527-2.054c0-0.65-0.078-1.161-0.234-1.534
		c-0.156-0.372-0.414-0.641-0.774-0.806c-0.36-0.165-0.851-0.247-1.475-0.247h-0.442h-0.039l-1.014-0.013l-0.208-0.071l-0.078-0.201
		V94.38l0.078-0.208l0.208-0.078h0.221l0.208,0.078l0.078,0.208v1.521h1.053c0.806,0,1.441,0.11,1.904,0.331
		c0.464,0.221,0.797,0.579,1.001,1.073c0.204,0.494,0.306,1.17,0.306,2.028c0,1.118-0.253,1.972-0.76,2.561
		c-0.507,0.59-1.185,1.036-2.034,1.339l-0.546,0.195L142.619,103.441 M190.968,103.391c-0.039,0-0.079,0-0.119-0.001h-0.871
		c-0.512,0-0.982-0.128-1.411-0.384c-0.429-0.256-0.769-0.622-1.021-1.099c-0.251-0.477-0.377-1.031-0.377-1.664v-4.056l0.078-0.208
		l0.208-0.078h0.221l0.208,0.078l0.078,0.208l0.052,3.887c0.884-0.061,1.504-0.28,1.859-0.657c0.355-0.377,0.533-0.865,0.533-1.462
		v-1.768l0.078-0.208l0.208-0.078h0.221l0.208,0.078l0.078,0.208v1.833c0,0.771-0.264,1.419-0.793,1.944
		c-0.529,0.525-1.309,0.813-2.34,0.864c0.095,0.572,0.346,1.014,0.754,1.326c0.407,0.312,0.914,0.468,1.521,0.468h0.455
		c0.029,0.001,0.057,0.001,0.085,0.001c0.834,0,1.477-0.25,1.93-0.748c0.468-0.516,0.702-1.211,0.702-2.087v-3.601l0.078-0.208
		l0.208-0.078h0.221l0.208,0.078l0.078,0.208v3.692c0,0.72-0.143,1.348-0.429,1.885c-0.286,0.537-0.689,0.947-1.209,1.228
		C192.179,103.258,191.612,103.391,190.968,103.391 M269.68,103.324h-1.911l-0.208-0.078l-0.078-0.208v-0.182l0.078-0.208
		l0.208-0.078h1.846c0.849,0,1.467-0.21,1.853-0.63c0.385-0.42,0.596-1.038,0.63-1.853c0.009-0.13,0.013-0.29,0.013-0.481
		c0-0.182-0.004-0.338-0.013-0.468c-0.026-0.815-0.234-1.432-0.624-1.853c-0.39-0.42-1.01-0.63-1.859-0.63h-1.846l-0.208-0.078
		l-0.078-0.208v-0.182l0.078-0.208l0.208-0.078h1.911c1.075,0,1.87,0.269,2.385,0.806c0.516,0.537,0.791,1.326,0.826,2.366
		c0.009,0.13,0.013,0.308,0.013,0.533c0,0.234-0.005,0.416-0.013,0.546c-0.035,1.04-0.31,1.829-0.826,2.366
		C271.55,103.056,270.754,103.324,269.68,103.324 M255.263,103.324h-0.221l-0.208-0.078l-0.078-0.208v-3.9
		c0-1.655-0.828-2.483-2.483-2.483h-2.236l-0.208-0.078l-0.078-0.208v-0.182l0.078-0.208l0.208-0.078h2.301
		c1.083,0,1.889,0.271,2.418,0.813c0.529,0.542,0.793,1.328,0.793,2.36v3.965l-0.078,0.208L255.263,103.324 M250.258,103.324h-0.221
		l-0.208-0.078l-0.078-0.208v-4.563l0.078-0.208l0.208-0.078h0.221l0.208,0.078l0.078,0.208v4.563l-0.078,0.208L250.258,103.324
		 M231.369,103.324h-0.221l-0.208-0.078l-0.078-0.208v-3.9c0-1.655-0.828-2.483-2.483-2.483h-2.236l-0.208-0.078l-0.078-0.208
		v-0.182l0.078-0.208l0.208-0.078h2.301c1.083,0,1.889,0.271,2.418,0.813c0.529,0.542,0.793,1.328,0.793,2.36v3.965l-0.078,0.208
		L231.369,103.324 M226.364,103.324h-0.221l-0.208-0.078l-0.078-0.208v-4.563l0.078-0.208l0.208-0.078h0.221l0.208,0.078
		l0.078,0.208v4.563l-0.078,0.208L226.364,103.324 M223.53,103.324h-0.624l-0.208-0.078l-0.078-0.208v-0.624l0.078-0.215
		l0.208-0.084h0.624l0.215,0.084l0.084,0.215v0.624l-0.084,0.208L223.53,103.324 M217.018,103.324h-0.221l-0.208-0.078l-0.078-0.208
		v-3.9c0-1.655-0.828-2.483-2.483-2.483h-2.236l-0.208-0.078l-0.078-0.208v-0.182l0.078-0.208l0.208-0.078h2.301
		c1.083,0,1.889,0.271,2.418,0.813c0.529,0.542,0.793,1.328,0.793,2.36v3.965l-0.078,0.208L217.018,103.324 M212.013,103.324h-0.221
		l-0.208-0.078l-0.078-0.208v-4.563l0.078-0.208l0.208-0.078h0.221l0.208,0.078l0.078,0.208v4.563l-0.078,0.208L212.013,103.324
		 M209.114,103.324h-0.221l-0.208-0.078l-0.078-0.208v-3.9c0-1.655-0.828-2.483-2.483-2.483h-0.988
		c-0.087,0.624-0.149,1.127-0.188,1.508c-0.039,0.382-0.054,0.815-0.045,1.3v3.575l-0.078,0.208l-0.208,0.078l-1.482-0.026
		l-0.208-0.078l-0.078-0.208v-0.182l0.078-0.208l0.208-0.078l0.975,0.013v-3.029v-0.403c0-0.476,0.017-0.895,0.052-1.254
		c0.035-0.359,0.1-0.765,0.195-1.215h-0.663l-0.208-0.078l-0.078-0.208v-0.182l0.078-0.208l0.208-0.078h2.496
		c1.083,0,1.889,0.271,2.418,0.813c0.529,0.542,0.793,1.328,0.793,2.36v3.965l-0.078,0.208L209.114,103.324 M201.431,103.324h-5.2
		l-0.208-0.078l-0.078-0.208v-0.182l0.078-0.208l0.208-0.078h3.913v-3.432c0-1.655-0.828-2.483-2.483-2.483h-1.3l-0.208-0.078
		l-0.078-0.208v-0.182l0.078-0.208l0.208-0.078h1.365c1.083,0,1.889,0.273,2.418,0.819c0.529,0.546,0.793,1.33,0.793,2.353v3.497
		h0.494l0.208,0.078l0.078,0.208v0.182l-0.078,0.208L201.431,103.324 M172.48,103.324h-4.485l-0.208-0.078l-0.078-0.208v-0.182
		l0.078-0.208l0.208-0.078h3.705l-4.173-6.149c-0.069-0.104-0.104-0.19-0.104-0.26l0.084-0.182l0.188-0.078h0.234
		c0.13,0,0.238,0.069,0.325,0.208l2.496,3.627c0.849-0.321,1.274-1.083,1.274-2.288v-1.261l0.078-0.208l0.208-0.078h0.221
		l0.208,0.078l0.078,0.208v1.326c0,0.702-0.141,1.289-0.423,1.761c-0.282,0.472-0.695,0.821-1.242,1.046l1.469,2.145
		c0.095,0.139,0.143,0.269,0.143,0.39v0.182l-0.078,0.208L172.48,103.324 M165.694,103.324h-0.221l-0.208-0.078l-0.078-0.208v-3.9
		c0-1.655-0.828-2.483-2.483-2.483h-1.586l-0.208-0.078l-0.078-0.208v-0.182l0.078-0.208l0.208-0.078h1.651
		c1.083,0,1.889,0.271,2.418,0.813c0.529,0.542,0.793,1.328,0.793,2.36v3.965l-0.078,0.208L165.694,103.324 M139.07,103.324h-0.221
		l-0.208-0.078l-0.078-0.208v-3.9c0-1.655-0.828-2.483-2.483-2.483h-2.236l-0.208-0.078l-0.078-0.208v-0.182l0.078-0.208
		l0.208-0.078h2.301c1.083,0,1.889,0.271,2.418,0.813c0.529,0.542,0.793,1.328,0.793,2.36v3.965l-0.078,0.208L139.07,103.324
		 M134.065,103.324h-0.221l-0.208-0.078l-0.078-0.208v-4.563l0.078-0.208l0.208-0.078h0.221l0.208,0.078l0.078,0.208v4.563
		l-0.078,0.208L134.065,103.324 M128.32,103.324h-0.221l-0.208-0.078l-0.078-0.208v-6.851l0.078-0.208l0.208-0.078h0.221
		l0.208,0.078l0.078,0.208v6.851l-0.078,0.208L128.32,103.324 M125.421,103.324H125.2l-0.208-0.078l-0.078-0.208v-3.9
		c0-1.655-0.828-2.483-2.483-2.483h-0.988c-0.087,0.624-0.149,1.127-0.188,1.508c-0.039,0.382-0.054,0.815-0.045,1.3v3.575
		l-0.078,0.208l-0.208,0.078l-1.482-0.026l-0.208-0.078l-0.078-0.208v-0.182l0.078-0.208l0.208-0.078l0.975,0.013v-3.029v-0.403
		c0-0.476,0.017-0.895,0.052-1.254c0.035-0.359,0.1-0.765,0.195-1.215H120l-0.208-0.078l-0.078-0.208v-0.182l0.078-0.208L120,95.901
		h2.496c1.083,0,1.889,0.271,2.418,0.813c0.529,0.542,0.793,1.328,0.793,2.36v3.965l-0.078,0.208L125.421,103.324 M113.76,103.324
		h-0.221l-0.208-0.078l-0.078-0.208v-3.9c0-1.655-0.828-2.483-2.483-2.483h-1.742v6.383l-0.078,0.208l-0.208,0.078h-0.221
		l-0.208-0.078l-0.078-0.208v-6.851l0.078-0.208l0.208-0.078h2.314c1.083,0,1.889,0.271,2.418,0.813
		c0.529,0.542,0.793,1.328,0.793,2.36v3.965l-0.078,0.208L113.76,103.324 M105.843,103.324h-5.226l-0.208-0.078l-0.078-0.208v-6.851
		l0.078-0.208l0.208-0.078h2.301c1.083,0,1.889,0.271,2.418,0.813c0.529,0.542,0.793,1.328,0.793,2.36v3.965l-0.078,0.208
		L105.843,103.324 M101.111,96.655v5.915h4.225v-3.432c0-1.655-0.828-2.483-2.483-2.483H101.111 M87.357,103.324h-5.226
		l-0.208-0.078l-0.078-0.208v-6.851l0.078-0.208l0.208-0.078h2.301c1.083,0,1.889,0.271,2.418,0.813
		c0.529,0.542,0.793,1.328,0.793,2.36v3.965l-0.078,0.208L87.357,103.324 M82.625,96.655v5.915h4.225v-3.432
		c0-1.655-0.828-2.483-2.483-2.483H82.625 M76.099,103.324h-0.221l-0.208-0.078l-0.078-0.208v-3.9c0-1.655-0.828-2.483-2.483-2.483
		h-2.236l-0.208-0.078l-0.078-0.208v-0.182l0.078-0.208l0.208-0.078h2.301c1.083,0,1.889,0.271,2.418,0.813
		c0.529,0.542,0.793,1.328,0.793,2.36v3.965l-0.078,0.208L76.099,103.324 M71.095,103.324h-0.221l-0.208-0.078l-0.078-0.208v-4.563
		l0.078-0.208l0.208-0.078h0.221l0.208,0.078l0.078,0.208v4.563l-0.078,0.208L71.095,103.324 M65.492,103.324h-1.911l-0.208-0.078
		l-0.078-0.208v-0.182l0.078-0.208l0.208-0.078h1.846c0.849,0,1.467-0.21,1.853-0.63c0.386-0.42,0.596-1.038,0.63-1.853
		c0.009-0.13,0.013-0.29,0.013-0.481c0-0.182-0.004-0.338-0.013-0.468c-0.026-0.815-0.234-1.432-0.624-1.853
		c-0.39-0.42-1.01-0.63-1.859-0.63h-1.846l-0.208-0.078l-0.078-0.208v-0.182l0.078-0.208l0.208-0.078h1.911
		c1.075,0,1.87,0.269,2.385,0.806c0.516,0.537,0.791,1.326,0.825,2.366c0.009,0.13,0.013,0.308,0.013,0.533
		c0,0.234-0.004,0.416-0.013,0.546c-0.035,1.04-0.31,1.829-0.825,2.366C67.361,103.056,66.566,103.324,65.492,103.324
		 M61.202,103.324h-3.224l-0.208-0.078l-0.078-0.208v-0.182l0.078-0.208l0.208-0.078h2.691l-0.247-3.562l-0.013-0.273
		c-0.035-0.52-0.078-0.914-0.13-1.183c-0.052-0.268-0.165-0.485-0.338-0.65c-0.173-0.165-0.438-0.247-0.793-0.247h-0.481
		l-0.208-0.078l-0.078-0.208v-0.182l0.078-0.208l0.208-0.078h0.481c0.58,0,1.012,0.126,1.293,0.377
		c0.282,0.251,0.468,0.577,0.559,0.975c0.091,0.399,0.163,0.962,0.215,1.69l0.273,4.095v0.039l-0.085,0.176L61.202,103.324
		 M47.643,103.324h-0.221l-0.208-0.078l-0.078-0.208v-3.9c0-1.655-0.828-2.483-2.483-2.483h-0.988
		c-0.087,0.624-0.149,1.127-0.188,1.508c-0.039,0.382-0.054,0.815-0.045,1.3v3.575l-0.078,0.208l-0.208,0.078l-1.482-0.026
		l-0.208-0.078l-0.078-0.208v-0.182l0.078-0.208l0.208-0.078l0.975,0.013v-3.029v-0.403c0-0.476,0.017-0.895,0.052-1.254
		c0.035-0.359,0.1-0.765,0.195-1.215h-0.663l-0.208-0.078l-0.078-0.208v-0.182l0.078-0.208l0.208-0.078h2.496
		c1.083,0,1.889,0.271,2.418,0.813c0.529,0.542,0.793,1.328,0.793,2.36v3.965l-0.078,0.208L47.643,103.324 M39.258,103.324h-0.221
		l-0.208-0.078l-0.078-0.208v-6.851l0.078-0.208l0.208-0.078h0.221l0.208,0.078l0.078,0.208v6.851l-0.078,0.208L39.258,103.324
		 M240.638,100.334h-0.221l-0.208-0.078l-0.078-0.208v-3.861l0.078-0.208l0.208-0.078h0.221l0.208,0.078l0.078,0.208v3.861
		l-0.078,0.208L240.638,100.334 M184.934,100.334h-0.221l-0.208-0.078l-0.078-0.208v-3.861l0.078-0.208l0.208-0.078h0.221
		l0.208,0.078l0.078,0.208v3.861l-0.078,0.208L184.934,100.334 M158.778,100.334h-0.221l-0.208-0.078l-0.078-0.208v-3.861
		l0.078-0.208l0.208-0.078h0.221l0.208,0.078l0.078,0.208v3.861l-0.078,0.208L158.778,100.334 M131.192,100.334h-0.221l-0.208-0.078
		l-0.078-0.208v-3.861l0.078-0.208l0.208-0.078h0.221l0.208,0.078l0.078,0.208v3.861l-0.078,0.208L131.192,100.334"/>
	<path fill="#000000" d="M269.459,120.341c-0.139,0-0.208-0.069-0.208-0.208v-0.325c0-0.147,0.091-0.256,0.273-0.325l0.533-0.208
		c0.667-0.26,1.176-0.619,1.527-1.079c0.351-0.459,0.526-1.144,0.526-2.054c0-0.65-0.078-1.161-0.234-1.534
		c-0.156-0.373-0.414-0.641-0.773-0.806c-0.36-0.165-0.852-0.247-1.476-0.247h-0.442h-0.039l-1.014-0.013l-0.208-0.072l-0.078-0.201
		v-1.989l0.078-0.208l0.208-0.078h0.221l0.208,0.078l0.078,0.208v1.521h1.053c0.806,0,1.441,0.11,1.905,0.331
		c0.464,0.221,0.797,0.579,1.001,1.073c0.203,0.494,0.306,1.17,0.306,2.028c0,1.118-0.254,1.972-0.761,2.561
		c-0.507,0.589-1.185,1.036-2.034,1.339l-0.546,0.195L269.459,120.341 M265.91,120.224h-0.221l-0.208-0.078l-0.078-0.208v-3.9
		c0-1.655-0.828-2.483-2.483-2.483h-0.988c-0.087,0.624-0.149,1.127-0.188,1.508c-0.039,0.382-0.054,0.815-0.045,1.3v3.575
		l-0.078,0.208l-0.208,0.078l-1.482-0.026l-0.208-0.078l-0.078-0.208v-0.182l0.078-0.208l0.208-0.078l0.975,0.013v-3.029v-0.403
		c0-0.477,0.017-0.895,0.052-1.255c0.035-0.359,0.1-0.765,0.195-1.215h-0.663l-0.208-0.078l-0.078-0.208v-0.182l0.078-0.208
		l0.208-0.078h2.496c1.083,0,1.889,0.271,2.418,0.813c0.529,0.542,0.793,1.328,0.793,2.36v3.965l-0.078,0.208L265.91,120.224
		 M257.928,120.224h-3.224l-0.208-0.078l-0.078-0.208v-0.182l0.078-0.208l0.208-0.078h2.691l-0.247-3.562l-0.013-0.273
		c-0.035-0.52-0.078-0.914-0.13-1.183c-0.052-0.268-0.165-0.485-0.338-0.65c-0.173-0.165-0.438-0.247-0.793-0.247h-0.481
		l-0.208-0.078l-0.078-0.208v-0.182l0.078-0.208l0.208-0.078h0.481c0.581,0,1.012,0.126,1.294,0.377
		c0.281,0.251,0.468,0.577,0.559,0.975c0.091,0.399,0.162,0.962,0.214,1.69l0.273,4.095v0.039l-0.085,0.176L257.928,120.224
		 M252.416,120.224h-0.221l-0.208-0.078l-0.078-0.208v-6.851l0.078-0.208l0.208-0.078h0.221l0.208,0.078l0.078,0.208v6.851
		l-0.078,0.208L252.416,120.224 M249.517,120.224h-0.221l-0.208-0.078l-0.078-0.208v-3.9c0-1.655-0.828-2.483-2.483-2.483h-1.586
		l-0.208-0.078l-0.078-0.208v-0.182l0.078-0.208l0.208-0.078h1.651c1.083,0,1.889,0.271,2.418,0.813
		c0.529,0.542,0.793,1.328,0.793,2.36v3.965l-0.078,0.208L249.517,120.224"/>
</g>
</svg>
