<!-- Generator: Adobe InDesign 14.0 SVG Export Plug-in, SVG Library version: 6.0 build 234 -->
<!DOCTYPE svg PUBLIC "-//W3C//DTD SVG 1.1//EN" "http://www.w3.org/Graphics/SVG/1.1/DTD/svg11.dtd">
<svg version="1.1" xmlns="http://www.w3.org/2000/svg" xmlns:xlink="http://www.w3.org/1999/xlink" x="0%" y="0%" width="100%"
	 height="100%" viewBox="0 0 302.261 534.346" preserveAspectRatio="xMidYMid slice" overflow="visible" xml:space="preserve">
<clipPath id="clp_unq_id_1" fill="none">
	<path shape-rendering="crispEdges" stroke="#000000" d="M0,0h302.261v534.346H0V0"/>
</clipPath>
<g clip-path="url(#clp_unq_id_1)" fill="none">
	<path fill="#000000" d="M286.701,63.855h-1.209l-0.195-0.085l-0.078-0.201l0.026-0.117l3.12-7.137h-4.069l-0.221-0.091
		l-0.091-0.221V55.08c0-0.095,0.028-0.173,0.084-0.234c0.056-0.06,0.132-0.091,0.228-0.091h5.72c0.095,0,0.173,0.03,0.234,0.091
		c0.061,0.061,0.091,0.139,0.091,0.234v0.819c0,0.182-0.044,0.368-0.13,0.559l-3.094,7.085c-0.052,0.095-0.108,0.171-0.169,0.227
		C286.887,63.827,286.805,63.855,286.701,63.855"/>
	<path fill="#000000" d="M42.455,65.467h-0.221l-0.208-0.078l-0.078-0.208v-5.512c0-1.655-0.832-2.483-2.496-2.483h-1.846
		l-0.208-0.078L37.32,56.9v-0.182l0.078-0.208l0.208-0.078h1.911c1.092,0,1.902,0.264,2.431,0.793
		c0.529,0.529,0.793,1.322,0.793,2.379v5.577l-0.078,0.208L42.455,65.467 M246.605,63.985c-1.031,0-1.803-0.275-2.314-0.825
		c-0.512-0.55-0.767-1.354-0.767-2.412v-4.03l0.078-0.208l0.208-0.078h3.055c1.075,0,1.846,0.247,2.314,0.741
		c0.468,0.494,0.724,1.261,0.767,2.301c0.009,0.087,0.013,0.329,0.013,0.728c0,0.408-0.004,0.655-0.013,0.741
		c-0.026,1.031-0.303,1.796-0.832,2.295C248.585,63.736,247.749,63.985,246.605,63.985 M244.317,57.186v3.562
		c0,0.798,0.19,1.411,0.572,1.84c0.381,0.429,0.953,0.643,1.716,0.643c0.893,0,1.536-0.193,1.931-0.579
		c0.394-0.386,0.6-0.977,0.617-1.774c0.009-0.087,0.013-0.312,0.013-0.676c0-0.355-0.004-0.576-0.013-0.663
		c-0.018-0.762-0.239-1.345-0.663-1.748c-0.425-0.403-0.988-0.604-1.69-0.604H244.317 M197.401,63.985
		c-1.031,0-1.803-0.275-2.314-0.825c-0.512-0.55-0.767-1.354-0.767-2.412v-4.03l0.078-0.208l0.208-0.078h3.055
		c1.075,0,1.846,0.247,2.314,0.741c0.468,0.494,0.724,1.261,0.767,2.301c0.008,0.087,0.013,0.329,0.013,0.728
		c0,0.408-0.005,0.655-0.013,0.741c-0.026,1.031-0.304,1.796-0.832,2.295C199.381,63.736,198.545,63.985,197.401,63.985
		 M195.113,57.186v3.562c0,0.798,0.19,1.411,0.572,1.84c0.381,0.429,0.953,0.643,1.716,0.643c0.893,0,1.536-0.193,1.931-0.579
		c0.394-0.386,0.6-0.977,0.617-1.774c0.009-0.087,0.013-0.312,0.013-0.676c0-0.355-0.005-0.576-0.013-0.663
		c-0.017-0.762-0.238-1.345-0.663-1.748c-0.425-0.403-0.988-0.604-1.69-0.604H195.113 M82.456,63.985
		c-1.101,0-1.9-0.269-2.398-0.806c-0.498-0.537-0.747-1.326-0.747-2.366v-4.095l0.078-0.208l0.208-0.078h0.221l0.208,0.078
		l0.078,0.208v4.03c0,0.798,0.193,1.411,0.579,1.84c0.386,0.429,0.977,0.643,1.774,0.643c0.797,0,1.384-0.193,1.762-0.579
		c0.377-0.386,0.574-0.977,0.591-1.774v-0.442v-1.027c-0.017-0.78-0.191-1.356-0.52-1.729c-0.329-0.373-0.776-0.559-1.339-0.559
		c-0.165,0-0.353,0.031-0.565,0.091c-0.213,0.061-0.392,0.143-0.539,0.247l-0.13,0.039l-0.15-0.058l-0.071-0.15v-0.169v-0.065
		l0.026-0.182l0.104-0.117c0.199-0.13,0.405-0.228,0.618-0.293c0.212-0.065,0.47-0.098,0.773-0.098c0.806,0,1.432,0.243,1.879,0.728
		c0.446,0.485,0.682,1.235,0.709,2.249c0.008,0.087,0.013,0.351,0.013,0.793c0,0.451-0.005,0.719-0.013,0.806
		c-0.026,1.04-0.28,1.807-0.761,2.301C84.36,63.738,83.565,63.985,82.456,63.985 M176.341,63.972c-0.139,0-0.208-0.07-0.208-0.208
		v-0.325c0-0.147,0.091-0.255,0.273-0.325l0.533-0.208c0.667-0.26,1.176-0.62,1.527-1.079c0.351-0.459,0.527-1.144,0.527-2.054
		c0-0.65-0.078-1.161-0.234-1.534c-0.156-0.373-0.414-0.641-0.773-0.806c-0.36-0.165-0.851-0.247-1.475-0.247h-0.442h-0.039
		l-1.014-0.013l-0.208-0.072l-0.078-0.201v-1.989l0.078-0.208l0.208-0.078h0.221l0.208,0.078l0.078,0.208v1.521h1.053
		c0.806,0,1.441,0.11,1.904,0.332c0.464,0.221,0.797,0.578,1.001,1.072c0.204,0.494,0.306,1.17,0.306,2.028
		c0,1.118-0.253,1.972-0.76,2.561c-0.507,0.589-1.185,1.036-2.034,1.339l-0.546,0.195L176.341,63.972 M143.503,63.972
		c-0.139,0-0.208-0.07-0.208-0.208v-0.325c0-0.147,0.091-0.255,0.273-0.325l0.533-0.208c0.667-0.26,1.176-0.62,1.527-1.079
		c0.351-0.459,0.527-1.144,0.527-2.054c0-0.65-0.078-1.161-0.234-1.534c-0.156-0.373-0.414-0.641-0.774-0.806
		c-0.36-0.165-0.851-0.247-1.475-0.247h-0.442h-0.039l-1.014-0.013l-0.208-0.072l-0.078-0.201v-1.989l0.078-0.208l0.208-0.078h0.221
		l0.208,0.078l0.078,0.208v1.521h1.053c0.806,0,1.441,0.11,1.904,0.332c0.464,0.221,0.797,0.578,1.001,1.072
		c0.204,0.494,0.306,1.17,0.306,2.028c0,1.118-0.253,1.972-0.76,2.561c-0.507,0.589-1.185,1.036-2.034,1.339l-0.546,0.195
		L143.503,63.972 M105.895,63.972c-0.139,0-0.208-0.07-0.208-0.208v-0.325c0-0.147,0.091-0.255,0.273-0.325l0.533-0.208
		c0.667-0.26,1.176-0.62,1.528-1.079c0.351-0.459,0.527-1.144,0.527-2.054c0-0.65-0.078-1.161-0.234-1.534
		c-0.156-0.373-0.414-0.641-0.774-0.806c-0.36-0.165-0.851-0.247-1.475-0.247h-0.442h-0.039l-1.014-0.013l-0.208-0.072l-0.078-0.201
		v-1.989l0.078-0.208l0.208-0.078h0.221l0.208,0.078l0.078,0.208v1.521h1.053c0.806,0,1.441,0.11,1.904,0.332
		c0.464,0.221,0.797,0.578,1.001,1.072c0.204,0.494,0.306,1.17,0.306,2.028c0,1.118-0.253,1.972-0.76,2.561
		c-0.507,0.589-1.185,1.036-2.034,1.339l-0.546,0.195L105.895,63.972 M88.774,63.972c-0.139,0-0.208-0.07-0.208-0.208v-0.325
		c0-0.147,0.091-0.255,0.273-0.325l0.533-0.208c0.667-0.26,1.176-0.62,1.527-1.079c0.351-0.459,0.527-1.144,0.527-2.054
		c0-0.65-0.078-1.161-0.234-1.534c-0.156-0.373-0.414-0.641-0.773-0.806c-0.36-0.165-0.852-0.247-1.476-0.247h-0.442h-0.039
		l-1.014-0.013l-0.208-0.072L87.162,56.9v-1.989l0.078-0.208l0.208-0.078h0.221l0.208,0.078l0.078,0.208v1.521h1.053
		c0.806,0,1.441,0.11,1.904,0.332c0.464,0.221,0.797,0.578,1.001,1.072c0.203,0.494,0.305,1.17,0.305,2.028
		c0,1.118-0.253,1.972-0.76,2.561c-0.507,0.589-1.185,1.036-2.034,1.339l-0.546,0.195L88.774,63.972 M62.8,63.972
		c-0.139,0-0.208-0.07-0.208-0.208v-0.325c0-0.147,0.091-0.255,0.273-0.325l0.533-0.208c0.667-0.26,1.176-0.62,1.528-1.079
		c0.351-0.459,0.527-1.144,0.527-2.054c0-0.65-0.078-1.161-0.234-1.534c-0.156-0.373-0.414-0.641-0.773-0.806
		c-0.36-0.165-0.852-0.247-1.475-0.247h-0.442h-0.039l-1.014-0.013l-0.208-0.072L61.188,56.9v-1.989l0.078-0.208l0.208-0.078h0.221
		l0.208,0.078l0.078,0.208v1.521h1.053c0.806,0,1.441,0.11,1.904,0.332c0.464,0.221,0.797,0.578,1.001,1.072
		c0.204,0.494,0.306,1.17,0.306,2.028c0,1.118-0.253,1.972-0.76,2.561c-0.507,0.589-1.185,1.036-2.035,1.339l-0.546,0.195
		L62.8,63.972 M29.091,63.972c-0.139,0-0.208-0.07-0.208-0.208v-0.325c0-0.147,0.091-0.255,0.273-0.325l0.533-0.208
		c0.667-0.26,1.176-0.62,1.527-1.079c0.351-0.459,0.527-1.144,0.527-2.054c0-0.65-0.078-1.161-0.234-1.534
		c-0.156-0.373-0.414-0.641-0.774-0.806c-0.36-0.165-0.851-0.247-1.475-0.247h-0.442h-0.039l-1.014-0.013l-0.208-0.072L27.479,56.9
		v-1.989l0.078-0.208l0.208-0.078h0.221l0.208,0.078l0.078,0.208v1.521h1.053c0.806,0,1.441,0.11,1.904,0.332
		c0.464,0.221,0.797,0.578,1.001,1.072c0.204,0.494,0.306,1.17,0.306,2.028c0,1.118-0.253,1.972-0.76,2.561
		c-0.507,0.589-1.185,1.036-2.034,1.339l-0.546,0.195L29.091,63.972 M19.575,63.972c-0.139,0-0.208-0.07-0.208-0.208v-0.325
		c0-0.147,0.091-0.255,0.273-0.325l0.533-0.208c0.667-0.26,1.176-0.62,1.527-1.079c0.351-0.459,0.527-1.144,0.527-2.054
		c0-0.65-0.078-1.161-0.234-1.534c-0.156-0.373-0.414-0.641-0.773-0.806c-0.36-0.165-0.852-0.247-1.475-0.247h-0.442h-0.039
		l-1.014-0.013l-0.208-0.072L17.963,56.9v-1.989l0.078-0.208l0.208-0.078h0.221l0.208,0.078l0.078,0.208v1.521h1.053
		c0.806,0,1.441,0.11,1.905,0.332c0.464,0.221,0.797,0.578,1.001,1.072c0.203,0.494,0.306,1.17,0.306,2.028
		c0,1.118-0.253,1.972-0.76,2.561c-0.507,0.589-1.185,1.036-2.035,1.339l-0.546,0.195L19.575,63.972 M114.88,63.921
		c-0.039,0-0.079,0-0.119-0.001h-0.871c-0.511,0-0.981-0.128-1.41-0.384c-0.429-0.255-0.769-0.622-1.021-1.099
		c-0.251-0.476-0.377-1.031-0.377-1.664v-4.056l0.078-0.208l0.208-0.078h0.221l0.208,0.078l0.078,0.208l0.052,3.887
		c0.884-0.06,1.504-0.279,1.859-0.657c0.355-0.377,0.533-0.864,0.533-1.462v-1.768l0.078-0.208l0.208-0.078h0.221l0.208,0.078
		l0.078,0.208v1.833c0,0.771-0.264,1.419-0.793,1.944c-0.529,0.525-1.309,0.813-2.34,0.865c0.095,0.572,0.347,1.014,0.754,1.326
		c0.407,0.312,0.914,0.468,1.521,0.468h0.455c0.029,0.001,0.057,0.001,0.086,0.001c0.834,0,1.477-0.25,1.929-0.748
		c0.468-0.516,0.702-1.211,0.702-2.087v-3.601l0.078-0.208l0.208-0.078h0.221l0.208,0.078l0.078,0.208v3.692
		c0,0.72-0.143,1.348-0.429,1.885c-0.286,0.537-0.689,0.947-1.209,1.229C116.091,63.789,115.524,63.922,114.88,63.921
		 M48.516,63.921c-0.039,0-0.079,0-0.119-0.001h-0.871c-0.511,0-0.981-0.128-1.41-0.384c-0.429-0.255-0.769-0.622-1.021-1.099
		c-0.251-0.476-0.377-1.031-0.377-1.664v-4.056l0.078-0.208l0.208-0.078h0.221l0.208,0.078l0.078,0.208l0.052,3.887
		c0.884-0.06,1.504-0.279,1.859-0.657c0.355-0.377,0.533-0.864,0.533-1.462v-1.768l0.078-0.208l0.208-0.078h0.221l0.208,0.078
		l0.078,0.208v1.833c0,0.771-0.264,1.419-0.793,1.944c-0.529,0.525-1.309,0.813-2.34,0.865c0.095,0.572,0.346,1.014,0.754,1.326
		c0.407,0.312,0.914,0.468,1.521,0.468h0.455c0.029,0.001,0.057,0.001,0.086,0.001c0.834,0,1.477-0.25,1.929-0.748
		c0.468-0.516,0.702-1.211,0.702-2.087v-3.601l0.078-0.208l0.208-0.078h0.221l0.208,0.078l0.078,0.208v3.692
		c0,0.72-0.143,1.348-0.429,1.885c-0.286,0.537-0.689,0.947-1.209,1.229C49.726,63.789,49.159,63.922,48.516,63.921 M272.384,63.855
		h-3.289l-0.208-0.078l-0.078-0.208v-0.182l0.078-0.208l0.208-0.078h2.782v-3.432c0-0.476-0.085-0.905-0.254-1.287
		c-0.169-0.381-0.403-0.676-0.702-0.884c-0.299-0.208-0.635-0.312-1.008-0.312h-1.508l-0.962,6.37l-0.111,0.214l-0.215,0.085h-0.234
		l-0.182-0.085l-0.052-0.214l0.949-6.37h-0.585l-0.208-0.078l-0.078-0.208v-0.182l0.078-0.208l0.208-0.078h2.964
		c0.52,0,0.983,0.13,1.391,0.39c0.407,0.26,0.726,0.63,0.956,1.111c0.23,0.481,0.345,1.038,0.345,1.67v3.965l-0.078,0.208
		L272.384,63.855 M261.932,63.855h-1.911l-0.208-0.078l-0.078-0.208v-0.182l0.078-0.208l0.208-0.078h1.846
		c0.849,0,1.467-0.21,1.853-0.63c0.385-0.42,0.596-1.038,0.63-1.853c0.009-0.13,0.013-0.29,0.013-0.481
		c0-0.182-0.005-0.338-0.013-0.468c-0.026-0.815-0.234-1.432-0.624-1.853c-0.39-0.42-1.01-0.63-1.859-0.63h-1.846l-0.208-0.078
		l-0.078-0.208v-0.182l0.078-0.208l0.208-0.078h1.911c1.075,0,1.87,0.269,2.385,0.806c0.516,0.537,0.791,1.326,0.826,2.366
		c0.008,0.13,0.013,0.308,0.013,0.533c0,0.234-0.005,0.416-0.013,0.546c-0.035,1.04-0.31,1.829-0.826,2.366
		C263.802,63.586,263.006,63.855,261.932,63.855 M257.642,63.855h-3.224l-0.208-0.078l-0.078-0.208v-0.182l0.078-0.208l0.208-0.078
		h2.691l-0.247-3.562l-0.013-0.273c-0.035-0.52-0.078-0.914-0.13-1.183c-0.052-0.269-0.165-0.485-0.338-0.65
		c-0.173-0.165-0.438-0.247-0.793-0.247h-0.481l-0.208-0.078l-0.078-0.208v-0.182l0.078-0.208l0.208-0.078h0.481
		c0.581,0,1.012,0.126,1.294,0.377c0.281,0.251,0.468,0.576,0.559,0.975c0.091,0.399,0.163,0.962,0.215,1.69l0.273,4.095v0.039
		l-0.085,0.176L257.642,63.855 M238.441,63.855h-5.226l-0.208-0.078l-0.078-0.208v-6.851l0.078-0.208l0.208-0.078h2.301
		c1.083,0,1.889,0.271,2.418,0.813c0.529,0.542,0.793,1.328,0.793,2.36v3.965l-0.078,0.208L238.441,63.855 M233.709,57.186v5.915
		h4.225v-3.432c0-1.655-0.828-2.483-2.483-2.483H233.709 M227.495,63.855h-0.247l-0.176-0.045l-0.15-0.15l-3.211-4.472
		c-0.425,0.304-0.713,0.655-0.864,1.053c-0.152,0.399-0.228,0.841-0.228,1.326v2.002l-0.078,0.208l-0.208,0.078h-0.221l-0.208-0.078
		l-0.078-0.208v-2.067c0-0.615,0.098-1.164,0.292-1.645c0.195-0.481,0.579-0.908,1.151-1.28l-1.157-1.625
		c-0.07-0.104-0.104-0.191-0.104-0.26l0.078-0.182l0.182-0.078h0.247c0.121,0,0.23,0.065,0.325,0.195l2.938,4.095
		c0.364-0.199,0.628-0.405,0.793-0.617c0.164-0.212,0.266-0.427,0.305-0.644c0.039-0.217,0.059-0.507,0.059-0.871v-1.872
		l0.078-0.208l0.208-0.078h0.221l0.208,0.078l0.078,0.208v1.937c0,0.399-0.035,0.743-0.104,1.033
		c-0.069,0.29-0.214,0.572-0.435,0.845c-0.221,0.273-0.548,0.535-0.982,0.786l1.443,2.015c0.069,0.104,0.104,0.191,0.104,0.26
		l-0.078,0.182L227.495,63.855 M219.799,63.855h-0.221l-0.208-0.078l-0.078-0.208v-3.9c0-1.655-0.828-2.483-2.483-2.483h-0.988
		c-0.087,0.624-0.15,1.127-0.188,1.508c-0.039,0.382-0.054,0.815-0.046,1.3v3.575l-0.078,0.208l-0.208,0.078l-1.482-0.026
		l-0.208-0.078l-0.078-0.208v-0.182l0.078-0.208l0.208-0.078l0.975,0.013v-3.029v-0.403c0-0.477,0.017-0.895,0.052-1.254
		c0.035-0.36,0.1-0.765,0.195-1.216h-0.663l-0.208-0.078l-0.078-0.208v-0.182l0.078-0.208l0.208-0.078h2.496
		c1.083,0,1.889,0.271,2.418,0.813c0.529,0.542,0.793,1.328,0.793,2.36v3.965l-0.078,0.208L219.799,63.855 M208.139,63.855h-0.221
		l-0.208-0.078l-0.078-0.208v-3.9c0-1.655-0.828-2.483-2.483-2.483h-2.236l-0.208-0.078l-0.078-0.208v-0.182l0.078-0.208
		l0.208-0.078h2.301c1.083,0,1.889,0.271,2.418,0.813c0.529,0.542,0.793,1.328,0.793,2.36v3.965l-0.078,0.208L208.139,63.855
		 M203.134,63.855h-0.221l-0.208-0.078l-0.078-0.208v-4.563l0.078-0.208l0.208-0.078h0.221l0.208,0.078l0.078,0.208v4.563
		l-0.078,0.208L203.134,63.855 M189.237,63.855h-0.221l-0.208-0.078l-0.078-0.208v-3.9c0-1.655-0.828-2.483-2.483-2.483h-1.586
		l-0.208-0.078l-0.078-0.208v-0.182l0.078-0.208l0.208-0.078h1.651c1.083,0,1.889,0.271,2.418,0.813
		c0.529,0.542,0.793,1.328,0.793,2.36v3.965l-0.078,0.208L189.237,63.855 M172.792,63.855h-0.221l-0.208-0.078l-0.078-0.208v-3.9
		c0-1.655-0.828-2.483-2.483-2.483h-0.988c-0.087,0.624-0.15,1.127-0.188,1.508c-0.039,0.382-0.054,0.815-0.046,1.3v3.575
		l-0.078,0.208l-0.208,0.078l-1.482-0.026l-0.208-0.078l-0.078-0.208v-0.182l0.078-0.208l0.208-0.078l0.975,0.013v-3.029v-0.403
		c0-0.477,0.017-0.895,0.052-1.254c0.035-0.36,0.1-0.765,0.195-1.216h-0.663l-0.208-0.078l-0.078-0.208v-0.182l0.078-0.208
		l0.208-0.078h2.496c1.083,0,1.889,0.271,2.418,0.813c0.529,0.542,0.793,1.328,0.793,2.36v3.965L173,63.777L172.792,63.855
		 M164.81,63.855h-3.224l-0.208-0.078l-0.078-0.208v-0.182l0.078-0.208l0.208-0.078h2.691l-0.247-3.562l-0.013-0.273
		c-0.035-0.52-0.078-0.914-0.13-1.183c-0.052-0.269-0.165-0.485-0.338-0.65c-0.173-0.165-0.438-0.247-0.793-0.247h-0.481
		l-0.208-0.078l-0.078-0.208v-0.182l0.078-0.208l0.208-0.078h0.481c0.581,0,1.012,0.126,1.294,0.377
		c0.282,0.251,0.468,0.576,0.559,0.975c0.091,0.399,0.163,0.962,0.214,1.69l0.273,4.095v0.039l-0.084,0.176L164.81,63.855
		 M159.298,63.855h-0.221l-0.208-0.078l-0.078-0.208v-6.851l0.078-0.208l0.208-0.078h0.221l0.208,0.078l0.078,0.208v6.851
		l-0.078,0.208L159.298,63.855 M156.399,63.855h-0.221l-0.208-0.078l-0.078-0.208v-3.9c0-1.655-0.828-2.483-2.483-2.483h-1.586
		l-0.208-0.078l-0.078-0.208v-0.182l0.078-0.208l0.208-0.078h1.651c1.083,0,1.889,0.271,2.418,0.813
		c0.529,0.542,0.793,1.328,0.793,2.36v3.965l-0.078,0.208L156.399,63.855 M139.954,63.855h-0.221l-0.208-0.078l-0.078-0.208v-3.9
		c0-1.655-0.828-2.483-2.483-2.483h-1.742v6.383l-0.078,0.208l-0.208,0.078h-0.221l-0.208-0.078l-0.078-0.208v-6.851l0.078-0.208
		l0.208-0.078h2.314c1.083,0,1.889,0.271,2.418,0.813c0.529,0.542,0.793,1.328,0.793,2.36v3.965l-0.078,0.208L139.954,63.855
		 M131.959,63.855h-0.221l-0.208-0.078l-0.078-0.208v-6.851l0.078-0.208l0.208-0.078h0.221l0.208,0.078l0.078,0.208v6.851
		l-0.078,0.208L131.959,63.855 M129.061,63.855h-5.226l-0.208-0.078l-0.078-0.208v-6.851l0.078-0.208l0.208-0.078h2.301
		c1.083,0,1.889,0.271,2.418,0.813c0.529,0.542,0.793,1.328,0.793,2.36v3.965l-0.078,0.208L129.061,63.855 M124.329,57.186v5.915
		h4.225v-3.432c0-1.655-0.828-2.483-2.483-2.483H124.329 M96.73,63.855h-2.158l-0.208-0.078l-0.078-0.208v-0.182l0.078-0.208
		l0.208-0.078h2.093c0.659,0,1.159-0.214,1.501-0.643c0.342-0.429,0.531-1.042,0.566-1.84c0.009-0.087,0.013-0.247,0.013-0.481
		c0-0.225-0.004-0.381-0.013-0.468c-0.018-0.789-0.201-1.399-0.552-1.833c-0.351-0.433-0.856-0.65-1.515-0.65h-1.768v1.235
		c0,0.407,0.043,0.726,0.13,0.956c0.087,0.23,0.238,0.371,0.455,0.423l0.533,0.13c0.147,0.043,0.221,0.182,0.221,0.416v0.182
		l-0.085,0.156l-0.214,0.052l-0.104-0.013l-0.494-0.117c-0.416-0.095-0.724-0.321-0.923-0.676c-0.199-0.355-0.299-0.858-0.299-1.508
		v-1.703l0.078-0.208l0.208-0.078h2.327c0.892,0,1.575,0.275,2.047,0.825c0.472,0.551,0.722,1.333,0.747,2.347
		c0.009,0.087,0.013,0.264,0.013,0.533c0,0.277-0.004,0.459-0.013,0.546c-0.026,1.014-0.275,1.796-0.747,2.347
		C98.305,63.58,97.622,63.855,96.73,63.855 M76.983,63.855h-0.221l-0.208-0.078l-0.078-0.208v-3.9c0-1.655-0.828-2.483-2.483-2.483
		h-2.236l-0.208-0.078L71.471,56.9v-0.182l0.078-0.208l0.208-0.078h2.301c1.083,0,1.889,0.271,2.418,0.813
		c0.529,0.542,0.793,1.328,0.793,2.36v3.965l-0.078,0.208L76.983,63.855 M71.978,63.855h-0.221l-0.208-0.078l-0.078-0.208v-4.563
		l0.078-0.208l0.208-0.078h0.221l0.208,0.078l0.078,0.208v4.563l-0.078,0.208L71.978,63.855 M59.251,63.855h-3.289l-0.208-0.078
		l-0.078-0.208v-0.182l0.078-0.208l0.208-0.078h2.782v-3.432c0-0.476-0.085-0.905-0.253-1.287c-0.169-0.381-0.403-0.676-0.702-0.884
		c-0.299-0.208-0.635-0.312-1.008-0.312h-1.508l-0.962,6.37l-0.11,0.214l-0.214,0.085h-0.234L53.57,63.77l-0.052-0.214l0.949-6.37
		h-0.585l-0.208-0.078L53.596,56.9v-0.182l0.078-0.208l0.208-0.078h2.964c0.52,0,0.984,0.13,1.391,0.39
		c0.407,0.26,0.726,0.63,0.956,1.111c0.23,0.481,0.344,1.038,0.344,1.67v3.965l-0.078,0.208L59.251,63.855 M16.026,63.855h-0.221
		l-0.208-0.078l-0.078-0.208v-3.9c0-1.655-0.828-2.483-2.483-2.483h-2.236l-0.208-0.078L10.515,56.9v-0.182l0.078-0.208l0.208-0.078
		h2.301c1.083,0,1.889,0.271,2.418,0.813c0.529,0.542,0.793,1.328,0.793,2.36v3.965l-0.078,0.208L16.026,63.855 M11.022,63.855
		h-0.221l-0.208-0.078l-0.078-0.208v-4.563l0.078-0.208l0.208-0.078h0.221l0.208,0.078l0.078,0.208v4.563l-0.078,0.208
		L11.022,63.855 M252.234,60.865h-0.221l-0.208-0.078l-0.078-0.208v-3.861l0.078-0.208l0.208-0.078h0.221l0.208,0.078l0.078,0.208
		v3.861l-0.078,0.208L252.234,60.865 M241.236,60.865h-0.221l-0.208-0.078l-0.078-0.208v-3.861l0.078-0.208l0.208-0.078h0.221
		l0.208,0.078l0.078,0.208v3.861l-0.078,0.208L241.236,60.865 M192.032,60.865h-0.221l-0.208-0.078l-0.078-0.208v-3.861l0.078-0.208
		l0.208-0.078h0.221l0.208,0.078l0.078,0.208v3.861l-0.078,0.208L192.032,60.865 M25.295,60.865h-0.221l-0.208-0.078l-0.078-0.208
		v-3.861l0.078-0.208l0.208-0.078h0.221l0.208,0.078l0.078,0.208v3.861l-0.078,0.208L25.295,60.865"/>
	<path fill="#000000" d="M260.476,80.872c-0.139,0-0.208-0.07-0.208-0.208v-0.325c0-0.147,0.091-0.256,0.273-0.325l0.533-0.208
		c0.667-0.26,1.176-0.62,1.527-1.079c0.351-0.459,0.527-1.144,0.527-2.054c0-0.65-0.078-1.161-0.234-1.534
		c-0.156-0.373-0.414-0.641-0.773-0.806c-0.36-0.165-0.851-0.247-1.475-0.247h-0.442h-0.039l-1.014-0.013l-0.208-0.072l-0.078-0.201
		v-1.989l0.078-0.208l0.208-0.078h0.221l0.208,0.078l0.078,0.208v1.521h1.053c0.806,0,1.441,0.11,1.904,0.332
		c0.464,0.221,0.797,0.578,1.001,1.072c0.204,0.494,0.306,1.17,0.306,2.028c0,1.118-0.253,1.972-0.76,2.561
		c-0.507,0.59-1.185,1.036-2.035,1.339l-0.546,0.195L260.476,80.872 M269.461,80.821c-0.039,0-0.079,0-0.119-0.001h-0.871
		c-0.512,0-0.982-0.128-1.411-0.384c-0.429-0.255-0.769-0.622-1.021-1.099c-0.251-0.476-0.377-1.031-0.377-1.664v-4.056l0.078-0.208
		l0.208-0.078h0.221l0.208,0.078l0.078,0.208l0.052,3.887c0.884-0.06,1.504-0.279,1.859-0.657c0.355-0.377,0.533-0.864,0.533-1.462
		v-1.768l0.078-0.208l0.208-0.078h0.221l0.208,0.078l0.078,0.208v1.833c0,0.771-0.264,1.419-0.793,1.944
		c-0.529,0.525-1.309,0.813-2.34,0.865c0.095,0.572,0.346,1.014,0.754,1.326c0.407,0.312,0.914,0.468,1.521,0.468h0.455
		c0.029,0.001,0.057,0.001,0.086,0.001c0.834,0,1.477-0.25,1.93-0.748c0.468-0.516,0.702-1.211,0.702-2.087v-3.601l0.078-0.208
		l0.208-0.078h0.221l0.208,0.078l0.078,0.208v3.692c0,0.72-0.143,1.348-0.429,1.885c-0.286,0.537-0.689,0.947-1.209,1.229
		C270.672,80.689,270.105,80.821,269.461,80.821 M256.927,80.755h-5.226l-0.208-0.078l-0.078-0.208v-6.851l0.078-0.208l0.208-0.078
		h2.301c1.083,0,1.889,0.271,2.418,0.813c0.529,0.542,0.793,1.328,0.793,2.36v3.965l-0.078,0.208L256.927,80.755 M252.195,74.086
		v5.915h4.225v-3.432c0-1.655-0.828-2.483-2.483-2.483H252.195"/>
	<path fill="#000000" d="M286.415,103.454c-0.754,0-1.402-0.119-1.944-0.357s-0.956-0.57-1.242-0.995
		c-0.286-0.424-0.429-0.91-0.429-1.456c0-0.485,0.119-0.917,0.358-1.294c0.238-0.377,0.561-0.665,0.968-0.865
		c-0.321-0.199-0.568-0.457-0.741-0.773c-0.173-0.316-0.26-0.678-0.26-1.086c0-0.762,0.288-1.376,0.865-1.839
		c0.576-0.464,1.384-0.695,2.424-0.695c1.04,0,1.846,0.23,2.418,0.689c0.572,0.459,0.858,1.071,0.858,1.833
		c0,0.407-0.084,0.769-0.253,1.086c-0.169,0.316-0.414,0.579-0.735,0.786c0.416,0.2,0.743,0.488,0.982,0.865
		c0.238,0.377,0.357,0.813,0.357,1.307c0,0.546-0.143,1.029-0.429,1.45c-0.286,0.42-0.702,0.75-1.248,0.988
		C287.819,103.335,287.169,103.454,286.415,103.454 M286.415,99.229c-0.511,0-0.936,0.128-1.274,0.384
		c-0.338,0.256-0.507,0.604-0.507,1.046c0,0.434,0.169,0.78,0.507,1.04c0.338,0.26,0.763,0.39,1.274,0.39
		c0.511,0,0.938-0.13,1.281-0.39c0.342-0.26,0.514-0.607,0.514-1.04c0-0.433-0.171-0.78-0.514-1.04
		C287.353,99.359,286.926,99.229,286.415,99.229 M286.415,95.459c-0.451,0-0.823,0.113-1.118,0.338
		c-0.295,0.225-0.442,0.524-0.442,0.897c0,0.373,0.147,0.67,0.442,0.89c0.295,0.221,0.667,0.331,1.118,0.331
		c0.451-0.008,0.825-0.123,1.124-0.344c0.299-0.221,0.449-0.514,0.449-0.878c0-0.373-0.147-0.672-0.442-0.897
		C287.251,95.572,286.874,95.459,286.415,95.459"/>
	<path fill="#000000" d="M116.268,105.807h-0.221l-0.208-0.078l-0.078-0.208v-7.046l0.078-0.208l0.208-0.078h0.221l0.208,0.078
		l0.078,0.208v7.046l-0.078,0.208L116.268,105.807 M252.871,104.936h-0.221l-0.208-0.078l-0.078-0.208v-8.463l0.078-0.208
		l0.208-0.078h0.221l0.208,0.078l0.078,0.208v8.463l-0.078,0.208L252.871,104.936 M73.707,104.065L73.531,104l-0.071-0.156v-0.169
		c0-0.2,0.06-0.321,0.182-0.364l1.781-0.65l-1.729-6.24c-0.043-0.147-0.065-0.234-0.065-0.26l0.078-0.182l0.182-0.078h0.234
		l0.195,0.058l0.104,0.137l1.781,6.279l0.13-0.052c0.711-0.26,1.209-0.633,1.495-1.118c0.286-0.485,0.429-1.075,0.429-1.768v-3.25
		l0.078-0.208l0.208-0.078h0.221l0.208,0.078l0.078,0.208v3.51c0,0.728-0.234,1.404-0.702,2.028
		c-0.468,0.624-1.088,1.075-1.859,1.352l-2.665,0.962L73.707,104.065 M199.832,103.441c-0.139,0-0.208-0.069-0.208-0.208v-0.325
		c0-0.147,0.091-0.256,0.273-0.325l0.533-0.208c0.667-0.26,1.176-0.619,1.528-1.079c0.351-0.459,0.526-1.144,0.526-2.054
		c0-0.65-0.078-1.161-0.234-1.534c-0.156-0.372-0.414-0.641-0.773-0.806c-0.36-0.165-0.852-0.247-1.476-0.247h-0.442h-0.039
		l-1.014-0.013l-0.208-0.071l-0.078-0.201V94.38l0.078-0.208l0.208-0.078h0.221l0.208,0.078l0.078,0.208v1.521h1.053
		c0.806,0,1.441,0.11,1.905,0.331c0.464,0.221,0.797,0.579,1.001,1.073c0.203,0.494,0.306,1.17,0.306,2.028
		c0,1.118-0.253,1.972-0.761,2.561c-0.507,0.59-1.185,1.036-2.034,1.339l-0.546,0.195L199.832,103.441 M141.865,103.441
		c-0.139,0-0.208-0.069-0.208-0.208v-0.325c0-0.147,0.091-0.256,0.273-0.325l0.533-0.208c0.667-0.26,1.176-0.619,1.527-1.079
		c0.351-0.459,0.527-1.144,0.527-2.054c0-0.65-0.078-1.161-0.234-1.534c-0.156-0.372-0.414-0.641-0.773-0.806
		c-0.36-0.165-0.852-0.247-1.476-0.247h-0.442h-0.039l-1.014-0.013l-0.208-0.071l-0.078-0.201V94.38l0.078-0.208l0.208-0.078h0.221
		l0.208,0.078l0.078,0.208v1.521h1.053c0.806,0,1.441,0.11,1.904,0.331c0.464,0.221,0.797,0.579,1.001,1.073
		c0.203,0.494,0.305,1.17,0.305,2.028c0,1.118-0.253,1.972-0.76,2.561c-0.507,0.59-1.185,1.036-2.034,1.339l-0.546,0.195
		L141.865,103.441 M118.192,103.441c-0.139,0-0.208-0.069-0.208-0.208v-0.325c0-0.147,0.091-0.256,0.273-0.325l0.533-0.208
		c0.667-0.26,1.176-0.619,1.527-1.079c0.351-0.459,0.527-1.144,0.527-2.054c0-0.65-0.078-1.161-0.234-1.534
		c-0.156-0.372-0.414-0.641-0.773-0.806c-0.36-0.165-0.851-0.247-1.475-0.247h-2.314l-0.208-0.078l-0.078-0.208v-0.182l0.078-0.208
		l0.208-0.078h2.379c0.806,0,1.441,0.11,1.904,0.331c0.464,0.221,0.797,0.579,1.001,1.073c0.204,0.494,0.306,1.17,0.306,2.028
		c0,1.118-0.253,1.972-0.76,2.561c-0.507,0.59-1.185,1.036-2.035,1.339l-0.546,0.195L118.192,103.441 M38.711,103.441
		c-0.139,0-0.208-0.069-0.208-0.208v-0.325c0-0.147,0.091-0.256,0.273-0.325l0.533-0.208c0.667-0.26,1.176-0.619,1.527-1.079
		c0.351-0.459,0.527-1.144,0.527-2.054c0-0.65-0.078-1.161-0.234-1.534c-0.156-0.372-0.414-0.641-0.774-0.806
		c-0.36-0.165-0.851-0.247-1.475-0.247h-0.442h-0.039l-1.014-0.013l-0.208-0.071l-0.078-0.201V94.38l0.078-0.208l0.208-0.078h0.221
		l0.208,0.078l0.078,0.208v1.521h1.053c0.806,0,1.441,0.11,1.904,0.331c0.464,0.221,0.797,0.579,1.001,1.073
		c0.204,0.494,0.306,1.17,0.306,2.028c0,1.118-0.253,1.972-0.76,2.561c-0.507,0.59-1.185,1.036-2.034,1.339l-0.546,0.195
		L38.711,103.441 M243.695,103.391c-0.039,0-0.079,0-0.119-0.001h-0.871c-0.512,0-0.982-0.128-1.411-0.384
		c-0.429-0.256-0.769-0.622-1.021-1.099c-0.251-0.477-0.377-1.031-0.377-1.664v-4.056l0.078-0.208l0.208-0.078h0.221l0.208,0.078
		l0.078,0.208l0.052,3.887c0.884-0.061,1.504-0.28,1.859-0.657c0.355-0.377,0.533-0.865,0.533-1.462v-1.768l0.078-0.208l0.208-0.078
		h0.221l0.208,0.078l0.078,0.208v1.833c0,0.771-0.264,1.419-0.793,1.944c-0.529,0.525-1.309,0.813-2.34,0.864
		c0.095,0.572,0.346,1.014,0.754,1.326c0.407,0.312,0.914,0.468,1.521,0.468h0.455c0.029,0.001,0.057,0.001,0.085,0.001
		c0.834,0,1.477-0.25,1.93-0.748c0.468-0.516,0.702-1.211,0.702-2.087v-3.601l0.078-0.208l0.208-0.078h0.221l0.208,0.078
		l0.078,0.208v3.692c0,0.72-0.143,1.348-0.429,1.885c-0.286,0.537-0.689,0.947-1.209,1.228
		C244.906,103.258,244.339,103.391,243.695,103.391 M211.586,103.391c-0.039,0-0.079,0-0.119-0.001h-0.871
		c-0.511,0-0.981-0.128-1.41-0.384s-0.769-0.622-1.021-1.099c-0.251-0.477-0.377-1.031-0.377-1.664v-4.056l0.078-0.208l0.208-0.078
		h0.221l0.208,0.078l0.078,0.208l0.052,3.887c0.884-0.061,1.503-0.28,1.859-0.657c0.355-0.377,0.533-0.865,0.533-1.462v-1.768
		l0.078-0.208l0.208-0.078h0.221l0.208,0.078l0.078,0.208v1.833c0,0.771-0.264,1.419-0.793,1.944
		c-0.529,0.525-1.309,0.813-2.34,0.864c0.095,0.572,0.347,1.014,0.754,1.326c0.407,0.312,0.914,0.468,1.521,0.468h0.455
		c0.029,0.001,0.057,0.001,0.085,0.001c0.834,0,1.477-0.25,1.93-0.748c0.468-0.516,0.702-1.211,0.702-2.087v-3.601l0.078-0.208
		l0.208-0.078h0.221l0.208,0.078l0.078,0.208v3.692c0,0.72-0.143,1.348-0.429,1.885c-0.286,0.537-0.689,0.947-1.209,1.228
		C212.797,103.258,212.23,103.391,211.586,103.391 M154.204,103.391c-0.039,0-0.079,0-0.119-0.001h-0.871
		c-0.512,0-0.981-0.128-1.41-0.384s-0.769-0.622-1.021-1.099c-0.251-0.477-0.377-1.031-0.377-1.664v-4.056l0.078-0.208l0.208-0.078
		h0.221l0.208,0.078l0.078,0.208l0.052,3.887c0.884-0.061,1.504-0.28,1.859-0.657c0.355-0.377,0.533-0.865,0.533-1.462v-1.768
		l0.078-0.208l0.208-0.078h0.221l0.208,0.078l0.078,0.208v1.833c0,0.771-0.264,1.419-0.793,1.944
		c-0.529,0.525-1.309,0.813-2.34,0.864c0.095,0.572,0.347,1.014,0.754,1.326c0.407,0.312,0.914,0.468,1.521,0.468h0.455
		c0.029,0.001,0.057,0.001,0.085,0.001c0.834,0,1.477-0.25,1.93-0.748c0.468-0.516,0.702-1.211,0.702-2.087v-3.601l0.078-0.208
		l0.208-0.078h0.221l0.208,0.078l0.078,0.208v3.692c0,0.72-0.143,1.348-0.429,1.885c-0.286,0.537-0.689,0.947-1.209,1.228
		C155.415,103.258,154.848,103.391,154.204,103.391 M273.008,103.324h-5.2l-0.208-0.078l-0.078-0.208v-0.182l0.078-0.208
		l0.208-0.078h3.913v-3.432c0-1.655-0.828-2.483-2.483-2.483h-1.3l-0.208-0.078l-0.078-0.208v-0.182l0.078-0.208l0.208-0.078h1.365
		c1.083,0,1.889,0.273,2.418,0.819c0.529,0.546,0.793,1.33,0.793,2.353v3.497h0.494l0.208,0.078l0.078,0.208v0.182l-0.078,0.208
		L273.008,103.324 M264.155,103.324h-0.221l-0.208-0.078l-0.078-0.208v-4.914c0-0.338,0.033-0.637,0.098-0.897
		c0.065-0.26,0.149-0.451,0.253-0.572h-1.183l-0.208-0.078l-0.078-0.208v-0.182l0.078-0.208l0.208-0.078h2.886l0.208,0.078
		l0.078,0.208v0.182l-0.078,0.208l-0.208,0.078h-0.832c-0.139,0.121-0.245,0.319-0.319,0.591c-0.074,0.273-0.11,0.587-0.11,0.943
		v4.849l-0.078,0.208L264.155,103.324 M260.762,103.324h-3.289l-0.208-0.078l-0.078-0.208v-0.182l0.078-0.208l0.208-0.078h2.782
		v-3.432c0-0.477-0.085-0.906-0.253-1.287c-0.169-0.381-0.403-0.676-0.702-0.884c-0.299-0.208-0.635-0.312-1.008-0.312h-1.508
		l-0.962,6.37l-0.11,0.215l-0.214,0.085h-0.234l-0.182-0.085l-0.052-0.215l0.949-6.37h-0.585l-0.208-0.078l-0.078-0.208v-0.182
		l0.078-0.208l0.208-0.078h2.964c0.52,0,0.984,0.13,1.391,0.39c0.407,0.26,0.726,0.63,0.956,1.111
		c0.23,0.481,0.344,1.038,0.344,1.67v3.965l-0.078,0.208L260.762,103.324 M237.635,103.324h-0.221l-0.208-0.078l-0.078-0.208v-3.9
		c0-1.655-0.828-2.483-2.483-2.483h-2.236l-0.208-0.078l-0.078-0.208v-0.182l0.078-0.208l0.208-0.078h2.301
		c1.083,0,1.889,0.271,2.418,0.813c0.529,0.542,0.793,1.328,0.793,2.36v3.965l-0.078,0.208L237.635,103.324 M232.63,103.324h-0.221
		l-0.208-0.078l-0.078-0.208v-4.563l0.078-0.208l0.208-0.078h0.221l0.208,0.078l0.078,0.208v4.563l-0.078,0.208L232.63,103.324
		 M229.731,103.324h-0.221l-0.208-0.078l-0.078-0.208v-3.9c0-1.655-0.828-2.483-2.483-2.483h-0.988
		c-0.087,0.624-0.15,1.127-0.188,1.508c-0.039,0.382-0.054,0.815-0.045,1.3v3.575l-0.078,0.208l-0.208,0.078l-1.482-0.026
		l-0.208-0.078l-0.078-0.208v-0.182l0.078-0.208l0.208-0.078l0.975,0.013v-3.029v-0.403c0-0.476,0.017-0.895,0.052-1.254
		c0.035-0.359,0.1-0.765,0.195-1.215h-0.663l-0.208-0.078l-0.078-0.208v-0.182l0.078-0.208l0.208-0.078h2.496
		c1.083,0,1.889,0.271,2.418,0.813c0.529,0.542,0.793,1.328,0.793,2.36v3.965l-0.078,0.208L229.731,103.324 M222.048,103.324h-5.2
		l-0.208-0.078l-0.078-0.208v-0.182l0.078-0.208l0.208-0.078h3.913v-3.432c0-1.655-0.828-2.483-2.483-2.483h-1.3l-0.208-0.078
		l-0.078-0.208v-0.182l0.078-0.208l0.208-0.078h1.365c1.083,0,1.889,0.273,2.418,0.819c0.529,0.546,0.793,1.33,0.793,2.353v3.497
		h0.494l0.208,0.078l0.078,0.208v0.182l-0.078,0.208L222.048,103.324 M193.8,103.324h-5.2l-0.208-0.078l-0.078-0.208v-0.182
		l0.078-0.208l0.208-0.078h3.913v-3.432c0-1.655-0.828-2.483-2.483-2.483h-1.3l-0.208-0.078l-0.078-0.208v-0.182l0.078-0.208
		l0.208-0.078h1.365c1.083,0,1.889,0.273,2.418,0.819c0.529,0.546,0.793,1.33,0.793,2.353v3.497h0.494l0.208,0.078l0.078,0.208
		v0.182l-0.078,0.208L193.8,103.324 M186.26,103.324h-0.221l-0.208-0.078l-0.078-0.208v-3.9c0-1.655-0.828-2.483-2.483-2.483h-0.988
		c-0.087,0.624-0.15,1.127-0.189,1.508c-0.039,0.382-0.054,0.815-0.045,1.3v3.575l-0.078,0.208l-0.208,0.078l-1.482-0.026
		l-0.208-0.078l-0.078-0.208v-0.182l0.078-0.208l0.208-0.078l0.975,0.013v-3.029v-0.403c0-0.476,0.017-0.895,0.052-1.254
		c0.035-0.359,0.1-0.765,0.195-1.215h-0.663l-0.208-0.078l-0.078-0.208v-0.182l0.078-0.208l0.208-0.078h2.496
		c1.083,0,1.889,0.271,2.418,0.813c0.529,0.542,0.793,1.328,0.793,2.36v3.965l-0.078,0.208L186.26,103.324 M178.278,103.324h-3.224
		l-0.208-0.078l-0.078-0.208v-0.182l0.078-0.208l0.208-0.078h2.691l-0.247-3.562l-0.013-0.273c-0.035-0.52-0.078-0.914-0.13-1.183
		c-0.052-0.268-0.165-0.485-0.338-0.65c-0.173-0.165-0.438-0.247-0.793-0.247h-0.481l-0.208-0.078l-0.078-0.208v-0.182l0.078-0.208
		l0.208-0.078h0.481c0.581,0,1.012,0.126,1.294,0.377c0.281,0.251,0.468,0.577,0.559,0.975c0.091,0.399,0.163,0.962,0.214,1.69
		l0.273,4.095v0.039l-0.085,0.176L178.278,103.324 M172.766,103.324h-0.221l-0.208-0.078l-0.078-0.208v-6.851l0.078-0.208
		l0.208-0.078h0.221l0.208,0.078l0.078,0.208v6.851l-0.078,0.208L172.766,103.324 M169.867,103.324h-0.221l-0.208-0.078
		l-0.078-0.208v-3.9c0-1.655-0.828-2.483-2.483-2.483h-1.586l-0.208-0.078l-0.078-0.208v-0.182l0.078-0.208l0.208-0.078h1.651
		c1.083,0,1.889,0.271,2.418,0.813c0.529,0.542,0.793,1.328,0.793,2.36v3.965l-0.078,0.208L169.867,103.324 M139.044,103.324h-5.2
		l-0.208-0.078l-0.078-0.208v-0.182l0.078-0.208l0.208-0.078h3.913v-3.432c0-1.655-0.828-2.483-2.483-2.483h-1.3l-0.208-0.078
		l-0.078-0.208v-0.182l0.078-0.208l0.208-0.078h1.365c1.083,0,1.889,0.273,2.418,0.819c0.529,0.546,0.793,1.33,0.793,2.353v3.497
		h0.494l0.208,0.078l0.078,0.208v0.182l-0.078,0.208L139.044,103.324 M130.321,103.324H130.1l-0.208-0.078l-0.078-0.208v-4.914
		c0-0.338,0.033-0.637,0.098-0.897c0.065-0.26,0.15-0.451,0.253-0.572h-3.783l-0.208-0.078l-0.078-0.208v-0.182l0.078-0.208
		l0.208-0.078h5.486l0.208,0.078l0.078,0.208v0.182l-0.078,0.208l-0.208,0.078h-0.832c-0.139,0.121-0.245,0.319-0.318,0.591
		c-0.074,0.273-0.111,0.587-0.111,0.943v4.849l-0.078,0.208L130.321,103.324 M124.198,103.324h-0.221l-0.208-0.078l-0.078-0.208
		v-6.851l0.078-0.208l0.208-0.078h0.221l0.208,0.078l0.078,0.208v6.851l-0.078,0.208L124.198,103.324 M110.016,103.324h-3.289
		l-0.208-0.078l-0.078-0.208v-0.182l0.078-0.208l0.208-0.078h2.782v-3.432c0-0.477-0.085-0.906-0.253-1.287
		c-0.169-0.381-0.403-0.676-0.702-0.884c-0.299-0.208-0.635-0.312-1.008-0.312h-1.508l-0.962,6.37l-0.11,0.215l-0.214,0.085h-0.234
		l-0.182-0.085l-0.052-0.215l0.949-6.37h-0.585l-0.208-0.078l-0.078-0.208v-0.182l0.078-0.208l0.208-0.078h2.964
		c0.52,0,0.983,0.13,1.391,0.39c0.407,0.26,0.726,0.63,0.956,1.111c0.23,0.481,0.345,1.038,0.345,1.67v3.965l-0.078,0.208
		L110.016,103.324 M98.25,103.324H98.03l-0.208-0.078l-0.078-0.208v-4.914c0-0.338,0.033-0.637,0.098-0.897
		c0.065-0.26,0.15-0.451,0.253-0.572h-3.783l-0.208-0.078l-0.078-0.208v-0.182l0.078-0.208l0.208-0.078h5.486l0.208,0.078
		l0.078,0.208v0.182l-0.078,0.208l-0.208,0.078h-0.832c-0.139,0.121-0.245,0.319-0.318,0.591c-0.074,0.273-0.11,0.587-0.11,0.943
		v4.849l-0.078,0.208L98.25,103.324 M83.795,103.324h-2.158l-0.208-0.078l-0.078-0.208v-0.182l0.078-0.208l0.208-0.078h2.093
		c0.658,0,1.159-0.215,1.501-0.644c0.342-0.429,0.531-1.042,0.566-1.839c0.008-0.087,0.013-0.247,0.013-0.481
		c0-0.225-0.005-0.381-0.013-0.468c-0.018-0.789-0.202-1.4-0.553-1.833c-0.351-0.433-0.856-0.65-1.514-0.65h-1.768v1.235
		c0,0.407,0.043,0.726,0.13,0.956c0.087,0.23,0.238,0.371,0.455,0.422l0.533,0.13c0.147,0.043,0.221,0.182,0.221,0.416v0.182
		l-0.084,0.156l-0.215,0.052l-0.104-0.013l-0.494-0.117c-0.416-0.095-0.724-0.321-0.923-0.676c-0.199-0.355-0.299-0.858-0.299-1.508
		v-1.703l0.078-0.208l0.208-0.078h2.327c0.893,0,1.575,0.275,2.048,0.825c0.472,0.55,0.721,1.332,0.747,2.347
		c0.009,0.087,0.013,0.264,0.013,0.533c0,0.277-0.004,0.459-0.013,0.546c-0.026,1.014-0.275,1.796-0.747,2.346
		C85.37,103.049,84.687,103.324,83.795,103.324 M71.536,103.324H66.31l-0.208-0.078l-0.078-0.208v-6.851l0.078-0.208l0.208-0.078
		h2.301c1.083,0,1.889,0.271,2.418,0.813c0.529,0.542,0.793,1.328,0.793,2.36v3.965l-0.078,0.208L71.536,103.324 M66.804,96.655
		v5.915h4.225v-3.432c0-1.655-0.828-2.483-2.483-2.483H66.804 M60.59,103.324h-0.247l-0.176-0.046l-0.149-0.149l-3.211-4.472
		c-0.425,0.303-0.713,0.654-0.865,1.053c-0.152,0.399-0.228,0.841-0.228,1.326v2.002l-0.078,0.208l-0.208,0.078h-0.221L55,103.246
		l-0.078-0.208v-2.067c0-0.615,0.098-1.163,0.293-1.644c0.195-0.481,0.578-0.908,1.15-1.281l-1.157-1.625
		c-0.069-0.104-0.104-0.19-0.104-0.26l0.078-0.182l0.182-0.078h0.247c0.121,0,0.23,0.065,0.325,0.195l2.938,4.095
		c0.364-0.199,0.628-0.405,0.793-0.617c0.165-0.212,0.266-0.427,0.306-0.643c0.039-0.217,0.058-0.507,0.058-0.871v-1.872
		l0.078-0.208l0.208-0.078h0.221l0.208,0.078l0.078,0.208v1.937c0,0.399-0.035,0.743-0.104,1.033
		c-0.07,0.291-0.215,0.572-0.436,0.845s-0.548,0.535-0.981,0.787l1.443,2.015c0.069,0.104,0.104,0.191,0.104,0.26l-0.078,0.182
		L60.59,103.324 M52.894,103.324h-5.226l-0.208-0.078l-0.078-0.208v-6.851l0.078-0.208l0.208-0.078h2.301
		c1.083,0,1.889,0.271,2.418,0.813c0.529,0.542,0.793,1.328,0.793,2.36v3.965l-0.078,0.208L52.894,103.324 M48.162,96.655v5.915
		h4.225v-3.432c0-1.655-0.828-2.483-2.483-2.483H48.162 M35.201,103.324h-0.247l-0.176-0.046l-0.149-0.149l-3.211-4.472
		c-0.425,0.303-0.713,0.654-0.865,1.053c-0.152,0.399-0.228,0.841-0.228,1.326v2.002l-0.078,0.208l-0.208,0.078h-0.221l-0.208-0.078
		l-0.078-0.208v-2.067c0-0.615,0.098-1.163,0.293-1.644c0.195-0.481,0.578-0.908,1.15-1.281l-1.157-1.625
		c-0.069-0.104-0.104-0.19-0.104-0.26l0.078-0.182l0.182-0.078h0.247c0.121,0,0.23,0.065,0.325,0.195l2.938,4.095
		c0.364-0.199,0.628-0.405,0.793-0.617c0.165-0.212,0.266-0.427,0.306-0.643c0.039-0.217,0.058-0.507,0.058-0.871v-1.872
		l0.078-0.208l0.208-0.078h0.221l0.208,0.078l0.078,0.208v1.937c0,0.399-0.035,0.743-0.104,1.033
		c-0.07,0.291-0.215,0.572-0.436,0.845s-0.548,0.535-0.981,0.787l1.443,2.015c0.069,0.104,0.104,0.191,0.104,0.26l-0.078,0.182
		L35.201,103.324 M205.551,100.334h-0.221l-0.208-0.078l-0.078-0.208v-3.861l0.078-0.208l0.208-0.078h0.221l0.208,0.078l0.078,0.208
		v3.861l-0.078,0.208L205.551,100.334 M159.922,100.334h-0.221l-0.208-0.078l-0.078-0.208v-3.861l0.078-0.208l0.208-0.078h0.221
		l0.208,0.078l0.078,0.208v3.861l-0.078,0.208L159.922,100.334 M102.228,100.334h-0.221l-0.208-0.078l-0.078-0.208v-3.861
		l0.078-0.208l0.208-0.078h0.221l0.208,0.078l0.078,0.208v3.861l-0.078,0.208L102.228,100.334 M92.232,100.334h-0.221l-0.208-0.078
		l-0.078-0.208v-3.861l0.078-0.208l0.208-0.078h0.221l0.208,0.078l0.078,0.208v3.861l-0.078,0.208L92.232,100.334"/>
	<path fill="#000000" d="M261.633,120.354c-1.031,0-1.803-0.275-2.314-0.826c-0.511-0.55-0.767-1.354-0.767-2.411v-4.03l0.078-0.208
		l0.208-0.078h3.055c1.075,0,1.846,0.247,2.314,0.741c0.468,0.494,0.724,1.261,0.767,2.301c0.009,0.087,0.013,0.329,0.013,0.728
		c0,0.407-0.004,0.655-0.013,0.741c-0.026,1.031-0.304,1.796-0.832,2.295C263.613,120.105,262.777,120.354,261.633,120.354
		 M259.345,113.555v3.562c0,0.798,0.19,1.41,0.572,1.839c0.381,0.429,0.953,0.644,1.716,0.644c0.892,0,1.536-0.193,1.931-0.579
		c0.394-0.386,0.6-0.977,0.617-1.774c0.009-0.087,0.013-0.312,0.013-0.676c0-0.355-0.004-0.576-0.013-0.663
		c-0.018-0.762-0.238-1.346-0.663-1.748c-0.425-0.403-0.988-0.604-1.69-0.604H259.345 M189.107,120.354
		c-1.101,0-1.9-0.269-2.398-0.806c-0.498-0.537-0.747-1.326-0.747-2.366v-4.095l0.078-0.208l0.208-0.078h0.221l0.208,0.078
		l0.078,0.208v4.03c0,0.798,0.193,1.41,0.579,1.839c0.386,0.429,0.977,0.644,1.774,0.644c0.797,0,1.385-0.193,1.762-0.579
		c0.377-0.386,0.574-0.977,0.591-1.774v-0.442v-1.027c-0.017-0.78-0.191-1.356-0.52-1.729c-0.329-0.373-0.776-0.559-1.339-0.559
		c-0.165,0-0.353,0.031-0.565,0.091c-0.212,0.061-0.392,0.143-0.539,0.247l-0.13,0.039l-0.15-0.058l-0.071-0.15v-0.169v-0.065
		l0.026-0.182l0.104-0.117c0.199-0.13,0.405-0.228,0.617-0.293c0.212-0.065,0.47-0.098,0.773-0.098c0.806,0,1.432,0.243,1.878,0.728
		c0.446,0.486,0.682,1.235,0.709,2.249c0.008,0.087,0.013,0.351,0.013,0.793c0,0.451-0.005,0.72-0.013,0.806
		c-0.026,1.04-0.28,1.807-0.761,2.301C191.012,120.107,190.216,120.354,189.107,120.354 M169.542,120.354
		c-1.031,0-1.803-0.275-2.314-0.826c-0.511-0.55-0.767-1.354-0.767-2.411v-4.03l0.078-0.208l0.208-0.078h3.055
		c1.075,0,1.846,0.247,2.314,0.741c0.468,0.494,0.724,1.261,0.767,2.301c0.009,0.087,0.013,0.329,0.013,0.728
		c0,0.407-0.004,0.655-0.013,0.741c-0.026,1.031-0.304,1.796-0.832,2.295C171.523,120.105,170.686,120.354,169.542,120.354
		 M167.254,113.555v3.562c0,0.798,0.19,1.41,0.572,1.839c0.381,0.429,0.953,0.644,1.716,0.644c0.893,0,1.536-0.193,1.931-0.579
		c0.394-0.386,0.6-0.977,0.617-1.774c0.009-0.087,0.013-0.312,0.013-0.676c0-0.355-0.004-0.576-0.013-0.663
		c-0.018-0.762-0.239-1.346-0.663-1.748c-0.425-0.403-0.988-0.604-1.69-0.604H167.254 M150.433,120.341
		c-0.148,0-0.221-0.069-0.221-0.208v-0.351c0-0.147,0.091-0.256,0.273-0.325c0.633-0.225,1.083-0.429,1.352-0.611
		c0.329-0.225,0.646-0.539,0.949-0.943c0.303-0.403,0.455-0.73,0.455-0.981l-0.195-1.014c-0.113-0.563-0.234-1.01-0.364-1.339
		c-0.13-0.329-0.301-0.581-0.513-0.754c-0.213-0.173-0.492-0.26-0.839-0.26h-0.481l-0.208-0.078l-0.078-0.208v-0.182l0.078-0.208
		l0.208-0.078h0.481c0.503,0,0.914,0.113,1.235,0.338c0.321,0.225,0.576,0.557,0.767,0.994c0.191,0.438,0.36,1.008,0.507,1.71
		l0.793,4.095v0.039l-0.085,0.176l-0.201,0.072h-0.221c-0.148,0-0.243-0.095-0.286-0.286l-0.338-1.729
		c-0.165,0.278-0.353,0.535-0.566,0.774c-0.212,0.238-0.427,0.431-0.643,0.578c-0.312,0.217-0.607,0.384-0.884,0.501
		c-0.277,0.117-0.572,0.206-0.884,0.266L150.433,120.341 M272.384,120.224h-0.221l-0.208-0.078l-0.078-0.208v-3.9
		c0-1.655-0.828-2.483-2.483-2.483h-1.742v6.383l-0.078,0.208l-0.208,0.078h-0.221l-0.208-0.078l-0.078-0.208v-6.851l0.078-0.208
		l0.208-0.078h2.314c1.083,0,1.889,0.271,2.418,0.813c0.529,0.542,0.793,1.328,0.793,2.36v3.965l-0.078,0.208L272.384,120.224
		 M256.238,120.224h-0.221l-0.208-0.078l-0.078-0.208v-3.9c0-1.655-0.828-2.483-2.483-2.483h-1.586l-0.208-0.078l-0.078-0.208
		v-0.182l0.078-0.208l0.208-0.078h1.651c1.083,0,1.889,0.271,2.418,0.813c0.529,0.542,0.793,1.328,0.793,2.36v3.965l-0.078,0.208
		L256.238,120.224 M246.527,120.224h-5.226l-0.208-0.078l-0.078-0.208v-6.851l0.078-0.208l0.208-0.078h2.301
		c1.083,0,1.889,0.271,2.418,0.813c0.529,0.542,0.793,1.328,0.793,2.36v3.965l-0.078,0.208L246.527,120.224 M241.795,113.555v5.915
		h4.225v-3.432c0-1.655-0.828-2.483-2.483-2.483H241.795 M235.269,120.224h-3.289l-0.208-0.078l-0.078-0.208v-0.182l0.078-0.208
		l0.208-0.078h2.782v-3.432c0-0.477-0.085-0.906-0.253-1.287c-0.169-0.381-0.403-0.676-0.702-0.884
		c-0.299-0.208-0.635-0.312-1.008-0.312h-1.508l-0.962,6.37l-0.11,0.215l-0.214,0.085h-0.234l-0.182-0.085l-0.052-0.215l0.949-6.37
		H229.9l-0.208-0.078l-0.078-0.208v-0.182l0.078-0.208l0.208-0.078h2.964c0.52,0,0.984,0.13,1.391,0.39
		c0.407,0.26,0.726,0.63,0.956,1.111c0.23,0.481,0.344,1.038,0.344,1.67v3.965l-0.078,0.208L235.269,120.224 M224.687,120.224
		h-5.226l-0.208-0.078l-0.078-0.208v-6.851l0.078-0.208l0.208-0.078h2.301c1.083,0,1.889,0.271,2.418,0.813
		c0.529,0.542,0.793,1.328,0.793,2.36v3.965l-0.078,0.208L224.687,120.224 M219.955,113.555v5.915h4.225v-3.432
		c0-1.655-0.828-2.483-2.483-2.483H219.955 M216.849,120.224h-0.624l-0.208-0.078l-0.078-0.208v-0.624l0.078-0.215l0.208-0.084
		h0.624l0.214,0.084l0.085,0.215v0.624l-0.085,0.208L216.849,120.224 M210.336,120.224h-0.221l-0.208-0.078l-0.078-0.208v-3.9
		c0-1.655-0.828-2.483-2.483-2.483h-2.236l-0.208-0.078l-0.078-0.208v-0.182l0.078-0.208l0.208-0.078h2.301
		c1.083,0,1.889,0.271,2.418,0.813c0.529,0.542,0.793,1.328,0.793,2.36v3.965l-0.078,0.208L210.336,120.224 M205.331,120.224h-0.221
		l-0.208-0.078l-0.078-0.208v-4.563l0.078-0.208l0.208-0.078h0.221l0.208,0.078l0.078,0.208v4.563l-0.078,0.208L205.331,120.224
		 M202.432,120.224h-0.221l-0.208-0.078l-0.078-0.208v-3.9c0-1.655-0.828-2.483-2.483-2.483H197.7v6.383l-0.078,0.208l-0.208,0.078
		h-0.221l-0.208-0.078l-0.078-0.208v-6.851l0.078-0.208l0.208-0.078h2.314c1.083,0,1.889,0.271,2.418,0.813
		c0.529,0.542,0.793,1.328,0.793,2.36v3.965l-0.078,0.208L202.432,120.224 M183.634,120.224h-0.221l-0.208-0.078l-0.078-0.208v-3.9
		c0-1.655-0.828-2.483-2.483-2.483h-2.236l-0.208-0.078l-0.078-0.208v-0.182l0.078-0.208l0.208-0.078h2.301
		c1.083,0,1.889,0.271,2.418,0.813c0.529,0.542,0.793,1.328,0.793,2.36v3.965l-0.078,0.208L183.634,120.224 M178.629,120.224h-0.221
		l-0.208-0.078l-0.078-0.208v-4.563l0.078-0.208l0.208-0.078h0.221l0.208,0.078l0.078,0.208v4.563l-0.078,0.208L178.629,120.224
		 M164.069,120.224h-0.221l-0.208-0.078l-0.078-0.208v-6.851l0.078-0.208l0.208-0.078h0.221l0.208,0.078l0.078,0.208v6.851
		l-0.078,0.208L164.069,120.224 M158.883,120.224h-2.158l-0.208-0.078l-0.078-0.208v-0.182l0.078-0.208l0.208-0.078h2.093
		c0.659,0,1.159-0.214,1.502-0.643c0.342-0.429,0.531-1.042,0.565-1.84c0.009-0.087,0.013-0.247,0.013-0.481
		c0-0.225-0.004-0.381-0.013-0.468c-0.017-0.789-0.201-1.4-0.552-1.833c-0.351-0.433-0.856-0.65-1.515-0.65h-1.768v1.235
		c0,0.407,0.043,0.726,0.13,0.956c0.087,0.23,0.238,0.371,0.455,0.423l0.533,0.13c0.147,0.043,0.221,0.182,0.221,0.416v0.182
		l-0.085,0.156l-0.214,0.052l-0.104-0.013l-0.494-0.117c-0.416-0.095-0.724-0.321-0.923-0.676c-0.199-0.355-0.299-0.858-0.299-1.508
		v-1.703l0.078-0.208l0.208-0.078h2.327c0.893,0,1.575,0.275,2.047,0.825c0.472,0.55,0.722,1.333,0.747,2.347
		c0.009,0.087,0.013,0.264,0.013,0.533c0,0.278-0.004,0.459-0.013,0.546c-0.026,1.014-0.275,1.796-0.747,2.347
		C160.458,119.949,159.775,120.224,158.883,120.224 M148.262,120.224h-0.221l-0.208-0.078l-0.078-0.208v-3.9
		c0-1.655-0.828-2.483-2.483-2.483h-0.988c-0.087,0.624-0.15,1.127-0.188,1.508c-0.039,0.382-0.054,0.815-0.046,1.3v3.575
		l-0.078,0.208l-0.208,0.078l-1.482-0.026l-0.208-0.078l-0.078-0.208v-0.182l0.078-0.208l0.208-0.078l0.975,0.013v-3.029v-0.403
		c0-0.477,0.017-0.895,0.052-1.255c0.035-0.359,0.1-0.765,0.195-1.215h-0.663l-0.208-0.078l-0.078-0.208v-0.182l0.078-0.208
		l0.208-0.078h2.496c1.083,0,1.889,0.271,2.418,0.813c0.529,0.542,0.793,1.328,0.793,2.36v3.965l-0.078,0.208L148.262,120.224
		 M136.601,120.224h-0.221l-0.208-0.078l-0.078-0.208v-3.9c0-1.655-0.828-2.483-2.483-2.483h-2.236l-0.208-0.078l-0.078-0.208
		v-0.182l0.078-0.208l0.208-0.078h2.301c1.083,0,1.889,0.271,2.418,0.813c0.529,0.542,0.793,1.328,0.793,2.36v3.965l-0.078,0.208
		L136.601,120.224 M131.596,120.224h-0.221l-0.208-0.078l-0.078-0.208v-4.563l0.078-0.208l0.208-0.078h0.221l0.208,0.078
		l0.078,0.208v4.563l-0.078,0.208L131.596,120.224 M128.697,120.224h-0.221l-0.208-0.078l-0.078-0.208v-3.9
		c0-1.655-0.828-2.483-2.483-2.483h-1.586l-0.208-0.078l-0.078-0.208v-0.182l0.078-0.208l0.208-0.078h1.651
		c1.083,0,1.889,0.271,2.418,0.813c0.529,0.542,0.793,1.328,0.793,2.36v3.965l-0.078,0.208L128.697,120.224 M122.873,120.224h-5.2
		l-0.208-0.078l-0.078-0.208v-0.182l0.078-0.208l0.208-0.078h3.913v-3.432c0-1.655-0.828-2.483-2.483-2.483h-1.3l-0.208-0.078
		l-0.078-0.208v-0.182l0.078-0.208l0.208-0.078h1.365c1.083,0,1.889,0.273,2.418,0.819c0.529,0.546,0.793,1.33,0.793,2.353v3.497
		h0.494l0.208,0.078l0.078,0.208v0.182l-0.078,0.208L122.873,120.224 M115.333,120.224h-0.221l-0.208-0.078l-0.078-0.208v-3.9
		c0-1.655-0.828-2.483-2.483-2.483h-2.236l-0.208-0.078l-0.078-0.208v-0.182l0.078-0.208l0.208-0.078h2.301
		c1.083,0,1.889,0.271,2.418,0.813c0.529,0.542,0.793,1.328,0.793,2.36v3.965l-0.078,0.208L115.333,120.224 M110.328,120.224h-0.221
		l-0.208-0.078l-0.078-0.208v-4.563l0.078-0.208l0.208-0.078h0.221l0.208,0.078l0.078,0.208v4.563l-0.078,0.208L110.328,120.224
		 M104.075,120.224h-3.289l-0.208-0.078l-0.078-0.208v-0.182l0.078-0.208l0.208-0.078h2.782v-3.432c0-0.477-0.085-0.906-0.253-1.287
		c-0.169-0.381-0.403-0.676-0.702-0.884c-0.299-0.208-0.635-0.312-1.008-0.312h-1.508l-0.962,6.37l-0.11,0.215l-0.214,0.085h-0.234
		l-0.182-0.085l-0.052-0.215l0.949-6.37h-0.585l-0.208-0.078l-0.078-0.208v-0.182l0.078-0.208l0.208-0.078h2.964
		c0.52,0,0.984,0.13,1.391,0.39c0.407,0.26,0.726,0.63,0.956,1.111c0.23,0.481,0.344,1.038,0.344,1.67v3.965l-0.078,0.208
		L104.075,120.224 M93.493,120.224h-5.226l-0.208-0.078l-0.078-0.208v-6.851l0.078-0.208l0.208-0.078h2.301
		c1.083,0,1.889,0.271,2.418,0.813c0.529,0.542,0.793,1.328,0.793,2.36v3.965l-0.078,0.208L93.493,120.224 M88.762,113.555v5.915
		h4.225v-3.432c0-1.655-0.828-2.483-2.483-2.483H88.762 M249.322,117.234h-0.221l-0.208-0.078l-0.078-0.208v-3.861l0.078-0.208
		l0.208-0.078h0.221l0.208,0.078l0.078,0.208v3.861l-0.078,0.208L249.322,117.234 M227.482,117.234h-0.221l-0.208-0.078
		l-0.078-0.208v-3.861l0.078-0.208l0.208-0.078h0.221l0.208,0.078l0.078,0.208v3.861l-0.078,0.208L227.482,117.234 M194.541,117.234
		h-0.221l-0.208-0.078l-0.078-0.208v-3.861l0.078-0.208l0.208-0.078h0.221l0.208,0.078l0.078,0.208v3.861l-0.078,0.208
		L194.541,117.234 M96.288,117.234h-0.221l-0.208-0.078l-0.078-0.208v-3.861l0.078-0.208l0.208-0.078h0.221l0.208,0.078l0.078,0.208
		v3.861l-0.078,0.208L96.288,117.234"/>
</g>
</svg>
